<?xml version="1.0" encoding="UTF-8"?>
<svg xmlns="http://www.w3.org/2000/svg" viewBox="0 0 400 160" width="400" height="160">
  <g transform="translate(30.00,33.76) scale(0.226667)" fill="white">
<path d="M1462,0h7v1h-7z M1450,1h16v1h-16z M1438,2h22v1h-22z M1427,3h27v1h-27z M1417,4h31v1h-31z M1406,5h36v1h-36z M1396,6h41v1h-41z M1387,7h44v1h-44z M1377,8h49v1h-49z M1368,9h52v1h-52z M1359,10h56v1h-56z M1350,11h60v1h-60z M1341,12h63v1h-63z M1333,13h66v1h-66z M1324,14h70v1h-70z M1316,15h73v1h-73z M1308,16h76v1h-76z M1300,17h79v1h-79z M1292,18h82v1h-82z M1284,19h85v1h-85z M1277,20h87v1h-87z M1269,21h91v1h-91z M1262,22h93v1h-93z M1254,23h96v1h-96z M1247,24h99v1h-99z M1240,25h101v1h-101z M1233,26h103v1h-103z M1226,27h106v1h-106z M1219,28h108v1h-108z M1212,29h111v1h-111z M1206,30h113v1h-113z M1199,31h115v1h-115z M1192,32h118v1h-118z M1186,33h120v1h-120z M1179,34h122v1h-122z M1173,35h124v1h-124z M1167,36h126v1h-126z M1160,37h129v1h-129z M1154,38h131v1h-131z M1148,39h133v1h-133z M1142,40h135v1h-135z M1136,41h137v1h-137z M1130,42h139v1h-139z M1124,43h141v1h-141z M1118,44h143v1h-143z M1112,45h145v1h-145z M1106,46h147v1h-147z M1101,47h148v1h-148z M1095,48h150v1h-150z M1089,49h152v1h-152z M1084,50h154v1h-154z M1078,51h156v1h-156z M1072,52h158v1h-158z M1067,53h160v1h-160z M1061,54h162v1h-162z M1056,55h163v1h-163z M1051,56h165v1h-165z M1045,57h167v1h-167z M1040,58h169v1h-169z M1034,59h171v1h-171z M1029,60h172v1h-172z M1024,61h174v1h-174z M1019,62h176v1h-176z M1014,63h177v1h-177z M1008,64h180v1h-180z M1003,65h181v1h-181z M998,66h183v1h-183z M993,67h185v1h-185z M988,68h186v1h-186z M983,69h188v1h-188z M978,70h190v1h-190z M973,71h191v1h-191z M968,72h193v1h-193z M963,73h195v1h-195z M959,74h196v1h-196z M954,75h197v1h-197z M949,76h199v1h-199z M944,77h201v1h-201z M939,78h203v1h-203z M935,79h204v1h-204z M930,80h206v1h-206z M925,81h208v1h-208z M921,82h209v1h-209z M916,83h211v1h-211z M911,84h213v1h-213z M907,85h214v1h-214z M902,86h216v1h-216z M898,87h217v1h-217z M893,88h219v1h-219z M889,89h220v1h-220z M884,90h222v1h-222z M880,91h223v1h-223z M875,92h225v1h-225z M871,93h226v1h-226z M866,94h228v1h-228z M862,95h230v1h-230z M857,96h232v1h-232z M853,97h233v1h-233z M849,98h234v1h-234z M844,99h236v1h-236z M840,100h238v1h-238z M836,101h239v1h-239z M832,102h240v1h-240z M827,103h242v1h-242z M823,104h244v1h-244z M819,105h245v1h-245z M815,106h246v1h-246z M810,107h249v1h-249z M806,108h250v1h-250z M802,109h251v1h-251z M798,110h253v1h-253z M794,111h254v1h-254z M790,112h256v1h-256z M786,113h257v1h-257z M782,114h259v1h-259z M778,115h260v1h-260z M774,116h261v1h-261z M770,117h263v1h-263z M765,118h265v1h-265z M761,119h267v1h-267z M758,120h267v1h-267z M754,121h269v1h-269z M750,122h271v1h-271z M746,123h272v1h-272z M742,124h274v1h-274z M738,125h275v1h-275z M734,126h277v1h-277z M730,127h278v1h-278z M726,128h280v1h-280z M722,129h282v1h-282z M718,130h283v1h-283z M715,131h284v1h-284z M711,132h286v1h-286z M707,133h287v1h-287z M703,134h289v1h-289z M699,135h291v1h-291z M696,136h291v1h-291z M692,137h293v1h-293z M688,138h295v1h-295z M684,139h297v1h-297z M681,140h297v1h-297z M677,141h299v1h-299z M673,142h301v1h-301z M670,143h302v1h-302z M666,144h304v1h-304z M662,145h305v1h-305z M659,146h306v1h-306z M655,147h308v1h-308z M651,148h310v1h-310z M648,149h311v1h-311z M644,150h313v1h-313z M640,151h314v1h-314z M637,152h315v1h-315z M633,153h317v1h-317z M630,154h318v1h-318z M626,155h320v1h-320z M623,156h321v1h-321z M619,157h323v1h-323z M616,158h324v1h-324z M612,159h326v1h-326z M609,160h327v1h-327z M605,161h329v1h-329z M602,162h330v1h-330z M598,163h332v1h-332z M595,164h333v1h-333z M591,165h335v1h-335z M588,166h336v1h-336z M584,167h338v1h-338z M581,168h339v1h-339z M577,169h341v1h-341z M574,170h342v1h-342z M571,171h343v1h-343z M567,172h345v1h-345z M564,173h346v1h-346z M561,174h347v1h-347z M557,175h349v1h-349z M554,176h351v1h-351z M551,177h352v1h-352z M547,178h354v1h-354z M544,179h355v1h-355z M541,180h356v1h-356z M537,181h358v1h-358z M534,182h359v1h-359z M531,183h361v1h-361z M527,184h363v1h-363z M524,185h364v1h-364z M521,186h365v1h-365z M518,187h366v1h-366z M514,188h369v1h-369z M511,189h370v1h-370z M508,190h371v1h-371z M505,191h372v1h-372z M502,192h374v1h-374z M498,193h376v1h-376z M495,194h377v1h-377z M492,195h379v1h-379z M489,196h380v1h-380z M486,197h381v1h-381z M482,198h383v1h-383z M479,199h385v1h-385z M476,200h386v1h-386z M473,201h387v1h-387z M470,202h389v1h-389z M467,203h390v1h-390z M464,204h392v1h-392z M461,205h393v1h-393z M458,206h394v1h-394z M454,207h397v1h-397z M451,208h398v1h-398z M448,209h399v1h-399z M445,210h401v1h-401z M442,211h402v1h-402z M439,212h404v1h-404z M436,213h405v1h-405z M433,214h407v1h-407z M430,215h408v1h-408z M427,216h410v1h-410z M424,217h411v1h-411z M421,218h413v1h-413z M418,219h414v1h-414z M415,220h416v1h-416z M412,221h417v1h-417z M409,222h419v1h-419z M406,223h420v1h-420z M403,224h422v1h-422z M400,225h423v1h-423z M397,226h425v1h-425z M394,227h426v1h-426z M391,228h428v1h-428z M389,229h429v1h-429z M386,230h430v1h-430z M383,231h432v1h-432z M380,232h433v1h-433z M377,233h435v1h-435z M374,234h437v1h-437z M371,235h438v1h-438z M368,236h440v1h-440z M365,237h442v1h-442z M363,238h442v1h-442z M360,239h444v1h-444z M357,240h446v1h-446z M354,241h447v1h-447z M351,242h449v1h-449z M348,243h451v1h-451z M346,244h452v1h-452z M343,245h453v1h-453z M340,246h455v1h-455z M337,247h457v1h-457z M334,248h459v1h-459z M333,249h458v1h-458z"/>
<path d="M1497,0h3v1h-3z M1492,1h7v1h-7z M1487,2h10v1h-10z M1482,3h13v1h-13z M1477,4h15v1h-15z M1472,5h18v1h-18z M1467,6h21v1h-21z M1462,7h24v1h-24z M1457,8h27v1h-27z M1452,9h30v1h-30z M1448,10h32v1h-32z M1443,11h34v1h-34z M1439,12h36v1h-36z M1434,13h39v1h-39z M1430,14h41v1h-41z M1425,15h44v1h-44z M1421,16h46v1h-46z M1416,17h49v1h-49z M1412,18h51v1h-51z M1408,19h53v1h-53z M1404,20h55v1h-55z M1399,21h58v1h-58z M1395,22h60v1h-60z M1391,23h62v1h-62z M1387,24h64v1h-64z M1383,25h66v1h-66z M1379,26h69v1h-69z M1375,27h71v1h-71z M1371,28h73v1h-73z M1367,29h75v1h-75z M1363,30h77v1h-77z M1359,31h79v1h-79z M1355,32h81v1h-81z M1352,33h83v1h-83z M1348,34h85v1h-85z M1344,35h87v1h-87z M1340,36h89v1h-89z M1337,37h91v1h-91z M1333,38h93v1h-93z M1329,39h95v1h-95z M1326,40h96v1h-96z M1322,41h99v1h-99z M1319,42h100v1h-100z M1315,43h102v1h-102z M1312,44h104v1h-104z M1308,45h106v1h-106z M1305,46h107v1h-107z M1301,47h110v1h-110z M1298,48h111v1h-111z M1294,49h113v1h-113z M1291,50h115v1h-115z M1288,51h116v1h-116z M1285,52h118v1h-118z M1281,53h120v1h-120z M1278,54h121v1h-121z M1275,55h123v1h-123z M1272,56h124v1h-124z M1268,57h127v1h-127z M1265,58h128v1h-128z M1262,59h130v1h-130z M1259,60h131v1h-131z M1256,61h133v1h-133z M1253,62h134v1h-134z M1250,63h136v1h-136z M1247,64h138v1h-138z M1243,65h140v1h-140z M1240,66h142v1h-142z M1237,67h143v1h-143z M1235,68h144v1h-144z M1232,69h146v1h-146z M1229,70h147v1h-147z M1226,71h149v1h-149z M1223,72h150v1h-150z M1220,73h152v1h-152z M1217,74h154v1h-154z M1214,75h155v1h-155z M1211,76h157v1h-157z M1209,77h158v1h-158z M1206,78h160v1h-160z M1203,79h161v1h-161z M1200,80h163v1h-163z M1197,81h165v1h-165z M1195,82h166v1h-166z M1192,83h167v1h-167z M1189,84h169v1h-169z M1187,85h170v1h-170z M1184,86h172v1h-172z M1181,87h174v1h-174z M1179,88h174v1h-174z M1176,89h176v1h-176z M1173,90h178v1h-178z M1171,91h179v1h-179z M1168,92h181v1h-181z M1166,93h182v1h-182z M1163,94h184v1h-184z M1160,95h186v1h-186z M1158,96h186v1h-186z M1155,97h188v1h-188z M1153,98h189v1h-189z M1150,99h191v1h-191z M1148,100h192v1h-192z M1145,101h194v1h-194z M1143,102h195v1h-195z M1141,103h196v1h-196z M1138,104h198v1h-198z M1136,105h199v1h-199z M1133,106h201v1h-201z M1131,107h202v1h-202z M1129,108h203v1h-203z M1126,109h206v1h-206z M1124,110h207v1h-207z M1122,111h208v1h-208z M1119,112h210v1h-210z M1117,113h211v1h-211z M1115,114h212v1h-212z M1112,115h214v1h-214z M1110,116h215v1h-215z M1108,117h217v1h-217z M1106,118h218v1h-218z M1103,119h220v1h-220z M1101,120h221v1h-221z M1099,121h222v1h-222z M1097,122h224v1h-224z M1094,123h226v1h-226z M1092,124h227v1h-227z M1090,125h228v1h-228z M1088,126h230v1h-230z M1086,127h231v1h-231z M1084,128h232v1h-232z M1082,129h234v1h-234z M1079,130h236v1h-236z M1077,131h237v1h-237z M1075,132h239v1h-239z M1073,133h240v1h-240z M1071,134h241v1h-241z M1069,135h243v1h-243z M1067,136h244v1h-244z M1065,137h246v1h-246z M1063,138h247v1h-247z M1061,139h249v1h-249z M1059,140h250v1h-250z M1057,141h251v1h-251z M1055,142h253v1h-253z M1053,143h254v1h-254z M1051,144h256v1h-256z M1049,145h257v1h-257z M1047,146h259v1h-259z M1045,147h261v1h-261z M1043,148h262v1h-262z M1041,149h264v1h-264z M1039,150h265v1h-265z M1037,151h267v1h-267z M1035,152h269v1h-269z M1033,153h270v1h-270z M1032,154h271v1h-271z M1030,155h272v1h-272z M1028,156h274v1h-274z M1026,157h276v1h-276z M1024,158h278v1h-278z M1022,159h279v1h-279z M1021,160h280v1h-280z M1019,161h282v1h-282z M1017,162h283v1h-283z M1015,163h285v1h-285z M1013,164h287v1h-287z M1012,165h288v1h-288z M1010,166h290v1h-290z M1008,167h291v1h-291z M1006,168h293v1h-293z M1004,169h295v1h-295z M1003,170h296v1h-296z M1001,171h298v1h-298z M999,172h300v1h-300z M998,173h301v1h-301z M996,174h303v1h-303z M994,175h305v1h-305z M992,176h307v1h-307z M991,177h308v1h-308z M989,178h310v1h-310z M987,179h312v1h-312z M986,180h313v1h-313z M984,181h315v1h-315z M983,182h316v1h-316z M981,183h318v1h-318z M979,184h320v1h-320z M978,185h321v1h-321z M976,186h323v1h-323z M974,187h325v1h-325z M973,188h326v1h-326z M971,189h329v1h-329z M970,190h330v1h-330z M968,191h332v1h-332z M967,192h333v1h-333z M965,193h335v1h-335z M964,194h337v1h-337z M962,195h339v1h-339z M960,196h341v1h-341z M959,197h343v1h-343z M957,198h345v1h-345z M956,199h346v1h-346z M954,200h349v1h-349z M953,201h350v1h-350z M952,202h351v1h-351z M950,203h354v1h-354z M949,204h355v1h-355z M947,205h358v1h-358z M946,206h359v1h-359z M944,207h362v1h-362z M943,208h363v1h-363z M941,209h366v1h-366z M940,210h367v1h-367z M939,211h369v1h-369z M937,212h371v1h-371z M936,213h373v1h-373z M934,214h376v1h-376z M933,215h377v1h-377z M932,216h379v1h-379z M930,217h382v1h-382z M929,218h383v1h-383z M928,219h385v1h-385z M926,220h388v1h-388z M925,221h390v1h-390z M924,222h391v1h-391z M922,223h394v1h-394z M921,224h396v1h-396z M920,225h398v1h-398z M919,226h400v1h-400z M917,227h403v1h-403z M916,228h405v1h-405z M915,229h407v1h-407z M914,230h409v1h-409z M912,231h411v1h-411z M911,232h414v1h-414z M910,233h416v1h-416z M909,234h418v1h-418z M908,235h420v1h-420z M906,236h423v1h-423z M905,237h425v1h-425z M904,238h427v1h-427z M903,239h429v1h-429z M902,240h432v1h-432z M901,241h434v1h-434z M899,242h437v1h-437z M898,243h439v1h-439z M897,244h442v1h-442z M896,245h444v1h-444z M895,246h446v1h-446z M894,247h449v1h-449z M893,248h451v1h-451z M893,249h452v1h-452z"/>
<path d="M457,286h61v1h-61z M456,287h61v1h-61z M454,288h62v1h-62z M453,289h61v1h-61z M452,290h61v1h-61z M451,291h61v1h-61z M450,292h61v1h-61z M448,293h61v1h-61z M447,294h61v1h-61z M446,295h61v1h-61z M445,296h61v1h-61z M443,297h61v1h-61z M442,298h61v1h-61z M441,299h61v1h-61z M440,300h61v1h-61z M439,301h61v1h-61z M437,302h61v1h-61z M436,303h61v1h-61z M435,304h61v1h-61z M434,305h61v1h-61z M433,306h60v1h-60z M431,307h61v1h-61z M430,308h61v1h-61z M429,309h61v1h-61z M428,310h61v1h-61z M427,311h60v1h-60z M425,312h61v1h-61z M424,313h61v1h-61z M423,314h61v1h-61z M422,315h60v1h-60z M420,316h61v1h-61z M419,317h61v1h-61z M418,318h61v1h-61z M417,319h61v1h-61z M416,320h60v1h-60z M414,321h61v1h-61z M413,322h61v1h-61z M412,323h61v1h-61z M411,324h60v1h-60z M410,325h60v1h-60z M408,326h61v1h-61z M407,327h61v1h-61z M406,328h61v1h-61z M405,329h60v1h-60z M404,330h60v1h-60z M402,331h61v1h-61z M401,332h61v1h-61z M400,333h60v1h-60z M399,334h60v1h-60z M397,335h61v1h-61z M396,336h61v1h-61z M395,337h61v1h-61z M394,338h60v1h-60z M393,339h60v1h-60z M391,340h61v1h-61z M390,341h61v1h-61z M389,342h60v1h-60z M388,343h60v1h-60z M387,344h60v1h-60z M385,345h61v1h-61z M384,346h61v1h-61z M383,347h60v1h-60z M382,348h60v1h-60z M381,349h60v1h-60z M379,350h61v1h-61z M378,351h60v1h-60z M377,352h60v1h-60z M376,353h60v1h-60z M374,354h61v1h-61z M373,355h61v1h-61z M372,356h60v1h-60z M371,357h60v1h-60z M370,358h60v1h-60z M368,359h61v1h-61z M367,360h60v1h-60z M366,361h60v1h-60z M365,362h60v1h-60z M364,363h60v1h-60z M362,364h61v1h-61z M361,365h60v1h-60z M360,366h60v1h-60z M359,367h60v1h-60z M358,368h60v1h-60z M356,369h60v1h-60z M355,370h60v1h-60z M354,371h60v1h-60z M353,372h60v1h-60z M351,373h61v1h-61z M350,374h60v1h-60z M349,375h60v1h-60z M349,376h59v1h-59z M348,377h59v1h-59z M347,378h58v1h-58z M347,379h226v1h-226z M346,380h226v1h-226z M346,381h225v1h-225z M346,382h224v1h-224z M345,383h224v1h-224z M345,384h223v1h-223z M345,385h222v1h-222z M345,386h220v1h-220z M345,387h219v1h-219z M345,388h218v1h-218z M345,389h217v1h-217z M345,390h216v1h-216z M345,391h214v1h-214z M345,392h213v1h-213z M346,393h211v1h-211z M346,394h210v1h-210z M347,395h208v1h-208z M347,396h206v1h-206z M348,397h204v1h-204z M349,398h202v1h-202z M350,399h200v1h-200z M352,400h197v1h-197z M353,401h194v1h-194z M355,402h191v1h-191z M358,403h187v1h-187z M361,404h183v1h-183z M365,405h178v1h-178z M372,406h169v1h-169z"/>
<path d="M588,286h501v1h-501z M586,287h508v1h-508z M585,288h512v1h-512z M584,289h515v1h-515z M583,290h518v1h-518z M581,291h522v1h-522z M580,292h525v1h-525z M579,293h527v1h-527z M578,294h529v1h-529z M576,295h532v1h-532z M575,296h534v1h-534z M574,297h536v1h-536z M573,298h537v1h-537z M572,299h539v1h-539z M570,300h541v1h-541z M569,301h542v1h-542z M568,302h544v1h-544z M567,303h545v1h-545z M566,304h546v1h-546z M565,305h547v1h-547z M563,306h549v1h-549z M562,307h550v1h-550z M561,308h551v1h-551z M560,309h343v1h-343z M1028,309h83v1h-83z M559,310h342v1h-342z M1032,310h79v1h-79z M558,311h342v1h-342z M1034,311h77v1h-77z M557,312h342v1h-342z M1035,312h75v1h-75z M677,313h221v1h-221z M1035,313h75v1h-75z M675,314h221v1h-221z M1035,314h74v1h-74z M674,315h67v1h-67z M831,315h64v1h-64z M1035,315h74v1h-74z M673,316h66v1h-66z M830,316h64v1h-64z M1035,316h73v1h-73z M672,317h66v1h-66z M829,317h64v1h-64z M1034,317h73v1h-73z M671,318h66v1h-66z M827,318h64v1h-64z M1033,318h74v1h-74z M669,319h67v1h-67z M826,319h64v1h-64z M1032,319h74v1h-74z M668,320h66v1h-66z M825,320h64v1h-64z M1031,320h74v1h-74z M667,321h66v1h-66z M824,321h64v1h-64z M1030,321h74v1h-74z M666,322h66v1h-66z M822,322h65v1h-65z M1028,322h75v1h-75z M665,323h66v1h-66z M821,323h64v1h-64z M1026,323h76v1h-76z M663,324h67v1h-67z M820,324h64v1h-64z M1024,324h77v1h-77z M662,325h66v1h-66z M819,325h64v1h-64z M1021,325h78v1h-78z M661,326h66v1h-66z M817,326h65v1h-65z M1016,326h82v1h-82z M660,327h66v1h-66z M816,327h281v1h-281z M658,328h67v1h-67z M815,328h280v1h-280z M657,329h66v1h-66z M814,329h280v1h-280z M656,330h66v1h-66z M813,330h279v1h-279z M655,331h66v1h-66z M811,331h280v1h-280z M654,332h66v1h-66z M810,332h279v1h-279z M652,333h66v1h-66z M809,333h278v1h-278z M651,334h66v1h-66z M808,334h278v1h-278z M650,335h66v1h-66z M806,335h278v1h-278z M649,336h66v1h-66z M805,336h277v1h-277z M648,337h65v1h-65z M804,337h276v1h-276z M646,338h66v1h-66z M803,338h275v1h-275z M645,339h66v1h-66z M801,339h275v1h-275z M644,340h66v1h-66z M800,340h274v1h-274z M643,341h65v1h-65z M799,341h273v1h-273z M641,342h66v1h-66z M798,342h272v1h-272z M640,343h66v1h-66z M796,343h272v1h-272z M639,344h66v1h-66z M795,344h271v1h-271z M638,345h65v1h-65z M794,345h269v1h-269z M637,346h65v1h-65z M793,346h268v1h-268z M635,347h66v1h-66z M792,347h266v1h-266z M634,348h66v1h-66z M790,348h265v1h-265z M633,349h66v1h-66z M789,349h264v1h-264z M632,350h65v1h-65z M788,350h262v1h-262z M631,351h65v1h-65z M787,351h260v1h-260z M629,352h66v1h-66z M785,352h258v1h-258z M628,353h66v1h-66z M784,353h256v1h-256z M627,354h65v1h-65z M783,354h253v1h-253z M626,355h65v1h-65z M782,355h254v1h-254z M624,356h66v1h-66z M780,356h257v1h-257z M623,357h66v1h-66z M779,357h259v1h-259z M622,358h65v1h-65z M778,358h261v1h-261z M621,359h65v1h-65z M777,359h262v1h-262z M620,360h65v1h-65z M775,360h264v1h-264z M618,361h66v1h-66z M774,361h70v1h-70z M963,361h77v1h-77z M617,362h65v1h-65z M773,362h69v1h-69z M968,362h72v1h-72z M616,363h65v1h-65z M772,363h69v1h-69z M970,363h70v1h-70z M615,364h65v1h-65z M770,364h70v1h-70z M971,364h69v1h-69z M613,365h66v1h-66z M769,365h70v1h-70z M972,365h68v1h-68z M612,366h65v1h-65z M768,366h69v1h-69z M972,366h68v1h-68z M611,367h65v1h-65z M767,367h69v1h-69z M972,367h68v1h-68z M610,368h65v1h-65z M766,368h69v1h-69z M972,368h68v1h-68z M609,369h65v1h-65z M764,369h70v1h-70z M972,369h68v1h-68z M607,370h65v1h-65z M763,370h69v1h-69z M971,370h69v1h-69z M606,371h65v1h-65z M762,371h69v1h-69z M971,371h68v1h-68z M605,372h65v1h-65z M761,372h69v1h-69z M970,372h69v1h-69z M604,373h65v1h-65z M759,373h70v1h-70z M970,373h69v1h-69z M603,374h65v1h-65z M758,374h69v1h-69z M969,374h69v1h-69z M601,375h65v1h-65z M757,375h69v1h-69z M968,375h70v1h-70z M600,376h65v1h-65z M756,376h69v1h-69z M967,376h70v1h-70z M599,377h65v1h-65z M754,377h70v1h-70z M966,377h71v1h-71z M598,378h65v1h-65z M753,378h69v1h-69z M965,378h71v1h-71z M596,379h65v1h-65z M752,379h69v1h-69z M964,379h71v1h-71z M595,380h65v1h-65z M751,380h69v1h-69z M962,380h72v1h-72z M594,381h65v1h-65z M749,381h70v1h-70z M961,381h73v1h-73z M593,382h65v1h-65z M748,382h70v1h-70z M960,382h73v1h-73z M591,383h65v1h-65z M747,383h69v1h-69z M959,383h72v1h-72z M590,384h65v1h-65z M746,384h69v1h-69z M958,384h72v1h-72z M589,385h65v1h-65z M745,385h69v1h-69z M956,385h73v1h-73z M588,386h65v1h-65z M743,386h70v1h-70z M955,386h73v1h-73z M587,387h64v1h-64z M742,387h69v1h-69z M954,387h73v1h-73z M585,388h65v1h-65z M741,388h69v1h-69z M953,388h73v1h-73z M584,389h65v1h-65z M740,389h69v1h-69z M952,389h73v1h-73z M583,390h65v1h-65z M738,390h70v1h-70z M950,390h73v1h-73z M582,391h64v1h-64z M737,391h69v1h-69z M949,391h73v1h-73z M580,392h65v1h-65z M736,392h69v1h-69z M948,392h73v1h-73z M579,393h65v1h-65z M735,393h69v1h-69z M947,393h73v1h-73z M578,394h65v1h-65z M733,394h70v1h-70z M946,394h73v1h-73z M577,395h64v1h-64z M732,395h69v1h-69z M944,395h74v1h-74z M575,396h65v1h-65z M731,396h69v1h-69z M943,396h73v1h-73z M574,397h65v1h-65z M730,397h69v1h-69z M942,397h73v1h-73z M573,398h65v1h-65z M728,398h70v1h-70z M941,398h73v1h-73z M572,399h65v1h-65z M727,399h69v1h-69z M940,399h73v1h-73z M570,400h65v1h-65z M726,400h69v1h-69z M939,400h72v1h-72z M569,401h65v1h-65z M725,401h69v1h-69z M937,401h73v1h-73z M568,402h65v1h-65z M724,402h69v1h-69z M936,402h73v1h-73z M567,403h65v1h-65z M722,403h69v1h-69z M935,403h73v1h-73z M565,404h65v1h-65z M721,404h69v1h-69z M934,404h72v1h-72z M564,405h65v1h-65z M720,405h69v1h-69z M933,405h72v1h-72z M564,406h64v1h-64z M719,406h69v1h-69z M932,406h72v1h-72z M931,407h72v1h-72z"/>
<path d="M314,287h36v1h-36z M305,288h49v1h-49z M300,289h56v1h-56z M295,290h63v1h-63z M291,291h68v1h-68z M288,292h72v1h-72z M285,293h76v1h-76z M282,294h80v1h-80z M280,295h82v1h-82z M277,296h85v1h-85z M275,297h88v1h-88z M272,298h91v1h-91z M270,299h93v1h-93z M267,300h96v1h-96z M265,301h98v1h-98z M262,302h101v1h-101z M259,303h103v1h-103z M257,304h105v1h-105z M254,305h108v1h-108z M252,306h110v1h-110z M249,307h112v1h-112z M247,308h114v1h-114z M244,309h116v1h-116z M242,310h118v1h-118z M239,311h121v1h-121z M237,312h122v1h-122z M234,313h125v1h-125z M232,314h126v1h-126z M229,315h129v1h-129z M226,316h131v1h-131z M224,317h133v1h-133z M221,318h135v1h-135z M219,319h137v1h-137z M216,320h85v1h-85z M304,320h52v1h-52z M214,321h85v1h-85z M304,321h51v1h-51z M211,322h85v1h-85z M303,322h52v1h-52z M209,323h85v1h-85z M303,323h51v1h-51z M206,324h85v1h-85z M302,324h52v1h-52z M204,325h85v1h-85z M302,325h51v1h-51z M201,326h86v1h-86z M301,326h52v1h-52z M199,327h85v1h-85z M301,327h52v1h-52z M196,328h86v1h-86z M300,328h52v1h-52z M193,329h86v1h-86z M300,329h52v1h-52z M191,330h86v1h-86z M299,330h52v1h-52z M188,331h86v1h-86z M299,331h52v1h-52z M186,332h86v1h-86z M299,332h51v1h-51z M183,333h86v1h-86z M298,333h52v1h-52z M181,334h86v1h-86z M298,334h51v1h-51z M178,335h87v1h-87z M297,335h52v1h-52z M176,336h86v1h-86z M297,336h52v1h-52z M173,337h87v1h-87z M296,337h52v1h-52z M171,338h86v1h-86z M296,338h52v1h-52z M168,339h87v1h-87z M295,339h52v1h-52z M166,340h86v1h-86z M295,340h52v1h-52z M163,341h87v1h-87z M294,341h52v1h-52z M161,342h86v1h-86z M294,342h52v1h-52z M158,343h87v1h-87z M293,343h53v1h-53z M155,344h87v1h-87z M293,344h52v1h-52z M153,345h192v1h-192z M150,346h194v1h-194z M148,347h196v1h-196z M145,348h198v1h-198z M143,349h200v1h-200z M140,350h202v1h-202z M138,351h204v1h-204z M135,352h207v1h-207z M133,353h208v1h-208z M130,354h211v1h-211z M128,355h212v1h-212z M125,356h215v1h-215z M122,357h217v1h-217z M120,358h219v1h-219z M117,359h222v1h-222z M115,360h223v1h-223z M112,361h226v1h-226z M110,362h227v1h-227z M107,363h230v1h-230z M105,364h231v1h-231z M102,365h234v1h-234z M100,366h235v1h-235z M97,367h238v1h-238z M95,368h240v1h-240z M92,369h242v1h-242z M89,370h245v1h-245z M87,371h246v1h-246z M84,372h249v1h-249z M82,373h250v1h-250z M79,374h253v1h-253z M77,375h255v1h-255z M74,376h257v1h-257z M72,377h87v1h-87z M271,377h60v1h-60z M69,378h88v1h-88z M270,378h60v1h-60z M67,379h87v1h-87z M270,379h60v1h-60z M64,380h88v1h-88z M269,380h60v1h-60z M62,381h87v1h-87z M269,381h60v1h-60z M59,382h88v1h-88z M269,382h60v1h-60z M56,383h88v1h-88z M268,383h60v1h-60z M54,384h88v1h-88z M268,384h60v1h-60z M51,385h89v1h-89z M267,385h60v1h-60z M49,386h88v1h-88z M267,386h60v1h-60z M46,387h89v1h-89z M266,387h60v1h-60z M44,388h88v1h-88z M266,388h60v1h-60z M41,389h89v1h-89z M266,389h59v1h-59z M39,390h88v1h-88z M265,390h60v1h-60z M36,391h89v1h-89z M265,391h60v1h-60z M34,392h88v1h-88z M264,392h60v1h-60z M31,393h89v1h-89z M264,393h60v1h-60z M29,394h88v1h-88z M263,394h60v1h-60z M26,395h89v1h-89z M263,395h60v1h-60z M24,396h88v1h-88z M262,396h60v1h-60z M21,397h89v1h-89z M262,397h60v1h-60z M18,398h90v1h-90z M261,398h61v1h-61z M16,399h89v1h-89z M261,399h60v1h-60z M13,400h90v1h-90z M260,400h61v1h-61z M11,401h89v1h-89z M260,401h60v1h-60z M8,402h90v1h-90z M259,402h61v1h-61z M6,403h89v1h-89z M259,403h60v1h-60z M3,404h90v1h-90z M258,404h61v1h-61z M1,405h89v1h-89z M258,405h60v1h-60z M0,406h88v1h-88z M258,406h60v1h-60z"/>
<path d="M1327,287h30v1h-30z M1318,288h47v1h-47z M1312,289h56v1h-56z M1308,290h62v1h-62z M1304,291h67v1h-67z M1301,292h71v1h-71z M1298,293h75v1h-75z M1295,294h79v1h-79z M1292,295h82v1h-82z M1290,296h85v1h-85z M1287,297h88v1h-88z M1285,298h90v1h-90z M1282,299h93v1h-93z M1280,300h95v1h-95z M1277,301h98v1h-98z M1275,302h100v1h-100z M1272,303h103v1h-103z M1270,304h105v1h-105z M1267,305h107v1h-107z M1265,306h109v1h-109z M1262,307h112v1h-112z M1260,308h113v1h-113z M1257,309h116v1h-116z M1255,310h118v1h-118z M1252,311h120v1h-120z M1249,312h123v1h-123z M1247,313h124v1h-124z M1244,314h127v1h-127z M1242,315h128v1h-128z M1239,316h131v1h-131z M1237,317h132v1h-132z M1234,318h135v1h-135z M1232,319h84v1h-84z M1317,319h52v1h-52z M1229,320h85v1h-85z M1316,320h52v1h-52z M1227,321h84v1h-84z M1316,321h52v1h-52z M1224,322h85v1h-85z M1315,322h52v1h-52z M1222,323h84v1h-84z M1315,323h52v1h-52z M1219,324h85v1h-85z M1315,324h51v1h-51z M1217,325h84v1h-84z M1314,325h52v1h-52z M1214,326h85v1h-85z M1314,326h52v1h-52z M1212,327h85v1h-85z M1313,327h52v1h-52z M1209,328h85v1h-85z M1313,328h52v1h-52z M1206,329h86v1h-86z M1312,329h52v1h-52z M1204,330h85v1h-85z M1312,330h52v1h-52z M1201,331h86v1h-86z M1311,331h52v1h-52z M1199,332h85v1h-85z M1311,332h52v1h-52z M1196,333h86v1h-86z M1311,333h51v1h-51z M1194,334h86v1h-86z M1310,334h52v1h-52z M1191,335h86v1h-86z M1310,335h52v1h-52z M1189,336h86v1h-86z M1309,336h52v1h-52z M1186,337h86v1h-86z M1309,337h52v1h-52z M1184,338h86v1h-86z M1308,338h52v1h-52z M1181,339h86v1h-86z M1308,339h52v1h-52z M1179,340h86v1h-86z M1307,340h52v1h-52z M1176,341h87v1h-87z M1307,341h52v1h-52z M1174,342h86v1h-86z M1307,342h52v1h-52z M1171,343h87v1h-87z M1306,343h52v1h-52z M1169,344h86v1h-86z M1306,344h52v1h-52z M1166,345h191v1h-191z M1163,346h194v1h-194z M1161,347h195v1h-195z M1158,348h198v1h-198z M1156,349h199v1h-199z M1153,350h202v1h-202z M1151,351h204v1h-204z M1148,352h206v1h-206z M1146,353h208v1h-208z M1143,354h210v1h-210z M1141,355h212v1h-212z M1138,356h214v1h-214z M1136,357h216v1h-216z M1133,358h219v1h-219z M1131,359h220v1h-220z M1128,360h223v1h-223z M1126,361h224v1h-224z M1123,362h227v1h-227z M1120,363h229v1h-229z M1118,364h231v1h-231z M1115,365h233v1h-233z M1113,366h235v1h-235z M1110,367h238v1h-238z M1108,368h239v1h-239z M1105,369h242v1h-242z M1103,370h243v1h-243z M1100,371h246v1h-246z M1098,372h247v1h-247z M1095,373h250v1h-250z M1093,374h252v1h-252z M1090,375h254v1h-254z M1088,376h256v1h-256z M1085,377h88v1h-88z M1283,377h60v1h-60z M1083,378h87v1h-87z M1283,378h60v1h-60z M1080,379h88v1h-88z M1282,379h60v1h-60z M1077,380h88v1h-88z M1282,380h60v1h-60z M1075,381h88v1h-88z M1282,381h59v1h-59z M1072,382h88v1h-88z M1281,382h60v1h-60z M1070,383h88v1h-88z M1281,383h60v1h-60z M1067,384h88v1h-88z M1280,384h60v1h-60z M1065,385h88v1h-88z M1280,385h60v1h-60z M1062,386h89v1h-89z M1279,386h60v1h-60z M1060,387h88v1h-88z M1279,387h60v1h-60z M1057,388h89v1h-89z M1279,388h59v1h-59z M1055,389h88v1h-88z M1278,389h60v1h-60z M1052,390h89v1h-89z M1278,390h60v1h-60z M1050,391h88v1h-88z M1277,391h60v1h-60z M1047,392h89v1h-89z M1277,392h60v1h-60z M1045,393h88v1h-88z M1276,393h60v1h-60z M1042,394h89v1h-89z M1276,394h60v1h-60z M1040,395h88v1h-88z M1275,395h60v1h-60z M1037,396h89v1h-89z M1275,396h60v1h-60z M1034,397h90v1h-90z M1274,397h61v1h-61z M1032,398h89v1h-89z M1274,398h60v1h-60z M1029,399h90v1h-90z M1273,399h61v1h-61z M1027,400h89v1h-89z M1273,400h60v1h-60z M1024,401h90v1h-90z M1272,401h61v1h-61z M1022,402h89v1h-89z M1272,402h60v1h-60z M1019,403h90v1h-90z M1271,403h61v1h-61z M1017,404h89v1h-89z M1271,404h60v1h-60z M1014,405h90v1h-90z M1270,405h61v1h-61z M1012,406h89v1h-89z M1270,406h61v1h-61z"/>
  </g>
</svg>