<?xml version="1.0" encoding="UTF-8"?>
<svg xmlns="http://www.w3.org/2000/svg" viewBox="0 0 400 160" width="400" height="160">
  <g transform="translate(30.00,23.33) scale(0.244253)" fill="white">
<path d="M341,0h32v1h-32z M332,1h49v1h-49z M325,2h61v1h-61z M319,3h72v1h-72z M314,4h80v1h-80z M309,5h88v1h-88z M305,6h95v1h-95z M301,7h102v1h-102z M297,8h108v1h-108z M294,9h113v1h-113z M290,10h119v1h-119z M287,11h124v1h-124z M284,12h129v1h-129z M281,13h134v1h-134z M278,14h138v1h-138z M275,15h143v1h-143z M272,16h147v1h-147z M269,17h152v1h-152z M267,18h155v1h-155z M264,19h159v1h-159z M261,20h163v1h-163z M259,21h166v1h-166z M257,22h170v1h-170z M254,23h174v1h-174z M252,24h177v1h-177z M250,25h180v1h-180z M247,26h184v1h-184z M245,27h187v1h-187z M243,28h189v1h-189z M241,29h192v1h-192z M239,30h195v1h-195z M236,31h199v1h-199z M234,32h70v1h-70z M332,32h104v1h-104z M232,33h64v1h-64z M338,33h98v1h-98z M230,34h60v1h-60z M342,34h95v1h-95z M228,35h57v1h-57z M346,35h92v1h-92z M226,36h54v1h-54z M349,36h89v1h-89z M225,37h51v1h-51z M351,37h88v1h-88z M223,38h49v1h-49z M353,38h87v1h-87z M221,39h48v1h-48z M355,39h85v1h-85z M219,40h46v1h-46z M357,40h84v1h-84z M217,41h45v1h-45z M359,41h82v1h-82z M215,42h44v1h-44z M361,42h81v1h-81z M214,43h41v1h-41z M362,43h80v1h-80z M212,44h41v1h-41z M363,44h80v1h-80z M210,45h40v1h-40z M365,45h78v1h-78z M208,46h39v1h-39z M366,46h78v1h-78z M207,47h37v1h-37z M367,47h77v1h-77z M205,48h37v1h-37z M368,48h77v1h-77z M203,49h36v1h-36z M369,49h76v1h-76z M201,50h36v1h-36z M370,50h76v1h-76z M200,51h34v1h-34z M371,51h75v1h-75z M198,52h34v1h-34z M371,52h75v1h-75z M196,53h33v1h-33z M372,53h75v1h-75z M195,54h32v1h-32z M373,54h74v1h-74z M193,55h32v1h-32z M374,55h73v1h-73z M192,56h30v1h-30z M374,56h74v1h-74z M190,57h30v1h-30z M375,57h73v1h-73z M189,58h29v1h-29z M375,58h73v1h-73z M187,59h29v1h-29z M376,59h73v1h-73z M185,60h29v1h-29z M377,60h72v1h-72z M184,61h28v1h-28z M377,61h72v1h-72z M182,62h28v1h-28z M377,62h72v1h-72z M181,63h27v1h-27z M378,63h72v1h-72z M179,64h27v1h-27z M378,64h72v1h-72z M178,65h26v1h-26z M379,65h71v1h-71z M177,66h25v1h-25z M379,66h71v1h-71z M175,67h25v1h-25z M379,67h71v1h-71z M174,68h24v1h-24z M379,68h72v1h-72z M172,69h24v1h-24z M380,69h71v1h-71z M171,70h23v1h-23z M380,70h71v1h-71z M169,71h23v1h-23z M380,71h71v1h-71z M168,72h22v1h-22z M380,72h71v1h-71z M167,73h22v1h-22z M380,73h71v1h-71z M165,74h22v1h-22z M380,74h72v1h-72z M164,75h21v1h-21z M380,75h72v1h-72z M163,76h20v1h-20z M380,76h72v1h-72z M161,77h20v1h-20z M381,77h71v1h-71z M160,78h20v1h-20z M381,78h71v1h-71z M159,79h19v1h-19z M381,79h71v1h-71z M157,80h19v1h-19z M381,80h71v1h-71z M156,81h19v1h-19z M381,81h71v1h-71z M155,82h18v1h-18z M381,82h71v1h-71z M154,83h17v1h-17z M380,83h72v1h-72z M152,84h18v1h-18z M380,84h72v1h-72z M151,85h17v1h-17z M380,85h72v1h-72z M150,86h17v1h-17z M380,86h72v1h-72z M149,87h16v1h-16z M380,87h72v1h-72z M147,88h17v1h-17z M380,88h72v1h-72z M146,89h16v1h-16z M380,89h72v1h-72z M145,90h15v1h-15z M380,90h72v1h-72z M144,91h15v1h-15z M380,91h72v1h-72z M144,92h13v1h-13z M379,92h73v1h-73z M145,93h11v1h-11z M379,93h73v1h-73z M146,94h8v1h-8z M379,94h73v1h-73z M146,95h7v1h-7z M379,95h73v1h-73z M147,96h5v1h-5z M379,96h73v1h-73z M148,97h2v1h-2z M378,97h74v1h-74z M378,98h74v1h-74z M378,99h74v1h-74z M378,100h74v1h-74z M378,101h74v1h-74z M377,102h74v1h-74z M377,103h74v1h-74z M377,104h74v1h-74z M376,105h75v1h-75z M376,106h75v1h-75z M376,107h75v1h-75z M375,108h76v1h-76z M375,109h75v1h-75z M375,110h75v1h-75z M374,111h76v1h-76z M374,112h76v1h-76z M374,113h76v1h-76z M373,114h77v1h-77z M373,115h76v1h-76z M373,116h76v1h-76z M372,117h77v1h-77z M372,118h77v1h-77z M372,119h77v1h-77z M371,120h77v1h-77z M371,121h77v1h-77z M370,122h78v1h-78z M370,123h78v1h-78z M369,124h78v1h-78z M369,125h78v1h-78z M369,126h78v1h-78z M368,127h79v1h-79z M368,128h78v1h-78z M367,129h79v1h-79z M367,130h79v1h-79z M366,131h80v1h-80z M366,132h79v1h-79z M365,133h80v1h-80z M262,134h22v1h-22z M365,134h80v1h-80z M254,135h36v1h-36z M364,135h80v1h-80z M248,136h47v1h-47z M364,136h80v1h-80z M243,137h56v1h-56z M363,137h81v1h-81z M238,138h63v1h-63z M363,138h80v1h-80z M234,139h70v1h-70z M362,139h81v1h-81z M231,140h75v1h-75z M362,140h81v1h-81z M227,141h81v1h-81z M361,141h82v1h-82z M224,142h86v1h-86z M361,142h81v1h-81z M221,143h90v1h-90z M360,143h82v1h-82z M218,144h95v1h-95z M360,144h82v1h-82z M215,145h99v1h-99z M359,145h82v1h-82z M212,146h103v1h-103z M359,146h82v1h-82z M209,147h107v1h-107z M358,147h83v1h-83z M207,148h110v1h-110z M357,148h83v1h-83z M204,149h114v1h-114z M357,149h83v1h-83z M202,150h117v1h-117z M356,150h84v1h-84z M199,151h121v1h-121z M356,151h83v1h-83z M197,152h124v1h-124z M355,152h84v1h-84z M195,153h127v1h-127z M354,153h84v1h-84z M192,154h130v1h-130z M354,154h84v1h-84z M190,155h133v1h-133z M353,155h85v1h-85z M188,156h136v1h-136z M353,156h84v1h-84z M186,157h138v1h-138z M352,157h85v1h-85z M184,158h141v1h-141z M351,158h86v1h-86z M182,159h143v1h-143z M351,159h85v1h-85z M180,160h146v1h-146z M350,160h86v1h-86z M178,161h148v1h-148z M349,161h86v1h-86z M176,162h151v1h-151z M349,162h86v1h-86z M174,163h153v1h-153z M348,163h87v1h-87z M172,164h155v1h-155z M347,164h87v1h-87z M170,165h93v1h-93z M282,165h46v1h-46z M347,165h87v1h-87z M168,166h88v1h-88z M287,166h41v1h-41z M346,166h87v1h-87z M166,167h86v1h-86z M290,167h38v1h-38z M345,167h88v1h-88z M164,168h84v1h-84z M293,168h35v1h-35z M345,168h87v1h-87z M162,169h82v1h-82z M294,169h35v1h-35z M344,169h88v1h-88z M161,170h80v1h-80z M296,170h33v1h-33z M343,170h89v1h-89z M159,171h79v1h-79z M297,171h32v1h-32z M343,171h88v1h-88z M157,172h78v1h-78z M299,172h30v1h-30z M342,172h89v1h-89z M155,173h78v1h-78z M299,173h30v1h-30z M341,173h89v1h-89z M154,174h76v1h-76z M300,174h29v1h-29z M341,174h89v1h-89z M152,175h76v1h-76z M301,175h28v1h-28z M340,175h89v1h-89z M150,176h75v1h-75z M302,176h27v1h-27z M339,176h90v1h-90z M149,177h74v1h-74z M303,177h26v1h-26z M338,177h90v1h-90z M147,178h74v1h-74z M303,178h26v1h-26z M338,178h90v1h-90z M145,179h74v1h-74z M304,179h25v1h-25z M337,179h90v1h-90z M144,180h73v1h-73z M304,180h25v1h-25z M336,180h91v1h-91z M142,181h73v1h-73z M305,181h24v1h-24z M335,181h92v1h-92z M141,182h72v1h-72z M305,182h24v1h-24z M335,182h91v1h-91z M139,183h72v1h-72z M305,183h24v1h-24z M334,183h92v1h-92z M137,184h72v1h-72z M305,184h24v1h-24z M333,184h92v1h-92z M136,185h72v1h-72z M306,185h23v1h-23z M332,185h93v1h-93z M134,186h72v1h-72z M306,186h23v1h-23z M332,186h92v1h-92z M133,187h71v1h-71z M306,187h22v1h-22z M331,187h93v1h-93z M131,188h71v1h-71z M306,188h22v1h-22z M330,188h93v1h-93z M130,189h71v1h-71z M306,189h22v1h-22z M329,189h94v1h-94z M128,190h71v1h-71z M306,190h116v1h-116z M127,191h70v1h-70z M306,191h116v1h-116z M126,192h70v1h-70z M306,192h115v1h-115z M124,193h70v1h-70z M306,193h115v1h-115z M123,194h70v1h-70z M306,194h114v1h-114z M121,195h70v1h-70z M306,195h114v1h-114z M120,196h70v1h-70z M306,196h113v1h-113z M119,197h69v1h-69z M306,197h113v1h-113z M117,198h70v1h-70z M305,198h113v1h-113z M116,199h69v1h-69z M305,199h112v1h-112z M115,200h69v1h-69z M305,200h112v1h-112z M113,201h69v1h-69z M305,201h111v1h-111z M112,202h69v1h-69z M305,202h111v1h-111z M111,203h69v1h-69z M304,203h111v1h-111z M109,204h69v1h-69z M304,204h111v1h-111z M108,205h69v1h-69z M304,205h110v1h-110z M107,206h69v1h-69z M304,206h110v1h-110z M105,207h70v1h-70z M303,207h110v1h-110z M104,208h69v1h-69z M303,208h110v1h-110z M103,209h69v1h-69z M303,209h109v1h-109z M102,210h69v1h-69z M302,210h109v1h-109z M100,211h70v1h-70z M302,211h109v1h-109z M99,212h69v1h-69z M301,212h109v1h-109z M98,213h69v1h-69z M301,213h109v1h-109z M97,214h69v1h-69z M301,214h108v1h-108z M96,215h69v1h-69z M300,215h109v1h-109z M94,216h70v1h-70z M300,216h108v1h-108z M93,217h69v1h-69z M299,217h108v1h-108z M92,218h69v1h-69z M299,218h108v1h-108z M91,219h69v1h-69z M298,219h108v1h-108z M90,220h69v1h-69z M298,220h108v1h-108z M89,221h69v1h-69z M297,221h108v1h-108z M88,222h69v1h-69z M297,222h108v1h-108z M86,223h70v1h-70z M296,223h108v1h-108z M85,224h70v1h-70z M295,224h108v1h-108z M84,225h70v1h-70z M295,225h108v1h-108z M83,226h70v1h-70z M294,226h108v1h-108z M82,227h70v1h-70z M294,227h107v1h-107z M81,228h70v1h-70z M293,228h108v1h-108z M80,229h70v1h-70z M292,229h108v1h-108z M79,230h70v1h-70z M292,230h108v1h-108z M78,231h70v1h-70z M291,231h108v1h-108z M77,232h70v1h-70z M290,232h108v1h-108z M76,233h70v1h-70z M289,233h109v1h-109z M75,234h70v1h-70z M289,234h108v1h-108z M74,235h70v1h-70z M288,235h108v1h-108z M73,236h70v1h-70z M287,236h109v1h-109z M72,237h70v1h-70z M286,237h109v1h-109z M71,238h70v1h-70z M285,238h110v1h-110z M70,239h70v1h-70z M285,239h109v1h-109z M69,240h70v1h-70z M284,240h109v1h-109z M68,241h70v1h-70z M283,241h110v1h-110z M67,242h71v1h-71z M282,242h110v1h-110z M66,243h71v1h-71z M281,243h110v1h-110z M65,244h71v1h-71z M280,244h111v1h-111z M64,245h71v1h-71z M279,245h111v1h-111z M63,246h71v1h-71z M278,246h111v1h-111z M62,247h71v1h-71z M277,247h112v1h-112z M61,248h72v1h-72z M276,248h112v1h-112z M60,249h72v1h-72z M275,249h112v1h-112z M59,250h72v1h-72z M275,250h112v1h-112z M58,251h72v1h-72z M274,251h112v1h-112z M57,252h73v1h-73z M273,252h112v1h-112z M57,253h72v1h-72z M272,253h113v1h-113z M56,254h72v1h-72z M271,254h113v1h-113z M55,255h72v1h-72z M270,255h113v1h-113z M54,256h73v1h-73z M268,256h114v1h-114z M53,257h73v1h-73z M267,257h115v1h-115z M52,258h73v1h-73z M266,258h115v1h-115z M51,259h74v1h-74z M265,259h115v1h-115z M51,260h73v1h-73z M264,260h116v1h-116z M50,261h73v1h-73z M263,261h116v1h-116z M49,262h74v1h-74z M262,262h116v1h-116z M48,263h74v1h-74z M261,263h117v1h-117z M47,264h74v1h-74z M260,264h117v1h-117z M46,265h75v1h-75z M259,265h117v1h-117z M46,266h74v1h-74z M258,266h117v1h-117z M45,267h75v1h-75z M257,267h118v1h-118z M44,268h75v1h-75z M256,268h118v1h-118z M43,269h76v1h-76z M254,269h119v1h-119z M43,270h75v1h-75z M253,270h119v1h-119z M42,271h76v1h-76z M252,271h120v1h-120z M41,272h76v1h-76z M251,272h120v1h-120z M40,273h77v1h-77z M250,273h120v1h-120z M40,274h76v1h-76z M249,274h121v1h-121z M39,275h77v1h-77z M248,275h121v1h-121z M38,276h77v1h-77z M246,276h122v1h-122z M37,277h78v1h-78z M245,277h122v1h-122z M37,278h77v1h-77z M244,278h123v1h-123z M36,279h78v1h-78z M243,279h123v1h-123z M35,280h79v1h-79z M242,280h123v1h-123z M35,281h78v1h-78z M240,281h124v1h-124z M34,282h79v1h-79z M239,282h124v1h-124z M33,283h80v1h-80z M238,283h125v1h-125z M32,284h80v1h-80z M237,284h125v1h-125z M32,285h80v1h-80z M235,285h126v1h-126z M31,286h81v1h-81z M234,286h126v1h-126z M31,287h81v1h-81z M233,287h127v1h-127z M30,288h81v1h-81z M231,288h128v1h-128z M29,289h82v1h-82z M230,289h128v1h-128z M29,290h82v1h-82z M229,290h128v1h-128z M28,291h83v1h-83z M227,291h129v1h-129z M27,292h84v1h-84z M226,292h130v1h-130z M27,293h84v1h-84z M225,293h130v1h-130z M26,294h84v1h-84z M223,294h131v1h-131z M26,295h84v1h-84z M222,295h131v1h-131z M25,296h85v1h-85z M220,296h132v1h-132z M24,297h86v1h-86z M219,297h132v1h-132z M24,298h86v1h-86z M218,298h133v1h-133z M23,299h87v1h-87z M216,299h134v1h-134z M23,300h88v1h-88z M215,300h134v1h-134z M22,301h89v1h-89z M213,301h135v1h-135z M22,302h89v1h-89z M212,302h135v1h-135z M21,303h90v1h-90z M210,303h137v1h-137z M20,304h91v1h-91z M208,304h138v1h-138z M20,305h91v1h-91z M207,305h138v1h-138z M19,306h93v1h-93z M205,306h139v1h-139z M19,307h93v1h-93z M204,307h139v1h-139z M18,308h94v1h-94z M202,308h140v1h-140z M18,309h95v1h-95z M200,309h141v1h-141z M17,310h96v1h-96z M198,310h143v1h-143z M17,311h97v1h-97z M197,311h143v1h-143z M16,312h98v1h-98z M195,312h144v1h-144z M16,313h99v1h-99z M193,313h145v1h-145z M15,314h100v1h-100z M191,314h146v1h-146z M15,315h101v1h-101z M189,315h147v1h-147z M14,316h103v1h-103z M187,316h148v1h-148z M14,317h104v1h-104z M185,317h150v1h-150z M14,318h104v1h-104z M183,318h151v1h-151z M13,319h106v1h-106z M180,319h153v1h-153z M13,320h108v1h-108z M178,320h154v1h-154z M12,321h110v1h-110z M175,321h156v1h-156z M12,322h111v1h-111z M173,322h157v1h-157z M11,323h114v1h-114z M170,323h159v1h-159z M11,324h116v1h-116z M167,324h161v1h-161z M11,325h118v1h-118z M163,325h164v1h-164z M10,326h122v1h-122z M159,326h167v1h-167z M10,327h125v1h-125z M154,327h172v1h-172z M9,328h316v1h-316z M9,329h315v1h-315z M9,330h314v1h-314z M8,331h314v1h-314z M8,332h313v1h-313z M8,333h312v1h-312z M7,334h312v1h-312z M7,335h311v1h-311z M7,336h310v1h-310z M6,337h310v1h-310z M6,338h309v1h-309z M6,339h308v1h-308z M5,340h308v1h-308z M5,341h307v1h-307z M5,342h306v1h-306z M5,343h305v1h-305z M4,344h305v1h-305z M4,345h304v1h-304z M4,346h303v1h-303z M4,347h302v1h-302z M3,348h302v1h-302z M3,349h301v1h-301z M3,350h300v1h-300z M3,351h299v1h-299z M2,352h299v1h-299z M2,353h298v1h-298z M2,354h297v1h-297z M2,355h296v1h-296z M2,356h295v1h-295z M1,357h295v1h-295z M1,358h294v1h-294z M1,359h293v1h-293z M1,360h292v1h-292z M1,361h291v1h-291z M1,362h290v1h-290z M1,363h289v1h-289z M0,364h289v1h-289z M0,365h288v1h-288z M0,366h286v1h-286z M0,367h285v1h-285z M0,368h284v1h-284z M0,369h283v1h-283z M0,370h282v1h-282z M0,371h281v1h-281z M0,372h280v1h-280z M0,373h279v1h-279z M0,374h277v1h-277z M0,375h276v1h-276z M0,376h275v1h-275z M0,377h274v1h-274z M0,378h273v1h-273z M0,379h272v1h-272z M0,380h271v1h-271z M0,381h269v1h-269z M0,382h268v1h-268z M0,383h267v1h-267z M0,384h266v1h-266z M0,385h265v1h-265z M0,386h263v1h-263z M0,387h262v1h-262z M0,388h261v1h-261z M0,389h260v1h-260z M0,390h258v1h-258z M0,391h257v1h-257z M0,392h256v1h-256z M0,393h255v1h-255z M0,394h253v1h-253z M0,395h252v1h-252z M1,396h250v1h-250z M1,397h248v1h-248z M1,398h247v1h-247z M1,399h246v1h-246z M1,400h245v1h-245z M1,401h243v1h-243z M2,402h241v1h-241z M2,403h240v1h-240z M2,404h238v1h-238z M2,405h237v1h-237z M3,406h234v1h-234z M3,407h233v1h-233z M3,408h232v1h-232z M4,409h229v1h-229z M4,410h228v1h-228z M4,411h226v1h-226z M5,412h224v1h-224z M5,413h222v1h-222z M5,414h221v1h-221z M6,415h218v1h-218z M6,416h217v1h-217z M7,417h214v1h-214z M7,418h213v1h-213z M8,419h210v1h-210z M8,420h209v1h-209z M9,421h206v1h-206z M9,422h205v1h-205z M10,423h202v1h-202z M10,424h200v1h-200z M11,425h198v1h-198z M11,426h196v1h-196z M12,427h193v1h-193z M13,428h191v1h-191z M13,429h189v1h-189z M14,430h186v1h-186z M15,431h184v1h-184z M16,432h181v1h-181z M16,433h179v1h-179z M17,434h176v1h-176z M18,435h173v1h-173z M19,436h170v1h-170z M20,437h167v1h-167z M21,438h164v1h-164z M22,439h161v1h-161z M23,440h158v1h-158z M24,441h155v1h-155z M25,442h152v1h-152z M26,443h149v1h-149z M27,444h146v1h-146z M29,445h142v1h-142z M30,446h139v1h-139z M31,447h135v1h-135z M33,448h131v1h-131z M34,449h127v1h-127z M36,450h123v1h-123z M38,451h118v1h-118z M40,452h113v1h-113z M42,453h108v1h-108z M44,454h104v1h-104z M46,455h98v1h-98z M48,456h93v1h-93z M51,457h87v1h-87z M54,458h80v1h-80z M57,459h73v1h-73z M60,460h65v1h-65z M65,461h55v1h-55z M70,462h44v1h-44z M77,463h29v1h-29z"/>
<path d="M553,107h99v1h-99z M553,108h104v1h-104z M553,109h108v1h-108z M552,110h112v1h-112z M552,111h115v1h-115z M552,112h118v1h-118z M552,113h120v1h-120z M551,114h123v1h-123z M551,115h125v1h-125z M551,116h127v1h-127z M551,117h129v1h-129z M550,118h131v1h-131z M550,119h133v1h-133z M550,120h134v1h-134z M549,121h137v1h-137z M549,122h138v1h-138z M549,123h139v1h-139z M549,124h140v1h-140z M548,125h142v1h-142z M548,126h144v1h-144z M548,127h145v1h-145z M548,128h146v1h-146z M547,129h147v1h-147z M547,130h148v1h-148z M547,131h149v1h-149z M546,132h151v1h-151z M546,133h152v1h-152z M546,134h153v1h-153z M546,135h153v1h-153z M545,136h155v1h-155z M545,137h156v1h-156z M545,138h156v1h-156z M545,139h157v1h-157z M544,140h159v1h-159z M544,141h159v1h-159z M544,142h160v1h-160z M544,143h160v1h-160z M543,144h162v1h-162z M543,145h162v1h-162z M543,146h162v1h-162z M542,147h164v1h-164z M542,148h164v1h-164z M542,149h165v1h-165z M542,150h165v1h-165z M541,151h166v1h-166z M541,152h167v1h-167z M541,153h167v1h-167z M541,154h167v1h-167z M540,155h168v1h-168z M540,156h169v1h-169z M540,157h169v1h-169z M540,158h169v1h-169z M539,159h170v1h-170z M539,160h170v1h-170z M539,161h170v1h-170z M539,162h171v1h-171z M538,163h172v1h-172z M538,164h172v1h-172z M629,165h81v1h-81z M635,166h75v1h-75z M637,167h73v1h-73z M639,168h71v1h-71z M640,169h70v1h-70z M641,170h69v1h-69z M642,171h68v1h-68z M643,172h67v1h-67z M643,173h67v1h-67z M644,174h66v1h-66z M644,175h66v1h-66z M645,176h65v1h-65z M645,177h65v1h-65z M645,178h65v1h-65z M645,179h65v1h-65z M645,180h65v1h-65z M645,181h65v1h-65z M645,182h64v1h-64z M645,183h64v1h-64z M645,184h64v1h-64z M645,185h64v1h-64z M645,186h64v1h-64z M645,187h64v1h-64z M645,188h64v1h-64z M645,189h63v1h-63z M644,190h64v1h-64z M644,191h64v1h-64z M644,192h64v1h-64z M644,193h63v1h-63z M643,194h64v1h-64z M643,195h64v1h-64z M643,196h64v1h-64z M643,197h63v1h-63z M642,198h64v1h-64z M642,199h64v1h-64z M642,200h64v1h-64z M641,201h64v1h-64z M641,202h64v1h-64z M641,203h64v1h-64z M641,204h64v1h-64z M640,205h64v1h-64z M640,206h64v1h-64z M580,207h124v1h-124z M571,208h132v1h-132z M565,209h138v1h-138z M560,210h143v1h-143z M556,211h147v1h-147z M553,212h149v1h-149z M549,213h153v1h-153z M546,214h156v1h-156z M544,215h158v1h-158z M541,216h160v1h-160z M538,217h163v1h-163z M536,218h165v1h-165z M534,219h166v1h-166z M531,220h169v1h-169z M529,221h171v1h-171z M527,222h173v1h-173z M525,223h174v1h-174z M523,224h176v1h-176z M521,225h178v1h-178z M520,226h179v1h-179z M518,227h180v1h-180z M516,228h182v1h-182z M515,229h183v1h-183z M513,230h185v1h-185z M512,231h185v1h-185z M510,232h187v1h-187z M509,233h188v1h-188z M507,234h189v1h-189z M506,235h190v1h-190z M504,236h192v1h-192z M503,237h193v1h-193z M502,238h193v1h-193z M500,239h195v1h-195z M499,240h196v1h-196z M498,241h197v1h-197z M497,242h197v1h-197z M496,243h198v1h-198z M495,244h199v1h-199z M494,245h200v1h-200z M492,246h201v1h-201z M491,247h202v1h-202z M490,248h203v1h-203z M489,249h203v1h-203z M488,250h204v1h-204z M487,251h205v1h-205z M487,252h205v1h-205z M486,253h205v1h-205z M485,254h206v1h-206z M484,255h207v1h-207z M483,256h208v1h-208z M482,257h208v1h-208z M481,258h209v1h-209z M480,259h210v1h-210z M480,260h210v1h-210z M479,261h210v1h-210z M478,262h211v1h-211z M477,263h212v1h-212z M477,264h94v1h-94z M625,264h63v1h-63z M476,265h89v1h-89z M624,265h64v1h-64z M475,266h87v1h-87z M624,266h64v1h-64z M475,267h84v1h-84z M624,267h64v1h-64z M474,268h83v1h-83z M624,268h63v1h-63z M474,269h81v1h-81z M623,269h64v1h-64z M473,270h80v1h-80z M623,270h64v1h-64z M472,271h79v1h-79z M623,271h64v1h-64z M472,272h77v1h-77z M622,272h64v1h-64z M471,273h77v1h-77z M622,273h64v1h-64z M471,274h76v1h-76z M622,274h64v1h-64z M470,275h75v1h-75z M622,275h63v1h-63z M470,276h74v1h-74z M621,276h64v1h-64z M469,277h74v1h-74z M621,277h64v1h-64z M469,278h73v1h-73z M621,278h64v1h-64z M468,279h73v1h-73z M621,279h63v1h-63z M468,280h72v1h-72z M620,280h64v1h-64z M467,281h72v1h-72z M620,281h64v1h-64z M467,282h71v1h-71z M620,282h64v1h-64z M467,283h71v1h-71z M620,283h63v1h-63z M466,284h71v1h-71z M619,284h64v1h-64z M466,285h70v1h-70z M619,285h64v1h-64z M465,286h71v1h-71z M619,286h64v1h-64z M465,287h70v1h-70z M618,287h64v1h-64z M465,288h69v1h-69z M618,288h64v1h-64z M464,289h70v1h-70z M618,289h64v1h-64z M464,290h69v1h-69z M618,290h63v1h-63z M464,291h69v1h-69z M617,291h64v1h-64z M463,292h69v1h-69z M617,292h64v1h-64z M463,293h69v1h-69z M617,293h64v1h-64z M463,294h69v1h-69z M617,294h63v1h-63z M463,295h68v1h-68z M616,295h64v1h-64z M462,296h69v1h-69z M616,296h64v1h-64z M462,297h69v1h-69z M616,297h64v1h-64z M462,298h68v1h-68z M615,298h64v1h-64z M462,299h68v1h-68z M615,299h64v1h-64z M462,300h68v1h-68z M615,300h64v1h-64z M461,301h69v1h-69z M615,301h64v1h-64z M461,302h69v1h-69z M614,302h64v1h-64z M461,303h69v1h-69z M614,303h64v1h-64z M461,304h69v1h-69z M614,304h64v1h-64z M461,305h69v1h-69z M614,305h63v1h-63z M461,306h69v1h-69z M613,306h64v1h-64z M461,307h69v1h-69z M613,307h64v1h-64z M460,308h70v1h-70z M613,308h64v1h-64z M460,309h70v1h-70z M613,309h63v1h-63z M460,310h70v1h-70z M612,310h64v1h-64z M460,311h71v1h-71z M612,311h64v1h-64z M460,312h71v1h-71z M612,312h64v1h-64z M460,313h71v1h-71z M612,313h63v1h-63z M460,314h72v1h-72z M611,314h64v1h-64z M460,315h72v1h-72z M611,315h64v1h-64z M460,316h72v1h-72z M611,316h63v1h-63z M460,317h73v1h-73z M610,317h64v1h-64z M460,318h74v1h-74z M610,318h64v1h-64z M460,319h74v1h-74z M610,319h64v1h-64z M460,320h75v1h-75z M610,320h63v1h-63z M460,321h76v1h-76z M609,321h64v1h-64z M461,322h76v1h-76z M609,322h64v1h-64z M461,323h78v1h-78z M609,323h64v1h-64z M461,324h79v1h-79z M609,324h63v1h-63z M461,325h81v1h-81z M608,325h64v1h-64z M461,326h83v1h-83z M608,326h64v1h-64z M461,327h87v1h-87z M608,327h64v1h-64z M461,328h210v1h-210z M462,329h209v1h-209z M462,330h209v1h-209z M462,331h209v1h-209z M462,332h208v1h-208z M463,333h207v1h-207z M463,334h207v1h-207z M463,335h206v1h-206z M463,336h206v1h-206z M464,337h205v1h-205z M464,338h205v1h-205z M464,339h204v1h-204z M465,340h203v1h-203z M465,341h203v1h-203z M466,342h202v1h-202z M466,343h201v1h-201z M467,344h200v1h-200z M467,345h200v1h-200z M467,346h199v1h-199z M468,347h198v1h-198z M468,348h198v1h-198z M469,349h197v1h-197z M470,350h195v1h-195z M470,351h195v1h-195z M471,352h194v1h-194z M471,353h194v1h-194z M472,354h192v1h-192z M473,355h191v1h-191z M473,356h191v1h-191z M474,357h190v1h-190z M475,358h188v1h-188z M476,359h187v1h-187z M477,360h186v1h-186z M477,361h185v1h-185z M478,362h184v1h-184z M479,363h183v1h-183z M480,364h182v1h-182z M481,365h180v1h-180z M482,366h179v1h-179z M484,367h177v1h-177z M485,368h176v1h-176z M486,369h174v1h-174z M488,370h172v1h-172z M489,371h171v1h-171z M491,372h169v1h-169z M492,373h167v1h-167z M494,374h165v1h-165z M496,375h163v1h-163z M498,376h160v1h-160z M500,377h158v1h-158z M502,378h156v1h-156z M505,379h153v1h-153z M508,380h149v1h-149z M511,381h146v1h-146z M514,382h143v1h-143z M518,383h139v1h-139z M524,384h132v1h-132z M531,385h125v1h-125z"/>
<path d="M814,107h94v1h-94z M806,108h102v1h-102z M801,109h107v1h-107z M797,110h111v1h-111z M793,111h114v1h-114z M790,112h117v1h-117z M787,113h120v1h-120z M785,114h122v1h-122z M782,115h124v1h-124z M780,116h126v1h-126z M778,117h128v1h-128z M775,118h131v1h-131z M774,119h131v1h-131z M772,120h133v1h-133z M770,121h135v1h-135z M768,122h137v1h-137z M767,123h137v1h-137z M765,124h139v1h-139z M764,125h140v1h-140z M762,126h141v1h-141z M761,127h142v1h-142z M760,128h143v1h-143z M758,129h145v1h-145z M757,130h145v1h-145z M756,131h146v1h-146z M755,132h147v1h-147z M753,133h149v1h-149z M752,134h149v1h-149z M751,135h150v1h-150z M750,136h151v1h-151z M749,137h151v1h-151z M748,138h152v1h-152z M747,139h153v1h-153z M746,140h154v1h-154z M746,141h153v1h-153z M745,142h154v1h-154z M744,143h155v1h-155z M743,144h156v1h-156z M742,145h156v1h-156z M741,146h157v1h-157z M741,147h157v1h-157z M740,148h158v1h-158z M739,149h158v1h-158z M739,150h158v1h-158z M738,151h159v1h-159z M737,152h159v1h-159z M737,153h159v1h-159z M736,154h160v1h-160z M736,155h160v1h-160z M735,156h160v1h-160z M735,157h160v1h-160z M734,158h161v1h-161z M734,159h161v1h-161z M733,160h161v1h-161z M733,161h161v1h-161z M732,162h162v1h-162z M732,163h161v1h-161z M731,164h162v1h-162z M731,165h74v1h-74z M730,166h71v1h-71z M730,167h69v1h-69z M730,168h67v1h-67z M729,169h67v1h-67z M729,170h65v1h-65z M728,171h65v1h-65z M728,172h64v1h-64z M728,173h63v1h-63z M727,174h63v1h-63z M727,175h63v1h-63z M727,176h62v1h-62z M727,177h61v1h-61z M726,178h62v1h-62z M726,179h62v1h-62z M726,180h61v1h-61z M725,181h62v1h-62z M725,182h62v1h-62z M725,183h61v1h-61z M725,184h61v1h-61z M724,185h62v1h-62z M724,186h62v1h-62z M724,187h63v1h-63z M724,188h63v1h-63z M724,189h63v1h-63z M724,190h64v1h-64z M723,191h66v1h-66z M723,192h66v1h-66z M723,193h67v1h-67z M723,194h68v1h-68z M723,195h69v1h-69z M723,196h70v1h-70z M723,197h71v1h-71z M723,198h72v1h-72z M723,199h74v1h-74z M723,200h75v1h-75z M723,201h76v1h-76z M723,202h78v1h-78z M723,203h79v1h-79z M723,204h81v1h-81z M723,205h83v1h-83z M723,206h84v1h-84z M723,207h86v1h-86z M724,208h87v1h-87z M724,209h88v1h-88z M724,210h90v1h-90z M724,211h92v1h-92z M724,212h94v1h-94z M725,213h95v1h-95z M725,214h97v1h-97z M725,215h98v1h-98z M725,216h100v1h-100z M726,217h101v1h-101z M726,218h103v1h-103z M726,219h105v1h-105z M727,220h106v1h-106z M727,221h107v1h-107z M728,222h108v1h-108z M728,223h110v1h-110z M728,224h112v1h-112z M729,225h112v1h-112z M729,226h114v1h-114z M730,227h114v1h-114z M731,228h115v1h-115z M731,229h116v1h-116z M732,230h117v1h-117z M732,231h118v1h-118z M733,232h119v1h-119z M734,233h119v1h-119z M734,234h121v1h-121z M735,235h121v1h-121z M736,236h121v1h-121z M737,237h121v1h-121z M738,238h122v1h-122z M738,239h123v1h-123z M739,240h123v1h-123z M740,241h123v1h-123z M741,242h123v1h-123z M742,243h123v1h-123z M743,244h123v1h-123z M744,245h123v1h-123z M745,246h123v1h-123z M746,247h123v1h-123z M748,248h121v1h-121z M749,249h121v1h-121z M750,250h121v1h-121z M751,251h121v1h-121z M753,252h119v1h-119z M754,253h119v1h-119z M755,254h119v1h-119z M757,255h117v1h-117z M758,256h117v1h-117z M760,257h116v1h-116z M761,258h115v1h-115z M763,259h114v1h-114z M764,260h113v1h-113z M766,261h112v1h-112z M767,262h111v1h-111z M769,263h110v1h-110z M771,264h108v1h-108z M772,265h107v1h-107z M774,266h106v1h-106z M776,267h104v1h-104z M778,268h102v1h-102z M779,269h102v1h-102z M781,270h100v1h-100z M783,271h98v1h-98z M785,272h96v1h-96z M787,273h95v1h-95z M789,274h93v1h-93z M791,275h91v1h-91z M792,276h90v1h-90z M794,277h89v1h-89z M796,278h87v1h-87z M798,279h85v1h-85z M799,280h84v1h-84z M801,281h82v1h-82z M802,282h81v1h-81z M804,283h79v1h-79z M805,284h78v1h-78z M807,285h76v1h-76z M808,286h75v1h-75z M809,287h74v1h-74z M811,288h72v1h-72z M812,289h71v1h-71z M813,290h70v1h-70z M814,291h69v1h-69z M815,292h68v1h-68z M816,293h67v1h-67z M816,294h67v1h-67z M817,295h66v1h-66z M818,296h65v1h-65z M818,297h65v1h-65z M819,298h64v1h-64z M819,299h63v1h-63z M819,300h63v1h-63z M820,301h62v1h-62z M820,302h62v1h-62z M820,303h62v1h-62z M820,304h61v1h-61z M820,305h61v1h-61z M820,306h61v1h-61z M819,307h62v1h-62z M819,308h62v1h-62z M819,309h61v1h-61z M819,310h61v1h-61z M818,311h62v1h-62z M818,312h61v1h-61z M818,313h61v1h-61z M817,314h62v1h-62z M817,315h61v1h-61z M816,316h62v1h-62z M815,317h63v1h-63z M815,318h62v1h-62z M814,319h63v1h-63z M813,320h64v1h-64z M812,321h64v1h-64z M811,322h65v1h-65z M809,323h67v1h-67z M807,324h68v1h-68z M805,325h70v1h-70z M802,326h73v1h-73z M797,327h77v1h-77z M701,328h173v1h-173z M701,329h172v1h-172z M700,330h173v1h-173z M700,331h172v1h-172z M700,332h172v1h-172z M699,333h172v1h-172z M699,334h172v1h-172z M699,335h172v1h-172z M699,336h171v1h-171z M698,337h171v1h-171z M698,338h171v1h-171z M698,339h170v1h-170z M698,340h170v1h-170z M697,341h170v1h-170z M697,342h170v1h-170z M697,343h169v1h-169z M697,344h168v1h-168z M696,345h169v1h-169z M696,346h168v1h-168z M696,347h167v1h-167z M696,348h167v1h-167z M695,349h167v1h-167z M695,350h166v1h-166z M695,351h165v1h-165z M694,352h166v1h-166z M694,353h165v1h-165z M694,354h164v1h-164z M694,355h163v1h-163z M693,356h163v1h-163z M693,357h162v1h-162z M693,358h161v1h-161z M693,359h160v1h-160z M692,360h160v1h-160z M692,361h159v1h-159z M692,362h158v1h-158z M691,363h158v1h-158z M691,364h157v1h-157z M691,365h156v1h-156z M691,366h154v1h-154z M690,367h154v1h-154z M690,368h153v1h-153z M690,369h151v1h-151z M690,370h150v1h-150z M689,371h149v1h-149z M689,372h147v1h-147z M689,373h146v1h-146z M689,374h144v1h-144z M688,375h143v1h-143z M688,376h141v1h-141z M688,377h138v1h-138z M687,378h137v1h-137z M687,379h134v1h-134z M687,380h131v1h-131z M687,381h128v1h-128z M686,382h125v1h-125z M686,383h121v1h-121z M686,384h115v1h-115z M686,385h107v1h-107z"/>
<path d="M951,107h62v1h-62z M951,108h62v1h-62z M951,109h62v1h-62z M950,110h63v1h-63z M950,111h63v1h-63z M950,112h62v1h-62z M950,113h62v1h-62z M949,114h63v1h-63z M949,115h63v1h-63z M949,116h62v1h-62z M949,117h62v1h-62z M948,118h63v1h-63z M948,119h63v1h-63z M948,120h62v1h-62z M948,121h62v1h-62z M947,122h63v1h-63z M947,123h62v1h-62z M947,124h62v1h-62z M947,125h62v1h-62z M946,126h63v1h-63z M946,127h62v1h-62z M946,128h62v1h-62z M945,129h63v1h-63z M945,130h63v1h-63z M945,131h62v1h-62z M945,132h62v1h-62z M944,133h63v1h-63z M944,134h63v1h-63z M944,135h62v1h-62z M944,136h62v1h-62z M943,137h63v1h-63z M943,138h63v1h-63z M943,139h62v1h-62z M943,140h62v1h-62z M942,141h63v1h-63z M942,142h63v1h-63z M942,143h62v1h-62z M941,144h63v1h-63z M941,145h63v1h-63z M941,146h63v1h-63z M941,147h62v1h-62z M940,148h63v1h-63z M940,149h63v1h-63z M940,150h62v1h-62z M940,151h62v1h-62z M939,152h63v1h-63z M939,153h63v1h-63z M939,154h62v1h-62z M939,155h62v1h-62z M938,156h63v1h-63z M938,157h63v1h-63z M938,158h62v1h-62z M938,159h62v1h-62z M937,160h63v1h-63z M937,161h63v1h-63z M937,162h62v1h-62z M937,163h62v1h-62z M936,164h63v1h-63z M936,165h63v1h-63z M936,166h62v1h-62z M936,167h62v1h-62z M935,168h63v1h-63z M935,169h62v1h-62z M935,170h62v1h-62z M935,171h62v1h-62z M934,172h63v1h-63z M934,173h62v1h-62z M934,174h62v1h-62z M933,175h63v1h-63z M933,176h63v1h-63z M933,177h62v1h-62z M933,178h62v1h-62z M932,179h63v1h-63z M932,180h63v1h-63z M932,181h62v1h-62z M932,182h62v1h-62z M931,183h63v1h-63z M931,184h63v1h-63z M931,185h62v1h-62z M931,186h62v1h-62z M930,187h63v1h-63z M930,188h63v1h-63z M930,189h62v1h-62z M930,190h62v1h-62z M929,191h63v1h-63z M929,192h63v1h-63z M929,193h62v1h-62z M928,194h63v1h-63z M928,195h63v1h-63z M928,196h62v1h-62z M928,197h62v1h-62z M927,198h63v1h-63z M927,199h63v1h-63z M927,200h62v1h-62z M927,201h62v1h-62z M926,202h63v1h-63z M926,203h63v1h-63z M926,204h62v1h-62z M926,205h62v1h-62z M925,206h63v1h-63z M925,207h63v1h-63z M925,208h62v1h-62z M925,209h62v1h-62z M924,210h63v1h-63z M924,211h63v1h-63z M924,212h62v1h-62z M924,213h62v1h-62z M923,214h63v1h-63z M923,215h63v1h-63z M923,216h62v1h-62z M922,217h63v1h-63z M922,218h63v1h-63z M922,219h62v1h-62z M922,220h62v1h-62z M921,221h63v1h-63z M921,222h63v1h-63z M921,223h62v1h-62z M921,224h62v1h-62z M920,225h63v1h-63z M920,226h63v1h-63z M920,227h62v1h-62z M920,228h62v1h-62z M919,229h63v1h-63z M919,230h63v1h-63z M919,231h62v1h-62z M919,232h62v1h-62z M918,233h63v1h-63z M918,234h63v1h-63z M918,235h62v1h-62z M918,236h62v1h-62z M917,237h63v1h-63z M917,238h63v1h-63z M917,239h62v1h-62z M916,240h63v1h-63z M916,241h63v1h-63z M916,242h62v1h-62z M916,243h62v1h-62z M915,244h63v1h-63z M915,245h63v1h-63z M915,246h62v1h-62z M915,247h62v1h-62z M914,248h63v1h-63z M914,249h63v1h-63z M914,250h62v1h-62z M914,251h62v1h-62z M913,252h63v1h-63z M913,253h63v1h-63z M913,254h62v1h-62z M913,255h62v1h-62z M912,256h63v1h-63z M912,257h63v1h-63z M912,258h62v1h-62z M912,259h62v1h-62z M911,260h63v1h-63z M911,261h63v1h-63z M911,262h62v1h-62z M911,263h62v1h-62z M910,264h63v1h-63z M910,265h62v1h-62z M910,266h62v1h-62z M910,267h62v1h-62z M909,268h63v1h-63z M909,269h62v1h-62z M909,270h62v1h-62z M908,271h63v1h-63z M908,272h63v1h-63z M908,273h62v1h-62z M908,274h62v1h-62z M907,275h63v1h-63z M907,276h63v1h-63z M907,277h62v1h-62z M907,278h62v1h-62z M906,279h63v1h-63z M906,280h63v1h-63z M906,281h62v1h-62z M906,282h62v1h-62z M905,283h63v1h-63z M905,284h63v1h-63z M905,285h62v1h-62z M904,286h63v1h-63z M904,287h63v1h-63z M904,288h63v1h-63z M904,289h62v1h-62z M903,290h63v1h-63z M903,291h63v1h-63z M903,292h63v1h-63z M903,293h62v1h-62z M902,294h63v1h-63z M902,295h63v1h-63z M902,296h62v1h-62z M902,297h62v1h-62z M901,298h63v1h-63z M901,299h63v1h-63z M901,300h62v1h-62z M901,301h62v1h-62z M900,302h63v1h-63z M900,303h63v1h-63z M900,304h62v1h-62z M900,305h62v1h-62z M899,306h63v1h-63z M899,307h63v1h-63z M899,308h62v1h-62z M899,309h62v1h-62z M898,310h63v1h-63z M898,311h62v1h-62z M898,312h62v1h-62z M898,313h62v1h-62z M897,314h63v1h-63z M897,315h63v1h-63z M897,316h62v1h-62z M896,317h63v1h-63z M896,318h63v1h-63z M896,319h62v1h-62z M896,320h62v1h-62z M895,321h63v1h-63z M895,322h63v1h-63z M895,323h62v1h-62z M895,324h62v1h-62z M894,325h63v1h-63z M894,326h63v1h-63z M894,327h62v1h-62z M894,328h62v1h-62z M893,329h63v1h-63z M893,330h63v1h-63z M893,331h62v1h-62z M893,332h62v1h-62z M892,333h63v1h-63z M892,334h63v1h-63z M892,335h62v1h-62z M891,336h63v1h-63z M891,337h63v1h-63z M891,338h63v1h-63z M891,339h62v1h-62z M890,340h63v1h-63z M890,341h63v1h-63z M890,342h62v1h-62z M890,343h62v1h-62z M889,344h63v1h-63z M889,345h63v1h-63z M889,346h62v1h-62z M889,347h62v1h-62z M888,348h63v1h-63z M888,349h63v1h-63z M888,350h62v1h-62z M888,351h62v1h-62z M887,352h63v1h-63z M887,353h63v1h-63z M887,354h62v1h-62z M887,355h62v1h-62z M886,356h63v1h-63z M886,357h63v1h-63z M886,358h62v1h-62z M886,359h62v1h-62z M885,360h63v1h-63z M885,361h63v1h-63z M885,362h62v1h-62z M884,363h63v1h-63z M884,364h63v1h-63z M884,365h62v1h-62z M884,366h62v1h-62z M883,367h63v1h-63z M883,368h63v1h-63z M883,369h62v1h-62z M883,370h62v1h-62z M882,371h63v1h-63z M882,372h63v1h-63z M882,373h62v1h-62z M882,374h62v1h-62z M881,375h63v1h-63z M881,376h63v1h-63z M881,377h62v1h-62z M881,378h62v1h-62z M880,379h63v1h-63z M880,380h63v1h-63z M880,381h62v1h-62z M880,382h62v1h-62z M879,383h63v1h-63z M879,384h63v1h-63z M879,385h62v1h-62z"/>
<path d="M1160,107h53v1h-53z M1150,108h63v1h-63z M1142,109h70v1h-70z M1136,110h76v1h-76z M1131,111h81v1h-81z M1127,112h85v1h-85z M1123,113h88v1h-88z M1119,114h92v1h-92z M1116,115h95v1h-95z M1113,116h97v1h-97z M1110,117h100v1h-100z M1107,118h103v1h-103z M1104,119h106v1h-106z M1101,120h108v1h-108z M1099,121h110v1h-110z M1097,122h112v1h-112z M1094,123h115v1h-115z M1092,124h116v1h-116z M1090,125h118v1h-118z M1088,126h120v1h-120z M1086,127h122v1h-122z M1084,128h123v1h-123z M1082,129h125v1h-125z M1080,130h127v1h-127z M1079,131h127v1h-127z M1077,132h129v1h-129z M1075,133h131v1h-131z M1074,134h132v1h-132z M1072,135h133v1h-133z M1071,136h134v1h-134z M1069,137h136v1h-136z M1068,138h137v1h-137z M1066,139h138v1h-138z M1065,140h139v1h-139z M1063,141h141v1h-141z M1062,142h141v1h-141z M1061,143h142v1h-142z M1059,144h144v1h-144z M1058,145h145v1h-145z M1057,146h145v1h-145z M1055,147h147v1h-147z M1054,148h148v1h-148z M1053,149h149v1h-149z M1052,150h149v1h-149z M1051,151h150v1h-150z M1050,152h151v1h-151z M1049,153h152v1h-152z M1048,154h152v1h-152z M1047,155h153v1h-153z M1045,156h155v1h-155z M1044,157h155v1h-155z M1043,158h156v1h-156z M1042,159h157v1h-157z M1041,160h158v1h-158z M1040,161h158v1h-158z M1040,162h158v1h-158z M1039,163h159v1h-159z M1038,164h159v1h-159z M1037,165h115v1h-115z M1036,166h109v1h-109z M1035,167h105v1h-105z M1034,168h102v1h-102z M1033,169h99v1h-99z M1032,170h97v1h-97z M1031,171h95v1h-95z M1031,172h92v1h-92z M1030,173h91v1h-91z M1029,174h90v1h-90z M1028,175h88v1h-88z M1027,176h87v1h-87z M1027,177h85v1h-85z M1026,178h84v1h-84z M1025,179h84v1h-84z M1024,180h83v1h-83z M1024,181h81v1h-81z M1023,182h81v1h-81z M1022,183h80v1h-80z M1022,184h78v1h-78z M1021,185h78v1h-78z M1020,186h78v1h-78z M1020,187h76v1h-76z M1019,188h76v1h-76z M1018,189h76v1h-76z M1018,190h74v1h-74z M1017,191h74v1h-74z M1016,192h74v1h-74z M1016,193h73v1h-73z M1015,194h73v1h-73z M1015,195h72v1h-72z M1014,196h71v1h-71z M1013,197h71v1h-71z M1013,198h70v1h-70z M1012,199h70v1h-70z M1012,200h69v1h-69z M1011,201h70v1h-70z M1011,202h69v1h-69z M1010,203h69v1h-69z M1010,204h68v1h-68z M1009,205h68v1h-68z M1008,206h68v1h-68z M1008,207h67v1h-67z M1007,208h67v1h-67z M1007,209h67v1h-67z M1006,210h67v1h-67z M1006,211h66v1h-66z M1006,212h65v1h-65z M1005,213h66v1h-66z M1005,214h65v1h-65z M1004,215h65v1h-65z M1004,216h65v1h-65z M1003,217h65v1h-65z M1003,218h64v1h-64z M1002,219h65v1h-65z M1002,220h64v1h-64z M1002,221h64v1h-64z M1001,222h64v1h-64z M1001,223h64v1h-64z M1000,224h64v1h-64z M1000,225h63v1h-63z M1000,226h63v1h-63z M999,227h63v1h-63z M999,228h63v1h-63z M998,229h63v1h-63z M998,230h63v1h-63z M998,231h63v1h-63z M997,232h63v1h-63z M997,233h63v1h-63z M997,234h62v1h-62z M996,235h63v1h-63z M996,236h62v1h-62z M996,237h62v1h-62z M995,238h63v1h-63z M995,239h62v1h-62z M995,240h62v1h-62z M994,241h63v1h-63z M994,242h62v1h-62z M994,243h62v1h-62z M994,244h62v1h-62z M993,245h62v1h-62z M993,246h62v1h-62z M993,247h62v1h-62z M993,248h62v1h-62z M992,249h62v1h-62z M992,250h62v1h-62z M992,251h62v1h-62z M992,252h62v1h-62z M991,253h63v1h-63z M991,254h62v1h-62z M991,255h62v1h-62z M991,256h62v1h-62z M991,257h62v1h-62z M990,258h63v1h-63z M990,259h62v1h-62z M990,260h62v1h-62z M990,261h62v1h-62z M990,262h62v1h-62z M989,263h63v1h-63z M989,264h63v1h-63z M989,265h63v1h-63z M989,266h63v1h-63z M989,267h63v1h-63z M989,268h63v1h-63z M989,269h63v1h-63z M989,270h63v1h-63z M988,271h64v1h-64z M988,272h64v1h-64z M988,273h64v1h-64z M988,274h64v1h-64z M988,275h64v1h-64z M988,276h64v1h-64z M988,277h64v1h-64z M988,278h64v1h-64z M988,279h64v1h-64z M988,280h64v1h-64z M988,281h64v1h-64z M988,282h64v1h-64z M988,283h64v1h-64z M988,284h65v1h-65z M988,285h65v1h-65z M988,286h65v1h-65z M988,287h65v1h-65z M988,288h65v1h-65z M988,289h66v1h-66z M988,290h66v1h-66z M988,291h66v1h-66z M988,292h67v1h-67z M988,293h67v1h-67z M988,294h67v1h-67z M988,295h68v1h-68z M988,296h68v1h-68z M988,297h69v1h-69z M988,298h69v1h-69z M988,299h70v1h-70z M988,300h70v1h-70z M989,301h70v1h-70z M989,302h70v1h-70z M989,303h71v1h-71z M989,304h71v1h-71z M989,305h72v1h-72z M989,306h73v1h-73z M990,307h73v1h-73z M990,308h73v1h-73z M990,309h74v1h-74z M990,310h75v1h-75z M990,311h76v1h-76z M991,312h76v1h-76z M991,313h77v1h-77z M991,314h78v1h-78z M991,315h79v1h-79z M992,316h80v1h-80z M992,317h81v1h-81z M992,318h83v1h-83z M993,319h83v1h-83z M993,320h85v1h-85z M993,321h87v1h-87z M993,322h89v1h-89z M994,323h90v1h-90z M994,324h92v1h-92z M995,325h94v1h-94z M995,326h98v1h-98z M995,327h102v1h-102z M996,328h163v1h-163z M996,329h163v1h-163z M997,330h162v1h-162z M997,331h162v1h-162z M997,332h161v1h-161z M998,333h160v1h-160z M998,334h160v1h-160z M999,335h159v1h-159z M999,336h158v1h-158z M1000,337h157v1h-157z M1001,338h156v1h-156z M1001,339h156v1h-156z M1002,340h154v1h-154z M1002,341h154v1h-154z M1003,342h153v1h-153z M1004,343h151v1h-151z M1004,344h151v1h-151z M1005,345h150v1h-150z M1006,346h149v1h-149z M1006,347h148v1h-148z M1007,348h147v1h-147z M1008,349h146v1h-146z M1009,350h145v1h-145z M1010,351h143v1h-143z M1010,352h143v1h-143z M1011,353h142v1h-142z M1012,354h141v1h-141z M1013,355h139v1h-139z M1014,356h138v1h-138z M1015,357h137v1h-137z M1016,358h135v1h-135z M1017,359h134v1h-134z M1018,360h133v1h-133z M1019,361h132v1h-132z M1020,362h130v1h-130z M1022,363h128v1h-128z M1023,364h127v1h-127z M1024,365h126v1h-126z M1026,366h123v1h-123z M1027,367h122v1h-122z M1028,368h121v1h-121z M1030,369h119v1h-119z M1032,370h116v1h-116z M1033,371h115v1h-115z M1035,372h113v1h-113z M1037,373h111v1h-111z M1039,374h108v1h-108z M1041,375h106v1h-106z M1043,376h104v1h-104z M1045,377h101v1h-101z M1048,378h98v1h-98z M1050,379h96v1h-96z M1053,380h93v1h-93z M1057,381h88v1h-88z M1060,382h85v1h-85z M1065,383h80v1h-80z M1070,384h75v1h-75z M1078,385h66v1h-66z"/>
<path d="M1298,107h94v1h-94z M1291,108h101v1h-101z M1285,109h107v1h-107z M1281,110h111v1h-111z M1277,111h115v1h-115z M1274,112h117v1h-117z M1271,113h120v1h-120z M1269,114h122v1h-122z M1266,115h125v1h-125z M1264,116h126v1h-126z M1262,117h128v1h-128z M1260,118h130v1h-130z M1258,119h131v1h-131z M1256,120h133v1h-133z M1254,121h135v1h-135z M1252,122h137v1h-137z M1251,123h137v1h-137z M1249,124h139v1h-139z M1248,125h140v1h-140z M1246,126h142v1h-142z M1245,127h142v1h-142z M1244,128h143v1h-143z M1242,129h145v1h-145z M1241,130h146v1h-146z M1240,131h146v1h-146z M1239,132h147v1h-147z M1238,133h148v1h-148z M1236,134h149v1h-149z M1235,135h150v1h-150z M1234,136h151v1h-151z M1233,137h152v1h-152z M1232,138h152v1h-152z M1231,139h153v1h-153z M1231,140h153v1h-153z M1230,141h154v1h-154z M1229,142h154v1h-154z M1228,143h155v1h-155z M1227,144h156v1h-156z M1226,145h156v1h-156z M1226,146h156v1h-156z M1225,147h157v1h-157z M1224,148h158v1h-158z M1224,149h157v1h-157z M1223,150h158v1h-158z M1222,151h159v1h-159z M1222,152h159v1h-159z M1221,153h159v1h-159z M1220,154h160v1h-160z M1220,155h160v1h-160z M1219,156h161v1h-161z M1219,157h160v1h-160z M1218,158h161v1h-161z M1218,159h161v1h-161z M1217,160h161v1h-161z M1217,161h161v1h-161z M1216,162h162v1h-162z M1216,163h162v1h-162z M1215,164h162v1h-162z M1215,165h74v1h-74z M1215,166h70v1h-70z M1214,167h69v1h-69z M1214,168h67v1h-67z M1213,169h67v1h-67z M1213,170h65v1h-65z M1213,171h64v1h-64z M1212,172h64v1h-64z M1212,173h63v1h-63z M1212,174h63v1h-63z M1211,175h63v1h-63z M1211,176h62v1h-62z M1211,177h62v1h-62z M1210,178h62v1h-62z M1210,179h62v1h-62z M1210,180h61v1h-61z M1210,181h61v1h-61z M1209,182h62v1h-62z M1209,183h61v1h-61z M1209,184h61v1h-61z M1209,185h61v1h-61z M1208,186h63v1h-63z M1208,187h63v1h-63z M1208,188h63v1h-63z M1208,189h64v1h-64z M1208,190h64v1h-64z M1208,191h65v1h-65z M1208,192h65v1h-65z M1207,193h67v1h-67z M1207,194h68v1h-68z M1207,195h69v1h-69z M1207,196h70v1h-70z M1207,197h71v1h-71z M1207,198h72v1h-72z M1207,199h74v1h-74z M1207,200h75v1h-75z M1207,201h76v1h-76z M1207,202h78v1h-78z M1207,203h79v1h-79z M1207,204h81v1h-81z M1207,205h83v1h-83z M1207,206h84v1h-84z M1208,207h85v1h-85z M1208,208h87v1h-87z M1208,209h89v1h-89z M1208,210h90v1h-90z M1208,211h92v1h-92z M1208,212h94v1h-94z M1209,213h95v1h-95z M1209,214h97v1h-97z M1209,215h99v1h-99z M1210,216h99v1h-99z M1210,217h101v1h-101z M1210,218h103v1h-103z M1211,219h104v1h-104z M1211,220h106v1h-106z M1211,221h108v1h-108z M1212,222h108v1h-108z M1212,223h110v1h-110z M1213,224h111v1h-111z M1213,225h112v1h-112z M1214,226h113v1h-113z M1214,227h115v1h-115z M1215,228h115v1h-115z M1215,229h117v1h-117z M1216,230h117v1h-117z M1217,231h118v1h-118z M1217,232h119v1h-119z M1218,233h119v1h-119z M1219,234h120v1h-120z M1219,235h121v1h-121z M1220,236h121v1h-121z M1221,237h121v1h-121z M1222,238h122v1h-122z M1223,239h122v1h-122z M1224,240h122v1h-122z M1225,241h122v1h-122z M1226,242h122v1h-122z M1226,243h123v1h-123z M1228,244h122v1h-122z M1229,245h122v1h-122z M1230,246h122v1h-122z M1231,247h122v1h-122z M1232,248h122v1h-122z M1233,249h121v1h-121z M1234,250h121v1h-121z M1235,251h121v1h-121z M1237,252h120v1h-120z M1238,253h119v1h-119z M1239,254h119v1h-119z M1241,255h118v1h-118z M1242,256h117v1h-117z M1244,257h116v1h-116z M1245,258h115v1h-115z M1247,259h114v1h-114z M1248,260h113v1h-113z M1250,261h112v1h-112z M1252,262h110v1h-110z M1253,263h110v1h-110z M1255,264h108v1h-108z M1257,265h107v1h-107z M1258,266h106v1h-106z M1260,267h104v1h-104z M1262,268h103v1h-103z M1264,269h101v1h-101z M1266,270h99v1h-99z M1267,271h98v1h-98z M1269,272h97v1h-97z M1271,273h95v1h-95z M1273,274h93v1h-93z M1275,275h91v1h-91z M1277,276h90v1h-90z M1278,277h89v1h-89z M1280,278h87v1h-87z M1282,279h85v1h-85z M1283,280h84v1h-84z M1285,281h82v1h-82z M1286,282h81v1h-81z M1288,283h79v1h-79z M1290,284h77v1h-77z M1291,285h76v1h-76z M1292,286h76v1h-76z M1294,287h74v1h-74z M1295,288h73v1h-73z M1296,289h72v1h-72z M1297,290h70v1h-70z M1298,291h69v1h-69z M1299,292h68v1h-68z M1300,293h67v1h-67z M1301,294h66v1h-66z M1301,295h66v1h-66z M1302,296h65v1h-65z M1302,297h65v1h-65z M1303,298h64v1h-64z M1303,299h64v1h-64z M1304,300h62v1h-62z M1304,301h62v1h-62z M1304,302h62v1h-62z M1304,303h62v1h-62z M1304,304h62v1h-62z M1304,305h61v1h-61z M1304,306h61v1h-61z M1304,307h61v1h-61z M1303,308h62v1h-62z M1303,309h61v1h-61z M1303,310h61v1h-61z M1302,311h62v1h-62z M1302,312h62v1h-62z M1302,313h61v1h-61z M1301,314h62v1h-62z M1301,315h62v1h-62z M1300,316h62v1h-62z M1300,317h62v1h-62z M1299,318h63v1h-63z M1298,319h63v1h-63z M1297,320h64v1h-64z M1296,321h65v1h-65z M1295,322h65v1h-65z M1293,323h67v1h-67z M1292,324h67v1h-67z M1289,325h70v1h-70z M1286,326h73v1h-73z M1281,327h77v1h-77z M1185,328h173v1h-173z M1185,329h172v1h-172z M1184,330h173v1h-173z M1184,331h173v1h-173z M1184,332h172v1h-172z M1184,333h172v1h-172z M1183,334h172v1h-172z M1183,335h172v1h-172z M1183,336h171v1h-171z M1183,337h171v1h-171z M1182,338h171v1h-171z M1182,339h170v1h-170z M1182,340h170v1h-170z M1182,341h169v1h-169z M1181,342h170v1h-170z M1181,343h169v1h-169z M1181,344h168v1h-168z M1180,345h169v1h-169z M1180,346h168v1h-168z M1180,347h168v1h-168z M1180,348h167v1h-167z M1179,349h167v1h-167z M1179,350h166v1h-166z M1179,351h166v1h-166z M1179,352h165v1h-165z M1178,353h165v1h-165z M1178,354h164v1h-164z M1178,355h163v1h-163z M1178,356h162v1h-162z M1177,357h162v1h-162z M1177,358h161v1h-161z M1177,359h160v1h-160z M1176,360h160v1h-160z M1176,361h159v1h-159z M1176,362h158v1h-158z M1176,363h157v1h-157z M1175,364h157v1h-157z M1175,365h156v1h-156z M1175,366h154v1h-154z M1175,367h153v1h-153z M1174,368h153v1h-153z M1174,369h151v1h-151z M1174,370h150v1h-150z M1173,371h149v1h-149z M1173,372h148v1h-148z M1173,373h146v1h-146z M1173,374h144v1h-144z M1172,375h143v1h-143z M1172,376h141v1h-141z M1172,377h139v1h-139z M1172,378h136v1h-136z M1171,379h134v1h-134z M1171,380h132v1h-132z M1171,381h128v1h-128z M1171,382h125v1h-125z M1170,383h121v1h-121z M1170,384h115v1h-115z M1170,385h107v1h-107z"/>
  </g>
</svg>