<?xml version="1.0" encoding="UTF-8"?>
<svg xmlns="http://www.w3.org/2000/svg" viewBox="0 0 400 160" width="400" height="160">
  <g transform="translate(30.00,49.40) scale(0.566667)" fill="white">
<path d="M38,0h85v1h-85z M34,1h88v1h-88z M31,2h90v1h-90z M28,3h92v1h-92z M26,4h93v1h-93z M24,5h94v1h-94z M22,6h95v1h-95z M21,7h95v1h-95z M19,8h96v1h-96z M18,9h96v1h-96z M17,10h96v1h-96z M15,11h97v1h-97z M14,12h98v1h-98z M13,13h98v1h-98z M12,14h98v1h-98z M11,15h98v1h-98z M11,16h97v1h-97z M10,17h97v1h-97z M9,18h97v1h-97z M8,19h97v1h-97z M8,20h96v1h-96z M7,21h96v1h-96z M6,22h96v1h-96z M6,23h95v1h-95z M5,24h95v1h-95z M5,25h94v1h-94z M4,26h94v1h-94z M4,27h93v1h-93z M3,28h38v1h-38z M3,29h35v1h-35z M3,30h34v1h-34z M2,31h33v1h-33z M2,32h32v1h-32z M2,33h31v1h-31z M1,34h31v1h-31z M1,35h30v1h-30z M1,36h30v1h-30z M1,37h29v1h-29z M0,38h30v1h-30z M0,39h29v1h-29z M0,40h29v1h-29z M0,41h29v1h-29z M0,42h28v1h-28z M0,43h28v1h-28z M0,44h28v1h-28z M0,45h28v1h-28z M0,46h28v1h-28z M0,47h28v1h-28z M0,48h28v1h-28z M0,49h28v1h-28z M0,50h28v1h-28z M0,51h29v1h-29z M0,52h29v1h-29z M0,53h29v1h-29z M0,54h30v1h-30z M0,55h30v1h-30z M1,56h30v1h-30z M1,57h31v1h-31z M1,58h31v1h-31z M1,59h32v1h-32z M2,60h32v1h-32z M2,61h34v1h-34z M2,62h34v1h-34z M3,63h33v1h-33z M3,64h32v1h-32z M4,65h30v1h-30z M4,66h29v1h-29z M4,67h28v1h-28z M5,68h26v1h-26z M6,69h24v1h-24z M6,70h23v1h-23z M7,71h21v1h-21z M7,72h20v1h-20z M8,73h18v1h-18z M9,74h16v1h-16z M9,75h15v1h-15z M10,76h13v1h-13z M11,77h11v1h-11z M12,78h9v1h-9z M13,79h7v1h-7z M14,80h5v1h-5z M15,81h4v1h-4z M16,82h2v1h-2z"/>
<path d="M498,18h16v1h-16z M495,19h23v1h-23z M492,20h28v1h-28z M490,21h32v1h-32z M489,22h35v1h-35z M487,23h38v1h-38z M486,24h40v1h-40z M485,25h42v1h-42z M484,26h44v1h-44z M483,27h46v1h-46z M483,28h46v1h-46z M482,29h48v1h-48z M482,30h49v1h-49z M481,31h50v1h-50z M481,32h22v1h-22z M508,32h23v1h-23z M481,33h20v1h-20z M510,33h22v1h-22z M481,34h19v1h-19z M512,34h20v1h-20z M480,35h19v1h-19z M512,35h20v1h-20z M480,36h19v1h-19z M513,36h19v1h-19z M480,37h19v1h-19z M513,37h19v1h-19z M480,38h19v1h-19z M513,38h20v1h-20z M480,39h19v1h-19z M480,40h19v1h-19z M480,41h20v1h-20z M480,42h21v1h-21z M481,43h22v1h-22z M481,44h24v1h-24z M481,45h26v1h-26z M482,46h28v1h-28z M482,47h31v1h-31z M483,48h33v1h-33z M483,49h35v1h-35z M484,50h37v1h-37z M485,51h38v1h-38z M486,52h39v1h-39z M487,53h39v1h-39z M488,54h39v1h-39z M490,55h38v1h-38z M492,56h37v1h-37z M494,57h36v1h-36z M497,58h34v1h-34z M500,59h31v1h-31z M503,60h29v1h-29z M506,61h26v1h-26z M509,62h24v1h-24z M511,63h22v1h-22z M512,64h21v1h-21z M513,65h20v1h-20z M514,66h19v1h-19z M515,67h18v1h-18z M480,68h19v1h-19z M515,68h18v1h-18z M480,69h19v1h-19z M515,69h18v1h-18z M480,70h19v1h-19z M515,70h18v1h-18z M480,71h20v1h-20z M515,71h18v1h-18z M481,72h19v1h-19z M514,72h19v1h-19z M481,73h20v1h-20z M513,73h20v1h-20z M481,74h22v1h-22z M512,74h20v1h-20z M481,75h25v1h-25z M509,75h23v1h-23z M482,76h50v1h-50z M482,77h49v1h-49z M483,78h48v1h-48z M484,79h46v1h-46z M484,80h45v1h-45z M485,81h44v1h-44z M486,82h42v1h-42z M487,83h40v1h-40z M488,84h37v1h-37z M490,85h34v1h-34z M492,86h30v1h-30z M494,87h26v1h-26z M497,88h21v1h-21z M501,89h13v1h-13z"/>
<path d="M131,19h35v1h-35z M131,20h39v1h-39z M131,21h42v1h-42z M131,22h45v1h-45z M131,23h47v1h-47z M131,24h48v1h-48z M131,25h50v1h-50z M131,26h51v1h-51z M131,27h52v1h-52z M131,28h53v1h-53z M131,29h54v1h-54z M131,30h55v1h-55z M131,31h56v1h-56z M131,32h57v1h-57z M131,33h58v1h-58z M131,34h18v1h-18z M162,34h27v1h-27z M131,35h18v1h-18z M165,35h25v1h-25z M131,36h18v1h-18z M168,36h22v1h-22z M131,37h18v1h-18z M169,37h22v1h-22z M131,38h18v1h-18z M170,38h21v1h-21z M131,39h18v1h-18z M171,39h21v1h-21z M131,40h18v1h-18z M172,40h20v1h-20z M131,41h18v1h-18z M173,41h20v1h-20z M131,42h18v1h-18z M174,42h19v1h-19z M131,43h18v1h-18z M174,43h19v1h-19z M131,44h18v1h-18z M175,44h18v1h-18z M131,45h18v1h-18z M175,45h19v1h-19z M131,46h18v1h-18z M175,46h19v1h-19z M131,47h18v1h-18z M176,47h18v1h-18z M131,48h18v1h-18z M176,48h18v1h-18z M131,49h18v1h-18z M176,49h18v1h-18z M131,50h18v1h-18z M176,50h18v1h-18z M131,51h18v1h-18z M176,51h18v1h-18z M131,52h18v1h-18z M176,52h18v1h-18z M131,53h18v1h-18z M176,53h18v1h-18z M131,54h18v1h-18z M176,54h18v1h-18z M131,55h18v1h-18z M176,55h18v1h-18z M131,56h18v1h-18z M176,56h18v1h-18z M131,57h18v1h-18z M176,57h18v1h-18z M131,58h18v1h-18z M176,58h18v1h-18z M131,59h18v1h-18z M176,59h18v1h-18z M131,60h18v1h-18z M176,60h18v1h-18z M131,61h18v1h-18z M175,61h19v1h-19z M131,62h18v1h-18z M175,62h19v1h-19z M131,63h18v1h-18z M175,63h18v1h-18z M131,64h18v1h-18z M174,64h19v1h-19z M131,65h18v1h-18z M174,65h19v1h-19z M131,66h18v1h-18z M173,66h20v1h-20z M131,67h18v1h-18z M172,67h20v1h-20z M131,68h18v1h-18z M171,68h21v1h-21z M131,69h18v1h-18z M170,69h21v1h-21z M131,70h18v1h-18z M169,70h22v1h-22z M131,71h18v1h-18z M167,71h23v1h-23z M131,72h18v1h-18z M165,72h25v1h-25z M131,73h18v1h-18z M161,73h28v1h-28z M131,74h58v1h-58z M131,75h57v1h-57z M131,76h56v1h-56z M131,77h55v1h-55z M131,78h54v1h-54z M131,79h53v1h-53z M131,80h52v1h-52z M131,81h51v1h-51z M131,82h50v1h-50z M131,83h48v1h-48z M131,84h47v1h-47z M131,85h45v1h-45z M131,86h42v1h-42z M131,87h39v1h-39z M131,88h35v1h-35z"/>
<path d="M190,19h20v1h-20z M236,19h20v1h-20z M191,20h20v1h-20z M235,20h20v1h-20z M191,21h20v1h-20z M235,21h20v1h-20z M192,22h19v1h-19z M235,22h19v1h-19z M192,23h20v1h-20z M234,23h20v1h-20z M193,24h19v1h-19z M234,24h19v1h-19z M193,25h20v1h-20z M233,25h20v1h-20z M194,26h19v1h-19z M233,26h19v1h-19z M194,27h20v1h-20z M232,27h20v1h-20z M195,28h19v1h-19z M232,28h19v1h-19z M195,29h20v1h-20z M231,29h20v1h-20z M196,30h19v1h-19z M231,30h19v1h-19z M196,31h20v1h-20z M230,31h20v1h-20z M197,32h19v1h-19z M230,32h19v1h-19z M197,33h20v1h-20z M229,33h20v1h-20z M198,34h19v1h-19z M229,34h19v1h-19z M198,35h20v1h-20z M229,35h18v1h-18z M199,36h19v1h-19z M228,36h19v1h-19z M199,37h19v1h-19z M228,37h18v1h-18z M200,38h19v1h-19z M227,38h19v1h-19z M200,39h19v1h-19z M227,39h18v1h-18z M201,40h19v1h-19z M226,40h19v1h-19z M201,41h19v1h-19z M226,41h18v1h-18z M202,42h19v1h-19z M225,42h19v1h-19z M202,43h19v1h-19z M225,43h18v1h-18z M203,44h19v1h-19z M224,44h19v1h-19z M203,45h19v1h-19z M224,45h18v1h-18z M204,46h38v1h-38z M204,47h37v1h-37z M205,48h36v1h-36z M206,49h34v1h-34z M206,50h34v1h-34z M207,51h32v1h-32z M207,52h32v1h-32z M208,53h30v1h-30z M208,54h30v1h-30z M209,55h28v1h-28z M209,56h28v1h-28z M210,57h26v1h-26z M210,58h26v1h-26z M211,59h24v1h-24z M211,60h24v1h-24z M212,61h22v1h-22z M212,62h22v1h-22z M213,63h20v1h-20z M213,64h19v1h-19z M214,65h18v1h-18z M214,66h18v1h-18z M214,67h18v1h-18z M214,68h18v1h-18z M214,69h18v1h-18z M214,70h18v1h-18z M214,71h18v1h-18z M214,72h18v1h-18z M214,73h18v1h-18z M214,74h18v1h-18z M214,75h18v1h-18z M214,76h18v1h-18z M214,77h18v1h-18z M214,78h18v1h-18z M214,79h18v1h-18z M214,80h18v1h-18z M214,81h18v1h-18z M214,82h18v1h-18z M214,83h18v1h-18z M214,84h18v1h-18z M214,85h18v1h-18z M214,86h18v1h-18z M214,87h18v1h-18z M214,88h18v1h-18z"/>
<path d="M258,19h18v1h-18z M304,19h17v1h-17z M258,20h19v1h-19z M304,20h17v1h-17z M258,21h19v1h-19z M304,21h17v1h-17z M258,22h20v1h-20z M304,22h17v1h-17z M258,23h21v1h-21z M304,23h17v1h-17z M258,24h21v1h-21z M304,24h17v1h-17z M258,25h22v1h-22z M304,25h17v1h-17z M258,26h23v1h-23z M304,26h17v1h-17z M258,27h23v1h-23z M304,27h17v1h-17z M258,28h24v1h-24z M304,28h17v1h-17z M258,29h25v1h-25z M304,29h17v1h-17z M258,30h25v1h-25z M304,30h17v1h-17z M258,31h26v1h-26z M304,31h17v1h-17z M258,32h27v1h-27z M304,32h17v1h-17z M258,33h27v1h-27z M304,33h17v1h-17z M258,34h28v1h-28z M304,34h17v1h-17z M258,35h29v1h-29z M304,35h17v1h-17z M258,36h29v1h-29z M304,36h17v1h-17z M258,37h30v1h-30z M304,37h17v1h-17z M258,38h31v1h-31z M304,38h17v1h-17z M258,39h31v1h-31z M304,39h17v1h-17z M258,40h32v1h-32z M304,40h17v1h-17z M258,41h33v1h-33z M304,41h17v1h-17z M258,42h33v1h-33z M304,42h17v1h-17z M258,43h34v1h-34z M304,43h17v1h-17z M258,44h35v1h-35z M304,44h17v1h-17z M258,45h35v1h-35z M304,45h17v1h-17z M258,46h36v1h-36z M304,46h17v1h-17z M258,47h37v1h-37z M304,47h17v1h-17z M258,48h18v1h-18z M277,48h18v1h-18z M304,48h17v1h-17z M258,49h18v1h-18z M277,49h19v1h-19z M304,49h17v1h-17z M258,50h18v1h-18z M278,50h19v1h-19z M304,50h17v1h-17z M258,51h18v1h-18z M279,51h18v1h-18z M304,51h17v1h-17z M258,52h18v1h-18z M279,52h19v1h-19z M304,52h17v1h-17z M258,53h18v1h-18z M280,53h19v1h-19z M304,53h17v1h-17z M258,54h18v1h-18z M281,54h18v1h-18z M304,54h17v1h-17z M258,55h18v1h-18z M281,55h19v1h-19z M304,55h17v1h-17z M258,56h18v1h-18z M282,56h18v1h-18z M304,56h17v1h-17z M258,57h18v1h-18z M283,57h18v1h-18z M304,57h17v1h-17z M258,58h18v1h-18z M283,58h19v1h-19z M304,58h17v1h-17z M258,59h18v1h-18z M284,59h18v1h-18z M304,59h17v1h-17z M258,60h18v1h-18z M285,60h18v1h-18z M304,60h17v1h-17z M258,61h18v1h-18z M285,61h36v1h-36z M258,62h18v1h-18z M286,62h35v1h-35z M258,63h18v1h-18z M287,63h34v1h-34z M258,64h18v1h-18z M287,64h34v1h-34z M258,65h18v1h-18z M288,65h33v1h-33z M258,66h18v1h-18z M289,66h32v1h-32z M258,67h18v1h-18z M289,67h32v1h-32z M258,68h18v1h-18z M290,68h31v1h-31z M258,69h18v1h-18z M291,69h30v1h-30z M258,70h18v1h-18z M291,70h30v1h-30z M258,71h18v1h-18z M292,71h29v1h-29z M258,72h18v1h-18z M293,72h28v1h-28z M258,73h18v1h-18z M293,73h28v1h-28z M258,74h18v1h-18z M294,74h27v1h-27z M258,75h18v1h-18z M295,75h26v1h-26z M258,76h18v1h-18z M295,76h26v1h-26z M258,77h18v1h-18z M296,77h25v1h-25z M258,78h18v1h-18z M297,78h24v1h-24z M258,79h18v1h-18z M297,79h24v1h-24z M258,80h18v1h-18z M298,80h23v1h-23z M258,81h18v1h-18z M299,81h22v1h-22z M258,82h18v1h-18z M299,82h22v1h-22z M258,83h18v1h-18z M300,83h21v1h-21z M258,84h18v1h-18z M301,84h20v1h-20z M258,85h18v1h-18z M301,85h20v1h-20z M258,86h18v1h-18z M302,86h19v1h-19z M258,87h18v1h-18z M303,87h18v1h-18z M258,88h18v1h-18z M303,88h18v1h-18z"/>
<path d="M349,19h21v1h-21z M349,20h22v1h-22z M349,21h22v1h-22z M348,22h23v1h-23z M348,23h24v1h-24z M348,24h24v1h-24z M347,25h25v1h-25z M347,26h26v1h-26z M347,27h26v1h-26z M346,28h27v1h-27z M346,29h28v1h-28z M345,30h29v1h-29z M345,31h30v1h-30z M345,32h30v1h-30z M344,33h31v1h-31z M344,34h32v1h-32z M344,35h32v1h-32z M343,36h33v1h-33z M343,37h34v1h-34z M343,38h34v1h-34z M342,39h35v1h-35z M342,40h17v1h-17z M360,40h18v1h-18z M341,41h18v1h-18z M361,41h17v1h-17z M341,42h18v1h-18z M361,42h18v1h-18z M341,43h17v1h-17z M361,43h18v1h-18z M340,44h18v1h-18z M362,44h17v1h-17z M340,45h18v1h-18z M362,45h18v1h-18z M340,46h17v1h-17z M362,46h18v1h-18z M339,47h18v1h-18z M363,47h17v1h-17z M339,48h18v1h-18z M363,48h18v1h-18z M339,49h17v1h-17z M363,49h18v1h-18z M338,50h18v1h-18z M364,50h17v1h-17z M338,51h18v1h-18z M364,51h18v1h-18z M337,52h18v1h-18z M364,52h18v1h-18z M337,53h18v1h-18z M365,53h17v1h-17z M337,54h18v1h-18z M365,54h18v1h-18z M336,55h18v1h-18z M365,55h18v1h-18z M336,56h18v1h-18z M366,56h18v1h-18z M336,57h18v1h-18z M366,57h18v1h-18z M335,58h18v1h-18z M366,58h18v1h-18z M335,59h18v1h-18z M367,59h18v1h-18z M335,60h18v1h-18z M367,60h18v1h-18z M334,61h18v1h-18z M367,61h18v1h-18z M334,62h18v1h-18z M368,62h18v1h-18z M333,63h53v1h-53z M333,64h53v1h-53z M333,65h54v1h-54z M332,66h55v1h-55z M332,67h56v1h-56z M332,68h56v1h-56z M331,69h57v1h-57z M331,70h58v1h-58z M331,71h58v1h-58z M330,72h59v1h-59z M330,73h60v1h-60z M330,74h60v1h-60z M329,75h61v1h-61z M329,76h62v1h-62z M328,77h19v1h-19z M373,77h18v1h-18z M328,78h18v1h-18z M373,78h19v1h-19z M328,79h18v1h-18z M373,79h19v1h-19z M327,80h19v1h-19z M374,80h18v1h-18z M327,81h18v1h-18z M374,81h19v1h-19z M327,82h18v1h-18z M374,82h19v1h-19z M326,83h19v1h-19z M375,83h18v1h-18z M326,84h18v1h-18z M375,84h19v1h-19z M326,85h18v1h-18z M375,85h19v1h-19z M325,86h19v1h-19z M376,86h18v1h-18z M325,87h18v1h-18z M376,87h19v1h-19z M324,88h19v1h-19z M376,88h19v1h-19z"/>
<path d="M398,19h46v1h-46z M398,20h46v1h-46z M398,21h46v1h-46z M398,22h46v1h-46z M398,23h46v1h-46z M398,24h46v1h-46z M398,25h46v1h-46z M398,26h46v1h-46z M398,27h46v1h-46z M398,28h46v1h-46z M398,29h46v1h-46z M398,30h46v1h-46z M398,31h46v1h-46z M398,32h46v1h-46z M398,33h18v1h-18z M398,34h18v1h-18z M398,35h18v1h-18z M398,36h18v1h-18z M398,37h18v1h-18z M398,38h18v1h-18z M398,39h18v1h-18z M398,40h18v1h-18z M398,41h18v1h-18z M398,42h18v1h-18z M398,43h18v1h-18z M398,44h18v1h-18z M398,45h18v1h-18z M398,46h18v1h-18z M398,47h46v1h-46z M398,48h46v1h-46z M398,49h46v1h-46z M398,50h46v1h-46z M398,51h46v1h-46z M398,52h46v1h-46z M398,53h46v1h-46z M398,54h46v1h-46z M398,55h46v1h-46z M398,56h46v1h-46z M398,57h46v1h-46z M398,58h46v1h-46z M398,59h46v1h-46z M398,60h46v1h-46z M398,61h18v1h-18z M398,62h18v1h-18z M398,63h18v1h-18z M398,64h18v1h-18z M398,65h18v1h-18z M398,66h18v1h-18z M398,67h18v1h-18z M398,68h18v1h-18z M398,69h18v1h-18z M398,70h18v1h-18z M398,71h18v1h-18z M398,72h18v1h-18z M398,73h18v1h-18z M398,74h18v1h-18z M398,75h18v1h-18z M398,76h18v1h-18z M398,77h18v1h-18z M398,78h18v1h-18z M398,79h18v1h-18z M398,80h18v1h-18z M398,81h18v1h-18z M398,82h18v1h-18z M398,83h18v1h-18z M398,84h18v1h-18z M398,85h18v1h-18z M398,86h18v1h-18z M398,87h18v1h-18z M398,88h18v1h-18z"/>
<path d="M453,19h17v1h-17z M453,20h17v1h-17z M453,21h17v1h-17z M453,22h17v1h-17z M453,23h17v1h-17z M453,24h17v1h-17z M453,25h17v1h-17z M453,26h17v1h-17z M453,27h17v1h-17z M453,28h17v1h-17z M453,29h17v1h-17z M453,30h17v1h-17z M453,31h17v1h-17z M453,32h17v1h-17z M453,33h17v1h-17z M453,34h17v1h-17z M453,35h17v1h-17z M453,36h17v1h-17z M453,37h17v1h-17z M453,38h17v1h-17z M453,39h17v1h-17z M453,40h17v1h-17z M453,41h17v1h-17z M453,42h17v1h-17z M453,43h17v1h-17z M453,44h17v1h-17z M453,45h17v1h-17z M453,46h17v1h-17z M453,47h17v1h-17z M453,48h17v1h-17z M453,49h17v1h-17z M453,50h17v1h-17z M453,51h17v1h-17z M453,52h17v1h-17z M453,53h17v1h-17z M453,54h17v1h-17z M453,55h17v1h-17z M453,56h17v1h-17z M453,57h17v1h-17z M453,58h17v1h-17z M453,59h17v1h-17z M453,60h17v1h-17z M453,61h17v1h-17z M453,62h17v1h-17z M453,63h17v1h-17z M453,64h17v1h-17z M453,65h17v1h-17z M453,66h17v1h-17z M453,67h17v1h-17z M453,68h17v1h-17z M453,69h17v1h-17z M453,70h17v1h-17z M453,71h17v1h-17z M453,72h17v1h-17z M453,73h17v1h-17z M453,74h17v1h-17z M453,75h17v1h-17z M453,76h17v1h-17z M453,77h17v1h-17z M453,78h17v1h-17z M453,79h17v1h-17z M453,80h17v1h-17z M453,81h17v1h-17z M453,82h17v1h-17z M453,83h17v1h-17z M453,84h17v1h-17z M453,85h17v1h-17z M453,86h17v1h-17z M453,87h17v1h-17z M453,88h17v1h-17z"/>
<path d="M539,19h18v1h-18z M583,19h17v1h-17z M539,20h18v1h-18z M583,20h17v1h-17z M539,21h18v1h-18z M583,21h17v1h-17z M539,22h18v1h-18z M583,22h17v1h-17z M539,23h18v1h-18z M583,23h17v1h-17z M539,24h18v1h-18z M583,24h17v1h-17z M539,25h18v1h-18z M583,25h17v1h-17z M539,26h18v1h-18z M583,26h17v1h-17z M539,27h18v1h-18z M583,27h17v1h-17z M539,28h18v1h-18z M583,28h17v1h-17z M539,29h18v1h-18z M583,29h17v1h-17z M539,30h18v1h-18z M583,30h17v1h-17z M539,31h18v1h-18z M583,31h17v1h-17z M539,32h18v1h-18z M583,32h17v1h-17z M539,33h18v1h-18z M583,33h17v1h-17z M539,34h18v1h-18z M583,34h17v1h-17z M539,35h18v1h-18z M583,35h17v1h-17z M539,36h18v1h-18z M583,36h17v1h-17z M539,37h18v1h-18z M583,37h17v1h-17z M539,38h18v1h-18z M583,38h17v1h-17z M539,39h18v1h-18z M583,39h17v1h-17z M539,40h18v1h-18z M583,40h17v1h-17z M539,41h18v1h-18z M583,41h17v1h-17z M539,42h18v1h-18z M583,42h17v1h-17z M539,43h18v1h-18z M583,43h17v1h-17z M539,44h18v1h-18z M583,44h17v1h-17z M539,45h18v1h-18z M583,45h17v1h-17z M539,46h61v1h-61z M539,47h61v1h-61z M539,48h61v1h-61z M539,49h61v1h-61z M539,50h61v1h-61z M539,51h61v1h-61z M539,52h61v1h-61z M539,53h61v1h-61z M539,54h61v1h-61z M539,55h61v1h-61z M539,56h61v1h-61z M539,57h61v1h-61z M539,58h61v1h-61z M539,59h61v1h-61z M539,60h61v1h-61z M539,61h18v1h-18z M583,61h17v1h-17z M539,62h18v1h-18z M583,62h17v1h-17z M539,63h18v1h-18z M583,63h17v1h-17z M539,64h18v1h-18z M583,64h17v1h-17z M539,65h18v1h-18z M583,65h17v1h-17z M539,66h18v1h-18z M583,66h17v1h-17z M539,67h18v1h-18z M583,67h17v1h-17z M539,68h18v1h-18z M583,68h17v1h-17z M539,69h18v1h-18z M583,69h17v1h-17z M539,70h18v1h-18z M583,70h17v1h-17z M539,71h18v1h-18z M583,71h17v1h-17z M539,72h18v1h-18z M583,72h17v1h-17z M539,73h18v1h-18z M583,73h17v1h-17z M539,74h18v1h-18z M583,74h17v1h-17z M539,75h18v1h-18z M583,75h17v1h-17z M539,76h18v1h-18z M583,76h17v1h-17z M539,77h18v1h-18z M583,77h17v1h-17z M539,78h18v1h-18z M583,78h17v1h-17z M539,79h18v1h-18z M583,79h17v1h-17z M539,80h18v1h-18z M583,80h17v1h-17z M539,81h18v1h-18z M583,81h17v1h-17z M539,82h18v1h-18z M583,82h17v1h-17z M539,83h18v1h-18z M583,83h17v1h-17z M539,84h18v1h-18z M583,84h17v1h-17z M539,85h18v1h-18z M583,85h17v1h-17z M539,86h18v1h-18z M583,86h17v1h-17z M539,87h18v1h-18z M583,87h17v1h-17z M539,88h18v1h-18z M583,88h17v1h-17z"/>
<path d="M58,53h31v1h-31z M57,54h31v1h-31z M56,55h32v1h-32z M55,56h32v1h-32z M54,57h32v1h-32z M53,58h32v1h-32z M52,59h32v1h-32z M51,60h32v1h-32z M50,61h32v1h-32z M49,62h32v1h-32z M48,63h32v1h-32z M47,64h32v1h-32z M46,65h32v1h-32z M45,66h32v1h-32z M44,67h32v1h-32z M44,68h31v1h-31z M43,69h31v1h-31z M42,70h31v1h-31z M41,71h31v1h-31z M40,72h31v1h-31z M39,73h31v1h-31z M38,74h31v1h-31z M37,75h31v1h-31z M36,76h31v1h-31z M35,77h31v1h-31z M34,78h32v1h-32z M33,79h32v1h-32z M32,80h32v1h-32z M31,81h32v1h-32z M30,82h32v1h-32z M29,83h32v1h-32z M28,84h32v1h-32z M27,85h32v1h-32z M26,86h32v1h-32z M25,87h32v1h-32z M24,88h32v1h-32z M23,89h32v1h-32z M22,90h32v1h-32z M22,91h31v1h-31z M21,92h31v1h-31z M20,93h31v1h-31z M19,94h31v1h-31z M18,95h31v1h-31z M17,96h31v1h-31z M16,97h31v1h-31z M15,98h31v1h-31z M14,99h31v1h-31z M13,100h31v1h-31z M12,101h31v1h-31z M11,102h32v1h-32z M10,103h32v1h-32z M9,104h32v1h-32z M8,105h32v1h-32z M7,106h32v1h-32z M6,107h32v1h-32z"/>
  </g>
</svg>