<?xml version="1.0" encoding="UTF-8"?>
<svg xmlns="http://www.w3.org/2000/svg" viewBox="0 0 400 160" width="400" height="160">
  <g transform="translate(30.00,33.49) scale(0.181333)" fill="white">
<path d="M749,0h47v1h-47z M736,1h72v1h-72z M727,2h89v1h-89z M720,3h103v1h-103z M714,4h116v1h-116z M708,5h127v1h-127z M703,6h137v1h-137z M698,7h146v1h-146z M99,8h103v1h-103z M409,8h101v1h-101z M694,8h154v1h-154z M1064,8h100v1h-100z M1327,8h110v1h-110z M1575,8h132v1h-132z M92,9h115v1h-115z M404,9h112v1h-112z M689,9h163v1h-163z M1057,9h113v1h-113z M1324,9h121v1h-121z M1570,9h140v1h-140z M90,10h120v1h-120z M402,10h119v1h-119z M686,10h170v1h-170z M1055,10h119v1h-119z M1321,10h127v1h-127z M1568,10h144v1h-144z M89,11h123v1h-123z M400,11h124v1h-124z M682,11h177v1h-177z M1054,11h122v1h-122z M1319,11h131v1h-131z M1567,11h147v1h-147z M88,12h125v1h-125z M399,12h127v1h-127z M678,12h185v1h-185z M1053,12h124v1h-124z M1317,12h134v1h-134z M1566,12h149v1h-149z M87,13h127v1h-127z M399,13h128v1h-128z M675,13h191v1h-191z M1052,13h126v1h-126z M1316,13h136v1h-136z M1565,13h151v1h-151z M86,14h129v1h-129z M398,14h129v1h-129z M671,14h198v1h-198z M1051,14h127v1h-127z M1315,14h138v1h-138z M1564,14h152v1h-152z M86,15h130v1h-130z M397,15h131v1h-131z M668,15h204v1h-204z M1051,15h128v1h-128z M1313,15h140v1h-140z M1564,15h153v1h-153z M85,16h131v1h-131z M397,16h131v1h-131z M665,16h210v1h-210z M1050,16h129v1h-129z M1312,16h142v1h-142z M1563,16h155v1h-155z M85,17h131v1h-131z M397,17h131v1h-131z M662,17h215v1h-215z M1050,17h129v1h-129z M1311,17h143v1h-143z M1563,17h155v1h-155z M85,18h131v1h-131z M396,18h133v1h-133z M659,18h221v1h-221z M1050,18h129v1h-129z M1310,18h144v1h-144z M1562,18h156v1h-156z M84,19h133v1h-133z M396,19h133v1h-133z M657,19h226v1h-226z M1049,19h130v1h-130z M1310,19h144v1h-144z M1561,19h158v1h-158z M84,20h133v1h-133z M396,20h133v1h-133z M654,20h231v1h-231z M1049,20h130v1h-130z M1309,20h145v1h-145z M1561,20h158v1h-158z M84,21h133v1h-133z M395,21h134v1h-134z M651,21h236v1h-236z M1049,21h130v1h-130z M1308,21h146v1h-146z M1560,21h159v1h-159z M84,22h133v1h-133z M395,22h134v1h-134z M649,22h241v1h-241z M1049,22h130v1h-130z M1307,22h147v1h-147z M1560,22h160v1h-160z M83,23h133v1h-133z M395,23h133v1h-133z M646,23h246v1h-246z M1049,23h130v1h-130z M1306,23h148v1h-148z M1559,23h161v1h-161z M83,24h133v1h-133z M395,24h133v1h-133z M644,24h250v1h-250z M1048,24h131v1h-131z M1305,24h149v1h-149z M1559,24h161v1h-161z M83,25h133v1h-133z M395,25h133v1h-133z M642,25h254v1h-254z M1048,25h131v1h-131z M1305,25h149v1h-149z M1558,25h162v1h-162z M83,26h133v1h-133z M394,26h134v1h-134z M639,26h259v1h-259z M1048,26h131v1h-131z M1304,26h149v1h-149z M1558,26h162v1h-162z M83,27h133v1h-133z M394,27h134v1h-134z M637,27h263v1h-263z M1048,27h130v1h-130z M1303,27h150v1h-150z M1557,27h163v1h-163z M82,28h134v1h-134z M394,28h134v1h-134z M635,28h267v1h-267z M1048,28h130v1h-130z M1302,28h151v1h-151z M1557,28h164v1h-164z M82,29h134v1h-134z M394,29h134v1h-134z M633,29h271v1h-271z M1047,29h131v1h-131z M1301,29h151v1h-151z M1556,29h165v1h-165z M82,30h133v1h-133z M394,30h133v1h-133z M631,30h275v1h-275z M1047,30h131v1h-131z M1301,30h151v1h-151z M1555,30h166v1h-166z M82,31h133v1h-133z M393,31h134v1h-134z M628,31h280v1h-280z M1047,31h131v1h-131z M1300,31h151v1h-151z M1555,31h166v1h-166z M82,32h133v1h-133z M393,32h134v1h-134z M626,32h284v1h-284z M1047,32h131v1h-131z M1299,32h152v1h-152z M1554,32h167v1h-167z M81,33h134v1h-134z M393,33h134v1h-134z M624,33h288v1h-288z M1047,33h131v1h-131z M1298,33h152v1h-152z M1554,33h168v1h-168z M81,34h134v1h-134z M393,34h134v1h-134z M623,34h290v1h-290z M1046,34h131v1h-131z M1297,34h153v1h-153z M1553,34h169v1h-169z M81,35h133v1h-133z M393,35h133v1h-133z M621,35h294v1h-294z M1046,35h131v1h-131z M1297,35h152v1h-152z M1553,35h169v1h-169z M81,36h133v1h-133z M393,36h133v1h-133z M619,36h298v1h-298z M1046,36h131v1h-131z M1296,36h153v1h-153z M1552,36h170v1h-170z M81,37h133v1h-133z M392,37h134v1h-134z M617,37h301v1h-301z M1046,37h131v1h-131z M1295,37h153v1h-153z M1551,37h171v1h-171z M81,38h133v1h-133z M392,38h134v1h-134z M615,38h305v1h-305z M1046,38h131v1h-131z M1294,38h153v1h-153z M1551,38h171v1h-171z M80,39h134v1h-134z M392,39h134v1h-134z M613,39h309v1h-309z M1045,39h132v1h-132z M1293,39h153v1h-153z M1550,39h173v1h-173z M80,40h134v1h-134z M392,40h134v1h-134z M612,40h311v1h-311z M1045,40h132v1h-132z M1293,40h153v1h-153z M1550,40h173v1h-173z M80,41h133v1h-133z M392,41h133v1h-133z M610,41h315v1h-315z M1045,41h131v1h-131z M1292,41h153v1h-153z M1549,41h174v1h-174z M80,42h133v1h-133z M391,42h134v1h-134z M608,42h318v1h-318z M1045,42h131v1h-131z M1291,42h153v1h-153z M1549,42h174v1h-174z M80,43h133v1h-133z M391,43h134v1h-134z M607,43h321v1h-321z M1045,43h131v1h-131z M1290,43h153v1h-153z M1548,43h175v1h-175z M79,44h134v1h-134z M391,44h134v1h-134z M605,44h324v1h-324z M1045,44h131v1h-131z M1289,44h153v1h-153z M1547,44h177v1h-177z M79,45h134v1h-134z M391,45h134v1h-134z M603,45h327v1h-327z M1044,45h132v1h-132z M1288,45h154v1h-154z M1547,45h177v1h-177z M79,46h133v1h-133z M391,46h134v1h-134z M602,46h330v1h-330z M1044,46h132v1h-132z M1288,46h153v1h-153z M1546,46h178v1h-178z M79,47h133v1h-133z M391,47h133v1h-133z M600,47h333v1h-333z M1044,47h131v1h-131z M1287,47h153v1h-153z M1546,47h178v1h-178z M79,48h133v1h-133z M390,48h134v1h-134z M599,48h335v1h-335z M1044,48h131v1h-131z M1286,48h153v1h-153z M1545,48h179v1h-179z M79,49h133v1h-133z M390,49h134v1h-134z M597,49h339v1h-339z M1044,49h131v1h-131z M1285,49h153v1h-153z M1545,49h179v1h-179z M78,50h134v1h-134z M390,50h134v1h-134z M596,50h341v1h-341z M1043,50h132v1h-132z M1284,50h154v1h-154z M1544,50h181v1h-181z M78,51h134v1h-134z M390,51h134v1h-134z M594,51h344v1h-344z M1043,51h132v1h-132z M1284,51h153v1h-153z M1543,51h182v1h-182z M78,52h133v1h-133z M390,52h134v1h-134z M593,52h347v1h-347z M1043,52h131v1h-131z M1283,52h153v1h-153z M1543,52h182v1h-182z M78,53h133v1h-133z M389,53h134v1h-134z M591,53h350v1h-350z M1043,53h131v1h-131z M1282,53h153v1h-153z M1542,53h183v1h-183z M78,54h133v1h-133z M389,54h134v1h-134z M590,54h352v1h-352z M1043,54h131v1h-131z M1281,54h153v1h-153z M1542,54h183v1h-183z M77,55h134v1h-134z M389,55h134v1h-134z M588,55h355v1h-355z M1043,55h131v1h-131z M1280,55h154v1h-154z M1541,55h185v1h-185z M77,56h134v1h-134z M389,56h134v1h-134z M587,56h357v1h-357z M1042,56h132v1h-132z M1280,56h153v1h-153z M1541,56h185v1h-185z M77,57h133v1h-133z M389,57h134v1h-134z M586,57h360v1h-360z M1042,57h132v1h-132z M1279,57h153v1h-153z M1540,57h186v1h-186z M77,58h133v1h-133z M389,58h134v1h-134z M584,58h363v1h-363z M1042,58h131v1h-131z M1278,58h153v1h-153z M1539,58h187v1h-187z M77,59h133v1h-133z M388,59h134v1h-134z M583,59h365v1h-365z M1042,59h131v1h-131z M1277,59h153v1h-153z M1539,59h187v1h-187z M77,60h133v1h-133z M388,60h134v1h-134z M582,60h367v1h-367z M1042,60h131v1h-131z M1276,60h153v1h-153z M1538,60h188v1h-188z M76,61h134v1h-134z M388,61h134v1h-134z M581,61h369v1h-369z M1041,61h132v1h-132z M1275,61h154v1h-154z M1538,61h189v1h-189z M76,62h134v1h-134z M388,62h65v1h-65z M463,62h59v1h-59z M579,62h372v1h-372z M1041,62h132v1h-132z M1275,62h153v1h-153z M1537,62h190v1h-190z M76,63h133v1h-133z M388,63h62v1h-62z M466,63h56v1h-56z M578,63h374v1h-374z M1041,63h131v1h-131z M1274,63h153v1h-153z M1537,63h190v1h-190z M76,64h133v1h-133z M388,64h59v1h-59z M467,64h54v1h-54z M577,64h376v1h-376z M1041,64h131v1h-131z M1273,64h153v1h-153z M1536,64h191v1h-191z M76,65h133v1h-133z M387,65h59v1h-59z M469,65h52v1h-52z M576,65h378v1h-378z M1041,65h131v1h-131z M1272,65h153v1h-153z M1535,65h192v1h-192z M75,66h134v1h-134z M387,66h57v1h-57z M470,66h51v1h-51z M574,66h381v1h-381z M1041,66h131v1h-131z M1271,66h154v1h-154z M1535,66h193v1h-193z M75,67h134v1h-134z M387,67h56v1h-56z M471,67h50v1h-50z M573,67h383v1h-383z M1040,67h132v1h-132z M1271,67h153v1h-153z M1534,67h194v1h-194z M75,68h133v1h-133z M387,68h55v1h-55z M472,68h49v1h-49z M572,68h385v1h-385z M1040,68h132v1h-132z M1270,68h153v1h-153z M1534,68h194v1h-194z M75,69h133v1h-133z M387,69h54v1h-54z M473,69h48v1h-48z M571,69h387v1h-387z M1040,69h131v1h-131z M1269,69h153v1h-153z M1533,69h195v1h-195z M75,70h133v1h-133z M386,70h54v1h-54z M474,70h46v1h-46z M570,70h389v1h-389z M1040,70h131v1h-131z M1268,70h153v1h-153z M1533,70h195v1h-195z M75,71h133v1h-133z M386,71h53v1h-53z M475,71h45v1h-45z M568,71h392v1h-392z M1040,71h131v1h-131z M1267,71h154v1h-154z M1532,71h196v1h-196z M74,72h134v1h-134z M386,72h52v1h-52z M476,72h44v1h-44z M567,72h394v1h-394z M1039,72h132v1h-132z M1267,72h153v1h-153z M1531,72h198v1h-198z M74,73h133v1h-133z M386,73h52v1h-52z M477,73h43v1h-43z M566,73h396v1h-396z M1039,73h132v1h-132z M1266,73h153v1h-153z M1531,73h198v1h-198z M74,74h133v1h-133z M386,74h51v1h-51z M477,74h43v1h-43z M565,74h398v1h-398z M1039,74h131v1h-131z M1265,74h153v1h-153z M1530,74h199v1h-199z M74,75h133v1h-133z M386,75h51v1h-51z M478,75h42v1h-42z M564,75h400v1h-400z M1039,75h131v1h-131z M1264,75h153v1h-153z M1530,75h199v1h-199z M74,76h133v1h-133z M385,76h51v1h-51z M479,76h40v1h-40z M563,76h402v1h-402z M1039,76h131v1h-131z M1263,76h154v1h-154z M1529,76h200v1h-200z M73,77h134v1h-134z M385,77h51v1h-51z M480,77h39v1h-39z M562,77h403v1h-403z M1039,77h131v1h-131z M1262,77h154v1h-154z M1529,77h201v1h-201z M73,78h134v1h-134z M385,78h51v1h-51z M481,78h38v1h-38z M561,78h405v1h-405z M1038,78h132v1h-132z M1262,78h153v1h-153z M1528,78h202v1h-202z M73,79h133v1h-133z M385,79h50v1h-50z M482,79h37v1h-37z M560,79h407v1h-407z M1038,79h132v1h-132z M1261,79h153v1h-153z M1527,79h203v1h-203z M73,80h133v1h-133z M385,80h50v1h-50z M482,80h37v1h-37z M559,80h409v1h-409z M1038,80h131v1h-131z M1260,80h153v1h-153z M1527,80h203v1h-203z M73,81h133v1h-133z M384,81h51v1h-51z M483,81h35v1h-35z M558,81h411v1h-411z M1038,81h131v1h-131z M1259,81h153v1h-153z M1526,81h204v1h-204z M73,82h133v1h-133z M384,82h51v1h-51z M484,82h34v1h-34z M557,82h413v1h-413z M1038,82h131v1h-131z M1258,82h154v1h-154z M1526,82h204v1h-204z M72,83h134v1h-134z M384,83h51v1h-51z M485,83h33v1h-33z M556,83h414v1h-414z M1037,83h132v1h-132z M1258,83h153v1h-153z M1525,83h206v1h-206z M72,84h133v1h-133z M384,84h51v1h-51z M486,84h32v1h-32z M555,84h416v1h-416z M1037,84h132v1h-132z M1257,84h153v1h-153z M1525,84h206v1h-206z M72,85h133v1h-133z M384,85h51v1h-51z M487,85h31v1h-31z M554,85h418v1h-418z M1037,85h132v1h-132z M1256,85h153v1h-153z M1524,85h207v1h-207z M72,86h133v1h-133z M384,86h51v1h-51z M488,86h30v1h-30z M553,86h420v1h-420z M1037,86h131v1h-131z M1255,86h153v1h-153z M1523,86h208v1h-208z M72,87h133v1h-133z M383,87h52v1h-52z M488,87h29v1h-29z M552,87h421v1h-421z M1037,87h131v1h-131z M1254,87h154v1h-154z M1523,87h208v1h-208z M71,88h134v1h-134z M383,88h53v1h-53z M489,88h28v1h-28z M551,88h423v1h-423z M1037,88h131v1h-131z M1253,88h154v1h-154z M1522,88h209v1h-209z M71,89h134v1h-134z M383,89h53v1h-53z M490,89h27v1h-27z M550,89h425v1h-425z M1036,89h132v1h-132z M1253,89h153v1h-153z M1522,89h210v1h-210z M71,90h133v1h-133z M383,90h53v1h-53z M491,90h26v1h-26z M549,90h427v1h-427z M1036,90h132v1h-132z M1252,90h153v1h-153z M1521,90h211v1h-211z M71,91h133v1h-133z M383,91h54v1h-54z M492,91h25v1h-25z M548,91h428v1h-428z M1036,91h131v1h-131z M1251,91h153v1h-153z M1521,91h211v1h-211z M71,92h133v1h-133z M383,92h54v1h-54z M493,92h24v1h-24z M547,92h430v1h-430z M1036,92h131v1h-131z M1250,92h154v1h-154z M1520,92h212v1h-212z M71,93h133v1h-133z M382,93h56v1h-56z M494,93h22v1h-22z M546,93h432v1h-432z M1036,93h131v1h-131z M1249,93h154v1h-154z M1519,93h213v1h-213z M70,94h134v1h-134z M382,94h57v1h-57z M495,94h21v1h-21z M545,94h433v1h-433z M1036,94h131v1h-131z M1249,94h153v1h-153z M1519,94h214v1h-214z M70,95h134v1h-134z M382,95h57v1h-57z M496,95h20v1h-20z M544,95h435v1h-435z M1035,95h132v1h-132z M1248,95h153v1h-153z M1518,95h215v1h-215z M70,96h133v1h-133z M382,96h58v1h-58z M497,96h19v1h-19z M544,96h436v1h-436z M1035,96h132v1h-132z M1247,96h153v1h-153z M1518,96h215v1h-215z M70,97h133v1h-133z M382,97h58v1h-58z M498,97h18v1h-18z M543,97h438v1h-438z M1035,97h131v1h-131z M1246,97h153v1h-153z M1517,97h216v1h-216z M70,98h133v1h-133z M381,98h60v1h-60z M499,98h16v1h-16z M542,98h439v1h-439z M1035,98h131v1h-131z M1245,98h154v1h-154z M1517,98h216v1h-216z M69,99h134v1h-134z M381,99h61v1h-61z M500,99h15v1h-15z M541,99h441v1h-441z M1035,99h131v1h-131z M1245,99h153v1h-153z M1516,99h217v1h-217z M69,100h134v1h-134z M381,100h61v1h-61z M501,100h14v1h-14z M540,100h442v1h-442z M1034,100h132v1h-132z M1244,100h153v1h-153z M1515,100h219v1h-219z M69,101h133v1h-133z M381,101h62v1h-62z M502,101h13v1h-13z M539,101h444v1h-444z M1034,101h132v1h-132z M1243,101h153v1h-153z M1515,101h219v1h-219z M69,102h133v1h-133z M381,102h63v1h-63z M503,102h12v1h-12z M538,102h446v1h-446z M1034,102h131v1h-131z M1242,102h153v1h-153z M1514,102h220v1h-220z M69,103h133v1h-133z M381,103h63v1h-63z M504,103h11v1h-11z M538,103h446v1h-446z M1034,103h131v1h-131z M1241,103h154v1h-154z M1514,103h220v1h-220z M69,104h133v1h-133z M380,104h65v1h-65z M506,104h8v1h-8z M537,104h448v1h-448z M1034,104h131v1h-131z M1240,104h154v1h-154z M1513,104h221v1h-221z M68,105h134v1h-134z M380,105h66v1h-66z M507,105h7v1h-7z M536,105h450v1h-450z M1034,105h131v1h-131z M1240,105h153v1h-153z M1512,105h223v1h-223z M68,106h134v1h-134z M380,106h66v1h-66z M508,106h6v1h-6z M535,106h451v1h-451z M1033,106h132v1h-132z M1239,106h153v1h-153z M1512,106h223v1h-223z M68,107h133v1h-133z M380,107h67v1h-67z M509,107h5v1h-5z M534,107h453v1h-453z M1033,107h132v1h-132z M1238,107h153v1h-153z M1511,107h224v1h-224z M68,108h133v1h-133z M380,108h68v1h-68z M510,108h4v1h-4z M534,108h453v1h-453z M1033,108h131v1h-131z M1237,108h154v1h-154z M1511,108h224v1h-224z M68,109h133v1h-133z M379,109h70v1h-70z M511,109h2v1h-2z M533,109h455v1h-455z M1033,109h131v1h-131z M1236,109h154v1h-154z M1510,109h225v1h-225z M67,110h134v1h-134z M379,110h70v1h-70z M532,110h456v1h-456z M1033,110h131v1h-131z M1236,110h153v1h-153z M1510,110h225v1h-225z M67,111h134v1h-134z M379,111h71v1h-71z M531,111h458v1h-458z M1032,111h132v1h-132z M1235,111h153v1h-153z M1509,111h227v1h-227z M67,112h133v1h-133z M379,112h72v1h-72z M530,112h460v1h-460z M1032,112h132v1h-132z M1234,112h153v1h-153z M1509,112h227v1h-227z M67,113h133v1h-133z M379,113h73v1h-73z M529,113h461v1h-461z M1032,113h131v1h-131z M1233,113h153v1h-153z M1508,113h228v1h-228z M67,114h133v1h-133z M379,114h74v1h-74z M529,114h462v1h-462z M1032,114h131v1h-131z M1232,114h154v1h-154z M1507,114h229v1h-229z M67,115h133v1h-133z M378,115h75v1h-75z M528,115h463v1h-463z M1032,115h131v1h-131z M1231,115h154v1h-154z M1507,115h229v1h-229z M66,116h134v1h-134z M378,116h76v1h-76z M527,116h465v1h-465z M1032,116h131v1h-131z M1231,116h153v1h-153z M1506,116h231v1h-231z M66,117h134v1h-134z M378,117h77v1h-77z M526,117h466v1h-466z M1031,117h132v1h-132z M1230,117h153v1h-153z M1506,117h231v1h-231z M66,118h133v1h-133z M378,118h78v1h-78z M526,118h467v1h-467z M1031,118h132v1h-132z M1229,118h153v1h-153z M1505,118h232v1h-232z M66,119h133v1h-133z M378,119h79v1h-79z M527,119h466v1h-466z M1031,119h131v1h-131z M1228,119h154v1h-154z M1505,119h232v1h-232z M66,120h133v1h-133z M377,120h81v1h-81z M528,120h466v1h-466z M1031,120h131v1h-131z M1227,120h154v1h-154z M1504,120h233v1h-233z M65,121h134v1h-134z M377,121h82v1h-82z M530,121h464v1h-464z M1031,121h131v1h-131z M1227,121h153v1h-153z M1503,121h234v1h-234z M65,122h134v1h-134z M377,122h82v1h-82z M531,122h218v1h-218z M768,122h227v1h-227z M1030,122h132v1h-132z M1226,122h153v1h-153z M1503,122h235v1h-235z M65,123h133v1h-133z M377,123h83v1h-83z M533,123h206v1h-206z M778,123h217v1h-217z M1030,123h132v1h-132z M1225,123h153v1h-153z M1502,123h236v1h-236z M65,124h133v1h-133z M377,124h84v1h-84z M535,124h198v1h-198z M785,124h211v1h-211z M1030,124h131v1h-131z M1224,124h154v1h-154z M1502,124h236v1h-236z M65,125h133v1h-133z M377,125h85v1h-85z M536,125h192v1h-192z M790,125h206v1h-206z M1030,125h131v1h-131z M1223,125h154v1h-154z M1501,125h237v1h-237z M65,126h133v1h-133z M376,126h87v1h-87z M538,126h185v1h-185z M795,126h202v1h-202z M1030,126h131v1h-131z M1223,126h153v1h-153z M1501,126h237v1h-237z M64,127h134v1h-134z M376,127h88v1h-88z M540,127h179v1h-179z M799,127h198v1h-198z M1030,127h131v1h-131z M1222,127h153v1h-153z M1500,127h239v1h-239z M64,128h134v1h-134z M376,128h89v1h-89z M541,128h175v1h-175z M803,128h195v1h-195z M1029,128h132v1h-132z M1221,128h153v1h-153z M1499,128h240v1h-240z M64,129h133v1h-133z M376,129h90v1h-90z M543,129h170v1h-170z M806,129h192v1h-192z M1029,129h132v1h-132z M1220,129h153v1h-153z M1499,129h240v1h-240z M64,130h133v1h-133z M376,130h91v1h-91z M545,130h165v1h-165z M809,130h189v1h-189z M1029,130h131v1h-131z M1219,130h154v1h-154z M1498,130h241v1h-241z M64,131h133v1h-133z M376,131h92v1h-92z M547,131h160v1h-160z M812,131h187v1h-187z M1029,131h131v1h-131z M1218,131h154v1h-154z M1498,131h241v1h-241z M63,132h134v1h-134z M375,132h94v1h-94z M548,132h156v1h-156z M814,132h185v1h-185z M1029,132h131v1h-131z M1218,132h153v1h-153z M1497,132h242v1h-242z M63,133h134v1h-134z M375,133h95v1h-95z M550,133h152v1h-152z M817,133h183v1h-183z M1028,133h132v1h-132z M1217,133h153v1h-153z M1497,133h243v1h-243z M63,134h133v1h-133z M375,134h96v1h-96z M552,134h147v1h-147z M819,134h181v1h-181z M1028,134h132v1h-132z M1216,134h153v1h-153z M1496,134h244v1h-244z M63,135h133v1h-133z M375,135h98v1h-98z M554,135h143v1h-143z M821,135h179v1h-179z M1028,135h131v1h-131z M1215,135h154v1h-154z M1495,135h245v1h-245z M63,136h133v1h-133z M375,136h99v1h-99z M556,136h139v1h-139z M823,136h178v1h-178z M1028,136h131v1h-131z M1214,136h154v1h-154z M1495,136h245v1h-245z M63,137h133v1h-133z M374,137h101v1h-101z M558,137h135v1h-135z M825,137h176v1h-176z M1028,137h131v1h-131z M1214,137h153v1h-153z M1494,137h246v1h-246z M62,138h134v1h-134z M374,138h102v1h-102z M560,138h131v1h-131z M827,138h175v1h-175z M1028,138h131v1h-131z M1213,138h153v1h-153z M1494,138h247v1h-247z M62,139h134v1h-134z M374,139h103v1h-103z M562,139h127v1h-127z M829,139h173v1h-173z M1027,139h132v1h-132z M1212,139h153v1h-153z M1493,139h248v1h-248z M62,140h133v1h-133z M374,140h104v1h-104z M564,140h123v1h-123z M831,140h171v1h-171z M1027,140h132v1h-132z M1211,140h154v1h-154z M1492,140h249v1h-249z M62,141h133v1h-133z M374,141h105v1h-105z M566,141h119v1h-119z M832,141h171v1h-171z M1027,141h131v1h-131z M1210,141h154v1h-154z M1492,141h249v1h-249z M62,142h133v1h-133z M374,142h107v1h-107z M568,142h115v1h-115z M834,142h169v1h-169z M1027,142h131v1h-131z M1209,142h154v1h-154z M1491,142h250v1h-250z M61,143h134v1h-134z M373,143h109v1h-109z M570,143h111v1h-111z M836,143h167v1h-167z M1027,143h131v1h-131z M1209,143h153v1h-153z M1491,143h250v1h-250z M61,144h134v1h-134z M373,144h110v1h-110z M572,144h108v1h-108z M837,144h167v1h-167z M1027,144h131v1h-131z M1208,144h153v1h-153z M1490,144h252v1h-252z M61,145h133v1h-133z M373,145h111v1h-111z M574,145h104v1h-104z M838,145h166v1h-166z M1026,145h132v1h-132z M1207,145h154v1h-154z M1490,145h252v1h-252z M61,146h133v1h-133z M373,146h113v1h-113z M576,146h100v1h-100z M840,146h164v1h-164z M1026,146h131v1h-131z M1206,146h154v1h-154z M1489,146h253v1h-253z M61,147h133v1h-133z M373,147h114v1h-114z M579,147h96v1h-96z M841,147h164v1h-164z M1026,147h131v1h-131z M1205,147h154v1h-154z M1489,147h253v1h-253z M60,148h134v1h-134z M372,148h116v1h-116z M581,148h92v1h-92z M842,148h163v1h-163z M1026,148h131v1h-131z M1205,148h153v1h-153z M1488,148h254v1h-254z M60,149h134v1h-134z M372,149h118v1h-118z M583,149h89v1h-89z M844,149h161v1h-161z M1026,149h131v1h-131z M1204,149h153v1h-153z M1487,149h256v1h-256z M60,150h134v1h-134z M372,150h119v1h-119z M586,150h84v1h-84z M845,150h161v1h-161z M1025,150h132v1h-132z M1203,150h153v1h-153z M1487,150h256v1h-256z M60,151h133v1h-133z M372,151h120v1h-120z M588,151h81v1h-81z M846,151h160v1h-160z M1025,151h132v1h-132z M1202,151h154v1h-154z M1486,151h257v1h-257z M60,152h133v1h-133z M372,152h122v1h-122z M590,152h78v1h-78z M847,152h159v1h-159z M1025,152h131v1h-131z M1201,152h154v1h-154z M1486,152h257v1h-257z M60,153h133v1h-133z M372,153h123v1h-123z M593,153h73v1h-73z M848,153h159v1h-159z M1025,153h131v1h-131z M1200,153h154v1h-154z M1485,153h258v1h-258z M59,154h134v1h-134z M371,154h126v1h-126z M595,154h70v1h-70z M849,154h158v1h-158z M1025,154h131v1h-131z M1200,154h153v1h-153z M1485,154h258v1h-258z M59,155h134v1h-134z M371,155h127v1h-127z M598,155h66v1h-66z M850,155h157v1h-157z M1025,155h131v1h-131z M1199,155h153v1h-153z M1484,155h260v1h-260z M59,156h133v1h-133z M371,156h129v1h-129z M600,156h62v1h-62z M851,156h157v1h-157z M1024,156h132v1h-132z M1198,156h154v1h-154z M1483,156h261v1h-261z M59,157h133v1h-133z M371,157h130v1h-130z M602,157h59v1h-59z M852,157h156v1h-156z M1024,157h131v1h-131z M1197,157h154v1h-154z M1483,157h261v1h-261z M59,158h133v1h-133z M371,158h132v1h-132z M605,158h55v1h-55z M853,158h155v1h-155z M1024,158h131v1h-131z M1196,158h154v1h-154z M1482,158h262v1h-262z M59,159h133v1h-133z M371,159h133v1h-133z M607,159h52v1h-52z M854,159h154v1h-154z M1024,159h131v1h-131z M1196,159h153v1h-153z M1482,159h131v1h-131z M1614,159h130v1h-130z M58,160h134v1h-134z M370,160h136v1h-136z M610,160h48v1h-48z M855,160h154v1h-154z M1024,160h131v1h-131z M1195,160h153v1h-153z M1481,160h132v1h-132z M1614,160h131v1h-131z M58,161h134v1h-134z M370,161h137v1h-137z M612,161h45v1h-45z M856,161h153v1h-153z M1023,161h132v1h-132z M1194,161h154v1h-154z M1481,161h131v1h-131z M1615,161h130v1h-130z M58,162h133v1h-133z M370,162h139v1h-139z M614,162h42v1h-42z M857,162h152v1h-152z M1023,162h132v1h-132z M1193,162h154v1h-154z M1480,162h132v1h-132z M1615,162h130v1h-130z M58,163h133v1h-133z M370,163h140v1h-140z M617,163h38v1h-38z M858,163h151v1h-151z M1023,163h131v1h-131z M1192,163h154v1h-154z M1479,163h132v1h-132z M1615,163h130v1h-130z M58,164h133v1h-133z M370,164h142v1h-142z M619,164h35v1h-35z M858,164h152v1h-152z M1023,164h131v1h-131z M1191,164h154v1h-154z M1479,164h132v1h-132z M1615,164h130v1h-130z M57,165h134v1h-134z M369,165h144v1h-144z M622,165h31v1h-31z M859,165h151v1h-151z M1023,165h131v1h-131z M1191,165h153v1h-153z M1478,165h132v1h-132z M1615,165h130v1h-130z M57,166h134v1h-134z M369,166h146v1h-146z M624,166h28v1h-28z M860,166h150v1h-150z M1023,166h131v1h-131z M1190,166h153v1h-153z M1478,166h132v1h-132z M1615,166h131v1h-131z M57,167h133v1h-133z M369,167h148v1h-148z M626,167h25v1h-25z M861,167h149v1h-149z M1022,167h132v1h-132z M1189,167h154v1h-154z M1477,167h132v1h-132z M1615,167h131v1h-131z M57,168h133v1h-133z M369,168h149v1h-149z M629,168h21v1h-21z M861,168h150v1h-150z M1022,168h131v1h-131z M1188,168h154v1h-154z M1476,168h133v1h-133z M1616,168h130v1h-130z M57,169h133v1h-133z M369,169h151v1h-151z M631,169h18v1h-18z M862,169h149v1h-149z M1022,169h131v1h-131z M1187,169h154v1h-154z M1476,169h132v1h-132z M1616,169h130v1h-130z M57,170h133v1h-133z M369,170h152v1h-152z M634,170h14v1h-14z M863,170h148v1h-148z M1022,170h131v1h-131z M1187,170h153v1h-153z M1475,170h133v1h-133z M1616,170h130v1h-130z M56,171h134v1h-134z M368,171h155v1h-155z M636,171h11v1h-11z M863,171h148v1h-148z M1022,171h131v1h-131z M1186,171h153v1h-153z M1475,171h132v1h-132z M1616,171h131v1h-131z M56,172h134v1h-134z M368,172h157v1h-157z M638,172h8v1h-8z M864,172h147v1h-147z M1021,172h132v1h-132z M1185,172h154v1h-154z M1474,172h133v1h-133z M1616,172h131v1h-131z M56,173h133v1h-133z M368,173h158v1h-158z M641,173h4v1h-4z M865,173h147v1h-147z M1021,173h132v1h-132z M1184,173h154v1h-154z M1474,173h132v1h-132z M1616,173h131v1h-131z M56,174h133v1h-133z M368,174h160v1h-160z M865,174h147v1h-147z M1021,174h131v1h-131z M1183,174h154v1h-154z M1473,174h133v1h-133z M1616,174h131v1h-131z M56,175h133v1h-133z M368,175h161v1h-161z M866,175h146v1h-146z M1021,175h131v1h-131z M1183,175h153v1h-153z M1472,175h133v1h-133z M1616,175h131v1h-131z M55,176h134v1h-134z M368,176h163v1h-163z M867,176h145v1h-145z M1021,176h131v1h-131z M1182,176h153v1h-153z M1472,176h133v1h-133z M1617,176h130v1h-130z M55,177h134v1h-134z M367,177h165v1h-165z M867,177h145v1h-145z M1021,177h131v1h-131z M1181,177h154v1h-154z M1471,177h133v1h-133z M1617,177h131v1h-131z M55,178h133v1h-133z M367,178h167v1h-167z M868,178h145v1h-145z M1020,178h132v1h-132z M1180,178h154v1h-154z M1471,178h133v1h-133z M1617,178h131v1h-131z M55,179h133v1h-133z M367,179h169v1h-169z M868,179h145v1h-145z M1020,179h131v1h-131z M1179,179h154v1h-154z M1470,179h133v1h-133z M1617,179h131v1h-131z M55,180h133v1h-133z M367,180h170v1h-170z M869,180h144v1h-144z M1020,180h131v1h-131z M1178,180h154v1h-154z M1470,180h133v1h-133z M1617,180h131v1h-131z M55,181h133v1h-133z M367,181h172v1h-172z M869,181h144v1h-144z M1020,181h131v1h-131z M1178,181h153v1h-153z M1469,181h133v1h-133z M1617,181h131v1h-131z M54,182h134v1h-134z M366,182h174v1h-174z M870,182h143v1h-143z M1020,182h131v1h-131z M1177,182h153v1h-153z M1468,182h134v1h-134z M1617,182h132v1h-132z M54,183h134v1h-134z M366,183h176v1h-176z M870,183h143v1h-143z M1020,183h131v1h-131z M1176,183h154v1h-154z M1468,183h133v1h-133z M1618,183h131v1h-131z M54,184h133v1h-133z M366,184h177v1h-177z M871,184h143v1h-143z M1019,184h132v1h-132z M1175,184h154v1h-154z M1467,184h134v1h-134z M1618,184h131v1h-131z M54,185h133v1h-133z M366,185h179v1h-179z M871,185h143v1h-143z M1019,185h131v1h-131z M1174,185h154v1h-154z M1467,185h133v1h-133z M1618,185h131v1h-131z M54,186h133v1h-133z M366,186h181v1h-181z M872,186h142v1h-142z M1019,186h131v1h-131z M1174,186h153v1h-153z M1466,186h134v1h-134z M1618,186h131v1h-131z M53,187h134v1h-134z M365,187h183v1h-183z M872,187h142v1h-142z M1019,187h131v1h-131z M1173,187h153v1h-153z M1466,187h133v1h-133z M1618,187h131v1h-131z M53,188h134v1h-134z M364,188h186v1h-186z M873,188h141v1h-141z M1019,188h131v1h-131z M1172,188h154v1h-154z M1465,188h134v1h-134z M1618,188h132v1h-132z M53,189h498v1h-498z M873,189h141v1h-141z M1018,189h132v1h-132z M1171,189h154v1h-154z M1464,189h134v1h-134z M1618,189h132v1h-132z M53,190h500v1h-500z M874,190h141v1h-141z M1018,190h131v1h-131z M1170,190h154v1h-154z M1464,190h134v1h-134z M1619,190h131v1h-131z M53,191h501v1h-501z M874,191h141v1h-141z M1018,191h131v1h-131z M1169,191h154v1h-154z M1463,191h134v1h-134z M1619,191h131v1h-131z M53,192h503v1h-503z M875,192h140v1h-140z M1018,192h131v1h-131z M1169,192h153v1h-153z M1463,192h134v1h-134z M1619,192h131v1h-131z M52,193h505v1h-505z M875,193h140v1h-140z M1018,193h131v1h-131z M1168,193h154v1h-154z M1462,193h134v1h-134z M1619,193h132v1h-132z M52,194h507v1h-507z M875,194h140v1h-140z M1018,194h63v1h-63z M1084,194h65v1h-65z M1167,194h154v1h-154z M1462,194h134v1h-134z M1619,194h132v1h-132z M52,195h509v1h-509z M876,195h139v1h-139z M1017,195h59v1h-59z M1089,195h59v1h-59z M1166,195h154v1h-154z M1461,195h134v1h-134z M1619,195h132v1h-132z M52,196h510v1h-510z M876,196h139v1h-139z M1017,196h56v1h-56z M1091,196h57v1h-57z M1165,196h154v1h-154z M1460,196h135v1h-135z M1619,196h132v1h-132z M52,197h512v1h-512z M876,197h139v1h-139z M1017,197h54v1h-54z M1093,197h55v1h-55z M1165,197h153v1h-153z M1460,197h134v1h-134z M1619,197h132v1h-132z M51,198h514v1h-514z M877,198h139v1h-139z M1017,198h52v1h-52z M1094,198h54v1h-54z M1164,198h153v1h-153z M1459,198h135v1h-135z M1620,198h131v1h-131z M51,199h516v1h-516z M877,199h139v1h-139z M1017,199h50v1h-50z M1095,199h53v1h-53z M1163,199h154v1h-154z M1459,199h134v1h-134z M1620,199h132v1h-132z M51,200h517v1h-517z M878,200h187v1h-187z M1097,200h51v1h-51z M1162,200h154v1h-154z M1458,200h135v1h-135z M1620,200h132v1h-132z M51,201h519v1h-519z M878,201h185v1h-185z M1097,201h50v1h-50z M1161,201h154v1h-154z M1458,201h134v1h-134z M1620,201h132v1h-132z M51,202h521v1h-521z M878,202h183v1h-183z M1098,202h49v1h-49z M1160,202h154v1h-154z M1457,202h135v1h-135z M1620,202h132v1h-132z M51,203h522v1h-522z M879,203h180v1h-180z M1099,203h48v1h-48z M1160,203h153v1h-153z M1456,203h135v1h-135z M1620,203h132v1h-132z M50,204h525v1h-525z M879,204h178v1h-178z M1100,204h47v1h-47z M1159,204h154v1h-154z M1456,204h135v1h-135z M1620,204h133v1h-133z M50,205h526v1h-526z M879,205h176v1h-176z M1100,205h47v1h-47z M1158,205h154v1h-154z M1455,205h135v1h-135z M1621,205h132v1h-132z M50,206h528v1h-528z M879,206h174v1h-174z M1101,206h45v1h-45z M1157,206h154v1h-154z M1455,206h135v1h-135z M1621,206h132v1h-132z M50,207h529v1h-529z M880,207h171v1h-171z M1101,207h45v1h-45z M1156,207h154v1h-154z M1454,207h135v1h-135z M1621,207h132v1h-132z M50,208h531v1h-531z M880,208h169v1h-169z M1102,208h44v1h-44z M1156,208h153v1h-153z M1454,208h135v1h-135z M1621,208h132v1h-132z M49,209h534v1h-534z M880,209h166v1h-166z M1102,209h44v1h-44z M1155,209h154v1h-154z M1453,209h135v1h-135z M1621,209h132v1h-132z M49,210h535v1h-535z M881,210h163v1h-163z M1103,210h43v1h-43z M1154,210h154v1h-154z M1452,210h136v1h-136z M1621,210h133v1h-133z M49,211h537v1h-537z M881,211h160v1h-160z M1103,211h43v1h-43z M1153,211h154v1h-154z M1452,211h135v1h-135z M1621,211h133v1h-133z M49,212h538v1h-538z M881,212h158v1h-158z M1103,212h42v1h-42z M1152,212h154v1h-154z M1451,212h136v1h-136z M1622,212h132v1h-132z M49,213h540v1h-540z M881,213h155v1h-155z M1104,213h41v1h-41z M1151,213h154v1h-154z M1451,213h135v1h-135z M1622,213h132v1h-132z M49,214h541v1h-541z M881,214h152v1h-152z M1104,214h41v1h-41z M1151,214h153v1h-153z M1450,214h136v1h-136z M1622,214h132v1h-132z M48,215h544v1h-544z M882,215h147v1h-147z M1104,215h41v1h-41z M1150,215h154v1h-154z M1450,215h135v1h-135z M1622,215h133v1h-133z M48,216h545v1h-545z M882,216h143v1h-143z M1104,216h41v1h-41z M1149,216h154v1h-154z M1449,216h136v1h-136z M1622,216h133v1h-133z M48,217h547v1h-547z M882,217h139v1h-139z M1104,217h40v1h-40z M1148,217h154v1h-154z M1448,217h136v1h-136z M1622,217h133v1h-133z M48,218h549v1h-549z M882,218h134v1h-134z M1104,218h40v1h-40z M1147,218h154v1h-154z M1448,218h136v1h-136z M1622,218h133v1h-133z M48,219h550v1h-550z M883,219h128v1h-128z M1104,219h40v1h-40z M1147,219h153v1h-153z M1447,219h136v1h-136z M1622,219h133v1h-133z M47,220h553v1h-553z M883,220h122v1h-122z M1104,220h40v1h-40z M1146,220h154v1h-154z M1447,220h136v1h-136z M1623,220h132v1h-132z M47,221h554v1h-554z M883,221h115v1h-115z M1103,221h41v1h-41z M1145,221h154v1h-154z M1446,221h136v1h-136z M1623,221h133v1h-133z M47,222h556v1h-556z M883,222h107v1h-107z M1103,222h195v1h-195z M1446,222h136v1h-136z M1623,222h133v1h-133z M47,223h557v1h-557z M897,223h82v1h-82z M1103,223h194v1h-194z M1445,223h136v1h-136z M1623,223h133v1h-133z M47,224h559v1h-559z M920,224h40v1h-40z M1102,224h194v1h-194z M1444,224h137v1h-137z M1623,224h133v1h-133z M47,225h560v1h-560z M1102,225h194v1h-194z M1444,225h136v1h-136z M1623,225h133v1h-133z M46,226h563v1h-563z M1101,226h194v1h-194z M1443,226h137v1h-137z M1623,226h134v1h-134z M46,227h564v1h-564z M1101,227h193v1h-193z M1443,227h136v1h-136z M1624,227h133v1h-133z M46,228h566v1h-566z M1100,228h193v1h-193z M1442,228h137v1h-137z M1624,228h133v1h-133z M46,229h567v1h-567z M1099,229h193v1h-193z M1442,229h136v1h-136z M1624,229h133v1h-133z M46,230h568v1h-568z M1098,230h193v1h-193z M1441,230h137v1h-137z M1624,230h133v1h-133z M45,231h569v1h-569z M1097,231h194v1h-194z M1440,231h137v1h-137z M1624,231h133v1h-133z M45,232h569v1h-569z M1096,232h194v1h-194z M1440,232h137v1h-137z M1624,232h134v1h-134z M45,233h570v1h-570z M1095,233h194v1h-194z M1439,233h137v1h-137z M1624,233h134v1h-134z M45,234h569v1h-569z M1093,234h195v1h-195z M1439,234h137v1h-137z M1625,234h133v1h-133z M45,235h569v1h-569z M1092,235h195v1h-195z M1438,235h137v1h-137z M1625,235h133v1h-133z M45,236h569v1h-569z M1090,236h197v1h-197z M1438,236h137v1h-137z M1625,236h133v1h-133z M44,237h570v1h-570z M1088,237h198v1h-198z M1437,237h137v1h-137z M1625,237h134v1h-134z M44,238h570v1h-570z M1087,238h198v1h-198z M1436,238h138v1h-138z M1625,238h134v1h-134z M44,239h570v1h-570z M1085,239h199v1h-199z M1436,239h137v1h-137z M1625,239h134v1h-134z M44,240h570v1h-570z M1083,240h200v1h-200z M1435,240h138v1h-138z M1625,240h134v1h-134z M44,241h569v1h-569z M1082,241h200v1h-200z M1435,241h137v1h-137z M1625,241h134v1h-134z M43,242h570v1h-570z M1080,242h201v1h-201z M1434,242h138v1h-138z M1626,242h133v1h-133z M43,243h570v1h-570z M1078,243h203v1h-203z M1434,243h137v1h-137z M1626,243h134v1h-134z M43,244h570v1h-570z M1076,244h204v1h-204z M1433,244h138v1h-138z M1626,244h134v1h-134z M43,245h570v1h-570z M1075,245h204v1h-204z M1432,245h138v1h-138z M1626,245h134v1h-134z M43,246h570v1h-570z M1073,246h205v1h-205z M1432,246h138v1h-138z M1626,246h134v1h-134z M43,247h569v1h-569z M1071,247h206v1h-206z M1431,247h138v1h-138z M1626,247h134v1h-134z M42,248h570v1h-570z M1069,248h208v1h-208z M1431,248h138v1h-138z M1626,248h135v1h-135z M42,249h570v1h-570z M1067,249h209v1h-209z M1430,249h138v1h-138z M1627,249h134v1h-134z M42,250h570v1h-570z M1065,250h210v1h-210z M1430,250h138v1h-138z M1627,250h134v1h-134z M42,251h570v1h-570z M1063,251h211v1h-211z M1429,251h138v1h-138z M1627,251h134v1h-134z M42,252h570v1h-570z M1060,252h213v1h-213z M1428,252h139v1h-139z M1627,252h134v1h-134z M41,253h571v1h-571z M1058,253h215v1h-215z M1428,253h138v1h-138z M1627,253h134v1h-134z M41,254h571v1h-571z M1056,254h216v1h-216z M1427,254h139v1h-139z M1627,254h135v1h-135z M41,255h571v1h-571z M1053,255h218v1h-218z M1427,255h138v1h-138z M1627,255h135v1h-135z M41,256h571v1h-571z M1050,256h220v1h-220z M1426,256h139v1h-139z M1628,256h134v1h-134z M41,257h570v1h-570z M1047,257h223v1h-223z M1426,257h138v1h-138z M1628,257h134v1h-134z M41,258h570v1h-570z M1044,258h225v1h-225z M1425,258h139v1h-139z M1628,258h134v1h-134z M40,259h571v1h-571z M1041,259h227v1h-227z M1424,259h139v1h-139z M1628,259h135v1h-135z M40,260h571v1h-571z M1037,260h230v1h-230z M1424,260h139v1h-139z M1628,260h135v1h-135z M40,261h571v1h-571z M1033,261h234v1h-234z M1423,261h139v1h-139z M1628,261h135v1h-135z M40,262h571v1h-571z M1028,262h240v1h-240z M1423,262h139v1h-139z M1628,262h135v1h-135z M40,263h571v1h-571z M1024,263h244v1h-244z M1422,263h139v1h-139z M1628,263h135v1h-135z M39,264h572v1h-572z M1019,264h250v1h-250z M1422,264h139v1h-139z M1629,264h134v1h-134z M39,265h572v1h-572z M1013,265h257v1h-257z M1421,265h139v1h-139z M1629,265h135v1h-135z M39,266h572v1h-572z M1008,266h262v1h-262z M1420,266h140v1h-140z M1629,266h135v1h-135z M39,267h572v1h-572z M1001,267h270v1h-270z M1420,267h139v1h-139z M1629,267h135v1h-135z M39,268h572v1h-572z M995,268h276v1h-276z M1419,268h140v1h-140z M1629,268h135v1h-135z M39,269h572v1h-572z M988,269h284v1h-284z M1419,269h139v1h-139z M1629,269h135v1h-135z M38,270h573v1h-573z M981,270h292v1h-292z M1418,270h140v1h-140z M1629,270h136v1h-136z M38,271h573v1h-573z M975,271h298v1h-298z M1418,271h139v1h-139z M1630,271h135v1h-135z M38,272h573v1h-573z M968,272h306v1h-306z M1417,272h140v1h-140z M1630,272h135v1h-135z M38,273h573v1h-573z M962,273h313v1h-313z M1416,273h140v1h-140z M1630,273h135v1h-135z M38,274h573v1h-573z M955,274h320v1h-320z M1416,274h140v1h-140z M1630,274h135v1h-135z M37,275h574v1h-574z M949,275h327v1h-327z M1415,275h140v1h-140z M1630,275h135v1h-135z M37,276h574v1h-574z M942,276h335v1h-335z M1415,276h140v1h-140z M1630,276h136v1h-136z M37,277h574v1h-574z M936,277h341v1h-341z M1414,277h140v1h-140z M1630,277h136v1h-136z M37,278h574v1h-574z M929,278h349v1h-349z M1414,278h140v1h-140z M1631,278h135v1h-135z M37,279h574v1h-574z M923,279h355v1h-355z M1413,279h140v1h-140z M1631,279h135v1h-135z M37,280h574v1h-574z M916,280h363v1h-363z M1412,280h141v1h-141z M1631,280h135v1h-135z M36,281h575v1h-575z M910,281h370v1h-370z M1412,281h140v1h-140z M1631,281h136v1h-136z M36,282h576v1h-576z M903,282h377v1h-377z M1411,282h141v1h-141z M1631,282h136v1h-136z M36,283h576v1h-576z M897,283h384v1h-384z M1411,283h140v1h-140z M1631,283h136v1h-136z M36,284h576v1h-576z M890,284h392v1h-392z M1410,284h141v1h-141z M1631,284h136v1h-136z M36,285h576v1h-576z M884,285h248v1h-248z M1133,285h149v1h-149z M1410,285h140v1h-140z M1632,285h135v1h-135z M35,286h577v1h-577z M881,286h251v1h-251z M1134,286h149v1h-149z M1409,286h141v1h-141z M1632,286h135v1h-135z M35,287h577v1h-577z M880,287h252v1h-252z M1135,287h149v1h-149z M1408,287h141v1h-141z M1632,287h136v1h-136z M35,288h577v1h-577z M879,288h253v1h-253z M1135,288h149v1h-149z M1408,288h141v1h-141z M1632,288h136v1h-136z M35,289h577v1h-577z M878,289h254v1h-254z M1136,289h149v1h-149z M1407,289h141v1h-141z M1632,289h136v1h-136z M35,290h577v1h-577z M878,290h253v1h-253z M1136,290h149v1h-149z M1407,290h141v1h-141z M1632,290h136v1h-136z M35,291h578v1h-578z M878,291h253v1h-253z M1137,291h149v1h-149z M1406,291h141v1h-141z M1632,291h136v1h-136z M34,292h579v1h-579z M877,292h254v1h-254z M1137,292h150v1h-150z M1406,292h141v1h-141z M1632,292h137v1h-137z M34,293h579v1h-579z M877,293h254v1h-254z M1138,293h149v1h-149z M1405,293h141v1h-141z M1633,293h136v1h-136z M34,294h579v1h-579z M877,294h254v1h-254z M1138,294h150v1h-150z M1404,294h142v1h-142z M1633,294h136v1h-136z M34,295h579v1h-579z M877,295h253v1h-253z M1139,295h150v1h-150z M1404,295h141v1h-141z M1633,295h136v1h-136z M34,296h580v1h-580z M876,296h254v1h-254z M1139,296h150v1h-150z M1403,296h142v1h-142z M1633,296h136v1h-136z M33,297h581v1h-581z M876,297h254v1h-254z M1140,297h150v1h-150z M1403,297h141v1h-141z M1633,297h136v1h-136z M33,298h581v1h-581z M876,298h254v1h-254z M1140,298h151v1h-151z M1402,298h142v1h-142z M1633,298h137v1h-137z M33,299h135v1h-135z M345,299h269v1h-269z M875,299h255v1h-255z M1141,299h150v1h-150z M1402,299h141v1h-141z M1633,299h137v1h-137z M33,300h134v1h-134z M345,300h269v1h-269z M875,300h254v1h-254z M1141,300h151v1h-151z M1401,300h142v1h-142z M1634,300h136v1h-136z M33,301h133v1h-133z M345,301h270v1h-270z M874,301h255v1h-255z M1142,301h150v1h-150z M1400,301h142v1h-142z M1634,301h136v1h-136z M33,302h133v1h-133z M345,302h270v1h-270z M874,302h255v1h-255z M1142,302h151v1h-151z M1400,302h142v1h-142z M1634,302h136v1h-136z M32,303h134v1h-134z M344,303h271v1h-271z M874,303h255v1h-255z M1143,303h151v1h-151z M1399,303h142v1h-142z M1634,303h137v1h-137z M32,304h134v1h-134z M344,304h271v1h-271z M873,304h256v1h-256z M1143,304h151v1h-151z M1399,304h142v1h-142z M1634,304h137v1h-137z M32,305h133v1h-133z M344,305h272v1h-272z M873,305h256v1h-256z M1144,305h151v1h-151z M1398,305h142v1h-142z M1634,305h137v1h-137z M32,306h133v1h-133z M344,306h272v1h-272z M872,306h256v1h-256z M1144,306h152v1h-152z M1398,306h142v1h-142z M1634,306h137v1h-137z M32,307h133v1h-133z M344,307h272v1h-272z M872,307h256v1h-256z M1145,307h151v1h-151z M1397,307h142v1h-142z M1635,307h136v1h-136z M31,308h134v1h-134z M344,308h273v1h-273z M872,308h256v1h-256z M1145,308h152v1h-152z M1396,308h143v1h-143z M1635,308h136v1h-136z M31,309h134v1h-134z M343,309h274v1h-274z M871,309h257v1h-257z M1146,309h152v1h-152z M1396,309h142v1h-142z M1635,309h137v1h-137z M31,310h133v1h-133z M343,310h134v1h-134z M478,310h139v1h-139z M871,310h257v1h-257z M1146,310h152v1h-152z M1395,310h143v1h-143z M1635,310h137v1h-137z M31,311h133v1h-133z M343,311h134v1h-134z M478,311h140v1h-140z M870,311h257v1h-257z M1147,311h152v1h-152z M1395,311h142v1h-142z M1635,311h137v1h-137z M31,312h133v1h-133z M343,312h134v1h-134z M478,312h140v1h-140z M870,312h257v1h-257z M1148,312h151v1h-151z M1394,312h143v1h-143z M1635,312h137v1h-137z M31,313h133v1h-133z M343,313h133v1h-133z M478,313h140v1h-140z M869,313h258v1h-258z M1148,313h152v1h-152z M1394,313h142v1h-142z M1635,313h137v1h-137z M30,314h134v1h-134z M343,314h133v1h-133z M478,314h141v1h-141z M869,314h258v1h-258z M1149,314h152v1h-152z M1393,314h143v1h-143z M1635,314h137v1h-137z M30,315h134v1h-134z M342,315h134v1h-134z M479,315h140v1h-140z M868,315h259v1h-259z M1149,315h152v1h-152z M1392,315h381v1h-381z M30,316h133v1h-133z M342,316h134v1h-134z M479,316h140v1h-140z M868,316h259v1h-259z M1150,316h152v1h-152z M1392,316h381v1h-381z M30,317h133v1h-133z M342,317h134v1h-134z M479,317h141v1h-141z M867,317h259v1h-259z M1150,317h153v1h-153z M1391,317h382v1h-382z M30,318h133v1h-133z M342,318h133v1h-133z M479,318h141v1h-141z M867,318h259v1h-259z M1151,318h152v1h-152z M1391,318h382v1h-382z M29,319h134v1h-134z M342,319h133v1h-133z M479,319h141v1h-141z M866,319h260v1h-260z M1151,319h153v1h-153z M1390,319h383v1h-383z M29,320h134v1h-134z M341,320h134v1h-134z M479,320h142v1h-142z M866,320h260v1h-260z M1152,320h153v1h-153z M1390,320h384v1h-384z M29,321h133v1h-133z M341,321h134v1h-134z M480,321h141v1h-141z M865,321h261v1h-261z M1152,321h153v1h-153z M1389,321h385v1h-385z M29,322h133v1h-133z M341,322h134v1h-134z M480,322h142v1h-142z M865,322h260v1h-260z M1153,322h153v1h-153z M1388,322h386v1h-386z M29,323h133v1h-133z M341,323h134v1h-134z M480,323h142v1h-142z M864,323h261v1h-261z M1153,323h154v1h-154z M1388,323h386v1h-386z M29,324h133v1h-133z M341,324h133v1h-133z M480,324h143v1h-143z M863,324h262v1h-262z M1154,324h153v1h-153z M1387,324h387v1h-387z M28,325h134v1h-134z M341,325h133v1h-133z M480,325h143v1h-143z M863,325h262v1h-262z M1154,325h154v1h-154z M1387,325h387v1h-387z M28,326h134v1h-134z M340,326h134v1h-134z M480,326h144v1h-144z M862,326h263v1h-263z M1155,326h153v1h-153z M1386,326h389v1h-389z M28,327h133v1h-133z M340,327h134v1h-134z M481,327h143v1h-143z M861,327h264v1h-264z M1155,327h154v1h-154z M1386,327h389v1h-389z M28,328h133v1h-133z M340,328h134v1h-134z M481,328h144v1h-144z M861,328h263v1h-263z M1156,328h154v1h-154z M1385,328h390v1h-390z M28,329h133v1h-133z M340,329h133v1h-133z M481,329h144v1h-144z M860,329h264v1h-264z M1156,329h154v1h-154z M1384,329h391v1h-391z M27,330h134v1h-134z M340,330h133v1h-133z M481,330h145v1h-145z M860,330h264v1h-264z M1157,330h154v1h-154z M1384,330h391v1h-391z M27,331h134v1h-134z M339,331h134v1h-134z M481,331h145v1h-145z M859,331h265v1h-265z M1157,331h155v1h-155z M1383,331h393v1h-393z M27,332h133v1h-133z M339,332h134v1h-134z M482,332h145v1h-145z M858,332h266v1h-266z M1158,332h154v1h-154z M1383,332h393v1h-393z M27,333h133v1h-133z M339,333h134v1h-134z M482,333h145v1h-145z M857,333h266v1h-266z M1159,333h154v1h-154z M1382,333h394v1h-394z M27,334h133v1h-133z M339,334h134v1h-134z M482,334h146v1h-146z M857,334h266v1h-266z M1159,334h155v1h-155z M1382,334h394v1h-394z M27,335h133v1h-133z M339,335h133v1h-133z M482,335h146v1h-146z M856,335h267v1h-267z M1160,335h154v1h-154z M1381,335h395v1h-395z M26,336h134v1h-134z M339,336h133v1h-133z M482,336h147v1h-147z M855,336h268v1h-268z M1160,336h155v1h-155z M1380,336h396v1h-396z M26,337h134v1h-134z M338,337h134v1h-134z M483,337h147v1h-147z M854,337h269v1h-269z M1161,337h154v1h-154z M1380,337h397v1h-397z M26,338h133v1h-133z M338,338h134v1h-134z M483,338h147v1h-147z M854,338h269v1h-269z M1161,338h155v1h-155z M1379,338h398v1h-398z M26,339h133v1h-133z M338,339h134v1h-134z M483,339h148v1h-148z M853,339h269v1h-269z M1162,339h155v1h-155z M1379,339h398v1h-398z M26,340h133v1h-133z M338,340h133v1h-133z M483,340h149v1h-149z M852,340h270v1h-270z M1162,340h155v1h-155z M1378,340h399v1h-399z M25,341h134v1h-134z M338,341h133v1h-133z M484,341h148v1h-148z M851,341h271v1h-271z M1163,341h155v1h-155z M1378,341h399v1h-399z M25,342h134v1h-134z M338,342h133v1h-133z M484,342h149v1h-149z M850,342h272v1h-272z M1163,342h156v1h-156z M1377,342h401v1h-401z M25,343h134v1h-134z M337,343h134v1h-134z M484,343h150v1h-150z M849,343h273v1h-273z M1164,343h155v1h-155z M1376,343h402v1h-402z M25,344h133v1h-133z M337,344h134v1h-134z M484,344h150v1h-150z M849,344h272v1h-272z M1165,344h155v1h-155z M1376,344h402v1h-402z M25,345h133v1h-133z M337,345h134v1h-134z M485,345h150v1h-150z M848,345h273v1h-273z M1165,345h156v1h-156z M1375,345h403v1h-403z M25,346h133v1h-133z M337,346h133v1h-133z M485,346h151v1h-151z M847,346h274v1h-274z M1166,346h155v1h-155z M1375,346h403v1h-403z M24,347h134v1h-134z M337,347h133v1h-133z M485,347h152v1h-152z M846,347h275v1h-275z M1166,347h156v1h-156z M1374,347h404v1h-404z M24,348h134v1h-134z M336,348h134v1h-134z M485,348h152v1h-152z M845,348h276v1h-276z M1167,348h155v1h-155z M1374,348h405v1h-405z M24,349h133v1h-133z M336,349h134v1h-134z M486,349h152v1h-152z M844,349h277v1h-277z M1167,349h156v1h-156z M1373,349h406v1h-406z M24,350h133v1h-133z M336,350h134v1h-134z M486,350h153v1h-153z M843,350h277v1h-277z M1168,350h156v1h-156z M1372,350h407v1h-407z M24,351h133v1h-133z M336,351h133v1h-133z M486,351h154v1h-154z M842,351h278v1h-278z M1169,351h155v1h-155z M1372,351h407v1h-407z M23,352h134v1h-134z M336,352h133v1h-133z M487,352h154v1h-154z M841,352h279v1h-279z M1169,352h156v1h-156z M1371,352h408v1h-408z M23,353h134v1h-134z M336,353h133v1h-133z M487,353h155v1h-155z M840,353h280v1h-280z M1170,353h156v1h-156z M1371,353h409v1h-409z M23,354h134v1h-134z M335,354h134v1h-134z M487,354h156v1h-156z M838,354h282v1h-282z M1170,354h156v1h-156z M1370,354h410v1h-410z M23,355h133v1h-133z M335,355h134v1h-134z M487,355h157v1h-157z M837,355h282v1h-282z M1171,355h156v1h-156z M1370,355h410v1h-410z M23,356h133v1h-133z M335,356h134v1h-134z M488,356h157v1h-157z M836,356h283v1h-283z M1172,356h156v1h-156z M1369,356h411v1h-411z M23,357h133v1h-133z M335,357h133v1h-133z M488,357h158v1h-158z M835,357h152v1h-152z M988,357h131v1h-131z M1172,357h156v1h-156z M1368,357h412v1h-412z M22,358h134v1h-134z M335,358h133v1h-133z M488,358h159v1h-159z M834,358h153v1h-153z M988,358h131v1h-131z M1173,358h156v1h-156z M1368,358h412v1h-412z M22,359h134v1h-134z M334,359h134v1h-134z M489,359h159v1h-159z M832,359h155v1h-155z M988,359h131v1h-131z M1174,359h155v1h-155z M1367,359h414v1h-414z M22,360h133v1h-133z M334,360h134v1h-134z M489,360h160v1h-160z M831,360h155v1h-155z M988,360h131v1h-131z M1174,360h156v1h-156z M1367,360h414v1h-414z M22,361h133v1h-133z M334,361h134v1h-134z M489,361h161v1h-161z M830,361h156v1h-156z M987,361h131v1h-131z M1175,361h156v1h-156z M1366,361h415v1h-415z M22,362h133v1h-133z M334,362h133v1h-133z M490,362h161v1h-161z M828,362h157v1h-157z M987,362h131v1h-131z M1175,362h156v1h-156z M1366,362h415v1h-415z M21,363h134v1h-134z M334,363h133v1h-133z M490,363h162v1h-162z M827,363h158v1h-158z M987,363h131v1h-131z M1176,363h156v1h-156z M1365,363h416v1h-416z M21,364h134v1h-134z M334,364h133v1h-133z M490,364h164v1h-164z M826,364h158v1h-158z M987,364h131v1h-131z M1177,364h156v1h-156z M1364,364h418v1h-418z M21,365h134v1h-134z M333,365h134v1h-134z M491,365h164v1h-164z M824,365h160v1h-160z M987,365h131v1h-131z M1177,365h156v1h-156z M1364,365h418v1h-418z M21,366h133v1h-133z M333,366h134v1h-134z M491,366h165v1h-165z M823,366h160v1h-160z M986,366h131v1h-131z M1178,366h156v1h-156z M1363,366h419v1h-419z M21,367h133v1h-133z M333,367h134v1h-134z M491,367h167v1h-167z M821,367h162v1h-162z M986,367h131v1h-131z M1179,367h156v1h-156z M1363,367h419v1h-419z M21,368h133v1h-133z M333,368h133v1h-133z M492,368h167v1h-167z M819,368h163v1h-163z M986,368h131v1h-131z M1179,368h156v1h-156z M1362,368h420v1h-420z M20,369h134v1h-134z M333,369h133v1h-133z M492,369h168v1h-168z M818,369h164v1h-164z M986,369h131v1h-131z M1180,369h156v1h-156z M1362,369h420v1h-420z M20,370h134v1h-134z M332,370h134v1h-134z M493,370h169v1h-169z M816,370h165v1h-165z M986,370h131v1h-131z M1180,370h156v1h-156z M1361,370h422v1h-422z M20,371h133v1h-133z M332,371h134v1h-134z M493,371h171v1h-171z M814,371h167v1h-167z M986,371h131v1h-131z M1181,371h156v1h-156z M1360,371h423v1h-423z M20,372h133v1h-133z M332,372h134v1h-134z M493,372h172v1h-172z M812,372h168v1h-168z M985,372h131v1h-131z M1182,372h156v1h-156z M1360,372h423v1h-423z M20,373h133v1h-133z M332,373h133v1h-133z M494,373h173v1h-173z M811,373h169v1h-169z M985,373h131v1h-131z M1182,373h156v1h-156z M1359,373h424v1h-424z M19,374h134v1h-134z M332,374h133v1h-133z M494,374h175v1h-175z M809,374h170v1h-170z M985,374h131v1h-131z M1183,374h156v1h-156z M1359,374h424v1h-424z M19,375h134v1h-134z M332,375h133v1h-133z M495,375h176v1h-176z M807,375h171v1h-171z M985,375h131v1h-131z M1184,375h156v1h-156z M1358,375h426v1h-426z M19,376h134v1h-134z M331,376h134v1h-134z M495,376h178v1h-178z M804,376h174v1h-174z M985,376h131v1h-131z M1184,376h156v1h-156z M1357,376h427v1h-427z M19,377h133v1h-133z M331,377h134v1h-134z M495,377h180v1h-180z M802,377h175v1h-175z M984,377h131v1h-131z M1185,377h156v1h-156z M1357,377h427v1h-427z M19,378h133v1h-133z M331,378h134v1h-134z M496,378h181v1h-181z M800,378h177v1h-177z M984,378h131v1h-131z M1185,378h157v1h-157z M1356,378h428v1h-428z M19,379h133v1h-133z M331,379h133v1h-133z M496,379h183v1h-183z M798,379h178v1h-178z M984,379h131v1h-131z M1186,379h156v1h-156z M1356,379h428v1h-428z M18,380h134v1h-134z M331,380h133v1h-133z M497,380h185v1h-185z M795,380h181v1h-181z M984,380h131v1h-131z M1186,380h157v1h-157z M1355,380h429v1h-429z M18,381h134v1h-134z M330,381h134v1h-134z M497,381h187v1h-187z M793,381h182v1h-182z M984,381h131v1h-131z M1187,381h156v1h-156z M1355,381h430v1h-430z M18,382h133v1h-133z M330,382h134v1h-134z M498,382h189v1h-189z M790,382h185v1h-185z M984,382h131v1h-131z M1187,382h157v1h-157z M1354,382h431v1h-431z M18,383h133v1h-133z M330,383h134v1h-134z M498,383h192v1h-192z M787,383h187v1h-187z M983,383h131v1h-131z M1188,383h157v1h-157z M1353,383h432v1h-432z M18,384h133v1h-133z M330,384h133v1h-133z M498,384h196v1h-196z M784,384h189v1h-189z M983,384h131v1h-131z M1189,384h156v1h-156z M1353,384h432v1h-432z M17,385h134v1h-134z M330,385h133v1h-133z M499,385h198v1h-198z M781,385h192v1h-192z M983,385h131v1h-131z M1189,385h157v1h-157z M1352,385h433v1h-433z M17,386h134v1h-134z M330,386h133v1h-133z M499,386h202v1h-202z M777,386h195v1h-195z M983,386h131v1h-131z M1190,386h157v1h-157z M1352,386h434v1h-434z M17,387h134v1h-134z M329,387h134v1h-134z M500,387h206v1h-206z M773,387h199v1h-199z M983,387h131v1h-131z M1191,387h156v1h-156z M1351,387h435v1h-435z M17,388h133v1h-133z M329,388h134v1h-134z M500,388h211v1h-211z M768,388h203v1h-203z M982,388h131v1h-131z M1191,388h157v1h-157z M1350,388h436v1h-436z M17,389h133v1h-133z M329,389h134v1h-134z M501,389h215v1h-215z M763,389h207v1h-207z M982,389h131v1h-131z M1192,389h157v1h-157z M1350,389h436v1h-436z M17,390h133v1h-133z M329,390h133v1h-133z M501,390h223v1h-223z M755,390h215v1h-215z M982,390h131v1h-131z M1192,390h594v1h-594z M16,391h134v1h-134z M329,391h133v1h-133z M502,391h467v1h-467z M982,391h131v1h-131z M1193,391h593v1h-593z M16,392h134v1h-134z M328,392h134v1h-134z M502,392h466v1h-466z M982,392h131v1h-131z M1194,392h593v1h-593z M16,393h133v1h-133z M328,393h134v1h-134z M503,393h465v1h-465z M982,393h131v1h-131z M1194,393h593v1h-593z M16,394h133v1h-133z M328,394h134v1h-134z M503,394h464v1h-464z M981,394h131v1h-131z M1195,394h592v1h-592z M16,395h133v1h-133z M328,395h134v1h-134z M504,395h463v1h-463z M981,395h131v1h-131z M1195,395h592v1h-592z M15,396h134v1h-134z M328,396h133v1h-133z M505,396h461v1h-461z M981,396h131v1h-131z M1196,396h591v1h-591z M15,397h134v1h-134z M328,397h133v1h-133z M505,397h460v1h-460z M981,397h131v1h-131z M1197,397h591v1h-591z M15,398h134v1h-134z M327,398h134v1h-134z M506,398h459v1h-459z M981,398h131v1h-131z M1197,398h591v1h-591z M15,399h133v1h-133z M327,399h134v1h-134z M506,399h458v1h-458z M981,399h130v1h-130z M1198,399h590v1h-590z M15,400h133v1h-133z M327,400h134v1h-134z M507,400h456v1h-456z M980,400h131v1h-131z M1198,400h590v1h-590z M15,401h133v1h-133z M327,401h133v1h-133z M507,401h456v1h-456z M980,401h131v1h-131z M1199,401h589v1h-589z M14,402h134v1h-134z M327,402h133v1h-133z M508,402h454v1h-454z M980,402h131v1h-131z M1200,402h588v1h-588z M14,403h134v1h-134z M326,403h134v1h-134z M509,403h452v1h-452z M980,403h131v1h-131z M1200,403h589v1h-589z M14,404h133v1h-133z M326,404h134v1h-134z M509,404h451v1h-451z M980,404h131v1h-131z M1201,404h588v1h-588z M14,405h133v1h-133z M326,405h134v1h-134z M510,405h450v1h-450z M979,405h131v1h-131z M1201,405h588v1h-588z M14,406h133v1h-133z M326,406h134v1h-134z M510,406h449v1h-449z M979,406h131v1h-131z M1202,406h587v1h-587z M13,407h134v1h-134z M326,407h133v1h-133z M511,407h447v1h-447z M979,407h131v1h-131z M1203,407h586v1h-586z M13,408h134v1h-134z M326,408h133v1h-133z M512,408h445v1h-445z M979,408h131v1h-131z M1203,408h587v1h-587z M13,409h134v1h-134z M325,409h134v1h-134z M512,409h445v1h-445z M979,409h131v1h-131z M1204,409h586v1h-586z M13,410h133v1h-133z M325,410h134v1h-134z M513,410h443v1h-443z M979,410h130v1h-130z M1204,410h586v1h-586z M13,411h133v1h-133z M325,411h134v1h-134z M514,411h441v1h-441z M978,411h131v1h-131z M1205,411h585v1h-585z M13,412h133v1h-133z M325,412h133v1h-133z M514,412h440v1h-440z M978,412h131v1h-131z M1206,412h584v1h-584z M12,413h134v1h-134z M325,413h133v1h-133z M515,413h439v1h-439z M978,413h131v1h-131z M1206,413h584v1h-584z M12,414h134v1h-134z M324,414h134v1h-134z M516,414h437v1h-437z M978,414h131v1h-131z M1207,414h584v1h-584z M12,415h133v1h-133z M324,415h134v1h-134z M516,415h436v1h-436z M978,415h131v1h-131z M1208,415h273v1h-273z M1653,415h138v1h-138z M12,416h133v1h-133z M324,416h134v1h-134z M517,416h434v1h-434z M977,416h131v1h-131z M1208,416h272v1h-272z M1655,416h136v1h-136z M12,417h133v1h-133z M324,417h134v1h-134z M518,417h433v1h-433z M977,417h131v1h-131z M1209,417h270v1h-270z M1655,417h136v1h-136z M11,418h134v1h-134z M324,418h133v1h-133z M518,418h432v1h-432z M977,418h131v1h-131z M1209,418h269v1h-269z M1655,418h136v1h-136z M11,419h134v1h-134z M324,419h133v1h-133z M519,419h430v1h-430z M977,419h131v1h-131z M1210,419h268v1h-268z M1655,419h137v1h-137z M11,420h134v1h-134z M323,420h134v1h-134z M520,420h428v1h-428z M977,420h131v1h-131z M1211,420h266v1h-266z M1656,420h136v1h-136z M11,421h133v1h-133z M323,421h134v1h-134z M521,421h426v1h-426z M977,421h130v1h-130z M1211,421h266v1h-266z M1656,421h136v1h-136z M11,422h133v1h-133z M323,422h134v1h-134z M521,422h425v1h-425z M976,422h131v1h-131z M1212,422h264v1h-264z M1656,422h136v1h-136z M11,423h133v1h-133z M323,423h133v1h-133z M522,423h423v1h-423z M976,423h131v1h-131z M1212,423h264v1h-264z M1656,423h136v1h-136z M10,424h134v1h-134z M323,424h133v1h-133z M523,424h422v1h-422z M976,424h131v1h-131z M1213,424h262v1h-262z M1656,424h136v1h-136z M10,425h134v1h-134z M322,425h134v1h-134z M524,425h420v1h-420z M976,425h131v1h-131z M1214,425h261v1h-261z M1656,425h137v1h-137z M10,426h133v1h-133z M322,426h134v1h-134z M525,426h418v1h-418z M976,426h131v1h-131z M1214,426h260v1h-260z M1656,426h137v1h-137z M10,427h133v1h-133z M322,427h134v1h-134z M525,427h417v1h-417z M975,427h131v1h-131z M1215,427h259v1h-259z M1656,427h137v1h-137z M10,428h133v1h-133z M322,428h134v1h-134z M526,428h415v1h-415z M975,428h131v1h-131z M1215,428h258v1h-258z M1657,428h136v1h-136z M9,429h134v1h-134z M322,429h133v1h-133z M527,429h413v1h-413z M975,429h131v1h-131z M1216,429h257v1h-257z M1657,429h136v1h-136z M9,430h134v1h-134z M322,430h133v1h-133z M528,430h411v1h-411z M975,430h131v1h-131z M1217,430h255v1h-255z M1657,430h137v1h-137z M9,431h134v1h-134z M321,431h134v1h-134z M529,431h409v1h-409z M975,431h131v1h-131z M1217,431h255v1h-255z M1657,431h137v1h-137z M9,432h133v1h-133z M321,432h134v1h-134z M530,432h407v1h-407z M975,432h130v1h-130z M1218,432h253v1h-253z M1657,432h137v1h-137z M9,433h133v1h-133z M321,433h134v1h-134z M530,433h406v1h-406z M974,433h131v1h-131z M1218,433h253v1h-253z M1657,433h137v1h-137z M9,434h133v1h-133z M321,434h133v1h-133z M531,434h404v1h-404z M974,434h131v1h-131z M1219,434h251v1h-251z M1657,434h137v1h-137z M8,435h134v1h-134z M321,435h133v1h-133z M532,435h402v1h-402z M974,435h131v1h-131z M1220,435h249v1h-249z M1658,435h136v1h-136z M8,436h134v1h-134z M320,436h134v1h-134z M533,436h400v1h-400z M974,436h131v1h-131z M1220,436h249v1h-249z M1658,436h137v1h-137z M8,437h133v1h-133z M320,437h134v1h-134z M534,437h398v1h-398z M974,437h131v1h-131z M1221,437h247v1h-247z M1658,437h137v1h-137z M8,438h133v1h-133z M320,438h134v1h-134z M535,438h396v1h-396z M974,438h130v1h-130z M1221,438h247v1h-247z M1658,438h137v1h-137z M8,439h133v1h-133z M320,439h134v1h-134z M536,439h394v1h-394z M973,439h131v1h-131z M1222,439h245v1h-245z M1658,439h137v1h-137z M7,440h134v1h-134z M320,440h133v1h-133z M537,440h392v1h-392z M973,440h131v1h-131z M1223,440h244v1h-244z M1658,440h137v1h-137z M7,441h134v1h-134z M320,441h133v1h-133z M538,441h390v1h-390z M973,441h131v1h-131z M1223,441h243v1h-243z M1658,441h138v1h-138z M7,442h134v1h-134z M319,442h134v1h-134z M539,442h388v1h-388z M973,442h131v1h-131z M1224,442h242v1h-242z M1658,442h138v1h-138z M7,443h133v1h-133z M319,443h134v1h-134z M540,443h386v1h-386z M973,443h130v1h-130z M1225,443h240v1h-240z M1659,443h137v1h-137z M7,444h133v1h-133z M319,444h134v1h-134z M541,444h384v1h-384z M972,444h131v1h-131z M1225,444h240v1h-240z M1659,444h137v1h-137z M7,445h133v1h-133z M319,445h133v1h-133z M542,445h382v1h-382z M972,445h131v1h-131z M1226,445h238v1h-238z M1659,445h137v1h-137z M6,446h134v1h-134z M319,446h133v1h-133z M543,446h380v1h-380z M972,446h131v1h-131z M1226,446h238v1h-238z M1659,446h137v1h-137z M6,447h134v1h-134z M318,447h134v1h-134z M544,447h378v1h-378z M972,447h131v1h-131z M1227,447h236v1h-236z M1659,447h138v1h-138z M6,448h133v1h-133z M318,448h134v1h-134z M545,448h376v1h-376z M972,448h130v1h-130z M1228,448h235v1h-235z M1659,448h138v1h-138z M6,449h133v1h-133z M318,449h134v1h-134z M546,449h373v1h-373z M972,449h130v1h-130z M1228,449h234v1h-234z M1659,449h138v1h-138z M6,450h133v1h-133z M318,450h134v1h-134z M547,450h371v1h-371z M971,450h131v1h-131z M1229,450h233v1h-233z M1660,450h137v1h-137z M6,451h133v1h-133z M318,451h133v1h-133z M549,451h368v1h-368z M971,451h131v1h-131z M1229,451h232v1h-232z M1660,451h137v1h-137z M5,452h134v1h-134z M318,452h133v1h-133z M550,452h366v1h-366z M971,452h131v1h-131z M1230,452h230v1h-230z M1660,452h138v1h-138z M5,453h134v1h-134z M317,453h134v1h-134z M551,453h364v1h-364z M971,453h131v1h-131z M1231,453h229v1h-229z M1660,453h138v1h-138z M5,454h133v1h-133z M317,454h134v1h-134z M552,454h361v1h-361z M971,454h130v1h-130z M1231,454h228v1h-228z M1660,454h138v1h-138z M5,455h133v1h-133z M317,455h134v1h-134z M553,455h359v1h-359z M971,455h130v1h-130z M1232,455h227v1h-227z M1660,455h138v1h-138z M5,456h133v1h-133z M317,456h133v1h-133z M554,456h357v1h-357z M970,456h131v1h-131z M1232,456h226v1h-226z M1660,456h138v1h-138z M4,457h134v1h-134z M317,457h133v1h-133z M556,457h354v1h-354z M970,457h131v1h-131z M1233,457h225v1h-225z M1661,457h137v1h-137z M4,458h134v1h-134z M316,458h134v1h-134z M557,458h351v1h-351z M970,458h131v1h-131z M1234,458h223v1h-223z M1661,458h138v1h-138z M4,459h133v1h-133z M316,459h134v1h-134z M558,459h349v1h-349z M970,459h130v1h-130z M1234,459h223v1h-223z M1661,459h138v1h-138z M4,460h133v1h-133z M316,460h134v1h-134z M559,460h347v1h-347z M970,460h130v1h-130z M1235,460h221v1h-221z M1661,460h138v1h-138z M4,461h133v1h-133z M316,461h134v1h-134z M561,461h343v1h-343z M970,461h130v1h-130z M1235,461h221v1h-221z M1661,461h138v1h-138z M4,462h133v1h-133z M316,462h133v1h-133z M562,462h341v1h-341z M969,462h131v1h-131z M1236,462h219v1h-219z M1661,462h138v1h-138z M3,463h134v1h-134z M316,463h133v1h-133z M563,463h339v1h-339z M969,463h131v1h-131z M1237,463h218v1h-218z M1661,463h139v1h-139z M3,464h134v1h-134z M315,464h134v1h-134z M565,464h335v1h-335z M969,464h131v1h-131z M1237,464h217v1h-217z M1662,464h138v1h-138z M3,465h133v1h-133z M315,465h134v1h-134z M566,465h333v1h-333z M969,465h130v1h-130z M1238,465h216v1h-216z M1662,465h138v1h-138z M3,466h133v1h-133z M315,466h134v1h-134z M568,466h329v1h-329z M969,466h130v1h-130z M1239,466h214v1h-214z M1662,466h138v1h-138z M3,467h133v1h-133z M315,467h133v1h-133z M569,467h327v1h-327z M969,467h130v1h-130z M1239,467h214v1h-214z M1662,467h138v1h-138z M3,468h133v1h-133z M315,468h133v1h-133z M571,468h323v1h-323z M968,468h131v1h-131z M1240,468h212v1h-212z M1662,468h138v1h-138z M2,469h134v1h-134z M315,469h133v1h-133z M572,469h321v1h-321z M968,469h131v1h-131z M1240,469h211v1h-211z M1662,469h139v1h-139z M2,470h133v1h-133z M314,470h134v1h-134z M574,470h317v1h-317z M968,470h130v1h-130z M1241,470h210v1h-210z M1662,470h139v1h-139z M2,471h133v1h-133z M314,471h134v1h-134z M575,471h315v1h-315z M968,471h130v1h-130z M1242,471h208v1h-208z M1663,471h138v1h-138z M2,472h133v1h-133z M314,472h134v1h-134z M577,472h311v1h-311z M968,472h130v1h-130z M1242,472h208v1h-208z M1663,472h138v1h-138z M2,473h133v1h-133z M314,473h133v1h-133z M578,473h309v1h-309z M968,473h130v1h-130z M1243,473h206v1h-206z M1663,473h138v1h-138z M2,474h133v1h-133z M314,474h133v1h-133z M580,474h305v1h-305z M967,474h131v1h-131z M1243,474h206v1h-206z M1663,474h139v1h-139z M2,475h133v1h-133z M313,475h134v1h-134z M581,475h302v1h-302z M967,475h131v1h-131z M1244,475h204v1h-204z M1663,475h139v1h-139z M1,476h133v1h-133z M313,476h134v1h-134z M583,476h299v1h-299z M967,476h130v1h-130z M1245,476h203v1h-203z M1663,476h139v1h-139z M1,477h133v1h-133z M313,477h134v1h-134z M585,477h295v1h-295z M967,477h130v1h-130z M1245,477h202v1h-202z M1663,477h139v1h-139z M1,478h133v1h-133z M313,478h133v1h-133z M587,478h291v1h-291z M967,478h130v1h-130z M1246,478h201v1h-201z M1663,478h139v1h-139z M1,479h133v1h-133z M313,479h133v1h-133z M588,479h288v1h-288z M967,479h130v1h-130z M1247,479h199v1h-199z M1664,479h138v1h-138z M1,480h133v1h-133z M313,480h133v1h-133z M590,480h284v1h-284z M967,480h130v1h-130z M1247,480h199v1h-199z M1664,480h139v1h-139z M1,481h132v1h-132z M312,481h134v1h-134z M592,481h280v1h-280z M967,481h129v1h-129z M1248,481h197v1h-197z M1664,481h139v1h-139z M1,482h132v1h-132z M312,482h134v1h-134z M594,482h277v1h-277z M966,482h130v1h-130z M1248,482h197v1h-197z M1664,482h139v1h-139z M1,483h132v1h-132z M312,483h134v1h-134z M596,483h273v1h-273z M966,483h130v1h-130z M1249,483h195v1h-195z M1664,483h139v1h-139z M0,484h133v1h-133z M312,484h133v1h-133z M598,484h269v1h-269z M966,484h130v1h-130z M1250,484h194v1h-194z M1664,484h139v1h-139z M0,485h133v1h-133z M312,485h133v1h-133z M600,485h265v1h-265z M966,485h130v1h-130z M1250,485h193v1h-193z M1664,485h140v1h-140z M0,486h132v1h-132z M312,486h133v1h-133z M602,486h260v1h-260z M966,486h130v1h-130z M1251,486h192v1h-192z M1665,486h139v1h-139z M0,487h132v1h-132z M312,487h133v1h-133z M604,487h256v1h-256z M966,487h129v1h-129z M1252,487h190v1h-190z M1665,487h139v1h-139z M0,488h132v1h-132z M312,488h133v1h-133z M606,488h252v1h-252z M966,488h129v1h-129z M1252,488h190v1h-190z M1665,488h139v1h-139z M0,489h132v1h-132z M311,489h133v1h-133z M608,489h248v1h-248z M966,489h129v1h-129z M1253,489h188v1h-188z M1665,489h139v1h-139z M0,490h131v1h-131z M311,490h133v1h-133z M610,490h243v1h-243z M966,490h129v1h-129z M1253,490h188v1h-188z M1665,490h139v1h-139z M0,491h131v1h-131z M311,491h133v1h-133z M613,491h238v1h-238z M965,491h129v1h-129z M1254,491h186v1h-186z M1665,491h139v1h-139z M0,492h131v1h-131z M311,492h133v1h-133z M615,492h234v1h-234z M965,492h129v1h-129z M1255,492h185v1h-185z M1665,492h139v1h-139z M0,493h131v1h-131z M311,493h132v1h-132z M618,493h228v1h-228z M965,493h129v1h-129z M1255,493h184v1h-184z M1666,493h137v1h-137z M0,494h131v1h-131z M311,494h132v1h-132z M620,494h224v1h-224z M965,494h129v1h-129z M1256,494h182v1h-182z M1666,494h137v1h-137z M0,495h130v1h-130z M311,495h132v1h-132z M623,495h218v1h-218z M965,495h128v1h-128z M1257,495h181v1h-181z M1666,495h137v1h-137z M0,496h130v1h-130z M311,496h131v1h-131z M626,496h212v1h-212z M965,496h128v1h-128z M1257,496h180v1h-180z M1666,496h136v1h-136z M0,497h130v1h-130z M312,497h130v1h-130z M628,497h207v1h-207z M965,497h128v1h-128z M1258,497h179v1h-179z M1667,497h135v1h-135z M0,498h129v1h-129z M312,498h129v1h-129z M631,498h201v1h-201z M966,498h126v1h-126z M1259,498h177v1h-177z M1667,498h134v1h-134z M1,499h128v1h-128z M313,499h128v1h-128z M634,499h195v1h-195z M966,499h126v1h-126z M1259,499h176v1h-176z M1668,499h133v1h-133z M1,500h127v1h-127z M314,500h126v1h-126z M637,500h189v1h-189z M967,500h124v1h-124z M1260,500h174v1h-174z M1669,500h131v1h-131z M2,501h125v1h-125z M315,501h124v1h-124z M641,501h181v1h-181z M968,501h122v1h-122z M1261,501h172v1h-172z M1669,501h130v1h-130z M4,502h122v1h-122z M317,502h121v1h-121z M644,502h175v1h-175z M969,502h120v1h-120z M1262,502h170v1h-170z M1671,502h126v1h-126z M6,503h118v1h-118z M320,503h117v1h-117z M648,503h167v1h-167z M972,503h115v1h-115z M1263,503h167v1h-167z M1672,503h124v1h-124z M12,504h109v1h-109z M325,504h109v1h-109z M652,504h159v1h-159z M977,504h107v1h-107z M1266,504h162v1h-162z M1674,504h119v1h-119z M656,505h151v1h-151z M661,506h142v1h-142z M666,507h132v1h-132z M671,508h122v1h-122z M677,509h110v1h-110z M684,510h96v1h-96z M692,511h80v1h-80z M704,512h57v1h-57z"/>
<path d="M455,78h4v1h-4z M454,79h7v1h-7z M453,80h9v1h-9z M452,81h10v1h-10z M452,82h11v1h-11z M451,83h13v1h-13z M452,84h13v1h-13z M452,85h14v1h-14z M452,86h15v1h-15z M453,87h14v1h-14z M454,88h14v1h-14z M455,89h14v1h-14z M455,90h15v1h-15z M456,91h15v1h-15z M457,92h15v1h-15z M457,93h15v1h-15z M458,94h15v1h-15z M459,95h15v1h-15z M459,96h16v1h-16z M460,97h16v1h-16z M461,98h16v1h-16z M462,99h15v1h-15z M462,100h16v1h-16z M463,101h16v1h-16z M464,102h16v1h-16z M465,103h16v1h-16z M465,104h17v1h-17z M466,105h17v1h-17z M467,106h17v1h-17z M467,107h18v1h-18z M468,108h18v1h-18z M469,109h18v1h-18z M470,110h18v1h-18z M471,111h18v1h-18z M472,112h19v1h-19z M473,113h19v1h-19z M474,114h19v1h-19z M475,115h19v1h-19z M476,116h19v1h-19z M477,117h19v1h-19z M478,118h20v1h-20z M479,119h20v1h-20z M480,120h20v1h-20z M481,121h21v1h-21z M482,122h21v1h-21z M483,123h21v1h-21z M484,124h22v1h-22z M485,125h22v1h-22z M487,126h21v1h-21z M488,127h22v1h-22z M489,128h22v1h-22z M491,129h22v1h-22z M492,130h22v1h-22z M493,131h23v1h-23z M495,132h22v1h-22z M496,133h23v1h-23z M497,134h23v1h-23z M499,135h23v1h-23z M500,136h24v1h-24z M501,137h24v1h-24z M503,138h24v1h-24z M504,139h24v1h-24z M505,140h25v1h-25z M507,141h25v1h-25z M508,142h25v1h-25z M509,143h26v1h-26z M511,144h26v1h-26z M512,145h27v1h-27z M514,146h27v1h-27z M515,147h27v1h-27z M517,148h27v1h-27z M518,149h28v1h-28z M520,150h28v1h-28z M521,151h29v1h-29z M523,152h29v1h-29z M525,153h29v1h-29z M526,154h30v1h-30z M528,155h30v1h-30z M529,156h31v1h-31z M531,157h31v1h-31z M532,158h32v1h-32z M534,159h32v1h-32z M535,160h34v1h-34z M537,161h34v1h-34z M538,162h35v1h-35z M540,163h35v1h-35z M542,164h36v1h-36z M543,165h37v1h-37z M545,166h37v1h-37z M546,167h39v1h-39z M548,168h39v1h-39z M549,169h40v1h-40z M551,170h41v1h-41z M552,171h42v1h-42z M554,172h43v1h-43z M556,173h43v1h-43z M557,174h45v1h-45z M559,175h46v1h-46z M560,176h47v1h-47z M562,177h48v1h-48z M563,178h50v1h-50z M565,179h50v1h-50z M567,180h51v1h-51z M568,181h52v1h-52z M570,182h52v1h-52z M571,183h53v1h-53z M573,184h54v1h-54z M574,185h55v1h-55z M576,186h55v1h-55z M578,187h55v1h-55z M579,188h56v1h-56z M581,189h56v1h-56z M582,190h57v1h-57z M584,191h56v1h-56z M585,192h57v1h-57z M587,193h57v1h-57z M588,194h58v1h-58z M590,195h57v1h-57z M592,196h57v1h-57z M593,197h58v1h-58z M595,198h57v1h-57z M596,199h58v1h-58z M598,200h58v1h-58z M599,201h58v1h-58z M601,202h58v1h-58z M603,203h57v1h-57z M604,204h58v1h-58z M606,205h57v1h-57z M607,206h58v1h-58z M609,207h57v1h-57z M610,208h58v1h-58z M612,209h57v1h-57z M614,210h57v1h-57z M615,211h57v1h-57z M1079,211h6v1h-6z M617,212h57v1h-57z M1077,212h9v1h-9z M618,213h57v1h-57z M1075,213h11v1h-11z M620,214h56v1h-56z M1073,214h14v1h-14z M621,215h57v1h-57z M1070,215h17v1h-17z M623,216h56v1h-56z M1068,216h19v1h-19z M624,217h56v1h-56z M1066,217h21v1h-21z M626,218h56v1h-56z M1064,218h23v1h-23z M627,219h56v1h-56z M1062,219h24v1h-24z M628,220h56v1h-56z M1060,220h25v1h-25z M630,221h56v1h-56z M1058,221h26v1h-26z M631,222h56v1h-56z M1056,222h26v1h-26z M632,223h56v1h-56z M1053,223h28v1h-28z M634,224h56v1h-56z M1051,224h28v1h-28z M635,225h56v1h-56z M1049,225h29v1h-29z M636,226h57v1h-57z M1046,226h30v1h-30z M638,227h56v1h-56z M1044,227h30v1h-30z M639,228h57v1h-57z M1041,228h32v1h-32z M640,229h57v1h-57z M1038,229h33v1h-33z M641,230h58v1h-58z M1035,230h34v1h-34z M643,231h57v1h-57z M1031,231h36v1h-36z M644,232h58v1h-58z M1027,232h38v1h-38z M645,233h59v1h-59z M1023,233h40v1h-40z M646,234h59v1h-59z M1018,234h43v1h-43z M648,235h59v1h-59z M1013,235h46v1h-46z M649,236h60v1h-60z M1007,236h50v1h-50z M650,237h60v1h-60z M1000,237h54v1h-54z M651,238h61v1h-61z M991,238h61v1h-61z M652,239h62v1h-62z M982,239h67v1h-67z M653,240h63v1h-63z M869,240h47v1h-47z M968,240h79v1h-79z M654,241h63v1h-63z M859,241h185v1h-185z M655,242h64v1h-64z M852,242h189v1h-189z M657,243h64v1h-64z M846,243h192v1h-192z M658,244h65v1h-65z M840,244h194v1h-194z M659,245h66v1h-66z M835,245h196v1h-196z M660,246h67v1h-67z M831,246h196v1h-196z M661,247h68v1h-68z M826,247h196v1h-196z M662,248h69v1h-69z M822,248h195v1h-195z M663,249h70v1h-70z M817,249h194v1h-194z M664,250h71v1h-71z M812,250h192v1h-192z M665,251h72v1h-72z M805,251h193v1h-193z M666,252h73v1h-73z M798,252h193v1h-193z M667,253h74v1h-74z M789,253h195v1h-195z M668,254h76v1h-76z M779,254h198v1h-198z M669,255h79v1h-79z M769,255h201v1h-201z M670,256h293v1h-293z M671,257h285v1h-285z M672,258h277v1h-277z M673,259h270v1h-270z M674,260h263v1h-263z M675,261h255v1h-255z M676,262h248v1h-248z M676,263h242v1h-242z M677,264h235v1h-235z M678,265h228v1h-228z M679,266h221v1h-221z M680,267h214v1h-214z M681,268h207v1h-207z M682,269h201v1h-201z M683,270h194v1h-194z M684,271h188v1h-188z M684,272h184v1h-184z M685,273h178v1h-178z M686,274h172v1h-172z M687,275h167v1h-167z M688,276h162v1h-162z M689,277h157v1h-157z M689,278h154v1h-154z M690,279h149v1h-149z M691,280h145v1h-145z M692,281h141v1h-141z M693,282h137v1h-137z M693,283h134v1h-134z M694,284h130v1h-130z M695,285h127v1h-127z M696,286h123v1h-123z M696,287h121v1h-121z M697,288h117v1h-117z M698,289h114v1h-114z M699,290h110v1h-110z M700,291h107v1h-107z M700,292h105v1h-105z M701,293h102v1h-102z M702,294h99v1h-99z M703,295h96v1h-96z M703,296h94v1h-94z M704,297h90v1h-90z M705,298h88v1h-88z M705,299h86v1h-86z M706,300h83v1h-83z M707,301h80v1h-80z M708,302h77v1h-77z M708,303h75v1h-75z M709,304h72v1h-72z M710,305h70v1h-70z M711,306h67v1h-67z M711,307h65v1h-65z M712,308h63v1h-63z M713,309h60v1h-60z M714,310h57v1h-57z M714,311h56v1h-56z M715,312h53v1h-53z M716,313h50v1h-50z M717,314h48v1h-48z M717,315h46v1h-46z M718,316h43v1h-43z M719,317h40v1h-40z M720,318h37v1h-37z M721,319h34v1h-34z M722,320h31v1h-31z M723,321h28v1h-28z M724,322h25v1h-25z M726,323h21v1h-21z M728,324h17v1h-17z M731,325h11v1h-11z"/>
<path d="M1842,450h12v1h-12z M1839,451h19v1h-19z M1836,452h24v1h-24z M1834,453h28v1h-28z M1832,454h10v1h-10z M1854,454h10v1h-10z M1831,455h9v1h-9z M1857,455h8v1h-8z M1830,456h7v1h-7z M1859,456h7v1h-7z M1829,457h7v1h-7z M1860,457h8v1h-8z M1828,458h6v1h-6z M1862,458h7v1h-7z M1827,459h6v1h-6z M1863,459h6v1h-6z M1826,460h6v1h-6z M1864,460h6v1h-6z M1825,461h6v1h-6z M1865,461h6v1h-6z M1825,462h5v1h-5z M1866,462h6v1h-6z M1824,463h5v1h-5z M1867,463h5v1h-5z M1823,464h5v1h-5z M1868,464h5v1h-5z M1823,465h5v1h-5z M1868,465h5v1h-5z M1823,466h4v1h-4z M1869,466h5v1h-5z M1822,467h5v1h-5z M1870,467h4v1h-4z M1822,468h4v1h-4z M1870,468h4v1h-4z M1822,469h4v1h-4z M1870,469h5v1h-5z M1821,470h4v1h-4z M1871,470h4v1h-4z M1821,471h4v1h-4z M1871,471h4v1h-4z M1821,472h4v1h-4z M1871,472h4v1h-4z M1821,473h4v1h-4z M1872,473h3v1h-3z M1821,474h3v1h-3z M1872,474h3v1h-3z M1821,475h3v1h-3z M1872,475h3v1h-3z M1821,476h3v1h-3z M1872,476h3v1h-3z M1821,477h3v1h-3z M1872,477h3v1h-3z M1821,478h3v1h-3z M1872,478h3v1h-3z M1821,479h3v1h-3z M1872,479h3v1h-3z M1821,480h3v1h-3z M1872,480h3v1h-3z M1821,481h4v1h-4z M1872,481h3v1h-3z M1821,482h4v1h-4z M1871,482h4v1h-4z M1821,483h4v1h-4z M1871,483h4v1h-4z M1821,484h4v1h-4z M1871,484h4v1h-4z M1822,485h4v1h-4z M1871,485h4v1h-4z M1822,486h4v1h-4z M1870,486h4v1h-4z M1822,487h5v1h-5z M1870,487h4v1h-4z M1823,488h4v1h-4z M1869,488h5v1h-5z M1823,489h5v1h-5z M1869,489h4v1h-4z M1823,490h5v1h-5z M1868,490h5v1h-5z M1824,491h5v1h-5z M1867,491h5v1h-5z M1825,492h5v1h-5z M1866,492h6v1h-6z M1825,493h6v1h-6z M1866,493h5v1h-5z M1826,494h6v1h-6z M1865,494h5v1h-5z M1827,495h6v1h-6z M1863,495h7v1h-7z M1828,496h6v1h-6z M1862,496h7v1h-7z M1828,497h7v1h-7z M1861,497h7v1h-7z M1829,498h8v1h-8z M1859,498h8v1h-8z M1831,499h8v1h-8z M1857,499h9v1h-9z M1832,500h10v1h-10z M1854,500h10v1h-10z M1833,501h14v1h-14z M1849,501h14v1h-14z M1835,502h26v1h-26z M1837,503h22v1h-22z M1840,504h16v1h-16z"/>
<path d="M1842,461h11v1h-11z M1841,462h14v1h-14z M1841,463h15v1h-15z M1841,464h16v1h-16z M1841,465h17v1h-17z M1841,466h5v1h-5z M1851,466h7v1h-7z M1840,467h6v1h-6z M1853,467h6v1h-6z M1840,468h5v1h-5z M1853,468h6v1h-6z M1840,469h5v1h-5z M1853,469h6v1h-6z M1840,470h5v1h-5z M1853,470h6v1h-6z M1840,471h5v1h-5z M1853,471h6v1h-6z M1840,472h5v1h-5z M1853,472h6v1h-6z M1840,473h5v1h-5z M1852,473h7v1h-7z M1840,474h5v1h-5z M1852,474h6v1h-6z M1839,475h6v1h-6z M1850,475h8v1h-8z M1839,476h18v1h-18z M1839,477h17v1h-17z M1839,478h16v1h-16z M1839,479h14v1h-14z M1839,480h12v1h-12z M1839,481h13v1h-13z M1839,482h5v1h-5z M1846,482h6v1h-6z M1838,483h6v1h-6z M1847,483h6v1h-6z M1838,484h5v1h-5z M1848,484h5v1h-5z M1838,485h5v1h-5z M1848,485h6v1h-6z M1838,486h5v1h-5z M1849,486h5v1h-5z M1838,487h5v1h-5z M1849,487h6v1h-6z M1838,488h5v1h-5z M1850,488h6v1h-6z M1838,489h5v1h-5z M1850,489h6v1h-6z M1838,490h5v1h-5z M1851,490h6v1h-6z M1838,491h5v1h-5z M1852,491h5v1h-5z M1838,492h4v1h-4z M1852,492h6v1h-6z M1839,493h3v1h-3z M1854,493h4v1h-4z M1855,494h2v1h-2z"/>
  </g>
</svg>