<?xml version="1.0" encoding="UTF-8"?>
<svg xmlns="http://www.w3.org/2000/svg" viewBox="0 0 400 160" width="400" height="160">
  <g transform="translate(30.00,40.25) scale(0.523077)" fill="white">
<path d="M433,0h49v1h-49z M421,1h74v1h-74z M412,2h92v1h-92z M405,3h106v1h-106z M398,4h120v1h-120z M393,5h131v1h-131z M387,6h143v1h-143z M383,7h151v1h-151z M378,8h161v1h-161z M374,9h170v1h-170z M370,10h178v1h-178z M367,11h185v1h-185z M363,12h192v1h-192z M360,13h199v1h-199z M357,14h205v1h-205z M354,15h212v1h-212z M351,16h218v1h-218z M348,17h224v1h-224z M345,18h230v1h-230z M343,19h67v1h-67z M437,19h140v1h-140z M340,20h56v1h-56z M450,20h130v1h-130z M338,21h48v1h-48z M458,21h125v1h-125z M335,22h44v1h-44z M464,22h121v1h-121z M333,23h40v1h-40z M471,23h117v1h-117z M331,24h36v1h-36z M476,24h114v1h-114z M329,25h33v1h-33z M482,25h111v1h-111z M327,26h30v1h-30z M487,26h108v1h-108z M325,27h27v1h-27z M492,27h105v1h-105z M323,28h25v1h-25z M496,28h103v1h-103z M321,29h23v1h-23z M501,29h101v1h-101z M319,30h22v1h-22z M505,30h99v1h-99z M317,31h20v1h-20z M508,31h98v1h-98z M315,32h19v1h-19z M512,32h96v1h-96z M313,33h18v1h-18z M516,33h93v1h-93z M312,34h16v1h-16z M519,34h92v1h-92z M310,35h15v1h-15z M522,35h91v1h-91z M308,36h14v1h-14z M525,36h90v1h-90z M307,37h12v1h-12z M528,37h89v1h-89z M305,38h12v1h-12z M531,38h87v1h-87z M304,39h10v1h-10z M534,39h86v1h-86z M302,40h10v1h-10z M536,40h85v1h-85z M301,41h8v1h-8z M539,41h84v1h-84z M299,42h8v1h-8z M541,42h84v1h-84z M298,43h7v1h-7z M544,43h82v1h-82z M297,44h6v1h-6z M546,44h81v1h-81z M295,45h6v1h-6z M548,45h81v1h-81z M294,46h4v1h-4z M551,46h79v1h-79z M293,47h3v1h-3z M553,47h79v1h-79z M292,48h2v1h-2z M555,48h78v1h-78z M292,49h1v1h-1z M557,49h77v1h-77z M559,50h77v1h-77z M561,51h76v1h-76z M563,52h75v1h-75z M565,53h74v1h-74z M567,54h73v1h-73z M569,55h72v1h-72z M571,56h71v1h-71z M572,57h71v1h-71z M574,58h70v1h-70z M576,59h69v1h-69z M577,60h69v1h-69z M579,61h68v1h-68z M581,62h67v1h-67z M582,63h67v1h-67z M584,64h66v1h-66z M585,65h64v1h-64z M587,66h61v1h-61z M588,67h59v1h-59z M590,68h56v1h-56z M591,69h54v1h-54z M593,70h51v1h-51z M594,71h49v1h-49z M595,72h47v1h-47z M597,73h44v1h-44z M598,74h42v1h-42z M600,75h39v1h-39z M601,76h36v1h-36z M602,77h34v1h-34z M604,78h31v1h-31z M605,79h29v1h-29z M606,80h27v1h-27z M607,81h25v1h-25z M609,82h22v1h-22z M610,83h20v1h-20z M611,84h18v1h-18z M612,85h16v1h-16z M613,86h14v1h-14z M615,87h11v1h-11z M616,88h9v1h-9z M617,89h7v1h-7z M618,90h4v1h-4z M619,91h2v1h-2z"/>
<path d="M538,48h1v1h-1z M538,49h4v1h-4z M539,50h5v1h-5z M539,51h7v1h-7z M540,52h9v1h-9z M541,53h10v1h-10z M541,54h12v1h-12z M542,55h13v1h-13z M542,56h15v1h-15z M543,57h16v1h-16z M543,58h18v1h-18z M543,59h20v1h-20z M544,60h21v1h-21z M544,61h23v1h-23z M545,62h23v1h-23z M545,63h25v1h-25z M545,64h27v1h-27z M545,65h29v1h-29z M546,66h29v1h-29z M546,67h31v1h-31z M546,68h32v1h-32z M546,69h34v1h-34z M546,70h36v1h-36z M547,71h36v1h-36z M547,72h38v1h-38z M547,73h39v1h-39z M547,74h41v1h-41z M547,75h42v1h-42z M547,76h43v1h-43z M547,77h45v1h-45z M547,78h46v1h-46z M547,79h47v1h-47z M547,80h49v1h-49z M547,81h50v1h-50z M547,82h51v1h-51z M547,83h53v1h-53z M547,84h54v1h-54z M547,85h55v1h-55z M547,86h56v1h-56z M547,87h57v1h-57z M547,88h59v1h-59z M546,89h61v1h-61z M546,90h62v1h-62z M546,91h63v1h-63z M546,92h64v1h-64z M546,93h65v1h-65z M545,94h67v1h-67z M545,95h68v1h-68z M545,96h70v1h-70z M545,97h70v1h-70z M544,98h70v1h-70z M544,99h69v1h-69z M544,100h68v1h-68z M544,101h67v1h-67z M543,102h67v1h-67z M543,103h66v1h-66z M542,104h66v1h-66z M542,105h64v1h-64z M542,106h63v1h-63z M541,107h63v1h-63z M541,108h62v1h-62z M540,109h62v1h-62z M540,110h61v1h-61z M540,111h60v1h-60z M539,112h60v1h-60z M539,113h59v1h-59z M538,114h59v1h-59z M538,115h58v1h-58z M537,116h58v1h-58z M537,117h57v1h-57z M536,118h56v1h-56z M535,119h56v1h-56z M535,120h55v1h-55z M534,121h55v1h-55z M534,122h54v1h-54z M533,123h54v1h-54z M532,124h54v1h-54z M532,125h53v1h-53z M531,126h53v1h-53z M531,127h52v1h-52z M530,128h52v1h-52z M529,129h52v1h-52z M528,130h52v1h-52z M528,131h50v1h-50z M527,132h50v1h-50z M526,133h50v1h-50z M526,134h49v1h-49z M525,135h49v1h-49z M524,136h49v1h-49z M523,137h49v1h-49z M523,138h48v1h-48z M522,139h48v1h-48z M521,140h48v1h-48z M520,141h48v1h-48z M519,142h48v1h-48z M518,143h48v1h-48z M517,144h48v1h-48z M517,145h46v1h-46z M516,146h46v1h-46z M515,147h46v1h-46z M514,148h46v1h-46z M513,149h46v1h-46z M512,150h46v1h-46z"/>
<path d="M211,66h49v1h-49z M207,67h57v1h-57z M204,68h62v1h-62z M202,69h66v1h-66z M200,70h70v1h-70z M198,71h74v1h-74z M196,72h78v1h-78z M194,73h81v1h-81z M193,74h83v1h-83z M191,75h86v1h-86z M190,76h88v1h-88z M189,77h90v1h-90z M188,78h92v1h-92z M187,79h94v1h-94z M186,80h96v1h-96z M185,81h98v1h-98z M184,82h100v1h-100z M183,83h101v1h-101z M182,84h103v1h-103z M181,85h104v1h-104z M180,86h106v1h-106z M180,87h106v1h-106z M179,88h108v1h-108z M178,89h109v1h-109z M178,90h110v1h-110z M177,91h111v1h-111z M176,92h112v1h-112z M176,93h113v1h-113z M175,94h114v1h-114z M175,95h44v1h-44z M250,95h39v1h-39z M174,96h41v1h-41z M253,96h36v1h-36z M174,97h39v1h-39z M255,97h35v1h-35z M174,98h37v1h-37z M256,98h34v1h-34z M173,99h37v1h-37z M257,99h33v1h-33z M173,100h35v1h-35z M258,100h32v1h-32z M173,101h34v1h-34z M258,101h32v1h-32z M172,102h34v1h-34z M259,102h31v1h-31z M172,103h33v1h-33z M259,103h31v1h-31z M172,104h33v1h-33z M259,104h31v1h-31z M172,105h32v1h-32z M259,105h31v1h-31z M171,106h32v1h-32z M259,106h31v1h-31z M171,107h32v1h-32z M259,107h31v1h-31z M171,108h31v1h-31z M259,108h31v1h-31z M171,109h31v1h-31z M258,109h32v1h-32z M171,110h31v1h-31z M258,110h32v1h-32z M171,111h31v1h-31z M258,111h31v1h-31z M171,112h31v1h-31z M257,112h32v1h-32z M171,113h31v1h-31z M256,113h33v1h-33z M171,114h31v1h-31z M256,114h33v1h-33z M171,115h31v1h-31z M255,115h33v1h-33z M171,116h31v1h-31z M254,116h34v1h-34z M171,117h32v1h-32z M253,117h35v1h-35z M171,118h33v1h-33z M251,118h37v1h-37z M171,119h34v1h-34z M250,119h37v1h-37z M171,120h35v1h-35z M248,120h39v1h-39z M172,121h35v1h-35z M246,121h40v1h-40z M172,122h38v1h-38z M242,122h44v1h-44z M172,123h113v1h-113z M172,124h113v1h-113z M173,125h111v1h-111z M173,126h111v1h-111z M173,127h110v1h-110z M174,128h109v1h-109z M174,129h108v1h-108z M174,130h107v1h-107z M175,131h106v1h-106z M175,132h105v1h-105z M176,133h103v1h-103z M177,134h101v1h-101z M177,135h100v1h-100z M178,136h98v1h-98z M179,137h96v1h-96z M180,138h94v1h-94z M180,139h93v1h-93z M181,140h91v1h-91z M182,141h89v1h-89z M183,142h87v1h-87z M185,143h83v1h-83z M186,144h81v1h-81z M187,145h78v1h-78z M189,146h74v1h-74z M190,147h71v1h-71z M192,148h67v1h-67z M195,149h62v1h-62z M197,150h57v1h-57z M201,151h49v1h-49z"/>
<path d="M438,66h56v1h-56z M433,67h65v1h-65z M430,68h71v1h-71z M427,69h77v1h-77z M424,70h81v1h-81z M422,71h85v1h-85z M420,72h88v1h-88z M419,73h90v1h-90z M417,74h93v1h-93z M416,75h95v1h-95z M415,76h96v1h-96z M413,77h99v1h-99z M412,78h100v1h-100z M411,79h102v1h-102z M411,80h102v1h-102z M410,81h103v1h-103z M409,82h104v1h-104z M408,83h105v1h-105z M408,84h105v1h-105z M407,85h106v1h-106z M407,86h106v1h-106z M406,87h107v1h-107z M406,88h107v1h-107z M405,89h108v1h-108z M405,90h33v1h-33z M479,90h34v1h-34z M405,91h31v1h-31z M480,91h32v1h-32z M404,92h31v1h-31z M480,92h32v1h-32z M404,93h31v1h-31z M480,93h32v1h-32z M404,94h31v1h-31z M480,94h31v1h-31z M404,95h31v1h-31z M480,95h31v1h-31z M404,96h31v1h-31z M479,96h31v1h-31z M404,97h31v1h-31z M478,97h32v1h-32z M404,98h32v1h-32z M476,98h33v1h-33z M404,99h104v1h-104z M404,100h104v1h-104z M404,101h103v1h-103z M404,102h102v1h-102z M405,103h100v1h-100z M405,104h99v1h-99z M406,105h97v1h-97z M407,106h95v1h-95z M406,107h94v1h-94z M404,108h95v1h-95z M403,109h97v1h-97z M402,110h99v1h-99z M400,111h101v1h-101z M399,112h103v1h-103z M398,113h104v1h-104z M397,114h106v1h-106z M397,115h106v1h-106z M396,116h107v1h-107z M395,117h108v1h-108z M394,118h109v1h-109z M394,119h35v1h-35z M468,119h35v1h-35z M393,120h34v1h-34z M470,120h33v1h-33z M393,121h33v1h-33z M470,121h33v1h-33z M392,122h33v1h-33z M470,122h33v1h-33z M392,123h33v1h-33z M470,123h33v1h-33z M391,124h34v1h-34z M470,124h33v1h-33z M391,125h34v1h-34z M469,125h33v1h-33z M391,126h34v1h-34z M469,126h33v1h-33z M391,127h34v1h-34z M467,127h35v1h-35z M390,128h111v1h-111z M390,129h111v1h-111z M390,130h110v1h-110z M390,131h110v1h-110z M390,132h109v1h-109z M390,133h109v1h-109z M390,134h108v1h-108z M390,135h107v1h-107z M390,136h107v1h-107z M390,137h106v1h-106z M391,138h104v1h-104z M391,139h103v1h-103z M391,140h102v1h-102z M392,141h100v1h-100z M393,142h98v1h-98z M393,143h96v1h-96z M394,144h94v1h-94z M396,145h90v1h-90z M397,146h87v1h-87z M398,147h84v1h-84z M400,148h79v1h-79z M403,149h73v1h-73z M405,150h68v1h-68z M410,151h58v1h-58z"/>
<path d="M28,67h27v1h-27z M27,68h30v1h-30z M26,69h31v1h-31z M26,70h32v1h-32z M25,71h33v1h-33z M25,72h33v1h-33z M25,73h33v1h-33z M24,74h33v1h-33z M24,75h33v1h-33z M24,76h33v1h-33z M23,77h33v1h-33z M23,78h33v1h-33z M23,79h33v1h-33z M22,80h33v1h-33z M22,81h33v1h-33z M22,82h33v1h-33z M21,83h33v1h-33z M21,84h33v1h-33z M21,85h32v1h-32z M20,86h33v1h-33z M20,87h33v1h-33z M20,88h32v1h-32z M19,89h33v1h-33z M19,90h33v1h-33z M18,91h33v1h-33z M18,92h33v1h-33z M18,93h33v1h-33z M17,94h33v1h-33z M17,95h33v1h-33z M17,96h33v1h-33z M16,97h33v1h-33z M16,98h33v1h-33z M16,99h33v1h-33z M15,100h33v1h-33z M15,101h33v1h-33z M15,102h33v1h-33z M14,103h33v1h-33z M14,104h33v1h-33z M14,105h33v1h-33z M13,106h33v1h-33z M13,107h33v1h-33z M13,108h33v1h-33z M12,109h33v1h-33z M12,110h33v1h-33z M12,111h33v1h-33z M11,112h33v1h-33z M11,113h33v1h-33z M11,114h32v1h-32z M10,115h33v1h-33z M10,116h33v1h-33z M10,117h32v1h-32z M9,118h33v1h-33z M9,119h33v1h-33z M8,120h33v1h-33z M8,121h33v1h-33z M8,122h33v1h-33z M7,123h33v1h-33z M7,124h33v1h-33z M7,125h33v1h-33z M6,126h33v1h-33z M6,127h33v1h-33z M6,128h33v1h-33z M5,129h33v1h-33z M5,130h33v1h-33z M5,131h33v1h-33z M4,132h33v1h-33z M4,133h33v1h-33z M4,134h33v1h-33z M3,135h33v1h-33z M3,136h33v1h-33z M3,137h33v1h-33z M2,138h33v1h-33z M2,139h33v1h-33z M2,140h33v1h-33z M1,141h33v1h-33z M1,142h33v1h-33z M1,143h32v1h-32z M0,144h33v1h-33z M0,145h33v1h-33z M0,146h32v1h-32z M0,147h32v1h-32z M0,148h32v1h-32z M1,149h30v1h-30z M2,150h28v1h-28z"/>
<path d="M69,67h31v1h-31z M146,67h27v1h-27z M68,68h34v1h-34z M145,68h30v1h-30z M67,69h35v1h-35z M144,69h31v1h-31z M67,70h36v1h-36z M144,70h32v1h-32z M67,71h37v1h-37z M143,71h33v1h-33z M66,72h38v1h-38z M143,72h33v1h-33z M66,73h39v1h-39z M143,73h33v1h-33z M65,74h41v1h-41z M142,74h33v1h-33z M65,75h41v1h-41z M142,75h33v1h-33z M65,76h42v1h-42z M142,76h33v1h-33z M64,77h44v1h-44z M141,77h33v1h-33z M64,78h44v1h-44z M141,78h33v1h-33z M64,79h45v1h-45z M141,79h33v1h-33z M63,80h47v1h-47z M140,80h33v1h-33z M63,81h47v1h-47z M140,81h33v1h-33z M63,82h48v1h-48z M140,82h33v1h-33z M62,83h50v1h-50z M139,83h33v1h-33z M62,84h50v1h-50z M139,84h33v1h-33z M62,85h51v1h-51z M139,85h33v1h-33z M61,86h53v1h-53z M138,86h33v1h-33z M61,87h53v1h-53z M138,87h33v1h-33z M61,88h54v1h-54z M138,88h33v1h-33z M60,89h55v1h-55z M137,89h33v1h-33z M60,90h56v1h-56z M137,90h33v1h-33z M60,91h57v1h-57z M137,91h33v1h-33z M59,92h58v1h-58z M136,92h33v1h-33z M59,93h59v1h-59z M136,93h33v1h-33z M59,94h60v1h-60z M136,94h32v1h-32z M58,95h61v1h-61z M135,95h33v1h-33z M58,96h62v1h-62z M135,96h33v1h-33z M58,97h63v1h-63z M135,97h32v1h-32z M57,98h64v1h-64z M134,98h33v1h-33z M57,99h65v1h-65z M134,99h33v1h-33z M57,100h66v1h-66z M133,100h33v1h-33z M56,101h67v1h-67z M133,101h33v1h-33z M56,102h68v1h-68z M133,102h33v1h-33z M55,103h70v1h-70z M132,103h33v1h-33z M55,104h70v1h-70z M132,104h33v1h-33z M55,105h71v1h-71z M132,105h33v1h-33z M54,106h73v1h-73z M131,106h33v1h-33z M54,107h33v1h-33z M88,107h39v1h-39z M131,107h33v1h-33z M54,108h33v1h-33z M88,108h40v1h-40z M131,108h33v1h-33z M53,109h33v1h-33z M89,109h40v1h-40z M130,109h33v1h-33z M53,110h33v1h-33z M90,110h39v1h-39z M130,110h33v1h-33z M53,111h33v1h-33z M90,111h73v1h-73z M52,112h33v1h-33z M91,112h71v1h-71z M52,113h33v1h-33z M92,113h70v1h-70z M52,114h33v1h-33z M92,114h70v1h-70z M51,115h33v1h-33z M93,115h68v1h-68z M51,116h33v1h-33z M94,116h67v1h-67z M51,117h33v1h-33z M94,117h67v1h-67z M50,118h33v1h-33z M95,118h65v1h-65z M50,119h33v1h-33z M96,119h64v1h-64z M50,120h33v1h-33z M96,120h64v1h-64z M49,121h33v1h-33z M97,121h62v1h-62z M49,122h33v1h-33z M98,122h61v1h-61z M49,123h33v1h-33z M98,123h60v1h-60z M48,124h33v1h-33z M99,124h59v1h-59z M48,125h33v1h-33z M100,125h58v1h-58z M48,126h32v1h-32z M100,126h57v1h-57z M47,127h33v1h-33z M101,127h56v1h-56z M47,128h33v1h-33z M102,128h55v1h-55z M46,129h33v1h-33z M102,129h54v1h-54z M46,130h33v1h-33z M103,130h53v1h-53z M46,131h33v1h-33z M103,131h53v1h-53z M45,132h33v1h-33z M104,132h51v1h-51z M45,133h33v1h-33z M105,133h50v1h-50z M45,134h33v1h-33z M105,134h50v1h-50z M44,135h33v1h-33z M106,135h48v1h-48z M44,136h33v1h-33z M107,136h47v1h-47z M44,137h33v1h-33z M107,137h47v1h-47z M43,138h33v1h-33z M108,138h45v1h-45z M43,139h33v1h-33z M109,139h44v1h-44z M43,140h33v1h-33z M109,140h44v1h-44z M42,141h33v1h-33z M110,141h42v1h-42z M42,142h33v1h-33z M111,142h41v1h-41z M42,143h33v1h-33z M111,143h41v1h-41z M41,144h33v1h-33z M112,144h39v1h-39z M41,145h33v1h-33z M113,145h38v1h-38z M41,146h33v1h-33z M113,146h38v1h-38z M41,147h32v1h-32z M114,147h36v1h-36z M42,148h31v1h-31z M115,148h35v1h-35z M42,149h30v1h-30z M115,149h34v1h-34z M43,150h28v1h-28z M116,150h32v1h-32z"/>
<path d="M295,67h27v1h-27z M375,67h32v1h-32z M294,68h30v1h-30z M373,68h35v1h-35z M293,69h31v1h-31z M372,69h37v1h-37z M293,70h32v1h-32z M372,70h37v1h-37z M292,71h33v1h-33z M371,71h38v1h-38z M292,72h33v1h-33z M370,72h39v1h-39z M293,73h32v1h-32z M370,73h39v1h-39z M293,74h32v1h-32z M369,74h39v1h-39z M293,75h33v1h-33z M368,75h40v1h-40z M293,76h33v1h-33z M367,76h40v1h-40z M293,77h33v1h-33z M367,77h39v1h-39z M293,78h33v1h-33z M366,78h40v1h-40z M293,79h33v1h-33z M365,79h40v1h-40z M293,80h33v1h-33z M365,80h39v1h-39z M293,81h33v1h-33z M364,81h39v1h-39z M294,82h33v1h-33z M363,82h40v1h-40z M294,83h33v1h-33z M362,83h40v1h-40z M294,84h33v1h-33z M362,84h39v1h-39z M294,85h33v1h-33z M361,85h40v1h-40z M294,86h33v1h-33z M360,86h40v1h-40z M294,87h33v1h-33z M360,87h39v1h-39z M294,88h33v1h-33z M359,88h39v1h-39z M294,89h34v1h-34z M358,89h40v1h-40z M294,90h34v1h-34z M357,90h40v1h-40z M295,91h33v1h-33z M357,91h39v1h-39z M295,92h33v1h-33z M356,92h39v1h-39z M295,93h33v1h-33z M355,93h40v1h-40z M295,94h33v1h-33z M354,94h40v1h-40z M295,95h33v1h-33z M354,95h39v1h-39z M295,96h34v1h-34z M353,96h40v1h-40z M295,97h34v1h-34z M352,97h40v1h-40z M295,98h34v1h-34z M352,98h39v1h-39z M296,99h33v1h-33z M351,99h39v1h-39z M296,100h33v1h-33z M350,100h40v1h-40z M296,101h33v1h-33z M349,101h40v1h-40z M296,102h33v1h-33z M349,102h39v1h-39z M296,103h34v1h-34z M348,103h40v1h-40z M296,104h34v1h-34z M347,104h40v1h-40z M296,105h34v1h-34z M347,105h39v1h-39z M296,106h34v1h-34z M346,106h39v1h-39z M296,107h34v1h-34z M345,107h40v1h-40z M297,108h33v1h-33z M344,108h40v1h-40z M297,109h33v1h-33z M344,109h39v1h-39z M297,110h34v1h-34z M343,110h40v1h-40z M297,111h34v1h-34z M342,111h40v1h-40z M297,112h34v1h-34z M341,112h40v1h-40z M297,113h34v1h-34z M341,113h39v1h-39z M297,114h34v1h-34z M340,114h40v1h-40z M297,115h34v1h-34z M339,115h40v1h-40z M298,116h33v1h-33z M339,116h39v1h-39z M298,117h34v1h-34z M338,117h39v1h-39z M298,118h34v1h-34z M337,118h40v1h-40z M298,119h34v1h-34z M336,119h40v1h-40z M298,120h34v1h-34z M336,120h39v1h-39z M298,121h34v1h-34z M335,121h40v1h-40z M298,122h34v1h-34z M334,122h40v1h-40z M298,123h34v1h-34z M334,123h39v1h-39z M298,124h74v1h-74z M299,125h73v1h-73z M299,126h72v1h-72z M299,127h71v1h-71z M299,128h71v1h-71z M299,129h70v1h-70z M299,130h69v1h-69z M299,131h68v1h-68z M299,132h68v1h-68z M299,133h67v1h-67z M300,134h65v1h-65z M300,135h64v1h-64z M300,136h64v1h-64z M300,137h63v1h-63z M300,138h62v1h-62z M300,139h62v1h-62z M300,140h61v1h-61z M300,141h60v1h-60z M301,142h58v1h-58z M301,143h58v1h-58z M301,144h57v1h-57z M301,145h56v1h-56z M301,146h56v1h-56z M301,147h55v1h-55z M302,148h53v1h-53z M302,149h52v1h-52z M303,150h50v1h-50z"/>
<path d="M571,142h6v1h-6z M571,143h6v1h-6z M573,144h2v1h-2z M573,145h2v1h-2z M573,146h2v1h-2z M572,147h2v1h-2z M572,148h2v1h-2z M572,149h2v1h-2z M572,150h2v1h-2z"/>
<path d="M578,142h1v1h-1z M585,142h1v1h-1z M578,143h2v1h-2z M584,143h2v1h-2z M577,144h3v1h-3z M583,144h3v1h-3z M577,145h3v1h-3z M582,145h4v1h-4z M577,146h4v1h-4z M582,146h4v1h-4z M577,147h6v1h-6z M584,147h1v1h-1z M577,148h1v1h-1z M579,148h6v1h-6z M576,149h2v1h-2z M580,149h2v1h-2z M583,149h2v1h-2z M577,150h1v1h-1z M580,150h1v1h-1z M583,150h2v1h-2z"/>
  </g>
</svg>