<?xml version="1.0" encoding="UTF-8"?>
<svg xmlns="http://www.w3.org/2000/svg" viewBox="0 0 400 160" width="400" height="160">
  <g transform="translate(57.33,12.00) scale(0.333333)" fill="white">
<path d="M313,0h11v1h-11z M291,1h38v1h-38z M279,2h48v1h-48z M271,3h54v1h-54z M263,4h60v1h-60z M256,5h66v1h-66z M251,6h69v1h-69z M245,7h73v1h-73z M240,8h76v1h-76z M235,9h79v1h-79z M231,10h81v1h-81z M227,11h83v1h-83z M223,12h85v1h-85z M219,13h88v1h-88z M216,14h89v1h-89z M212,15h91v1h-91z M209,16h92v1h-92z M207,17h92v1h-92z M204,18h93v1h-93z M202,19h94v1h-94z M199,20h95v1h-95z M197,21h95v1h-95z M195,22h95v1h-95z M193,23h96v1h-96z M192,24h95v1h-95z M190,25h95v1h-95z M188,26h95v1h-95z M187,27h95v1h-95z M185,28h95v1h-95z M184,29h94v1h-94z M183,30h94v1h-94z M181,31h94v1h-94z M180,32h93v1h-93z M179,33h92v1h-92z M177,34h93v1h-93z M176,35h92v1h-92z M175,36h91v1h-91z M174,37h91v1h-91z M173,38h90v1h-90z M172,39h90v1h-90z M171,40h89v1h-89z M170,41h88v1h-88z M169,42h88v1h-88z M167,43h88v1h-88z M166,44h87v1h-87z M165,45h87v1h-87z M164,46h86v1h-86z M163,47h86v1h-86z M162,48h85v1h-85z M161,49h85v1h-85z M160,50h84v1h-84z M159,51h83v1h-83z M158,52h83v1h-83z M157,53h82v1h-82z M156,54h82v1h-82z M155,55h81v1h-81z M154,56h81v1h-81z M153,57h80v1h-80z M152,58h80v1h-80z M151,59h79v1h-79z M150,60h79v1h-79z M149,61h78v1h-78z M148,62h78v1h-78z M147,63h77v1h-77z M146,64h77v1h-77z M145,65h76v1h-76z M144,66h76v1h-76z M143,67h75v1h-75z M142,68h75v1h-75z M141,69h74v1h-74z M140,70h74v1h-74z M139,71h74v1h-74z M139,72h72v1h-72z M138,73h72v1h-72z M137,74h71v1h-71z M136,75h71v1h-71z M135,76h70v1h-70z M134,77h70v1h-70z M133,78h70v1h-70z M132,79h69v1h-69z M131,80h69v1h-69z M130,81h68v1h-68z M129,82h68v1h-68z M128,83h68v1h-68z M127,84h67v1h-67z M126,85h67v1h-67z M125,86h67v1h-67z M124,87h66v1h-66z M123,88h66v1h-66z M122,89h65v1h-65z M121,90h65v1h-65z M120,91h65v1h-65z M120,92h63v1h-63z M119,93h63v1h-63z M118,94h63v1h-63z M117,95h62v1h-62z M116,96h62v1h-62z M115,97h62v1h-62z M114,98h62v1h-62z M113,99h61v1h-61z M112,100h61v1h-61z M111,101h61v1h-61z M110,102h60v1h-60z M109,103h60v1h-60z M108,104h60v1h-60z M107,105h59v1h-59z M106,106h59v1h-59z M106,107h58v1h-58z M105,108h58v1h-58z M104,109h57v1h-57z M103,110h57v1h-57z M102,111h57v1h-57z M101,112h57v1h-57z M100,113h56v1h-56z M99,114h56v1h-56z M98,115h56v1h-56z M97,116h56v1h-56z M96,117h55v1h-55z M95,118h55v1h-55z M95,119h54v1h-54z M94,120h54v1h-54z M93,121h54v1h-54z M92,122h53v1h-53z M91,123h53v1h-53z M90,124h53v1h-53z M89,125h53v1h-53z M88,126h52v1h-52z M87,127h52v1h-52z M86,128h52v1h-52z M85,129h52v1h-52z M84,130h52v1h-52z M84,131h51v1h-51z M83,132h50v1h-50z M82,133h50v1h-50z M81,134h50v1h-50z M80,135h50v1h-50z M79,136h50v1h-50z M78,137h49v1h-49z M77,138h49v1h-49z M76,139h49v1h-49z M75,140h49v1h-49z M75,141h48v1h-48z M74,142h48v1h-48z M73,143h48v1h-48z M72,144h47v1h-47z M71,145h47v1h-47z M70,146h47v1h-47z M69,147h47v1h-47z M68,148h47v1h-47z M67,149h47v1h-47z M66,150h47v1h-47z M66,151h45v1h-45z M65,152h45v1h-45z M64,153h45v1h-45z M63,154h45v1h-45z M62,155h45v1h-45z M61,156h45v1h-45z M60,157h45v1h-45z M59,158h45v1h-45z M58,159h44v1h-44z M57,160h44v1h-44z M57,161h43v1h-43z M56,162h43v1h-43z M55,163h43v1h-43z M54,164h43v1h-43z M53,165h43v1h-43z M52,166h43v1h-43z M51,167h43v1h-43z M50,168h43v1h-43z M49,169h43v1h-43z M49,170h41v1h-41z M48,171h41v1h-41z M47,172h41v1h-41z M46,173h41v1h-41z M45,174h41v1h-41z M44,175h41v1h-41z M43,176h41v1h-41z M42,177h41v1h-41z M42,178h40v1h-40z M41,179h40v1h-40z M40,180h40v1h-40z M39,181h40v1h-40z M38,182h40v1h-40z M37,183h40v1h-40z M36,184h40v1h-40z M35,185h40v1h-40z M35,186h38v1h-38z M34,187h38v1h-38z M33,188h38v1h-38z M32,189h38v1h-38z M31,190h38v1h-38z M30,191h38v1h-38z M29,192h38v1h-38z M28,193h38v1h-38z M28,194h37v1h-37z M27,195h37v1h-37z M26,196h37v1h-37z M25,197h37v1h-37z M24,198h37v1h-37z M23,199h37v1h-37z M22,200h37v1h-37z M21,201h37v1h-37z M21,202h36v1h-36z M20,203h36v1h-36z M19,204h36v1h-36z M18,205h36v1h-36z M17,206h36v1h-36z M16,207h36v1h-36z M15,208h36v1h-36z M15,209h35v1h-35z M14,210h35v1h-35z M13,211h35v1h-35z M12,212h35v1h-35z M11,213h35v1h-35z M10,214h35v1h-35z M9,215h35v1h-35z M9,216h34v1h-34z M8,217h34v1h-34z M7,218h34v1h-34z M6,219h34v1h-34z M5,220h34v1h-34z M4,221h34v1h-34z M3,222h34v1h-34z M3,223h33v1h-33z M2,224h33v1h-33z M1,225h33v1h-33z M0,226h33v1h-33z M0,227h32v1h-32z"/>
<path d="M391,57h82v1h-82z M370,58h125v1h-125z M355,59h156v1h-156z M343,60h182v1h-182z M333,61h204v1h-204z M323,62h225v1h-225z M314,63h245v1h-245z M306,64h262v1h-262z M299,65h279v1h-279z M292,66h294v1h-294z M285,67h310v1h-310z M279,68h324v1h-324z M273,69h338v1h-338z M267,70h351v1h-351z M262,71h364v1h-364z M258,72h375v1h-375z M254,73h386v1h-386z M251,74h396v1h-396z M248,75h406v1h-406z M245,76h415v1h-415z M242,77h425v1h-425z M240,78h433v1h-433z M238,79h442v1h-442z M235,80h451v1h-451z M233,81h459v1h-459z M231,82h467v1h-467z M229,83h475v1h-475z M228,84h482v1h-482z M226,85h490v1h-490z M224,86h498v1h-498z M223,87h505v1h-505z M221,88h512v1h-512z M219,89h520v1h-520z M218,90h527v1h-527z M216,91h534v1h-534z M215,92h540v1h-540z M213,93h548v1h-548z M212,94h554v1h-554z M211,95h560v1h-560z M209,96h568v1h-568z M208,97h574v1h-574z M206,98h581v1h-581z M205,99h587v1h-587z M204,100h593v1h-593z M202,101h600v1h-600z M201,102h606v1h-606z M199,103h613v1h-613z M198,104h619v1h-619z M197,105h624v1h-624z M195,106h631v1h-631z M194,107h637v1h-637z M192,108h643v1h-643z M191,109h649v1h-649z M190,110h655v1h-655z M188,111h661v1h-661z M187,112h666v1h-666z M186,113h670v1h-670z M184,114h672v1h-672z M183,115h671v1h-671z M182,116h670v1h-670z M180,117h671v1h-671z M179,118h670v1h-670z M178,119h670v1h-670z M176,120h670v1h-670z M175,121h669v1h-669z M174,122h668v1h-668z M172,123h669v1h-669z M171,124h668v1h-668z M170,125h667v1h-667z M168,126h668v1h-668z M167,127h667v1h-667z M166,128h666v1h-666z M165,129h665v1h-665z M163,130h666v1h-666z M162,131h665v1h-665z M161,132h664v1h-664z M159,133h664v1h-664z M158,134h664v1h-664z M157,135h128v1h-128z M322,135h498v1h-498z M156,136h119v1h-119z M333,136h485v1h-485z M154,137h114v1h-114z M340,137h476v1h-476z M153,138h110v1h-110z M347,138h467v1h-467z M152,139h106v1h-106z M352,139h461v1h-461z M151,140h102v1h-102z M358,140h453v1h-453z M149,141h100v1h-100z M362,141h447v1h-447z M148,142h98v1h-98z M367,142h440v1h-440z M147,143h95v1h-95z M371,143h434v1h-434z M146,144h93v1h-93z M375,144h428v1h-428z M144,145h92v1h-92z M379,145h423v1h-423z M143,146h90v1h-90z M382,146h418v1h-418z M142,147h88v1h-88z M386,147h412v1h-412z M141,148h86v1h-86z M389,148h407v1h-407z M139,149h85v1h-85z M392,149h402v1h-402z M138,150h84v1h-84z M396,150h396v1h-396z M137,151h82v1h-82z M399,151h391v1h-391z M136,152h81v1h-81z M402,152h386v1h-386z M134,153h80v1h-80z M405,153h382v1h-382z M133,154h79v1h-79z M408,154h377v1h-377z M132,155h78v1h-78z M411,155h372v1h-372z M131,156h77v1h-77z M414,156h367v1h-367z M129,157h76v1h-76z M416,157h363v1h-363z M128,158h75v1h-75z M419,158h358v1h-358z M127,159h74v1h-74z M422,159h353v1h-353z M126,160h73v1h-73z M425,160h348v1h-348z M125,161h72v1h-72z M427,161h344v1h-344z M123,162h72v1h-72z M430,162h339v1h-339z M122,163h71v1h-71z M432,163h335v1h-335z M121,164h70v1h-70z M435,164h330v1h-330z M120,165h69v1h-69z M437,165h326v1h-326z M119,166h68v1h-68z M440,166h321v1h-321z M117,167h68v1h-68z M442,167h317v1h-317z M116,168h67v1h-67z M445,168h312v1h-312z M115,169h67v1h-67z M447,169h308v1h-308z M114,170h66v1h-66z M450,170h303v1h-303z M113,171h65v1h-65z M452,171h299v1h-299z M111,172h65v1h-65z M455,172h294v1h-294z M110,173h64v1h-64z M457,173h290v1h-290z M109,174h64v1h-64z M459,174h286v1h-286z M108,175h63v1h-63z M462,175h281v1h-281z M107,176h62v1h-62z M464,176h277v1h-277z M105,177h62v1h-62z M466,177h273v1h-273z M104,178h62v1h-62z M469,178h268v1h-268z M103,179h61v1h-61z M471,179h263v1h-263z M102,180h60v1h-60z M473,180h259v1h-259z M101,181h60v1h-60z M475,181h255v1h-255z M99,182h60v1h-60z M478,182h250v1h-250z M98,183h59v1h-59z M480,183h246v1h-246z M97,184h59v1h-59z M482,184h242v1h-242z M96,185h58v1h-58z M484,185h238v1h-238z M95,186h57v1h-57z M486,186h233v1h-233z M94,187h57v1h-57z M489,187h228v1h-228z M92,188h57v1h-57z M491,188h224v1h-224z M91,189h57v1h-57z M493,189h220v1h-220z M90,190h56v1h-56z M495,190h216v1h-216z M89,191h55v1h-55z M497,191h211v1h-211z M88,192h55v1h-55z M500,192h206v1h-206z M87,193h54v1h-54z M502,193h202v1h-202z M86,194h54v1h-54z M504,194h198v1h-198z M84,195h54v1h-54z M506,195h193v1h-193z M83,196h54v1h-54z M508,196h189v1h-189z M82,197h53v1h-53z M510,197h185v1h-185z M81,198h52v1h-52z M513,198h180v1h-180z M80,199h52v1h-52z M515,199h175v1h-175z M79,200h51v1h-51z M517,200h171v1h-171z M77,201h52v1h-52z M519,201h166v1h-166z M76,202h51v1h-51z M521,202h162v1h-162z M75,203h51v1h-51z M523,203h158v1h-158z M74,204h50v1h-50z M526,204h152v1h-152z M73,205h49v1h-49z M528,205h148v1h-148z M72,206h49v1h-49z M530,206h144v1h-144z M71,207h48v1h-48z M532,207h139v1h-139z M70,208h48v1h-48z M534,208h135v1h-135z M68,209h48v1h-48z M537,209h129v1h-129z M67,210h47v1h-47z M539,210h125v1h-125z M66,211h47v1h-47z M541,211h120v1h-120z M65,212h46v1h-46z M544,212h115v1h-115z M64,213h46v1h-46z M546,213h110v1h-110z M63,214h45v1h-45z M548,214h106v1h-106z M62,215h44v1h-44z M551,215h100v1h-100z M61,216h44v1h-44z M553,216h95v1h-95z M60,217h43v1h-43z M556,217h90v1h-90z M58,218h43v1h-43z M559,218h84v1h-84z M57,219h43v1h-43z M561,219h79v1h-79z M56,220h42v1h-42z M564,220h73v1h-73z M55,221h41v1h-41z M567,221h67v1h-67z M54,222h40v1h-40z M571,222h59v1h-59z M53,223h38v1h-38z M574,223h52v1h-52z M52,224h37v1h-37z M578,224h44v1h-44z M51,225h35v1h-35z M583,225h34v1h-34z M50,226h31v1h-31z M590,226h20v1h-20z M49,227h24v1h-24z"/>
<path d="M779,291h14v1h-14z M762,292h47v1h-47z M753,293h65v1h-65z M746,294h78v1h-78z M740,295h90v1h-90z M735,296h100v1h-100z M731,297h108v1h-108z M727,298h116v1h-116z M723,299h123v1h-123z M720,300h129v1h-129z M718,301h134v1h-134z M718,302h134v1h-134z M717,303h135v1h-135z M717,304h135v1h-135z M717,305h135v1h-135z M717,306h134v1h-134z M716,307h135v1h-135z M716,308h135v1h-135z M716,309h135v1h-135z M716,310h134v1h-134z M715,311h135v1h-135z M715,312h135v1h-135z M715,313h135v1h-135z M715,314h134v1h-134z M714,315h135v1h-135z M714,316h135v1h-135z M714,317h134v1h-134z M714,318h56v1h-56z M797,318h51v1h-51z M713,319h48v1h-48z M807,319h41v1h-41z M713,320h42v1h-42z M814,320h34v1h-34z M713,321h37v1h-37z M820,321h27v1h-27z M713,322h32v1h-32z M825,322h22v1h-22z M712,323h31v1h-31z M830,323h17v1h-17z M712,324h30v1h-30z M834,324h13v1h-13z M712,325h30v1h-30z M838,325h8v1h-8z M712,326h30v1h-30z M841,326h5v1h-5z M711,327h31v1h-31z M844,327h2v1h-2z M711,328h30v1h-30z M711,329h30v1h-30z M711,330h30v1h-30z M710,331h31v1h-31z M710,332h30v1h-30z M710,333h30v1h-30z M773,333h20v1h-20z M710,334h30v1h-30z M772,334h33v1h-33z M709,335h31v1h-31z M772,335h41v1h-41z M709,336h31v1h-31z M772,336h47v1h-47z M709,337h30v1h-30z M772,337h52v1h-52z M709,338h30v1h-30z M771,338h58v1h-58z M708,339h31v1h-31z M771,339h62v1h-62z M708,340h31v1h-31z M771,340h66v1h-66z M708,341h30v1h-30z M771,341h69v1h-69z M708,342h30v1h-30z M771,342h72v1h-72z M707,343h31v1h-31z M770,343h73v1h-73z M707,344h31v1h-31z M770,344h72v1h-72z M707,345h30v1h-30z M770,345h72v1h-72z M707,346h30v1h-30z M770,346h72v1h-72z M706,347h31v1h-31z M769,347h73v1h-73z M706,348h31v1h-31z M769,348h72v1h-72z M706,349h30v1h-30z M769,349h72v1h-72z M706,350h30v1h-30z M769,350h72v1h-72z M705,351h31v1h-31z M769,351h72v1h-72z M705,352h31v1h-31z M768,352h72v1h-72z M705,353h30v1h-30z M768,353h72v1h-72z M705,354h30v1h-30z M768,354h72v1h-72z M704,355h31v1h-31z M787,355h53v1h-53z M704,356h31v1h-31z M801,356h38v1h-38z M704,357h31v1h-31z M808,357h31v1h-31z M704,358h30v1h-30z M808,358h31v1h-31z M703,359h31v1h-31z M808,359h31v1h-31z M703,360h31v1h-31z M808,360h30v1h-30z M703,361h31v1h-31z M807,361h31v1h-31z M703,362h30v1h-30z M807,362h31v1h-31z M702,363h31v1h-31z M807,363h31v1h-31z M702,364h31v1h-31z M807,364h30v1h-30z M702,365h31v1h-31z M806,365h31v1h-31z M702,366h30v1h-30z M806,366h31v1h-31z M701,367h31v1h-31z M806,367h30v1h-30z M701,368h31v1h-31z M806,368h30v1h-30z M701,369h31v1h-31z M805,369h31v1h-31z M701,370h30v1h-30z M805,370h31v1h-31z M700,371h31v1h-31z M805,371h30v1h-30z M700,372h31v1h-31z M805,372h30v1h-30z M700,373h31v1h-31z M805,373h30v1h-30z M700,374h31v1h-31z M804,374h31v1h-31z M699,375h31v1h-31z M804,375h30v1h-30z M699,376h32v1h-32z M802,376h32v1h-32z M699,377h36v1h-36z M797,377h37v1h-37z M699,378h41v1h-41z M791,378h43v1h-43z M698,379h48v1h-48z M784,379h49v1h-49z M698,380h57v1h-57z M776,380h57v1h-57z M698,381h135v1h-135z M698,382h135v1h-135z M697,383h135v1h-135z M697,384h135v1h-135z M697,385h135v1h-135z M697,386h135v1h-135z M696,387h135v1h-135z M696,388h135v1h-135z M696,389h135v1h-135z M696,390h135v1h-135z M695,391h135v1h-135z M695,392h135v1h-135z M695,393h135v1h-135z M695,394h134v1h-134z M694,395h135v1h-135z M694,396h135v1h-135z M694,397h135v1h-135z M697,398h131v1h-131z M700,399h124v1h-124z M704,400h117v1h-117z M708,401h109v1h-109z M712,402h100v1h-100z M717,403h90v1h-90z M723,404h78v1h-78z M730,405h64v1h-64z M739,406h46v1h-46z M757,407h9v1h-9z"/>
<path d="M29,294h30v1h-30z M28,295h31v1h-31z M28,296h31v1h-31z M28,297h31v1h-31z M28,298h30v1h-30z M27,299h31v1h-31z M27,300h31v1h-31z M27,301h31v1h-31z M27,302h30v1h-30z M26,303h31v1h-31z M26,304h31v1h-31z M26,305h31v1h-31z M26,306h30v1h-30z M25,307h31v1h-31z M25,308h31v1h-31z M25,309h31v1h-31z M25,310h30v1h-30z M24,311h31v1h-31z M24,312h31v1h-31z M24,313h31v1h-31z M24,314h30v1h-30z M23,315h31v1h-31z M23,316h31v1h-31z M23,317h31v1h-31z M23,318h30v1h-30z M22,319h31v1h-31z M22,320h31v1h-31z M22,321h31v1h-31z M22,322h30v1h-30z M21,323h31v1h-31z M21,324h31v1h-31z M21,325h31v1h-31z M21,326h30v1h-30z M20,327h31v1h-31z M20,328h31v1h-31z M20,329h31v1h-31z M20,330h31v1h-31z M19,331h31v1h-31z M19,332h31v1h-31z M19,333h31v1h-31z M19,334h31v1h-31z M18,335h31v1h-31z M18,336h31v1h-31z M18,337h31v1h-31z M18,338h31v1h-31z M17,339h31v1h-31z M17,340h31v1h-31z M17,341h31v1h-31z M17,342h31v1h-31z M16,343h31v1h-31z M16,344h31v1h-31z M16,345h31v1h-31z M16,346h31v1h-31z M15,347h31v1h-31z M15,348h31v1h-31z M15,349h31v1h-31z M15,350h31v1h-31z M14,351h31v1h-31z M14,352h31v1h-31z M14,353h31v1h-31z M14,354h31v1h-31z M13,355h31v1h-31z M13,356h31v1h-31z M13,357h31v1h-31z M119,357h31v1h-31z M12,358h32v1h-32z M119,358h31v1h-31z M12,359h31v1h-31z M118,359h31v1h-31z M12,360h31v1h-31z M118,360h31v1h-31z M12,361h31v1h-31z M118,361h31v1h-31z M11,362h32v1h-32z M118,362h31v1h-31z M11,363h31v1h-31z M117,363h31v1h-31z M11,364h31v1h-31z M117,364h31v1h-31z M11,365h31v1h-31z M117,365h31v1h-31z M10,366h32v1h-32z M117,366h31v1h-31z M10,367h31v1h-31z M116,367h31v1h-31z M10,368h31v1h-31z M116,368h31v1h-31z M10,369h31v1h-31z M116,369h31v1h-31z M9,370h32v1h-32z M115,370h31v1h-31z M9,371h31v1h-31z M115,371h31v1h-31z M9,372h31v1h-31z M115,372h31v1h-31z M9,373h31v1h-31z M115,373h31v1h-31z M8,374h32v1h-32z M114,374h31v1h-31z M8,375h31v1h-31z M114,375h31v1h-31z M8,376h32v1h-32z M112,376h33v1h-33z M8,377h37v1h-37z M106,377h39v1h-39z M7,378h43v1h-43z M101,378h43v1h-43z M7,379h49v1h-49z M94,379h50v1h-50z M7,380h57v1h-57z M85,380h59v1h-59z M7,381h136v1h-136z M6,382h137v1h-137z M6,383h137v1h-137z M6,384h137v1h-137z M6,385h136v1h-136z M5,386h137v1h-137z M5,387h137v1h-137z M5,388h137v1h-137z M5,389h136v1h-136z M4,390h137v1h-137z M4,391h137v1h-137z M4,392h137v1h-137z M4,393h136v1h-136z M3,394h137v1h-137z M3,395h137v1h-137z M3,396h136v1h-136z M4,397h135v1h-135z M6,398h131v1h-131z M10,399h124v1h-124z M13,400h117v1h-117z M17,401h109v1h-109z M21,402h101v1h-101z M26,403h91v1h-91z M32,404h79v1h-79z M39,405h65v1h-65z M48,406h46v1h-46z M66,407h10v1h-10z"/>
<path d="M191,294h30v1h-30z M191,295h30v1h-30z M190,296h31v1h-31z M190,297h31v1h-31z M190,298h31v1h-31z M190,299h30v1h-30z M189,300h31v1h-31z M189,301h31v1h-31z M189,302h31v1h-31z M189,303h30v1h-30z M188,304h31v1h-31z M188,305h31v1h-31z M188,306h31v1h-31z M187,307h31v1h-31z M187,308h31v1h-31z M187,309h31v1h-31z M187,310h31v1h-31z M186,311h31v1h-31z M186,312h31v1h-31z M186,313h31v1h-31z M186,314h31v1h-31z M185,315h31v1h-31z M185,316h31v1h-31z M185,317h31v1h-31z M185,318h31v1h-31z M184,319h31v1h-31z M184,320h31v1h-31z M184,321h31v1h-31z M184,322h31v1h-31z M183,323h31v1h-31z M183,324h31v1h-31z M183,325h31v1h-31z M183,326h31v1h-31z M182,327h31v1h-31z M182,328h31v1h-31z M182,329h31v1h-31z M182,330h31v1h-31z M181,331h31v1h-31z M181,332h31v1h-31z M181,333h31v1h-31z M181,334h31v1h-31z M180,335h31v1h-31z M180,336h31v1h-31z M180,337h31v1h-31z M180,338h31v1h-31z M179,339h31v1h-31z M179,340h31v1h-31z M179,341h31v1h-31z M179,342h31v1h-31z M178,343h31v1h-31z M178,344h31v1h-31z M178,345h31v1h-31z M178,346h31v1h-31z M177,347h31v1h-31z M177,348h31v1h-31z M177,349h31v1h-31z M177,350h31v1h-31z M176,351h31v1h-31z M176,352h31v1h-31z M176,353h31v1h-31z M176,354h31v1h-31z M175,355h31v1h-31z M175,356h31v1h-31z M175,357h31v1h-31z M175,358h31v1h-31z M174,359h31v1h-31z M174,360h31v1h-31z M174,361h31v1h-31z M174,362h31v1h-31z M173,363h31v1h-31z M173,364h31v1h-31z M173,365h31v1h-31z M173,366h31v1h-31z M172,367h31v1h-31z M172,368h31v1h-31z M172,369h31v1h-31z M172,370h31v1h-31z M171,371h31v1h-31z M171,372h31v1h-31z M171,373h31v1h-31z M171,374h31v1h-31z M170,375h31v1h-31z M170,376h31v1h-31z M170,377h31v1h-31z M170,378h31v1h-31z M169,379h31v1h-31z M169,380h31v1h-31z M169,381h31v1h-31z M169,382h31v1h-31z M168,383h31v1h-31z M168,384h31v1h-31z M168,385h31v1h-31z M168,386h31v1h-31z M167,387h31v1h-31z M167,388h31v1h-31z M167,389h31v1h-31z M167,390h30v1h-30z M166,391h31v1h-31z M166,392h31v1h-31z M166,393h31v1h-31z M166,394h30v1h-30z M165,395h31v1h-31z M165,396h31v1h-31z M165,397h31v1h-31z M165,398h30v1h-30z M164,399h31v1h-31z M164,400h31v1h-31z M164,401h31v1h-31z M164,402h30v1h-30z M164,403h30v1h-30z"/>
<path d="M335,294h31v1h-31z M439,294h30v1h-30z M335,295h33v1h-33z M438,295h31v1h-31z M334,296h36v1h-36z M438,296h31v1h-31z M334,297h38v1h-38z M438,297h31v1h-31z M334,298h40v1h-40z M438,298h31v1h-31z M334,299h42v1h-42z M437,299h31v1h-31z M333,300h45v1h-45z M437,300h31v1h-31z M333,301h47v1h-47z M437,301h31v1h-31z M333,302h49v1h-49z M437,302h30v1h-30z M333,303h51v1h-51z M436,303h31v1h-31z M332,304h53v1h-53z M436,304h31v1h-31z M332,305h55v1h-55z M436,305h31v1h-31z M332,306h57v1h-57z M435,306h31v1h-31z M332,307h59v1h-59z M435,307h31v1h-31z M331,308h61v1h-61z M435,308h31v1h-31z M331,309h63v1h-63z M435,309h31v1h-31z M331,310h64v1h-64z M434,310h31v1h-31z M331,311h66v1h-66z M434,311h31v1h-31z M330,312h69v1h-69z M434,312h31v1h-31z M330,313h70v1h-70z M434,313h31v1h-31z M330,314h72v1h-72z M433,314h31v1h-31z M330,315h73v1h-73z M433,315h31v1h-31z M329,316h75v1h-75z M433,316h31v1h-31z M329,317h77v1h-77z M433,317h31v1h-31z M329,318h78v1h-78z M432,318h31v1h-31z M329,319h80v1h-80z M432,319h31v1h-31z M328,320h82v1h-82z M432,320h31v1h-31z M328,321h83v1h-83z M432,321h31v1h-31z M328,322h85v1h-85z M431,322h31v1h-31z M328,323h31v1h-31z M360,323h54v1h-54z M431,323h31v1h-31z M327,324h31v1h-31z M362,324h53v1h-53z M431,324h31v1h-31z M327,325h31v1h-31z M364,325h53v1h-53z M431,325h31v1h-31z M327,326h31v1h-31z M366,326h52v1h-52z M430,326h31v1h-31z M327,327h31v1h-31z M368,327h51v1h-51z M430,327h31v1h-31z M326,328h31v1h-31z M370,328h50v1h-50z M430,328h31v1h-31z M326,329h31v1h-31z M372,329h50v1h-50z M430,329h31v1h-31z M326,330h31v1h-31z M374,330h49v1h-49z M429,330h31v1h-31z M326,331h31v1h-31z M375,331h49v1h-49z M429,331h31v1h-31z M325,332h31v1h-31z M377,332h48v1h-48z M429,332h31v1h-31z M325,333h31v1h-31z M379,333h47v1h-47z M429,333h31v1h-31z M325,334h31v1h-31z M381,334h46v1h-46z M428,334h31v1h-31z M325,335h30v1h-30z M382,335h77v1h-77z M324,336h31v1h-31z M384,336h75v1h-75z M324,337h31v1h-31z M385,337h74v1h-74z M324,338h31v1h-31z M387,338h71v1h-71z M324,339h30v1h-30z M388,339h70v1h-70z M323,340h31v1h-31z M390,340h68v1h-68z M323,341h31v1h-31z M391,341h67v1h-67z M323,342h31v1h-31z M393,342h64v1h-64z M323,343h30v1h-30z M394,343h63v1h-63z M322,344h31v1h-31z M395,344h62v1h-62z M322,345h31v1h-31z M396,345h61v1h-61z M322,346h31v1h-31z M398,346h58v1h-58z M322,347h30v1h-30z M399,347h57v1h-57z M321,348h31v1h-31z M400,348h56v1h-56z M321,349h31v1h-31z M401,349h55v1h-55z M321,350h31v1h-31z M402,350h53v1h-53z M321,351h30v1h-30z M403,351h52v1h-52z M320,352h31v1h-31z M404,352h51v1h-51z M320,353h31v1h-31z M405,353h50v1h-50z M320,354h31v1h-31z M406,354h48v1h-48z M320,355h30v1h-30z M407,355h47v1h-47z M319,356h31v1h-31z M408,356h46v1h-46z M319,357h31v1h-31z M409,357h45v1h-45z M319,358h31v1h-31z M410,358h43v1h-43z M319,359h30v1h-30z M411,359h42v1h-42z M318,360h31v1h-31z M412,360h41v1h-41z M318,361h31v1h-31z M413,361h40v1h-40z M318,362h31v1h-31z M413,362h39v1h-39z M318,363h30v1h-30z M414,363h38v1h-38z M317,364h31v1h-31z M415,364h37v1h-37z M317,365h31v1h-31z M416,365h36v1h-36z M317,366h31v1h-31z M417,366h34v1h-34z M317,367h30v1h-30z M418,367h33v1h-33z M316,368h31v1h-31z M419,368h32v1h-32z M316,369h31v1h-31z M420,369h31v1h-31z M316,370h31v1h-31z M419,370h31v1h-31z M316,371h30v1h-30z M419,371h31v1h-31z M315,372h31v1h-31z M419,372h31v1h-31z M315,373h31v1h-31z M419,373h31v1h-31z M315,374h31v1h-31z M418,374h31v1h-31z M314,375h31v1h-31z M418,375h31v1h-31z M314,376h31v1h-31z M418,376h31v1h-31z M314,377h31v1h-31z M418,377h31v1h-31z M314,378h31v1h-31z M417,378h31v1h-31z M313,379h31v1h-31z M417,379h31v1h-31z M313,380h31v1h-31z M417,380h31v1h-31z M313,381h31v1h-31z M417,381h31v1h-31z M313,382h31v1h-31z M416,382h31v1h-31z M312,383h31v1h-31z M416,383h31v1h-31z M312,384h31v1h-31z M416,384h31v1h-31z M312,385h31v1h-31z M416,385h31v1h-31z M312,386h31v1h-31z M415,386h31v1h-31z M311,387h31v1h-31z M415,387h31v1h-31z M311,388h31v1h-31z M415,388h31v1h-31z M311,389h31v1h-31z M415,389h31v1h-31z M311,390h31v1h-31z M414,390h31v1h-31z M310,391h31v1h-31z M414,391h31v1h-31z M310,392h31v1h-31z M414,392h31v1h-31z M310,393h31v1h-31z M414,393h31v1h-31z M310,394h31v1h-31z M413,394h31v1h-31z M309,395h31v1h-31z M413,395h31v1h-31z M309,396h31v1h-31z M413,396h31v1h-31z M309,397h31v1h-31z M413,397h31v1h-31z M309,398h31v1h-31z M412,398h31v1h-31z M308,399h31v1h-31z M412,399h31v1h-31z M308,400h31v1h-31z M412,400h31v1h-31z M308,401h31v1h-31z M412,401h30v1h-30z M308,402h31v1h-31z M411,402h31v1h-31z M308,403h30v1h-30z M411,403h31v1h-31z"/>
<path d="M498,294h30v1h-30z M498,295h31v1h-31z M497,296h31v1h-31z M497,297h31v1h-31z M497,298h31v1h-31z M497,299h31v1h-31z M496,300h31v1h-31z M496,301h31v1h-31z M496,302h31v1h-31z M496,303h31v1h-31z M495,304h31v1h-31z M495,305h31v1h-31z M495,306h31v1h-31z M495,307h31v1h-31z M494,308h31v1h-31z M494,309h31v1h-31z M494,310h31v1h-31z M494,311h31v1h-31z M493,312h31v1h-31z M493,313h31v1h-31z M493,314h31v1h-31z M493,315h31v1h-31z M492,316h31v1h-31z M492,317h31v1h-31z M492,318h31v1h-31z M492,319h31v1h-31z M491,320h31v1h-31z M491,321h31v1h-31z M491,322h31v1h-31z M491,323h31v1h-31z M490,324h31v1h-31z M490,325h31v1h-31z M490,326h31v1h-31z M490,327h31v1h-31z M489,328h31v1h-31z M489,329h31v1h-31z M489,330h31v1h-31z M489,331h31v1h-31z M488,332h31v1h-31z M488,333h31v1h-31z M488,334h31v1h-31z M488,335h31v1h-31z M487,336h31v1h-31z M487,337h31v1h-31z M487,338h31v1h-31z M487,339h30v1h-30z M486,340h31v1h-31z M486,341h31v1h-31z M486,342h31v1h-31z M486,343h30v1h-30z M485,344h31v1h-31z M485,345h31v1h-31z M485,346h31v1h-31z M485,347h30v1h-30z M484,348h31v1h-31z M484,349h31v1h-31z M484,350h31v1h-31z M484,351h30v1h-30z M483,352h31v1h-31z M483,353h31v1h-31z M483,354h31v1h-31z M482,355h31v1h-31z M482,356h31v1h-31z M482,357h31v1h-31z M482,358h31v1h-31z M481,359h31v1h-31z M481,360h31v1h-31z M481,361h31v1h-31z M481,362h31v1h-31z M480,363h31v1h-31z M480,364h31v1h-31z M480,365h31v1h-31z M480,366h31v1h-31z M479,367h31v1h-31z M479,368h31v1h-31z M479,369h31v1h-31z M479,370h31v1h-31z M478,371h31v1h-31z M478,372h31v1h-31z M478,373h31v1h-31z M478,374h31v1h-31z M477,375h31v1h-31z M477,376h31v1h-31z M477,377h31v1h-31z M477,378h31v1h-31z M476,379h31v1h-31z M476,380h31v1h-31z M476,381h31v1h-31z M476,382h31v1h-31z M475,383h31v1h-31z M475,384h31v1h-31z M475,385h31v1h-31z M475,386h31v1h-31z M474,387h31v1h-31z M474,388h31v1h-31z M474,389h31v1h-31z M474,390h31v1h-31z M473,391h31v1h-31z M473,392h31v1h-31z M473,393h31v1h-31z M473,394h31v1h-31z M472,395h31v1h-31z M472,396h31v1h-31z M472,397h31v1h-31z M472,398h31v1h-31z M471,399h31v1h-31z M471,400h31v1h-31z M471,401h31v1h-31z M471,402h31v1h-31z M471,403h30v1h-30z"/>
<path d="M557,294h32v1h-32z M661,294h30v1h-30z M557,295h34v1h-34z M661,295h30v1h-30z M557,296h36v1h-36z M660,296h31v1h-31z M556,297h39v1h-39z M660,297h31v1h-31z M556,298h41v1h-41z M660,298h31v1h-31z M556,299h43v1h-43z M660,299h30v1h-30z M556,300h45v1h-45z M659,300h31v1h-31z M555,301h48v1h-48z M659,301h31v1h-31z M555,302h49v1h-49z M659,302h31v1h-31z M555,303h51v1h-51z M659,303h30v1h-30z M555,304h53v1h-53z M658,304h31v1h-31z M554,305h56v1h-56z M658,305h31v1h-31z M554,306h57v1h-57z M658,306h31v1h-31z M554,307h59v1h-59z M658,307h30v1h-30z M554,308h61v1h-61z M657,308h31v1h-31z M553,309h63v1h-63z M657,309h31v1h-31z M553,310h65v1h-65z M657,310h31v1h-31z M553,311h66v1h-66z M657,311h30v1h-30z M553,312h68v1h-68z M656,312h31v1h-31z M552,313h71v1h-71z M656,313h31v1h-31z M552,314h72v1h-72z M656,314h31v1h-31z M552,315h73v1h-73z M655,315h31v1h-31z M552,316h75v1h-75z M655,316h31v1h-31z M551,317h77v1h-77z M655,317h31v1h-31z M551,318h79v1h-79z M655,318h31v1h-31z M551,319h80v1h-80z M654,319h31v1h-31z M551,320h82v1h-82z M654,320h31v1h-31z M550,321h84v1h-84z M654,321h31v1h-31z M550,322h85v1h-85z M654,322h31v1h-31z M550,323h31v1h-31z M583,323h53v1h-53z M653,323h31v1h-31z M550,324h31v1h-31z M585,324h53v1h-53z M653,324h31v1h-31z M549,325h31v1h-31z M587,325h52v1h-52z M653,325h31v1h-31z M549,326h31v1h-31z M589,326h51v1h-51z M653,326h31v1h-31z M549,327h31v1h-31z M591,327h51v1h-51z M652,327h31v1h-31z M549,328h31v1h-31z M593,328h50v1h-50z M652,328h31v1h-31z M548,329h31v1h-31z M594,329h50v1h-50z M652,329h31v1h-31z M548,330h31v1h-31z M596,330h49v1h-49z M652,330h31v1h-31z M548,331h31v1h-31z M598,331h48v1h-48z M651,331h31v1h-31z M548,332h31v1h-31z M600,332h48v1h-48z M651,332h31v1h-31z M547,333h31v1h-31z M601,333h48v1h-48z M651,333h31v1h-31z M547,334h31v1h-31z M603,334h47v1h-47z M651,334h31v1h-31z M547,335h31v1h-31z M605,335h76v1h-76z M547,336h31v1h-31z M606,336h75v1h-75z M546,337h31v1h-31z M608,337h73v1h-73z M546,338h31v1h-31z M609,338h72v1h-72z M546,339h31v1h-31z M611,339h69v1h-69z M546,340h31v1h-31z M612,340h68v1h-68z M545,341h31v1h-31z M614,341h66v1h-66z M545,342h31v1h-31z M615,342h65v1h-65z M545,343h31v1h-31z M616,343h63v1h-63z M545,344h31v1h-31z M618,344h61v1h-61z M544,345h31v1h-31z M619,345h60v1h-60z M544,346h31v1h-31z M620,346h59v1h-59z M544,347h31v1h-31z M621,347h57v1h-57z M544,348h31v1h-31z M622,348h56v1h-56z M543,349h31v1h-31z M623,349h55v1h-55z M543,350h31v1h-31z M624,350h54v1h-54z M543,351h31v1h-31z M625,351h52v1h-52z M543,352h30v1h-30z M626,352h51v1h-51z M542,353h31v1h-31z M627,353h50v1h-50z M542,354h31v1h-31z M628,354h49v1h-49z M542,355h31v1h-31z M629,355h47v1h-47z M542,356h30v1h-30z M630,356h46v1h-46z M541,357h31v1h-31z M631,357h45v1h-45z M541,358h31v1h-31z M632,358h44v1h-44z M541,359h31v1h-31z M633,359h42v1h-42z M541,360h30v1h-30z M634,360h41v1h-41z M540,361h31v1h-31z M635,361h40v1h-40z M540,362h31v1h-31z M636,362h39v1h-39z M540,363h31v1h-31z M637,363h37v1h-37z M540,364h30v1h-30z M638,364h36v1h-36z M539,365h31v1h-31z M638,365h36v1h-36z M539,366h31v1h-31z M639,366h35v1h-35z M539,367h31v1h-31z M640,367h33v1h-33z M538,368h31v1h-31z M641,368h32v1h-32z M538,369h31v1h-31z M642,369h31v1h-31z M538,370h31v1h-31z M642,370h31v1h-31z M538,371h31v1h-31z M641,371h31v1h-31z M537,372h31v1h-31z M641,372h31v1h-31z M537,373h31v1h-31z M641,373h31v1h-31z M537,374h31v1h-31z M641,374h31v1h-31z M537,375h31v1h-31z M640,375h31v1h-31z M536,376h31v1h-31z M640,376h31v1h-31z M536,377h31v1h-31z M640,377h31v1h-31z M536,378h31v1h-31z M640,378h31v1h-31z M536,379h31v1h-31z M639,379h31v1h-31z M535,380h31v1h-31z M639,380h31v1h-31z M535,381h31v1h-31z M639,381h31v1h-31z M535,382h31v1h-31z M639,382h31v1h-31z M535,383h31v1h-31z M638,383h31v1h-31z M534,384h31v1h-31z M638,384h31v1h-31z M534,385h31v1h-31z M638,385h31v1h-31z M534,386h31v1h-31z M638,386h31v1h-31z M534,387h31v1h-31z M637,387h31v1h-31z M533,388h31v1h-31z M637,388h31v1h-31z M533,389h31v1h-31z M637,389h31v1h-31z M533,390h31v1h-31z M637,390h31v1h-31z M533,391h31v1h-31z M636,391h31v1h-31z M532,392h31v1h-31z M636,392h31v1h-31z M532,393h31v1h-31z M636,393h31v1h-31z M532,394h31v1h-31z M636,394h31v1h-31z M532,395h31v1h-31z M635,395h31v1h-31z M531,396h31v1h-31z M635,396h31v1h-31z M531,397h31v1h-31z M635,397h31v1h-31z M531,398h31v1h-31z M635,398h30v1h-30z M531,399h31v1h-31z M634,399h31v1h-31z M530,400h31v1h-31z M634,400h31v1h-31z M530,401h31v1h-31z M634,401h31v1h-31z M530,402h31v1h-31z M634,402h30v1h-30z M530,403h30v1h-30z M634,403h30v1h-30z"/>
<path d="M237,335h61v1h-61z M237,336h61v1h-61z M236,337h62v1h-62z M236,338h61v1h-61z M236,339h61v1h-61z M235,340h62v1h-62z M235,341h62v1h-62z M235,342h61v1h-61z M235,343h61v1h-61z M234,344h62v1h-62z M234,345h62v1h-62z M234,346h61v1h-61z M234,347h61v1h-61z M233,348h62v1h-62z M233,349h61v1h-61z M233,350h61v1h-61z M232,351h62v1h-62z M232,352h62v1h-62z M232,353h61v1h-61z M232,354h61v1h-61z M231,355h62v1h-62z M231,356h62v1h-62z M231,357h61v1h-61z M231,358h61v1h-61z M230,359h62v1h-62z M230,360h62v1h-62z M230,361h61v1h-61z M230,362h61v1h-61z"/>
  </g>
</svg>