<?xml version="1.0" encoding="UTF-8"?>
<svg xmlns="http://www.w3.org/2000/svg" viewBox="0 0 400 160" width="400" height="160">
  <g transform="translate(60.52,12.00) scale(0.148148)" fill="white">
<path d="M1879,0h4v1h-4z M1875,1h8v1h-8z M1871,2h12v1h-12z M1867,3h15v1h-15z M1864,4h17v1h-17z M1860,5h21v1h-21z M1856,6h24v1h-24z M1852,7h28v1h-28z M1848,8h31v1h-31z M1844,9h34v1h-34z M1840,10h38v1h-38z M1836,11h41v1h-41z M1833,12h44v1h-44z M1829,13h47v1h-47z M1825,14h50v1h-50z M1821,15h54v1h-54z M1817,16h57v1h-57z M1813,17h61v1h-61z M748,18h5v1h-5z M1809,18h64v1h-64z M744,19h7v1h-7z M1805,19h67v1h-67z M740,20h9v1h-9z M1801,20h71v1h-71z M736,21h12v1h-12z M1797,21h74v1h-74z M732,22h14v1h-14z M1794,22h77v1h-77z M728,23h16v1h-16z M1790,23h80v1h-80z M723,24h19v1h-19z M1786,24h83v1h-83z M719,25h22v1h-22z M1782,25h87v1h-87z M715,26h24v1h-24z M1778,26h90v1h-90z M711,27h26v1h-26z M1774,27h94v1h-94z M707,28h29v1h-29z M1770,28h97v1h-97z M703,29h31v1h-31z M1766,29h100v1h-100z M699,30h33v1h-33z M1762,30h104v1h-104z M695,31h36v1h-36z M1758,31h107v1h-107z M691,32h38v1h-38z M1754,32h111v1h-111z M687,33h40v1h-40z M1750,33h114v1h-114z M683,34h43v1h-43z M1746,34h117v1h-117z M678,35h46v1h-46z M1742,35h121v1h-121z M674,36h48v1h-48z M1738,36h124v1h-124z M670,37h51v1h-51z M1734,37h128v1h-128z M666,38h53v1h-53z M1731,38h130v1h-130z M662,39h55v1h-55z M1727,39h133v1h-133z M658,40h58v1h-58z M1723,40h137v1h-137z M654,41h60v1h-60z M1719,41h140v1h-140z M650,42h63v1h-63z M1715,42h143v1h-143z M646,43h65v1h-65z M1711,43h147v1h-147z M642,44h67v1h-67z M1707,44h150v1h-150z M638,45h70v1h-70z M1703,45h154v1h-154z M633,46h73v1h-73z M1699,46h157v1h-157z M629,47h76v1h-76z M1695,47h160v1h-160z M625,48h78v1h-78z M1691,48h164v1h-164z M621,49h81v1h-81z M1687,49h167v1h-167z M617,50h83v1h-83z M1683,50h171v1h-171z M613,51h86v1h-86z M1679,51h174v1h-174z M609,52h88v1h-88z M1675,52h177v1h-177z M605,53h91v1h-91z M1671,53h181v1h-181z M601,54h93v1h-93z M1667,54h184v1h-184z M597,55h96v1h-96z M1663,55h188v1h-188z M593,56h98v1h-98z M1659,56h191v1h-191z M588,57h102v1h-102z M1655,57h194v1h-194z M584,58h104v1h-104z M1651,58h198v1h-198z M580,59h107v1h-107z M1647,59h201v1h-201z M576,60h109v1h-109z M1643,60h205v1h-205z M572,61h112v1h-112z M1639,61h208v1h-208z M568,62h114v1h-114z M1635,62h211v1h-211z M564,63h117v1h-117z M1631,63h215v1h-215z M560,64h120v1h-120z M1626,64h219v1h-219z M556,65h122v1h-122z M1622,65h223v1h-223z M552,66h125v1h-125z M1618,66h226v1h-226z M548,67h127v1h-127z M1614,67h229v1h-229z M543,68h131v1h-131z M1610,68h233v1h-233z M539,69h134v1h-134z M1606,69h236v1h-236z M535,70h136v1h-136z M1602,70h240v1h-240z M531,71h139v1h-139z M1598,71h243v1h-243z M527,72h142v1h-142z M1594,72h246v1h-246z M523,73h144v1h-144z M1590,73h250v1h-250z M519,74h147v1h-147z M1586,74h253v1h-253z M515,75h150v1h-150z M1582,75h257v1h-257z M511,76h152v1h-152z M1578,76h260v1h-260z M507,77h155v1h-155z M1574,77h263v1h-263z M503,78h158v1h-158z M1569,78h268v1h-268z M498,79h162v1h-162z M1565,79h271v1h-271z M494,80h164v1h-164z M1561,80h275v1h-275z M490,81h167v1h-167z M1557,81h278v1h-278z M486,82h170v1h-170z M1553,82h281v1h-281z M482,83h173v1h-173z M1549,83h285v1h-285z M478,84h175v1h-175z M1545,84h288v1h-288z M474,85h178v1h-178z M1541,85h292v1h-292z M470,86h181v1h-181z M1537,86h295v1h-295z M466,87h184v1h-184z M1532,87h299v1h-299z M462,88h187v1h-187z M1528,88h302v1h-302z M458,89h189v1h-189z M1524,89h301v1h-301z M453,90h193v1h-193z M1520,90h301v1h-301z M449,91h196v1h-196z M1516,91h301v1h-301z M445,92h199v1h-199z M1512,92h301v1h-301z M441,93h202v1h-202z M1508,93h300v1h-300z M437,94h205v1h-205z M1503,94h301v1h-301z M433,95h208v1h-208z M1499,95h301v1h-301z M429,96h211v1h-211z M1495,96h301v1h-301z M425,97h214v1h-214z M1491,97h300v1h-300z M421,98h216v1h-216z M1487,98h300v1h-300z M417,99h219v1h-219z M1482,99h301v1h-301z M412,100h223v1h-223z M1478,100h300v1h-300z M408,101h226v1h-226z M1474,101h300v1h-300z M404,102h229v1h-229z M1470,102h300v1h-300z M400,103h232v1h-232z M1466,103h300v1h-300z M396,104h235v1h-235z M1461,104h300v1h-300z M392,105h238v1h-238z M1457,105h300v1h-300z M388,106h241v1h-241z M1453,106h300v1h-300z M384,107h244v1h-244z M1449,107h299v1h-299z M380,108h248v1h-248z M1445,108h299v1h-299z M376,109h251v1h-251z M1440,109h300v1h-300z M372,110h254v1h-254z M1436,110h300v1h-300z M367,111h258v1h-258z M1432,111h299v1h-299z M363,112h261v1h-261z M1427,112h300v1h-300z M359,113h264v1h-264z M1423,113h300v1h-300z M355,114h267v1h-267z M1419,114h299v1h-299z M351,115h270v1h-270z M1415,115h299v1h-299z M347,116h273v1h-273z M1410,116h300v1h-300z M343,117h277v1h-277z M1406,117h300v1h-300z M339,118h280v1h-280z M1402,118h299v1h-299z M335,119h283v1h-283z M1397,119h300v1h-300z M331,120h286v1h-286z M1393,120h300v1h-300z M327,121h290v1h-290z M1389,121h299v1h-299z M322,122h294v1h-294z M1384,122h300v1h-300z M318,123h297v1h-297z M1380,123h300v1h-300z M314,124h300v1h-300z M1376,124h300v1h-300z M310,125h304v1h-304z M1371,125h300v1h-300z M306,126h307v1h-307z M1367,126h300v1h-300z M302,127h310v1h-310z M1363,127h300v1h-300z M298,128h314v1h-314z M1358,128h300v1h-300z M294,129h317v1h-317z M1354,129h300v1h-300z M290,130h321v1h-321z M1350,130h300v1h-300z M286,131h324v1h-324z M1345,131h301v1h-301z M282,132h327v1h-327z M1341,132h300v1h-300z M277,133h332v1h-332z M1336,133h301v1h-301z M273,134h335v1h-335z M1332,134h301v1h-301z M269,135h339v1h-339z M1327,135h301v1h-301z M265,136h342v1h-342z M1323,136h301v1h-301z M261,137h346v1h-346z M1318,137h302v1h-302z M257,138h349v1h-349z M1314,138h302v1h-302z M253,139h353v1h-353z M1310,139h301v1h-301z M249,140h357v1h-357z M1305,140h302v1h-302z M245,141h360v1h-360z M1301,141h302v1h-302z M241,142h364v1h-364z M1296,142h303v1h-303z M237,143h367v1h-367z M1291,143h303v1h-303z M232,144h372v1h-372z M1287,144h303v1h-303z M228,145h376v1h-376z M1282,145h304v1h-304z M224,146h380v1h-380z M1278,146h303v1h-303z M220,147h383v1h-383z M1273,147h304v1h-304z M216,148h387v1h-387z M1269,148h304v1h-304z M212,149h391v1h-391z M1264,149h305v1h-305z M208,150h395v1h-395z M1259,150h305v1h-305z M204,151h398v1h-398z M1255,151h305v1h-305z M200,152h402v1h-402z M1250,152h306v1h-306z M196,153h406v1h-406z M1245,153h307v1h-307z M192,154h410v1h-410z M1241,154h307v1h-307z M187,155h415v1h-415z M1236,155h308v1h-308z M183,156h419v1h-419z M1231,156h310v1h-310z M179,157h423v1h-423z M1227,157h310v1h-310z M175,158h427v1h-427z M1222,158h311v1h-311z M171,159h431v1h-431z M1217,159h312v1h-312z M167,160h435v1h-435z M1212,160h313v1h-313z M163,161h439v1h-439z M1207,161h314v1h-314z M159,162h444v1h-444z M1202,162h315v1h-315z M155,163h448v1h-448z M1198,163h315v1h-315z M151,164h452v1h-452z M1193,164h316v1h-316z M147,165h456v1h-456z M1188,165h317v1h-317z M142,166h462v1h-462z M1183,166h318v1h-318z M138,167h466v1h-466z M1178,167h319v1h-319z M134,168h470v1h-470z M1173,168h320v1h-320z M130,169h475v1h-475z M1168,169h321v1h-321z M126,170h479v1h-479z M1163,170h322v1h-322z M122,171h484v1h-484z M1159,171h322v1h-322z M118,172h488v1h-488z M1154,172h323v1h-323z M114,173h493v1h-493z M1149,173h325v1h-325z M110,174h498v1h-498z M1144,174h326v1h-326z M106,175h502v1h-502z M1138,175h328v1h-328z M102,176h507v1h-507z M1133,176h329v1h-329z M97,177h513v1h-513z M1128,177h331v1h-331z M93,178h518v1h-518z M1123,178h332v1h-332z M89,179h522v1h-522z M1118,179h333v1h-333z M85,180h527v1h-527z M1112,180h335v1h-335z M81,181h532v1h-532z M1107,181h337v1h-337z M77,182h537v1h-537z M1101,182h339v1h-339z M73,183h543v1h-543z M1096,183h341v1h-341z M69,184h548v1h-548z M1090,184h343v1h-343z M65,185h553v1h-553z M1085,185h345v1h-345z M61,186h558v1h-558z M1079,186h347v1h-347z M57,187h564v1h-564z M1073,187h350v1h-350z M52,188h570v1h-570z M1067,188h352v1h-352z M48,189h576v1h-576z M1061,189h355v1h-355z M44,190h581v1h-581z M1055,190h357v1h-357z M40,191h587v1h-587z M1049,191h360v1h-360z M36,192h593v1h-593z M1043,192h363v1h-363z M34,193h597v1h-597z M1037,193h365v1h-365z M36,194h597v1h-597z M1030,194h369v1h-369z M41,195h594v1h-594z M1024,195h372v1h-372z M47,196h590v1h-590z M1017,196h376v1h-376z M52,197h588v1h-588z M1010,197h379v1h-379z M58,198h584v1h-584z M1004,198h382v1h-382z M63,199h582v1h-582z M996,199h387v1h-387z M68,200h580v1h-580z M989,200h391v1h-391z M74,201h577v1h-577z M982,201h395v1h-395z M79,202h575v1h-575z M974,202h400v1h-400z M84,203h574v1h-574z M966,203h405v1h-405z M90,204h571v1h-571z M958,204h410v1h-410z M95,205h570v1h-570z M950,205h415v1h-415z M100,206h570v1h-570z M941,206h421v1h-421z M105,207h570v1h-570z M932,207h427v1h-427z M111,208h569v1h-569z M922,208h434v1h-434z M116,209h569v1h-569z M912,209h441v1h-441z M121,210h571v1h-571z M900,210h450v1h-450z M126,211h573v1h-573z M889,211h458v1h-458z M131,212h576v1h-576z M875,212h469v1h-469z M136,213h581v1h-581z M860,213h482v1h-482z M141,214h588v1h-588z M844,214h495v1h-495z M146,215h600v1h-600z M822,215h514v1h-514z M151,216h1182v1h-1182z M156,217h1175v1h-1175z M161,218h1167v1h-1167z M166,219h1159v1h-1159z M171,220h1152v1h-1152z M176,221h1144v1h-1144z M181,222h1136v1h-1136z M186,223h1129v1h-1129z M191,224h1121v1h-1121z M196,225h1114v1h-1114z M200,226h1107v1h-1107z M205,227h1100v1h-1100z M210,228h1092v1h-1092z M215,229h1085v1h-1085z M219,230h1078v1h-1078z M224,231h1071v1h-1071z M229,232h1063v1h-1063z M234,233h1056v1h-1056z M238,234h1049v1h-1049z M243,235h1042v1h-1042z M248,236h1035v1h-1035z M252,237h1028v1h-1028z M257,238h1021v1h-1021z M261,239h1015v1h-1015z M266,240h1007v1h-1007z M270,241h1001v1h-1001z M275,242h994v1h-994z M279,243h988v1h-988z M284,244h980v1h-980z M288,245h974v1h-974z M292,246h968v1h-968z M297,247h961v1h-961z M301,248h955v1h-955z M306,249h948v1h-948z M310,250h941v1h-941z M314,251h935v1h-935z M318,252h929v1h-929z M323,253h922v1h-922z M327,254h916v1h-916z M331,255h910v1h-910z M335,256h904v1h-904z M339,257h898v1h-898z M343,258h892v1h-892z M347,259h886v1h-886z M351,260h880v1h-880z M355,261h874v1h-874z M359,262h868v1h-868z M363,263h862v1h-862z M367,264h856v1h-856z M371,265h850v1h-850z M375,266h844v1h-844z M379,267h838v1h-838z M383,268h833v1h-833z M386,269h828v1h-828z M390,270h822v1h-822z M394,271h816v1h-816z M397,272h811v1h-811z M401,273h805v1h-805z M405,274h800v1h-800z M408,275h795v1h-795z M412,276h789v1h-789z M415,277h784v1h-784z M418,278h780v1h-780z M422,279h774v1h-774z M425,280h769v1h-769z M428,281h764v1h-764z M431,282h760v1h-760z M434,283h755v1h-755z M437,284h750v1h-750z M440,285h746v1h-746z M443,286h741v1h-741z M446,287h736v1h-736z M449,288h732v1h-732z M452,289h727v1h-727z M455,290h722v1h-722z M458,291h718v1h-718z M460,292h714v1h-714z M463,293h710v1h-710z M466,294h705v1h-705z M469,295h701v1h-701z M471,296h697v1h-697z M474,297h692v1h-692z M476,298h689v1h-689z M479,299h684v1h-684z M482,300h680v1h-680z M484,301h676v1h-676z M487,302h672v1h-672z M489,303h668v1h-668z M491,304h665v1h-665z M494,305h661v1h-661z M496,306h657v1h-657z M499,307h653v1h-653z M501,308h649v1h-649z M503,309h646v1h-646z M506,310h641v1h-641z M508,311h638v1h-638z M510,312h635v1h-635z M513,313h441v1h-441z M956,313h187v1h-187z M515,314h428v1h-428z M955,314h187v1h-187z M517,315h415v1h-415z M954,315h187v1h-187z M519,316h402v1h-402z M953,316h186v1h-186z M521,317h389v1h-389z M953,317h185v1h-185z M524,318h374v1h-374z M952,318h184v1h-184z M526,319h361v1h-361z M951,319h184v1h-184z M528,320h348v1h-348z M951,320h183v1h-183z M530,321h335v1h-335z M950,321h183v1h-183z M532,322h322v1h-322z M949,322h182v1h-182z M534,323h308v1h-308z M948,323h182v1h-182z M536,324h295v1h-295z M948,324h181v1h-181z M538,325h282v1h-282z M947,325h180v1h-180z M540,326h268v1h-268z M946,326h180v1h-180z M542,327h255v1h-255z M946,327h179v1h-179z M544,328h242v1h-242z M945,328h179v1h-179z M546,329h228v1h-228z M944,329h178v1h-178z M548,330h223v1h-223z M943,330h178v1h-178z M550,331h222v1h-222z M943,331h177v1h-177z M552,332h221v1h-221z M942,332h177v1h-177z M554,333h220v1h-220z M941,333h176v1h-176z M556,334h219v1h-219z M941,334h175v1h-175z M558,335h218v1h-218z M940,335h175v1h-175z M560,336h217v1h-217z M939,336h175v1h-175z M561,337h217v1h-217z M938,337h175v1h-175z M563,338h215v1h-215z M938,338h174v1h-174z M565,339h214v1h-214z M937,339h173v1h-173z M567,340h213v1h-213z M936,340h173v1h-173z M569,341h212v1h-212z M936,341h172v1h-172z M571,342h211v1h-211z M935,342h172v1h-172z M572,343h211v1h-211z M934,343h172v1h-172z M574,344h210v1h-210z M933,344h172v1h-172z M576,345h209v1h-209z M933,345h171v1h-171z M578,346h208v1h-208z M932,346h170v1h-170z M579,347h208v1h-208z M931,347h170v1h-170z M581,348h207v1h-207z M931,348h169v1h-169z M583,349h206v1h-206z M930,349h169v1h-169z M585,350h205v1h-205z M929,350h169v1h-169z M586,351h205v1h-205z M928,351h169v1h-169z M588,352h204v1h-204z M928,352h168v1h-168z M590,353h203v1h-203z M927,353h168v1h-168z M591,354h203v1h-203z M926,354h168v1h-168z M593,355h202v1h-202z M925,355h168v1h-168z M595,356h200v1h-200z M925,356h167v1h-167z M596,357h200v1h-200z M924,357h167v1h-167z M598,358h199v1h-199z M923,358h167v1h-167z M599,359h199v1h-199z M923,359h166v1h-166z M601,360h198v1h-198z M922,360h166v1h-166z M603,361h197v1h-197z M921,361h166v1h-166z M604,362h197v1h-197z M920,362h166v1h-166z M606,363h196v1h-196z M920,363h165v1h-165z M607,364h196v1h-196z M919,364h165v1h-165z M609,365h195v1h-195z M918,365h165v1h-165z M610,366h195v1h-195z M918,366h164v1h-164z M612,367h194v1h-194z M917,367h164v1h-164z M613,368h194v1h-194z M916,368h164v1h-164z M615,369h193v1h-193z M915,369h164v1h-164z M616,370h193v1h-193z M915,370h163v1h-163z M618,371h192v1h-192z M914,371h163v1h-163z M619,372h192v1h-192z M913,372h163v1h-163z M621,373h191v1h-191z M913,373h162v1h-162z M622,374h190v1h-190z M912,374h162v1h-162z M624,375h189v1h-189z M911,375h162v1h-162z M625,376h189v1h-189z M910,376h162v1h-162z M627,377h188v1h-188z M910,377h162v1h-162z M628,378h188v1h-188z M909,378h162v1h-162z M629,379h188v1h-188z M908,379h162v1h-162z M631,380h187v1h-187z M908,380h161v1h-161z M632,381h187v1h-187z M907,381h161v1h-161z M634,382h186v1h-186z M906,382h161v1h-161z M635,383h186v1h-186z M905,383h161v1h-161z M636,384h186v1h-186z M905,384h160v1h-160z M638,385h185v1h-185z M904,385h161v1h-161z M639,386h185v1h-185z M903,386h161v1h-161z M640,387h185v1h-185z M903,387h160v1h-160z M642,388h184v1h-184z M902,388h160v1h-160z M643,389h184v1h-184z M901,389h160v1h-160z M644,390h184v1h-184z M900,390h160v1h-160z M646,391h183v1h-183z M900,391h160v1h-160z M647,392h182v1h-182z M899,392h160v1h-160z M648,393h182v1h-182z M898,393h160v1h-160z M650,394h181v1h-181z M898,394h159v1h-159z M651,395h181v1h-181z M897,395h159v1h-159z M652,396h181v1h-181z M896,396h160v1h-160z M653,397h181v1h-181z M895,397h160v1h-160z M655,398h180v1h-180z M895,398h159v1h-159z M656,399h180v1h-180z M894,399h159v1h-159z M657,400h180v1h-180z M893,400h160v1h-160z M658,401h180v1h-180z M893,401h159v1h-159z M660,402h179v1h-179z M892,402h159v1h-159z M661,403h179v1h-179z M891,403h159v1h-159z M662,404h179v1h-179z M890,404h160v1h-160z M663,405h179v1h-179z M890,405h159v1h-159z M664,406h179v1h-179z M889,406h159v1h-159z M666,407h178v1h-178z M888,407h159v1h-159z M667,408h178v1h-178z M888,408h159v1h-159z M668,409h178v1h-178z M887,409h159v1h-159z M669,410h177v1h-177z M886,410h159v1h-159z M670,411h177v1h-177z M885,411h160v1h-160z M672,412h176v1h-176z M885,412h159v1h-159z M673,413h176v1h-176z M884,413h159v1h-159z M674,414h176v1h-176z M883,414h159v1h-159z M675,415h176v1h-176z M883,415h159v1h-159z M676,416h176v1h-176z M882,416h159v1h-159z M677,417h176v1h-176z M881,417h159v1h-159z M678,418h176v1h-176z M880,418h160v1h-160z M679,419h176v1h-176z M880,419h159v1h-159z M681,420h175v1h-175z M879,420h159v1h-159z M682,421h175v1h-175z M878,421h160v1h-160z M683,422h175v1h-175z M878,422h159v1h-159z M684,423h175v1h-175z M877,423h159v1h-159z M685,424h175v1h-175z M876,424h160v1h-160z M686,425h175v1h-175z M875,425h160v1h-160z M687,426h175v1h-175z M875,426h160v1h-160z M688,427h175v1h-175z M874,427h160v1h-160z M689,428h174v1h-174z M873,428h160v1h-160z M690,429h174v1h-174z M873,429h160v1h-160z M691,430h174v1h-174z M872,430h160v1h-160z M692,431h174v1h-174z M871,431h160v1h-160z M693,432h174v1h-174z M870,432h161v1h-161z M694,433h174v1h-174z M870,433h160v1h-160z M695,434h335v1h-335z M696,435h333v1h-333z M697,436h332v1h-332z M698,437h330v1h-330z M699,438h328v1h-328z M700,439h327v1h-327z M701,440h325v1h-325z M702,441h324v1h-324z M703,442h322v1h-322z M704,443h321v1h-321z M705,444h319v1h-319z M706,445h318v1h-318z M707,446h316v1h-316z M708,447h314v1h-314z M709,448h313v1h-313z M710,449h311v1h-311z M711,450h310v1h-310z M712,451h308v1h-308z M713,452h307v1h-307z M713,453h306v1h-306z M714,454h305v1h-305z M715,455h303v1h-303z M716,456h302v1h-302z M717,457h300v1h-300z M718,458h299v1h-299z M719,459h297v1h-297z M720,460h296v1h-296z M720,461h296v1h-296z M721,462h294v1h-294z M722,463h293v1h-293z M723,464h291v1h-291z M724,465h290v1h-290z M725,466h288v1h-288z M726,467h287v1h-287z M726,468h286v1h-286z M727,469h285v1h-285z M728,470h284v1h-284z M729,471h282v1h-282z M730,472h281v1h-281z M730,473h280v1h-280z M731,474h279v1h-279z M732,475h277v1h-277z M733,476h276v1h-276z M734,477h275v1h-275z M734,478h274v1h-274z M735,479h273v1h-273z M736,480h271v1h-271z M737,481h270v1h-270z M737,482h270v1h-270z M738,483h268v1h-268z M739,484h267v1h-267z M740,485h266v1h-266z M740,486h265v1h-265z M741,487h264v1h-264z M742,488h262v1h-262z M743,489h261v1h-261z M743,490h261v1h-261z M744,491h259v1h-259z M745,492h258v1h-258z M745,493h258v1h-258z M746,494h256v1h-256z M747,495h255v1h-255z M748,496h254v1h-254z M748,497h253v1h-253z M749,498h252v1h-252z M750,499h251v1h-251z M750,500h250v1h-250z M751,501h249v1h-249z M752,502h248v1h-248z M752,503h247v1h-247z M753,504h246v1h-246z M754,505h245v1h-245z M754,506h245v1h-245z M755,507h243v1h-243z M756,508h242v1h-242z M756,509h242v1h-242z M757,510h240v1h-240z M757,511h240v1h-240z M758,512h239v1h-239z M759,513h238v1h-238z M759,514h237v1h-237z M760,515h236v1h-236z M761,516h235v1h-235z M761,517h235v1h-235z M762,518h233v1h-233z M762,519h233v1h-233z M763,520h232v1h-232z M764,521h231v1h-231z M764,522h230v1h-230z M765,523h229v1h-229z M765,524h229v1h-229z M766,525h228v1h-228z M766,526h227v1h-227z M767,527h226v1h-226z M768,528h225v1h-225z M768,529h225v1h-225z M769,530h224v1h-224z M769,531h223v1h-223z M770,532h222v1h-222z M770,533h222v1h-222z M771,534h221v1h-221z M771,535h221v1h-221z M772,536h219v1h-219z M772,537h219v1h-219z M773,538h218v1h-218z M773,539h218v1h-218z M774,540h217v1h-217z M775,541h215v1h-215z M775,542h215v1h-215z M776,543h214v1h-214z M776,544h214v1h-214z M777,545h213v1h-213z M777,546h213v1h-213z M778,547h211v1h-211z M778,548h211v1h-211z M778,549h211v1h-211z M779,550h210v1h-210z M779,551h210v1h-210z M780,552h209v1h-209z M780,553h209v1h-209z M781,554h207v1h-207z M781,555h207v1h-207z M782,556h206v1h-206z M782,557h206v1h-206z M783,558h205v1h-205z M783,559h205v1h-205z M784,560h204v1h-204z M784,561h204v1h-204z M784,562h203v1h-203z M785,563h202v1h-202z M785,564h202v1h-202z M786,565h201v1h-201z M786,566h201v1h-201z M787,567h200v1h-200z M787,568h200v1h-200z M787,569h200v1h-200z M788,570h199v1h-199z M788,571h199v1h-199z M789,572h198v1h-198z M789,573h197v1h-197z M789,574h197v1h-197z M790,575h196v1h-196z M790,576h196v1h-196z M791,577h195v1h-195z M791,578h195v1h-195z M791,579h195v1h-195z M792,580h194v1h-194z M792,581h194v1h-194z M792,582h194v1h-194z M793,583h193v1h-193z M793,584h193v1h-193z M794,585h192v1h-192z M794,586h192v1h-192z M794,587h192v1h-192z M795,588h191v1h-191z M795,589h191v1h-191z M795,590h191v1h-191z M796,591h189v1h-189z M796,592h189v1h-189z M796,593h189v1h-189z M797,594h188v1h-188z M797,595h188v1h-188z M797,596h188v1h-188z M798,597h187v1h-187z M798,598h187v1h-187z M798,599h187v1h-187z M799,600h186v1h-186z M799,601h186v1h-186z"/>
<path d="M308,590h104v1h-104z M521,590h106v1h-106z M299,591h113v1h-113z M513,591h114v1h-114z M294,592h118v1h-118z M508,592h119v1h-119z M290,593h122v1h-122z M504,593h123v1h-123z M286,594h126v1h-126z M500,594h127v1h-127z M283,595h129v1h-129z M497,595h130v1h-130z M280,596h132v1h-132z M494,596h133v1h-133z M278,597h134v1h-134z M492,597h135v1h-135z M275,598h137v1h-137z M489,598h138v1h-138z M273,599h139v1h-139z M487,599h140v1h-140z M271,600h141v1h-141z M485,600h142v1h-142z M269,601h143v1h-143z M483,601h144v1h-144z M267,602h145v1h-145z M481,602h146v1h-146z M265,603h147v1h-147z M479,603h148v1h-148z M264,604h148v1h-148z M478,604h149v1h-149z M262,605h150v1h-150z M476,605h151v1h-151z M260,606h152v1h-152z M474,606h153v1h-153z M259,607h153v1h-153z M473,607h154v1h-154z M257,608h155v1h-155z M471,608h156v1h-156z M256,609h156v1h-156z M470,609h157v1h-157z M254,610h158v1h-158z M469,610h158v1h-158z M253,611h159v1h-159z M467,611h160v1h-160z M252,612h160v1h-160z M466,612h161v1h-161z M250,613h162v1h-162z M465,613h162v1h-162z M249,614h163v1h-163z M463,614h164v1h-164z M248,615h164v1h-164z M462,615h165v1h-165z M247,616h165v1h-165z M461,616h166v1h-166z M245,617h167v1h-167z M460,617h167v1h-167z M244,618h168v1h-168z M459,618h168v1h-168z M243,619h169v1h-169z M458,619h169v1h-169z M242,620h170v1h-170z M456,620h171v1h-171z M241,621h171v1h-171z M455,621h172v1h-172z M240,622h172v1h-172z M454,622h173v1h-173z M239,623h173v1h-173z M453,623h174v1h-174z M238,624h174v1h-174z M452,624h175v1h-175z M237,625h175v1h-175z M451,625h176v1h-176z M236,626h176v1h-176z M450,626h177v1h-177z M235,627h177v1h-177z M449,627h178v1h-178z M234,628h178v1h-178z M448,628h179v1h-179z M233,629h179v1h-179z M448,629h179v1h-179z M232,630h180v1h-180z M447,630h180v1h-180z M231,631h181v1h-181z M446,631h181v1h-181z M230,632h182v1h-182z M445,632h182v1h-182z M229,633h183v1h-183z M444,633h183v1h-183z M229,634h183v1h-183z M443,634h184v1h-184z M228,635h184v1h-184z M442,635h185v1h-185z M227,636h185v1h-185z M441,636h186v1h-186z M226,637h186v1h-186z M441,637h186v1h-186z M225,638h187v1h-187z M440,638h187v1h-187z M224,639h188v1h-188z M439,639h188v1h-188z M224,640h188v1h-188z M438,640h189v1h-189z M223,641h189v1h-189z M437,641h190v1h-190z M222,642h190v1h-190z M436,642h191v1h-191z M221,643h191v1h-191z M436,643h191v1h-191z M220,644h192v1h-192z M435,644h192v1h-192z M220,645h192v1h-192z M434,645h193v1h-193z M219,646h193v1h-193z M433,646h194v1h-194z M218,647h194v1h-194z M432,647h195v1h-195z M217,648h195v1h-195z M431,648h196v1h-196z M216,649h196v1h-196z M431,649h196v1h-196z M215,650h197v1h-197z M430,650h197v1h-197z M215,651h197v1h-197z M429,651h198v1h-198z M214,652h198v1h-198z M428,652h199v1h-199z M213,653h199v1h-199z M427,653h200v1h-200z M212,654h200v1h-200z M426,654h201v1h-201z M211,655h201v1h-201z M426,655h201v1h-201z M211,656h201v1h-201z M425,656h202v1h-202z M210,657h202v1h-202z M424,657h203v1h-203z M209,658h203v1h-203z M423,658h204v1h-204z M208,659h204v1h-204z M422,659h205v1h-205z M207,660h205v1h-205z M421,660h206v1h-206z M207,661h205v1h-205z M421,661h206v1h-206z M206,662h206v1h-206z M420,662h207v1h-207z M205,663h207v1h-207z M419,663h208v1h-208z M204,664h208v1h-208z M418,664h209v1h-209z M203,665h209v1h-209z M417,665h210v1h-210z M203,666h209v1h-209z M417,666h210v1h-210z M202,667h210v1h-210z M416,667h211v1h-211z M201,668h211v1h-211z M415,668h212v1h-212z M200,669h212v1h-212z M414,669h213v1h-213z M199,670h213v1h-213z M413,670h214v1h-214z M198,671h429v1h-429z M198,672h429v1h-429z M197,673h430v1h-430z M196,674h156v1h-156z M360,674h207v1h-207z M574,674h53v1h-53z M195,675h151v1h-151z M410,675h150v1h-150z M624,675h3v1h-3z M194,676h148v1h-148z M409,676h148v1h-148z M623,676h4v1h-4z M194,677h146v1h-146z M408,677h146v1h-146z M623,677h4v1h-4z M193,678h145v1h-145z M407,678h145v1h-145z M622,678h5v1h-5z M192,679h144v1h-144z M406,679h144v1h-144z M621,679h6v1h-6z M191,680h143v1h-143z M406,680h143v1h-143z M620,680h7v1h-7z M190,681h143v1h-143z M405,681h142v1h-142z M619,681h8v1h-8z M190,682h141v1h-141z M404,682h142v1h-142z M618,682h9v1h-9z M189,683h141v1h-141z M403,683h141v1h-141z M618,683h9v1h-9z M188,684h141v1h-141z M402,684h141v1h-141z M617,684h10v1h-10z M187,685h141v1h-141z M402,685h140v1h-140z M616,685h11v1h-11z M186,686h140v1h-140z M401,686h140v1h-140z M615,686h12v1h-12z M186,687h139v1h-139z M400,687h140v1h-140z M614,687h13v1h-13z M185,688h139v1h-139z M399,688h139v1h-139z M613,688h14v1h-14z M184,689h139v1h-139z M398,689h139v1h-139z M613,689h14v1h-14z M183,690h139v1h-139z M398,690h138v1h-138z M612,690h15v1h-15z M182,691h139v1h-139z M397,691h138v1h-138z M611,691h16v1h-16z M182,692h138v1h-138z M396,692h138v1h-138z M610,692h17v1h-17z M181,693h138v1h-138z M395,693h139v1h-139z M609,693h18v1h-18z M180,694h139v1h-139z M394,694h139v1h-139z M609,694h18v1h-18z M179,695h139v1h-139z M393,695h139v1h-139z M608,695h19v1h-19z M178,696h139v1h-139z M393,696h138v1h-138z M607,696h20v1h-20z M177,697h139v1h-139z M392,697h138v1h-138z M606,697h21v1h-21z M177,698h138v1h-138z M391,698h138v1h-138z M605,698h22v1h-22z M176,699h138v1h-138z M390,699h138v1h-138z M604,699h23v1h-23z M175,700h138v1h-138z M389,700h138v1h-138z M604,700h23v1h-23z M174,701h139v1h-139z M389,701h138v1h-138z M603,701h24v1h-24z M173,702h139v1h-139z M388,702h138v1h-138z M602,702h25v1h-25z M173,703h138v1h-138z M387,703h138v1h-138z M601,703h26v1h-26z M172,704h138v1h-138z M386,704h138v1h-138z M600,704h27v1h-27z M171,705h139v1h-139z M385,705h138v1h-138z M599,705h28v1h-28z M170,706h139v1h-139z M385,706h138v1h-138z M599,706h28v1h-28z M169,707h139v1h-139z M384,707h138v1h-138z M598,707h29v1h-29z M169,708h138v1h-138z M383,708h138v1h-138z M597,708h30v1h-30z M168,709h138v1h-138z M382,709h138v1h-138z M596,709h31v1h-31z M167,710h138v1h-138z M381,710h138v1h-138z M595,710h32v1h-32z M166,711h139v1h-139z M381,711h137v1h-137z M595,711h32v1h-32z M165,712h139v1h-139z M380,712h138v1h-138z M594,712h33v1h-33z M165,713h138v1h-138z M379,713h138v1h-138z M593,713h34v1h-34z M164,714h138v1h-138z M378,714h138v1h-138z M592,714h35v1h-35z M163,715h138v1h-138z M377,715h138v1h-138z M591,715h36v1h-36z M162,716h139v1h-139z M377,716h137v1h-137z M590,716h37v1h-37z M161,717h139v1h-139z M376,717h138v1h-138z M590,717h37v1h-37z M160,718h139v1h-139z M375,718h138v1h-138z M589,718h38v1h-38z M160,719h138v1h-138z M374,719h138v1h-138z M588,719h39v1h-39z M159,720h138v1h-138z M373,720h138v1h-138z M587,720h40v1h-40z M158,721h138v1h-138z M372,721h138v1h-138z M586,721h41v1h-41z M157,722h139v1h-139z M372,722h137v1h-137z M585,722h42v1h-42z M156,723h139v1h-139z M371,723h138v1h-138z M585,723h42v1h-42z M156,724h138v1h-138z M370,724h138v1h-138z M584,724h43v1h-43z M155,725h138v1h-138z M369,725h138v1h-138z M583,725h44v1h-44z M154,726h138v1h-138z M368,726h138v1h-138z M582,726h45v1h-45z M153,727h138v1h-138z M368,727h137v1h-137z M581,727h46v1h-46z M152,728h139v1h-139z M367,728h137v1h-137z M581,728h46v1h-46z M152,729h138v1h-138z M366,729h138v1h-138z M580,729h47v1h-47z M151,730h138v1h-138z M365,730h138v1h-138z M579,730h48v1h-48z M150,731h138v1h-138z M364,731h138v1h-138z M578,731h49v1h-49z M149,732h138v1h-138z M364,732h137v1h-137z M577,732h50v1h-50z M148,733h139v1h-139z M363,733h137v1h-137z M576,733h51v1h-51z M148,734h138v1h-138z M362,734h138v1h-138z M576,734h51v1h-51z M147,735h138v1h-138z M361,735h138v1h-138z M575,735h52v1h-52z M146,736h138v1h-138z M360,736h138v1h-138z M574,736h53v1h-53z M145,737h138v1h-138z M360,737h137v1h-137z M573,737h54v1h-54z M144,738h138v1h-138z M359,738h137v1h-137z M572,738h55v1h-55z M143,739h139v1h-139z M358,739h137v1h-137z M572,739h55v1h-55z M143,740h138v1h-138z M357,740h138v1h-138z M571,740h56v1h-56z M142,741h138v1h-138z M356,741h138v1h-138z M570,741h57v1h-57z M141,742h138v1h-138z M355,742h138v1h-138z M569,742h58v1h-58z M140,743h138v1h-138z M355,743h137v1h-137z M568,743h59v1h-59z M139,744h138v1h-138z M354,744h137v1h-137z M567,744h60v1h-60z M139,745h138v1h-138z M353,745h137v1h-137z M567,745h60v1h-60z M138,746h138v1h-138z M352,746h138v1h-138z M566,746h61v1h-61z M137,747h138v1h-138z M351,747h138v1h-138z M565,747h62v1h-62z M136,748h138v1h-138z M351,748h137v1h-137z M564,748h63v1h-63z M135,749h138v1h-138z M350,749h137v1h-137z M563,749h64v1h-64z M135,750h138v1h-138z M349,750h137v1h-137z M562,750h65v1h-65z M134,751h138v1h-138z M348,751h138v1h-138z M562,751h65v1h-65z M133,752h138v1h-138z M347,752h138v1h-138z M561,752h66v1h-66z M132,753h138v1h-138z M347,753h137v1h-137z M560,753h67v1h-67z M131,754h138v1h-138z M346,754h137v1h-137z M559,754h68v1h-68z M131,755h137v1h-137z M345,755h137v1h-137z M558,755h69v1h-69z M130,756h138v1h-138z M344,756h137v1h-137z M558,756h69v1h-69z M129,757h138v1h-138z M343,757h138v1h-138z M557,757h70v1h-70z M128,758h138v1h-138z M343,758h137v1h-137z M556,758h71v1h-71z M127,759h138v1h-138z M342,759h137v1h-137z M555,759h72v1h-72z M126,760h138v1h-138z M341,760h137v1h-137z M554,760h73v1h-73z M126,761h137v1h-137z M340,761h137v1h-137z M553,761h74v1h-74z M125,762h138v1h-138z M339,762h137v1h-137z M553,762h74v1h-74z M124,763h138v1h-138z M339,763h137v1h-137z M552,763h75v1h-75z M123,764h138v1h-138z M338,764h137v1h-137z M551,764h76v1h-76z M122,765h138v1h-138z M337,765h137v1h-137z M550,765h77v1h-77z M122,766h137v1h-137z M336,766h137v1h-137z M549,766h78v1h-78z M121,767h138v1h-138z M335,767h137v1h-137z M548,767h79v1h-79z M120,768h138v1h-138z M334,768h138v1h-138z M548,768h79v1h-79z M119,769h138v1h-138z M334,769h137v1h-137z M547,769h80v1h-80z M118,770h138v1h-138z M333,770h137v1h-137z M546,770h81v1h-81z M118,771h137v1h-137z M332,771h137v1h-137z M545,771h82v1h-82z M117,772h137v1h-137z M331,772h137v1h-137z M544,772h83v1h-83z M116,773h138v1h-138z M330,773h137v1h-137z M544,773h83v1h-83z M115,774h138v1h-138z M330,774h137v1h-137z M543,774h84v1h-84z M114,775h138v1h-138z M329,775h137v1h-137z M542,775h85v1h-85z M114,776h137v1h-137z M328,776h137v1h-137z M541,776h86v1h-86z M113,777h137v1h-137z M327,777h137v1h-137z M540,777h87v1h-87z M112,778h137v1h-137z M326,778h137v1h-137z M539,778h88v1h-88z M111,779h138v1h-138z M326,779h136v1h-136z M539,779h88v1h-88z M110,780h138v1h-138z M325,780h137v1h-137z M538,780h89v1h-89z M110,781h137v1h-137z M324,781h137v1h-137z M537,781h90v1h-90z M109,782h137v1h-137z M323,782h137v1h-137z M536,782h91v1h-91z M108,783h137v1h-137z M322,783h137v1h-137z M535,783h92v1h-92z M107,784h138v1h-138z M322,784h136v1h-136z M534,784h93v1h-93z M106,785h138v1h-138z M321,785h137v1h-137z M534,785h93v1h-93z M105,786h138v1h-138z M320,786h137v1h-137z M533,786h94v1h-94z M105,787h137v1h-137z M319,787h137v1h-137z M532,787h95v1h-95z M104,788h137v1h-137z M318,788h137v1h-137z M531,788h96v1h-96z M103,789h137v1h-137z M317,789h137v1h-137z M530,789h97v1h-97z M102,790h138v1h-138z M317,790h136v1h-136z M530,790h97v1h-97z M101,791h138v1h-138z M316,791h137v1h-137z M529,791h98v1h-98z M101,792h137v1h-137z M315,792h137v1h-137z M528,792h99v1h-99z M100,793h137v1h-137z M314,793h137v1h-137z M527,793h100v1h-100z M99,794h137v1h-137z M313,794h137v1h-137z M526,794h101v1h-101z M98,795h137v1h-137z M313,795h136v1h-136z M525,795h102v1h-102z M97,796h138v1h-138z M312,796h136v1h-136z M525,796h102v1h-102z M97,797h137v1h-137z M311,797h137v1h-137z M524,797h103v1h-103z M96,798h137v1h-137z M310,798h137v1h-137z M523,798h104v1h-104z M95,799h137v1h-137z M309,799h137v1h-137z M522,799h105v1h-105z M94,800h137v1h-137z M309,800h136v1h-136z M521,800h106v1h-106z M93,801h138v1h-138z M308,801h136v1h-136z M520,801h107v1h-107z M93,802h137v1h-137z M307,802h137v1h-137z M520,802h107v1h-107z M92,803h137v1h-137z M306,803h137v1h-137z M519,803h108v1h-108z M91,804h137v1h-137z M305,804h137v1h-137z M518,804h109v1h-109z M90,805h137v1h-137z M305,805h136v1h-136z M517,805h110v1h-110z M89,806h137v1h-137z M304,806h136v1h-136z M516,806h111v1h-111z M88,807h138v1h-138z M303,807h136v1h-136z M516,807h111v1h-111z M88,808h137v1h-137z M302,808h137v1h-137z M515,808h112v1h-112z M87,809h137v1h-137z M301,809h137v1h-137z M514,809h113v1h-113z M86,810h137v1h-137z M301,810h136v1h-136z M513,810h114v1h-114z M85,811h137v1h-137z M300,811h136v1h-136z M512,811h115v1h-115z M84,812h137v1h-137z M299,812h136v1h-136z M511,812h116v1h-116z M84,813h137v1h-137z M298,813h136v1h-136z M511,813h116v1h-116z M83,814h137v1h-137z M297,814h137v1h-137z M510,814h117v1h-117z M82,815h137v1h-137z M296,815h137v1h-137z M509,815h118v1h-118z M81,816h137v1h-137z M296,816h136v1h-136z M508,816h119v1h-119z M80,817h137v1h-137z M295,817h136v1h-136z M507,817h120v1h-120z M80,818h137v1h-137z M294,818h136v1h-136z M506,818h121v1h-121z M79,819h137v1h-137z M293,819h137v1h-137z M506,819h121v1h-121z M78,820h137v1h-137z M292,820h137v1h-137z M505,820h122v1h-122z M77,821h137v1h-137z M292,821h136v1h-136z M504,821h123v1h-123z M76,822h137v1h-137z M291,822h136v1h-136z M503,822h124v1h-124z M76,823h136v1h-136z M290,823h136v1h-136z M502,823h125v1h-125z M75,824h137v1h-137z M289,824h136v1h-136z M502,824h125v1h-125z M74,825h137v1h-137z M288,825h137v1h-137z M501,825h126v1h-126z M73,826h137v1h-137z M288,826h136v1h-136z M500,826h127v1h-127z M72,827h137v1h-137z M287,827h136v1h-136z M499,827h128v1h-128z M71,828h137v1h-137z M286,828h136v1h-136z M498,828h129v1h-129z M71,829h136v1h-136z M285,829h136v1h-136z M497,829h130v1h-130z M70,830h137v1h-137z M284,830h136v1h-136z M497,830h130v1h-130z M69,831h137v1h-137z M284,831h136v1h-136z M496,831h131v1h-131z M68,832h137v1h-137z M283,832h136v1h-136z M495,832h132v1h-132z M67,833h137v1h-137z M282,833h136v1h-136z M494,833h133v1h-133z M67,834h136v1h-136z M281,834h136v1h-136z M493,834h134v1h-134z M66,835h137v1h-137z M280,835h136v1h-136z M493,835h134v1h-134z M65,836h137v1h-137z M279,836h137v1h-137z M492,836h135v1h-135z M64,837h137v1h-137z M279,837h136v1h-136z M491,837h136v1h-136z M63,838h137v1h-137z M278,838h136v1h-136z M490,838h137v1h-137z M63,839h136v1h-136z M277,839h136v1h-136z M489,839h138v1h-138z M62,840h136v1h-136z M276,840h136v1h-136z M488,840h139v1h-139z M61,841h137v1h-137z M275,841h136v1h-136z M488,841h139v1h-139z M60,842h137v1h-137z M275,842h136v1h-136z M487,842h140v1h-140z M59,843h137v1h-137z M274,843h136v1h-136z M486,843h141v1h-141z M59,844h136v1h-136z M273,844h136v1h-136z M485,844h142v1h-142z M58,845h136v1h-136z M272,845h136v1h-136z M484,845h143v1h-143z M57,846h136v1h-136z M271,846h136v1h-136z M483,846h144v1h-144z M56,847h137v1h-137z M271,847h135v1h-135z M483,847h144v1h-144z M55,848h137v1h-137z M270,848h136v1h-136z M482,848h145v1h-145z M54,849h137v1h-137z M269,849h136v1h-136z M481,849h146v1h-146z M54,850h136v1h-136z M268,850h136v1h-136z M480,850h147v1h-147z M53,851h136v1h-136z M267,851h136v1h-136z M479,851h148v1h-148z M52,852h137v1h-137z M267,852h135v1h-135z M479,852h148v1h-148z M51,853h137v1h-137z M266,853h136v1h-136z M478,853h149v1h-149z M50,854h137v1h-137z M265,854h136v1h-136z M477,854h150v1h-150z M50,855h136v1h-136z M264,855h136v1h-136z M476,855h151v1h-151z M49,856h136v1h-136z M263,856h136v1h-136z M475,856h152v1h-152z M48,857h136v1h-136z M263,857h135v1h-135z M474,857h153v1h-153z M47,858h137v1h-137z M262,858h135v1h-135z M474,858h153v1h-153z M46,859h137v1h-137z M261,859h136v1h-136z M473,859h154v1h-154z M46,860h136v1h-136z M260,860h136v1h-136z M472,860h155v1h-155z M45,861h136v1h-136z M259,861h136v1h-136z M471,861h156v1h-156z M44,862h136v1h-136z M258,862h136v1h-136z M470,862h157v1h-157z M43,863h136v1h-136z M258,863h135v1h-135z M469,863h158v1h-158z M42,864h137v1h-137z M257,864h135v1h-135z M469,864h158v1h-158z M42,865h136v1h-136z M256,865h136v1h-136z M468,865h159v1h-159z M41,866h136v1h-136z M255,866h136v1h-136z M467,866h160v1h-160z M40,867h136v1h-136z M254,867h136v1h-136z M466,867h161v1h-161z M39,868h136v1h-136z M254,868h135v1h-135z M465,868h162v1h-162z M38,869h137v1h-137z M253,869h135v1h-135z M465,869h161v1h-161z M37,870h137v1h-137z M252,870h136v1h-136z M464,870h162v1h-162z M37,871h136v1h-136z M251,871h136v1h-136z M463,871h163v1h-163z M36,872h136v1h-136z M250,872h136v1h-136z M462,872h164v1h-164z M35,873h136v1h-136z M250,873h135v1h-135z M461,873h165v1h-165z M34,874h136v1h-136z M249,874h135v1h-135z M460,874h166v1h-166z M33,875h137v1h-137z M248,875h135v1h-135z M460,875h166v1h-166z M33,876h136v1h-136z M247,876h136v1h-136z M459,876h166v1h-166z M32,877h136v1h-136z M246,877h136v1h-136z M458,877h167v1h-167z M31,878h136v1h-136z M246,878h135v1h-135z M457,878h168v1h-168z M30,879h136v1h-136z M245,879h135v1h-135z M456,879h169v1h-169z M29,880h136v1h-136z M244,880h135v1h-135z M455,880h170v1h-170z M29,881h136v1h-136z M243,881h135v1h-135z M455,881h169v1h-169z M28,882h136v1h-136z M242,882h136v1h-136z M454,882h170v1h-170z M27,883h136v1h-136z M241,883h136v1h-136z M453,883h171v1h-171z M26,884h136v1h-136z M241,884h135v1h-135z M452,884h171v1h-171z M25,885h136v1h-136z M240,885h135v1h-135z M451,885h172v1h-172z M25,886h136v1h-136z M239,886h135v1h-135z M451,886h171v1h-171z M24,887h136v1h-136z M238,887h136v1h-136z M450,887h172v1h-172z M23,888h136v1h-136z M237,888h136v1h-136z M449,888h173v1h-173z M22,889h136v1h-136z M237,889h135v1h-135z M448,889h173v1h-173z M21,890h136v1h-136z M236,890h135v1h-135z M447,890h174v1h-174z M21,891h135v1h-135z M235,891h135v1h-135z M446,891h174v1h-174z M20,892h136v1h-136z M234,892h135v1h-135z M446,892h174v1h-174z M19,893h136v1h-136z M233,893h136v1h-136z M445,893h174v1h-174z M18,894h136v1h-136z M233,894h135v1h-135z M444,894h174v1h-174z M17,895h136v1h-136z M232,895h135v1h-135z M443,895h175v1h-175z M16,896h136v1h-136z M231,896h135v1h-135z M442,896h175v1h-175z M16,897h135v1h-135z M230,897h135v1h-135z M441,897h175v1h-175z M15,898h136v1h-136z M229,898h135v1h-135z M441,898h175v1h-175z M14,899h136v1h-136z M229,899h135v1h-135z M440,899h175v1h-175z M13,900h136v1h-136z M228,900h135v1h-135z M439,900h175v1h-175z M12,901h136v1h-136z M227,901h135v1h-135z M438,901h175v1h-175z M12,902h135v1h-135z M226,902h135v1h-135z M437,902h175v1h-175z M11,903h136v1h-136z M225,903h135v1h-135z M437,903h174v1h-174z M10,904h136v1h-136z M225,904h135v1h-135z M436,904h174v1h-174z M9,905h136v1h-136z M224,905h135v1h-135z M435,905h174v1h-174z M8,906h136v1h-136z M223,906h135v1h-135z M434,906h174v1h-174z M8,907h135v1h-135z M222,907h135v1h-135z M433,907h174v1h-174z M7,908h135v1h-135z M221,908h135v1h-135z M432,908h173v1h-173z M6,909h136v1h-136z M220,909h135v1h-135z M432,909h172v1h-172z M5,910h136v1h-136z M220,910h135v1h-135z M431,910h171v1h-171z M4,911h136v1h-136z M219,911h135v1h-135z M430,911h171v1h-171z M4,912h135v1h-135z M218,912h135v1h-135z M429,912h170v1h-170z M3,913h135v1h-135z M217,913h135v1h-135z M428,913h169v1h-169z M2,914h135v1h-135z M216,914h135v1h-135z M428,914h166v1h-166z M1,915h136v1h-136z M216,915h134v1h-134z M427,915h164v1h-164z M0,916h136v1h-136z M215,916h135v1h-135z M426,916h162v1h-162z M0,917h135v1h-135z M214,917h135v1h-135z M425,917h159v1h-159z"/>
<path d="M667,674h90v1h-90z M667,675h90v1h-90z M667,676h90v1h-90z M667,677h90v1h-90z M667,678h90v1h-90z M667,679h90v1h-90z M667,680h90v1h-90z M667,681h90v1h-90z M667,682h90v1h-90z M667,683h90v1h-90z M667,684h90v1h-90z M667,685h90v1h-90z M667,686h90v1h-90z M667,687h90v1h-90z M667,688h90v1h-90z M667,689h90v1h-90z M667,690h90v1h-90z M667,691h90v1h-90z M667,692h90v1h-90z M667,693h90v1h-90z M667,694h90v1h-90z M667,695h90v1h-90z M667,696h90v1h-90z M667,697h90v1h-90z M667,698h90v1h-90z M667,699h90v1h-90z M667,700h90v1h-90z M667,701h90v1h-90z M667,702h90v1h-90z M667,703h90v1h-90z M667,704h90v1h-90z M667,705h90v1h-90z M667,706h90v1h-90z M667,707h90v1h-90z M667,708h90v1h-90z M667,709h90v1h-90z M667,710h90v1h-90z M667,711h90v1h-90z M667,712h90v1h-90z M667,713h90v1h-90z M667,714h90v1h-90z M667,715h90v1h-90z M667,716h90v1h-90z M667,717h90v1h-90z M667,718h90v1h-90z M667,719h90v1h-90z M667,720h90v1h-90z M667,721h90v1h-90z M667,722h90v1h-90z M667,723h90v1h-90z M667,724h90v1h-90z M667,725h90v1h-90z M667,726h90v1h-90z M667,727h90v1h-90z M667,728h90v1h-90z M667,729h90v1h-90z M667,730h90v1h-90z M667,731h90v1h-90z M667,732h90v1h-90z M667,733h90v1h-90z M667,734h90v1h-90z M667,735h90v1h-90z M667,736h90v1h-90z M667,737h90v1h-90z M667,738h90v1h-90z M667,739h90v1h-90z M667,740h90v1h-90z M667,741h90v1h-90z M667,742h90v1h-90z M667,743h90v1h-90z M667,744h90v1h-90z M667,745h90v1h-90z M667,746h90v1h-90z M667,747h90v1h-90z M667,748h90v1h-90z M667,749h90v1h-90z M667,750h90v1h-90z M667,751h90v1h-90z M667,752h90v1h-90z M667,753h90v1h-90z M667,754h90v1h-90z M667,755h90v1h-90z M667,756h90v1h-90z M667,757h90v1h-90z M667,758h90v1h-90z M667,759h90v1h-90z M667,760h90v1h-90z M667,761h90v1h-90z M667,762h90v1h-90z M667,763h90v1h-90z M667,764h90v1h-90z M667,765h90v1h-90z M667,766h90v1h-90z M667,767h90v1h-90z M667,768h90v1h-90z M667,769h90v1h-90z M667,770h90v1h-90z M667,771h90v1h-90z M667,772h90v1h-90z M667,773h90v1h-90z M667,774h90v1h-90z M667,775h90v1h-90z M667,776h90v1h-90z M667,777h90v1h-90z M667,778h90v1h-90z M667,779h90v1h-90z M667,780h90v1h-90z M667,781h90v1h-90z M667,782h90v1h-90z M667,783h90v1h-90z M667,784h90v1h-90z M667,785h90v1h-90z M667,786h90v1h-90z M667,787h90v1h-90z M667,788h90v1h-90z M667,789h90v1h-90z M667,790h90v1h-90z M667,791h90v1h-90z M667,792h90v1h-90z M667,793h90v1h-90z M667,794h90v1h-90z M667,795h90v1h-90z M667,796h90v1h-90z M667,797h90v1h-90z M667,798h90v1h-90z M667,799h90v1h-90z M667,800h90v1h-90z M667,801h90v1h-90z M667,802h90v1h-90z M667,803h90v1h-90z M667,804h90v1h-90z M667,805h90v1h-90z M667,806h90v1h-90z M667,807h90v1h-90z M667,808h90v1h-90z M667,809h90v1h-90z M667,810h90v1h-90z M667,811h90v1h-90z M667,812h90v1h-90z M667,813h90v1h-90z M667,814h90v1h-90z M667,815h90v1h-90z M667,816h90v1h-90z M667,817h90v1h-90z M667,818h90v1h-90z M667,819h90v1h-90z M667,820h90v1h-90z M667,821h90v1h-90z M667,822h90v1h-90z M667,823h90v1h-90z M667,824h90v1h-90z M667,825h90v1h-90z M667,826h90v1h-90z M667,827h90v1h-90z M667,828h90v1h-90z M667,829h90v1h-90z M667,830h90v1h-90z M667,831h90v1h-90z M667,832h90v1h-90z M667,833h90v1h-90z M667,834h90v1h-90z M667,835h90v1h-90z M667,836h90v1h-90z M667,837h90v1h-90z M667,838h90v1h-90z M667,839h90v1h-90z M667,840h90v1h-90z M667,841h90v1h-90z M667,842h90v1h-90z M667,843h90v1h-90z M667,844h90v1h-90z M667,845h90v1h-90z M667,846h90v1h-90z M667,847h90v1h-90z M667,848h90v1h-90z M667,849h90v1h-90z M667,850h90v1h-90z M667,851h90v1h-90z M667,852h90v1h-90z M667,853h90v1h-90z M667,854h90v1h-90z M667,855h90v1h-90z M667,856h90v1h-90z M667,857h90v1h-90z M667,858h90v1h-90z M667,859h90v1h-90z M667,860h90v1h-90z M667,861h90v1h-90z M667,862h90v1h-90z M667,863h90v1h-90z M667,864h90v1h-90z M667,865h90v1h-90z M667,866h90v1h-90z M667,867h90v1h-90z M667,868h90v1h-90z M667,869h90v1h-90z M667,870h90v1h-90z M667,871h90v1h-90z M667,872h90v1h-90z M667,873h90v1h-90z M667,874h90v1h-90z M667,875h90v1h-90z M667,876h90v1h-90z M667,877h90v1h-90z M667,878h90v1h-90z M667,879h90v1h-90z M667,880h90v1h-90z M667,881h89v1h-89z M667,882h89v1h-89z M667,883h89v1h-89z M667,884h89v1h-89z M667,885h89v1h-89z M667,886h88v1h-88z M667,887h88v1h-88z M667,888h88v1h-88z M667,889h87v1h-87z M667,890h87v1h-87z M667,891h87v1h-87z M667,892h86v1h-86z M667,893h86v1h-86z M667,894h85v1h-85z M667,895h84v1h-84z M667,896h84v1h-84z M667,897h83v1h-83z M667,898h83v1h-83z M667,899h82v1h-82z M667,900h81v1h-81z M667,901h80v1h-80z M667,902h79v1h-79z M667,903h78v1h-78z M667,904h78v1h-78z M667,905h76v1h-76z M667,906h75v1h-75z M667,907h74v1h-74z M667,908h73v1h-73z M667,909h71v1h-71z M667,910h70v1h-70z M667,911h68v1h-68z M667,912h67v1h-67z M667,913h65v1h-65z M667,914h62v1h-62z M667,915h60v1h-60z M667,916h57v1h-57z M667,917h52v1h-52z"/>
<path d="M785,674h212v1h-212z M785,675h212v1h-212z M785,676h212v1h-212z M785,677h212v1h-212z M785,678h212v1h-212z M785,679h212v1h-212z M785,680h212v1h-212z M785,681h212v1h-212z M785,682h212v1h-212z M785,683h212v1h-212z M785,684h212v1h-212z M785,685h212v1h-212z M785,686h212v1h-212z M785,687h212v1h-212z M785,688h212v1h-212z M785,689h212v1h-212z M785,690h212v1h-212z M785,691h212v1h-212z M785,692h212v1h-212z M785,693h212v1h-212z M785,694h212v1h-212z M785,695h212v1h-212z M785,696h212v1h-212z M785,697h212v1h-212z M785,698h212v1h-212z M785,699h212v1h-212z M785,700h212v1h-212z M785,701h212v1h-212z M785,702h212v1h-212z M785,703h212v1h-212z M785,704h212v1h-212z M785,705h212v1h-212z M785,706h212v1h-212z M785,707h212v1h-212z M785,708h212v1h-212z M785,709h212v1h-212z M785,710h212v1h-212z M785,711h212v1h-212z M785,712h212v1h-212z M785,713h212v1h-212z M785,714h212v1h-212z M785,715h212v1h-212z M785,716h212v1h-212z M785,717h212v1h-212z M785,718h212v1h-212z M785,719h212v1h-212z M785,720h212v1h-212z M785,721h212v1h-212z M785,722h212v1h-212z M785,723h212v1h-212z M785,724h212v1h-212z M785,725h212v1h-212z M895,726h102v1h-102z M894,727h103v1h-103z M893,728h104v1h-104z M892,729h105v1h-105z M892,730h105v1h-105z M891,731h106v1h-106z M890,732h107v1h-107z M889,733h108v1h-108z M888,734h108v1h-108z M887,735h109v1h-109z M887,736h109v1h-109z M886,737h110v1h-110z M885,738h110v1h-110z M884,739h111v1h-111z M883,740h112v1h-112z M882,741h112v1h-112z M881,742h113v1h-113z M881,743h112v1h-112z M880,744h113v1h-113z M879,745h113v1h-113z M878,746h114v1h-114z M877,747h114v1h-114z M876,748h114v1h-114z M876,749h114v1h-114z M875,750h114v1h-114z M874,751h114v1h-114z M873,752h114v1h-114z M872,753h114v1h-114z M871,754h115v1h-115z M870,755h115v1h-115z M870,756h114v1h-114z M869,757h114v1h-114z M868,758h114v1h-114z M867,759h114v1h-114z M866,760h114v1h-114z M865,761h114v1h-114z M865,762h114v1h-114z M864,763h114v1h-114z M863,764h114v1h-114z M862,765h114v1h-114z M861,766h114v1h-114z M860,767h114v1h-114z M860,768h114v1h-114z M859,769h114v1h-114z M858,770h114v1h-114z M857,771h114v1h-114z M856,772h114v1h-114z M855,773h114v1h-114z M854,774h115v1h-115z M854,775h114v1h-114z M853,776h114v1h-114z M852,777h114v1h-114z M851,778h114v1h-114z M850,779h114v1h-114z M849,780h115v1h-115z M849,781h114v1h-114z M848,782h114v1h-114z M847,783h114v1h-114z M846,784h114v1h-114z M845,785h114v1h-114z M844,786h115v1h-115z M844,787h114v1h-114z M843,788h114v1h-114z M842,789h114v1h-114z M841,790h114v1h-114z M840,791h115v1h-115z M839,792h115v1h-115z M838,793h115v1h-115z M838,794h114v1h-114z M837,795h114v1h-114z M836,796h114v1h-114z M835,797h115v1h-115z M834,798h115v1h-115z M833,799h115v1h-115z M833,800h114v1h-114z M832,801h114v1h-114z M831,802h114v1h-114z M830,803h115v1h-115z M829,804h115v1h-115z M828,805h115v1h-115z M828,806h114v1h-114z M827,807h114v1h-114z M826,808h114v1h-114z M825,809h115v1h-115z M824,810h115v1h-115z M823,811h115v1h-115z M822,812h115v1h-115z M822,813h114v1h-114z M821,814h114v1h-114z M820,815h115v1h-115z M819,816h115v1h-115z M818,817h115v1h-115z M817,818h115v1h-115z M817,819h114v1h-114z M816,820h114v1h-114z M815,821h115v1h-115z M814,822h115v1h-115z M813,823h115v1h-115z M812,824h115v1h-115z M811,825h115v1h-115z M811,826h114v1h-114z M810,827h115v1h-115z M809,828h115v1h-115z M808,829h115v1h-115z M807,830h115v1h-115z M806,831h115v1h-115z M806,832h114v1h-114z M805,833h115v1h-115z M804,834h115v1h-115z M803,835h115v1h-115z M802,836h115v1h-115z M801,837h115v1h-115z M800,838h115v1h-115z M799,839h116v1h-116z M798,840h116v1h-116z M798,841h115v1h-115z M797,842h115v1h-115z M796,843h115v1h-115z M796,844h115v1h-115z M795,845h115v1h-115z M794,846h115v1h-115z M794,847h114v1h-114z M793,848h114v1h-114z M793,849h113v1h-113z M792,850h114v1h-114z M792,851h113v1h-113z M792,852h112v1h-112z M791,853h112v1h-112z M791,854h111v1h-111z M791,855h110v1h-110z M790,856h111v1h-111z M790,857h110v1h-110z M790,858h109v1h-109z M790,859h108v1h-108z M790,860h107v1h-107z M790,861h106v1h-106z M789,862h107v1h-107z M789,863h106v1h-106z M789,864h105v1h-105z M789,865h104v1h-104z M789,866h103v1h-103z M789,867h212v1h-212z M789,868h212v1h-212z M789,869h212v1h-212z M789,870h212v1h-212z M789,871h212v1h-212z M789,872h212v1h-212z M789,873h212v1h-212z M789,874h212v1h-212z M789,875h212v1h-212z M789,876h212v1h-212z M789,877h212v1h-212z M789,878h212v1h-212z M789,879h212v1h-212z M789,880h212v1h-212z M789,881h212v1h-212z M789,882h212v1h-212z M789,883h212v1h-212z M789,884h212v1h-212z M789,885h212v1h-212z M789,886h212v1h-212z M789,887h212v1h-212z M789,888h212v1h-212z M789,889h212v1h-212z M789,890h212v1h-212z M789,891h212v1h-212z M789,892h212v1h-212z M789,893h212v1h-212z M789,894h212v1h-212z M789,895h212v1h-212z M789,896h212v1h-212z M789,897h212v1h-212z M789,898h212v1h-212z M789,899h212v1h-212z M789,900h212v1h-212z M789,901h212v1h-212z M789,902h212v1h-212z M789,903h212v1h-212z M789,904h212v1h-212z M789,905h212v1h-212z M789,906h212v1h-212z M789,907h212v1h-212z M789,908h212v1h-212z M789,909h212v1h-212z M789,910h212v1h-212z M789,911h212v1h-212z M789,912h212v1h-212z M789,913h212v1h-212z M789,914h212v1h-212z M789,915h212v1h-212z M789,916h212v1h-212z M789,917h212v1h-212z"/>
<path d="M1025,674h90v1h-90z M1186,674h214v1h-214z M1025,675h90v1h-90z M1186,675h218v1h-218z M1025,676h90v1h-90z M1186,676h222v1h-222z M1025,677h90v1h-90z M1186,677h224v1h-224z M1025,678h90v1h-90z M1186,678h226v1h-226z M1025,679h90v1h-90z M1186,679h228v1h-228z M1025,680h90v1h-90z M1186,680h230v1h-230z M1025,681h90v1h-90z M1186,681h232v1h-232z M1025,682h90v1h-90z M1186,682h233v1h-233z M1025,683h90v1h-90z M1186,683h235v1h-235z M1025,684h90v1h-90z M1186,684h236v1h-236z M1025,685h90v1h-90z M1186,685h237v1h-237z M1025,686h90v1h-90z M1186,686h238v1h-238z M1025,687h90v1h-90z M1186,687h240v1h-240z M1025,688h90v1h-90z M1186,688h241v1h-241z M1025,689h90v1h-90z M1186,689h241v1h-241z M1025,690h90v1h-90z M1186,690h242v1h-242z M1025,691h90v1h-90z M1186,691h243v1h-243z M1025,692h90v1h-90z M1186,692h244v1h-244z M1025,693h90v1h-90z M1186,693h245v1h-245z M1025,694h90v1h-90z M1186,694h245v1h-245z M1025,695h90v1h-90z M1186,695h246v1h-246z M1025,696h90v1h-90z M1186,696h247v1h-247z M1025,697h90v1h-90z M1186,697h247v1h-247z M1025,698h90v1h-90z M1186,698h248v1h-248z M1025,699h90v1h-90z M1186,699h248v1h-248z M1025,700h90v1h-90z M1186,700h249v1h-249z M1025,701h90v1h-90z M1186,701h249v1h-249z M1025,702h90v1h-90z M1186,702h249v1h-249z M1025,703h90v1h-90z M1186,703h250v1h-250z M1025,704h90v1h-90z M1186,704h250v1h-250z M1025,705h90v1h-90z M1186,705h250v1h-250z M1025,706h90v1h-90z M1186,706h251v1h-251z M1025,707h90v1h-90z M1186,707h251v1h-251z M1025,708h90v1h-90z M1186,708h251v1h-251z M1025,709h90v1h-90z M1186,709h251v1h-251z M1025,710h90v1h-90z M1186,710h252v1h-252z M1025,711h90v1h-90z M1186,711h252v1h-252z M1025,712h90v1h-90z M1186,712h252v1h-252z M1025,713h90v1h-90z M1186,713h252v1h-252z M1025,714h90v1h-90z M1186,714h252v1h-252z M1025,715h90v1h-90z M1186,715h252v1h-252z M1025,716h90v1h-90z M1186,716h252v1h-252z M1025,717h90v1h-90z M1186,717h252v1h-252z M1025,718h90v1h-90z M1186,718h252v1h-252z M1025,719h90v1h-90z M1186,719h252v1h-252z M1025,720h90v1h-90z M1186,720h252v1h-252z M1025,721h90v1h-90z M1186,721h252v1h-252z M1025,722h90v1h-90z M1186,722h252v1h-252z M1025,723h90v1h-90z M1186,723h252v1h-252z M1025,724h90v1h-90z M1186,724h252v1h-252z M1025,725h90v1h-90z M1186,725h252v1h-252z M1025,726h90v1h-90z M1186,726h107v1h-107z M1333,726h105v1h-105z M1025,727h90v1h-90z M1186,727h103v1h-103z M1337,727h101v1h-101z M1025,728h90v1h-90z M1186,728h101v1h-101z M1339,728h99v1h-99z M1025,729h90v1h-90z M1186,729h100v1h-100z M1340,729h98v1h-98z M1025,730h90v1h-90z M1186,730h99v1h-99z M1342,730h96v1h-96z M1025,731h90v1h-90z M1186,731h98v1h-98z M1343,731h95v1h-95z M1025,732h90v1h-90z M1186,732h97v1h-97z M1343,732h95v1h-95z M1025,733h90v1h-90z M1186,733h96v1h-96z M1344,733h94v1h-94z M1025,734h90v1h-90z M1186,734h95v1h-95z M1345,734h93v1h-93z M1025,735h90v1h-90z M1186,735h94v1h-94z M1345,735h93v1h-93z M1025,736h90v1h-90z M1186,736h94v1h-94z M1346,736h92v1h-92z M1025,737h90v1h-90z M1186,737h93v1h-93z M1346,737h92v1h-92z M1025,738h90v1h-90z M1186,738h93v1h-93z M1346,738h92v1h-92z M1025,739h90v1h-90z M1186,739h92v1h-92z M1347,739h91v1h-91z M1025,740h90v1h-90z M1186,740h92v1h-92z M1347,740h91v1h-91z M1025,741h90v1h-90z M1186,741h92v1h-92z M1347,741h91v1h-91z M1025,742h90v1h-90z M1186,742h91v1h-91z M1347,742h91v1h-91z M1025,743h90v1h-90z M1186,743h91v1h-91z M1347,743h91v1h-91z M1025,744h90v1h-90z M1186,744h91v1h-91z M1348,744h90v1h-90z M1025,745h90v1h-90z M1186,745h91v1h-91z M1348,745h90v1h-90z M1025,746h90v1h-90z M1186,746h91v1h-91z M1348,746h90v1h-90z M1025,747h90v1h-90z M1186,747h91v1h-91z M1348,747h90v1h-90z M1025,748h90v1h-90z M1186,748h91v1h-91z M1348,748h90v1h-90z M1025,749h90v1h-90z M1186,749h90v1h-90z M1348,749h90v1h-90z M1025,750h90v1h-90z M1186,750h90v1h-90z M1348,750h90v1h-90z M1025,751h90v1h-90z M1186,751h90v1h-90z M1348,751h90v1h-90z M1025,752h90v1h-90z M1186,752h90v1h-90z M1348,752h90v1h-90z M1025,753h90v1h-90z M1186,753h90v1h-90z M1348,753h90v1h-90z M1025,754h90v1h-90z M1186,754h90v1h-90z M1348,754h90v1h-90z M1025,755h90v1h-90z M1186,755h90v1h-90z M1348,755h90v1h-90z M1025,756h90v1h-90z M1186,756h90v1h-90z M1348,756h90v1h-90z M1025,757h90v1h-90z M1186,757h90v1h-90z M1348,757h90v1h-90z M1025,758h90v1h-90z M1186,758h90v1h-90z M1348,758h90v1h-90z M1025,759h90v1h-90z M1186,759h90v1h-90z M1348,759h90v1h-90z M1025,760h90v1h-90z M1186,760h90v1h-90z M1348,760h90v1h-90z M1025,761h90v1h-90z M1186,761h90v1h-90z M1348,761h90v1h-90z M1025,762h90v1h-90z M1186,762h90v1h-90z M1348,762h90v1h-90z M1025,763h90v1h-90z M1186,763h90v1h-90z M1348,763h90v1h-90z M1025,764h90v1h-90z M1186,764h90v1h-90z M1348,764h90v1h-90z M1025,765h90v1h-90z M1186,765h90v1h-90z M1348,765h90v1h-90z M1025,766h90v1h-90z M1186,766h90v1h-90z M1348,766h90v1h-90z M1025,767h90v1h-90z M1186,767h90v1h-90z M1348,767h90v1h-90z M1025,768h90v1h-90z M1186,768h90v1h-90z M1348,768h90v1h-90z M1025,769h90v1h-90z M1186,769h90v1h-90z M1348,769h90v1h-90z M1025,770h90v1h-90z M1186,770h90v1h-90z M1348,770h90v1h-90z M1025,771h90v1h-90z M1186,771h90v1h-90z M1348,771h90v1h-90z M1025,772h90v1h-90z M1186,772h90v1h-90z M1348,772h90v1h-90z M1025,773h90v1h-90z M1186,773h90v1h-90z M1348,773h90v1h-90z M1025,774h90v1h-90z M1186,774h90v1h-90z M1348,774h90v1h-90z M1025,775h90v1h-90z M1186,775h90v1h-90z M1348,775h90v1h-90z M1025,776h90v1h-90z M1186,776h90v1h-90z M1348,776h90v1h-90z M1025,777h90v1h-90z M1186,777h90v1h-90z M1348,777h90v1h-90z M1025,778h90v1h-90z M1186,778h90v1h-90z M1348,778h90v1h-90z M1025,779h90v1h-90z M1186,779h90v1h-90z M1348,779h90v1h-90z M1025,780h90v1h-90z M1186,780h90v1h-90z M1348,780h90v1h-90z M1025,781h90v1h-90z M1186,781h90v1h-90z M1348,781h90v1h-90z M1025,782h90v1h-90z M1186,782h90v1h-90z M1348,782h90v1h-90z M1025,783h90v1h-90z M1186,783h90v1h-90z M1348,783h90v1h-90z M1025,784h90v1h-90z M1186,784h90v1h-90z M1348,784h90v1h-90z M1025,785h90v1h-90z M1186,785h90v1h-90z M1348,785h90v1h-90z M1025,786h90v1h-90z M1186,786h90v1h-90z M1348,786h90v1h-90z M1025,787h90v1h-90z M1186,787h90v1h-90z M1348,787h90v1h-90z M1025,788h90v1h-90z M1186,788h90v1h-90z M1348,788h90v1h-90z M1025,789h90v1h-90z M1186,789h90v1h-90z M1348,789h90v1h-90z M1025,790h90v1h-90z M1186,790h90v1h-90z M1348,790h90v1h-90z M1025,791h90v1h-90z M1186,791h90v1h-90z M1348,791h90v1h-90z M1025,792h90v1h-90z M1186,792h90v1h-90z M1348,792h90v1h-90z M1025,793h90v1h-90z M1186,793h90v1h-90z M1348,793h90v1h-90z M1025,794h90v1h-90z M1186,794h90v1h-90z M1348,794h90v1h-90z M1025,795h90v1h-90z M1186,795h90v1h-90z M1348,795h90v1h-90z M1025,796h90v1h-90z M1186,796h90v1h-90z M1348,796h90v1h-90z M1025,797h90v1h-90z M1186,797h90v1h-90z M1348,797h90v1h-90z M1025,798h90v1h-90z M1186,798h90v1h-90z M1348,798h90v1h-90z M1025,799h90v1h-90z M1186,799h90v1h-90z M1348,799h90v1h-90z M1025,800h90v1h-90z M1186,800h90v1h-90z M1348,800h90v1h-90z M1025,801h90v1h-90z M1186,801h90v1h-90z M1348,801h90v1h-90z M1025,802h90v1h-90z M1186,802h90v1h-90z M1348,802h90v1h-90z M1025,803h90v1h-90z M1186,803h90v1h-90z M1348,803h90v1h-90z M1025,804h90v1h-90z M1186,804h90v1h-90z M1348,804h90v1h-90z M1025,805h90v1h-90z M1186,805h90v1h-90z M1348,805h90v1h-90z M1025,806h90v1h-90z M1186,806h90v1h-90z M1348,806h90v1h-90z M1025,807h90v1h-90z M1186,807h90v1h-90z M1348,807h90v1h-90z M1025,808h90v1h-90z M1186,808h90v1h-90z M1348,808h90v1h-90z M1025,809h90v1h-90z M1186,809h90v1h-90z M1348,809h90v1h-90z M1025,810h90v1h-90z M1186,810h90v1h-90z M1348,810h90v1h-90z M1025,811h90v1h-90z M1186,811h90v1h-90z M1348,811h90v1h-90z M1025,812h90v1h-90z M1186,812h90v1h-90z M1348,812h90v1h-90z M1025,813h90v1h-90z M1186,813h90v1h-90z M1348,813h90v1h-90z M1025,814h90v1h-90z M1186,814h90v1h-90z M1348,814h90v1h-90z M1025,815h90v1h-90z M1186,815h90v1h-90z M1348,815h90v1h-90z M1025,816h90v1h-90z M1186,816h90v1h-90z M1348,816h90v1h-90z M1025,817h90v1h-90z M1186,817h90v1h-90z M1348,817h90v1h-90z M1025,818h90v1h-90z M1186,818h90v1h-90z M1348,818h90v1h-90z M1025,819h90v1h-90z M1186,819h90v1h-90z M1348,819h90v1h-90z M1025,820h90v1h-90z M1186,820h90v1h-90z M1348,820h90v1h-90z M1025,821h90v1h-90z M1186,821h90v1h-90z M1348,821h90v1h-90z M1025,822h90v1h-90z M1186,822h90v1h-90z M1348,822h90v1h-90z M1025,823h90v1h-90z M1186,823h90v1h-90z M1348,823h90v1h-90z M1025,824h90v1h-90z M1186,824h90v1h-90z M1348,824h90v1h-90z M1025,825h90v1h-90z M1186,825h90v1h-90z M1348,825h90v1h-90z M1025,826h90v1h-90z M1186,826h90v1h-90z M1348,826h90v1h-90z M1025,827h90v1h-90z M1186,827h90v1h-90z M1348,827h90v1h-90z M1025,828h90v1h-90z M1186,828h90v1h-90z M1348,828h90v1h-90z M1025,829h90v1h-90z M1186,829h90v1h-90z M1348,829h90v1h-90z M1025,830h90v1h-90z M1186,830h90v1h-90z M1348,830h90v1h-90z M1025,831h90v1h-90z M1186,831h90v1h-90z M1348,831h90v1h-90z M1025,832h90v1h-90z M1186,832h90v1h-90z M1348,832h90v1h-90z M1025,833h90v1h-90z M1186,833h90v1h-90z M1348,833h90v1h-90z M1025,834h90v1h-90z M1186,834h90v1h-90z M1348,834h90v1h-90z M1025,835h90v1h-90z M1186,835h90v1h-90z M1348,835h90v1h-90z M1025,836h90v1h-90z M1186,836h90v1h-90z M1348,836h90v1h-90z M1025,837h90v1h-90z M1186,837h90v1h-90z M1348,837h90v1h-90z M1025,838h90v1h-90z M1186,838h90v1h-90z M1348,838h90v1h-90z M1025,839h90v1h-90z M1186,839h90v1h-90z M1348,839h90v1h-90z M1025,840h90v1h-90z M1186,840h90v1h-90z M1348,840h90v1h-90z M1025,841h90v1h-90z M1186,841h90v1h-90z M1348,841h90v1h-90z M1025,842h90v1h-90z M1186,842h90v1h-90z M1348,842h90v1h-90z M1025,843h90v1h-90z M1186,843h90v1h-90z M1348,843h90v1h-90z M1025,844h90v1h-90z M1186,844h90v1h-90z M1348,844h90v1h-90z M1025,845h90v1h-90z M1186,845h90v1h-90z M1348,845h90v1h-90z M1025,846h90v1h-90z M1186,846h90v1h-90z M1348,846h90v1h-90z M1025,847h90v1h-90z M1186,847h90v1h-90z M1348,847h90v1h-90z M1025,848h90v1h-90z M1186,848h90v1h-90z M1348,848h90v1h-90z M1025,849h90v1h-90z M1185,849h91v1h-91z M1348,849h90v1h-90z M1025,850h91v1h-91z M1185,850h91v1h-91z M1348,850h90v1h-90z M1025,851h91v1h-91z M1185,851h91v1h-91z M1348,851h90v1h-90z M1025,852h91v1h-91z M1185,852h91v1h-91z M1348,852h90v1h-90z M1025,853h91v1h-91z M1184,853h92v1h-92z M1348,853h90v1h-90z M1025,854h92v1h-92z M1184,854h92v1h-92z M1348,854h90v1h-90z M1025,855h92v1h-92z M1183,855h93v1h-93z M1348,855h90v1h-90z M1025,856h93v1h-93z M1183,856h93v1h-93z M1348,856h90v1h-90z M1025,857h93v1h-93z M1182,857h94v1h-94z M1348,857h90v1h-90z M1025,858h94v1h-94z M1181,858h95v1h-95z M1348,858h90v1h-90z M1025,859h95v1h-95z M1180,859h96v1h-96z M1348,859h90v1h-90z M1025,860h95v1h-95z M1180,860h96v1h-96z M1348,860h90v1h-90z M1025,861h96v1h-96z M1178,861h98v1h-98z M1348,861h90v1h-90z M1025,862h97v1h-97z M1177,862h99v1h-99z M1348,862h90v1h-90z M1025,863h99v1h-99z M1176,863h100v1h-100z M1348,863h90v1h-90z M1025,864h101v1h-101z M1174,864h102v1h-102z M1348,864h90v1h-90z M1025,865h104v1h-104z M1171,865h105v1h-105z M1348,865h90v1h-90z M1025,866h251v1h-251z M1348,866h90v1h-90z M1025,867h251v1h-251z M1348,867h90v1h-90z M1025,868h251v1h-251z M1348,868h90v1h-90z M1025,869h251v1h-251z M1348,869h90v1h-90z M1025,870h251v1h-251z M1348,870h90v1h-90z M1025,871h251v1h-251z M1348,871h90v1h-90z M1025,872h251v1h-251z M1348,872h90v1h-90z M1025,873h251v1h-251z M1348,873h90v1h-90z M1025,874h251v1h-251z M1348,874h90v1h-90z M1025,875h251v1h-251z M1348,875h90v1h-90z M1025,876h251v1h-251z M1348,876h90v1h-90z M1025,877h251v1h-251z M1348,877h90v1h-90z M1025,878h251v1h-251z M1348,878h90v1h-90z M1025,879h251v1h-251z M1348,879h90v1h-90z M1025,880h251v1h-251z M1348,880h90v1h-90z M1025,881h251v1h-251z M1348,881h90v1h-90z M1025,882h251v1h-251z M1348,882h90v1h-90z M1026,883h250v1h-250z M1348,883h90v1h-90z M1026,884h249v1h-249z M1348,884h90v1h-90z M1026,885h249v1h-249z M1348,885h90v1h-90z M1026,886h249v1h-249z M1348,886h90v1h-90z M1027,887h248v1h-248z M1348,887h90v1h-90z M1027,888h247v1h-247z M1348,888h90v1h-90z M1027,889h247v1h-247z M1348,889h90v1h-90z M1028,890h246v1h-246z M1348,890h90v1h-90z M1028,891h245v1h-245z M1348,891h90v1h-90z M1029,892h244v1h-244z M1348,892h90v1h-90z M1029,893h243v1h-243z M1348,893h90v1h-90z M1030,894h242v1h-242z M1348,894h90v1h-90z M1030,895h241v1h-241z M1348,895h90v1h-90z M1031,896h239v1h-239z M1348,896h90v1h-90z M1031,897h239v1h-239z M1348,897h90v1h-90z M1032,898h237v1h-237z M1348,898h90v1h-90z M1033,899h235v1h-235z M1348,899h90v1h-90z M1034,900h234v1h-234z M1348,900h90v1h-90z M1034,901h233v1h-233z M1348,901h90v1h-90z M1035,902h231v1h-231z M1348,902h90v1h-90z M1036,903h229v1h-229z M1348,903h90v1h-90z M1037,904h227v1h-227z M1348,904h90v1h-90z M1038,905h225v1h-225z M1348,905h90v1h-90z M1039,906h223v1h-223z M1348,906h90v1h-90z M1040,907h221v1h-221z M1348,907h90v1h-90z M1042,908h217v1h-217z M1348,908h90v1h-90z M1043,909h215v1h-215z M1348,909h90v1h-90z M1045,910h212v1h-212z M1348,910h90v1h-90z M1046,911h209v1h-209z M1348,911h90v1h-90z M1048,912h205v1h-205z M1348,912h90v1h-90z M1050,913h201v1h-201z M1348,913h90v1h-90z M1052,914h197v1h-197z M1348,914h90v1h-90z M1055,915h191v1h-191z M1348,915h90v1h-90z M1058,916h185v1h-185z M1348,916h90v1h-90z M1062,917h177v1h-177z M1348,917h90v1h-90z"/>
<path d="M1510,674h179v1h-179z M1505,675h188v1h-188z M1502,676h195v1h-195z M1499,677h200v1h-200z M1497,678h205v1h-205z M1495,679h209v1h-209z M1493,680h212v1h-212z M1492,681h215v1h-215z M1490,682h219v1h-219z M1489,683h221v1h-221z M1488,684h223v1h-223z M1486,685h226v1h-226z M1485,686h229v1h-229z M1484,687h231v1h-231z M1483,688h233v1h-233z M1482,689h235v1h-235z M1481,690h236v1h-236z M1481,691h237v1h-237z M1480,692h239v1h-239z M1479,693h241v1h-241z M1478,694h242v1h-242z M1478,695h243v1h-243z M1477,696h245v1h-245z M1477,697h245v1h-245z M1476,698h247v1h-247z M1476,699h247v1h-247z M1475,700h249v1h-249z M1475,701h249v1h-249z M1474,702h251v1h-251z M1474,703h251v1h-251z M1474,704h251v1h-251z M1473,705h253v1h-253z M1473,706h253v1h-253z M1473,707h253v1h-253z M1473,708h253v1h-253z M1473,709h253v1h-253z M1472,710h255v1h-255z M1472,711h255v1h-255z M1472,712h255v1h-255z M1472,713h255v1h-255z M1472,714h255v1h-255z M1472,715h255v1h-255z M1472,716h255v1h-255z M1472,717h255v1h-255z M1472,718h255v1h-255z M1472,719h255v1h-255z M1472,720h255v1h-255z M1472,721h255v1h-255z M1472,722h255v1h-255z M1472,723h255v1h-255z M1472,724h255v1h-255z M1472,725h255v1h-255z M1472,726h105v1h-105z M1622,726h105v1h-105z M1472,727h101v1h-101z M1626,727h101v1h-101z M1472,728h99v1h-99z M1628,728h99v1h-99z M1472,729h98v1h-98z M1629,729h98v1h-98z M1472,730h96v1h-96z M1631,730h96v1h-96z M1472,731h95v1h-95z M1632,731h95v1h-95z M1472,732h95v1h-95z M1632,732h95v1h-95z M1472,733h94v1h-94z M1633,733h94v1h-94z M1472,734h93v1h-93z M1634,734h93v1h-93z M1472,735h93v1h-93z M1634,735h93v1h-93z M1472,736h92v1h-92z M1635,736h92v1h-92z M1472,737h92v1h-92z M1635,737h92v1h-92z M1472,738h92v1h-92z M1635,738h92v1h-92z M1472,739h91v1h-91z M1636,739h91v1h-91z M1472,740h91v1h-91z M1636,740h91v1h-91z M1472,741h91v1h-91z M1636,741h91v1h-91z M1472,742h91v1h-91z M1636,742h91v1h-91z M1472,743h90v1h-90z M1637,743h90v1h-90z M1472,744h90v1h-90z M1637,744h90v1h-90z M1472,745h90v1h-90z M1637,745h90v1h-90z M1472,746h90v1h-90z M1637,746h90v1h-90z M1472,747h90v1h-90z M1637,747h90v1h-90z M1472,748h90v1h-90z M1637,748h90v1h-90z M1472,749h90v1h-90z M1637,749h90v1h-90z M1472,750h90v1h-90z M1637,750h90v1h-90z M1472,751h90v1h-90z M1637,751h90v1h-90z M1472,752h90v1h-90z M1637,752h90v1h-90z M1472,753h90v1h-90z M1637,753h90v1h-90z M1472,754h90v1h-90z M1637,754h90v1h-90z M1472,755h90v1h-90z M1637,755h90v1h-90z M1472,756h90v1h-90z M1637,756h90v1h-90z M1472,757h90v1h-90z M1637,757h90v1h-90z M1472,758h90v1h-90z M1637,758h90v1h-90z M1472,759h90v1h-90z M1637,759h90v1h-90z M1472,760h90v1h-90z M1637,760h90v1h-90z M1472,761h90v1h-90z M1637,761h90v1h-90z M1472,762h90v1h-90z M1637,762h90v1h-90z M1472,763h90v1h-90z M1637,763h90v1h-90z M1472,764h90v1h-90z M1637,764h90v1h-90z M1472,765h90v1h-90z M1637,765h90v1h-90z M1472,766h90v1h-90z M1637,766h90v1h-90z M1472,767h90v1h-90z M1637,767h90v1h-90z M1472,768h90v1h-90z M1637,768h90v1h-90z M1472,769h90v1h-90z M1637,769h90v1h-90z M1472,770h90v1h-90z M1637,770h90v1h-90z M1472,771h90v1h-90z M1637,771h90v1h-90z M1472,772h90v1h-90z M1637,772h90v1h-90z M1472,773h90v1h-90z M1637,773h90v1h-90z M1472,774h90v1h-90z M1637,774h90v1h-90z M1472,775h90v1h-90z M1637,775h90v1h-90z M1472,776h90v1h-90z M1637,776h90v1h-90z M1472,777h90v1h-90z M1637,777h90v1h-90z M1472,778h90v1h-90z M1637,778h90v1h-90z M1472,779h90v1h-90z M1637,779h90v1h-90z M1472,780h90v1h-90z M1637,780h90v1h-90z M1472,781h90v1h-90z M1637,781h90v1h-90z M1472,782h90v1h-90z M1637,782h90v1h-90z M1472,783h90v1h-90z M1637,783h90v1h-90z M1472,784h90v1h-90z M1637,784h90v1h-90z M1472,785h90v1h-90z M1637,785h90v1h-90z M1472,786h90v1h-90z M1637,786h90v1h-90z M1472,787h90v1h-90z M1637,787h90v1h-90z M1472,788h90v1h-90z M1637,788h90v1h-90z M1472,789h90v1h-90z M1637,789h90v1h-90z M1472,790h90v1h-90z M1637,790h90v1h-90z M1472,791h90v1h-90z M1637,791h90v1h-90z M1472,792h90v1h-90z M1637,792h90v1h-90z M1472,793h90v1h-90z M1637,793h90v1h-90z M1472,794h90v1h-90z M1637,794h90v1h-90z M1472,795h90v1h-90z M1637,795h90v1h-90z M1472,796h90v1h-90z M1637,796h90v1h-90z M1472,797h90v1h-90z M1637,797h90v1h-90z M1472,798h90v1h-90z M1637,798h90v1h-90z M1472,799h90v1h-90z M1637,799h90v1h-90z M1472,800h90v1h-90z M1637,800h90v1h-90z M1472,801h90v1h-90z M1637,801h90v1h-90z M1472,802h90v1h-90z M1637,802h90v1h-90z M1472,803h90v1h-90z M1637,803h90v1h-90z M1472,804h90v1h-90z M1637,804h90v1h-90z M1472,805h90v1h-90z M1637,805h90v1h-90z M1472,806h90v1h-90z M1637,806h90v1h-90z M1472,807h90v1h-90z M1637,807h90v1h-90z M1472,808h90v1h-90z M1637,808h90v1h-90z M1472,809h90v1h-90z M1637,809h90v1h-90z M1472,810h90v1h-90z M1637,810h90v1h-90z M1472,811h90v1h-90z M1637,811h90v1h-90z M1472,812h90v1h-90z M1637,812h90v1h-90z M1472,813h90v1h-90z M1637,813h90v1h-90z M1472,814h90v1h-90z M1637,814h90v1h-90z M1472,815h90v1h-90z M1637,815h90v1h-90z M1472,816h90v1h-90z M1637,816h90v1h-90z M1472,817h90v1h-90z M1637,817h90v1h-90z M1472,818h90v1h-90z M1637,818h90v1h-90z M1472,819h90v1h-90z M1637,819h90v1h-90z M1472,820h90v1h-90z M1637,820h90v1h-90z M1472,821h90v1h-90z M1637,821h90v1h-90z M1472,822h90v1h-90z M1637,822h90v1h-90z M1472,823h90v1h-90z M1637,823h90v1h-90z M1472,824h90v1h-90z M1637,824h90v1h-90z M1472,825h90v1h-90z M1637,825h90v1h-90z M1472,826h90v1h-90z M1637,826h90v1h-90z M1472,827h90v1h-90z M1637,827h90v1h-90z M1472,828h90v1h-90z M1637,828h90v1h-90z M1472,829h90v1h-90z M1637,829h90v1h-90z M1472,830h90v1h-90z M1637,830h90v1h-90z M1472,831h90v1h-90z M1637,831h90v1h-90z M1472,832h90v1h-90z M1637,832h90v1h-90z M1472,833h90v1h-90z M1637,833h90v1h-90z M1472,834h90v1h-90z M1637,834h90v1h-90z M1472,835h90v1h-90z M1637,835h90v1h-90z M1472,836h90v1h-90z M1637,836h90v1h-90z M1472,837h90v1h-90z M1637,837h90v1h-90z M1472,838h90v1h-90z M1637,838h90v1h-90z M1472,839h90v1h-90z M1637,839h90v1h-90z M1472,840h90v1h-90z M1637,840h90v1h-90z M1472,841h90v1h-90z M1637,841h90v1h-90z M1472,842h90v1h-90z M1637,842h90v1h-90z M1472,843h90v1h-90z M1637,843h90v1h-90z M1472,844h90v1h-90z M1637,844h90v1h-90z M1472,845h90v1h-90z M1637,845h90v1h-90z M1472,846h90v1h-90z M1637,846h90v1h-90z M1472,847h90v1h-90z M1637,847h90v1h-90z M1472,848h90v1h-90z M1637,848h90v1h-90z M1472,849h91v1h-91z M1636,849h91v1h-91z M1472,850h91v1h-91z M1636,850h91v1h-91z M1472,851h91v1h-91z M1636,851h91v1h-91z M1472,852h91v1h-91z M1636,852h91v1h-91z M1472,853h92v1h-92z M1635,853h92v1h-92z M1472,854h92v1h-92z M1635,854h92v1h-92z M1472,855h92v1h-92z M1635,855h92v1h-92z M1472,856h93v1h-93z M1634,856h93v1h-93z M1472,857h93v1h-93z M1634,857h93v1h-93z M1472,858h94v1h-94z M1633,858h94v1h-94z M1472,859h95v1h-95z M1632,859h95v1h-95z M1472,860h95v1h-95z M1632,860h95v1h-95z M1472,861h96v1h-96z M1631,861h96v1h-96z M1472,862h98v1h-98z M1629,862h98v1h-98z M1472,863h99v1h-99z M1628,863h99v1h-99z M1472,864h101v1h-101z M1626,864h101v1h-101z M1472,865h104v1h-104z M1623,865h104v1h-104z M1472,866h255v1h-255z M1472,867h255v1h-255z M1472,868h255v1h-255z M1472,869h255v1h-255z M1472,870h255v1h-255z M1472,871h255v1h-255z M1472,872h255v1h-255z M1472,873h255v1h-255z M1472,874h255v1h-255z M1472,875h255v1h-255z M1472,876h255v1h-255z M1472,877h255v1h-255z M1472,878h255v1h-255z M1472,879h255v1h-255z M1472,880h255v1h-255z M1472,881h255v1h-255z M1473,882h253v1h-253z M1473,883h253v1h-253z M1473,884h253v1h-253z M1473,885h253v1h-253z M1473,886h253v1h-253z M1474,887h251v1h-251z M1474,888h251v1h-251z M1474,889h251v1h-251z M1475,890h249v1h-249z M1475,891h249v1h-249z M1476,892h247v1h-247z M1476,893h247v1h-247z M1477,894h245v1h-245z M1477,895h245v1h-245z M1478,896h243v1h-243z M1478,897h242v1h-242z M1479,898h241v1h-241z M1480,899h239v1h-239z M1481,900h237v1h-237z M1481,901h237v1h-237z M1482,902h235v1h-235z M1483,903h233v1h-233z M1484,904h231v1h-231z M1485,905h229v1h-229z M1486,906h227v1h-227z M1487,907h224v1h-224z M1489,908h221v1h-221z M1490,909h219v1h-219z M1491,910h216v1h-216z M1493,911h213v1h-213z M1495,912h209v1h-209z M1497,913h205v1h-205z M1499,914h201v1h-201z M1502,915h195v1h-195z M1505,916h189v1h-189z M1509,917h181v1h-181z"/>
<path d="M1780,857h13v1h-13z M1776,858h21v1h-21z M1773,859h27v1h-27z M1771,860h31v1h-31z M1770,861h34v1h-34z M1768,862h37v1h-37z M1767,863h40v1h-40z M1765,864h43v1h-43z M1764,865h45v1h-45z M1763,866h17v1h-17z M1793,866h17v1h-17z M1763,867h15v1h-15z M1796,867h15v1h-15z M1762,868h14v1h-14z M1797,868h15v1h-15z M1761,869h13v1h-13z M1799,869h14v1h-14z M1760,870h13v1h-13z M1800,870h13v1h-13z M1760,871h12v1h-12z M1774,871h15v1h-15z M1801,871h13v1h-13z M1759,872h12v1h-12z M1774,872h21v1h-21z M1802,872h13v1h-13z M1759,873h11v1h-11z M1774,873h23v1h-23z M1803,873h12v1h-12z M1758,874h11v1h-11z M1774,874h25v1h-25z M1804,874h12v1h-12z M1758,875h11v1h-11z M1774,875h25v1h-25z M1805,875h11v1h-11z M1757,876h11v1h-11z M1774,876h26v1h-26z M1805,876h11v1h-11z M1757,877h10v1h-10z M1774,877h26v1h-26z M1806,877h11v1h-11z M1757,878h10v1h-10z M1774,878h8v1h-8z M1790,878h11v1h-11z M1806,878h11v1h-11z M1756,879h10v1h-10z M1774,879h8v1h-8z M1792,879h9v1h-9z M1807,879h10v1h-10z M1756,880h10v1h-10z M1774,880h8v1h-8z M1792,880h9v1h-9z M1807,880h11v1h-11z M1756,881h10v1h-10z M1774,881h8v1h-8z M1792,881h9v1h-9z M1807,881h11v1h-11z M1756,882h10v1h-10z M1774,882h8v1h-8z M1792,882h9v1h-9z M1807,882h11v1h-11z M1756,883h9v1h-9z M1774,883h8v1h-8z M1791,883h10v1h-10z M1808,883h10v1h-10z M1756,884h9v1h-9z M1774,884h8v1h-8z M1790,884h11v1h-11z M1808,884h10v1h-10z M1755,885h10v1h-10z M1774,885h27v1h-27z M1808,885h10v1h-10z M1755,886h10v1h-10z M1774,886h26v1h-26z M1808,886h10v1h-10z M1755,887h10v1h-10z M1774,887h26v1h-26z M1808,887h10v1h-10z M1755,888h10v1h-10z M1774,888h25v1h-25z M1808,888h10v1h-10z M1755,889h10v1h-10z M1774,889h24v1h-24z M1808,889h10v1h-10z M1755,890h10v1h-10z M1774,890h22v1h-22z M1808,890h10v1h-10z M1755,891h10v1h-10z M1774,891h8v1h-8z M1785,891h8v1h-8z M1808,891h10v1h-10z M1756,892h9v1h-9z M1774,892h8v1h-8z M1785,892h9v1h-9z M1808,892h10v1h-10z M1756,893h9v1h-9z M1774,893h8v1h-8z M1786,893h9v1h-9z M1808,893h10v1h-10z M1756,894h9v1h-9z M1774,894h8v1h-8z M1786,894h9v1h-9z M1808,894h10v1h-10z M1756,895h10v1h-10z M1774,895h8v1h-8z M1787,895h9v1h-9z M1807,895h11v1h-11z M1756,896h10v1h-10z M1774,896h8v1h-8z M1787,896h10v1h-10z M1807,896h11v1h-11z M1756,897h10v1h-10z M1774,897h8v1h-8z M1788,897h9v1h-9z M1807,897h10v1h-10z M1757,898h10v1h-10z M1774,898h8v1h-8z M1788,898h10v1h-10z M1806,898h11v1h-11z M1757,899h10v1h-10z M1774,899h8v1h-8z M1789,899h10v1h-10z M1806,899h11v1h-11z M1757,900h11v1h-11z M1774,900h8v1h-8z M1790,900h9v1h-9z M1805,900h11v1h-11z M1758,901h10v1h-10z M1774,901h8v1h-8z M1790,901h10v1h-10z M1805,901h11v1h-11z M1758,902h11v1h-11z M1774,902h8v1h-8z M1791,902h10v1h-10z M1804,902h12v1h-12z M1758,903h12v1h-12z M1774,903h8v1h-8z M1791,903h10v1h-10z M1803,903h12v1h-12z M1759,904h12v1h-12z M1774,904h8v1h-8z M1792,904h23v1h-23z M1760,905h12v1h-12z M1801,905h13v1h-13z M1760,906h13v1h-13z M1800,906h13v1h-13z M1761,907h13v1h-13z M1799,907h14v1h-14z M1762,908h13v1h-13z M1798,908h14v1h-14z M1762,909h15v1h-15z M1796,909h15v1h-15z M1763,910h16v1h-16z M1794,910h16v1h-16z M1764,911h19v1h-19z M1790,911h19v1h-19z M1765,912h43v1h-43z M1767,913h40v1h-40z M1768,914h37v1h-37z M1770,915h34v1h-34z M1771,916h31v1h-31z M1774,917h26v1h-26z"/>
  </g>
</svg>