<?xml version="1.0" encoding="UTF-8"?>
<svg xmlns="http://www.w3.org/2000/svg" viewBox="0 0 400 160" width="400" height="160">
  <g transform="translate(75.98,12.00) scale(0.124771)" fill="white">
<path d="M687,0h273v1h-273z M686,1h275v1h-275z M685,2h276v1h-276z M685,3h277v1h-277z M684,4h278v1h-278z M684,5h278v1h-278z M683,6h279v1h-279z M683,7h280v1h-280z M682,8h281v1h-281z M681,9h282v1h-282z M681,10h282v1h-282z M680,11h284v1h-284z M680,12h284v1h-284z M679,13h285v1h-285z M678,14h286v1h-286z M678,15h287v1h-287z M677,16h288v1h-288z M677,17h288v1h-288z M676,18h290v1h-290z M676,19h290v1h-290z M675,20h291v1h-291z M674,21h292v1h-292z M674,22h293v1h-293z M673,23h294v1h-294z M673,24h294v1h-294z M672,25h295v1h-295z M672,26h296v1h-296z M671,27h297v1h-297z M670,28h298v1h-298z M670,29h298v1h-298z M669,30h300v1h-300z M669,31h300v1h-300z M668,32h301v1h-301z M668,33h302v1h-302z M667,34h303v1h-303z M666,35h304v1h-304z M666,36h304v1h-304z M665,37h306v1h-306z M665,38h306v1h-306z M664,39h307v1h-307z M664,40h307v1h-307z M663,41h309v1h-309z M662,42h310v1h-310z M662,43h310v1h-310z M661,44h311v1h-311z M661,45h312v1h-312z M660,46h313v1h-313z M660,47h313v1h-313z M659,48h315v1h-315z M658,49h316v1h-316z M658,50h316v1h-316z M657,51h317v1h-317z M657,52h318v1h-318z M656,53h319v1h-319z M655,54h320v1h-320z M655,55h320v1h-320z M654,56h322v1h-322z M654,57h322v1h-322z M658,58h318v1h-318z M673,59h303v1h-303z M690,60h287v1h-287z M706,61h271v1h-271z M721,62h256v1h-256z M738,63h240v1h-240z M754,64h224v1h-224z M769,65h209v1h-209z M785,66h193v1h-193z M801,67h178v1h-178z M817,68h162v1h-162z M833,69h146v1h-146z M849,70h130v1h-130z M865,71h115v1h-115z M881,72h99v1h-99z M897,73h83v1h-83z M913,74h67v1h-67z M929,75h52v1h-52z M944,76h37v1h-37z M961,77h20v1h-20z M976,78h5v1h-5z"/>
<path d="M1174,0h416v1h-416z M1174,1h436v1h-436z M1173,2h448v1h-448z M1173,3h457v1h-457z M1172,4h465v1h-465z M1171,5h472v1h-472z M1171,6h478v1h-478z M1170,7h483v1h-483z M1170,8h488v1h-488z M1169,9h493v1h-493z M1169,10h497v1h-497z M1168,11h502v1h-502z M1167,12h506v1h-506z M1167,13h509v1h-509z M1166,14h513v1h-513z M1166,15h516v1h-516z M1165,16h520v1h-520z M1165,17h523v1h-523z M1164,18h526v1h-526z M1163,19h530v1h-530z M1163,20h532v1h-532z M1162,21h535v1h-535z M1162,22h537v1h-537z M1161,23h540v1h-540z M1160,24h543v1h-543z M1160,25h545v1h-545z M1159,26h548v1h-548z M1159,27h550v1h-550z M1158,28h553v1h-553z M1158,29h554v1h-554z M1157,30h557v1h-557z M1156,31h559v1h-559z M1156,32h561v1h-561z M1155,33h563v1h-563z M1155,34h565v1h-565z M1154,35h567v1h-567z M1154,36h568v1h-568z M1153,37h571v1h-571z M1152,38h573v1h-573z M1152,39h574v1h-574z M1151,40h577v1h-577z M1151,41h578v1h-578z M1150,42h580v1h-580z M1150,43h581v1h-581z M1149,44h583v1h-583z M1148,45h585v1h-585z M1148,46h586v1h-586z M1147,47h588v1h-588z M1147,48h589v1h-589z M1146,49h591v1h-591z M1146,50h592v1h-592z M1145,51h594v1h-594z M1144,52h596v1h-596z M1144,53h596v1h-596z M1143,54h598v1h-598z M1143,55h599v1h-599z M1142,56h601v1h-601z M1141,57h602v1h-602z M1141,58h603v1h-603z M1140,59h605v1h-605z M1140,60h606v1h-606z M1139,61h607v1h-607z M1139,62h608v1h-608z M1138,63h610v1h-610z M1137,64h611v1h-611z M1137,65h612v1h-612z M1136,66h613v1h-613z M1136,67h614v1h-614z M1135,68h616v1h-616z M1135,69h616v1h-616z M1134,70h618v1h-618z M1133,71h619v1h-619z M1133,72h620v1h-620z M1132,73h621v1h-621z M1132,74h622v1h-622z M1131,75h623v1h-623z M1131,76h623v1h-623z M1130,77h625v1h-625z M1129,78h626v1h-626z M1129,79h627v1h-627z M1128,80h628v1h-628z M1128,81h628v1h-628z M1127,82h630v1h-630z M1127,83h630v1h-630z M1126,84h631v1h-631z M1125,85h633v1h-633z M1125,86h633v1h-633z M1124,87h634v1h-634z M1124,88h635v1h-635z M1133,89h626v1h-626z M1147,90h612v1h-612z M1161,91h599v1h-599z M1175,92h585v1h-585z M1190,93h570v1h-570z M1204,94h556v1h-556z M1219,95h541v1h-541z M1232,96h529v1h-529z M1247,97h514v1h-514z M1262,98h499v1h-499z M1276,99h485v1h-485z M1290,100h471v1h-471z M1304,101h458v1h-458z M1319,102h443v1h-443z M1332,103h430v1h-430z M1340,104h422v1h-422z M1339,105h423v1h-423z M1338,106h424v1h-424z M1338,107h424v1h-424z M1337,108h425v1h-425z M1337,109h426v1h-426z M1336,110h427v1h-427z M1336,111h427v1h-427z M1335,112h428v1h-428z M1334,113h429v1h-429z M1334,114h429v1h-429z M1333,115h430v1h-430z M1333,116h430v1h-430z M1332,117h431v1h-431z M1322,118h441v1h-441z M1307,119h456v1h-456z M1292,120h471v1h-471z M1276,121h487v1h-487z M1261,122h502v1h-502z M1245,123h518v1h-518z M1229,124h534v1h-534z M1214,125h549v1h-549z M1198,126h565v1h-565z M1183,127h580v1h-580z M1167,128h596v1h-596z M1151,129h612v1h-612z M1136,130h627v1h-627z M1120,131h643v1h-643z M1105,132h658v1h-658z M1098,133h665v1h-665z M1097,134h666v1h-666z M1097,135h666v1h-666z M1096,136h667v1h-667z M1095,137h667v1h-667z M1095,138h667v1h-667z M1094,139h668v1h-668z M1094,140h668v1h-668z M1093,141h325v1h-325z M1490,141h272v1h-272z M1093,142h324v1h-324z M1494,142h268v1h-268z M1092,143h324v1h-324z M1497,143h265v1h-265z M1091,144h325v1h-325z M1499,144h263v1h-263z M1091,145h324v1h-324z M1501,145h261v1h-261z M1090,146h325v1h-325z M1503,146h258v1h-258z M1090,147h324v1h-324z M1504,147h257v1h-257z M1089,148h324v1h-324z M1506,148h255v1h-255z M1089,149h324v1h-324z M1507,149h254v1h-254z M1088,150h324v1h-324z M1508,150h253v1h-253z M1087,151h325v1h-325z M1509,151h252v1h-252z M1087,152h324v1h-324z M1510,152h250v1h-250z M1086,153h325v1h-325z M1511,153h249v1h-249z M1086,154h324v1h-324z M1512,154h248v1h-248z M1085,155h324v1h-324z M1513,155h247v1h-247z M1084,156h325v1h-325z M1514,156h246v1h-246z M1084,157h324v1h-324z M1514,157h245v1h-245z M1083,158h325v1h-325z M1515,158h244v1h-244z M1083,159h324v1h-324z M1516,159h243v1h-243z M1082,160h325v1h-325z M1516,160h243v1h-243z M1082,161h324v1h-324z M1517,161h242v1h-242z M1081,162h324v1h-324z M1517,162h241v1h-241z M1080,163h325v1h-325z M1518,163h240v1h-240z M1080,164h324v1h-324z M1518,164h240v1h-240z M1079,165h325v1h-325z M1519,165h239v1h-239z M1079,166h324v1h-324z M1519,166h238v1h-238z M1078,167h325v1h-325z M1520,167h237v1h-237z M1078,168h324v1h-324z M1520,168h237v1h-237z M1077,169h324v1h-324z M1520,169h237v1h-237z M1076,170h325v1h-325z M1521,170h235v1h-235z M1076,171h324v1h-324z M1521,171h235v1h-235z M1075,172h325v1h-325z M1521,172h235v1h-235z M1075,173h324v1h-324z M1521,173h235v1h-235z M1074,174h324v1h-324z M1522,174h233v1h-233z M1074,175h324v1h-324z M1522,175h233v1h-233z M1073,176h324v1h-324z M1522,176h233v1h-233z M1072,177h325v1h-325z M1522,177h233v1h-233z M1072,178h324v1h-324z M1522,178h232v1h-232z M1071,179h325v1h-325z M1523,179h231v1h-231z M1071,180h324v1h-324z M1523,180h231v1h-231z M1070,181h324v1h-324z M1523,181h230v1h-230z M1069,182h325v1h-325z M1523,182h230v1h-230z M1069,183h324v1h-324z M1523,183h230v1h-230z M1068,184h325v1h-325z M1523,184h229v1h-229z M1068,185h324v1h-324z M1523,185h229v1h-229z M1067,186h325v1h-325z M1523,186h229v1h-229z M1067,187h324v1h-324z M1523,187h228v1h-228z M1066,188h324v1h-324z M1523,188h228v1h-228z M1065,189h325v1h-325z M1523,189h227v1h-227z M1065,190h324v1h-324z M1523,190h227v1h-227z M1064,191h325v1h-325z M1523,191h227v1h-227z M1064,192h324v1h-324z M1523,192h226v1h-226z M1063,193h325v1h-325z M1523,193h226v1h-226z M1063,194h324v1h-324z M1522,194h226v1h-226z M1062,195h324v1h-324z M1522,195h226v1h-226z M1061,196h325v1h-325z M1522,196h226v1h-226z M1061,197h324v1h-324z M1522,197h225v1h-225z M1060,198h325v1h-325z M1522,198h225v1h-225z M1060,199h324v1h-324z M1522,199h224v1h-224z M1059,200h325v1h-325z M1521,200h225v1h-225z M1059,201h324v1h-324z M1521,201h224v1h-224z M1058,202h324v1h-324z M1521,202h224v1h-224z M1057,203h325v1h-325z M1521,203h223v1h-223z M1057,204h324v1h-324z M1520,204h224v1h-224z M1056,205h325v1h-325z M1520,205h223v1h-223z M1056,206h324v1h-324z M1520,206h223v1h-223z M1055,207h324v1h-324z M1520,207h222v1h-222z M1055,208h324v1h-324z M1519,208h223v1h-223z M1054,209h324v1h-324z M1519,209h222v1h-222z M1053,210h325v1h-325z M1519,210h222v1h-222z M1053,211h324v1h-324z M1518,211h222v1h-222z M1052,212h325v1h-325z M1518,212h222v1h-222z M1052,213h324v1h-324z M1517,213h222v1h-222z M1051,214h324v1h-324z M1517,214h222v1h-222z M1050,215h325v1h-325z M1516,215h222v1h-222z M1050,216h324v1h-324z M1516,216h221v1h-221z M1049,217h325v1h-325z M1516,217h221v1h-221z M1049,218h324v1h-324z M1515,218h221v1h-221z M1048,219h325v1h-325z M1515,219h221v1h-221z M1048,220h324v1h-324z M1514,220h221v1h-221z M1047,221h324v1h-324z M1514,221h220v1h-220z M1046,222h325v1h-325z M1513,222h221v1h-221z M1046,223h324v1h-324z M1512,223h221v1h-221z M1045,224h325v1h-325z M1512,224h221v1h-221z M1045,225h324v1h-324z M1511,225h221v1h-221z M1044,226h325v1h-325z M1511,226h220v1h-220z M1044,227h324v1h-324z M1510,227h221v1h-221z M1043,228h324v1h-324z M1509,228h221v1h-221z M1042,229h325v1h-325z M1509,229h220v1h-220z M1042,230h324v1h-324z M1508,230h221v1h-221z M1041,231h325v1h-325z M1507,231h221v1h-221z M1041,232h324v1h-324z M1506,232h221v1h-221z M1040,233h324v1h-324z M1506,233h221v1h-221z M1040,234h324v1h-324z M1505,234h221v1h-221z M1039,235h324v1h-324z M1504,235h221v1h-221z M1038,236h325v1h-325z M1503,236h222v1h-222z M1038,237h324v1h-324z M1502,237h222v1h-222z M1037,238h325v1h-325z M1501,238h222v1h-222z M1037,239h324v1h-324z M1501,239h222v1h-222z M1036,240h324v1h-324z M1500,240h222v1h-222z M1035,241h325v1h-325z M1499,241h222v1h-222z M1035,242h324v1h-324z M1498,242h222v1h-222z M1034,243h325v1h-325z M1497,243h223v1h-223z M1034,244h324v1h-324z M1495,244h224v1h-224z M1033,245h325v1h-325z M1494,245h224v1h-224z M1033,246h324v1h-324z M1493,246h224v1h-224z M1032,247h324v1h-324z M1492,247h224v1h-224z M1031,248h325v1h-325z M1491,248h225v1h-225z M1031,249h324v1h-324z M1490,249h225v1h-225z M1030,250h325v1h-325z M1488,250h226v1h-226z M1030,251h324v1h-324z M1487,251h226v1h-226z M1029,252h325v1h-325z M1486,252h226v1h-226z M1029,253h324v1h-324z M1484,253h228v1h-228z M1044,254h308v1h-308z M1483,254h228v1h-228z M1060,255h292v1h-292z M1481,255h229v1h-229z M1075,256h276v1h-276z M1480,256h229v1h-229z M1090,257h261v1h-261z M1478,257h230v1h-230z M1106,258h244v1h-244z M1476,258h231v1h-231z M1122,259h227v1h-227z M1475,259h231v1h-231z M1136,260h213v1h-213z M1473,260h233v1h-233z M1153,261h195v1h-195z M1471,261h234v1h-234z M1168,262h180v1h-180z M1469,262h235v1h-235z M1183,263h164v1h-164z M1466,263h237v1h-237z M1198,264h149v1h-149z M1464,264h238v1h-238z M1214,265h132v1h-132z M1462,265h239v1h-239z M1230,266h115v1h-115z M1459,266h241v1h-241z M1244,267h101v1h-101z M1457,267h242v1h-242z M1245,268h99v1h-99z M1454,268h244v1h-244z M1245,269h99v1h-99z M1451,269h246v1h-246z M1244,270h99v1h-99z M1447,270h249v1h-249z M1243,271h100v1h-100z M1444,271h251v1h-251z M1243,272h99v1h-99z M1439,272h255v1h-255z M1242,273h99v1h-99z M1435,273h258v1h-258z M1242,274h99v1h-99z M1428,274h264v1h-264z M1241,275h99v1h-99z M1420,275h271v1h-271z M1240,276h100v1h-100z M1347,276h343v1h-343z M1240,277h449v1h-449z M1239,278h449v1h-449z M1239,279h448v1h-448z M1238,280h448v1h-448z M1234,281h451v1h-451z M1220,282h463v1h-463z M1204,283h478v1h-478z M1189,284h492v1h-492z M1173,285h507v1h-507z M1158,286h521v1h-521z M1143,287h535v1h-535z M1127,288h550v1h-550z M1111,289h564v1h-564z M1096,290h578v1h-578z M1081,291h592v1h-592z M1066,292h606v1h-606z M1050,293h620v1h-620z M1035,294h634v1h-634z M1019,295h649v1h-649z M1004,296h663v1h-663z M989,297h676v1h-676z M973,298h691v1h-691z M958,299h705v1h-705z M942,300h719v1h-719z M927,301h733v1h-733z M911,302h747v1h-747z M896,303h761v1h-761z M881,304h775v1h-775z M865,305h789v1h-789z M850,306h803v1h-803z M835,307h816v1h-816z M819,308h831v1h-831z M804,309h844v1h-844z M788,310h859v1h-859z M773,311h872v1h-872z M758,312h886v1h-886z M742,313h900v1h-900z M726,314h914v1h-914z M711,315h928v1h-928z M696,316h941v1h-941z M681,317h954v1h-954z M665,318h969v1h-969z M650,319h982v1h-982z M634,320h996v1h-996z M619,321h1009v1h-1009z M604,322h1023v1h-1023z M588,323h1037v1h-1037z M573,324h1050v1h-1050z M557,325h1064v1h-1064z M542,326h1077v1h-1077z M527,327h1090v1h-1090z M511,328h1104v1h-1104z M497,329h1116v1h-1116z M496,330h1115v1h-1115z M496,331h1113v1h-1113z M495,332h1112v1h-1112z M495,333h1110v1h-1110z M494,334h1108v1h-1108z M494,335h1106v1h-1106z M493,336h1105v1h-1105z M492,337h1104v1h-1104z M492,338h1101v1h-1101z M491,339h1100v1h-1100z M491,340h1098v1h-1098z M490,341h1096v1h-1096z M490,342h1094v1h-1094z M489,343h1092v1h-1092z M488,344h1090v1h-1090z M488,345h1087v1h-1087z M487,346h1086v1h-1086z M487,347h1083v1h-1083z M486,348h1081v1h-1081z M486,349h1078v1h-1078z M485,350h1076v1h-1076z M484,351h1074v1h-1074z M484,352h1070v1h-1070z M483,353h1068v1h-1068z M483,354h1068v1h-1068z M482,355h1074v1h-1074z M482,356h1078v1h-1078z M481,357h1082v1h-1082z M480,358h1086v1h-1086z M480,359h1089v1h-1089z M479,360h1093v1h-1093z M479,361h1095v1h-1095z M478,362h1099v1h-1099z M477,363h1102v1h-1102z M477,364h1104v1h-1104z M476,365h1107v1h-1107z M476,366h1109v1h-1109z M475,367h1112v1h-1112z M475,368h1114v1h-1114z M474,369h1116v1h-1116z M473,370h1119v1h-1119z M473,371h1121v1h-1121z M472,372h1123v1h-1123z M472,373h1125v1h-1125z M471,374h1127v1h-1127z M471,375h1128v1h-1128z M470,376h1131v1h-1131z M469,377h1133v1h-1133z M469,378h1135v1h-1135z M468,379h1137v1h-1137z M468,380h1138v1h-1138z M467,381h1140v1h-1140z M467,382h1141v1h-1141z M466,383h1144v1h-1144z M465,384h1146v1h-1146z M465,385h1147v1h-1147z M464,386h1149v1h-1149z M468,387h1146v1h-1146z M484,388h1131v1h-1131z M499,389h1117v1h-1117z M515,390h1102v1h-1102z M531,391h1087v1h-1087z M547,392h1072v1h-1072z M563,393h1057v1h-1057z M579,394h1041v1h-1041z M595,395h1026v1h-1026z M610,396h1012v1h-1012z M626,397h997v1h-997z M641,398h983v1h-983z M658,399h966v1h-966z M674,400h951v1h-951z M690,401h936v1h-936z M706,402h921v1h-921z M721,403h906v1h-906z M737,404h891v1h-891z M753,405h876v1h-876z M769,406h860v1h-860z M785,407h845v1h-845z M800,408h830v1h-830z M816,409h815v1h-815z M832,410h800v1h-800z M848,411h784v1h-784z M864,412h769v1h-769z M879,413h754v1h-754z M895,414h365v1h-365z M1345,414h289v1h-289z M912,415h348v1h-348z M1349,415h285v1h-285z M927,416h332v1h-332z M1353,416h282v1h-282z M943,417h316v1h-316z M1355,417h280v1h-280z M958,418h300v1h-300z M1357,418h279v1h-279z M975,419h282v1h-282z M1359,419h277v1h-277z M990,420h267v1h-267z M1361,420h276v1h-276z M1007,421h249v1h-249z M1363,421h274v1h-274z M1022,422h234v1h-234z M1364,422h273v1h-273z M1038,423h217v1h-217z M1365,423h273v1h-273z M1053,424h202v1h-202z M1367,424h271v1h-271z M1069,425h185v1h-185z M1368,425h271v1h-271z M1086,426h167v1h-167z M1369,426h270v1h-270z M1101,427h152v1h-152z M1370,427h269v1h-269z M1118,428h134v1h-134z M1371,428h269v1h-269z M1133,429h119v1h-119z M1372,429h268v1h-268z M1149,430h102v1h-102z M1373,430h267v1h-267z M1151,431h100v1h-100z M1373,431h267v1h-267z M1151,432h99v1h-99z M1374,432h267v1h-267z M1150,433h99v1h-99z M1375,433h266v1h-266z M1150,434h99v1h-99z M1376,434h265v1h-265z M1149,435h99v1h-99z M1376,435h266v1h-266z M1148,436h100v1h-100z M1377,436h265v1h-265z M1148,437h99v1h-99z M1377,437h265v1h-265z M1147,438h99v1h-99z M1378,438h264v1h-264z M1147,439h99v1h-99z M1378,439h264v1h-264z M1146,440h99v1h-99z M1379,440h264v1h-264z M1146,441h99v1h-99z M1379,441h264v1h-264z M1145,442h99v1h-99z M1380,442h263v1h-263z M1144,443h100v1h-100z M1380,443h263v1h-263z M1142,444h101v1h-101z M1380,444h263v1h-263z M1125,445h117v1h-117z M1381,445h262v1h-262z M1108,446h134v1h-134z M1381,446h263v1h-263z M1091,447h150v1h-150z M1381,447h263v1h-263z M1073,448h168v1h-168z M1382,448h262v1h-262z M1057,449h183v1h-183z M1382,449h262v1h-262z M1039,450h201v1h-201z M1382,450h262v1h-262z M1022,451h217v1h-217z M1382,451h262v1h-262z M1005,452h233v1h-233z M1382,452h262v1h-262z M988,453h250v1h-250z M1383,453h261v1h-261z M970,454h267v1h-267z M1383,454h261v1h-261z M954,455h283v1h-283z M1383,455h261v1h-261z M937,456h299v1h-299z M1383,456h262v1h-262z M920,457h316v1h-316z M1383,457h262v1h-262z M902,458h333v1h-333z M1383,458h262v1h-262z M886,459h348v1h-348z M1383,459h262v1h-262z M868,460h366v1h-366z M1383,460h262v1h-262z M851,461h382v1h-382z M1383,461h262v1h-262z M834,462h399v1h-399z M1383,462h262v1h-262z M817,463h415v1h-415z M1383,463h262v1h-262z M800,464h431v1h-431z M1383,464h262v1h-262z M782,465h449v1h-449z M1383,465h262v1h-262z M766,466h464v1h-464z M1383,466h262v1h-262z M761,467h469v1h-469z M1383,467h261v1h-261z M761,468h468v1h-468z M1382,468h262v1h-262z M761,469h468v1h-468z M1382,469h262v1h-262z M762,470h466v1h-466z M1382,470h262v1h-262z M762,471h465v1h-465z M1382,471h262v1h-262z M762,472h465v1h-465z M1382,472h262v1h-262z M762,473h464v1h-464z M1382,473h262v1h-262z M763,474h463v1h-463z M1381,474h263v1h-263z M763,475h462v1h-462z M1381,475h263v1h-263z M763,476h462v1h-462z M1381,476h263v1h-263z M763,477h461v1h-461z M1381,477h263v1h-263z M764,478h459v1h-459z M1380,478h264v1h-264z M764,479h459v1h-459z M1380,479h263v1h-263z M764,480h458v1h-458z M1380,480h263v1h-263z M765,481h457v1h-457z M1379,481h264v1h-264z M765,482h456v1h-456z M1379,482h264v1h-264z M765,483h456v1h-456z M1379,483h264v1h-264z M765,484h455v1h-455z M1378,484h265v1h-265z M766,485h453v1h-453z M1378,485h264v1h-264z M766,486h453v1h-453z M1378,486h264v1h-264z M766,487h452v1h-452z M1377,487h265v1h-265z M766,488h452v1h-452z M1377,488h265v1h-265z M767,489h450v1h-450z M1376,489h266v1h-266z M767,490h449v1h-449z M1376,490h266v1h-266z M767,491h449v1h-449z M1376,491h265v1h-265z M767,492h448v1h-448z M1375,492h266v1h-266z M768,493h447v1h-447z M1375,493h266v1h-266z M768,494h446v1h-446z M1374,494h267v1h-267z M768,495h446v1h-446z M1374,495h267v1h-267z M769,496h444v1h-444z M1373,496h267v1h-267z M769,497h443v1h-443z M1372,497h268v1h-268z M769,498h443v1h-443z M1372,498h268v1h-268z M769,499h442v1h-442z M1371,499h269v1h-269z M770,500h441v1h-441z M1371,500h268v1h-268z M770,501h440v1h-440z M1370,501h269v1h-269z M770,502h440v1h-440z M1369,502h270v1h-270z M770,503h439v1h-439z M1369,503h270v1h-270z M771,504h437v1h-437z M1368,504h270v1h-270z M771,505h437v1h-437z M1367,505h271v1h-271z M771,506h436v1h-436z M1367,506h271v1h-271z M771,507h436v1h-436z M1366,507h271v1h-271z M772,508h434v1h-434z M1365,508h272v1h-272z M772,509h434v1h-434z M1364,509h273v1h-273z M772,510h433v1h-433z M1363,510h274v1h-274z M773,511h431v1h-431z M1363,511h273v1h-273z M773,512h431v1h-431z M1362,512h274v1h-274z M773,513h430v1h-430z M1361,513h275v1h-275z M773,514h430v1h-430z M1360,514h275v1h-275z M774,515h428v1h-428z M1359,515h276v1h-276z M774,516h427v1h-427z M1358,516h277v1h-277z M774,517h427v1h-427z M1357,517h277v1h-277z M774,518h426v1h-426z M1356,518h278v1h-278z M775,519h425v1h-425z M1355,519h279v1h-279z M775,520h424v1h-424z M1354,520h279v1h-279z M775,521h424v1h-424z M1353,521h280v1h-280z M775,522h423v1h-423z M1352,522h280v1h-280z M776,523h421v1h-421z M1350,523h282v1h-282z M776,524h421v1h-421z M1349,524h283v1h-283z M776,525h420v1h-420z M1348,525h283v1h-283z M777,526h419v1h-419z M1347,526h284v1h-284z M777,527h418v1h-418z M1345,527h286v1h-286z M777,528h418v1h-418z M1344,528h286v1h-286z M777,529h417v1h-417z M1342,529h288v1h-288z M778,530h415v1h-415z M1341,530h288v1h-288z M778,531h415v1h-415z M1339,531h290v1h-290z M778,532h414v1h-414z M1338,532h290v1h-290z M778,533h414v1h-414z M1336,533h292v1h-292z M779,534h412v1h-412z M1335,534h292v1h-292z M779,535h412v1h-412z M1333,535h294v1h-294z M779,536h411v1h-411z M1331,536h296v1h-296z M779,537h410v1h-410z M1329,537h297v1h-297z M780,538h409v1h-409z M1327,538h299v1h-299z M780,539h408v1h-408z M1325,539h300v1h-300z M780,540h408v1h-408z M1323,540h302v1h-302z M781,541h406v1h-406z M1321,541h303v1h-303z M781,542h405v1h-405z M1319,542h305v1h-305z M781,543h405v1h-405z M1316,543h307v1h-307z M781,544h404v1h-404z M1314,544h309v1h-309z M782,545h403v1h-403z M1311,545h311v1h-311z M782,546h402v1h-402z M1309,546h313v1h-313z M782,547h402v1h-402z M1306,547h315v1h-315z M782,548h401v1h-401z M1302,548h319v1h-319z M783,549h399v1h-399z M1299,549h321v1h-321z M783,550h399v1h-399z M1296,550h323v1h-323z M783,551h398v1h-398z M1292,551h327v1h-327z M784,552h397v1h-397z M1287,552h331v1h-331z M784,553h396v1h-396z M1282,553h336v1h-336z M784,554h396v1h-396z M1276,554h341v1h-341z M784,555h395v1h-395z M1267,555h350v1h-350z M785,556h831v1h-831z M785,557h830v1h-830z M785,558h830v1h-830z M785,559h829v1h-829z M786,560h827v1h-827z M786,561h827v1h-827z M786,562h826v1h-826z M786,563h826v1h-826z M787,564h824v1h-824z M787,565h823v1h-823z M787,566h823v1h-823z M788,567h821v1h-821z M788,568h820v1h-820z M788,569h819v1h-819z M788,570h819v1h-819z M789,571h817v1h-817z M789,572h816v1h-816z M789,573h816v1h-816z M789,574h815v1h-815z M790,575h813v1h-813z M797,576h805v1h-805z M813,577h789v1h-789z M830,578h771v1h-771z M845,579h755v1h-755z M863,580h736v1h-736z M879,581h720v1h-720z M895,582h703v1h-703z M912,583h685v1h-685z M928,584h668v1h-668z M944,585h651v1h-651z M961,586h633v1h-633z M978,587h616v1h-616z M994,588h599v1h-599z M1010,589h582v1h-582z M1026,590h565v1h-565z M1043,591h547v1h-547z M1058,592h531v1h-531z M1058,593h530v1h-530z M1057,594h530v1h-530z M1057,595h529v1h-529z M1056,596h530v1h-530z M1056,597h529v1h-529z M1055,598h529v1h-529z M1055,599h528v1h-528z M1054,600h528v1h-528z M1053,601h528v1h-528z M1053,602h527v1h-527z M1052,603h527v1h-527z M1052,604h526v1h-526z M1051,605h526v1h-526z M1048,606h528v1h-528z M1034,607h541v1h-541z M1020,608h554v1h-554z M1006,609h567v1h-567z M991,610h581v1h-581z M977,611h593v1h-593z M963,612h606v1h-606z M949,613h619v1h-619z M935,614h632v1h-632z M921,615h645v1h-645z M906,616h659v1h-659z M892,617h672v1h-672z M878,618h685v1h-685z M864,619h697v1h-697z M849,620h711v1h-711z M836,621h723v1h-723z M821,622h737v1h-737z M807,623h750v1h-750z M802,624h753v1h-753z M803,625h751v1h-751z M803,626h750v1h-750z M803,627h749v1h-749z M803,628h747v1h-747z M804,629h745v1h-745z M804,630h744v1h-744z M804,631h742v1h-742z M804,632h741v1h-741z M805,633h739v1h-739z M805,634h737v1h-737z M805,635h736v1h-736z M805,636h735v1h-735z M806,637h732v1h-732z M806,638h731v1h-731z M806,639h729v1h-729z M806,640h728v1h-728z M807,641h725v1h-725z M807,642h724v1h-724z M807,643h722v1h-722z M807,644h721v1h-721z M808,645h718v1h-718z M808,646h717v1h-717z M808,647h715v1h-715z M808,648h714v1h-714z M809,649h711v1h-711z M809,650h710v1h-710z M809,651h708v1h-708z M810,652h705v1h-705z M810,653h704v1h-704z M810,654h702v1h-702z M810,655h700v1h-700z M811,656h697v1h-697z M811,657h696v1h-696z M811,658h694v1h-694z M811,659h692v1h-692z M812,660h689v1h-689z M812,661h688v1h-688z M812,662h686v1h-686z M812,663h684v1h-684z M813,664h681v1h-681z M813,665h679v1h-679z M813,666h677v1h-677z M813,667h675v1h-675z M814,668h672v1h-672z M814,669h670v1h-670z M814,670h668v1h-668z M814,671h666v1h-666z M815,672h663v1h-663z M815,673h661v1h-661z M815,674h658v1h-658z M815,675h656v1h-656z M816,676h653v1h-653z M816,677h651v1h-651z M816,678h649v1h-649z M816,679h646v1h-646z M817,680h643v1h-643z M817,681h640v1h-640z M817,682h638v1h-638z M817,683h636v1h-636z M818,684h632v1h-632z M818,685h630v1h-630z M818,686h627v1h-627z M818,687h624v1h-624z M819,688h621v1h-621z M819,689h618v1h-618z M819,690h615v1h-615z M819,691h612v1h-612z M820,692h608v1h-608z M820,693h605v1h-605z M820,694h602v1h-602z M820,695h599v1h-599z M821,696h595v1h-595z M821,697h592v1h-592z M821,698h588v1h-588z M821,699h585v1h-585z M822,700h580v1h-580z M822,701h577v1h-577z M822,702h573v1h-573z M822,703h569v1h-569z M823,704h564v1h-564z M823,705h560v1h-560z M823,706h555v1h-555z M824,707h550v1h-550z M824,708h545v1h-545z M824,709h540v1h-540z M824,710h534v1h-534z M825,711h527v1h-527z M825,712h521v1h-521z M825,713h513v1h-513z M825,714h503v1h-503z M826,715h489v1h-489z"/>
<path d="M994,139h3v1h-3z M978,140h19v1h-19z M962,141h36v1h-36z M947,142h51v1h-51z M931,143h67v1h-67z M916,144h82v1h-82z M899,145h100v1h-100z M883,146h116v1h-116z M867,147h132v1h-132z M852,148h147v1h-147z M835,149h165v1h-165z M820,150h180v1h-180z M804,151h196v1h-196z M788,152h213v1h-213z M772,153h229v1h-229z M757,154h244v1h-244z M740,155h261v1h-261z M724,156h278v1h-278z M708,157h294v1h-294z M693,158h309v1h-309z M677,159h325v1h-325z M661,160h342v1h-342z M646,161h357v1h-357z M629,162h374v1h-374z M614,163h389v1h-389z M597,164h407v1h-407z M592,165h412v1h-412z M591,166h413v1h-413z M590,167h414v1h-414z M590,168h415v1h-415z M589,169h416v1h-416z M589,170h416v1h-416z M588,171h418v1h-418z M587,172h419v1h-419z M587,173h419v1h-419z M586,174h420v1h-420z M586,175h421v1h-421z M585,176h422v1h-422z M585,177h422v1h-422z M584,178h423v1h-423z M583,179h425v1h-425z M583,180h425v1h-425z M582,181h426v1h-426z M582,182h426v1h-426z M581,183h428v1h-428z M581,184h428v1h-428z M580,185h429v1h-429z M579,186h430v1h-430z M579,187h431v1h-431z M578,188h432v1h-432z M578,189h432v1h-432z M577,190h434v1h-434z M577,191h434v1h-434z M576,192h435v1h-435z M575,193h436v1h-436z M575,194h437v1h-437z M574,195h438v1h-438z M574,196h438v1h-438z M573,197h439v1h-439z M573,198h440v1h-440z M572,199h441v1h-441z M571,200h442v1h-442z M571,201h442v1h-442z M570,202h444v1h-444z M570,203h444v1h-444z M569,204h445v1h-445z M568,205h446v1h-446z M568,206h447v1h-447z M567,207h448v1h-448z M567,208h448v1h-448z M566,209h450v1h-450z M566,210h450v1h-450z M565,211h451v1h-451z M564,212h452v1h-452z M564,213h453v1h-453z M563,214h454v1h-454z M563,215h454v1h-454z M562,216h455v1h-455z M562,217h456v1h-456z M561,218h457v1h-457z M560,219h458v1h-458z M560,220h458v1h-458z M559,221h460v1h-460z M559,222h460v1h-460z M570,223h449v1h-449z M585,224h434v1h-434z M600,225h420v1h-420z M616,226h404v1h-404z M631,227h389v1h-389z M646,228h375v1h-375z M662,229h359v1h-359z M677,230h344v1h-344z M691,231h330v1h-330z M707,232h315v1h-315z M722,233h300v1h-300z M737,234h285v1h-285z M753,235h269v1h-269z M768,236h255v1h-255z M783,237h240v1h-240z M799,238h224v1h-224z M814,239h209v1h-209z M828,240h196v1h-196z M844,241h180v1h-180z M859,242h165v1h-165z M874,243h150v1h-150z M889,244h136v1h-136z M905,245h120v1h-120z M920,246h105v1h-105z M935,247h91v1h-91z M951,248h75v1h-75z M965,249h61v1h-61z M980,250h46v1h-46z M996,251h31v1h-31z M1012,252h15v1h-15z"/>
<path d="M750,467h9v1h-9z M738,468h20v1h-20z M724,469h34v1h-34z M711,470h46v1h-46z M698,471h59v1h-59z M685,472h71v1h-71z M671,473h84v1h-84z M658,474h97v1h-97z M645,475h109v1h-109z M632,476h122v1h-122z M618,477h135v1h-135z M606,478h147v1h-147z M593,479h159v1h-159z M579,480h172v1h-172z M566,481h185v1h-185z M553,482h197v1h-197z M540,483h210v1h-210z M527,484h222v1h-222z M513,485h235v1h-235z M500,486h248v1h-248z M487,487h260v1h-260z M474,488h273v1h-273z M460,489h286v1h-286z M448,490h298v1h-298z M434,491h311v1h-311z M421,492h323v1h-323z M408,493h336v1h-336z M402,494h341v1h-341z M401,495h342v1h-342z M401,496h341v1h-341z M400,497h342v1h-342z M400,498h341v1h-341z M399,499h341v1h-341z M399,500h341v1h-341z M398,501h341v1h-341z M397,502h342v1h-342z M397,503h341v1h-341z M396,504h341v1h-341z M396,505h341v1h-341z M395,506h341v1h-341z M395,507h341v1h-341z M394,508h341v1h-341z M393,509h342v1h-342z M393,510h341v1h-341z M392,511h341v1h-341z M392,512h341v1h-341z M391,513h341v1h-341z M391,514h341v1h-341z M390,515h341v1h-341z M389,516h342v1h-342z M389,517h341v1h-341z M388,518h341v1h-341z M388,519h341v1h-341z M387,520h341v1h-341z M387,521h341v1h-341z M386,522h341v1h-341z M385,523h341v1h-341z M385,524h341v1h-341z M384,525h341v1h-341z M384,526h341v1h-341z M383,527h341v1h-341z M382,528h342v1h-342z M382,529h341v1h-341z M381,530h341v1h-341z M381,531h341v1h-341z M380,532h341v1h-341z M380,533h341v1h-341z M379,534h341v1h-341z M378,535h342v1h-342z M378,536h341v1h-341z M377,537h341v1h-341z M377,538h341v1h-341z M376,539h341v1h-341z M376,540h341v1h-341z M375,541h341v1h-341z M374,542h341v1h-341z M374,543h341v1h-341z M373,544h341v1h-341z M373,545h341v1h-341z M372,546h341v1h-341z M372,547h341v1h-341z M371,548h341v1h-341z M370,549h341v1h-341z M370,550h341v1h-341z M369,551h341v1h-341z M381,552h329v1h-329z M399,553h310v1h-310z M416,554h292v1h-292z M434,555h274v1h-274z M452,556h255v1h-255z M470,557h237v1h-237z M488,558h218v1h-218z M506,559h200v1h-200z M524,560h181v1h-181z M541,561h163v1h-163z M558,562h146v1h-146z M577,563h126v1h-126z M595,564h108v1h-108z M613,565h89v1h-89z M630,566h72v1h-72z M648,567h53v1h-53z M665,568h35v1h-35z M683,569h17v1h-17z"/>
<path d="M650,634h13v1h-13z M636,635h26v1h-26z M622,636h40v1h-40z M607,637h54v1h-54z M592,638h69v1h-69z M579,639h81v1h-81z M564,640h95v1h-95z M550,641h109v1h-109z M535,642h123v1h-123z M522,643h136v1h-136z M507,644h150v1h-150z M493,645h164v1h-164z M479,646h177v1h-177z M464,647h191v1h-191z M450,648h205v1h-205z M436,649h218v1h-218z M421,650h233v1h-233z M407,651h246v1h-246z M393,652h259v1h-259z M379,653h273v1h-273z M364,654h287v1h-287z M350,655h301v1h-301z M336,656h314v1h-314z M322,657h328v1h-328z M308,658h341v1h-341z M307,659h341v1h-341z M306,660h342v1h-342z M306,661h341v1h-341z M305,662h342v1h-342z M305,663h341v1h-341z M304,664h341v1h-341z M304,665h341v1h-341z M303,666h341v1h-341z M302,667h342v1h-342z M302,668h341v1h-341z M301,669h342v1h-342z M301,670h341v1h-341z M300,671h341v1h-341z M300,672h341v1h-341z M299,673h341v1h-341z M298,674h342v1h-342z M298,675h341v1h-341z M297,676h341v1h-341z M297,677h341v1h-341z M296,678h341v1h-341z M296,679h341v1h-341z M295,680h341v1h-341z M294,681h342v1h-342z M294,682h341v1h-341z M293,683h341v1h-341z M293,684h341v1h-341z M292,685h341v1h-341z M291,686h342v1h-342z M291,687h341v1h-341z M290,688h342v1h-342z M290,689h341v1h-341z M289,690h341v1h-341z M289,691h341v1h-341z M288,692h341v1h-341z M287,693h342v1h-342z M287,694h341v1h-341z M286,695h341v1h-341z M286,696h341v1h-341z M285,697h341v1h-341z M285,698h341v1h-341z M284,699h341v1h-341z M283,700h342v1h-342z M283,701h341v1h-341z M282,702h341v1h-341z M282,703h341v1h-341z M281,704h341v1h-341z M281,705h341v1h-341z M280,706h341v1h-341z M279,707h341v1h-341z M279,708h341v1h-341z M278,709h341v1h-341z M278,710h341v1h-341z M277,711h341v1h-341z M277,712h341v1h-341z M276,713h341v1h-341z M275,714h341v1h-341z M275,715h341v1h-341z"/>
<path d="M708,835h44v1h-44z M707,836h46v1h-46z M707,837h46v1h-46z M707,838h46v1h-46z M707,839h46v1h-46z M707,840h46v1h-46z M707,841h46v1h-46z M707,842h46v1h-46z M707,843h46v1h-46z M707,844h46v1h-46z M707,845h46v1h-46z M707,846h46v1h-46z M707,847h46v1h-46z M707,848h46v1h-46z M707,849h46v1h-46z M707,850h46v1h-46z M707,851h46v1h-46z M707,852h46v1h-46z M707,853h46v1h-46z M707,854h46v1h-46z M707,855h46v1h-46z M707,856h46v1h-46z M707,857h46v1h-46z M707,858h46v1h-46z M707,859h46v1h-46z M707,860h46v1h-46z M707,861h46v1h-46z M707,862h46v1h-46z M707,863h46v1h-46z M707,864h46v1h-46z M707,865h46v1h-46z M707,866h46v1h-46z M707,867h46v1h-46z M707,868h46v1h-46z M707,869h46v1h-46z M707,870h46v1h-46z M707,871h46v1h-46z M707,872h46v1h-46z M707,873h46v1h-46z M707,874h46v1h-46z M707,875h46v1h-46z M707,876h46v1h-46z M707,877h46v1h-46z M707,878h46v1h-46z M707,879h46v1h-46z M707,880h46v1h-46z M707,881h46v1h-46z M707,882h46v1h-46z M707,883h46v1h-46z M707,884h46v1h-46z M707,885h46v1h-46z M707,886h46v1h-46z M707,887h46v1h-46z M707,888h46v1h-46z M707,889h46v1h-46z M707,890h46v1h-46z M707,891h46v1h-46z M798,891h24v1h-24z M707,892h46v1h-46z M793,892h35v1h-35z M707,893h46v1h-46z M789,893h44v1h-44z M707,894h46v1h-46z M785,894h51v1h-51z M707,895h46v1h-46z M782,895h58v1h-58z M707,896h46v1h-46z M779,896h63v1h-63z M707,897h46v1h-46z M777,897h68v1h-68z M707,898h46v1h-46z M774,898h73v1h-73z M707,899h46v1h-46z M772,899h77v1h-77z M707,900h46v1h-46z M770,900h81v1h-81z M707,901h46v1h-46z M769,901h84v1h-84z M707,902h46v1h-46z M767,902h88v1h-88z M707,903h46v1h-46z M765,903h92v1h-92z M707,904h46v1h-46z M764,904h94v1h-94z M707,905h46v1h-46z M762,905h98v1h-98z M707,906h46v1h-46z M761,906h100v1h-100z M707,907h46v1h-46z M759,907h104v1h-104z M707,908h46v1h-46z M758,908h106v1h-106z M707,909h46v1h-46z M757,909h109v1h-109z M707,910h46v1h-46z M756,910h111v1h-111z M707,911h46v1h-46z M755,911h113v1h-113z M707,912h46v1h-46z M754,912h115v1h-115z M707,913h163v1h-163z M707,914h164v1h-164z M707,915h165v1h-165z M707,916h167v1h-167z M707,917h168v1h-168z M707,918h169v1h-169z M707,919h169v1h-169z M707,920h170v1h-170z M707,921h171v1h-171z M707,922h172v1h-172z M707,923h173v1h-173z M707,924h174v1h-174z M707,925h175v1h-175z M707,926h175v1h-175z M707,927h176v1h-176z M707,928h177v1h-177z M707,929h178v1h-178z M707,930h178v1h-178z M707,931h179v1h-179z M707,932h94v1h-94z M808,932h79v1h-79z M707,933h86v1h-86z M816,933h71v1h-71z M707,934h82v1h-82z M820,934h68v1h-68z M707,935h79v1h-79z M823,935h66v1h-66z M707,936h77v1h-77z M826,936h63v1h-63z M707,937h74v1h-74z M828,937h62v1h-62z M707,938h72v1h-72z M830,938h60v1h-60z M707,939h71v1h-71z M832,939h59v1h-59z M707,940h69v1h-69z M833,940h59v1h-59z M707,941h67v1h-67z M835,941h57v1h-57z M707,942h66v1h-66z M836,942h57v1h-57z M707,943h65v1h-65z M838,943h55v1h-55z M707,944h63v1h-63z M839,944h55v1h-55z M707,945h62v1h-62z M840,945h54v1h-54z M707,946h61v1h-61z M841,946h53v1h-53z M707,947h60v1h-60z M842,947h53v1h-53z M707,948h59v1h-59z M843,948h52v1h-52z M707,949h58v1h-58z M844,949h52v1h-52z M707,950h57v1h-57z M845,950h51v1h-51z M707,951h56v1h-56z M846,951h51v1h-51z M707,952h56v1h-56z M847,952h50v1h-50z M707,953h55v1h-55z M847,953h50v1h-50z M707,954h54v1h-54z M848,954h50v1h-50z M707,955h53v1h-53z M849,955h49v1h-49z M707,956h53v1h-53z M849,956h49v1h-49z M707,957h52v1h-52z M850,957h49v1h-49z M707,958h51v1h-51z M851,958h48v1h-48z M707,959h51v1h-51z M851,959h48v1h-48z M707,960h50v1h-50z M852,960h48v1h-48z M707,961h50v1h-50z M852,961h48v1h-48z M707,962h49v1h-49z M853,962h47v1h-47z M707,963h49v1h-49z M853,963h48v1h-48z M707,964h48v1h-48z M854,964h47v1h-47z M707,965h48v1h-48z M854,965h47v1h-47z M707,966h47v1h-47z M855,966h46v1h-46z M707,967h47v1h-47z M855,967h47v1h-47z M707,968h47v1h-47z M855,968h47v1h-47z M707,969h46v1h-46z M856,969h46v1h-46z M707,970h46v1h-46z M856,970h46v1h-46z M707,971h46v1h-46z M856,971h46v1h-46z M707,972h45v1h-45z M856,972h47v1h-47z M707,973h45v1h-45z M857,973h46v1h-46z M707,974h45v1h-45z M857,974h46v1h-46z M707,975h44v1h-44z M857,975h46v1h-46z M707,976h44v1h-44z M857,976h46v1h-46z M707,977h44v1h-44z M858,977h45v1h-45z M707,978h44v1h-44z M858,978h45v1h-45z M707,979h44v1h-44z M858,979h45v1h-45z M707,980h44v1h-44z M858,980h46v1h-46z M707,981h43v1h-43z M858,981h46v1h-46z M707,982h43v1h-43z M858,982h46v1h-46z M707,983h43v1h-43z M858,983h46v1h-46z M707,984h43v1h-43z M858,984h46v1h-46z M707,985h43v1h-43z M859,985h45v1h-45z M707,986h43v1h-43z M859,986h45v1h-45z M707,987h43v1h-43z M859,987h45v1h-45z M707,988h43v1h-43z M859,988h45v1h-45z M707,989h43v1h-43z M859,989h45v1h-45z M707,990h43v1h-43z M859,990h45v1h-45z M707,991h43v1h-43z M859,991h45v1h-45z M707,992h43v1h-43z M859,992h45v1h-45z M707,993h43v1h-43z M859,993h45v1h-45z M707,994h43v1h-43z M859,994h45v1h-45z M707,995h43v1h-43z M858,995h46v1h-46z M707,996h43v1h-43z M858,996h46v1h-46z M707,997h44v1h-44z M858,997h46v1h-46z M707,998h44v1h-44z M858,998h46v1h-46z M707,999h44v1h-44z M858,999h45v1h-45z M707,1000h44v1h-44z M858,1000h45v1h-45z M707,1001h44v1h-44z M858,1001h45v1h-45z M707,1002h44v1h-44z M858,1002h45v1h-45z M707,1003h45v1h-45z M857,1003h46v1h-46z M707,1004h45v1h-45z M857,1004h46v1h-46z M707,1005h45v1h-45z M857,1005h46v1h-46z M707,1006h45v1h-45z M857,1006h45v1h-45z M707,1007h46v1h-46z M857,1007h45v1h-45z M707,1008h46v1h-46z M856,1008h46v1h-46z M707,1009h46v1h-46z M856,1009h46v1h-46z M707,1010h46v1h-46z M856,1010h46v1h-46z M707,1011h47v1h-47z M855,1011h46v1h-46z M707,1012h47v1h-47z M855,1012h46v1h-46z M707,1013h48v1h-48z M855,1013h46v1h-46z M707,1014h48v1h-48z M854,1014h47v1h-47z M707,1015h48v1h-48z M854,1015h47v1h-47z M707,1016h49v1h-49z M853,1016h47v1h-47z M707,1017h49v1h-49z M853,1017h47v1h-47z M707,1018h50v1h-50z M853,1018h47v1h-47z M707,1019h50v1h-50z M852,1019h47v1h-47z M707,1020h51v1h-51z M852,1020h47v1h-47z M707,1021h51v1h-51z M851,1021h48v1h-48z M707,1022h52v1h-52z M850,1022h49v1h-49z M707,1023h53v1h-53z M850,1023h48v1h-48z M707,1024h53v1h-53z M849,1024h49v1h-49z M707,1025h54v1h-54z M849,1025h49v1h-49z M707,1026h55v1h-55z M848,1026h49v1h-49z M707,1027h56v1h-56z M847,1027h50v1h-50z M707,1028h56v1h-56z M846,1028h51v1h-51z M707,1029h57v1h-57z M846,1029h50v1h-50z M707,1030h58v1h-58z M845,1030h51v1h-51z M707,1031h59v1h-59z M844,1031h51v1h-51z M707,1032h60v1h-60z M843,1032h52v1h-52z M707,1033h61v1h-61z M842,1033h52v1h-52z M707,1034h62v1h-62z M841,1034h53v1h-53z M707,1035h64v1h-64z M840,1035h54v1h-54z M707,1036h65v1h-65z M839,1036h54v1h-54z M707,1037h66v1h-66z M837,1037h56v1h-56z M707,1038h68v1h-68z M836,1038h56v1h-56z M707,1039h69v1h-69z M835,1039h57v1h-57z M707,1040h71v1h-71z M833,1040h58v1h-58z M707,1041h72v1h-72z M831,1041h60v1h-60z M707,1042h74v1h-74z M829,1042h61v1h-61z M707,1043h77v1h-77z M827,1043h63v1h-63z M707,1044h79v1h-79z M825,1044h64v1h-64z M707,1045h82v1h-82z M822,1045h66v1h-66z M707,1046h86v1h-86z M819,1046h69v1h-69z M707,1047h91v1h-91z M813,1047h74v1h-74z M707,1048h180v1h-180z M707,1049h179v1h-179z M707,1050h178v1h-178z M707,1051h178v1h-178z M707,1052h177v1h-177z M707,1053h176v1h-176z M707,1054h176v1h-176z M707,1055h175v1h-175z M707,1056h174v1h-174z M707,1057h173v1h-173z M707,1058h172v1h-172z M707,1059h172v1h-172z M707,1060h171v1h-171z M707,1061h170v1h-170z M707,1062h42v1h-42z M750,1062h126v1h-126z M707,1063h42v1h-42z M751,1063h124v1h-124z M707,1064h42v1h-42z M751,1064h123v1h-123z M707,1065h42v1h-42z M752,1065h121v1h-121z M707,1066h42v1h-42z M753,1066h119v1h-119z M707,1067h42v1h-42z M754,1067h117v1h-117z M707,1068h42v1h-42z M755,1068h115v1h-115z M707,1069h42v1h-42z M756,1069h113v1h-113z M707,1070h42v1h-42z M757,1070h110v1h-110z M707,1071h42v1h-42z M759,1071h107v1h-107z M707,1072h42v1h-42z M760,1072h105v1h-105z M707,1073h42v1h-42z M761,1073h103v1h-103z M707,1074h42v1h-42z M762,1074h100v1h-100z M707,1075h42v1h-42z M763,1075h98v1h-98z M707,1076h42v1h-42z M765,1076h94v1h-94z M707,1077h42v1h-42z M766,1077h92v1h-92z M707,1078h42v1h-42z M768,1078h88v1h-88z M707,1079h42v1h-42z M769,1079h85v1h-85z M707,1080h42v1h-42z M771,1080h81v1h-81z M707,1081h42v1h-42z M773,1081h77v1h-77z M707,1082h42v1h-42z M775,1082h73v1h-73z M708,1083h41v1h-41z M777,1083h68v1h-68z M780,1084h63v1h-63z M783,1085h57v1h-57z M786,1086h50v1h-50z M790,1087h42v1h-42z M795,1088h32v1h-32z M804,1089h14v1h-14z"/>
<path d="M1135,835h45v1h-45z M1135,836h45v1h-45z M1135,837h45v1h-45z M1135,838h45v1h-45z M1135,839h45v1h-45z M1135,840h45v1h-45z M1135,841h45v1h-45z M1135,842h45v1h-45z M1135,843h45v1h-45z M1135,844h45v1h-45z M1135,845h45v1h-45z M1135,846h45v1h-45z M1135,847h45v1h-45z M1135,848h45v1h-45z M1135,849h45v1h-45z M1135,850h45v1h-45z M1135,851h45v1h-45z M1135,852h45v1h-45z M1135,853h45v1h-45z M1135,854h45v1h-45z M1135,855h45v1h-45z M1135,856h45v1h-45z M1135,857h45v1h-45z M1135,858h45v1h-45z M1135,859h45v1h-45z M1135,860h45v1h-45z M1135,861h45v1h-45z M1135,862h45v1h-45z M1135,863h45v1h-45z M1135,864h45v1h-45z M1135,865h45v1h-45z M1135,866h45v1h-45z M1135,867h45v1h-45z M1135,868h45v1h-45z M1135,869h45v1h-45z M1135,870h45v1h-45z M1135,871h45v1h-45z M1135,872h45v1h-45z M1135,873h45v1h-45z M1135,874h45v1h-45z M1135,875h45v1h-45z M1135,876h45v1h-45z M1135,877h45v1h-45z M1135,878h45v1h-45z M1135,879h45v1h-45z M1135,880h45v1h-45z M1135,881h45v1h-45z M1135,882h45v1h-45z M1135,883h45v1h-45z M1135,884h45v1h-45z M1135,885h45v1h-45z M1135,886h45v1h-45z M1135,887h45v1h-45z M1135,888h45v1h-45z M1135,889h45v1h-45z M1135,890h45v1h-45z M1135,891h45v1h-45z M1135,892h45v1h-45z M1135,893h45v1h-45z M1135,894h45v1h-45z M1135,895h45v1h-45z M1135,896h45v1h-45z M1135,897h45v1h-45z M1135,898h45v1h-45z M1135,899h45v1h-45z M1135,900h45v1h-45z M1135,901h45v1h-45z M1135,902h45v1h-45z M1135,903h45v1h-45z M1135,904h45v1h-45z M1135,905h45v1h-45z M1135,906h45v1h-45z M1135,907h45v1h-45z M1135,908h45v1h-45z M1135,909h45v1h-45z M1135,910h45v1h-45z M1135,911h45v1h-45z M1135,912h45v1h-45z M1135,913h45v1h-45z M1135,914h45v1h-45z M1135,915h45v1h-45z M1135,916h45v1h-45z M1135,917h45v1h-45z M1135,918h45v1h-45z M1135,919h45v1h-45z M1135,920h45v1h-45z M1135,921h45v1h-45z M1135,922h45v1h-45z M1135,923h45v1h-45z M1135,924h45v1h-45z M1135,925h45v1h-45z M1135,926h45v1h-45z M1135,927h45v1h-45z M1135,928h45v1h-45z M1135,929h45v1h-45z M1135,930h45v1h-45z M1135,931h45v1h-45z M1135,932h45v1h-45z M1135,933h45v1h-45z M1135,934h45v1h-45z M1135,935h45v1h-45z M1135,936h45v1h-45z M1135,937h45v1h-45z M1135,938h45v1h-45z M1135,939h45v1h-45z M1135,940h45v1h-45z M1135,941h45v1h-45z M1135,942h45v1h-45z M1135,943h45v1h-45z M1135,944h45v1h-45z M1135,945h45v1h-45z M1135,946h45v1h-45z M1135,947h45v1h-45z M1135,948h45v1h-45z M1135,949h45v1h-45z M1135,950h45v1h-45z M1135,951h45v1h-45z M1135,952h45v1h-45z M1135,953h45v1h-45z M1135,954h45v1h-45z M1135,955h45v1h-45z M1135,956h45v1h-45z M1135,957h45v1h-45z M1135,958h45v1h-45z M1135,959h45v1h-45z M1135,960h45v1h-45z M1135,961h45v1h-45z M1135,962h45v1h-45z M1135,963h45v1h-45z M1135,964h45v1h-45z M1135,965h45v1h-45z M1135,966h45v1h-45z M1135,967h45v1h-45z M1135,968h45v1h-45z M1135,969h45v1h-45z M1135,970h45v1h-45z M1135,971h45v1h-45z M1135,972h45v1h-45z M1135,973h45v1h-45z M1135,974h45v1h-45z M1135,975h45v1h-45z M1135,976h45v1h-45z M1135,977h45v1h-45z M1135,978h45v1h-45z M1135,979h45v1h-45z M1135,980h45v1h-45z M1135,981h45v1h-45z M1135,982h45v1h-45z M1135,983h45v1h-45z M1135,984h45v1h-45z M1135,985h45v1h-45z M1135,986h45v1h-45z M1135,987h45v1h-45z M1135,988h45v1h-45z M1135,989h45v1h-45z M1135,990h45v1h-45z M1135,991h45v1h-45z M1135,992h45v1h-45z M1135,993h45v1h-45z M1135,994h45v1h-45z M1135,995h45v1h-45z M1135,996h45v1h-45z M1135,997h45v1h-45z M1135,998h45v1h-45z M1135,999h45v1h-45z M1135,1000h45v1h-45z M1135,1001h45v1h-45z M1135,1002h45v1h-45z M1135,1003h45v1h-45z M1135,1004h45v1h-45z M1135,1005h45v1h-45z M1135,1006h45v1h-45z M1135,1007h45v1h-45z M1135,1008h45v1h-45z M1135,1009h45v1h-45z M1135,1010h45v1h-45z M1135,1011h45v1h-45z M1135,1012h45v1h-45z M1135,1013h45v1h-45z M1135,1014h45v1h-45z M1135,1015h45v1h-45z M1135,1016h45v1h-45z M1135,1017h45v1h-45z M1135,1018h45v1h-45z M1135,1019h45v1h-45z M1135,1020h45v1h-45z M1135,1021h45v1h-45z M1135,1022h45v1h-45z M1135,1023h45v1h-45z M1135,1024h45v1h-45z M1135,1025h45v1h-45z M1135,1026h45v1h-45z M1135,1027h45v1h-45z M1135,1028h45v1h-45z M1135,1029h45v1h-45z M1135,1030h45v1h-45z M1135,1031h45v1h-45z M1135,1032h45v1h-45z M1135,1033h45v1h-45z M1135,1034h45v1h-45z M1135,1035h45v1h-45z M1135,1036h45v1h-45z M1135,1037h45v1h-45z M1135,1038h45v1h-45z M1135,1039h45v1h-45z M1135,1040h45v1h-45z M1135,1041h45v1h-45z M1135,1042h45v1h-45z M1135,1043h45v1h-45z M1135,1044h45v1h-45z M1135,1045h45v1h-45z M1135,1046h45v1h-45z M1135,1047h45v1h-45z M1135,1048h45v1h-45z M1135,1049h45v1h-45z M1135,1050h45v1h-45z M1135,1051h45v1h-45z M1135,1052h45v1h-45z M1135,1053h45v1h-45z M1135,1054h45v1h-45z M1135,1055h45v1h-45z M1135,1056h45v1h-45z M1135,1057h45v1h-45z M1135,1058h45v1h-45z M1135,1059h45v1h-45z M1135,1060h45v1h-45z M1135,1061h45v1h-45z M1135,1062h45v1h-45z M1135,1063h45v1h-45z M1135,1064h45v1h-45z M1135,1065h45v1h-45z M1135,1066h45v1h-45z M1135,1067h45v1h-45z M1135,1068h45v1h-45z M1135,1069h45v1h-45z M1135,1070h45v1h-45z M1135,1071h45v1h-45z M1135,1072h45v1h-45z M1135,1073h45v1h-45z M1135,1074h45v1h-45z M1135,1075h45v1h-45z M1135,1076h45v1h-45z M1135,1077h45v1h-45z M1135,1078h45v1h-45z M1135,1079h45v1h-45z M1135,1080h45v1h-45z M1135,1081h45v1h-45z M1135,1082h45v1h-45z M1135,1083h45v1h-45z"/>
<path d="M262,890h25v1h-25z M256,891h37v1h-37z M252,892h46v1h-46z M248,893h54v1h-54z M244,894h61v1h-61z M242,895h66v1h-66z M239,896h71v1h-71z M237,897h76v1h-76z M234,898h81v1h-81z M232,899h85v1h-85z M230,900h89v1h-89z M229,901h92v1h-92z M227,902h95v1h-95z M225,903h99v1h-99z M223,904h103v1h-103z M222,905h105v1h-105z M220,906h109v1h-109z M219,907h111v1h-111z M218,908h113v1h-113z M216,909h117v1h-117z M215,910h119v1h-119z M214,911h121v1h-121z M213,912h123v1h-123z M211,913h127v1h-127z M210,914h129v1h-129z M209,915h131v1h-131z M208,916h133v1h-133z M207,917h135v1h-135z M206,918h137v1h-137z M205,919h139v1h-139z M204,920h141v1h-141z M203,921h142v1h-142z M202,922h144v1h-144z M202,923h145v1h-145z M201,924h147v1h-147z M200,925h149v1h-149z M199,926h151v1h-151z M198,927h152v1h-152z M198,928h153v1h-153z M197,929h155v1h-155z M196,930h157v1h-157z M195,931h76v1h-76z M279,931h74v1h-74z M195,932h69v1h-69z M286,932h68v1h-68z M194,933h66v1h-66z M290,933h65v1h-65z M193,934h64v1h-64z M293,934h62v1h-62z M193,935h62v1h-62z M296,935h60v1h-60z M192,936h60v1h-60z M298,936h59v1h-59z M191,937h59v1h-59z M300,937h57v1h-57z M191,938h58v1h-58z M302,938h56v1h-56z M190,939h57v1h-57z M303,939h55v1h-55z M190,940h55v1h-55z M305,940h54v1h-54z M189,941h55v1h-55z M306,941h53v1h-53z M189,942h54v1h-54z M307,942h53v1h-53z M188,943h53v1h-53z M308,943h52v1h-52z M188,944h52v1h-52z M310,944h51v1h-51z M187,945h52v1h-52z M311,945h50v1h-50z M187,946h51v1h-51z M312,946h50v1h-50z M186,947h51v1h-51z M312,947h50v1h-50z M186,948h50v1h-50z M313,948h50v1h-50z M185,949h50v1h-50z M314,949h49v1h-49z M185,950h49v1h-49z M315,950h49v1h-49z M184,951h50v1h-50z M316,951h48v1h-48z M184,952h49v1h-49z M316,952h48v1h-48z M184,953h48v1h-48z M317,953h48v1h-48z M183,954h49v1h-49z M318,954h47v1h-47z M183,955h48v1h-48z M318,955h48v1h-48z M183,956h47v1h-47z M319,956h47v1h-47z M182,957h48v1h-48z M319,957h47v1h-47z M182,958h47v1h-47z M320,958h47v1h-47z M182,959h47v1h-47z M320,959h47v1h-47z M181,960h47v1h-47z M321,960h46v1h-46z M181,961h47v1h-47z M321,961h46v1h-46z M181,962h46v1h-46z M322,962h46v1h-46z M180,963h47v1h-47z M322,963h46v1h-46z M180,964h46v1h-46z M322,964h46v1h-46z M180,965h46v1h-46z M323,965h46v1h-46z M180,966h45v1h-45z M323,966h46v1h-46z M179,967h46v1h-46z M323,967h46v1h-46z M179,968h46v1h-46z M324,968h45v1h-45z M179,969h45v1h-45z M324,969h45v1h-45z M179,970h45v1h-45z M324,970h46v1h-46z M178,971h46v1h-46z M324,971h46v1h-46z M178,972h45v1h-45z M325,972h45v1h-45z M178,973h45v1h-45z M325,973h45v1h-45z M178,974h192v1h-192z M178,975h192v1h-192z M178,976h193v1h-193z M178,977h193v1h-193z M177,978h194v1h-194z M177,979h194v1h-194z M177,980h194v1h-194z M177,981h194v1h-194z M177,982h194v1h-194z M177,983h194v1h-194z M177,984h194v1h-194z M177,985h194v1h-194z M177,986h194v1h-194z M177,987h194v1h-194z M177,988h194v1h-194z M177,989h194v1h-194z M177,990h194v1h-194z M177,991h194v1h-194z M177,992h194v1h-194z M177,993h194v1h-194z M177,994h194v1h-194z M177,995h194v1h-194z M177,996h194v1h-194z M177,997h194v1h-194z M177,998h194v1h-194z M177,999h193v1h-193z M177,1000h193v1h-193z M177,1001h193v1h-193z M177,1002h193v1h-193z M177,1003h193v1h-193z M178,1004h192v1h-192z M178,1005h192v1h-192z M178,1006h191v1h-191z M178,1007h191v1h-191z M178,1008h191v1h-191z M178,1009h191v1h-191z M179,1010h189v1h-189z M179,1011h46v1h-46z M179,1012h46v1h-46z M179,1013h46v1h-46z M179,1014h46v1h-46z M180,1015h46v1h-46z M180,1016h46v1h-46z M180,1017h47v1h-47z M180,1018h47v1h-47z M181,1019h47v1h-47z M181,1020h47v1h-47z M181,1021h48v1h-48z M182,1022h47v1h-47z M182,1023h48v1h-48z M182,1024h49v1h-49z M318,1024h47v1h-47z M183,1025h48v1h-48z M317,1025h48v1h-48z M183,1026h49v1h-49z M317,1026h48v1h-48z M184,1027h49v1h-49z M316,1027h48v1h-48z M184,1028h50v1h-50z M315,1028h49v1h-49z M184,1029h51v1h-51z M315,1029h48v1h-48z M185,1030h50v1h-50z M314,1030h49v1h-49z M185,1031h51v1h-51z M313,1031h50v1h-50z M186,1032h51v1h-51z M312,1032h50v1h-50z M186,1033h52v1h-52z M311,1033h51v1h-51z M187,1034h53v1h-53z M310,1034h51v1h-51z M187,1035h54v1h-54z M309,1035h52v1h-52z M188,1036h54v1h-54z M308,1036h52v1h-52z M188,1037h55v1h-55z M307,1037h53v1h-53z M189,1038h56v1h-56z M306,1038h53v1h-53z M189,1039h57v1h-57z M305,1039h54v1h-54z M190,1040h58v1h-58z M303,1040h55v1h-55z M190,1041h59v1h-59z M302,1041h56v1h-56z M191,1042h60v1h-60z M300,1042h57v1h-57z M192,1043h61v1h-61z M298,1043h59v1h-59z M192,1044h64v1h-64z M295,1044h61v1h-61z M193,1045h65v1h-65z M293,1045h62v1h-62z M193,1046h69v1h-69z M289,1046h66v1h-66z M194,1047h73v1h-73z M284,1047h70v1h-70z M195,1048h158v1h-158z M196,1049h156v1h-156z M196,1050h156v1h-156z M197,1051h154v1h-154z M198,1052h152v1h-152z M199,1053h150v1h-150z M199,1054h150v1h-150z M200,1055h148v1h-148z M201,1056h146v1h-146z M202,1057h144v1h-144z M203,1058h142v1h-142z M204,1059h140v1h-140z M205,1060h138v1h-138z M206,1061h136v1h-136z M207,1062h134v1h-134z M208,1063h132v1h-132z M209,1064h130v1h-130z M210,1065h128v1h-128z M211,1066h126v1h-126z M213,1067h122v1h-122z M214,1068h120v1h-120z M215,1069h118v1h-118z M216,1070h116v1h-116z M218,1071h112v1h-112z M219,1072h110v1h-110z M221,1073h106v1h-106z M222,1074h104v1h-104z M224,1075h100v1h-100z M226,1076h97v1h-97z M227,1077h94v1h-94z M229,1078h90v1h-90z M231,1079h86v1h-86z M233,1080h82v1h-82z M235,1081h78v1h-78z M238,1082h73v1h-73z M240,1083h68v1h-68z M243,1084h63v1h-63z M246,1085h57v1h-57z M250,1086h49v1h-49z M254,1087h41v1h-41z M259,1088h31v1h-31z M269,1089h12v1h-12z"/>
<path d="M1879,890h25v1h-25z M1873,891h37v1h-37z M1868,892h46v1h-46z M1864,893h54v1h-54z M1861,894h60v1h-60z M1858,895h66v1h-66z M1855,896h72v1h-72z M1853,897h76v1h-76z M1851,898h80v1h-80z M1849,899h84v1h-84z M1847,900h88v1h-88z M1845,901h92v1h-92z M1843,902h96v1h-96z M1841,903h100v1h-100z M1840,904h102v1h-102z M1838,905h106v1h-106z M1837,906h108v1h-108z M1835,907h112v1h-112z M1834,908h114v1h-114z M1833,909h116v1h-116z M1831,910h119v1h-119z M1830,911h122v1h-122z M1829,912h124v1h-124z M1828,913h126v1h-126z M1827,914h128v1h-128z M1826,915h130v1h-130z M1825,916h132v1h-132z M1824,917h134v1h-134z M1823,918h136v1h-136z M1822,919h138v1h-138z M1821,920h140v1h-140z M1820,921h142v1h-142z M1819,922h144v1h-144z M1818,923h146v1h-146z M1817,924h147v1h-147z M1816,925h149v1h-149z M1816,926h150v1h-150z M1815,927h152v1h-152z M1814,928h154v1h-154z M1813,929h155v1h-155z M1812,930h157v1h-157z M1812,931h76v1h-76z M1896,931h74v1h-74z M1811,932h70v1h-70z M1903,932h67v1h-67z M1810,933h67v1h-67z M1907,933h64v1h-64z M1810,934h64v1h-64z M1910,934h62v1h-62z M1809,935h62v1h-62z M1912,935h60v1h-60z M1809,936h60v1h-60z M1914,936h59v1h-59z M1808,937h59v1h-59z M1916,937h58v1h-58z M1807,938h58v1h-58z M1918,938h56v1h-56z M1807,939h56v1h-56z M1920,939h55v1h-55z M1806,940h56v1h-56z M1921,940h54v1h-54z M1806,941h54v1h-54z M1922,941h54v1h-54z M1805,942h54v1h-54z M1924,942h52v1h-52z M1805,943h53v1h-53z M1925,943h52v1h-52z M1804,944h53v1h-53z M1926,944h51v1h-51z M1804,945h52v1h-52z M1927,945h51v1h-51z M1803,946h52v1h-52z M1928,946h50v1h-50z M1803,947h51v1h-51z M1929,947h50v1h-50z M1802,948h51v1h-51z M1930,948h49v1h-49z M1802,949h50v1h-50z M1931,949h49v1h-49z M1801,950h50v1h-50z M1931,950h49v1h-49z M1801,951h49v1h-49z M1932,951h48v1h-48z M1800,952h49v1h-49z M1933,952h48v1h-48z M1800,953h49v1h-49z M1933,953h48v1h-48z M1800,954h48v1h-48z M1934,954h48v1h-48z M1799,955h48v1h-48z M1935,955h47v1h-47z M1799,956h48v1h-48z M1935,956h47v1h-47z M1799,957h47v1h-47z M1936,957h47v1h-47z M1798,958h48v1h-48z M1936,958h47v1h-47z M1798,959h47v1h-47z M1937,959h46v1h-46z M1798,960h47v1h-47z M1937,960h47v1h-47z M1797,961h47v1h-47z M1938,961h46v1h-46z M1797,962h47v1h-47z M1938,962h46v1h-46z M1797,963h46v1h-46z M1938,963h46v1h-46z M1797,964h46v1h-46z M1939,964h46v1h-46z M1796,965h46v1h-46z M1939,965h46v1h-46z M1796,966h46v1h-46z M1939,966h46v1h-46z M1796,967h46v1h-46z M1940,967h45v1h-45z M1796,968h45v1h-45z M1940,968h46v1h-46z M1795,969h46v1h-46z M1940,969h46v1h-46z M1795,970h46v1h-46z M1941,970h45v1h-45z M1795,971h45v1h-45z M1941,971h45v1h-45z M1795,972h45v1h-45z M1941,972h45v1h-45z M1795,973h45v1h-45z M1941,973h46v1h-46z M1794,974h193v1h-193z M1794,975h193v1h-193z M1794,976h193v1h-193z M1794,977h193v1h-193z M1794,978h193v1h-193z M1794,979h193v1h-193z M1794,980h193v1h-193z M1794,981h193v1h-193z M1793,982h195v1h-195z M1793,983h195v1h-195z M1793,984h195v1h-195z M1793,985h195v1h-195z M1793,986h195v1h-195z M1793,987h195v1h-195z M1793,988h195v1h-195z M1793,989h195v1h-195z M1793,990h195v1h-195z M1793,991h195v1h-195z M1793,992h195v1h-195z M1793,993h195v1h-195z M1793,994h194v1h-194z M1793,995h194v1h-194z M1793,996h194v1h-194z M1793,997h194v1h-194z M1793,998h194v1h-194z M1793,999h194v1h-194z M1794,1000h193v1h-193z M1794,1001h193v1h-193z M1794,1002h193v1h-193z M1794,1003h192v1h-192z M1794,1004h192v1h-192z M1794,1005h192v1h-192z M1794,1006h192v1h-192z M1794,1007h192v1h-192z M1795,1008h190v1h-190z M1795,1009h190v1h-190z M1795,1010h190v1h-190z M1795,1011h46v1h-46z M1795,1012h46v1h-46z M1796,1013h46v1h-46z M1796,1014h46v1h-46z M1796,1015h46v1h-46z M1796,1016h47v1h-47z M1797,1017h46v1h-46z M1797,1018h47v1h-47z M1797,1019h47v1h-47z M1798,1020h47v1h-47z M1798,1021h47v1h-47z M1798,1022h48v1h-48z M1799,1023h48v1h-48z M1799,1024h48v1h-48z M1934,1024h47v1h-47z M1799,1025h49v1h-49z M1934,1025h47v1h-47z M1800,1026h49v1h-49z M1933,1026h48v1h-48z M1800,1027h49v1h-49z M1932,1027h49v1h-49z M1800,1028h50v1h-50z M1932,1028h48v1h-48z M1801,1029h50v1h-50z M1931,1029h49v1h-49z M1801,1030h51v1h-51z M1930,1030h50v1h-50z M1802,1031h51v1h-51z M1930,1031h49v1h-49z M1802,1032h52v1h-52z M1929,1032h50v1h-50z M1803,1033h52v1h-52z M1928,1033h50v1h-50z M1803,1034h53v1h-53z M1927,1034h51v1h-51z M1804,1035h53v1h-53z M1926,1035h51v1h-51z M1804,1036h54v1h-54z M1925,1036h52v1h-52z M1805,1037h55v1h-55z M1924,1037h52v1h-52z M1805,1038h56v1h-56z M1922,1038h54v1h-54z M1806,1039h56v1h-56z M1921,1039h54v1h-54z M1806,1040h58v1h-58z M1920,1040h55v1h-55z M1807,1041h59v1h-59z M1918,1041h56v1h-56z M1807,1042h61v1h-61z M1916,1042h58v1h-58z M1808,1043h62v1h-62z M1914,1043h59v1h-59z M1809,1044h63v1h-63z M1912,1044h60v1h-60z M1809,1045h66v1h-66z M1909,1045h63v1h-63z M1810,1046h69v1h-69z M1906,1046h65v1h-65z M1811,1047h73v1h-73z M1900,1047h70v1h-70z M1811,1048h159v1h-159z M1812,1049h157v1h-157z M1813,1050h155v1h-155z M1814,1051h153v1h-153z M1814,1052h153v1h-153z M1815,1053h151v1h-151z M1816,1054h149v1h-149z M1817,1055h147v1h-147z M1818,1056h145v1h-145z M1819,1057h143v1h-143z M1819,1058h142v1h-142z M1820,1059h141v1h-141z M1821,1060h139v1h-139z M1822,1061h137v1h-137z M1823,1062h135v1h-135z M1824,1063h132v1h-132z M1826,1064h129v1h-129z M1827,1065h127v1h-127z M1828,1066h125v1h-125z M1829,1067h123v1h-123z M1830,1068h121v1h-121z M1832,1069h117v1h-117z M1833,1070h115v1h-115z M1834,1071h113v1h-113z M1836,1072h109v1h-109z M1837,1073h107v1h-107z M1839,1074h103v1h-103z M1840,1075h101v1h-101z M1842,1076h97v1h-97z M1844,1077h93v1h-93z M1846,1078h90v1h-90z M1848,1079h86v1h-86z M1850,1080h82v1h-82z M1852,1081h78v1h-78z M1854,1082h73v1h-73z M1857,1083h68v1h-68z M1860,1084h62v1h-62z M1863,1085h56v1h-56z M1866,1086h50v1h-50z M1871,1087h41v1h-41z M1876,1088h30v1h-30z M1885,1089h13v1h-13z"/>
<path d="M82,891h21v1h-21z M77,892h31v1h-31z M73,893h39v1h-39z M70,894h45v1h-45z M67,895h51v1h-51z M65,896h56v1h-56z M0,897h42v1h-42z M63,897h60v1h-60z M0,898h42v1h-42z M61,898h64v1h-64z M0,899h42v1h-42z M59,899h68v1h-68z M0,900h42v1h-42z M57,900h72v1h-72z M0,901h42v1h-42z M56,901h75v1h-75z M0,902h42v1h-42z M54,902h79v1h-79z M0,903h42v1h-42z M53,903h81v1h-81z M0,904h42v1h-42z M52,904h84v1h-84z M0,905h42v1h-42z M50,905h87v1h-87z M0,906h42v1h-42z M49,906h89v1h-89z M0,907h42v1h-42z M48,907h92v1h-92z M0,908h42v1h-42z M47,908h94v1h-94z M0,909h42v1h-42z M46,909h96v1h-96z M0,910h42v1h-42z M45,910h98v1h-98z M0,911h42v1h-42z M44,911h100v1h-100z M0,912h145v1h-145z M0,913h146v1h-146z M0,914h147v1h-147z M0,915h148v1h-148z M0,916h149v1h-149z M0,917h150v1h-150z M0,918h150v1h-150z M0,919h151v1h-151z M0,920h152v1h-152z M0,921h153v1h-153z M0,922h153v1h-153z M0,923h154v1h-154z M0,924h154v1h-154z M0,925h155v1h-155z M0,926h156v1h-156z M0,927h156v1h-156z M0,928h157v1h-157z M0,929h157v1h-157z M0,930h157v1h-157z M0,931h158v1h-158z M0,932h81v1h-81z M87,932h71v1h-71z M0,933h76v1h-76z M93,933h66v1h-66z M0,934h72v1h-72z M97,934h62v1h-62z M0,935h70v1h-70z M99,935h61v1h-61z M0,936h67v1h-67z M101,936h59v1h-59z M0,937h66v1h-66z M103,937h57v1h-57z M0,938h64v1h-64z M104,938h57v1h-57z M0,939h62v1h-62z M105,939h56v1h-56z M0,940h61v1h-61z M106,940h55v1h-55z M0,941h60v1h-60z M107,941h55v1h-55z M0,942h59v1h-59z M108,942h54v1h-54z M0,943h58v1h-58z M109,943h53v1h-53z M0,944h57v1h-57z M110,944h52v1h-52z M0,945h56v1h-56z M111,945h52v1h-52z M0,946h55v1h-55z M111,946h52v1h-52z M0,947h54v1h-54z M112,947h51v1h-51z M0,948h54v1h-54z M113,948h50v1h-50z M0,949h53v1h-53z M113,949h50v1h-50z M0,950h52v1h-52z M114,950h50v1h-50z M0,951h52v1h-52z M114,951h50v1h-50z M0,952h51v1h-51z M115,952h49v1h-49z M0,953h51v1h-51z M115,953h49v1h-49z M0,954h50v1h-50z M116,954h48v1h-48z M0,955h50v1h-50z M116,955h49v1h-49z M0,956h50v1h-50z M116,956h49v1h-49z M0,957h49v1h-49z M117,957h48v1h-48z M0,958h49v1h-49z M117,958h48v1h-48z M0,959h49v1h-49z M117,959h48v1h-48z M0,960h48v1h-48z M118,960h47v1h-47z M0,961h48v1h-48z M118,961h47v1h-47z M0,962h48v1h-48z M118,962h47v1h-47z M0,963h48v1h-48z M118,963h47v1h-47z M0,964h47v1h-47z M119,964h46v1h-46z M0,965h47v1h-47z M119,965h47v1h-47z M0,966h47v1h-47z M119,966h47v1h-47z M0,967h47v1h-47z M119,967h47v1h-47z M0,968h47v1h-47z M119,968h47v1h-47z M0,969h47v1h-47z M119,969h47v1h-47z M0,970h47v1h-47z M120,970h46v1h-46z M0,971h46v1h-46z M120,971h46v1h-46z M0,972h46v1h-46z M120,972h46v1h-46z M0,973h46v1h-46z M120,973h46v1h-46z M0,974h46v1h-46z M120,974h46v1h-46z M0,975h46v1h-46z M120,975h46v1h-46z M0,976h46v1h-46z M120,976h46v1h-46z M0,977h46v1h-46z M120,977h46v1h-46z M0,978h46v1h-46z M120,978h46v1h-46z M0,979h46v1h-46z M121,979h45v1h-45z M0,980h46v1h-46z M121,980h45v1h-45z M0,981h46v1h-46z M121,981h45v1h-45z M0,982h46v1h-46z M121,982h45v1h-45z M0,983h46v1h-46z M121,983h45v1h-45z M0,984h46v1h-46z M121,984h45v1h-45z M0,985h46v1h-46z M121,985h45v1h-45z M0,986h46v1h-46z M121,986h45v1h-45z M0,987h46v1h-46z M121,987h45v1h-45z M0,988h46v1h-46z M121,988h45v1h-45z M0,989h46v1h-46z M121,989h45v1h-45z M0,990h46v1h-46z M121,990h45v1h-45z M0,991h46v1h-46z M121,991h45v1h-45z M0,992h46v1h-46z M121,992h45v1h-45z M0,993h46v1h-46z M121,993h45v1h-45z M0,994h46v1h-46z M121,994h45v1h-45z M0,995h46v1h-46z M121,995h45v1h-45z M0,996h46v1h-46z M121,996h45v1h-45z M0,997h46v1h-46z M121,997h45v1h-45z M0,998h46v1h-46z M121,998h45v1h-45z M0,999h46v1h-46z M121,999h45v1h-45z M0,1000h46v1h-46z M121,1000h45v1h-45z M0,1001h46v1h-46z M121,1001h45v1h-45z M0,1002h46v1h-46z M121,1002h45v1h-45z M0,1003h46v1h-46z M121,1003h45v1h-45z M0,1004h46v1h-46z M121,1004h45v1h-45z M0,1005h46v1h-46z M121,1005h45v1h-45z M0,1006h46v1h-46z M121,1006h45v1h-45z M0,1007h46v1h-46z M121,1007h45v1h-45z M0,1008h46v1h-46z M121,1008h45v1h-45z M0,1009h46v1h-46z M121,1009h45v1h-45z M0,1010h46v1h-46z M121,1010h45v1h-45z M0,1011h46v1h-46z M121,1011h45v1h-45z M0,1012h46v1h-46z M121,1012h45v1h-45z M0,1013h46v1h-46z M121,1013h45v1h-45z M0,1014h46v1h-46z M121,1014h45v1h-45z M0,1015h46v1h-46z M121,1015h45v1h-45z M0,1016h46v1h-46z M121,1016h45v1h-45z M0,1017h46v1h-46z M121,1017h45v1h-45z M0,1018h46v1h-46z M121,1018h45v1h-45z M0,1019h46v1h-46z M121,1019h45v1h-45z M0,1020h46v1h-46z M121,1020h45v1h-45z M0,1021h46v1h-46z M121,1021h45v1h-45z M0,1022h46v1h-46z M121,1022h45v1h-45z M0,1023h46v1h-46z M121,1023h45v1h-45z M0,1024h46v1h-46z M121,1024h45v1h-45z M0,1025h46v1h-46z M121,1025h45v1h-45z M0,1026h46v1h-46z M121,1026h45v1h-45z M0,1027h46v1h-46z M121,1027h45v1h-45z M0,1028h46v1h-46z M121,1028h45v1h-45z M0,1029h46v1h-46z M121,1029h45v1h-45z M0,1030h46v1h-46z M121,1030h45v1h-45z M0,1031h46v1h-46z M121,1031h45v1h-45z M0,1032h46v1h-46z M121,1032h45v1h-45z M0,1033h46v1h-46z M121,1033h45v1h-45z M0,1034h46v1h-46z M121,1034h45v1h-45z M0,1035h46v1h-46z M121,1035h45v1h-45z M0,1036h46v1h-46z M121,1036h45v1h-45z M0,1037h46v1h-46z M121,1037h45v1h-45z M0,1038h46v1h-46z M121,1038h45v1h-45z M0,1039h46v1h-46z M121,1039h45v1h-45z M0,1040h46v1h-46z M121,1040h45v1h-45z M0,1041h46v1h-46z M121,1041h45v1h-45z M0,1042h46v1h-46z M121,1042h45v1h-45z M0,1043h46v1h-46z M121,1043h45v1h-45z M0,1044h46v1h-46z M121,1044h45v1h-45z M0,1045h46v1h-46z M121,1045h45v1h-45z M0,1046h46v1h-46z M121,1046h45v1h-45z M0,1047h46v1h-46z M121,1047h45v1h-45z M0,1048h46v1h-46z M121,1048h45v1h-45z M0,1049h46v1h-46z M121,1049h45v1h-45z M0,1050h46v1h-46z M121,1050h45v1h-45z M0,1051h46v1h-46z M121,1051h45v1h-45z M0,1052h46v1h-46z M121,1052h45v1h-45z M0,1053h46v1h-46z M121,1053h45v1h-45z M0,1054h46v1h-46z M121,1054h45v1h-45z M0,1055h46v1h-46z M121,1055h45v1h-45z M0,1056h46v1h-46z M121,1056h45v1h-45z M0,1057h46v1h-46z M121,1057h45v1h-45z M0,1058h46v1h-46z M121,1058h45v1h-45z M0,1059h46v1h-46z M121,1059h45v1h-45z M0,1060h46v1h-46z M121,1060h45v1h-45z M0,1061h46v1h-46z M121,1061h45v1h-45z M0,1062h46v1h-46z M121,1062h45v1h-45z M0,1063h46v1h-46z M121,1063h45v1h-45z M0,1064h46v1h-46z M121,1064h45v1h-45z M0,1065h46v1h-46z M121,1065h45v1h-45z M0,1066h46v1h-46z M121,1066h45v1h-45z M0,1067h46v1h-46z M121,1067h45v1h-45z M0,1068h46v1h-46z M121,1068h45v1h-45z M0,1069h46v1h-46z M121,1069h45v1h-45z M0,1070h46v1h-46z M121,1070h45v1h-45z M0,1071h46v1h-46z M121,1071h45v1h-45z M0,1072h46v1h-46z M121,1072h45v1h-45z M0,1073h46v1h-46z M121,1073h45v1h-45z M0,1074h46v1h-46z M121,1074h45v1h-45z M0,1075h46v1h-46z M121,1075h45v1h-45z M0,1076h46v1h-46z M121,1076h45v1h-45z M0,1077h46v1h-46z M121,1077h45v1h-45z M0,1078h46v1h-46z M121,1078h45v1h-45z M0,1079h46v1h-46z M121,1079h45v1h-45z M0,1080h46v1h-46z M121,1080h45v1h-45z M0,1081h46v1h-46z M121,1081h45v1h-45z M0,1082h46v1h-46z M121,1082h45v1h-45z M1,1083h44v1h-44z M121,1083h45v1h-45z"/>
<path d="M996,891h23v1h-23z M990,892h35v1h-35z M985,893h44v1h-44z M982,894h50v1h-50z M979,895h56v1h-56z M976,896h62v1h-62z M973,897h67v1h-67z M1070,897h42v1h-42z M971,898h71v1h-71z M1070,898h42v1h-42z M969,899h75v1h-75z M1070,899h42v1h-42z M967,900h79v1h-79z M1070,900h42v1h-42z M965,901h83v1h-83z M1070,901h42v1h-42z M963,902h87v1h-87z M1070,902h42v1h-42z M961,903h90v1h-90z M1070,903h42v1h-42z M960,904h93v1h-93z M1070,904h42v1h-42z M958,905h96v1h-96z M1070,905h42v1h-42z M956,906h100v1h-100z M1070,906h42v1h-42z M955,907h102v1h-102z M1070,907h42v1h-42z M954,908h104v1h-104z M1070,908h42v1h-42z M952,909h107v1h-107z M1070,909h42v1h-42z M951,910h110v1h-110z M1070,910h42v1h-42z M950,911h112v1h-112z M1070,911h42v1h-42z M949,912h114v1h-114z M1070,912h42v1h-42z M948,913h116v1h-116z M1070,913h42v1h-42z M946,914h119v1h-119z M1070,914h42v1h-42z M945,915h121v1h-121z M1070,915h42v1h-42z M944,916h123v1h-123z M1070,916h42v1h-42z M943,917h125v1h-125z M1070,917h42v1h-42z M942,918h127v1h-127z M1070,918h42v1h-42z M941,919h128v1h-128z M1070,919h42v1h-42z M940,920h172v1h-172z M940,921h172v1h-172z M939,922h173v1h-173z M938,923h174v1h-174z M937,924h175v1h-175z M936,925h176v1h-176z M935,926h177v1h-177z M935,927h177v1h-177z M934,928h178v1h-178z M933,929h179v1h-179z M932,930h180v1h-180z M932,931h180v1h-180z M931,932h80v1h-80z M1018,932h94v1h-94z M930,933h74v1h-74z M1026,933h86v1h-86z M930,934h69v1h-69z M1030,934h82v1h-82z M929,935h67v1h-67z M1033,935h79v1h-79z M929,936h65v1h-65z M1036,936h76v1h-76z M928,937h64v1h-64z M1038,937h74v1h-74z M928,938h62v1h-62z M1040,938h72v1h-72z M927,939h61v1h-61z M1042,939h70v1h-70z M926,940h60v1h-60z M1044,940h68v1h-68z M926,941h59v1h-59z M1045,941h67v1h-67z M925,942h58v1h-58z M1047,942h65v1h-65z M925,943h57v1h-57z M1048,943h64v1h-64z M924,944h57v1h-57z M1049,944h63v1h-63z M924,945h56v1h-56z M1050,945h62v1h-62z M924,946h55v1h-55z M1052,946h60v1h-60z M923,947h55v1h-55z M1053,947h59v1h-59z M923,948h54v1h-54z M1054,948h58v1h-58z M922,949h54v1h-54z M1054,949h58v1h-58z M922,950h53v1h-53z M1055,950h57v1h-57z M922,951h52v1h-52z M1056,951h56v1h-56z M921,952h52v1h-52z M1057,952h55v1h-55z M921,953h51v1h-51z M1058,953h54v1h-54z M920,954h52v1h-52z M1059,954h53v1h-53z M920,955h51v1h-51z M1059,955h53v1h-53z M920,956h50v1h-50z M1060,956h52v1h-52z M920,957h50v1h-50z M1060,957h52v1h-52z M919,958h50v1h-50z M1061,958h51v1h-51z M919,959h50v1h-50z M1062,959h50v1h-50z M919,960h49v1h-49z M1062,960h50v1h-50z M918,961h49v1h-49z M1063,961h49v1h-49z M918,962h49v1h-49z M1063,962h49v1h-49z M918,963h48v1h-48z M1064,963h48v1h-48z M918,964h48v1h-48z M1064,964h48v1h-48z M917,965h49v1h-49z M1065,965h47v1h-47z M917,966h48v1h-48z M1065,966h47v1h-47z M917,967h48v1h-48z M1065,967h47v1h-47z M917,968h47v1h-47z M1066,968h46v1h-46z M917,969h47v1h-47z M1066,969h46v1h-46z M916,970h48v1h-48z M1066,970h46v1h-46z M916,971h47v1h-47z M1067,971h45v1h-45z M916,972h47v1h-47z M1067,972h45v1h-45z M916,973h47v1h-47z M1067,973h45v1h-45z M916,974h46v1h-46z M1067,974h45v1h-45z M916,975h46v1h-46z M1068,975h44v1h-44z M916,976h46v1h-46z M1068,976h44v1h-44z M915,977h47v1h-47z M1068,977h44v1h-44z M915,978h46v1h-46z M1068,978h44v1h-44z M915,979h46v1h-46z M1068,979h44v1h-44z M915,980h46v1h-46z M1068,980h44v1h-44z M915,981h46v1h-46z M1068,981h44v1h-44z M915,982h46v1h-46z M1069,982h43v1h-43z M915,983h46v1h-46z M1069,983h43v1h-43z M915,984h46v1h-46z M1069,984h43v1h-43z M915,985h45v1h-45z M1069,985h43v1h-43z M915,986h45v1h-45z M1069,986h43v1h-43z M915,987h45v1h-45z M1069,987h43v1h-43z M915,988h45v1h-45z M1069,988h43v1h-43z M915,989h45v1h-45z M1069,989h43v1h-43z M915,990h45v1h-45z M1069,990h43v1h-43z M915,991h45v1h-45z M1069,991h43v1h-43z M915,992h45v1h-45z M1069,992h43v1h-43z M915,993h45v1h-45z M1069,993h43v1h-43z M915,994h45v1h-45z M1069,994h43v1h-43z M915,995h45v1h-45z M1069,995h43v1h-43z M915,996h45v1h-45z M1069,996h43v1h-43z M915,997h45v1h-45z M1069,997h43v1h-43z M915,998h46v1h-46z M1068,998h44v1h-44z M915,999h46v1h-46z M1068,999h44v1h-44z M915,1000h46v1h-46z M1068,1000h44v1h-44z M915,1001h46v1h-46z M1068,1001h44v1h-44z M916,1002h45v1h-45z M1068,1002h44v1h-44z M916,1003h45v1h-45z M1068,1003h44v1h-44z M916,1004h46v1h-46z M1067,1004h45v1h-45z M916,1005h46v1h-46z M1067,1005h45v1h-45z M916,1006h46v1h-46z M1067,1006h45v1h-45z M916,1007h46v1h-46z M1067,1007h45v1h-45z M916,1008h47v1h-47z M1066,1008h46v1h-46z M917,1009h46v1h-46z M1066,1009h46v1h-46z M917,1010h46v1h-46z M1066,1010h46v1h-46z M917,1011h47v1h-47z M1065,1011h47v1h-47z M917,1012h47v1h-47z M1065,1012h47v1h-47z M917,1013h47v1h-47z M1065,1013h47v1h-47z M917,1014h48v1h-48z M1064,1014h48v1h-48z M918,1015h47v1h-47z M1064,1015h48v1h-48z M918,1016h48v1h-48z M1064,1016h48v1h-48z M918,1017h48v1h-48z M1063,1017h49v1h-49z M918,1018h49v1h-49z M1063,1018h49v1h-49z M919,1019h48v1h-48z M1062,1019h50v1h-50z M919,1020h49v1h-49z M1062,1020h50v1h-50z M919,1021h49v1h-49z M1061,1021h51v1h-51z M919,1022h50v1h-50z M1060,1022h52v1h-52z M920,1023h50v1h-50z M1060,1023h52v1h-52z M920,1024h50v1h-50z M1059,1024h53v1h-53z M920,1025h51v1h-51z M1059,1025h53v1h-53z M921,1026h51v1h-51z M1058,1026h54v1h-54z M921,1027h51v1h-51z M1057,1027h55v1h-55z M921,1028h52v1h-52z M1056,1028h56v1h-56z M922,1029h52v1h-52z M1056,1029h56v1h-56z M922,1030h53v1h-53z M1055,1030h57v1h-57z M922,1031h54v1h-54z M1054,1031h58v1h-58z M923,1032h54v1h-54z M1053,1032h59v1h-59z M923,1033h55v1h-55z M1052,1033h60v1h-60z M924,1034h55v1h-55z M1051,1034h61v1h-61z M924,1035h56v1h-56z M1050,1035h62v1h-62z M925,1036h56v1h-56z M1048,1036h64v1h-64z M925,1037h58v1h-58z M1047,1037h65v1h-65z M926,1038h58v1h-58z M1046,1038h66v1h-66z M926,1039h60v1h-60z M1044,1039h68v1h-68z M927,1040h60v1h-60z M1043,1040h69v1h-69z M927,1041h62v1h-62z M1041,1041h71v1h-71z M928,1042h63v1h-63z M1039,1042h73v1h-73z M928,1043h65v1h-65z M1037,1043h75v1h-75z M929,1044h66v1h-66z M1035,1044h77v1h-77z M929,1045h69v1h-69z M1032,1045h80v1h-80z M930,1046h72v1h-72z M1028,1046h84v1h-84z M930,1047h77v1h-77z M1023,1047h89v1h-89z M931,1048h181v1h-181z M932,1049h180v1h-180z M932,1050h180v1h-180z M933,1051h179v1h-179z M934,1052h178v1h-178z M935,1053h177v1h-177z M935,1054h177v1h-177z M936,1055h176v1h-176z M937,1056h175v1h-175z M938,1057h174v1h-174z M938,1058h174v1h-174z M939,1059h173v1h-173z M940,1060h172v1h-172z M941,1061h171v1h-171z M942,1062h127v1h-127z M1070,1062h42v1h-42z M943,1063h125v1h-125z M1070,1063h42v1h-42z M944,1064h123v1h-123z M1070,1064h42v1h-42z M945,1065h121v1h-121z M1070,1065h42v1h-42z M946,1066h119v1h-119z M1070,1066h42v1h-42z M947,1067h117v1h-117z M1070,1067h42v1h-42z M948,1068h115v1h-115z M1070,1068h42v1h-42z M950,1069h112v1h-112z M1070,1069h42v1h-42z M951,1070h109v1h-109z M1070,1070h42v1h-42z M952,1071h107v1h-107z M1070,1071h42v1h-42z M953,1072h105v1h-105z M1070,1072h42v1h-42z M955,1073h101v1h-101z M1070,1073h42v1h-42z M956,1074h99v1h-99z M1070,1074h42v1h-42z M958,1075h95v1h-95z M1070,1075h42v1h-42z M959,1076h92v1h-92z M1070,1076h42v1h-42z M961,1077h89v1h-89z M1070,1077h42v1h-42z M963,1078h85v1h-85z M1070,1078h42v1h-42z M964,1079h82v1h-82z M1070,1079h42v1h-42z M966,1080h78v1h-78z M1070,1080h42v1h-42z M968,1081h74v1h-74z M1070,1081h42v1h-42z M971,1082h68v1h-68z M1070,1082h42v1h-42z M973,1083h64v1h-64z M1070,1083h42v1h-42z M976,1084h58v1h-58z M979,1085h52v1h-52z M982,1086h46v1h-46z M986,1087h38v1h-38z M991,1088h28v1h-28z M1000,1089h11v1h-11z"/>
<path d="M1274,891h23v1h-23z M1268,892h35v1h-35z M1263,893h44v1h-44z M1260,894h50v1h-50z M1256,895h57v1h-57z M1254,896h62v1h-62z M1251,897h67v1h-67z M1348,897h42v1h-42z M1249,898h71v1h-71z M1348,898h42v1h-42z M1247,899h75v1h-75z M1348,899h42v1h-42z M1244,900h80v1h-80z M1348,900h42v1h-42z M1243,901h83v1h-83z M1348,901h42v1h-42z M1241,902h86v1h-86z M1348,902h42v1h-42z M1239,903h90v1h-90z M1348,903h42v1h-42z M1237,904h94v1h-94z M1348,904h42v1h-42z M1236,905h96v1h-96z M1348,905h42v1h-42z M1234,906h99v1h-99z M1348,906h42v1h-42z M1233,907h102v1h-102z M1348,907h42v1h-42z M1232,908h104v1h-104z M1348,908h42v1h-42z M1230,909h107v1h-107z M1348,909h42v1h-42z M1229,910h109v1h-109z M1348,910h42v1h-42z M1228,911h112v1h-112z M1348,911h42v1h-42z M1226,912h115v1h-115z M1348,912h42v1h-42z M1225,913h117v1h-117z M1348,913h42v1h-42z M1224,914h119v1h-119z M1348,914h42v1h-42z M1223,915h121v1h-121z M1348,915h42v1h-42z M1222,916h123v1h-123z M1348,916h42v1h-42z M1221,917h125v1h-125z M1348,917h42v1h-42z M1220,918h126v1h-126z M1348,918h42v1h-42z M1219,919h128v1h-128z M1348,919h42v1h-42z M1218,920h172v1h-172z M1217,921h173v1h-173z M1216,922h174v1h-174z M1216,923h174v1h-174z M1215,924h175v1h-175z M1214,925h176v1h-176z M1213,926h177v1h-177z M1212,927h178v1h-178z M1212,928h178v1h-178z M1211,929h179v1h-179z M1210,930h180v1h-180z M1210,931h180v1h-180z M1209,932h80v1h-80z M1296,932h94v1h-94z M1208,933h73v1h-73z M1304,933h86v1h-86z M1208,934h69v1h-69z M1308,934h82v1h-82z M1207,935h67v1h-67z M1311,935h79v1h-79z M1206,936h66v1h-66z M1314,936h76v1h-76z M1206,937h63v1h-63z M1316,937h74v1h-74z M1205,938h62v1h-62z M1318,938h72v1h-72z M1205,939h61v1h-61z M1320,939h70v1h-70z M1204,940h60v1h-60z M1322,940h68v1h-68z M1204,941h58v1h-58z M1323,941h67v1h-67z M1203,942h58v1h-58z M1324,942h66v1h-66z M1203,943h57v1h-57z M1326,943h64v1h-64z M1202,944h57v1h-57z M1327,944h63v1h-63z M1202,945h55v1h-55z M1328,945h62v1h-62z M1201,946h55v1h-55z M1329,946h61v1h-61z M1201,947h54v1h-54z M1330,947h60v1h-60z M1201,948h53v1h-53z M1331,948h59v1h-59z M1200,949h54v1h-54z M1332,949h58v1h-58z M1200,950h53v1h-53z M1333,950h57v1h-57z M1199,951h53v1h-53z M1334,951h56v1h-56z M1199,952h52v1h-52z M1335,952h55v1h-55z M1199,953h51v1h-51z M1336,953h54v1h-54z M1198,954h52v1h-52z M1336,954h54v1h-54z M1198,955h51v1h-51z M1337,955h53v1h-53z M1198,956h50v1h-50z M1338,956h52v1h-52z M1197,957h51v1h-51z M1338,957h52v1h-52z M1197,958h50v1h-50z M1339,958h51v1h-51z M1197,959h49v1h-49z M1339,959h51v1h-51z M1196,960h50v1h-50z M1340,960h50v1h-50z M1196,961h49v1h-49z M1341,961h49v1h-49z M1196,962h49v1h-49z M1341,962h49v1h-49z M1196,963h48v1h-48z M1341,963h49v1h-49z M1195,964h49v1h-49z M1342,964h48v1h-48z M1195,965h48v1h-48z M1342,965h48v1h-48z M1195,966h48v1h-48z M1343,966h47v1h-47z M1195,967h48v1h-48z M1343,967h47v1h-47z M1195,968h47v1h-47z M1343,968h47v1h-47z M1194,969h48v1h-48z M1344,969h46v1h-46z M1194,970h47v1h-47z M1344,970h46v1h-46z M1194,971h47v1h-47z M1344,971h46v1h-46z M1194,972h47v1h-47z M1345,972h45v1h-45z M1194,973h47v1h-47z M1345,973h45v1h-45z M1194,974h46v1h-46z M1345,974h45v1h-45z M1194,975h46v1h-46z M1345,975h45v1h-45z M1193,976h47v1h-47z M1346,976h44v1h-44z M1193,977h47v1h-47z M1346,977h44v1h-44z M1193,978h46v1h-46z M1346,978h44v1h-44z M1193,979h46v1h-46z M1346,979h44v1h-44z M1193,980h46v1h-46z M1346,980h44v1h-44z M1193,981h46v1h-46z M1346,981h44v1h-44z M1193,982h46v1h-46z M1346,982h44v1h-44z M1193,983h46v1h-46z M1346,983h44v1h-44z M1193,984h45v1h-45z M1347,984h43v1h-43z M1193,985h45v1h-45z M1347,985h43v1h-43z M1193,986h45v1h-45z M1347,986h43v1h-43z M1193,987h45v1h-45z M1347,987h43v1h-43z M1193,988h45v1h-45z M1347,988h43v1h-43z M1193,989h45v1h-45z M1347,989h43v1h-43z M1193,990h45v1h-45z M1347,990h43v1h-43z M1193,991h45v1h-45z M1347,991h43v1h-43z M1193,992h45v1h-45z M1347,992h43v1h-43z M1193,993h45v1h-45z M1347,993h43v1h-43z M1193,994h45v1h-45z M1347,994h43v1h-43z M1193,995h45v1h-45z M1346,995h44v1h-44z M1193,996h45v1h-45z M1346,996h44v1h-44z M1193,997h45v1h-45z M1346,997h44v1h-44z M1193,998h45v1h-45z M1346,998h44v1h-44z M1193,999h46v1h-46z M1346,999h44v1h-44z M1193,1000h46v1h-46z M1346,1000h44v1h-44z M1193,1001h46v1h-46z M1346,1001h44v1h-44z M1193,1002h46v1h-46z M1346,1002h44v1h-44z M1194,1003h45v1h-45z M1345,1003h45v1h-45z M1194,1004h45v1h-45z M1345,1004h45v1h-45z M1194,1005h46v1h-46z M1345,1005h45v1h-45z M1194,1006h46v1h-46z M1345,1006h45v1h-45z M1194,1007h46v1h-46z M1345,1007h45v1h-45z M1194,1008h46v1h-46z M1344,1008h46v1h-46z M1194,1009h47v1h-47z M1344,1009h46v1h-46z M1194,1010h47v1h-47z M1344,1010h46v1h-46z M1195,1011h46v1h-46z M1343,1011h47v1h-47z M1195,1012h47v1h-47z M1343,1012h47v1h-47z M1195,1013h47v1h-47z M1343,1013h47v1h-47z M1195,1014h48v1h-48z M1342,1014h48v1h-48z M1195,1015h48v1h-48z M1342,1015h48v1h-48z M1196,1016h48v1h-48z M1341,1016h49v1h-49z M1196,1017h48v1h-48z M1341,1017h49v1h-49z M1196,1018h48v1h-48z M1340,1018h50v1h-50z M1196,1019h49v1h-49z M1340,1019h50v1h-50z M1197,1020h49v1h-49z M1339,1020h51v1h-51z M1197,1021h49v1h-49z M1339,1021h51v1h-51z M1197,1022h50v1h-50z M1338,1022h52v1h-52z M1198,1023h49v1h-49z M1338,1023h52v1h-52z M1198,1024h50v1h-50z M1337,1024h53v1h-53z M1198,1025h51v1h-51z M1336,1025h54v1h-54z M1198,1026h51v1h-51z M1336,1026h54v1h-54z M1199,1027h51v1h-51z M1335,1027h55v1h-55z M1199,1028h52v1h-52z M1334,1028h56v1h-56z M1200,1029h52v1h-52z M1333,1029h57v1h-57z M1200,1030h53v1h-53z M1332,1030h58v1h-58z M1200,1031h54v1h-54z M1332,1031h58v1h-58z M1201,1032h54v1h-54z M1331,1032h59v1h-59z M1201,1033h55v1h-55z M1330,1033h60v1h-60z M1202,1034h55v1h-55z M1329,1034h61v1h-61z M1202,1035h56v1h-56z M1328,1035h62v1h-62z M1202,1036h57v1h-57z M1326,1036h64v1h-64z M1203,1037h58v1h-58z M1325,1037h65v1h-65z M1203,1038h59v1h-59z M1324,1038h66v1h-66z M1204,1039h59v1h-59z M1322,1039h68v1h-68z M1204,1040h61v1h-61z M1321,1040h69v1h-69z M1205,1041h62v1h-62z M1319,1041h71v1h-71z M1205,1042h64v1h-64z M1317,1042h73v1h-73z M1206,1043h65v1h-65z M1315,1043h75v1h-75z M1206,1044h67v1h-67z M1312,1044h78v1h-78z M1207,1045h69v1h-69z M1310,1045h80v1h-80z M1208,1046h72v1h-72z M1306,1046h84v1h-84z M1208,1047h77v1h-77z M1301,1047h89v1h-89z M1209,1048h181v1h-181z M1210,1049h180v1h-180z M1210,1050h180v1h-180z M1211,1051h179v1h-179z M1212,1052h178v1h-178z M1212,1053h178v1h-178z M1213,1054h177v1h-177z M1214,1055h176v1h-176z M1215,1056h175v1h-175z M1215,1057h175v1h-175z M1216,1058h174v1h-174z M1217,1059h173v1h-173z M1218,1060h172v1h-172z M1219,1061h171v1h-171z M1220,1062h127v1h-127z M1348,1062h42v1h-42z M1221,1063h125v1h-125z M1348,1063h42v1h-42z M1222,1064h123v1h-123z M1348,1064h42v1h-42z M1223,1065h121v1h-121z M1348,1065h42v1h-42z M1224,1066h119v1h-119z M1348,1066h42v1h-42z M1225,1067h117v1h-117z M1348,1067h42v1h-42z M1226,1068h115v1h-115z M1348,1068h42v1h-42z M1227,1069h112v1h-112z M1348,1069h42v1h-42z M1229,1070h109v1h-109z M1348,1070h42v1h-42z M1230,1071h107v1h-107z M1348,1071h42v1h-42z M1231,1072h104v1h-104z M1348,1072h42v1h-42z M1233,1073h101v1h-101z M1348,1073h42v1h-42z M1234,1074h98v1h-98z M1348,1074h42v1h-42z M1235,1075h96v1h-96z M1348,1075h42v1h-42z M1237,1076h92v1h-92z M1348,1076h42v1h-42z M1239,1077h88v1h-88z M1348,1077h42v1h-42z M1240,1078h85v1h-85z M1348,1078h42v1h-42z M1242,1079h82v1h-82z M1348,1079h42v1h-42z M1244,1080h77v1h-77z M1348,1080h42v1h-42z M1246,1081h73v1h-73z M1348,1081h42v1h-42z M1248,1082h69v1h-69z M1348,1082h42v1h-42z M1251,1083h64v1h-64z M1348,1083h41v1h-41z M1254,1084h58v1h-58z M1256,1085h53v1h-53z M1260,1086h45v1h-45z M1264,1087h38v1h-38z M1269,1088h28v1h-28z M1277,1089h12v1h-12z"/>
<path d="M1494,891h21v1h-21z M1489,892h31v1h-31z M1485,893h39v1h-39z M1482,894h46v1h-46z M1480,895h51v1h-51z M1477,896h56v1h-56z M1413,897h41v1h-41z M1475,897h60v1h-60z M1413,898h42v1h-42z M1473,898h65v1h-65z M1413,899h42v1h-42z M1471,899h69v1h-69z M1413,900h42v1h-42z M1470,900h72v1h-72z M1413,901h42v1h-42z M1468,901h75v1h-75z M1413,902h42v1h-42z M1467,902h78v1h-78z M1413,903h42v1h-42z M1465,903h81v1h-81z M1413,904h42v1h-42z M1464,904h84v1h-84z M1413,905h42v1h-42z M1463,905h86v1h-86z M1413,906h42v1h-42z M1462,906h89v1h-89z M1413,907h42v1h-42z M1460,907h92v1h-92z M1413,908h42v1h-42z M1459,908h94v1h-94z M1413,909h42v1h-42z M1458,909h96v1h-96z M1413,910h42v1h-42z M1457,910h98v1h-98z M1413,911h42v1h-42z M1456,911h100v1h-100z M1413,912h144v1h-144z M1413,913h145v1h-145z M1413,914h146v1h-146z M1413,915h147v1h-147z M1413,916h148v1h-148z M1413,917h149v1h-149z M1413,918h150v1h-150z M1413,919h150v1h-150z M1413,920h151v1h-151z M1413,921h152v1h-152z M1413,922h152v1h-152z M1413,923h153v1h-153z M1413,924h154v1h-154z M1413,925h154v1h-154z M1413,926h155v1h-155z M1413,927h155v1h-155z M1413,928h156v1h-156z M1413,929h156v1h-156z M1413,930h157v1h-157z M1413,931h157v1h-157z M1413,932h81v1h-81z M1500,932h71v1h-71z M1413,933h75v1h-75z M1506,933h65v1h-65z M1413,934h71v1h-71z M1509,934h63v1h-63z M1413,935h69v1h-69z M1511,935h61v1h-61z M1413,936h67v1h-67z M1513,936h59v1h-59z M1413,937h65v1h-65z M1515,937h58v1h-58z M1413,938h63v1h-63z M1516,938h57v1h-57z M1413,939h62v1h-62z M1518,939h55v1h-55z M1413,940h60v1h-60z M1519,940h55v1h-55z M1413,941h59v1h-59z M1520,941h54v1h-54z M1413,942h58v1h-58z M1521,942h53v1h-53z M1413,943h57v1h-57z M1522,943h52v1h-52z M1413,944h56v1h-56z M1522,944h53v1h-53z M1413,945h55v1h-55z M1523,945h52v1h-52z M1413,946h54v1h-54z M1524,946h51v1h-51z M1413,947h54v1h-54z M1524,947h51v1h-51z M1413,948h53v1h-53z M1525,948h51v1h-51z M1413,949h52v1h-52z M1526,949h50v1h-50z M1413,950h52v1h-52z M1526,950h50v1h-50z M1413,951h51v1h-51z M1527,951h49v1h-49z M1413,952h51v1h-51z M1527,952h49v1h-49z M1413,953h50v1h-50z M1527,953h50v1h-50z M1413,954h50v1h-50z M1528,954h49v1h-49z M1413,955h49v1h-49z M1528,955h49v1h-49z M1413,956h49v1h-49z M1529,956h48v1h-48z M1413,957h49v1h-49z M1529,957h48v1h-48z M1413,958h48v1h-48z M1529,958h48v1h-48z M1413,959h48v1h-48z M1530,959h47v1h-47z M1413,960h48v1h-48z M1530,960h48v1h-48z M1413,961h47v1h-47z M1530,961h48v1h-48z M1413,962h47v1h-47z M1530,962h48v1h-48z M1413,963h47v1h-47z M1531,963h47v1h-47z M1413,964h47v1h-47z M1531,964h47v1h-47z M1413,965h47v1h-47z M1531,965h47v1h-47z M1413,966h46v1h-46z M1531,966h47v1h-47z M1413,967h46v1h-46z M1531,967h47v1h-47z M1413,968h46v1h-46z M1532,968h46v1h-46z M1413,969h46v1h-46z M1532,969h46v1h-46z M1413,970h46v1h-46z M1532,970h46v1h-46z M1413,971h46v1h-46z M1532,971h46v1h-46z M1413,972h46v1h-46z M1532,972h46v1h-46z M1413,973h46v1h-46z M1532,973h46v1h-46z M1413,974h45v1h-45z M1532,974h46v1h-46z M1413,975h45v1h-45z M1533,975h45v1h-45z M1413,976h45v1h-45z M1533,976h45v1h-45z M1413,977h45v1h-45z M1533,977h45v1h-45z M1413,978h45v1h-45z M1533,978h45v1h-45z M1413,979h45v1h-45z M1533,979h45v1h-45z M1413,980h45v1h-45z M1533,980h45v1h-45z M1413,981h45v1h-45z M1533,981h45v1h-45z M1413,982h45v1h-45z M1533,982h45v1h-45z M1413,983h45v1h-45z M1533,983h46v1h-46z M1413,984h45v1h-45z M1533,984h46v1h-46z M1413,985h45v1h-45z M1533,985h46v1h-46z M1413,986h45v1h-45z M1533,986h46v1h-46z M1413,987h45v1h-45z M1533,987h46v1h-46z M1413,988h45v1h-45z M1533,988h46v1h-46z M1413,989h45v1h-45z M1533,989h46v1h-46z M1413,990h45v1h-45z M1533,990h46v1h-46z M1413,991h45v1h-45z M1533,991h46v1h-46z M1413,992h45v1h-45z M1533,992h46v1h-46z M1413,993h45v1h-45z M1533,993h46v1h-46z M1413,994h45v1h-45z M1533,994h46v1h-46z M1413,995h45v1h-45z M1533,995h46v1h-46z M1413,996h45v1h-45z M1533,996h46v1h-46z M1413,997h45v1h-45z M1533,997h46v1h-46z M1413,998h45v1h-45z M1533,998h46v1h-46z M1413,999h45v1h-45z M1533,999h46v1h-46z M1413,1000h45v1h-45z M1533,1000h46v1h-46z M1413,1001h45v1h-45z M1533,1001h46v1h-46z M1413,1002h45v1h-45z M1533,1002h46v1h-46z M1413,1003h45v1h-45z M1533,1003h46v1h-46z M1413,1004h45v1h-45z M1533,1004h46v1h-46z M1413,1005h45v1h-45z M1533,1005h46v1h-46z M1413,1006h45v1h-45z M1533,1006h46v1h-46z M1413,1007h45v1h-45z M1533,1007h46v1h-46z M1413,1008h45v1h-45z M1533,1008h46v1h-46z M1413,1009h45v1h-45z M1533,1009h46v1h-46z M1413,1010h45v1h-45z M1533,1010h46v1h-46z M1413,1011h45v1h-45z M1533,1011h46v1h-46z M1413,1012h45v1h-45z M1533,1012h46v1h-46z M1413,1013h45v1h-45z M1533,1013h46v1h-46z M1413,1014h45v1h-45z M1533,1014h46v1h-46z M1413,1015h45v1h-45z M1533,1015h46v1h-46z M1413,1016h45v1h-45z M1533,1016h46v1h-46z M1413,1017h45v1h-45z M1533,1017h46v1h-46z M1413,1018h45v1h-45z M1533,1018h46v1h-46z M1413,1019h45v1h-45z M1533,1019h46v1h-46z M1413,1020h45v1h-45z M1533,1020h46v1h-46z M1413,1021h45v1h-45z M1533,1021h46v1h-46z M1413,1022h45v1h-45z M1533,1022h46v1h-46z M1413,1023h45v1h-45z M1533,1023h46v1h-46z M1413,1024h45v1h-45z M1533,1024h46v1h-46z M1413,1025h45v1h-45z M1533,1025h46v1h-46z M1413,1026h45v1h-45z M1533,1026h46v1h-46z M1413,1027h45v1h-45z M1533,1027h46v1h-46z M1413,1028h45v1h-45z M1533,1028h46v1h-46z M1413,1029h45v1h-45z M1533,1029h46v1h-46z M1413,1030h45v1h-45z M1533,1030h46v1h-46z M1413,1031h45v1h-45z M1533,1031h46v1h-46z M1413,1032h45v1h-45z M1533,1032h46v1h-46z M1413,1033h45v1h-45z M1533,1033h46v1h-46z M1413,1034h45v1h-45z M1533,1034h46v1h-46z M1413,1035h45v1h-45z M1533,1035h46v1h-46z M1413,1036h45v1h-45z M1533,1036h46v1h-46z M1413,1037h45v1h-45z M1533,1037h46v1h-46z M1413,1038h45v1h-45z M1533,1038h46v1h-46z M1413,1039h45v1h-45z M1533,1039h46v1h-46z M1413,1040h45v1h-45z M1533,1040h46v1h-46z M1413,1041h45v1h-45z M1533,1041h46v1h-46z M1413,1042h45v1h-45z M1533,1042h46v1h-46z M1413,1043h45v1h-45z M1533,1043h46v1h-46z M1413,1044h45v1h-45z M1533,1044h46v1h-46z M1413,1045h45v1h-45z M1533,1045h46v1h-46z M1413,1046h45v1h-45z M1533,1046h46v1h-46z M1413,1047h45v1h-45z M1533,1047h46v1h-46z M1413,1048h45v1h-45z M1533,1048h46v1h-46z M1413,1049h45v1h-45z M1533,1049h46v1h-46z M1413,1050h45v1h-45z M1533,1050h46v1h-46z M1413,1051h45v1h-45z M1533,1051h46v1h-46z M1413,1052h45v1h-45z M1533,1052h46v1h-46z M1413,1053h45v1h-45z M1533,1053h46v1h-46z M1413,1054h45v1h-45z M1533,1054h46v1h-46z M1413,1055h45v1h-45z M1533,1055h46v1h-46z M1413,1056h45v1h-45z M1533,1056h46v1h-46z M1413,1057h45v1h-45z M1533,1057h46v1h-46z M1413,1058h45v1h-45z M1533,1058h46v1h-46z M1413,1059h45v1h-45z M1533,1059h46v1h-46z M1413,1060h45v1h-45z M1533,1060h46v1h-46z M1413,1061h45v1h-45z M1533,1061h46v1h-46z M1413,1062h45v1h-45z M1533,1062h46v1h-46z M1413,1063h45v1h-45z M1533,1063h46v1h-46z M1413,1064h45v1h-45z M1533,1064h46v1h-46z M1413,1065h45v1h-45z M1533,1065h46v1h-46z M1413,1066h45v1h-45z M1533,1066h46v1h-46z M1413,1067h45v1h-45z M1533,1067h46v1h-46z M1413,1068h45v1h-45z M1533,1068h46v1h-46z M1413,1069h45v1h-45z M1533,1069h46v1h-46z M1413,1070h45v1h-45z M1533,1070h46v1h-46z M1413,1071h45v1h-45z M1533,1071h46v1h-46z M1413,1072h45v1h-45z M1533,1072h46v1h-46z M1413,1073h45v1h-45z M1533,1073h46v1h-46z M1413,1074h45v1h-45z M1533,1074h46v1h-46z M1413,1075h45v1h-45z M1533,1075h46v1h-46z M1413,1076h45v1h-45z M1533,1076h46v1h-46z M1413,1077h45v1h-45z M1533,1077h46v1h-46z M1413,1078h45v1h-45z M1533,1078h46v1h-46z M1413,1079h45v1h-45z M1533,1079h46v1h-46z M1413,1080h45v1h-45z M1533,1080h46v1h-46z M1413,1081h45v1h-45z M1533,1081h46v1h-46z M1413,1082h45v1h-45z M1533,1082h46v1h-46z M1413,1083h45v1h-45z M1533,1083h45v1h-45z"/>
<path d="M1681,891h24v1h-24z M1675,892h36v1h-36z M1670,893h46v1h-46z M1666,894h54v1h-54z M1663,895h60v1h-60z M1660,896h66v1h-66z M1658,897h71v1h-71z M1655,898h76v1h-76z M1653,899h81v1h-81z M1651,900h85v1h-85z M1649,901h89v1h-89z M1647,902h93v1h-93z M1645,903h97v1h-97z M1643,904h101v1h-101z M1642,905h104v1h-104z M1640,906h107v1h-107z M1638,907h111v1h-111z M1637,908h113v1h-113z M1636,909h116v1h-116z M1634,910h119v1h-119z M1633,911h121v1h-121z M1632,912h124v1h-124z M1630,913h127v1h-127z M1629,914h129v1h-129z M1628,915h131v1h-131z M1627,916h133v1h-133z M1626,917h135v1h-135z M1625,918h137v1h-137z M1624,919h139v1h-139z M1623,920h141v1h-141z M1622,921h143v1h-143z M1621,922h145v1h-145z M1620,923h147v1h-147z M1619,924h149v1h-149z M1618,925h151v1h-151z M1617,926h153v1h-153z M1616,927h154v1h-154z M1616,928h155v1h-155z M1615,929h157v1h-157z M1614,930h159v1h-159z M1613,931h160v1h-160z M1613,932h77v1h-77z M1697,932h77v1h-77z M1612,933h70v1h-70z M1704,933h71v1h-71z M1611,934h67v1h-67z M1708,934h67v1h-67z M1610,935h65v1h-65z M1711,935h65v1h-65z M1610,936h62v1h-62z M1714,936h63v1h-63z M1609,937h61v1h-61z M1716,937h61v1h-61z M1609,938h59v1h-59z M1717,938h61v1h-61z M1608,939h58v1h-58z M1719,939h59v1h-59z M1607,940h58v1h-58z M1720,940h59v1h-59z M1607,941h56v1h-56z M1722,941h57v1h-57z M1606,942h56v1h-56z M1723,942h57v1h-57z M1606,943h54v1h-54z M1724,943h56v1h-56z M1605,944h54v1h-54z M1725,944h56v1h-56z M1605,945h53v1h-53z M1726,945h55v1h-55z M1604,946h53v1h-53z M1727,946h55v1h-55z M1604,947h52v1h-52z M1728,947h54v1h-54z M1603,948h52v1h-52z M1729,948h54v1h-54z M1603,949h51v1h-51z M1730,949h53v1h-53z M1602,950h51v1h-51z M1730,950h54v1h-54z M1602,951h50v1h-50z M1731,951h53v1h-53z M1602,952h50v1h-50z M1732,952h53v1h-53z M1601,953h50v1h-50z M1733,953h52v1h-52z M1601,954h49v1h-49z M1733,954h52v1h-52z M1600,955h49v1h-49z M1734,955h52v1h-52z M1600,956h49v1h-49z M1734,956h52v1h-52z M1600,957h48v1h-48z M1735,957h51v1h-51z M1599,958h48v1h-48z M1736,958h51v1h-51z M1599,959h48v1h-48z M1599,960h47v1h-47z M1598,961h48v1h-48z M1598,962h47v1h-47z M1598,963h47v1h-47z M1598,964h46v1h-46z M1597,965h47v1h-47z M1597,966h47v1h-47z M1597,967h46v1h-46z M1597,968h46v1h-46z M1596,969h47v1h-47z M1596,970h46v1h-46z M1596,971h46v1h-46z M1596,972h46v1h-46z M1596,973h46v1h-46z M1595,974h46v1h-46z M1595,975h46v1h-46z M1595,976h46v1h-46z M1595,977h46v1h-46z M1595,978h46v1h-46z M1595,979h45v1h-45z M1595,980h45v1h-45z M1595,981h45v1h-45z M1595,982h45v1h-45z M1595,983h45v1h-45z M1594,984h46v1h-46z M1594,985h46v1h-46z M1594,986h46v1h-46z M1594,987h46v1h-46z M1594,988h46v1h-46z M1594,989h46v1h-46z M1594,990h46v1h-46z M1594,991h46v1h-46z M1594,992h46v1h-46z M1594,993h46v1h-46z M1594,994h46v1h-46z M1595,995h45v1h-45z M1595,996h45v1h-45z M1595,997h45v1h-45z M1595,998h45v1h-45z M1595,999h45v1h-45z M1595,1000h45v1h-45z M1595,1001h46v1h-46z M1595,1002h46v1h-46z M1595,1003h46v1h-46z M1595,1004h46v1h-46z M1596,1005h45v1h-45z M1596,1006h46v1h-46z M1596,1007h46v1h-46z M1596,1008h46v1h-46z M1596,1009h47v1h-47z M1596,1010h47v1h-47z M1597,1011h46v1h-46z M1597,1012h47v1h-47z M1597,1013h47v1h-47z M1597,1014h47v1h-47z M1598,1015h47v1h-47z M1598,1016h47v1h-47z M1598,1017h48v1h-48z M1598,1018h48v1h-48z M1599,1019h48v1h-48z M1599,1020h48v1h-48z M1599,1021h49v1h-49z M1600,1022h48v1h-48z M1736,1022h51v1h-51z M1600,1023h49v1h-49z M1735,1023h52v1h-52z M1600,1024h50v1h-50z M1735,1024h51v1h-51z M1601,1025h49v1h-49z M1734,1025h52v1h-52z M1601,1026h50v1h-50z M1733,1026h52v1h-52z M1602,1027h50v1h-50z M1733,1027h52v1h-52z M1602,1028h51v1h-51z M1732,1028h53v1h-53z M1602,1029h52v1h-52z M1731,1029h53v1h-53z M1603,1030h51v1h-51z M1730,1030h54v1h-54z M1603,1031h52v1h-52z M1729,1031h54v1h-54z M1604,1032h52v1h-52z M1729,1032h54v1h-54z M1604,1033h53v1h-53z M1728,1033h54v1h-54z M1605,1034h53v1h-53z M1727,1034h55v1h-55z M1605,1035h55v1h-55z M1726,1035h55v1h-55z M1606,1036h55v1h-55z M1725,1036h56v1h-56z M1606,1037h56v1h-56z M1723,1037h57v1h-57z M1607,1038h56v1h-56z M1722,1038h58v1h-58z M1607,1039h58v1h-58z M1721,1039h58v1h-58z M1608,1040h59v1h-59z M1720,1040h59v1h-59z M1609,1041h59v1h-59z M1718,1041h60v1h-60z M1609,1042h61v1h-61z M1716,1042h62v1h-62z M1610,1043h62v1h-62z M1715,1043h62v1h-62z M1610,1044h65v1h-65z M1712,1044h64v1h-64z M1611,1045h67v1h-67z M1710,1045h66v1h-66z M1612,1046h69v1h-69z M1707,1046h68v1h-68z M1612,1047h75v1h-75z M1702,1047h72v1h-72z M1613,1048h161v1h-161z M1614,1049h159v1h-159z M1615,1050h157v1h-157z M1616,1051h156v1h-156z M1616,1052h155v1h-155z M1617,1053h153v1h-153z M1618,1054h151v1h-151z M1619,1055h149v1h-149z M1620,1056h148v1h-148z M1621,1057h146v1h-146z M1622,1058h144v1h-144z M1623,1059h142v1h-142z M1624,1060h140v1h-140z M1625,1061h138v1h-138z M1626,1062h136v1h-136z M1627,1063h134v1h-134z M1628,1064h132v1h-132z M1629,1065h130v1h-130z M1630,1066h128v1h-128z M1632,1067h125v1h-125z M1633,1068h122v1h-122z M1634,1069h120v1h-120z M1636,1070h117v1h-117z M1637,1071h114v1h-114z M1638,1072h112v1h-112z M1640,1073h108v1h-108z M1641,1074h106v1h-106z M1643,1075h102v1h-102z M1645,1076h99v1h-99z M1647,1077h95v1h-95z M1649,1078h91v1h-91z M1651,1079h87v1h-87z M1653,1080h83v1h-83z M1655,1081h79v1h-79z M1657,1082h75v1h-75z M1660,1083h69v1h-69z M1663,1084h63v1h-63z M1666,1085h57v1h-57z M1669,1086h50v1h-50z M1674,1087h41v1h-41z M1679,1088h31v1h-31z M1688,1089h12v1h-12z"/>
<path d="M361,897h48v1h-48z M473,897h36v1h-36z M574,897h48v1h-48z M361,898h48v1h-48z M473,898h37v1h-37z M573,898h49v1h-49z M361,899h49v1h-49z M473,899h37v1h-37z M573,899h48v1h-48z M362,900h48v1h-48z M472,900h38v1h-38z M573,900h48v1h-48z M362,901h48v1h-48z M472,901h38v1h-38z M572,901h48v1h-48z M362,902h48v1h-48z M472,902h39v1h-39z M572,902h48v1h-48z M363,903h48v1h-48z M472,903h39v1h-39z M572,903h48v1h-48z M363,904h48v1h-48z M471,904h40v1h-40z M572,904h47v1h-47z M364,905h47v1h-47z M471,905h41v1h-41z M571,905h48v1h-48z M364,906h48v1h-48z M471,906h41v1h-41z M571,906h48v1h-48z M364,907h48v1h-48z M470,907h42v1h-42z M571,907h47v1h-47z M365,908h47v1h-47z M470,908h42v1h-42z M570,908h48v1h-48z M365,909h48v1h-48z M470,909h43v1h-43z M570,909h48v1h-48z M365,910h48v1h-48z M470,910h43v1h-43z M570,910h47v1h-47z M366,911h47v1h-47z M469,911h44v1h-44z M569,911h48v1h-48z M366,912h47v1h-47z M469,912h44v1h-44z M569,912h47v1h-47z M366,913h48v1h-48z M469,913h45v1h-45z M569,913h47v1h-47z M367,914h47v1h-47z M469,914h45v1h-45z M568,914h48v1h-48z M367,915h47v1h-47z M468,915h46v1h-46z M568,915h47v1h-47z M368,916h47v1h-47z M468,916h46v1h-46z M568,916h47v1h-47z M368,917h47v1h-47z M468,917h47v1h-47z M568,917h47v1h-47z M368,918h47v1h-47z M468,918h47v1h-47z M567,918h47v1h-47z M369,919h47v1h-47z M467,919h48v1h-48z M567,919h47v1h-47z M369,920h47v1h-47z M467,920h49v1h-49z M567,920h47v1h-47z M369,921h47v1h-47z M467,921h49v1h-49z M566,921h47v1h-47z M370,922h46v1h-46z M466,922h50v1h-50z M566,922h47v1h-47z M370,923h47v1h-47z M466,923h50v1h-50z M566,923h46v1h-46z M370,924h47v1h-47z M466,924h51v1h-51z M565,924h47v1h-47z M371,925h46v1h-46z M466,925h51v1h-51z M565,925h47v1h-47z M371,926h47v1h-47z M465,926h52v1h-52z M565,926h46v1h-46z M371,927h47v1h-47z M465,927h52v1h-52z M565,927h46v1h-46z M372,928h46v1h-46z M465,928h53v1h-53z M564,928h47v1h-47z M372,929h47v1h-47z M465,929h53v1h-53z M564,929h46v1h-46z M373,930h46v1h-46z M464,930h54v1h-54z M564,930h46v1h-46z M373,931h46v1h-46z M464,931h54v1h-54z M563,931h46v1h-46z M373,932h46v1h-46z M464,932h55v1h-55z M563,932h46v1h-46z M374,933h46v1h-46z M463,933h56v1h-56z M563,933h46v1h-46z M374,934h46v1h-46z M463,934h56v1h-56z M562,934h46v1h-46z M374,935h46v1h-46z M463,935h57v1h-57z M562,935h46v1h-46z M375,936h46v1h-46z M463,936h57v1h-57z M562,936h46v1h-46z M375,937h46v1h-46z M462,937h58v1h-58z M562,937h45v1h-45z M375,938h46v1h-46z M462,938h58v1h-58z M561,938h46v1h-46z M376,939h46v1h-46z M462,939h59v1h-59z M561,939h46v1h-46z M376,940h46v1h-46z M462,940h59v1h-59z M561,940h45v1h-45z M377,941h45v1h-45z M461,941h60v1h-60z M560,941h46v1h-46z M377,942h45v1h-45z M461,942h60v1h-60z M560,942h45v1h-45z M377,943h46v1h-46z M461,943h61v1h-61z M560,943h45v1h-45z M378,944h45v1h-45z M461,944h61v1h-61z M559,944h46v1h-46z M378,945h45v1h-45z M460,945h62v1h-62z M559,945h45v1h-45z M378,946h46v1h-46z M460,946h62v1h-62z M559,946h45v1h-45z M379,947h45v1h-45z M460,947h63v1h-63z M559,947h45v1h-45z M379,948h45v1h-45z M459,948h64v1h-64z M558,948h45v1h-45z M379,949h45v1h-45z M459,949h64v1h-64z M558,949h45v1h-45z M380,950h45v1h-45z M459,950h64v1h-64z M558,950h45v1h-45z M380,951h45v1h-45z M459,951h65v1h-65z M557,951h45v1h-45z M381,952h44v1h-44z M458,952h66v1h-66z M557,952h45v1h-45z M381,953h45v1h-45z M458,953h66v1h-66z M557,953h44v1h-44z M381,954h45v1h-45z M458,954h67v1h-67z M556,954h45v1h-45z M382,955h44v1h-44z M458,955h67v1h-67z M556,955h45v1h-45z M382,956h45v1h-45z M457,956h68v1h-68z M556,956h44v1h-44z M382,957h45v1h-45z M457,957h68v1h-68z M556,957h44v1h-44z M383,958h44v1h-44z M457,958h69v1h-69z M555,958h45v1h-45z M383,959h44v1h-44z M457,959h69v1h-69z M555,959h44v1h-44z M383,960h45v1h-45z M456,960h70v1h-70z M555,960h44v1h-44z M384,961h44v1h-44z M456,961h70v1h-70z M554,961h45v1h-45z M384,962h44v1h-44z M456,962h71v1h-71z M554,962h44v1h-44z M384,963h45v1h-45z M455,963h72v1h-72z M554,963h44v1h-44z M385,964h44v1h-44z M455,964h72v1h-72z M553,964h44v1h-44z M385,965h44v1h-44z M455,965h35v1h-35z M492,965h35v1h-35z M553,965h44v1h-44z M386,966h44v1h-44z M455,966h35v1h-35z M492,966h36v1h-36z M553,966h44v1h-44z M386,967h44v1h-44z M454,967h36v1h-36z M492,967h36v1h-36z M553,967h43v1h-43z M386,968h44v1h-44z M454,968h35v1h-35z M493,968h35v1h-35z M552,968h44v1h-44z M387,969h43v1h-43z M454,969h35v1h-35z M493,969h36v1h-36z M552,969h44v1h-44z M387,970h44v1h-44z M454,970h35v1h-35z M493,970h36v1h-36z M552,970h43v1h-43z M387,971h44v1h-44z M453,971h35v1h-35z M493,971h36v1h-36z M551,971h44v1h-44z M388,972h43v1h-43z M453,972h35v1h-35z M494,972h35v1h-35z M551,972h43v1h-43z M388,973h44v1h-44z M453,973h35v1h-35z M494,973h36v1h-36z M551,973h43v1h-43z M388,974h44v1h-44z M452,974h36v1h-36z M494,974h36v1h-36z M550,974h44v1h-44z M389,975h43v1h-43z M452,975h35v1h-35z M495,975h35v1h-35z M550,975h43v1h-43z M389,976h44v1h-44z M452,976h35v1h-35z M495,976h35v1h-35z M550,976h43v1h-43z M390,977h43v1h-43z M452,977h35v1h-35z M495,977h36v1h-36z M550,977h43v1h-43z M390,978h43v1h-43z M451,978h35v1h-35z M495,978h36v1h-36z M549,978h43v1h-43z M390,979h43v1h-43z M451,979h35v1h-35z M496,979h35v1h-35z M549,979h43v1h-43z M391,980h43v1h-43z M451,980h35v1h-35z M496,980h35v1h-35z M549,980h43v1h-43z M391,981h43v1h-43z M451,981h35v1h-35z M496,981h36v1h-36z M548,981h43v1h-43z M391,982h43v1h-43z M450,982h35v1h-35z M497,982h35v1h-35z M548,982h43v1h-43z M392,983h43v1h-43z M450,983h35v1h-35z M497,983h35v1h-35z M548,983h42v1h-42z M392,984h43v1h-43z M450,984h35v1h-35z M497,984h36v1h-36z M547,984h43v1h-43z M392,985h43v1h-43z M450,985h34v1h-34z M497,985h36v1h-36z M547,985h43v1h-43z M393,986h43v1h-43z M449,986h35v1h-35z M498,986h35v1h-35z M547,986h42v1h-42z M393,987h43v1h-43z M449,987h35v1h-35z M498,987h35v1h-35z M547,987h42v1h-42z M393,988h43v1h-43z M449,988h35v1h-35z M498,988h36v1h-36z M546,988h43v1h-43z M394,989h42v1h-42z M448,989h35v1h-35z M499,989h35v1h-35z M546,989h42v1h-42z M394,990h43v1h-43z M448,990h35v1h-35z M499,990h35v1h-35z M546,990h42v1h-42z M395,991h42v1h-42z M448,991h35v1h-35z M499,991h35v1h-35z M545,991h43v1h-43z M395,992h42v1h-42z M448,992h34v1h-34z M499,992h36v1h-36z M545,992h42v1h-42z M395,993h43v1h-43z M447,993h35v1h-35z M500,993h35v1h-35z M545,993h42v1h-42z M396,994h42v1h-42z M447,994h35v1h-35z M500,994h35v1h-35z M544,994h42v1h-42z M396,995h42v1h-42z M447,995h34v1h-34z M500,995h35v1h-35z M544,995h42v1h-42z M396,996h42v1h-42z M447,996h34v1h-34z M501,996h35v1h-35z M544,996h42v1h-42z M397,997h42v1h-42z M446,997h35v1h-35z M501,997h35v1h-35z M544,997h41v1h-41z M397,998h42v1h-42z M446,998h35v1h-35z M501,998h35v1h-35z M543,998h42v1h-42z M397,999h42v1h-42z M446,999h34v1h-34z M502,999h35v1h-35z M543,999h42v1h-42z M398,1000h42v1h-42z M446,1000h34v1h-34z M502,1000h35v1h-35z M543,1000h41v1h-41z M398,1001h42v1h-42z M445,1001h35v1h-35z M502,1001h35v1h-35z M542,1001h42v1h-42z M399,1002h41v1h-41z M445,1002h34v1h-34z M502,1002h35v1h-35z M542,1002h42v1h-42z M399,1003h42v1h-42z M445,1003h34v1h-34z M503,1003h35v1h-35z M542,1003h41v1h-41z M399,1004h42v1h-42z M444,1004h35v1h-35z M503,1004h35v1h-35z M541,1004h42v1h-42z M400,1005h41v1h-41z M444,1005h35v1h-35z M503,1005h35v1h-35z M541,1005h41v1h-41z M400,1006h41v1h-41z M444,1006h34v1h-34z M504,1006h34v1h-34z M541,1006h41v1h-41z M400,1007h42v1h-42z M444,1007h34v1h-34z M504,1007h35v1h-35z M540,1007h42v1h-42z M401,1008h41v1h-41z M443,1008h35v1h-35z M504,1008h35v1h-35z M540,1008h41v1h-41z M401,1009h41v1h-41z M443,1009h34v1h-34z M504,1009h35v1h-35z M540,1009h41v1h-41z M401,1010h76v1h-76z M505,1010h76v1h-76z M402,1011h75v1h-75z M505,1011h75v1h-75z M402,1012h75v1h-75z M505,1012h75v1h-75z M402,1013h74v1h-74z M506,1013h73v1h-73z M403,1014h73v1h-73z M506,1014h73v1h-73z M403,1015h73v1h-73z M506,1015h73v1h-73z M404,1016h71v1h-71z M506,1016h72v1h-72z M404,1017h71v1h-71z M507,1017h71v1h-71z M404,1018h71v1h-71z M507,1018h71v1h-71z M405,1019h69v1h-69z M507,1019h70v1h-70z M405,1020h69v1h-69z M508,1020h69v1h-69z M405,1021h69v1h-69z M508,1021h69v1h-69z M406,1022h68v1h-68z M508,1022h68v1h-68z M406,1023h67v1h-67z M508,1023h68v1h-68z M406,1024h67v1h-67z M509,1024h66v1h-66z M407,1025h66v1h-66z M509,1025h66v1h-66z M407,1026h65v1h-65z M509,1026h66v1h-66z M408,1027h64v1h-64z M510,1027h64v1h-64z M408,1028h64v1h-64z M510,1028h64v1h-64z M408,1029h64v1h-64z M510,1029h64v1h-64z M409,1030h62v1h-62z M510,1030h63v1h-63z M409,1031h62v1h-62z M511,1031h62v1h-62z M409,1032h62v1h-62z M511,1032h62v1h-62z M410,1033h60v1h-60z M511,1033h61v1h-61z M410,1034h60v1h-60z M512,1034h60v1h-60z M410,1035h60v1h-60z M512,1035h59v1h-59z M411,1036h58v1h-58z M512,1036h59v1h-59z M411,1037h58v1h-58z M513,1037h58v1h-58z M412,1038h57v1h-57z M513,1038h57v1h-57z M412,1039h57v1h-57z M513,1039h57v1h-57z M412,1040h56v1h-56z M513,1040h57v1h-57z M413,1041h55v1h-55z M514,1041h55v1h-55z M413,1042h55v1h-55z M514,1042h55v1h-55z M413,1043h54v1h-54z M514,1043h55v1h-55z M414,1044h53v1h-53z M515,1044h53v1h-53z M414,1045h53v1h-53z M515,1045h53v1h-53z M414,1046h53v1h-53z M515,1046h52v1h-52z M415,1047h51v1h-51z M515,1047h52v1h-52z M415,1048h51v1h-51z M516,1048h51v1h-51z M415,1049h51v1h-51z M516,1049h50v1h-50z M416,1050h49v1h-49z M516,1050h50v1h-50z M416,1051h49v1h-49z M517,1051h49v1h-49z M417,1052h48v1h-48z M517,1052h48v1h-48z M417,1053h48v1h-48z M517,1053h48v1h-48z M417,1054h47v1h-47z M517,1054h48v1h-48z M418,1055h46v1h-46z M518,1055h46v1h-46z M418,1056h46v1h-46z M518,1056h46v1h-46z M418,1057h45v1h-45z M518,1057h45v1h-45z M419,1058h44v1h-44z M519,1058h44v1h-44z M419,1059h44v1h-44z M519,1059h44v1h-44z M419,1060h43v1h-43z M519,1060h43v1h-43z M420,1061h42v1h-42z M519,1061h43v1h-43z M420,1062h42v1h-42z M520,1062h42v1h-42z M421,1063h41v1h-41z M520,1063h41v1h-41z M421,1064h40v1h-40z M520,1064h41v1h-41z M421,1065h40v1h-40z M521,1065h39v1h-39z M422,1066h39v1h-39z M521,1066h39v1h-39z M422,1067h38v1h-38z M521,1067h39v1h-39z M422,1068h38v1h-38z M521,1068h38v1h-38z M423,1069h37v1h-37z M522,1069h37v1h-37z M423,1070h37v1h-37z M522,1070h37v1h-37z M423,1071h36v1h-36z M522,1071h36v1h-36z M424,1072h35v1h-35z M523,1072h35v1h-35z M424,1073h35v1h-35z M523,1073h35v1h-35z M424,1074h34v1h-34z M523,1074h34v1h-34z M425,1075h33v1h-33z M524,1075h33v1h-33z M425,1076h33v1h-33z M524,1076h32v1h-32z M426,1077h32v1h-32z M524,1077h32v1h-32z M426,1078h31v1h-31z M524,1078h32v1h-32z M426,1079h31v1h-31z M525,1079h30v1h-30z M427,1080h30v1h-30z M525,1080h30v1h-30z M427,1081h29v1h-29z M525,1081h30v1h-30z M427,1082h29v1h-29z M526,1082h28v1h-28z M428,1083h28v1h-28z M526,1083h28v1h-28z"/>
  </g>
</svg>