<?xml version="1.0" encoding="UTF-8"?>
<svg xmlns="http://www.w3.org/2000/svg" viewBox="0 0 400 160" width="400" height="160">
  <g transform="translate(30.00,18.69) scale(0.179799)" fill="white">
<path d="M1883,0h3v1h-3z M1877,1h12v1h-12z M1873,2h17v1h-17z M1870,3h21v1h-21z M1866,4h25v1h-25z M1862,5h29v1h-29z M1859,6h31v1h-31z M1855,7h34v1h-34z M1851,8h37v1h-37z M1847,9h40v1h-40z M1844,10h42v1h-42z M1840,11h44v1h-44z M1836,12h46v1h-46z M1833,13h47v1h-47z M1829,14h49v1h-49z M1825,15h50v1h-50z M1822,16h51v1h-51z M1818,17h53v1h-53z M1814,18h54v1h-54z M1811,19h55v1h-55z M1807,20h57v1h-57z M1803,21h59v1h-59z M1799,22h60v1h-60z M1796,23h61v1h-61z M1792,24h63v1h-63z M1788,25h64v1h-64z M1785,26h65v1h-65z M1781,27h67v1h-67z M1777,28h68v1h-68z M1774,29h69v1h-69z M1770,30h71v1h-71z M241,31h1v1h-1z M1766,31h72v1h-72z M240,32h2v1h-2z M1763,32h73v1h-73z M240,33h1v1h-1z M1759,33h75v1h-75z M239,34h2v1h-2z M1755,34h77v1h-77z M238,35h2v1h-2z M1751,35h78v1h-78z M237,36h3v1h-3z M1748,36h79v1h-79z M236,37h3v1h-3z M1744,37h81v1h-81z M235,38h4v1h-4z M1740,38h82v1h-82z M234,39h4v1h-4z M1737,39h83v1h-83z M234,40h4v1h-4z M1733,40h85v1h-85z M233,41h4v1h-4z M1729,41h86v1h-86z M232,42h5v1h-5z M1726,42h87v1h-87z M231,43h5v1h-5z M1722,43h89v1h-89z M230,44h6v1h-6z M1718,44h91v1h-91z M229,45h7v1h-7z M1715,45h91v1h-91z M229,46h6v1h-6z M1711,46h93v1h-93z M228,47h7v1h-7z M1707,47h95v1h-95z M227,48h7v1h-7z M1703,48h96v1h-96z M226,49h8v1h-8z M1700,49h97v1h-97z M225,50h8v1h-8z M1696,50h99v1h-99z M224,51h9v1h-9z M1692,51h100v1h-100z M224,52h8v1h-8z M1689,52h101v1h-101z M223,53h9v1h-9z M1685,53h103v1h-103z M222,54h9v1h-9z M1681,54h104v1h-104z M221,55h10v1h-10z M1678,55h105v1h-105z M220,56h10v1h-10z M1674,56h107v1h-107z M219,57h11v1h-11z M1670,57h109v1h-109z M219,58h11v1h-11z M1667,58h109v1h-109z M218,59h11v1h-11z M1663,59h111v1h-111z M217,60h12v1h-12z M1659,60h113v1h-113z M216,61h12v1h-12z M1655,61h114v1h-114z M215,62h13v1h-13z M1652,62h115v1h-115z M215,63h12v1h-12z M1648,63h117v1h-117z M214,64h13v1h-13z M1644,64h118v1h-118z M213,65h14v1h-14z M1641,65h119v1h-119z M212,66h14v1h-14z M1637,66h121v1h-121z M211,67h15v1h-15z M1633,67h123v1h-123z M211,68h14v1h-14z M1630,68h123v1h-123z M210,69h15v1h-15z M1626,69h125v1h-125z M209,70h15v1h-15z M1622,70h127v1h-127z M208,71h16v1h-16z M1619,71h127v1h-127z M207,72h17v1h-17z M1615,72h129v1h-129z M206,73h17v1h-17z M1611,73h131v1h-131z M206,74h17v1h-17z M1607,74h132v1h-132z M205,75h17v1h-17z M1604,75h133v1h-133z M204,76h18v1h-18z M1600,76h135v1h-135z M203,77h19v1h-19z M1596,77h136v1h-136z M202,78h19v1h-19z M1593,78h137v1h-137z M202,79h19v1h-19z M1589,79h139v1h-139z M201,80h19v1h-19z M1585,80h141v1h-141z M200,81h20v1h-20z M1582,81h141v1h-141z M199,82h21v1h-21z M1578,82h143v1h-143z M199,83h20v1h-20z M1574,83h145v1h-145z M198,84h21v1h-21z M1571,84h145v1h-145z M197,85h21v1h-21z M1567,85h147v1h-147z M196,86h22v1h-22z M1563,86h149v1h-149z M195,87h23v1h-23z M1559,87h150v1h-150z M195,88h22v1h-22z M1556,88h151v1h-151z M194,89h23v1h-23z M1552,89h153v1h-153z M193,90h24v1h-24z M1548,90h155v1h-155z M192,91h24v1h-24z M1545,91h155v1h-155z M191,92h25v1h-25z M1541,92h157v1h-157z M191,93h24v1h-24z M1537,93h159v1h-159z M190,94h25v1h-25z M1534,94h159v1h-159z M189,95h26v1h-26z M1530,95h161v1h-161z M188,96h26v1h-26z M1526,96h163v1h-163z M188,97h26v1h-26z M1523,97h163v1h-163z M187,98h27v1h-27z M1519,98h165v1h-165z M186,99h27v1h-27z M1515,99h167v1h-167z M185,100h28v1h-28z M1511,100h168v1h-168z M184,101h29v1h-29z M1508,101h169v1h-169z M184,102h28v1h-28z M1504,102h171v1h-171z M183,103h29v1h-29z M1500,103h173v1h-173z M182,104h30v1h-30z M1497,104h173v1h-173z M181,105h30v1h-30z M1493,105h175v1h-175z M181,106h30v1h-30z M1489,106h177v1h-177z M180,107h31v1h-31z M1486,107h177v1h-177z M179,108h31v1h-31z M1482,108h179v1h-179z M178,109h32v1h-32z M1478,109h181v1h-181z M178,110h32v1h-32z M1475,110h181v1h-181z M177,111h32v1h-32z M1471,111h183v1h-183z M176,112h33v1h-33z M1467,112h185v1h-185z M175,113h34v1h-34z M1463,113h186v1h-186z M174,114h34v1h-34z M1460,114h187v1h-187z M174,115h34v1h-34z M1456,115h189v1h-189z M173,116h35v1h-35z M1452,116h191v1h-191z M172,117h35v1h-35z M1449,117h191v1h-191z M171,118h36v1h-36z M1445,118h193v1h-193z M171,119h36v1h-36z M1441,119h195v1h-195z M170,120h37v1h-37z M1438,120h195v1h-195z M169,121h37v1h-37z M1434,121h197v1h-197z M168,122h38v1h-38z M1430,122h199v1h-199z M168,123h38v1h-38z M1427,123h199v1h-199z M167,124h38v1h-38z M1423,124h201v1h-201z M166,125h39v1h-39z M1419,125h203v1h-203z M165,126h40v1h-40z M1415,126h204v1h-204z M165,127h40v1h-40z M1412,127h205v1h-205z M164,128h40v1h-40z M1408,128h207v1h-207z M163,129h41v1h-41z M1404,129h209v1h-209z M162,130h42v1h-42z M1401,130h209v1h-209z M162,131h42v1h-42z M1397,131h211v1h-211z M161,132h42v1h-42z M1393,132h213v1h-213z M160,133h43v1h-43z M1390,133h213v1h-213z M160,134h43v1h-43z M1386,134h215v1h-215z M159,135h43v1h-43z M1382,135h217v1h-217z M158,136h44v1h-44z M1379,136h217v1h-217z M157,137h45v1h-45z M1375,137h219v1h-219z M157,138h45v1h-45z M1371,138h221v1h-221z M156,139h45v1h-45z M1367,139h222v1h-222z M155,140h46v1h-46z M1364,140h223v1h-223z M154,141h47v1h-47z M1360,141h225v1h-225z M154,142h47v1h-47z M1356,142h227v1h-227z M153,143h48v1h-48z M1353,143h227v1h-227z M152,144h48v1h-48z M1349,144h229v1h-229z M151,145h49v1h-49z M1345,145h231v1h-231z M151,146h49v1h-49z M1342,146h231v1h-231z M150,147h50v1h-50z M1338,147h233v1h-233z M149,148h50v1h-50z M1334,148h235v1h-235z M149,149h50v1h-50z M1331,149h235v1h-235z M148,150h51v1h-51z M1327,150h237v1h-237z M147,151h52v1h-52z M1323,151h239v1h-239z M146,152h53v1h-53z M1319,152h240v1h-240z M146,153h52v1h-52z M1316,153h241v1h-241z M145,154h53v1h-53z M1312,154h243v1h-243z M144,155h54v1h-54z M1308,155h245v1h-245z M144,156h54v1h-54z M1305,156h245v1h-245z M143,157h55v1h-55z M1301,157h247v1h-247z M142,158h55v1h-55z M1297,158h249v1h-249z M141,159h56v1h-56z M1294,159h249v1h-249z M141,160h56v1h-56z M1290,160h251v1h-251z M140,161h57v1h-57z M1286,161h253v1h-253z M139,162h58v1h-58z M1283,162h253v1h-253z M139,163h58v1h-58z M1279,163h255v1h-255z M138,164h58v1h-58z M1275,164h257v1h-257z M137,165h59v1h-59z M1271,165h258v1h-258z M137,166h59v1h-59z M1268,166h259v1h-259z M136,167h60v1h-60z M1264,167h261v1h-261z M135,168h61v1h-61z M1260,168h263v1h-263z M135,169h61v1h-61z M1257,169h263v1h-263z M134,170h61v1h-61z M1253,170h265v1h-265z M133,171h62v1h-62z M1249,171h267v1h-267z M132,172h63v1h-63z M1246,172h267v1h-267z M132,173h63v1h-63z M1242,173h269v1h-269z M131,174h64v1h-64z M1238,174h271v1h-271z M130,175h65v1h-65z M1235,175h271v1h-271z M130,176h65v1h-65z M1231,176h273v1h-273z M129,177h65v1h-65z M1227,177h275v1h-275z M128,178h66v1h-66z M1223,178h276v1h-276z M128,179h66v1h-66z M1220,179h277v1h-277z M127,180h67v1h-67z M1216,180h279v1h-279z M126,181h68v1h-68z M1212,181h281v1h-281z M126,182h68v1h-68z M1209,182h281v1h-281z M125,183h69v1h-69z M1205,183h283v1h-283z M124,184h70v1h-70z M1201,184h285v1h-285z M124,185h70v1h-70z M1198,185h285v1h-285z M123,186h71v1h-71z M1194,186h287v1h-287z M122,187h71v1h-71z M1190,187h289v1h-289z M122,188h71v1h-71z M1187,188h289v1h-289z M121,189h72v1h-72z M1183,189h291v1h-291z M120,190h73v1h-73z M1179,190h293v1h-293z M120,191h73v1h-73z M1175,191h294v1h-294z M119,192h74v1h-74z M1172,192h295v1h-295z M118,193h75v1h-75z M1168,193h297v1h-297z M118,194h75v1h-75z M1164,194h299v1h-299z M117,195h76v1h-76z M1161,195h299v1h-299z M116,196h77v1h-77z M1157,196h301v1h-301z M116,197h77v1h-77z M1153,197h303v1h-303z M115,198h78v1h-78z M1150,198h303v1h-303z M114,199h79v1h-79z M1146,199h305v1h-305z M114,200h79v1h-79z M1142,200h307v1h-307z M113,201h80v1h-80z M1139,201h307v1h-307z M112,202h81v1h-81z M1135,202h309v1h-309z M112,203h81v1h-81z M1131,203h311v1h-311z M111,204h81v1h-81z M1128,204h311v1h-311z M110,205h82v1h-82z M1124,205h313v1h-313z M110,206h82v1h-82z M1120,206h315v1h-315z M109,207h83v1h-83z M1116,207h317v1h-317z M108,208h84v1h-84z M1113,208h317v1h-317z M108,209h84v1h-84z M1109,209h319v1h-319z M107,210h85v1h-85z M1105,210h321v1h-321z M106,211h86v1h-86z M1102,211h321v1h-321z M106,212h86v1h-86z M1098,212h323v1h-323z M105,213h87v1h-87z M1094,213h325v1h-325z M105,214h87v1h-87z M1091,214h325v1h-325z M104,215h89v1h-89z M1087,215h327v1h-327z M103,216h90v1h-90z M1083,216h329v1h-329z M103,217h90v1h-90z M1080,217h329v1h-329z M102,218h91v1h-91z M1076,218h331v1h-331z M101,219h92v1h-92z M1072,219h333v1h-333z M101,220h92v1h-92z M1068,220h335v1h-335z M100,221h93v1h-93z M1065,221h335v1h-335z M100,222h93v1h-93z M1061,222h337v1h-337z M99,223h94v1h-94z M1057,223h339v1h-339z M98,224h95v1h-95z M1054,224h339v1h-339z M98,225h95v1h-95z M1050,225h341v1h-341z M97,226h96v1h-96z M1046,226h343v1h-343z M96,227h97v1h-97z M1043,227h343v1h-343z M96,228h97v1h-97z M1039,228h345v1h-345z M95,229h98v1h-98z M1035,229h347v1h-347z M95,230h98v1h-98z M1032,230h347v1h-347z M94,231h99v1h-99z M1028,231h349v1h-349z M93,232h100v1h-100z M1024,232h351v1h-351z M93,233h101v1h-101z M1020,233h353v1h-353z M92,234h102v1h-102z M1017,234h353v1h-353z M92,235h102v1h-102z M1013,235h355v1h-355z M91,236h103v1h-103z M1009,236h357v1h-357z M90,237h104v1h-104z M1006,237h357v1h-357z M90,238h104v1h-104z M1002,238h359v1h-359z M89,239h105v1h-105z M998,239h361v1h-361z M89,240h105v1h-105z M995,240h361v1h-361z M88,241h107v1h-107z M991,241h363v1h-363z M87,242h108v1h-108z M987,242h365v1h-365z M87,243h108v1h-108z M984,243h365v1h-365z M86,244h109v1h-109z M980,244h367v1h-367z M86,245h109v1h-109z M976,245h369v1h-369z M85,246h110v1h-110z M973,246h370v1h-370z M84,247h112v1h-112z M969,247h371v1h-371z M84,248h112v1h-112z M965,248h373v1h-373z M83,249h113v1h-113z M961,249h375v1h-375z M83,250h113v1h-113z M958,250h375v1h-375z M82,251h114v1h-114z M954,251h377v1h-377z M81,252h115v1h-115z M950,252h379v1h-379z M81,253h116v1h-116z M947,253h379v1h-379z M80,254h117v1h-117z M943,254h381v1h-381z M80,255h117v1h-117z M939,255h383v1h-383z M79,256h118v1h-118z M936,256h383v1h-383z M79,257h119v1h-119z M932,257h385v1h-385z M78,258h120v1h-120z M928,258h387v1h-387z M77,259h121v1h-121z M925,259h388v1h-388z M77,260h121v1h-121z M921,260h389v1h-389z M76,261h122v1h-122z M917,261h391v1h-391z M76,262h123v1h-123z M913,262h393v1h-393z M75,263h124v1h-124z M910,263h393v1h-393z M75,264h124v1h-124z M906,264h395v1h-395z M74,265h126v1h-126z M902,265h397v1h-397z M73,266h127v1h-127z M899,266h397v1h-397z M73,267h127v1h-127z M895,267h399v1h-399z M72,268h128v1h-128z M891,268h401v1h-401z M72,269h129v1h-129z M888,269h401v1h-401z M71,270h130v1h-130z M884,270h403v1h-403z M71,271h130v1h-130z M880,271h405v1h-405z M70,272h132v1h-132z M877,272h406v1h-406z M70,273h132v1h-132z M873,273h407v1h-407z M69,274h133v1h-133z M869,274h409v1h-409z M68,275h135v1h-135z M866,275h410v1h-410z M68,276h135v1h-135z M862,276h411v1h-411z M67,277h136v1h-136z M858,277h413v1h-413z M67,278h137v1h-137z M854,278h415v1h-415z M66,279h138v1h-138z M851,279h415v1h-415z M66,280h138v1h-138z M847,280h417v1h-417z M65,281h140v1h-140z M843,281h419v1h-419z M65,282h140v1h-140z M840,282h419v1h-419z M64,283h142v1h-142z M836,283h421v1h-421z M64,284h142v1h-142z M832,284h423v1h-423z M63,285h143v1h-143z M829,285h424v1h-424z M63,286h144v1h-144z M825,286h425v1h-425z M62,287h145v1h-145z M821,287h427v1h-427z M61,288h147v1h-147z M818,288h428v1h-428z M61,289h147v1h-147z M814,289h429v1h-429z M60,290h148v1h-148z M810,290h431v1h-431z M60,291h149v1h-149z M806,291h433v1h-433z M59,292h150v1h-150z M803,292h433v1h-433z M59,293h151v1h-151z M799,293h435v1h-435z M58,294h152v1h-152z M795,294h437v1h-437z M58,295h153v1h-153z M792,295h437v1h-437z M57,296h154v1h-154z M788,296h439v1h-439z M57,297h155v1h-155z M784,297h441v1h-441z M56,298h156v1h-156z M781,298h442v1h-442z M56,299h157v1h-157z M777,299h443v1h-443z M55,300h158v1h-158z M773,300h445v1h-445z M55,301h159v1h-159z M770,301h446v1h-446z M54,302h161v1h-161z M766,302h447v1h-447z M54,303h161v1h-161z M762,303h449v1h-449z M53,304h163v1h-163z M758,304h451v1h-451z M53,305h163v1h-163z M755,305h451v1h-451z M52,306h165v1h-165z M751,306h453v1h-453z M52,307h165v1h-165z M747,307h455v1h-455z M51,308h167v1h-167z M744,308h455v1h-455z M51,309h168v1h-168z M740,309h457v1h-457z M50,310h169v1h-169z M736,310h459v1h-459z M50,311h170v1h-170z M733,311h459v1h-459z M49,312h172v1h-172z M729,312h461v1h-461z M49,313h172v1h-172z M725,313h463v1h-463z M48,314h174v1h-174z M722,314h464v1h-464z M48,315h175v1h-175z M718,315h465v1h-465z M47,316h176v1h-176z M714,316h467v1h-467z M47,317h177v1h-177z M711,317h468v1h-468z M46,318h179v1h-179z M707,318h469v1h-469z M46,319h180v1h-180z M703,319h471v1h-471z M46,320h180v1h-180z M699,320h473v1h-473z M45,321h182v1h-182z M696,321h473v1h-473z M45,322h183v1h-183z M692,322h475v1h-475z M44,323h185v1h-185z M688,323h477v1h-477z M44,324h185v1h-185z M685,324h477v1h-477z M43,325h187v1h-187z M681,325h479v1h-479z M43,326h188v1h-188z M677,326h481v1h-481z M42,327h190v1h-190z M674,327h481v1h-481z M42,328h191v1h-191z M670,328h483v1h-483z M41,329h192v1h-192z M666,329h485v1h-485z M41,330h193v1h-193z M663,330h486v1h-486z M40,331h195v1h-195z M659,331h487v1h-487z M40,332h196v1h-196z M655,332h489v1h-489z M40,333h197v1h-197z M651,333h491v1h-491z M39,334h199v1h-199z M648,334h491v1h-491z M39,335h200v1h-200z M644,335h493v1h-493z M38,336h202v1h-202z M640,336h495v1h-495z M38,337h203v1h-203z M637,337h495v1h-495z M37,338h205v1h-205z M633,338h497v1h-497z M37,339h206v1h-206z M629,339h499v1h-499z M36,340h208v1h-208z M626,340h499v1h-499z M36,341h209v1h-209z M622,341h501v1h-501z M36,342h210v1h-210z M618,342h503v1h-503z M35,343h212v1h-212z M615,343h503v1h-503z M35,344h214v1h-214z M611,344h505v1h-505z M34,345h216v1h-216z M607,345h507v1h-507z M34,346h217v1h-217z M604,346h508v1h-508z M33,347h219v1h-219z M600,347h509v1h-509z M33,348h220v1h-220z M596,348h511v1h-511z M33,349h222v1h-222z M592,349h513v1h-513z M32,350h224v1h-224z M589,350h513v1h-513z M32,351h225v1h-225z M585,351h515v1h-515z M31,352h227v1h-227z M581,352h517v1h-517z M31,353h229v1h-229z M578,353h517v1h-517z M31,354h230v1h-230z M574,354h519v1h-519z M30,355h233v1h-233z M570,355h521v1h-521z M30,356h234v1h-234z M567,356h521v1h-521z M29,357h236v1h-236z M563,357h523v1h-523z M29,358h238v1h-238z M559,358h525v1h-525z M29,359h239v1h-239z M555,359h526v1h-526z M28,360h242v1h-242z M552,360h527v1h-527z M28,361h244v1h-244z M548,361h529v1h-529z M27,362h246v1h-246z M544,362h530v1h-530z M27,363h248v1h-248z M541,363h531v1h-531z M27,364h250v1h-250z M537,364h533v1h-533z M26,365h252v1h-252z M533,365h535v1h-535z M26,366h254v1h-254z M530,366h535v1h-535z M25,367h257v1h-257z M526,367h537v1h-537z M25,368h259v1h-259z M522,368h539v1h-539z M25,369h261v1h-261z M519,369h539v1h-539z M24,370h264v1h-264z M515,370h541v1h-541z M24,371h266v1h-266z M511,371h543v1h-543z M24,372h268v1h-268z M508,372h543v1h-543z M23,373h272v1h-272z M504,373h545v1h-545z M23,374h274v1h-274z M500,374h547v1h-547z M23,375h276v1h-276z M496,375h548v1h-548z M22,376h280v1h-280z M493,376h549v1h-549z M22,377h282v1h-282z M489,377h551v1h-551z M21,378h286v1h-286z M485,378h552v1h-552z M21,379h289v1h-289z M482,379h553v1h-553z M21,380h292v1h-292z M478,380h555v1h-555z M20,381h296v1h-296z M474,381h557v1h-557z M20,382h299v1h-299z M470,382h558v1h-558z M20,383h302v1h-302z M467,383h559v1h-559z M19,384h307v1h-307z M463,384h561v1h-561z M19,385h311v1h-311z M458,385h563v1h-563z M19,386h315v1h-315z M454,386h565v1h-565z M18,387h321v1h-321z M448,387h569v1h-569z M18,388h326v1h-326z M443,388h571v1h-571z M18,389h332v1h-332z M437,389h575v1h-575z M17,390h339v1h-339z M429,390h581v1h-581z M17,391h348v1h-348z M420,391h587v1h-587z M17,392h361v1h-361z M406,392h599v1h-599z M16,393h987v1h-987z M16,394h984v1h-984z M16,395h982v1h-982z M16,396h980v1h-980z M15,397h979v1h-979z M15,398h976v1h-976z M15,399h974v1h-974z M14,400h973v1h-973z M14,401h970v1h-970z M14,402h968v1h-968z M13,403h967v1h-967z M13,404h964v1h-964z M13,405h962v1h-962z M13,406h960v1h-960z M12,407h958v1h-958z M12,408h956v1h-956z M12,409h954v1h-954z M11,410h952v1h-952z M11,411h950v1h-950z M11,412h948v1h-948z M11,413h945v1h-945z M10,414h944v1h-944z M10,415h942v1h-942z M10,416h940v1h-940z M10,417h937v1h-937z M9,418h936v1h-936z M9,419h934v1h-934z M9,420h931v1h-931z M9,421h929v1h-929z M8,422h928v1h-928z M8,423h925v1h-925z M8,424h923v1h-923z M8,425h921v1h-921z M7,426h919v1h-919z M7,427h917v1h-917z M7,428h915v1h-915z M7,429h912v1h-912z M7,430h910v1h-910z M6,431h909v1h-909z M6,432h906v1h-906z M6,433h904v1h-904z M6,434h902v1h-902z M5,435h900v1h-900z M5,436h898v1h-898z M5,437h896v1h-896z M5,438h893v1h-893z M5,439h891v1h-891z M5,440h889v1h-889z M4,441h888v1h-888z M4,442h885v1h-885z M4,443h883v1h-883z M4,444h881v1h-881z M4,445h878v1h-878z M3,446h877v1h-877z M3,447h875v1h-875z M3,448h872v1h-872z M3,449h870v1h-870z M3,450h868v1h-868z M3,451h865v1h-865z M3,452h863v1h-863z M2,453h862v1h-862z M2,454h859v1h-859z M2,455h857v1h-857z M2,456h855v1h-855z M2,457h852v1h-852z M2,458h850v1h-850z M2,459h848v1h-848z M1,460h846v1h-846z M1,461h844v1h-844z M1,462h842v1h-842z M1,463h840v1h-840z M1,464h837v1h-837z M1,465h835v1h-835z M1,466h833v1h-833z M1,467h830v1h-830z M1,468h828v1h-828z M1,469h826v1h-826z M0,470h824v1h-824z M0,471h822v1h-822z M0,472h820v1h-820z M0,473h817v1h-817z M0,474h815v1h-815z M0,475h813v1h-813z M0,476h810v1h-810z M0,477h808v1h-808z M0,478h806v1h-806z M0,479h803v1h-803z M0,480h801v1h-801z M0,481h799v1h-799z M0,482h796v1h-796z M0,483h794v1h-794z M0,484h792v1h-792z M0,485h789v1h-789z M0,486h787v1h-787z M0,487h785v1h-785z M0,488h783v1h-783z M0,489h780v1h-780z M0,490h778v1h-778z M0,491h776v1h-776z M0,492h773v1h-773z M0,493h771v1h-771z M0,494h769v1h-769z M0,495h766v1h-766z M0,496h764v1h-764z M0,497h762v1h-762z M0,498h759v1h-759z M0,499h757v1h-757z M0,500h755v1h-755z M0,501h752v1h-752z M0,502h750v1h-750z M0,503h748v1h-748z M0,504h745v1h-745z M0,505h743v1h-743z M0,506h741v1h-741z M0,507h738v1h-738z M0,508h736v1h-736z M0,509h734v1h-734z M1,510h730v1h-730z M1,511h728v1h-728z M1,512h726v1h-726z M1,513h723v1h-723z M1,514h721v1h-721z M1,515h719v1h-719z M1,516h716v1h-716z M1,517h714v1h-714z M1,518h712v1h-712z M2,519h708v1h-708z M2,520h706v1h-706z M2,521h704v1h-704z M2,522h701v1h-701z M2,523h699v1h-699z M2,524h697v1h-697z M3,525h693v1h-693z M3,526h691v1h-691z M3,527h689v1h-689z M3,528h687v1h-687z M3,529h684v1h-684z M4,530h681v1h-681z M4,531h679v1h-679z M4,532h676v1h-676z M4,533h674v1h-674z M4,534h672v1h-672z M5,535h668v1h-668z M5,536h666v1h-666z M5,537h664v1h-664z M5,538h661v1h-661z M6,539h658v1h-658z M6,540h656v1h-656z M6,541h653v1h-653z M6,542h651v1h-651z M7,543h648v1h-648z M7,544h645v1h-645z M7,545h643v1h-643z M8,546h640v1h-640z M8,547h637v1h-637z M8,548h635v1h-635z M9,549h632v1h-632z M9,550h629v1h-629z M9,551h627v1h-627z M10,552h624v1h-624z M10,553h621v1h-621z M10,554h619v1h-619z M11,555h616v1h-616z M11,556h613v1h-613z M12,557h610v1h-610z M12,558h608v1h-608z M12,559h605v1h-605z M13,560h602v1h-602z M13,561h600v1h-600z M14,562h596v1h-596z M14,563h594v1h-594z M15,564h590v1h-590z M15,565h588v1h-588z M15,566h586v1h-586z M16,567h582v1h-582z M16,568h580v1h-580z M17,569h577v1h-577z M18,570h573v1h-573z M18,571h571v1h-571z M19,572h568v1h-568z M19,573h565v1h-565z M20,574h562v1h-562z M20,575h560v1h-560z M21,576h556v1h-556z M21,577h554v1h-554z M22,578h551v1h-551z M23,579h547v1h-547z M23,580h545v1h-545z M24,581h542v1h-542z M24,582h539v1h-539z M25,583h536v1h-536z M26,584h533v1h-533z M26,585h530v1h-530z M27,586h527v1h-527z M28,587h524v1h-524z M28,588h521v1h-521z M29,589h518v1h-518z M30,590h514v1h-514z M31,591h511v1h-511z M31,592h509v1h-509z M32,593h505v1h-505z M33,594h502v1h-502z M34,595h499v1h-499z M34,596h496v1h-496z M35,597h493v1h-493z M36,598h490v1h-490z M37,599h486v1h-486z M38,600h483v1h-483z M39,601h479v1h-479z M40,602h476v1h-476z M41,603h473v1h-473z M42,604h469v1h-469z M43,605h466v1h-466z M43,606h464v1h-464z M44,607h460v1h-460z M45,608h457v1h-457z M46,609h453v1h-453z M47,610h450v1h-450z M48,611h446v1h-446z M50,612h442v1h-442z M51,613h439v1h-439z M52,614h435v1h-435z M53,615h432v1h-432z M54,616h428v1h-428z M55,617h425v1h-425z M56,618h422v1h-422z M58,619h417v1h-417z M59,620h413v1h-413z M60,621h410v1h-410z M61,622h407v1h-407z M62,623h403v1h-403z M64,624h398v1h-398z M65,625h395v1h-395z M66,626h391v1h-391z M68,627h387v1h-387z M69,628h383v1h-383z M70,629h380v1h-380z M72,630h375v1h-375z M73,631h372v1h-372z M74,632h368v1h-368z M76,633h364v1h-364z M77,634h360v1h-360z M79,635h355v1h-355z M80,636h352v1h-352z M82,637h347v1h-347z M83,638h344v1h-344z M85,639h339v1h-339z M86,640h335v1h-335z M88,641h330v1h-330z M89,642h327v1h-327z M91,643h322v1h-322z M93,644h317v1h-317z M94,645h314v1h-314z M96,646h309v1h-309z M98,647h304v1h-304z M100,648h299v1h-299z M101,649h295v1h-295z M103,650h290v1h-290z M105,651h285v1h-285z M107,652h280v1h-280z M109,653h275v1h-275z M111,654h270v1h-270z M113,655h265v1h-265z M115,656h260v1h-260z M117,657h255v1h-255z M119,658h249v1h-249z M122,659h243v1h-243z M124,660h238v1h-238z M126,661h232v1h-232z M129,662h226v1h-226z M131,663h220v1h-220z M134,664h214v1h-214z M137,665h207v1h-207z M139,666h201v1h-201z M142,667h194v1h-194z M146,668h186v1h-186z M149,669h179v1h-179z M152,670h171v1h-171z M156,671h163v1h-163z M159,672h156v1h-156z M163,673h146v1h-146z M168,674h136v1h-136z M172,675h127v1h-127z M177,676h116v1h-116z M182,677h104v1h-104z M189,678h90v1h-90z M196,679h74v1h-74z M206,680h54v1h-54z M225,681h16v1h-16z"/>
  </g>
</svg>