<?xml version="1.0" encoding="UTF-8"?>
<svg xmlns="http://www.w3.org/2000/svg" viewBox="0 0 400 160" width="400" height="160">
  <g transform="translate(132.00,12.00) scale(0.340000)" fill="white">
<path d="M0,0h400v1h-400z M0,1h400v1h-400z M0,2h400v1h-400z M0,3h400v1h-400z M0,4h400v1h-400z M0,5h400v1h-400z M0,6h400v1h-400z M0,7h400v1h-400z M0,8h400v1h-400z M0,9h400v1h-400z M0,10h400v1h-400z M0,11h400v1h-400z M0,12h400v1h-400z M0,13h400v1h-400z M0,14h400v1h-400z M0,15h400v1h-400z M0,16h400v1h-400z M0,17h400v1h-400z M0,18h400v1h-400z M0,19h400v1h-400z M0,20h400v1h-400z M0,21h400v1h-400z M0,22h400v1h-400z M0,23h400v1h-400z M0,24h400v1h-400z M0,25h400v1h-400z M0,26h400v1h-400z M0,27h400v1h-400z M0,28h400v1h-400z M0,29h400v1h-400z M0,30h400v1h-400z M0,31h400v1h-400z M0,32h400v1h-400z M0,33h400v1h-400z M0,34h400v1h-400z M0,35h400v1h-400z M0,36h400v1h-400z M0,37h400v1h-400z M0,38h400v1h-400z M0,39h400v1h-400z M0,40h400v1h-400z M0,41h400v1h-400z M0,42h400v1h-400z M0,43h400v1h-400z M0,44h400v1h-400z M0,45h400v1h-400z M0,46h400v1h-400z M0,47h400v1h-400z M0,48h400v1h-400z M0,49h400v1h-400z M0,50h400v1h-400z M0,51h400v1h-400z M0,52h400v1h-400z M0,53h400v1h-400z M0,54h400v1h-400z M0,55h400v1h-400z M0,56h400v1h-400z M0,57h400v1h-400z M0,58h400v1h-400z M0,59h400v1h-400z M0,60h400v1h-400z M0,61h400v1h-400z M0,62h400v1h-400z M0,63h400v1h-400z M0,64h400v1h-400z M0,65h400v1h-400z M0,66h400v1h-400z M0,67h400v1h-400z M0,68h400v1h-400z M0,69h400v1h-400z M0,70h400v1h-400z M0,71h400v1h-400z M0,72h400v1h-400z M0,73h400v1h-400z M0,74h400v1h-400z M0,75h400v1h-400z M0,76h400v1h-400z M0,77h400v1h-400z M0,78h400v1h-400z M0,79h400v1h-400z M0,80h400v1h-400z M0,81h400v1h-400z M0,82h400v1h-400z M0,83h400v1h-400z M0,84h400v1h-400z M0,85h400v1h-400z M0,86h400v1h-400z M0,87h240v1h-240z M242,87h158v1h-158z M0,88h239v1h-239z M243,88h157v1h-157z M0,89h238v1h-238z M244,89h156v1h-156z M0,90h237v1h-237z M245,90h155v1h-155z M0,91h236v1h-236z M246,91h154v1h-154z M0,92h235v1h-235z M247,92h153v1h-153z M0,93h234v1h-234z M248,93h152v1h-152z M0,94h233v1h-233z M249,94h151v1h-151z M0,95h193v1h-193z M206,95h26v1h-26z M250,95h150v1h-150z M0,96h188v1h-188z M211,96h20v1h-20z M251,96h149v1h-149z M0,97h184v1h-184z M215,97h15v1h-15z M252,97h148v1h-148z M0,98h182v1h-182z M218,98h11v1h-11z M253,98h147v1h-147z M0,99h179v1h-179z M220,99h8v1h-8z M254,99h146v1h-146z M0,100h177v1h-177z M222,100h5v1h-5z M255,100h145v1h-145z M0,101h175v1h-175z M224,101h2v1h-2z M256,101h144v1h-144z M0,102h174v1h-174z M257,102h143v1h-143z M0,103h172v1h-172z M258,103h142v1h-142z M0,104h171v1h-171z M257,104h143v1h-143z M0,105h169v1h-169z M256,105h144v1h-144z M0,106h168v1h-168z M255,106h145v1h-145z M0,107h167v1h-167z M254,107h146v1h-146z M0,108h166v1h-166z M253,108h147v1h-147z M0,109h165v1h-165z M252,109h148v1h-148z M0,110h164v1h-164z M251,110h149v1h-149z M0,111h163v1h-163z M250,111h150v1h-150z M0,112h162v1h-162z M249,112h151v1h-151z M0,113h161v1h-161z M248,113h152v1h-152z M0,114h160v1h-160z M247,114h153v1h-153z M0,115h160v1h-160z M246,115h154v1h-154z M0,116h159v1h-159z M245,116h155v1h-155z M0,117h158v1h-158z M244,117h156v1h-156z M0,118h158v1h-158z M243,118h157v1h-157z M0,119h157v1h-157z M243,119h157v1h-157z M0,120h156v1h-156z M243,120h157v1h-157z M0,121h156v1h-156z M244,121h156v1h-156z M0,122h155v1h-155z M244,122h156v1h-156z M0,123h155v1h-155z M245,123h155v1h-155z M0,124h154v1h-154z M245,124h155v1h-155z M0,125h154v1h-154z M246,125h154v1h-154z M0,126h153v1h-153z M246,126h154v1h-154z M0,127h153v1h-153z M246,127h154v1h-154z M0,128h153v1h-153z M247,128h153v1h-153z M0,129h152v1h-152z M247,129h153v1h-153z M0,130h152v1h-152z M247,130h153v1h-153z M0,131h152v1h-152z M248,131h152v1h-152z M0,132h151v1h-151z M248,132h152v1h-152z M0,133h151v1h-151z M248,133h152v1h-152z M0,134h151v1h-151z M249,134h151v1h-151z M0,135h151v1h-151z M249,135h151v1h-151z M0,136h151v1h-151z M249,136h151v1h-151z M0,137h151v1h-151z M249,137h151v1h-151z M0,138h150v1h-150z M249,138h151v1h-151z M0,139h150v1h-150z M249,139h151v1h-151z M0,140h150v1h-150z M249,140h151v1h-151z M0,141h150v1h-150z M249,141h151v1h-151z M0,142h150v1h-150z M249,142h151v1h-151z M0,143h150v1h-150z M249,143h151v1h-151z M0,144h150v1h-150z M249,144h151v1h-151z M0,145h150v1h-150z M249,145h151v1h-151z M0,146h150v1h-150z M249,146h151v1h-151z M0,147h150v1h-150z M249,147h151v1h-151z M0,148h150v1h-150z M249,148h151v1h-151z M0,149h150v1h-150z M249,149h151v1h-151z M0,150h150v1h-150z M249,150h151v1h-151z M0,151h150v1h-150z M249,151h151v1h-151z M0,152h151v1h-151z M249,152h151v1h-151z M0,153h151v1h-151z M249,153h151v1h-151z M0,154h151v1h-151z M249,154h151v1h-151z M0,155h151v1h-151z M248,155h152v1h-152z M0,156h151v1h-151z M248,156h152v1h-152z M0,157h152v1h-152z M248,157h152v1h-152z M0,158h152v1h-152z M248,158h152v1h-152z M0,159h152v1h-152z M247,159h153v1h-153z M0,160h153v1h-153z M247,160h153v1h-153z M0,161h153v1h-153z M247,161h153v1h-153z M0,162h153v1h-153z M246,162h154v1h-154z M0,163h154v1h-154z M246,163h154v1h-154z M0,164h154v1h-154z M245,164h155v1h-155z M0,165h155v1h-155z M245,165h155v1h-155z M0,166h155v1h-155z M245,166h155v1h-155z M0,167h155v1h-155z M244,167h156v1h-156z M0,168h156v1h-156z M244,168h156v1h-156z M0,169h157v1h-157z M243,169h157v1h-157z M0,170h157v1h-157z M242,170h158v1h-158z M0,171h158v1h-158z M242,171h158v1h-158z M0,172h158v1h-158z M241,172h159v1h-159z M0,173h159v1h-159z M240,173h160v1h-160z M0,174h160v1h-160z M240,174h160v1h-160z M0,175h161v1h-161z M239,175h161v1h-161z M0,176h161v1h-161z M238,176h162v1h-162z M0,177h162v1h-162z M237,177h163v1h-163z M0,178h163v1h-163z M236,178h164v1h-164z M0,179h164v1h-164z M235,179h165v1h-165z M0,180h165v1h-165z M234,180h166v1h-166z M0,181h166v1h-166z M233,181h167v1h-167z M0,182h167v1h-167z M232,182h168v1h-168z M0,183h169v1h-169z M231,183h169v1h-169z M0,184h170v1h-170z M230,184h170v1h-170z M0,185h171v1h-171z M228,185h172v1h-172z M0,186h173v1h-173z M227,186h173v1h-173z M0,187h174v1h-174z M225,187h175v1h-175z M0,188h176v1h-176z M224,188h176v1h-176z M0,189h178v1h-178z M222,189h178v1h-178z M0,190h180v1h-180z M220,190h180v1h-180z M0,191h183v1h-183z M217,191h183v1h-183z M0,192h185v1h-185z M214,192h186v1h-186z M0,193h190v1h-190z M210,193h190v1h-190z M0,194h196v1h-196z M203,194h197v1h-197z M0,195h400v1h-400z M0,196h400v1h-400z M0,197h400v1h-400z M0,198h400v1h-400z M0,199h400v1h-400z M0,200h400v1h-400z M0,201h400v1h-400z M0,202h400v1h-400z M0,203h400v1h-400z M0,204h400v1h-400z M0,205h400v1h-400z M0,206h192v1h-192z M208,206h192v1h-192z M0,207h187v1h-187z M212,207h188v1h-188z M0,208h184v1h-184z M215,208h185v1h-185z M0,209h181v1h-181z M218,209h182v1h-182z M0,210h179v1h-179z M220,210h180v1h-180z M0,211h177v1h-177z M223,211h177v1h-177z M0,212h175v1h-175z M224,212h176v1h-176z M0,213h174v1h-174z M226,213h174v1h-174z M0,214h172v1h-172z M227,214h173v1h-173z M0,215h171v1h-171z M229,215h171v1h-171z M0,216h170v1h-170z M230,216h170v1h-170z M0,217h168v1h-168z M231,217h169v1h-169z M0,218h167v1h-167z M232,218h168v1h-168z M0,219h166v1h-166z M233,219h167v1h-167z M0,220h165v1h-165z M234,220h166v1h-166z M0,221h164v1h-164z M235,221h165v1h-165z M0,222h164v1h-164z M236,222h164v1h-164z M0,223h163v1h-163z M237,223h163v1h-163z M0,224h162v1h-162z M238,224h162v1h-162z M0,225h161v1h-161z M238,225h162v1h-162z M0,226h161v1h-161z M239,226h161v1h-161z M0,227h160v1h-160z M240,227h160v1h-160z M0,228h159v1h-159z M240,228h160v1h-160z M0,229h159v1h-159z M241,229h159v1h-159z M0,230h158v1h-158z M197,230h6v1h-6z M241,230h159v1h-159z M0,231h157v1h-157z M192,231h16v1h-16z M242,231h158v1h-158z M0,232h157v1h-157z M190,232h20v1h-20z M243,232h157v1h-157z M0,233h157v1h-157z M188,233h24v1h-24z M243,233h157v1h-157z M0,234h156v1h-156z M186,234h27v1h-27z M243,234h157v1h-157z M0,235h156v1h-156z M185,235h30v1h-30z M244,235h156v1h-156z M0,236h155v1h-155z M184,236h32v1h-32z M244,236h156v1h-156z M0,237h155v1h-155z M183,237h34v1h-34z M245,237h155v1h-155z M0,238h155v1h-155z M182,238h35v1h-35z M245,238h155v1h-155z M0,239h154v1h-154z M181,239h37v1h-37z M245,239h155v1h-155z M0,240h154v1h-154z M181,240h38v1h-38z M246,240h154v1h-154z M0,241h154v1h-154z M180,241h40v1h-40z M246,241h154v1h-154z M0,242h153v1h-153z M179,242h41v1h-41z M246,242h154v1h-154z M0,243h153v1h-153z M179,243h42v1h-42z M247,243h153v1h-153z M0,244h153v1h-153z M178,244h43v1h-43z M247,244h153v1h-153z M0,245h153v1h-153z M178,245h44v1h-44z M247,245h153v1h-153z M0,246h152v1h-152z M178,246h44v1h-44z M247,246h153v1h-153z M0,247h152v1h-152z M177,247h45v1h-45z M247,247h153v1h-153z M0,248h152v1h-152z M177,248h46v1h-46z M247,248h153v1h-153z M0,249h152v1h-152z M177,249h46v1h-46z M247,249h153v1h-153z M0,250h152v1h-152z M177,250h46v1h-46z M248,250h152v1h-152z M0,251h152v1h-152z M176,251h47v1h-47z M248,251h152v1h-152z M0,252h152v1h-152z M176,252h47v1h-47z M248,252h152v1h-152z M0,253h152v1h-152z M176,253h47v1h-47z M248,253h152v1h-152z M0,254h152v1h-152z M176,254h47v1h-47z M248,254h152v1h-152z M0,255h152v1h-152z M176,255h47v1h-47z M248,255h152v1h-152z M0,256h152v1h-152z M176,256h47v1h-47z M248,256h152v1h-152z M0,257h152v1h-152z M176,257h47v1h-47z M248,257h152v1h-152z M0,258h152v1h-152z M176,258h47v1h-47z M248,258h152v1h-152z M0,259h152v1h-152z M176,259h47v1h-47z M248,259h152v1h-152z M0,260h152v1h-152z M176,260h47v1h-47z M248,260h152v1h-152z M0,261h152v1h-152z M176,261h47v1h-47z M248,261h152v1h-152z M0,262h152v1h-152z M176,262h47v1h-47z M248,262h152v1h-152z M0,263h152v1h-152z M176,263h47v1h-47z M248,263h152v1h-152z M0,264h152v1h-152z M176,264h47v1h-47z M248,264h152v1h-152z M0,265h152v1h-152z M176,265h47v1h-47z M248,265h152v1h-152z M0,266h152v1h-152z M176,266h47v1h-47z M248,266h152v1h-152z M0,267h152v1h-152z M176,267h47v1h-47z M248,267h152v1h-152z M0,268h152v1h-152z M176,268h47v1h-47z M248,268h152v1h-152z M0,269h152v1h-152z M176,269h47v1h-47z M248,269h152v1h-152z M0,270h152v1h-152z M176,270h47v1h-47z M248,270h152v1h-152z M0,271h152v1h-152z M176,271h47v1h-47z M248,271h152v1h-152z M0,272h152v1h-152z M176,272h47v1h-47z M248,272h152v1h-152z M0,273h152v1h-152z M176,273h47v1h-47z M248,273h152v1h-152z M0,274h152v1h-152z M176,274h47v1h-47z M248,274h152v1h-152z M0,275h152v1h-152z M176,275h47v1h-47z M248,275h152v1h-152z M0,276h152v1h-152z M176,276h47v1h-47z M248,276h152v1h-152z M0,277h152v1h-152z M176,277h47v1h-47z M248,277h152v1h-152z M0,278h152v1h-152z M176,278h47v1h-47z M248,278h152v1h-152z M0,279h152v1h-152z M176,279h47v1h-47z M248,279h152v1h-152z M0,280h152v1h-152z M176,280h47v1h-47z M248,280h152v1h-152z M0,281h152v1h-152z M176,281h47v1h-47z M248,281h152v1h-152z M0,282h152v1h-152z M176,282h47v1h-47z M248,282h152v1h-152z M0,283h152v1h-152z M176,283h47v1h-47z M248,283h152v1h-152z M0,284h152v1h-152z M176,284h47v1h-47z M248,284h152v1h-152z M0,285h152v1h-152z M176,285h47v1h-47z M248,285h152v1h-152z M0,286h152v1h-152z M176,286h47v1h-47z M248,286h152v1h-152z M0,287h152v1h-152z M176,287h47v1h-47z M248,287h152v1h-152z M0,288h152v1h-152z M176,288h47v1h-47z M248,288h152v1h-152z M0,289h152v1h-152z M176,289h47v1h-47z M248,289h152v1h-152z M0,290h152v1h-152z M176,290h47v1h-47z M248,290h152v1h-152z M0,291h152v1h-152z M176,291h47v1h-47z M248,291h152v1h-152z M0,292h152v1h-152z M176,292h47v1h-47z M248,292h152v1h-152z M0,293h152v1h-152z M176,293h47v1h-47z M248,293h152v1h-152z M0,294h152v1h-152z M176,294h47v1h-47z M248,294h152v1h-152z M0,295h152v1h-152z M176,295h47v1h-47z M248,295h152v1h-152z M0,296h152v1h-152z M176,296h47v1h-47z M248,296h152v1h-152z M0,297h152v1h-152z M176,297h47v1h-47z M248,297h152v1h-152z M0,298h152v1h-152z M176,298h47v1h-47z M248,298h152v1h-152z M0,299h152v1h-152z M176,299h47v1h-47z M248,299h152v1h-152z M0,300h152v1h-152z M176,300h47v1h-47z M248,300h152v1h-152z M0,301h152v1h-152z M176,301h47v1h-47z M248,301h152v1h-152z M0,302h152v1h-152z M176,302h47v1h-47z M248,302h152v1h-152z M0,303h152v1h-152z M176,303h47v1h-47z M248,303h152v1h-152z M0,304h400v1h-400z M0,305h400v1h-400z M0,306h400v1h-400z M0,307h400v1h-400z M0,308h400v1h-400z M0,309h400v1h-400z M0,310h400v1h-400z M0,311h400v1h-400z M0,312h400v1h-400z M0,313h400v1h-400z M0,314h400v1h-400z M0,315h400v1h-400z M0,316h400v1h-400z M0,317h400v1h-400z M0,318h400v1h-400z M0,319h400v1h-400z M0,320h400v1h-400z M0,321h400v1h-400z M0,322h400v1h-400z M0,323h400v1h-400z M0,324h400v1h-400z M0,325h400v1h-400z M0,326h400v1h-400z M0,327h400v1h-400z M0,328h400v1h-400z M0,329h400v1h-400z M0,330h400v1h-400z M0,331h400v1h-400z M0,332h400v1h-400z M0,333h400v1h-400z M0,334h400v1h-400z M0,335h400v1h-400z M0,336h400v1h-400z M0,337h400v1h-400z M0,338h400v1h-400z M0,339h400v1h-400z M0,340h400v1h-400z M0,341h400v1h-400z M0,342h400v1h-400z M0,343h400v1h-400z M0,344h400v1h-400z M0,345h400v1h-400z M0,346h400v1h-400z M0,347h400v1h-400z M0,348h400v1h-400z M0,349h400v1h-400z M0,350h400v1h-400z M0,351h400v1h-400z M0,352h400v1h-400z M0,353h400v1h-400z M0,354h400v1h-400z M0,355h400v1h-400z M0,356h400v1h-400z M0,357h400v1h-400z M0,358h400v1h-400z M0,359h400v1h-400z M0,360h400v1h-400z M0,361h400v1h-400z M0,362h400v1h-400z M0,363h400v1h-400z M0,364h400v1h-400z M0,365h400v1h-400z M0,366h400v1h-400z M0,367h400v1h-400z M0,368h400v1h-400z M0,369h400v1h-400z M0,370h400v1h-400z M0,371h400v1h-400z M0,372h400v1h-400z M0,373h400v1h-400z M0,374h400v1h-400z M0,375h400v1h-400z M0,376h400v1h-400z M0,377h400v1h-400z M0,378h400v1h-400z M0,379h400v1h-400z M0,380h400v1h-400z M0,381h400v1h-400z M0,382h400v1h-400z M0,383h400v1h-400z M0,384h400v1h-400z M0,385h400v1h-400z M0,386h400v1h-400z M0,387h400v1h-400z M0,388h400v1h-400z M0,389h400v1h-400z M0,390h400v1h-400z M0,391h400v1h-400z M0,392h400v1h-400z M0,393h400v1h-400z M0,394h400v1h-400z M0,395h400v1h-400z M0,396h400v1h-400z M0,397h400v1h-400z M0,398h400v1h-400z M0,399h400v1h-400z"/>
<path d="M199,117h1v1h-1z M193,118h14v1h-14z M190,119h20v1h-20z M188,120h24v1h-24z M186,121h28v1h-28z M184,122h31v1h-31z M183,123h34v1h-34z M182,124h36v1h-36z M181,125h38v1h-38z M180,126h40v1h-40z M179,127h42v1h-42z M178,128h44v1h-44z M177,129h45v1h-45z M177,130h46v1h-46z M176,131h48v1h-48z M175,132h49v1h-49z M175,133h50v1h-50z M175,134h50v1h-50z M174,135h51v1h-51z M174,136h52v1h-52z M173,137h53v1h-53z M173,138h53v1h-53z M173,139h54v1h-54z M173,140h54v1h-54z M173,141h54v1h-54z M173,142h54v1h-54z M173,143h54v1h-54z M172,144h55v1h-55z M173,145h54v1h-54z M173,146h54v1h-54z M173,147h54v1h-54z M173,148h54v1h-54z M173,149h54v1h-54z M173,150h54v1h-54z M173,151h53v1h-53z M173,152h53v1h-53z M174,153h52v1h-52z M174,154h51v1h-51z M175,155h50v1h-50z M175,156h50v1h-50z M176,157h48v1h-48z M176,158h47v1h-47z M177,159h46v1h-46z M177,160h45v1h-45z M178,161h43v1h-43z M179,162h42v1h-42z M180,163h40v1h-40z M181,164h38v1h-38z M182,165h36v1h-36z M183,166h33v1h-33z M185,167h30v1h-30z M186,168h27v1h-27z M188,169h23v1h-23z M190,170h19v1h-19z M194,171h11v1h-11z"/>
  </g>
</svg>