<?xml version="1.0" encoding="UTF-8"?>
<svg xmlns="http://www.w3.org/2000/svg" viewBox="0 0 400 160" width="400" height="160">
  <g transform="translate(63.51,12.00) scale(0.197962)" fill="white">
<path d="M1351,0h14v1h-14z M1348,1h19v1h-19z M742,2h3v1h-3z M774,2h5v1h-5z M1345,2h24v1h-24z M741,3h5v1h-5z M773,3h7v1h-7z M1343,3h27v1h-27z M740,4h7v1h-7z M771,4h10v1h-10z M1341,4h31v1h-31z M739,5h9v1h-9z M770,5h11v1h-11z M1339,5h34v1h-34z M739,6h10v1h-10z M769,6h13v1h-13z M1337,6h37v1h-37z M738,7h12v1h-12z M768,7h15v1h-15z M1335,7h39v1h-39z M738,8h13v1h-13z M768,8h15v1h-15z M1333,8h42v1h-42z M737,9h15v1h-15z M767,9h17v1h-17z M1331,9h45v1h-45z M736,10h16v1h-16z M766,10h18v1h-18z M1330,10h46v1h-46z M736,11h17v1h-17z M765,11h20v1h-20z M1328,11h49v1h-49z M735,12h19v1h-19z M764,12h21v1h-21z M1327,12h50v1h-50z M735,13h20v1h-20z M763,13h23v1h-23z M1325,13h53v1h-53z M734,14h22v1h-22z M762,14h25v1h-25z M1324,14h54v1h-54z M734,15h23v1h-23z M761,15h26v1h-26z M1322,15h56v1h-56z M733,16h55v1h-55z M1321,16h58v1h-58z M733,17h55v1h-55z M1319,17h60v1h-60z M732,18h57v1h-57z M1318,18h61v1h-61z M732,19h57v1h-57z M1316,19h63v1h-63z M731,20h59v1h-59z M1315,20h64v1h-64z M730,21h60v1h-60z M1314,21h65v1h-65z M730,22h61v1h-61z M1313,22h66v1h-66z M729,23h62v1h-62z M1311,23h68v1h-68z M728,24h70v1h-70z M1310,24h69v1h-69z M728,25h77v1h-77z M1309,25h70v1h-70z M727,26h84v1h-84z M1308,26h71v1h-71z M726,27h89v1h-89z M1307,27h72v1h-72z M725,28h94v1h-94z M1306,28h72v1h-72z M724,29h99v1h-99z M1305,29h73v1h-73z M722,30h105v1h-105z M1303,30h75v1h-75z M721,31h109v1h-109z M1302,31h76v1h-76z M719,32h114v1h-114z M1301,32h76v1h-76z M717,33h119v1h-119z M1300,33h77v1h-77z M715,34h123v1h-123z M1299,34h78v1h-78z M713,35h128v1h-128z M1298,35h78v1h-78z M711,36h133v1h-133z M1297,36h79v1h-79z M710,37h136v1h-136z M1296,37h79v1h-79z M709,38h140v1h-140z M1296,38h79v1h-79z M708,39h143v1h-143z M1295,39h79v1h-79z M707,40h146v1h-146z M1294,40h80v1h-80z M707,41h149v1h-149z M1293,41h80v1h-80z M706,42h152v1h-152z M1292,42h81v1h-81z M706,43h154v1h-154z M1291,43h81v1h-81z M706,44h156v1h-156z M1290,44h82v1h-82z M706,45h158v1h-158z M1289,45h82v1h-82z M705,46h161v1h-161z M1289,46h81v1h-81z M705,47h163v1h-163z M1288,47h82v1h-82z M705,48h165v1h-165z M1287,48h82v1h-82z M705,49h167v1h-167z M1286,49h82v1h-82z M705,50h169v1h-169z M1285,50h82v1h-82z M704,51h172v1h-172z M1285,51h81v1h-81z M704,52h174v1h-174z M1284,52h81v1h-81z M704,53h175v1h-175z M1283,53h81v1h-81z M704,54h177v1h-177z M1283,54h80v1h-80z M703,55h180v1h-180z M1282,55h79v1h-79z M703,56h182v1h-182z M1281,56h79v1h-79z M702,57h184v1h-184z M1280,57h78v1h-78z M701,58h187v1h-187z M1280,58h77v1h-77z M700,59h190v1h-190z M1279,59h76v1h-76z M699,60h193v1h-193z M1278,60h76v1h-76z M698,61h195v1h-195z M1278,61h74v1h-74z M697,62h198v1h-198z M1277,62h73v1h-73z M695,63h201v1h-201z M1276,63h72v1h-72z M694,64h204v1h-204z M1276,64h70v1h-70z M693,65h207v1h-207z M1275,65h70v1h-70z M692,66h209v1h-209z M1275,66h68v1h-68z M691,67h212v1h-212z M1274,67h67v1h-67z M690,68h214v1h-214z M1273,68h66v1h-66z M689,69h217v1h-217z M1273,69h64v1h-64z M689,70h218v1h-218z M1272,70h62v1h-62z M688,71h221v1h-221z M1272,71h61v1h-61z M688,72h222v1h-222z M1271,72h59v1h-59z M688,73h224v1h-224z M1270,73h58v1h-58z M688,74h225v1h-225z M1270,74h56v1h-56z M688,75h227v1h-227z M1269,75h55v1h-55z M688,76h228v1h-228z M1269,76h53v1h-53z M688,77h230v1h-230z M1268,77h53v1h-53z M688,78h231v1h-231z M1268,78h51v1h-51z M688,79h233v1h-233z M1267,79h50v1h-50z M689,80h233v1h-233z M1267,80h49v1h-49z M689,81h235v1h-235z M1266,81h48v1h-48z M690,82h235v1h-235z M1266,82h47v1h-47z M690,83h236v1h-236z M1265,83h46v1h-46z M691,84h237v1h-237z M1265,84h45v1h-45z M692,85h237v1h-237z M1264,85h45v1h-45z M693,86h238v1h-238z M1264,86h43v1h-43z M695,87h237v1h-237z M1263,87h43v1h-43z M696,88h237v1h-237z M1263,88h41v1h-41z M697,89h238v1h-238z M1262,89h41v1h-41z M699,90h237v1h-237z M1262,90h40v1h-40z M700,91h237v1h-237z M1261,91h40v1h-40z M702,92h237v1h-237z M1261,92h38v1h-38z M703,93h237v1h-237z M1260,93h38v1h-38z M705,94h236v1h-236z M1260,94h37v1h-37z M706,95h237v1h-237z M1259,95h37v1h-37z M707,96h237v1h-237z M1259,96h36v1h-36z M708,97h237v1h-237z M1258,97h36v1h-36z M709,98h237v1h-237z M1258,98h35v1h-35z M710,99h238v1h-238z M1258,99h34v1h-34z M711,100h238v1h-238z M1257,100h34v1h-34z M712,101h238v1h-238z M1257,101h33v1h-33z M713,102h239v1h-239z M1256,102h33v1h-33z M714,103h239v1h-239z M1256,103h32v1h-32z M715,104h239v1h-239z M1255,104h32v1h-32z M716,105h239v1h-239z M1255,105h31v1h-31z M717,106h240v1h-240z M1255,106h31v1h-31z M718,107h26v1h-26z M751,107h207v1h-207z M1254,107h31v1h-31z M720,108h19v1h-19z M754,108h205v1h-205z M1254,108h30v1h-30z M721,109h14v1h-14z M757,109h203v1h-203z M1253,109h30v1h-30z M724,110h7v1h-7z M760,110h202v1h-202z M1253,110h30v1h-30z M763,111h200v1h-200z M1252,111h30v1h-30z M764,112h200v1h-200z M1252,112h29v1h-29z M765,113h200v1h-200z M1252,113h29v1h-29z M767,114h199v1h-199z M1251,114h29v1h-29z M767,115h201v1h-201z M1251,115h28v1h-28z M768,116h201v1h-201z M1250,116h29v1h-29z M768,117h202v1h-202z M1250,117h28v1h-28z M769,118h202v1h-202z M1250,118h27v1h-27z M769,119h203v1h-203z M1249,119h28v1h-28z M769,120h205v1h-205z M1249,120h27v1h-27z M769,121h206v1h-206z M1248,121h27v1h-27z M770,122h206v1h-206z M1248,122h27v1h-27z M770,123h207v1h-207z M1248,123h26v1h-26z M770,124h208v1h-208z M1247,124h27v1h-27z M770,125h209v1h-209z M1247,125h26v1h-26z M770,126h211v1h-211z M1246,126h26v1h-26z M770,127h212v1h-212z M1246,127h26v1h-26z M769,128h214v1h-214z M1246,128h25v1h-25z M769,129h215v1h-215z M1245,129h26v1h-26z M769,130h216v1h-216z M1245,130h25v1h-25z M769,131h217v1h-217z M1244,131h26v1h-26z M768,132h220v1h-220z M1244,132h25v1h-25z M768,133h221v1h-221z M1243,133h26v1h-26z M721,134h24v1h-24z M767,134h223v1h-223z M1243,134h25v1h-25z M715,135h36v1h-36z M766,135h225v1h-225z M1243,135h25v1h-25z M710,136h45v1h-45z M765,136h227v1h-227z M1242,136h25v1h-25z M706,137h287v1h-287z M1242,137h24v1h-24z M703,138h291v1h-291z M1241,138h25v1h-25z M700,139h295v1h-295z M1241,139h24v1h-24z M698,140h299v1h-299z M1240,140h25v1h-25z M696,141h302v1h-302z M1240,141h24v1h-24z M694,142h305v1h-305z M1240,142h24v1h-24z M692,143h308v1h-308z M1239,143h24v1h-24z M690,144h311v1h-311z M1239,144h24v1h-24z M689,145h313v1h-313z M1238,145h24v1h-24z M688,146h316v1h-316z M1238,146h24v1h-24z M687,147h318v1h-318z M1237,147h25v1h-25z M686,148h320v1h-320z M1237,148h24v1h-24z M684,149h323v1h-323z M1236,149h25v1h-25z M684,150h324v1h-324z M1236,150h24v1h-24z M683,151h326v1h-326z M1235,151h25v1h-25z M682,152h329v1h-329z M1235,152h24v1h-24z M681,153h331v1h-331z M1234,153h25v1h-25z M681,154h332v1h-332z M1234,154h24v1h-24z M680,155h334v1h-334z M1233,155h25v1h-25z M680,156h335v1h-335z M1233,156h24v1h-24z M679,157h337v1h-337z M1232,157h25v1h-25z M679,158h339v1h-339z M1232,158h24v1h-24z M678,159h341v1h-341z M1231,159h25v1h-25z M678,160h342v1h-342z M1231,160h24v1h-24z M677,161h344v1h-344z M1230,161h25v1h-25z M677,162h345v1h-345z M1229,162h26v1h-26z M677,163h347v1h-347z M1229,163h25v1h-25z M677,164h348v1h-348z M1228,164h26v1h-26z M677,165h349v1h-349z M1228,165h25v1h-25z M677,166h350v1h-350z M1227,166h26v1h-26z M676,167h353v1h-353z M1226,167h26v1h-26z M676,168h354v1h-354z M1226,168h26v1h-26z M676,169h355v1h-355z M1225,169h26v1h-26z M676,170h357v1h-357z M1224,170h27v1h-27z M677,171h44v1h-44z M725,171h309v1h-309z M1223,171h28v1h-28z M677,172h42v1h-42z M729,172h306v1h-306z M1223,172h27v1h-27z M677,173h42v1h-42z M732,173h305v1h-305z M1222,173h28v1h-28z M677,174h41v1h-41z M734,174h304v1h-304z M1221,174h28v1h-28z M678,175h40v1h-40z M737,175h303v1h-303z M1221,175h28v1h-28z M678,176h39v1h-39z M739,176h302v1h-302z M1220,176h28v1h-28z M678,177h39v1h-39z M741,177h301v1h-301z M1219,177h29v1h-29z M679,178h38v1h-38z M743,178h301v1h-301z M1218,178h30v1h-30z M680,179h37v1h-37z M745,179h113v1h-113z M861,179h184v1h-184z M1217,179h30v1h-30z M680,180h36v1h-36z M747,180h110v1h-110z M863,180h184v1h-184z M1217,180h30v1h-30z M681,181h35v1h-35z M750,181h106v1h-106z M865,181h183v1h-183z M1216,181h30v1h-30z M682,182h34v1h-34z M752,182h103v1h-103z M866,182h184v1h-184z M1215,182h31v1h-31z M682,183h34v1h-34z M754,183h100v1h-100z M867,183h185v1h-185z M1214,183h31v1h-31z M683,184h33v1h-33z M756,184h97v1h-97z M868,184h185v1h-185z M1213,184h32v1h-32z M684,185h31v1h-31z M758,185h94v1h-94z M870,185h185v1h-185z M1212,185h33v1h-33z M685,186h30v1h-30z M761,186h90v1h-90z M871,186h185v1h-185z M1211,186h33v1h-33z M687,187h28v1h-28z M763,187h87v1h-87z M872,187h186v1h-186z M1210,187h34v1h-34z M688,188h26v1h-26z M765,188h84v1h-84z M873,188h187v1h-187z M1209,188h34v1h-34z M689,189h25v1h-25z M768,189h79v1h-79z M874,189h187v1h-187z M1208,189h35v1h-35z M691,190h22v1h-22z M770,190h76v1h-76z M875,190h188v1h-188z M1207,190h35v1h-35z M693,191h19v1h-19z M772,191h73v1h-73z M876,191h189v1h-189z M1206,191h36v1h-36z M696,192h14v1h-14z M775,192h68v1h-68z M877,192h190v1h-190z M1205,192h37v1h-37z M699,193h9v1h-9z M778,193h63v1h-63z M878,193h191v1h-191z M1204,193h37v1h-37z M781,194h58v1h-58z M879,194h191v1h-191z M1203,194h38v1h-38z M784,195h53v1h-53z M880,195h192v1h-192z M1202,195h38v1h-38z M788,196h47v1h-47z M881,196h193v1h-193z M1201,196h39v1h-39z M791,197h41v1h-41z M882,197h194v1h-194z M1199,197h40v1h-40z M796,198h32v1h-32z M883,198h195v1h-195z M1198,198h41v1h-41z M802,199h21v1h-21z M884,199h196v1h-196z M1197,199h41v1h-41z M885,200h197v1h-197z M1196,200h42v1h-42z M886,201h198v1h-198z M1194,201h43v1h-43z M887,202h200v1h-200z M1193,202h44v1h-44z M888,203h201v1h-201z M1192,203h44v1h-44z M889,204h202v1h-202z M1190,204h46v1h-46z M890,205h203v1h-203z M1188,205h47v1h-47z M891,206h204v1h-204z M1187,206h47v1h-47z M892,207h206v1h-206z M1185,207h49v1h-49z M893,208h208v1h-208z M1183,208h50v1h-50z M894,209h209v1h-209z M1182,209h50v1h-50z M895,210h211v1h-211z M1179,210h52v1h-52z M896,211h213v1h-213z M1177,211h54v1h-54z M898,212h214v1h-214z M1175,212h55v1h-55z M899,213h218v1h-218z M1172,213h57v1h-57z M900,214h221v1h-221z M1170,214h58v1h-58z M901,215h224v1h-224z M1166,215h61v1h-61z M902,216h230v1h-230z M1161,216h65v1h-65z M903,217h241v1h-241z M1152,217h74v1h-74z M904,218h321v1h-321z M905,219h319v1h-319z M907,220h316v1h-316z M908,221h314v1h-314z M909,222h312v1h-312z M910,223h310v1h-310z M912,224h307v1h-307z M913,225h305v1h-305z M914,226h303v1h-303z M916,227h300v1h-300z M917,228h297v1h-297z M919,229h294v1h-294z M920,230h292v1h-292z M922,231h289v1h-289z M923,232h287v1h-287z M925,233h284v1h-284z M926,234h281v1h-281z M928,235h278v1h-278z M930,236h275v1h-275z M931,237h272v1h-272z M933,238h269v1h-269z M935,239h266v1h-266z M937,240h262v1h-262z M939,241h259v1h-259z M941,242h255v1h-255z M943,243h252v1h-252z M946,244h248v1h-248z M948,245h245v1h-245z M950,246h243v1h-243z M953,247h240v1h-240z M956,248h237v1h-237z M959,249h234v1h-234z M962,250h232v1h-232z M965,251h230v1h-230z M968,252h228v1h-228z M972,253h225v1h-225z M976,254h222v1h-222z M980,255h218v1h-218z M985,256h214v1h-214z M990,257h210v1h-210z M996,258h205v1h-205z M1004,259h198v1h-198z M1012,260h190v1h-190z M1024,261h179v1h-179z M1052,262h151v1h-151z M1057,263h147v1h-147z M1061,264h144v1h-144z M1065,265h140v1h-140z M1067,266h139v1h-139z M1070,267h136v1h-136z M1072,268h135v1h-135z M1074,269h133v1h-133z M1076,270h131v1h-131z M1078,271h130v1h-130z M1080,272h128v1h-128z M1082,273h127v1h-127z M1083,274h126v1h-126z M1085,275h124v1h-124z M1086,276h124v1h-124z M1088,277h122v1h-122z M1089,278h121v1h-121z M1091,279h120v1h-120z M1092,280h119v1h-119z M1093,281h119v1h-119z M1094,282h118v1h-118z M1095,283h117v1h-117z M1096,284h117v1h-117z M1098,285h115v1h-115z M1099,286h114v1h-114z M1100,287h113v1h-113z M1100,288h114v1h-114z M1101,289h113v1h-113z M1102,290h112v1h-112z M1103,291h112v1h-112z M1104,292h111v1h-111z M1105,293h110v1h-110z M1105,294h110v1h-110z M1106,295h110v1h-110z M1107,296h109v1h-109z M1107,297h109v1h-109z M1108,298h108v1h-108z M1109,299h108v1h-108z M1109,300h108v1h-108z M1110,301h107v1h-107z M1111,302h106v1h-106z M1111,303h107v1h-107z M1112,304h106v1h-106z M1112,305h106v1h-106z M1113,306h105v1h-105z M1113,307h106v1h-106z M1114,308h105v1h-105z M1114,309h105v1h-105z M1115,310h104v1h-104z M1115,311h104v1h-104z M1116,312h103v1h-103z M1116,313h104v1h-104z M1117,314h103v1h-103z M1117,315h103v1h-103z M1118,316h102v1h-102z M1118,317h102v1h-102z M1119,318h102v1h-102z M1119,319h102v1h-102z M1120,320h101v1h-101z M1120,321h101v1h-101z M1120,322h101v1h-101z M1121,323h100v1h-100z M1121,324h100v1h-100z M1122,325h100v1h-100z M1122,326h100v1h-100z M1123,327h99v1h-99z M1123,328h99v1h-99z M1123,329h99v1h-99z M1124,330h98v1h-98z M1124,331h98v1h-98z M1125,332h97v1h-97z M1125,333h97v1h-97z M1125,334h98v1h-98z M1126,335h97v1h-97z M1126,336h97v1h-97z M1127,337h96v1h-96z M1127,338h96v1h-96z M1127,339h96v1h-96z M1128,340h95v1h-95z M1128,341h95v1h-95z M1129,342h95v1h-95z M1129,343h95v1h-95z M1129,344h95v1h-95z M1130,345h94v1h-94z M1130,346h94v1h-94z M1131,347h93v1h-93z M1131,348h93v1h-93z M1132,349h92v1h-92z M1132,350h92v1h-92z M1133,351h91v1h-91z M1133,352h91v1h-91z M1134,353h90v1h-90z M1134,354h90v1h-90z M1135,355h89v1h-89z M1135,356h89v1h-89z M1136,357h89v1h-89z M1136,358h89v1h-89z M1137,359h88v1h-88z M1137,360h88v1h-88z M1138,361h87v1h-87z M1138,362h87v1h-87z M1139,363h86v1h-86z M1140,364h85v1h-85z M1140,365h85v1h-85z M1141,366h84v1h-84z M1141,367h84v1h-84z M1142,368h83v1h-83z M1142,369h83v1h-83z M1143,370h82v1h-82z M1144,371h81v1h-81z M1144,372h81v1h-81z M1145,373h80v1h-80z M1146,374h79v1h-79z M1146,375h79v1h-79z M1147,376h78v1h-78z M1148,377h77v1h-77z M1148,378h77v1h-77z M1149,379h76v1h-76z M1150,380h75v1h-75z M1150,381h75v1h-75z M1151,382h74v1h-74z M1152,383h73v1h-73z M1152,384h73v1h-73z M1153,385h72v1h-72z M1154,386h71v1h-71z M1154,387h71v1h-71z M1155,388h70v1h-70z M1156,389h69v1h-69z M1157,390h68v1h-68z M1157,391h68v1h-68z M1158,392h67v1h-67z M1159,393h66v1h-66z M1160,394h65v1h-65z M1160,395h65v1h-65z M1161,396h65v1h-65z M1162,397h64v1h-64z M1163,398h63v1h-63z M1164,399h63v1h-63z M1164,400h63v1h-63z M1165,401h63v1h-63z M1166,402h62v1h-62z M1167,403h62v1h-62z M1168,404h61v1h-61z M1169,405h61v1h-61z M1169,406h61v1h-61z M1170,407h61v1h-61z M1171,408h60v1h-60z M1172,409h60v1h-60z M1173,410h60v1h-60z M1174,411h59v1h-59z M1175,412h59v1h-59z M1175,413h59v1h-59z M1176,414h59v1h-59z M1177,415h58v1h-58z M1178,416h58v1h-58z M1179,417h58v1h-58z M1180,418h58v1h-58z M1181,419h57v1h-57z M1182,420h57v1h-57z M1183,421h57v1h-57z M1184,422h57v1h-57z M1184,423h58v1h-58z M1185,424h59v1h-59z M1186,425h59v1h-59z M1187,426h59v1h-59z M1188,427h60v1h-60z M1189,428h60v1h-60z M1190,429h61v1h-61z M1191,430h61v1h-61z M1192,431h62v1h-62z M1193,432h62v1h-62z M1194,433h63v1h-63z M1195,434h63v1h-63z M1196,435h63v1h-63z M1198,436h61v1h-61z M1199,437h61v1h-61z M1200,438h61v1h-61z M1201,439h60v1h-60z M1203,440h59v1h-59z M1204,441h58v1h-58z M1205,442h58v1h-58z M1207,443h56v1h-56z M1208,444h55v1h-55z M1209,445h54v1h-54z M1210,446h54v1h-54z M1212,447h52v1h-52z M1213,448h51v1h-51z M1214,449h50v1h-50z M1215,450h49v1h-49z M1217,451h47v1h-47z M1218,452h46v1h-46z M1219,453h45v1h-45z M1221,454h43v1h-43z M1222,455h42v1h-42z M1223,456h41v1h-41z M1225,457h39v1h-39z M1225,458h39v1h-39z M1226,459h38v1h-38z M1226,460h38v1h-38z M1226,461h39v1h-39z M1227,462h38v1h-38z M1227,463h38v1h-38z M1227,464h38v1h-38z M1227,465h38v1h-38z M1227,466h39v1h-39z M1227,467h39v1h-39z M1226,468h40v1h-40z M1226,469h40v1h-40z M1226,470h41v1h-41z M1226,471h41v1h-41z M1226,472h42v1h-42z M1226,473h42v1h-42z M1226,474h42v1h-42z M1226,475h43v1h-43z M1226,476h43v1h-43z M1226,477h44v1h-44z M1226,478h45v1h-45z M1226,479h45v1h-45z M1226,480h46v1h-46z M1226,481h46v1h-46z M1226,482h47v1h-47z M1226,483h48v1h-48z M1226,484h48v1h-48z M1226,485h49v1h-49z M1226,486h49v1h-49z M1226,487h50v1h-50z M1226,488h51v1h-51z M1227,489h50v1h-50z M1227,490h51v1h-51z M1227,491h51v1h-51z M1227,492h52v1h-52z M1227,493h52v1h-52z M1227,494h53v1h-53z M1227,495h53v1h-53z M1227,496h53v1h-53z M1227,497h53v1h-53z M1227,498h53v1h-53z M1227,499h53v1h-53z M1228,500h52v1h-52z M1228,501h52v1h-52z M1228,502h51v1h-51z M1228,503h51v1h-51z M1228,504h50v1h-50z M1228,505h50v1h-50z M1228,506h50v1h-50z M1229,507h48v1h-48z M1229,508h48v1h-48z M1229,509h48v1h-48z M1229,510h47v1h-47z M1230,511h46v1h-46z M1230,512h46v1h-46z M1230,513h46v1h-46z M1231,514h44v1h-44z M1231,515h44v1h-44z M1231,516h44v1h-44z M1231,517h44v1h-44z M1232,518h43v1h-43z M1232,519h43v1h-43z M1233,520h42v1h-42z M1233,521h42v1h-42z M1233,522h42v1h-42z M1234,523h41v1h-41z M1234,524h41v1h-41z M1235,525h40v1h-40z M1235,526h40v1h-40z M1236,527h39v1h-39z M1236,528h39v1h-39z M1237,529h38v1h-38z M1238,530h37v1h-37z M1238,531h37v1h-37z M1239,532h36v1h-36z M1240,533h35v1h-35z M1241,534h34v1h-34z M1242,535h33v1h-33z M1243,536h32v1h-32z M1244,537h31v1h-31z M1245,538h31v1h-31z M1246,539h30v1h-30z M1247,540h29v1h-29z M1249,541h27v1h-27z M1251,542h24v1h-24z M1252,543h23v1h-23z M1255,544h19v1h-19z M1258,545h16v1h-16z M1262,546h10v1h-10z"/>
<path d="M0,352h189v1h-189z M0,353h194v1h-194z M0,354h196v1h-196z M0,355h198v1h-198z M0,356h200v1h-200z M0,357h202v1h-202z M0,358h203v1h-203z M0,359h204v1h-204z M0,360h205v1h-205z M0,361h206v1h-206z M0,362h207v1h-207z M0,363h208v1h-208z M0,364h209v1h-209z M0,365h209v1h-209z M0,366h210v1h-210z M0,367h211v1h-211z M0,368h211v1h-211z M0,369h211v1h-211z M0,370h212v1h-212z M0,371h212v1h-212z M0,372h213v1h-213z M0,373h213v1h-213z M0,374h213v1h-213z M0,375h214v1h-214z M0,376h214v1h-214z M0,377h214v1h-214z M0,378h214v1h-214z M0,379h214v1h-214z M0,380h214v1h-214z M0,381h214v1h-214z M0,382h214v1h-214z M0,383h214v1h-214z M0,384h214v1h-214z M0,385h214v1h-214z M0,386h214v1h-214z M0,387h214v1h-214z M0,388h214v1h-214z M0,389h214v1h-214z M0,390h214v1h-214z M0,391h214v1h-214z M0,392h214v1h-214z M0,393h92v1h-92z M112,393h102v1h-102z M0,394h92v1h-92z M114,394h100v1h-100z M0,395h92v1h-92z M116,395h98v1h-98z M0,396h92v1h-92z M117,396h97v1h-97z M0,397h92v1h-92z M118,397h96v1h-96z M0,398h92v1h-92z M119,398h95v1h-95z M0,399h92v1h-92z M120,399h94v1h-94z M0,400h92v1h-92z M120,400h94v1h-94z M0,401h92v1h-92z M121,401h93v1h-93z M0,402h92v1h-92z M121,402h93v1h-93z M0,403h92v1h-92z M121,403h93v1h-93z M0,404h92v1h-92z M122,404h92v1h-92z M0,405h92v1h-92z M122,405h92v1h-92z M0,406h92v1h-92z M122,406h92v1h-92z M0,407h92v1h-92z M122,407h92v1h-92z M0,408h92v1h-92z M122,408h92v1h-92z M0,409h92v1h-92z M122,409h92v1h-92z M0,410h92v1h-92z M122,410h92v1h-92z M0,411h92v1h-92z M122,411h92v1h-92z M0,412h92v1h-92z M122,412h92v1h-92z M0,413h92v1h-92z M122,413h92v1h-92z M0,414h92v1h-92z M122,414h92v1h-92z M0,415h92v1h-92z M122,415h92v1h-92z M0,416h92v1h-92z M122,416h92v1h-92z M0,417h92v1h-92z M122,417h92v1h-92z M0,418h92v1h-92z M122,418h92v1h-92z M0,419h92v1h-92z M122,419h92v1h-92z M0,420h92v1h-92z M122,420h92v1h-92z M0,421h92v1h-92z M122,421h92v1h-92z M0,422h92v1h-92z M122,422h92v1h-92z M0,423h92v1h-92z M122,423h92v1h-92z M0,424h92v1h-92z M122,424h92v1h-92z M0,425h92v1h-92z M122,425h92v1h-92z M0,426h92v1h-92z M122,426h92v1h-92z M0,427h92v1h-92z M122,427h92v1h-92z M0,428h92v1h-92z M122,428h92v1h-92z M0,429h92v1h-92z M122,429h92v1h-92z M0,430h92v1h-92z M122,430h92v1h-92z M0,431h92v1h-92z M122,431h92v1h-92z M0,432h92v1h-92z M122,432h92v1h-92z M0,433h92v1h-92z M122,433h92v1h-92z M0,434h92v1h-92z M122,434h92v1h-92z M0,435h92v1h-92z M122,435h92v1h-92z M0,436h92v1h-92z M122,436h92v1h-92z M0,437h92v1h-92z M122,437h92v1h-92z M0,438h92v1h-92z M122,438h92v1h-92z M0,439h92v1h-92z M122,439h92v1h-92z M0,440h92v1h-92z M122,440h92v1h-92z M0,441h92v1h-92z M122,441h92v1h-92z M0,442h92v1h-92z M122,442h92v1h-92z M0,443h92v1h-92z M122,443h92v1h-92z M0,444h92v1h-92z M122,444h92v1h-92z M0,445h92v1h-92z M122,445h92v1h-92z M0,446h92v1h-92z M122,446h92v1h-92z M0,447h92v1h-92z M122,447h92v1h-92z M0,448h92v1h-92z M122,448h92v1h-92z M0,449h92v1h-92z M122,449h92v1h-92z M0,450h92v1h-92z M122,450h92v1h-92z M0,451h92v1h-92z M122,451h92v1h-92z M0,452h92v1h-92z M122,452h92v1h-92z M0,453h92v1h-92z M122,453h92v1h-92z M0,454h92v1h-92z M122,454h92v1h-92z M0,455h92v1h-92z M122,455h92v1h-92z M0,456h92v1h-92z M122,456h92v1h-92z M0,457h92v1h-92z M122,457h92v1h-92z M0,458h92v1h-92z M122,458h92v1h-92z M0,459h92v1h-92z M122,459h92v1h-92z M0,460h92v1h-92z M122,460h92v1h-92z M0,461h92v1h-92z M122,461h92v1h-92z M0,462h92v1h-92z M122,462h92v1h-92z M0,463h92v1h-92z M122,463h92v1h-92z M0,464h92v1h-92z M122,464h92v1h-92z M0,465h92v1h-92z M122,465h92v1h-92z M0,466h92v1h-92z M122,466h92v1h-92z M0,467h92v1h-92z M122,467h92v1h-92z M0,468h92v1h-92z M122,468h92v1h-92z M0,469h92v1h-92z M122,469h92v1h-92z M0,470h92v1h-92z M122,470h92v1h-92z M0,471h92v1h-92z M122,471h92v1h-92z M0,472h92v1h-92z M122,472h92v1h-92z M0,473h92v1h-92z M122,473h92v1h-92z M0,474h92v1h-92z M122,474h92v1h-92z M0,475h92v1h-92z M122,475h92v1h-92z M0,476h92v1h-92z M122,476h92v1h-92z M0,477h92v1h-92z M122,477h92v1h-92z M0,478h92v1h-92z M122,478h92v1h-92z M0,479h92v1h-92z M122,479h92v1h-92z M0,480h92v1h-92z M122,480h92v1h-92z M0,481h92v1h-92z M122,481h92v1h-92z M0,482h92v1h-92z M122,482h92v1h-92z M0,483h92v1h-92z M122,483h92v1h-92z M0,484h92v1h-92z M122,484h92v1h-92z M0,485h92v1h-92z M122,485h92v1h-92z M0,486h92v1h-92z M122,486h92v1h-92z M0,487h92v1h-92z M122,487h92v1h-92z M0,488h92v1h-92z M122,488h92v1h-92z M0,489h92v1h-92z M122,489h92v1h-92z M0,490h92v1h-92z M122,490h92v1h-92z M0,491h92v1h-92z M122,491h92v1h-92z M0,492h92v1h-92z M122,492h92v1h-92z M0,493h92v1h-92z M122,493h92v1h-92z M0,494h92v1h-92z M122,494h92v1h-92z M0,495h92v1h-92z M122,495h92v1h-92z M0,496h92v1h-92z M122,496h92v1h-92z M0,497h92v1h-92z M122,497h92v1h-92z M0,498h92v1h-92z M122,498h92v1h-92z M0,499h92v1h-92z M122,499h92v1h-92z M0,500h92v1h-92z M122,500h92v1h-92z M0,501h92v1h-92z M122,501h92v1h-92z M0,502h92v1h-92z M122,502h92v1h-92z M0,503h92v1h-92z M122,503h92v1h-92z M0,504h92v1h-92z M122,504h92v1h-92z M0,505h92v1h-92z M122,505h92v1h-92z M0,506h92v1h-92z M122,506h92v1h-92z M0,507h92v1h-92z M122,507h92v1h-92z M0,508h92v1h-92z M122,508h92v1h-92z M0,509h92v1h-92z M122,509h92v1h-92z M0,510h92v1h-92z M122,510h92v1h-92z M0,511h92v1h-92z M122,511h92v1h-92z M0,512h92v1h-92z M122,512h92v1h-92z M0,513h92v1h-92z M122,513h92v1h-92z M0,514h92v1h-92z M122,514h92v1h-92z M0,515h92v1h-92z M122,515h92v1h-92z M0,516h92v1h-92z M122,516h92v1h-92z M0,517h92v1h-92z M122,517h92v1h-92z M0,518h92v1h-92z M122,518h92v1h-92z M0,519h92v1h-92z M122,519h92v1h-92z M0,520h92v1h-92z M122,520h92v1h-92z M0,521h92v1h-92z M122,521h92v1h-92z M0,522h92v1h-92z M122,522h92v1h-92z M0,523h92v1h-92z M122,523h92v1h-92z M0,524h92v1h-92z M122,524h92v1h-92z M0,525h92v1h-92z M122,525h92v1h-92z M0,526h92v1h-92z M122,526h92v1h-92z M0,527h92v1h-92z M122,527h92v1h-92z M0,528h92v1h-92z M122,528h92v1h-92z M0,529h92v1h-92z M122,529h92v1h-92z M0,530h92v1h-92z M122,530h92v1h-92z M0,531h92v1h-92z M122,531h92v1h-92z M0,532h92v1h-92z M122,532h92v1h-92z M0,533h92v1h-92z M122,533h92v1h-92z M0,534h92v1h-92z M122,534h92v1h-92z M0,535h92v1h-92z M122,535h92v1h-92z M0,536h92v1h-92z M122,536h92v1h-92z M0,537h92v1h-92z M122,537h92v1h-92z M0,538h92v1h-92z M122,538h92v1h-92z M0,539h92v1h-92z M122,539h92v1h-92z M0,540h92v1h-92z M122,540h92v1h-92z M0,541h92v1h-92z M122,541h92v1h-92z M0,542h92v1h-92z M122,542h92v1h-92z M0,543h92v1h-92z M122,543h92v1h-92z M0,544h92v1h-92z M122,544h92v1h-92z M0,545h92v1h-92z M122,545h92v1h-92z M0,546h92v1h-92z M122,546h92v1h-92z M0,547h92v1h-92z M122,547h92v1h-92z M0,548h92v1h-92z M122,548h92v1h-92z M0,549h92v1h-92z M121,549h93v1h-93z M0,550h92v1h-92z M121,550h93v1h-93z M0,551h92v1h-92z M121,551h93v1h-93z M0,552h92v1h-92z M120,552h94v1h-94z M0,553h92v1h-92z M120,553h94v1h-94z M0,554h92v1h-92z M119,554h95v1h-95z M0,555h92v1h-92z M118,555h96v1h-96z M0,556h92v1h-92z M117,556h97v1h-97z M0,557h92v1h-92z M115,557h99v1h-99z M0,558h92v1h-92z M114,558h100v1h-100z M0,559h92v1h-92z M111,559h103v1h-103z M0,560h214v1h-214z M0,561h214v1h-214z M0,562h214v1h-214z M0,563h214v1h-214z M0,564h214v1h-214z M0,565h214v1h-214z M0,566h214v1h-214z M0,567h214v1h-214z M0,568h214v1h-214z M0,569h214v1h-214z M0,570h214v1h-214z M0,571h214v1h-214z M0,572h214v1h-214z M0,573h214v1h-214z M0,574h214v1h-214z M0,575h214v1h-214z M0,576h214v1h-214z M0,577h214v1h-214z M0,578h214v1h-214z M0,579h213v1h-213z M0,580h213v1h-213z M0,581h213v1h-213z M0,582h212v1h-212z M0,583h212v1h-212z M0,584h211v1h-211z M0,585h211v1h-211z M0,586h210v1h-210z M0,587h210v1h-210z M0,588h209v1h-209z M0,589h209v1h-209z M0,590h208v1h-208z M0,591h207v1h-207z M0,592h206v1h-206z M0,593h205v1h-205z M0,594h204v1h-204z M0,595h203v1h-203z M0,596h202v1h-202z M0,597h200v1h-200z M0,598h198v1h-198z M0,599h196v1h-196z M0,600h194v1h-194z M0,601h190v1h-190z M0,602h92v1h-92z M0,603h92v1h-92z M0,604h92v1h-92z M0,605h92v1h-92z M0,606h92v1h-92z M0,607h92v1h-92z M0,608h92v1h-92z M0,609h92v1h-92z M0,610h92v1h-92z M0,611h92v1h-92z M0,612h92v1h-92z M0,613h92v1h-92z M0,614h92v1h-92z M0,615h92v1h-92z M0,616h92v1h-92z M0,617h92v1h-92z M0,618h92v1h-92z M0,619h92v1h-92z M0,620h92v1h-92z M0,621h92v1h-92z M0,622h92v1h-92z M0,623h92v1h-92z M0,624h92v1h-92z M0,625h92v1h-92z M0,626h92v1h-92z M0,627h92v1h-92z M0,628h92v1h-92z M0,629h92v1h-92z M0,630h92v1h-92z M0,631h92v1h-92z M0,632h92v1h-92z M0,633h92v1h-92z M0,634h92v1h-92z M0,635h92v1h-92z M0,636h92v1h-92z M0,637h92v1h-92z M0,638h92v1h-92z M0,639h92v1h-92z M0,640h92v1h-92z M0,641h92v1h-92z M0,642h92v1h-92z M0,643h92v1h-92z M0,644h92v1h-92z M0,645h92v1h-92z M0,646h92v1h-92z M0,647h92v1h-92z M0,648h92v1h-92z M0,649h92v1h-92z M0,650h92v1h-92z M0,651h92v1h-92z M0,652h92v1h-92z M0,653h92v1h-92z M0,654h92v1h-92z M0,655h92v1h-92z M0,656h92v1h-92z M0,657h92v1h-92z M0,658h92v1h-92z M0,659h92v1h-92z M0,660h92v1h-92z M0,661h92v1h-92z M0,662h92v1h-92z M0,663h92v1h-92z M0,664h92v1h-92z M0,665h92v1h-92z M0,666h92v1h-92z M0,667h92v1h-92z M0,668h92v1h-92z M0,669h92v1h-92z M0,670h92v1h-92z M0,671h92v1h-92z M0,672h92v1h-92z M0,673h92v1h-92z M0,674h92v1h-92z M0,675h92v1h-92z M0,676h92v1h-92z M0,677h92v1h-92z M0,678h92v1h-92z M0,679h92v1h-92z M0,680h92v1h-92z M0,681h92v1h-92z M0,682h92v1h-92z M0,683h92v1h-92z M0,684h92v1h-92z M0,685h92v1h-92z"/>
<path d="M245,352h92v1h-92z M367,352h92v1h-92z M244,353h93v1h-93z M367,353h92v1h-92z M244,354h93v1h-93z M367,354h92v1h-92z M244,355h93v1h-93z M367,355h92v1h-92z M244,356h93v1h-93z M367,356h92v1h-92z M244,357h93v1h-93z M367,357h92v1h-92z M244,358h93v1h-93z M367,358h92v1h-92z M244,359h93v1h-93z M367,359h92v1h-92z M244,360h93v1h-93z M367,360h92v1h-92z M244,361h93v1h-93z M367,361h92v1h-92z M244,362h93v1h-93z M367,362h92v1h-92z M244,363h93v1h-93z M367,363h92v1h-92z M244,364h93v1h-93z M367,364h92v1h-92z M244,365h93v1h-93z M367,365h92v1h-92z M244,366h93v1h-93z M367,366h92v1h-92z M244,367h93v1h-93z M367,367h92v1h-92z M244,368h93v1h-93z M367,368h92v1h-92z M244,369h93v1h-93z M367,369h92v1h-92z M244,370h93v1h-93z M367,370h92v1h-92z M244,371h93v1h-93z M367,371h92v1h-92z M244,372h93v1h-93z M367,372h92v1h-92z M244,373h93v1h-93z M367,373h92v1h-92z M244,374h93v1h-93z M367,374h92v1h-92z M244,375h93v1h-93z M367,375h92v1h-92z M244,376h93v1h-93z M367,376h92v1h-92z M244,377h93v1h-93z M367,377h92v1h-92z M244,378h93v1h-93z M367,378h92v1h-92z M244,379h93v1h-93z M367,379h92v1h-92z M244,380h93v1h-93z M367,380h92v1h-92z M244,381h93v1h-93z M367,381h92v1h-92z M244,382h93v1h-93z M367,382h92v1h-92z M244,383h93v1h-93z M367,383h92v1h-92z M244,384h93v1h-93z M367,384h92v1h-92z M244,385h93v1h-93z M367,385h92v1h-92z M244,386h93v1h-93z M367,386h92v1h-92z M244,387h93v1h-93z M367,387h92v1h-92z M244,388h93v1h-93z M367,388h92v1h-92z M244,389h93v1h-93z M367,389h92v1h-92z M244,390h93v1h-93z M367,390h92v1h-92z M244,391h93v1h-93z M367,391h92v1h-92z M244,392h93v1h-93z M367,392h92v1h-92z M244,393h93v1h-93z M367,393h92v1h-92z M244,394h93v1h-93z M367,394h92v1h-92z M244,395h93v1h-93z M367,395h92v1h-92z M244,396h93v1h-93z M367,396h92v1h-92z M244,397h93v1h-93z M367,397h92v1h-92z M244,398h93v1h-93z M367,398h92v1h-92z M244,399h93v1h-93z M367,399h92v1h-92z M244,400h93v1h-93z M367,400h92v1h-92z M244,401h93v1h-93z M367,401h92v1h-92z M244,402h93v1h-93z M367,402h92v1h-92z M244,403h93v1h-93z M367,403h92v1h-92z M244,404h93v1h-93z M367,404h92v1h-92z M244,405h93v1h-93z M367,405h92v1h-92z M244,406h93v1h-93z M367,406h92v1h-92z M244,407h93v1h-93z M367,407h92v1h-92z M244,408h93v1h-93z M367,408h92v1h-92z M244,409h93v1h-93z M367,409h92v1h-92z M244,410h93v1h-93z M367,410h92v1h-92z M244,411h93v1h-93z M367,411h92v1h-92z M244,412h93v1h-93z M367,412h92v1h-92z M244,413h93v1h-93z M367,413h92v1h-92z M244,414h93v1h-93z M367,414h92v1h-92z M244,415h93v1h-93z M367,415h92v1h-92z M244,416h93v1h-93z M367,416h92v1h-92z M244,417h93v1h-93z M367,417h92v1h-92z M244,418h93v1h-93z M367,418h92v1h-92z M244,419h93v1h-93z M367,419h92v1h-92z M244,420h93v1h-93z M367,420h92v1h-92z M244,421h93v1h-93z M367,421h92v1h-92z M244,422h93v1h-93z M367,422h92v1h-92z M244,423h93v1h-93z M367,423h92v1h-92z M244,424h93v1h-93z M367,424h92v1h-92z M244,425h93v1h-93z M367,425h92v1h-92z M244,426h93v1h-93z M367,426h92v1h-92z M244,427h93v1h-93z M367,427h92v1h-92z M244,428h93v1h-93z M367,428h92v1h-92z M244,429h93v1h-93z M367,429h92v1h-92z M244,430h93v1h-93z M367,430h92v1h-92z M244,431h93v1h-93z M367,431h92v1h-92z M244,432h93v1h-93z M367,432h92v1h-92z M244,433h93v1h-93z M367,433h92v1h-92z M244,434h93v1h-93z M367,434h92v1h-92z M244,435h93v1h-93z M367,435h92v1h-92z M244,436h93v1h-93z M367,436h92v1h-92z M244,437h93v1h-93z M367,437h92v1h-92z M244,438h93v1h-93z M367,438h92v1h-92z M244,439h93v1h-93z M367,439h92v1h-92z M244,440h93v1h-93z M367,440h92v1h-92z M244,441h93v1h-93z M367,441h92v1h-92z M244,442h93v1h-93z M367,442h92v1h-92z M244,443h93v1h-93z M367,443h92v1h-92z M244,444h93v1h-93z M367,444h92v1h-92z M244,445h93v1h-93z M367,445h92v1h-92z M244,446h93v1h-93z M367,446h92v1h-92z M244,447h93v1h-93z M367,447h92v1h-92z M244,448h93v1h-93z M367,448h92v1h-92z M244,449h93v1h-93z M367,449h92v1h-92z M244,450h93v1h-93z M367,450h92v1h-92z M244,451h93v1h-93z M367,451h92v1h-92z M244,452h93v1h-93z M367,452h92v1h-92z M244,453h93v1h-93z M367,453h92v1h-92z M244,454h93v1h-93z M367,454h92v1h-92z M244,455h93v1h-93z M367,455h92v1h-92z M244,456h93v1h-93z M367,456h92v1h-92z M244,457h93v1h-93z M367,457h92v1h-92z M244,458h93v1h-93z M367,458h92v1h-92z M244,459h93v1h-93z M367,459h92v1h-92z M244,460h93v1h-93z M367,460h92v1h-92z M244,461h93v1h-93z M367,461h92v1h-92z M244,462h93v1h-93z M367,462h92v1h-92z M244,463h93v1h-93z M367,463h92v1h-92z M244,464h93v1h-93z M367,464h92v1h-92z M244,465h93v1h-93z M367,465h92v1h-92z M244,466h93v1h-93z M367,466h92v1h-92z M244,467h93v1h-93z M367,467h92v1h-92z M244,468h93v1h-93z M367,468h92v1h-92z M244,469h93v1h-93z M367,469h92v1h-92z M244,470h93v1h-93z M367,470h92v1h-92z M244,471h93v1h-93z M367,471h92v1h-92z M244,472h93v1h-93z M367,472h92v1h-92z M244,473h93v1h-93z M367,473h92v1h-92z M244,474h93v1h-93z M367,474h92v1h-92z M244,475h93v1h-93z M367,475h92v1h-92z M244,476h93v1h-93z M367,476h92v1h-92z M244,477h93v1h-93z M367,477h92v1h-92z M244,478h93v1h-93z M367,478h92v1h-92z M244,479h93v1h-93z M367,479h92v1h-92z M244,480h93v1h-93z M367,480h92v1h-92z M244,481h93v1h-93z M367,481h92v1h-92z M244,482h93v1h-93z M367,482h92v1h-92z M244,483h93v1h-93z M367,483h92v1h-92z M244,484h93v1h-93z M367,484h92v1h-92z M244,485h93v1h-93z M367,485h92v1h-92z M244,486h93v1h-93z M367,486h92v1h-92z M244,487h93v1h-93z M367,487h92v1h-92z M244,488h93v1h-93z M367,488h92v1h-92z M244,489h93v1h-93z M367,489h92v1h-92z M244,490h93v1h-93z M367,490h92v1h-92z M244,491h93v1h-93z M367,491h92v1h-92z M244,492h93v1h-93z M367,492h92v1h-92z M244,493h93v1h-93z M367,493h92v1h-92z M244,494h93v1h-93z M367,494h92v1h-92z M244,495h93v1h-93z M367,495h92v1h-92z M244,496h93v1h-93z M367,496h92v1h-92z M244,497h93v1h-93z M367,497h92v1h-92z M244,498h93v1h-93z M367,498h92v1h-92z M244,499h93v1h-93z M367,499h92v1h-92z M244,500h93v1h-93z M367,500h92v1h-92z M244,501h93v1h-93z M367,501h92v1h-92z M244,502h93v1h-93z M367,502h92v1h-92z M244,503h93v1h-93z M367,503h92v1h-92z M244,504h93v1h-93z M367,504h92v1h-92z M244,505h93v1h-93z M367,505h92v1h-92z M244,506h93v1h-93z M367,506h92v1h-92z M244,507h93v1h-93z M367,507h92v1h-92z M244,508h93v1h-93z M367,508h92v1h-92z M244,509h93v1h-93z M367,509h92v1h-92z M244,510h93v1h-93z M367,510h92v1h-92z M244,511h93v1h-93z M367,511h92v1h-92z M244,512h93v1h-93z M367,512h92v1h-92z M244,513h93v1h-93z M367,513h92v1h-92z M244,514h93v1h-93z M367,514h92v1h-92z M244,515h93v1h-93z M367,515h92v1h-92z M244,516h93v1h-93z M367,516h92v1h-92z M244,517h93v1h-93z M367,517h92v1h-92z M244,518h93v1h-93z M367,518h92v1h-92z M244,519h93v1h-93z M367,519h92v1h-92z M244,520h93v1h-93z M367,520h92v1h-92z M244,521h93v1h-93z M367,521h92v1h-92z M244,522h93v1h-93z M367,522h92v1h-92z M244,523h93v1h-93z M367,523h92v1h-92z M244,524h93v1h-93z M367,524h92v1h-92z M244,525h93v1h-93z M367,525h92v1h-92z M244,526h93v1h-93z M367,526h92v1h-92z M244,527h93v1h-93z M367,527h92v1h-92z M244,528h93v1h-93z M367,528h92v1h-92z M244,529h93v1h-93z M367,529h92v1h-92z M244,530h93v1h-93z M367,530h92v1h-92z M244,531h93v1h-93z M367,531h92v1h-92z M244,532h93v1h-93z M367,532h92v1h-92z M244,533h93v1h-93z M367,533h92v1h-92z M244,534h93v1h-93z M367,534h92v1h-92z M244,535h93v1h-93z M367,535h92v1h-92z M244,536h93v1h-93z M367,536h92v1h-92z M244,537h93v1h-93z M367,537h92v1h-92z M244,538h93v1h-93z M367,538h92v1h-92z M244,539h93v1h-93z M367,539h92v1h-92z M244,540h93v1h-93z M367,540h92v1h-92z M244,541h93v1h-93z M367,541h92v1h-92z M244,542h93v1h-93z M367,542h92v1h-92z M244,543h93v1h-93z M367,543h92v1h-92z M244,544h93v1h-93z M367,544h92v1h-92z M244,545h93v1h-93z M367,545h92v1h-92z M244,546h93v1h-93z M367,546h92v1h-92z M244,547h93v1h-93z M367,547h92v1h-92z M244,548h93v1h-93z M367,548h92v1h-92z M244,549h93v1h-93z M367,549h92v1h-92z M244,550h93v1h-93z M367,550h92v1h-92z M244,551h93v1h-93z M367,551h92v1h-92z M244,552h93v1h-93z M367,552h92v1h-92z M244,553h93v1h-93z M367,553h92v1h-92z M244,554h93v1h-93z M367,554h92v1h-92z M244,555h93v1h-93z M367,555h92v1h-92z M244,556h93v1h-93z M367,556h92v1h-92z M244,557h93v1h-93z M367,557h92v1h-92z M244,558h93v1h-93z M367,558h92v1h-92z M244,559h93v1h-93z M367,559h92v1h-92z M244,560h93v1h-93z M367,560h92v1h-92z M244,561h93v1h-93z M367,561h92v1h-92z M244,562h93v1h-93z M367,562h92v1h-92z M244,563h93v1h-93z M367,563h92v1h-92z M244,564h93v1h-93z M367,564h92v1h-92z M244,565h93v1h-93z M367,565h92v1h-92z M244,566h93v1h-93z M367,566h92v1h-92z M244,567h93v1h-93z M367,567h92v1h-92z M244,568h93v1h-93z M367,568h92v1h-92z M244,569h93v1h-93z M367,569h92v1h-92z M244,570h93v1h-93z M367,570h92v1h-92z M244,571h93v1h-93z M367,571h92v1h-92z M244,572h93v1h-93z M367,572h92v1h-92z M244,573h93v1h-93z M367,573h92v1h-92z M244,574h93v1h-93z M367,574h92v1h-92z M244,575h93v1h-93z M367,575h92v1h-92z M244,576h93v1h-93z M367,576h92v1h-92z M244,577h93v1h-93z M367,577h92v1h-92z M244,578h93v1h-93z M367,578h92v1h-92z M244,579h93v1h-93z M367,579h92v1h-92z M244,580h93v1h-93z M367,580h92v1h-92z M244,581h93v1h-93z M367,581h92v1h-92z M244,582h93v1h-93z M367,582h92v1h-92z M244,583h93v1h-93z M367,583h92v1h-92z M244,584h93v1h-93z M367,584h92v1h-92z M244,585h93v1h-93z M367,585h92v1h-92z M244,586h93v1h-93z M367,586h92v1h-92z M244,587h93v1h-93z M367,587h92v1h-92z M244,588h93v1h-93z M367,588h92v1h-92z M244,589h93v1h-93z M367,589h92v1h-92z M244,590h93v1h-93z M367,590h92v1h-92z M244,591h93v1h-93z M367,591h92v1h-92z M244,592h93v1h-93z M367,592h92v1h-92z M244,593h93v1h-93z M367,593h92v1h-92z M244,594h93v1h-93z M367,594h92v1h-92z M244,595h93v1h-93z M367,595h92v1h-92z M244,596h93v1h-93z M367,596h92v1h-92z M244,597h93v1h-93z M367,597h92v1h-92z M244,598h93v1h-93z M367,598h92v1h-92z M244,599h93v1h-93z M367,599h92v1h-92z M244,600h93v1h-93z M367,600h92v1h-92z M244,601h93v1h-93z M367,601h92v1h-92z M244,602h93v1h-93z M367,602h92v1h-92z M244,603h93v1h-93z M367,603h92v1h-92z M244,604h93v1h-93z M367,604h92v1h-92z M244,605h93v1h-93z M367,605h92v1h-92z M244,606h93v1h-93z M367,606h92v1h-92z M244,607h93v1h-93z M367,607h92v1h-92z M244,608h93v1h-93z M367,608h92v1h-92z M244,609h93v1h-93z M367,609h92v1h-92z M244,610h93v1h-93z M367,610h92v1h-92z M244,611h93v1h-93z M367,611h92v1h-92z M244,612h93v1h-93z M367,612h92v1h-92z M244,613h93v1h-93z M367,613h92v1h-92z M244,614h93v1h-93z M367,614h92v1h-92z M244,615h93v1h-93z M367,615h92v1h-92z M244,616h93v1h-93z M367,616h92v1h-92z M244,617h93v1h-93z M367,617h92v1h-92z M244,618h93v1h-93z M367,618h92v1h-92z M244,619h93v1h-93z M367,619h92v1h-92z M244,620h93v1h-93z M367,620h92v1h-92z M244,621h93v1h-93z M367,621h92v1h-92z M244,622h93v1h-93z M367,622h92v1h-92z M244,623h93v1h-93z M367,623h92v1h-92z M244,624h93v1h-93z M367,624h92v1h-92z M244,625h93v1h-93z M367,625h92v1h-92z M244,626h93v1h-93z M367,626h92v1h-92z M244,627h93v1h-93z M367,627h92v1h-92z M244,628h93v1h-93z M367,628h92v1h-92z M244,629h93v1h-93z M367,629h92v1h-92z M244,630h93v1h-93z M367,630h92v1h-92z M244,631h93v1h-93z M367,631h92v1h-92z M244,632h93v1h-93z M367,632h92v1h-92z M244,633h93v1h-93z M366,633h93v1h-93z M244,634h94v1h-94z M366,634h93v1h-93z M244,635h94v1h-94z M366,635h93v1h-93z M244,636h94v1h-94z M365,636h94v1h-94z M244,637h95v1h-95z M365,637h94v1h-94z M244,638h96v1h-96z M364,638h95v1h-95z M244,639h96v1h-96z M363,639h96v1h-96z M244,640h97v1h-97z M362,640h97v1h-97z M244,641h98v1h-98z M361,641h98v1h-98z M244,642h100v1h-100z M360,642h99v1h-99z M244,643h102v1h-102z M358,643h101v1h-101z M244,644h105v1h-105z M354,644h105v1h-105z M244,645h215v1h-215z M244,646h215v1h-215z M244,647h215v1h-215z M244,648h215v1h-215z M244,649h215v1h-215z M244,650h215v1h-215z M244,651h215v1h-215z M244,652h215v1h-215z M244,653h215v1h-215z M244,654h215v1h-215z M244,655h215v1h-215z M244,656h215v1h-215z M244,657h215v1h-215z M244,658h215v1h-215z M245,659h214v1h-214z M245,660h214v1h-214z M245,661h214v1h-214z M245,662h214v1h-214z M245,663h214v1h-214z M245,664h213v1h-213z M246,665h212v1h-212z M246,666h212v1h-212z M246,667h212v1h-212z M246,668h211v1h-211z M247,669h210v1h-210z M247,670h209v1h-209z M248,671h208v1h-208z M249,672h206v1h-206z M249,673h206v1h-206z M250,674h204v1h-204z M251,675h202v1h-202z M252,676h200v1h-200z M252,677h199v1h-199z M254,678h196v1h-196z M255,679h194v1h-194z M256,680h192v1h-192z M257,681h189v1h-189z M259,682h186v1h-186z M261,683h182v1h-182z M264,684h176v1h-176z M268,685h167v1h-167z"/>
<path d="M515,352h286v1h-286z M510,353h296v1h-296z M508,354h300v1h-300z M506,355h304v1h-304z M504,356h308v1h-308z M502,357h311v1h-311z M501,358h314v1h-314z M500,359h316v1h-316z M499,360h318v1h-318z M498,361h320v1h-320z M497,362h322v1h-322z M496,363h324v1h-324z M495,364h325v1h-325z M494,365h327v1h-327z M494,366h328v1h-328z M493,367h329v1h-329z M493,368h330v1h-330z M492,369h331v1h-331z M492,370h332v1h-332z M491,371h333v1h-333z M491,372h334v1h-334z M491,373h334v1h-334z M490,374h335v1h-335z M490,375h336v1h-336z M490,376h336v1h-336z M490,377h336v1h-336z M490,378h336v1h-336z M489,379h337v1h-337z M489,380h337v1h-337z M489,381h337v1h-337z M489,382h337v1h-337z M489,383h337v1h-337z M489,384h337v1h-337z M489,385h337v1h-337z M489,386h337v1h-337z M489,387h337v1h-337z M489,388h337v1h-337z M489,389h337v1h-337z M489,390h337v1h-337z M489,391h337v1h-337z M489,392h337v1h-337z M489,393h102v1h-102z M602,393h111v1h-111z M724,393h102v1h-102z M489,394h100v1h-100z M604,394h107v1h-107z M726,394h100v1h-100z M489,395h99v1h-99z M606,395h104v1h-104z M728,395h98v1h-98z M489,396h97v1h-97z M607,396h102v1h-102z M729,396h97v1h-97z M489,397h97v1h-97z M608,397h100v1h-100z M730,397h96v1h-96z M489,398h96v1h-96z M609,398h98v1h-98z M731,398h95v1h-95z M489,399h95v1h-95z M610,399h96v1h-96z M732,399h94v1h-94z M489,400h94v1h-94z M610,400h96v1h-96z M732,400h94v1h-94z M489,401h94v1h-94z M611,401h94v1h-94z M733,401h93v1h-93z M489,402h94v1h-94z M611,402h94v1h-94z M733,402h93v1h-93z M489,403h93v1h-93z M611,403h93v1h-93z M733,403h93v1h-93z M489,404h93v1h-93z M611,404h93v1h-93z M734,404h92v1h-92z M489,405h93v1h-93z M612,405h92v1h-92z M734,405h92v1h-92z M489,406h93v1h-93z M612,406h92v1h-92z M734,406h92v1h-92z M489,407h93v1h-93z M612,407h92v1h-92z M734,407h92v1h-92z M489,408h93v1h-93z M612,408h92v1h-92z M734,408h92v1h-92z M489,409h93v1h-93z M612,409h92v1h-92z M734,409h92v1h-92z M489,410h93v1h-93z M612,410h92v1h-92z M734,410h92v1h-92z M489,411h93v1h-93z M612,411h92v1h-92z M734,411h92v1h-92z M489,412h93v1h-93z M612,412h92v1h-92z M734,412h92v1h-92z M489,413h93v1h-93z M612,413h92v1h-92z M734,413h92v1h-92z M489,414h93v1h-93z M612,414h92v1h-92z M734,414h92v1h-92z M489,415h93v1h-93z M612,415h92v1h-92z M734,415h92v1h-92z M489,416h93v1h-93z M612,416h92v1h-92z M734,416h92v1h-92z M489,417h93v1h-93z M612,417h92v1h-92z M734,417h92v1h-92z M489,418h93v1h-93z M612,418h92v1h-92z M734,418h92v1h-92z M489,419h93v1h-93z M612,419h92v1h-92z M734,419h92v1h-92z M489,420h93v1h-93z M612,420h92v1h-92z M734,420h92v1h-92z M489,421h93v1h-93z M612,421h92v1h-92z M734,421h92v1h-92z M489,422h93v1h-93z M612,422h92v1h-92z M734,422h92v1h-92z M489,423h93v1h-93z M612,423h92v1h-92z M734,423h92v1h-92z M489,424h93v1h-93z M612,424h92v1h-92z M734,424h92v1h-92z M489,425h93v1h-93z M612,425h92v1h-92z M734,425h92v1h-92z M489,426h93v1h-93z M612,426h92v1h-92z M734,426h92v1h-92z M489,427h93v1h-93z M612,427h92v1h-92z M734,427h92v1h-92z M489,428h93v1h-93z M612,428h92v1h-92z M734,428h92v1h-92z M489,429h93v1h-93z M612,429h92v1h-92z M734,429h92v1h-92z M489,430h93v1h-93z M612,430h92v1h-92z M734,430h92v1h-92z M489,431h93v1h-93z M612,431h92v1h-92z M734,431h92v1h-92z M489,432h93v1h-93z M612,432h92v1h-92z M734,432h92v1h-92z M489,433h93v1h-93z M612,433h92v1h-92z M734,433h92v1h-92z M489,434h93v1h-93z M612,434h92v1h-92z M734,434h92v1h-92z M489,435h93v1h-93z M612,435h92v1h-92z M734,435h92v1h-92z M489,436h93v1h-93z M612,436h92v1h-92z M734,436h92v1h-92z M489,437h93v1h-93z M612,437h92v1h-92z M734,437h92v1h-92z M489,438h93v1h-93z M612,438h92v1h-92z M734,438h92v1h-92z M489,439h93v1h-93z M612,439h92v1h-92z M734,439h92v1h-92z M489,440h93v1h-93z M612,440h92v1h-92z M734,440h92v1h-92z M489,441h93v1h-93z M612,441h92v1h-92z M734,441h92v1h-92z M489,442h93v1h-93z M612,442h92v1h-92z M734,442h92v1h-92z M489,443h93v1h-93z M612,443h92v1h-92z M734,443h92v1h-92z M489,444h93v1h-93z M612,444h92v1h-92z M734,444h92v1h-92z M489,445h93v1h-93z M612,445h92v1h-92z M734,445h92v1h-92z M489,446h93v1h-93z M612,446h92v1h-92z M734,446h92v1h-92z M489,447h93v1h-93z M612,447h92v1h-92z M734,447h92v1h-92z M489,448h93v1h-93z M612,448h92v1h-92z M734,448h92v1h-92z M489,449h93v1h-93z M612,449h92v1h-92z M734,449h92v1h-92z M489,450h93v1h-93z M612,450h92v1h-92z M734,450h92v1h-92z M489,451h93v1h-93z M612,451h92v1h-92z M734,451h92v1h-92z M489,452h93v1h-93z M612,452h92v1h-92z M734,452h92v1h-92z M489,453h93v1h-93z M612,453h92v1h-92z M734,453h92v1h-92z M489,454h93v1h-93z M612,454h92v1h-92z M734,454h92v1h-92z M489,455h93v1h-93z M612,455h92v1h-92z M734,455h92v1h-92z M489,456h93v1h-93z M612,456h92v1h-92z M734,456h92v1h-92z M489,457h93v1h-93z M612,457h92v1h-92z M734,457h92v1h-92z M489,458h93v1h-93z M612,458h92v1h-92z M734,458h92v1h-92z M489,459h93v1h-93z M612,459h92v1h-92z M734,459h92v1h-92z M489,460h93v1h-93z M612,460h92v1h-92z M734,460h92v1h-92z M489,461h93v1h-93z M612,461h92v1h-92z M734,461h92v1h-92z M489,462h93v1h-93z M612,462h92v1h-92z M734,462h92v1h-92z M489,463h93v1h-93z M612,463h92v1h-92z M734,463h92v1h-92z M489,464h93v1h-93z M612,464h92v1h-92z M734,464h92v1h-92z M489,465h93v1h-93z M612,465h92v1h-92z M734,465h92v1h-92z M489,466h93v1h-93z M612,466h92v1h-92z M734,466h92v1h-92z M489,467h93v1h-93z M612,467h92v1h-92z M734,467h92v1h-92z M489,468h93v1h-93z M612,468h92v1h-92z M734,468h92v1h-92z M489,469h93v1h-93z M612,469h92v1h-92z M734,469h92v1h-92z M489,470h93v1h-93z M612,470h92v1h-92z M734,470h92v1h-92z M489,471h93v1h-93z M612,471h92v1h-92z M734,471h92v1h-92z M489,472h93v1h-93z M612,472h92v1h-92z M734,472h92v1h-92z M489,473h93v1h-93z M612,473h92v1h-92z M734,473h92v1h-92z M489,474h93v1h-93z M612,474h92v1h-92z M734,474h92v1h-92z M489,475h93v1h-93z M612,475h92v1h-92z M734,475h92v1h-92z M489,476h93v1h-93z M612,476h92v1h-92z M734,476h92v1h-92z M489,477h93v1h-93z M612,477h92v1h-92z M734,477h92v1h-92z M489,478h93v1h-93z M612,478h92v1h-92z M734,478h92v1h-92z M489,479h93v1h-93z M612,479h92v1h-92z M734,479h92v1h-92z M489,480h93v1h-93z M612,480h92v1h-92z M734,480h92v1h-92z M489,481h93v1h-93z M612,481h92v1h-92z M734,481h92v1h-92z M489,482h93v1h-93z M612,482h92v1h-92z M734,482h92v1h-92z M489,483h93v1h-93z M612,483h92v1h-92z M734,483h92v1h-92z M489,484h93v1h-93z M612,484h92v1h-92z M734,484h92v1h-92z M489,485h93v1h-93z M612,485h92v1h-92z M734,485h92v1h-92z M489,486h93v1h-93z M612,486h92v1h-92z M734,486h92v1h-92z M489,487h93v1h-93z M612,487h92v1h-92z M734,487h92v1h-92z M489,488h93v1h-93z M612,488h92v1h-92z M734,488h92v1h-92z M489,489h93v1h-93z M612,489h92v1h-92z M734,489h92v1h-92z M489,490h93v1h-93z M612,490h92v1h-92z M734,490h92v1h-92z M489,491h93v1h-93z M612,491h92v1h-92z M734,491h92v1h-92z M489,492h93v1h-93z M612,492h92v1h-92z M734,492h92v1h-92z M489,493h93v1h-93z M612,493h92v1h-92z M734,493h92v1h-92z M489,494h93v1h-93z M612,494h92v1h-92z M734,494h92v1h-92z M489,495h93v1h-93z M612,495h92v1h-92z M734,495h92v1h-92z M489,496h93v1h-93z M612,496h92v1h-92z M734,496h92v1h-92z M489,497h93v1h-93z M612,497h92v1h-92z M734,497h92v1h-92z M489,498h93v1h-93z M612,498h92v1h-92z M734,498h92v1h-92z M489,499h93v1h-93z M612,499h92v1h-92z M734,499h92v1h-92z M489,500h93v1h-93z M612,500h92v1h-92z M734,500h92v1h-92z M489,501h93v1h-93z M612,501h92v1h-92z M734,501h92v1h-92z M489,502h93v1h-93z M612,502h92v1h-92z M734,502h92v1h-92z M489,503h93v1h-93z M612,503h92v1h-92z M734,503h92v1h-92z M489,504h93v1h-93z M612,504h92v1h-92z M734,504h92v1h-92z M489,505h93v1h-93z M612,505h92v1h-92z M734,505h92v1h-92z M489,506h93v1h-93z M612,506h92v1h-92z M734,506h92v1h-92z M489,507h93v1h-93z M612,507h92v1h-92z M734,507h92v1h-92z M489,508h93v1h-93z M612,508h92v1h-92z M734,508h92v1h-92z M489,509h93v1h-93z M612,509h92v1h-92z M734,509h92v1h-92z M489,510h93v1h-93z M612,510h92v1h-92z M734,510h92v1h-92z M489,511h93v1h-93z M612,511h92v1h-92z M734,511h92v1h-92z M489,512h93v1h-93z M612,512h92v1h-92z M734,512h92v1h-92z M489,513h93v1h-93z M612,513h92v1h-92z M734,513h92v1h-92z M489,514h93v1h-93z M612,514h92v1h-92z M734,514h92v1h-92z M489,515h93v1h-93z M612,515h92v1h-92z M734,515h92v1h-92z M489,516h93v1h-93z M612,516h92v1h-92z M734,516h92v1h-92z M489,517h93v1h-93z M612,517h92v1h-92z M734,517h92v1h-92z M489,518h93v1h-93z M612,518h92v1h-92z M734,518h92v1h-92z M489,519h93v1h-93z M612,519h92v1h-92z M734,519h92v1h-92z M489,520h93v1h-93z M612,520h92v1h-92z M734,520h92v1h-92z M489,521h93v1h-93z M612,521h92v1h-92z M734,521h92v1h-92z M489,522h93v1h-93z M612,522h92v1h-92z M734,522h92v1h-92z M489,523h93v1h-93z M612,523h92v1h-92z M734,523h92v1h-92z M489,524h93v1h-93z M612,524h92v1h-92z M734,524h92v1h-92z M489,525h93v1h-93z M612,525h92v1h-92z M734,525h92v1h-92z M489,526h93v1h-93z M612,526h92v1h-92z M734,526h92v1h-92z M489,527h93v1h-93z M612,527h92v1h-92z M734,527h92v1h-92z M489,528h93v1h-93z M612,528h92v1h-92z M734,528h92v1h-92z M489,529h93v1h-93z M612,529h92v1h-92z M734,529h92v1h-92z M489,530h93v1h-93z M612,530h92v1h-92z M734,530h92v1h-92z M489,531h93v1h-93z M612,531h92v1h-92z M734,531h92v1h-92z M489,532h93v1h-93z M612,532h92v1h-92z M734,532h92v1h-92z M489,533h93v1h-93z M612,533h92v1h-92z M734,533h92v1h-92z M489,534h93v1h-93z M612,534h92v1h-92z M734,534h92v1h-92z M489,535h93v1h-93z M612,535h92v1h-92z M734,535h92v1h-92z M489,536h93v1h-93z M612,536h92v1h-92z M734,536h92v1h-92z M489,537h93v1h-93z M612,537h92v1h-92z M734,537h92v1h-92z M489,538h93v1h-93z M612,538h92v1h-92z M734,538h92v1h-92z M489,539h93v1h-93z M612,539h92v1h-92z M734,539h92v1h-92z M489,540h93v1h-93z M612,540h92v1h-92z M734,540h92v1h-92z M489,541h93v1h-93z M612,541h92v1h-92z M734,541h92v1h-92z M489,542h93v1h-93z M612,542h92v1h-92z M734,542h92v1h-92z M489,543h93v1h-93z M612,543h92v1h-92z M734,543h92v1h-92z M489,544h93v1h-93z M612,544h92v1h-92z M734,544h92v1h-92z M489,545h93v1h-93z M612,545h92v1h-92z M734,545h92v1h-92z M489,546h93v1h-93z M612,546h92v1h-92z M734,546h92v1h-92z M489,547h93v1h-93z M612,547h92v1h-92z M734,547h92v1h-92z M489,548h93v1h-93z M612,548h92v1h-92z M734,548h92v1h-92z M489,549h93v1h-93z M612,549h92v1h-92z M734,549h92v1h-92z M489,550h93v1h-93z M612,550h92v1h-92z M734,550h92v1h-92z M489,551h93v1h-93z M612,551h92v1h-92z M734,551h92v1h-92z M489,552h93v1h-93z M612,552h92v1h-92z M734,552h92v1h-92z M489,553h93v1h-93z M612,553h92v1h-92z M734,553h92v1h-92z M489,554h93v1h-93z M612,554h92v1h-92z M734,554h92v1h-92z M489,555h93v1h-93z M612,555h92v1h-92z M734,555h92v1h-92z M489,556h93v1h-93z M612,556h92v1h-92z M734,556h92v1h-92z M489,557h93v1h-93z M612,557h92v1h-92z M734,557h92v1h-92z M489,558h93v1h-93z M612,558h92v1h-92z M734,558h92v1h-92z M489,559h93v1h-93z M612,559h92v1h-92z M734,559h92v1h-92z M489,560h93v1h-93z M612,560h92v1h-92z M734,560h92v1h-92z M489,561h93v1h-93z M612,561h92v1h-92z M734,561h92v1h-92z M489,562h93v1h-93z M612,562h92v1h-92z M734,562h92v1h-92z M489,563h93v1h-93z M612,563h92v1h-92z M734,563h92v1h-92z M489,564h93v1h-93z M612,564h92v1h-92z M734,564h92v1h-92z M489,565h93v1h-93z M612,565h92v1h-92z M734,565h92v1h-92z M489,566h93v1h-93z M612,566h92v1h-92z M734,566h92v1h-92z M489,567h93v1h-93z M612,567h92v1h-92z M734,567h92v1h-92z M489,568h93v1h-93z M612,568h92v1h-92z M734,568h92v1h-92z M489,569h93v1h-93z M612,569h92v1h-92z M734,569h92v1h-92z M489,570h93v1h-93z M612,570h92v1h-92z M734,570h92v1h-92z M489,571h93v1h-93z M612,571h92v1h-92z M734,571h92v1h-92z M489,572h93v1h-93z M612,572h92v1h-92z M734,572h92v1h-92z M489,573h93v1h-93z M612,573h92v1h-92z M734,573h92v1h-92z M489,574h93v1h-93z M612,574h92v1h-92z M734,574h92v1h-92z M489,575h93v1h-93z M612,575h92v1h-92z M734,575h92v1h-92z M489,576h93v1h-93z M612,576h92v1h-92z M734,576h92v1h-92z M489,577h93v1h-93z M612,577h92v1h-92z M734,577h92v1h-92z M489,578h93v1h-93z M612,578h92v1h-92z M734,578h92v1h-92z M489,579h93v1h-93z M612,579h92v1h-92z M734,579h92v1h-92z M489,580h93v1h-93z M612,580h92v1h-92z M734,580h92v1h-92z M489,581h93v1h-93z M612,581h92v1h-92z M734,581h92v1h-92z M489,582h93v1h-93z M612,582h92v1h-92z M734,582h92v1h-92z M489,583h93v1h-93z M612,583h92v1h-92z M734,583h92v1h-92z M489,584h93v1h-93z M612,584h92v1h-92z M734,584h92v1h-92z M489,585h93v1h-93z M612,585h92v1h-92z M734,585h92v1h-92z M489,586h93v1h-93z M612,586h92v1h-92z M734,586h92v1h-92z M489,587h93v1h-93z M612,587h92v1h-92z M734,587h92v1h-92z M489,588h93v1h-93z M612,588h92v1h-92z M734,588h92v1h-92z M489,589h93v1h-93z M612,589h92v1h-92z M734,589h92v1h-92z M489,590h93v1h-93z M612,590h92v1h-92z M734,590h92v1h-92z M489,591h93v1h-93z M612,591h92v1h-92z M734,591h92v1h-92z M489,592h93v1h-93z M612,592h92v1h-92z M734,592h92v1h-92z M489,593h93v1h-93z M612,593h92v1h-92z M734,593h92v1h-92z M489,594h93v1h-93z M612,594h92v1h-92z M734,594h92v1h-92z M489,595h93v1h-93z M612,595h92v1h-92z M734,595h92v1h-92z M489,596h93v1h-93z M612,596h92v1h-92z M734,596h92v1h-92z M489,597h93v1h-93z M612,597h92v1h-92z M734,597h92v1h-92z M489,598h93v1h-93z M612,598h92v1h-92z M734,598h92v1h-92z M489,599h93v1h-93z M612,599h92v1h-92z M734,599h92v1h-92z M489,600h93v1h-93z M612,600h92v1h-92z M734,600h92v1h-92z M489,601h93v1h-93z M612,601h92v1h-92z M734,601h92v1h-92z M489,602h93v1h-93z M612,602h92v1h-92z M734,602h92v1h-92z M489,603h93v1h-93z M612,603h92v1h-92z M734,603h92v1h-92z M489,604h93v1h-93z M612,604h92v1h-92z M734,604h92v1h-92z M489,605h93v1h-93z M612,605h92v1h-92z M734,605h92v1h-92z M489,606h93v1h-93z M612,606h92v1h-92z M734,606h92v1h-92z M489,607h93v1h-93z M612,607h92v1h-92z M734,607h92v1h-92z M489,608h93v1h-93z M612,608h92v1h-92z M734,608h92v1h-92z M489,609h93v1h-93z M612,609h92v1h-92z M734,609h92v1h-92z M489,610h93v1h-93z M612,610h92v1h-92z M734,610h92v1h-92z M489,611h93v1h-93z M612,611h92v1h-92z M734,611h92v1h-92z M489,612h93v1h-93z M612,612h92v1h-92z M734,612h92v1h-92z M489,613h93v1h-93z M612,613h92v1h-92z M734,613h92v1h-92z M489,614h93v1h-93z M612,614h92v1h-92z M734,614h92v1h-92z M489,615h93v1h-93z M612,615h92v1h-92z M734,615h92v1h-92z M489,616h93v1h-93z M612,616h92v1h-92z M734,616h92v1h-92z M489,617h93v1h-93z M612,617h92v1h-92z M734,617h92v1h-92z M489,618h93v1h-93z M612,618h92v1h-92z M734,618h92v1h-92z M489,619h93v1h-93z M612,619h92v1h-92z M734,619h92v1h-92z M489,620h93v1h-93z M612,620h92v1h-92z M734,620h92v1h-92z M489,621h93v1h-93z M612,621h92v1h-92z M734,621h92v1h-92z M489,622h93v1h-93z M612,622h92v1h-92z M734,622h92v1h-92z M489,623h93v1h-93z M612,623h92v1h-92z M734,623h92v1h-92z M489,624h93v1h-93z M612,624h92v1h-92z M734,624h92v1h-92z M489,625h93v1h-93z M612,625h92v1h-92z M734,625h92v1h-92z M489,626h93v1h-93z M612,626h92v1h-92z M734,626h92v1h-92z M489,627h93v1h-93z M612,627h92v1h-92z M734,627h92v1h-92z M489,628h93v1h-93z M612,628h92v1h-92z M734,628h92v1h-92z M489,629h93v1h-93z M612,629h92v1h-92z M734,629h92v1h-92z M489,630h93v1h-93z M612,630h92v1h-92z M734,630h92v1h-92z M489,631h93v1h-93z M612,631h92v1h-92z M734,631h92v1h-92z M489,632h93v1h-93z M612,632h92v1h-92z M734,632h92v1h-92z M489,633h93v1h-93z M612,633h92v1h-92z M734,633h92v1h-92z M489,634h93v1h-93z M612,634h92v1h-92z M734,634h92v1h-92z M489,635h93v1h-93z M612,635h92v1h-92z M734,635h92v1h-92z M489,636h93v1h-93z M612,636h92v1h-92z M734,636h92v1h-92z M489,637h93v1h-93z M612,637h92v1h-92z M734,637h92v1h-92z M489,638h93v1h-93z M612,638h92v1h-92z M734,638h92v1h-92z M489,639h93v1h-93z M612,639h92v1h-92z M734,639h92v1h-92z M489,640h93v1h-93z M612,640h92v1h-92z M734,640h92v1h-92z M489,641h93v1h-93z M612,641h92v1h-92z M734,641h92v1h-92z M489,642h93v1h-93z M612,642h92v1h-92z M734,642h92v1h-92z M489,643h93v1h-93z M612,643h92v1h-92z M734,643h92v1h-92z M489,644h93v1h-93z M612,644h92v1h-92z M734,644h92v1h-92z M489,645h93v1h-93z M612,645h92v1h-92z M734,645h92v1h-92z M489,646h93v1h-93z M612,646h92v1h-92z M734,646h92v1h-92z M489,647h93v1h-93z M612,647h92v1h-92z M734,647h92v1h-92z M489,648h93v1h-93z M612,648h92v1h-92z M734,648h92v1h-92z M489,649h93v1h-93z M612,649h92v1h-92z M734,649h92v1h-92z M489,650h93v1h-93z M612,650h92v1h-92z M734,650h92v1h-92z M489,651h93v1h-93z M612,651h92v1h-92z M734,651h92v1h-92z M489,652h93v1h-93z M612,652h92v1h-92z M734,652h92v1h-92z M489,653h93v1h-93z M612,653h92v1h-92z M734,653h92v1h-92z M489,654h93v1h-93z M612,654h92v1h-92z M734,654h92v1h-92z M489,655h93v1h-93z M612,655h92v1h-92z M734,655h92v1h-92z M489,656h93v1h-93z M612,656h92v1h-92z M734,656h92v1h-92z M489,657h93v1h-93z M612,657h92v1h-92z M734,657h92v1h-92z M489,658h93v1h-93z M612,658h92v1h-92z M734,658h92v1h-92z M489,659h93v1h-93z M612,659h92v1h-92z M734,659h92v1h-92z M489,660h93v1h-93z M612,660h92v1h-92z M734,660h92v1h-92z M489,661h93v1h-93z M612,661h92v1h-92z M734,661h92v1h-92z M489,662h93v1h-93z M612,662h92v1h-92z M734,662h92v1h-92z M489,663h93v1h-93z M612,663h92v1h-92z M734,663h92v1h-92z M489,664h93v1h-93z M612,664h92v1h-92z M734,664h92v1h-92z M489,665h93v1h-93z M612,665h92v1h-92z M734,665h92v1h-92z M489,666h93v1h-93z M612,666h92v1h-92z M734,666h92v1h-92z M489,667h93v1h-93z M612,667h92v1h-92z M734,667h92v1h-92z M489,668h93v1h-93z M612,668h92v1h-92z M734,668h92v1h-92z M489,669h93v1h-93z M612,669h92v1h-92z M734,669h92v1h-92z M489,670h93v1h-93z M612,670h92v1h-92z M734,670h92v1h-92z M489,671h93v1h-93z M612,671h92v1h-92z M734,671h92v1h-92z M489,672h93v1h-93z M612,672h92v1h-92z M734,672h92v1h-92z M489,673h93v1h-93z M612,673h92v1h-92z M734,673h92v1h-92z M489,674h93v1h-93z M612,674h92v1h-92z M734,674h92v1h-92z M489,675h93v1h-93z M612,675h92v1h-92z M734,675h92v1h-92z M489,676h93v1h-93z M612,676h92v1h-92z M734,676h92v1h-92z M489,677h93v1h-93z M612,677h92v1h-92z M734,677h92v1h-92z M489,678h93v1h-93z M612,678h92v1h-92z M734,678h92v1h-92z M489,679h93v1h-93z M612,679h92v1h-92z M734,679h92v1h-92z M489,680h93v1h-93z M612,680h92v1h-92z M734,680h92v1h-92z M489,681h93v1h-93z M612,681h92v1h-92z M734,681h92v1h-92z M489,682h93v1h-93z M612,682h92v1h-92z M734,682h92v1h-92z M489,683h93v1h-93z M612,683h92v1h-92z M734,683h92v1h-92z M489,684h93v1h-93z M612,684h92v1h-92z M734,684h92v1h-92z M489,685h92v1h-92z M612,685h92v1h-92z M734,685h92v1h-92z"/>
<path d="M882,352h164v1h-164z M877,353h173v1h-173z M875,354h178v1h-178z M873,355h182v1h-182z M871,356h186v1h-186z M869,357h189v1h-189z M868,358h191v1h-191z M867,359h194v1h-194z M866,360h196v1h-196z M865,361h198v1h-198z M864,362h200v1h-200z M863,363h201v1h-201z M862,364h203v1h-203z M862,365h204v1h-204z M861,366h206v1h-206z M860,367h207v1h-207z M860,368h208v1h-208z M859,369h209v1h-209z M859,370h210v1h-210z M858,371h211v1h-211z M858,372h211v1h-211z M858,373h212v1h-212z M858,374h212v1h-212z M857,375h213v1h-213z M857,376h213v1h-213z M857,377h214v1h-214z M857,378h214v1h-214z M857,379h214v1h-214z M856,380h215v1h-215z M856,381h215v1h-215z M856,382h215v1h-215z M856,383h215v1h-215z M856,384h215v1h-215z M856,385h215v1h-215z M856,386h215v1h-215z M856,387h215v1h-215z M856,388h215v1h-215z M856,389h215v1h-215z M856,390h215v1h-215z M856,391h215v1h-215z M856,392h215v1h-215z M856,393h103v1h-103z M969,393h102v1h-102z M856,394h101v1h-101z M971,394h100v1h-100z M856,395h99v1h-99z M972,395h99v1h-99z M856,396h98v1h-98z M974,396h97v1h-97z M856,397h97v1h-97z M975,397h96v1h-96z M856,398h96v1h-96z M976,398h95v1h-95z M856,399h95v1h-95z M976,399h95v1h-95z M856,400h94v1h-94z M977,400h94v1h-94z M856,401h94v1h-94z M977,401h94v1h-94z M856,402h94v1h-94z M978,402h93v1h-93z M856,403h93v1h-93z M978,403h93v1h-93z M856,404h93v1h-93z M978,404h93v1h-93z M856,405h93v1h-93z M979,405h92v1h-92z M856,406h93v1h-93z M979,406h92v1h-92z M856,407h93v1h-93z M979,407h92v1h-92z M856,408h93v1h-93z M979,408h92v1h-92z M856,409h93v1h-93z M979,409h92v1h-92z M856,410h93v1h-93z M979,410h92v1h-92z M856,411h93v1h-93z M979,411h92v1h-92z M856,412h93v1h-93z M979,412h92v1h-92z M856,413h93v1h-93z M979,413h92v1h-92z M856,414h93v1h-93z M979,414h92v1h-92z M856,415h93v1h-93z M979,415h92v1h-92z M856,416h93v1h-93z M979,416h92v1h-92z M856,417h93v1h-93z M979,417h92v1h-92z M856,418h93v1h-93z M979,418h92v1h-92z M856,419h93v1h-93z M979,419h92v1h-92z M856,420h93v1h-93z M979,420h92v1h-92z M856,421h93v1h-93z M979,421h92v1h-92z M856,422h93v1h-93z M979,422h92v1h-92z M856,423h93v1h-93z M979,423h92v1h-92z M856,424h93v1h-93z M979,424h92v1h-92z M856,425h93v1h-93z M979,425h92v1h-92z M856,426h93v1h-93z M979,426h92v1h-92z M856,427h93v1h-93z M979,427h92v1h-92z M856,428h93v1h-93z M979,428h92v1h-92z M856,429h93v1h-93z M979,429h92v1h-92z M856,430h93v1h-93z M979,430h92v1h-92z M856,431h93v1h-93z M979,431h92v1h-92z M856,432h93v1h-93z M979,432h92v1h-92z M856,433h93v1h-93z M979,433h92v1h-92z M856,434h93v1h-93z M979,434h92v1h-92z M856,435h93v1h-93z M979,435h92v1h-92z M856,436h93v1h-93z M979,436h92v1h-92z M856,437h93v1h-93z M979,437h92v1h-92z M856,438h93v1h-93z M979,438h92v1h-92z M856,439h93v1h-93z M979,439h92v1h-92z M856,440h93v1h-93z M979,440h92v1h-92z M856,441h93v1h-93z M979,441h92v1h-92z M856,442h93v1h-93z M979,442h92v1h-92z M856,443h93v1h-93z M979,443h92v1h-92z M856,444h93v1h-93z M979,444h92v1h-92z M856,445h93v1h-93z M979,445h92v1h-92z M856,446h93v1h-93z M979,446h92v1h-92z M856,447h93v1h-93z M979,447h92v1h-92z M856,448h93v1h-93z M979,448h92v1h-92z M856,449h93v1h-93z M979,449h92v1h-92z M856,450h93v1h-93z M979,450h92v1h-92z M856,451h93v1h-93z M979,451h92v1h-92z M856,452h93v1h-93z M979,452h92v1h-92z M856,453h93v1h-93z M979,453h92v1h-92z M856,454h93v1h-93z M979,454h92v1h-92z M856,455h93v1h-93z M979,455h92v1h-92z M856,456h93v1h-93z M979,456h92v1h-92z M856,457h93v1h-93z M979,457h92v1h-92z M856,458h93v1h-93z M979,458h92v1h-92z M856,459h93v1h-93z M979,459h92v1h-92z M856,460h93v1h-93z M979,460h92v1h-92z M856,461h93v1h-93z M979,461h92v1h-92z M856,462h93v1h-93z M979,462h92v1h-92z M856,463h93v1h-93z M979,463h92v1h-92z M856,464h93v1h-93z M979,464h92v1h-92z M856,465h93v1h-93z M979,465h92v1h-92z M856,466h93v1h-93z M979,466h92v1h-92z M856,467h93v1h-93z M979,467h92v1h-92z M856,468h93v1h-93z M979,468h92v1h-92z M856,469h93v1h-93z M979,469h92v1h-92z M856,470h93v1h-93z M979,470h92v1h-92z M856,471h93v1h-93z M979,471h92v1h-92z M856,472h93v1h-93z M979,472h92v1h-92z M856,473h93v1h-93z M979,473h92v1h-92z M856,474h93v1h-93z M979,474h92v1h-92z M856,475h93v1h-93z M979,475h92v1h-92z M856,476h93v1h-93z M979,476h92v1h-92z M856,477h93v1h-93z M979,477h92v1h-92z M856,478h93v1h-93z M979,478h92v1h-92z M856,479h93v1h-93z M979,479h92v1h-92z M856,480h93v1h-93z M979,480h92v1h-92z M856,481h93v1h-93z M979,481h92v1h-92z M856,482h93v1h-93z M979,482h92v1h-92z M856,483h93v1h-93z M979,483h92v1h-92z M856,484h93v1h-93z M979,484h92v1h-92z M856,485h93v1h-93z M979,485h92v1h-92z M856,486h93v1h-93z M979,486h92v1h-92z M856,487h93v1h-93z M979,487h92v1h-92z M856,488h93v1h-93z M979,488h92v1h-92z M856,489h93v1h-93z M979,489h92v1h-92z M856,490h93v1h-93z M979,490h92v1h-92z M856,491h93v1h-93z M979,491h92v1h-92z M856,492h93v1h-93z M979,492h92v1h-92z M856,493h93v1h-93z M979,493h92v1h-92z M856,494h93v1h-93z M979,494h92v1h-92z M856,495h93v1h-93z M979,495h92v1h-92z M856,496h93v1h-93z M979,496h92v1h-92z M856,497h93v1h-93z M979,497h92v1h-92z M856,498h93v1h-93z M979,498h92v1h-92z M856,499h93v1h-93z M979,499h92v1h-92z M856,500h93v1h-93z M979,500h92v1h-92z M856,501h93v1h-93z M979,501h92v1h-92z M856,502h93v1h-93z M979,502h92v1h-92z M856,503h93v1h-93z M979,503h92v1h-92z M856,504h93v1h-93z M979,504h92v1h-92z M856,505h93v1h-93z M979,505h92v1h-92z M856,506h93v1h-93z M979,506h92v1h-92z M856,507h93v1h-93z M979,507h92v1h-92z M856,508h93v1h-93z M979,508h92v1h-92z M856,509h93v1h-93z M979,509h92v1h-92z M856,510h93v1h-93z M979,510h92v1h-92z M856,511h93v1h-93z M979,511h92v1h-92z M856,512h93v1h-93z M979,512h92v1h-92z M856,513h93v1h-93z M979,513h92v1h-92z M856,514h93v1h-93z M979,514h92v1h-92z M856,515h93v1h-93z M979,515h92v1h-92z M856,516h93v1h-93z M979,516h92v1h-92z M856,517h93v1h-93z M979,517h92v1h-92z M856,518h93v1h-93z M979,518h92v1h-92z M856,519h93v1h-93z M979,519h92v1h-92z M856,520h93v1h-93z M979,520h92v1h-92z M856,521h93v1h-93z M979,521h92v1h-92z M856,522h93v1h-93z M979,522h92v1h-92z M856,523h93v1h-93z M979,523h92v1h-92z M856,524h93v1h-93z M979,524h92v1h-92z M856,525h93v1h-93z M979,525h92v1h-92z M856,526h93v1h-93z M979,526h92v1h-92z M856,527h93v1h-93z M979,527h92v1h-92z M856,528h93v1h-93z M979,528h92v1h-92z M856,529h93v1h-93z M979,529h92v1h-92z M856,530h93v1h-93z M979,530h92v1h-92z M856,531h93v1h-93z M979,531h92v1h-92z M856,532h93v1h-93z M979,532h92v1h-92z M856,533h93v1h-93z M979,533h92v1h-92z M856,534h93v1h-93z M979,534h92v1h-92z M856,535h93v1h-93z M979,535h92v1h-92z M856,536h93v1h-93z M979,536h92v1h-92z M856,537h93v1h-93z M979,537h92v1h-92z M856,538h93v1h-93z M979,538h92v1h-92z M856,539h93v1h-93z M979,539h92v1h-92z M856,540h93v1h-93z M979,540h92v1h-92z M856,541h93v1h-93z M979,541h92v1h-92z M856,542h93v1h-93z M979,542h92v1h-92z M856,543h93v1h-93z M979,543h92v1h-92z M856,544h93v1h-93z M979,544h92v1h-92z M856,545h93v1h-93z M979,545h92v1h-92z M856,546h93v1h-93z M979,546h92v1h-92z M856,547h93v1h-93z M979,547h92v1h-92z M856,548h93v1h-93z M979,548h92v1h-92z M856,549h93v1h-93z M979,549h92v1h-92z M856,550h93v1h-93z M979,550h92v1h-92z M856,551h93v1h-93z M979,551h92v1h-92z M856,552h93v1h-93z M979,552h92v1h-92z M856,553h93v1h-93z M979,553h92v1h-92z M856,554h93v1h-93z M979,554h92v1h-92z M856,555h93v1h-93z M979,555h92v1h-92z M856,556h93v1h-93z M979,556h92v1h-92z M856,557h93v1h-93z M979,557h92v1h-92z M856,558h93v1h-93z M979,558h92v1h-92z M856,559h93v1h-93z M979,559h92v1h-92z M856,560h215v1h-215z M856,561h215v1h-215z M856,562h215v1h-215z M856,563h215v1h-215z M856,564h215v1h-215z M856,565h215v1h-215z M856,566h215v1h-215z M856,567h215v1h-215z M856,568h215v1h-215z M856,569h215v1h-215z M856,570h215v1h-215z M856,571h215v1h-215z M856,572h215v1h-215z M856,573h215v1h-215z M856,574h215v1h-215z M856,575h215v1h-215z M856,576h215v1h-215z M856,577h215v1h-215z M856,578h215v1h-215z M856,579h215v1h-215z M856,580h215v1h-215z M856,581h215v1h-215z M856,582h215v1h-215z M856,583h215v1h-215z M856,584h215v1h-215z M856,585h215v1h-215z M856,586h215v1h-215z M856,587h215v1h-215z M856,588h215v1h-215z M856,589h215v1h-215z M856,590h215v1h-215z M856,591h215v1h-215z M856,592h215v1h-215z M856,593h215v1h-215z M856,594h215v1h-215z M856,595h215v1h-215z M856,596h215v1h-215z M856,597h215v1h-215z M856,598h215v1h-215z M856,599h215v1h-215z M856,600h215v1h-215z M856,601h215v1h-215z M856,602h93v1h-93z M979,602h92v1h-92z M856,603h93v1h-93z M979,603h92v1h-92z M856,604h93v1h-93z M979,604h92v1h-92z M856,605h93v1h-93z M979,605h92v1h-92z M856,606h93v1h-93z M979,606h92v1h-92z M856,607h93v1h-93z M979,607h92v1h-92z M856,608h93v1h-93z M979,608h92v1h-92z M856,609h93v1h-93z M979,609h92v1h-92z M856,610h93v1h-93z M979,610h92v1h-92z M856,611h93v1h-93z M979,611h92v1h-92z M856,612h93v1h-93z M979,612h92v1h-92z M856,613h93v1h-93z M979,613h92v1h-92z M856,614h93v1h-93z M979,614h92v1h-92z M856,615h93v1h-93z M979,615h92v1h-92z M856,616h93v1h-93z M979,616h92v1h-92z M856,617h93v1h-93z M979,617h92v1h-92z M856,618h93v1h-93z M979,618h92v1h-92z M856,619h93v1h-93z M979,619h92v1h-92z M856,620h93v1h-93z M979,620h92v1h-92z M856,621h93v1h-93z M979,621h92v1h-92z M856,622h93v1h-93z M979,622h92v1h-92z M856,623h93v1h-93z M979,623h92v1h-92z M856,624h93v1h-93z M979,624h92v1h-92z M856,625h93v1h-93z M979,625h92v1h-92z M856,626h93v1h-93z M979,626h92v1h-92z M856,627h93v1h-93z M979,627h92v1h-92z M856,628h93v1h-93z M979,628h92v1h-92z M856,629h93v1h-93z M979,629h92v1h-92z M856,630h93v1h-93z M979,630h92v1h-92z M856,631h93v1h-93z M979,631h92v1h-92z M856,632h93v1h-93z M979,632h92v1h-92z M856,633h93v1h-93z M979,633h92v1h-92z M856,634h93v1h-93z M979,634h92v1h-92z M856,635h93v1h-93z M979,635h92v1h-92z M856,636h93v1h-93z M979,636h92v1h-92z M856,637h93v1h-93z M979,637h92v1h-92z M856,638h93v1h-93z M979,638h92v1h-92z M856,639h93v1h-93z M979,639h92v1h-92z M856,640h93v1h-93z M979,640h92v1h-92z M856,641h93v1h-93z M979,641h92v1h-92z M856,642h93v1h-93z M979,642h92v1h-92z M856,643h93v1h-93z M979,643h92v1h-92z M856,644h93v1h-93z M979,644h92v1h-92z M856,645h93v1h-93z M979,645h92v1h-92z M856,646h93v1h-93z M979,646h92v1h-92z M856,647h93v1h-93z M979,647h92v1h-92z M856,648h93v1h-93z M979,648h92v1h-92z M856,649h93v1h-93z M979,649h92v1h-92z M856,650h93v1h-93z M979,650h92v1h-92z M856,651h93v1h-93z M979,651h92v1h-92z M856,652h93v1h-93z M979,652h92v1h-92z M856,653h93v1h-93z M979,653h92v1h-92z M856,654h93v1h-93z M979,654h92v1h-92z M856,655h93v1h-93z M979,655h92v1h-92z M856,656h93v1h-93z M979,656h92v1h-92z M856,657h93v1h-93z M979,657h92v1h-92z M856,658h93v1h-93z M979,658h92v1h-92z M856,659h93v1h-93z M979,659h92v1h-92z M856,660h93v1h-93z M979,660h92v1h-92z M856,661h93v1h-93z M979,661h92v1h-92z M856,662h93v1h-93z M979,662h92v1h-92z M856,663h93v1h-93z M979,663h92v1h-92z M856,664h93v1h-93z M979,664h92v1h-92z M856,665h93v1h-93z M979,665h92v1h-92z M856,666h93v1h-93z M979,666h92v1h-92z M856,667h93v1h-93z M979,667h92v1h-92z M856,668h93v1h-93z M979,668h92v1h-92z M856,669h93v1h-93z M979,669h92v1h-92z M856,670h93v1h-93z M979,670h92v1h-92z M856,671h93v1h-93z M979,671h92v1h-92z M856,672h93v1h-93z M979,672h92v1h-92z M856,673h93v1h-93z M979,673h92v1h-92z M856,674h93v1h-93z M979,674h92v1h-92z M856,675h93v1h-93z M979,675h92v1h-92z M856,676h93v1h-93z M979,676h92v1h-92z M856,677h93v1h-93z M979,677h92v1h-92z M856,678h93v1h-93z M979,678h92v1h-92z M856,679h93v1h-93z M979,679h92v1h-92z M856,680h93v1h-93z M979,680h92v1h-92z M856,681h93v1h-93z M979,681h92v1h-92z M856,682h93v1h-93z M979,682h92v1h-92z M856,683h93v1h-93z M979,683h92v1h-92z M856,684h93v1h-93z M979,684h92v1h-92z M857,685h91v1h-91z M979,685h92v1h-92z"/>
<path d="M1138,604h3v1h-3z M1131,605h17v1h-17z M1127,606h25v1h-25z M1124,607h31v1h-31z M1122,608h35v1h-35z M1120,609h39v1h-39z M1118,610h43v1h-43z M1117,611h21v1h-21z M1141,611h22v1h-22z M1116,612h15v1h-15z M1148,612h16v1h-16z M1114,613h14v1h-14z M1151,613h14v1h-14z M1113,614h13v1h-13z M1154,614h13v1h-13z M1112,615h12v1h-12z M1156,615h12v1h-12z M1111,616h11v1h-11z M1157,616h12v1h-12z M1110,617h11v1h-11z M1159,617h11v1h-11z M1109,618h10v1h-10z M1160,618h11v1h-11z M1108,619h10v1h-10z M1161,619h11v1h-11z M1107,620h10v1h-10z M1163,620h9v1h-9z M1107,621h9v1h-9z M1164,621h9v1h-9z M1106,622h9v1h-9z M1165,622h9v1h-9z M1105,623h9v1h-9z M1165,623h9v1h-9z M1105,624h8v1h-8z M1166,624h9v1h-9z M1104,625h9v1h-9z M1167,625h9v1h-9z M1103,626h9v1h-9z M1168,626h8v1h-8z M1103,627h8v1h-8z M1168,627h9v1h-9z M1103,628h8v1h-8z M1169,628h8v1h-8z M1102,629h8v1h-8z M1169,629h9v1h-9z M1102,630h8v1h-8z M1170,630h8v1h-8z M1101,631h8v1h-8z M1170,631h8v1h-8z M1101,632h8v1h-8z M1171,632h8v1h-8z M1100,633h8v1h-8z M1171,633h8v1h-8z M1100,634h8v1h-8z M1172,634h7v1h-7z M1100,635h8v1h-8z M1172,635h8v1h-8z M1100,636h7v1h-7z M1172,636h8v1h-8z M1099,637h8v1h-8z M1172,637h8v1h-8z M1099,638h8v1h-8z M1173,638h7v1h-7z M1099,639h8v1h-8z M1173,639h7v1h-7z M1099,640h7v1h-7z M1173,640h8v1h-8z M1099,641h7v1h-7z M1173,641h8v1h-8z M1099,642h7v1h-7z M1173,642h8v1h-8z M1099,643h7v1h-7z M1173,643h8v1h-8z M1099,644h7v1h-7z M1173,644h8v1h-8z M1099,645h7v1h-7z M1173,645h8v1h-8z M1099,646h7v1h-7z M1173,646h8v1h-8z M1099,647h7v1h-7z M1173,647h8v1h-8z M1099,648h7v1h-7z M1173,648h8v1h-8z M1099,649h7v1h-7z M1173,649h8v1h-8z M1099,650h7v1h-7z M1173,650h8v1h-8z M1099,651h7v1h-7z M1173,651h8v1h-8z M1099,652h8v1h-8z M1173,652h7v1h-7z M1099,653h8v1h-8z M1173,653h7v1h-7z M1100,654h7v1h-7z M1172,654h8v1h-8z M1100,655h7v1h-7z M1172,655h8v1h-8z M1100,656h8v1h-8z M1172,656h7v1h-7z M1100,657h8v1h-8z M1172,657h7v1h-7z M1100,658h8v1h-8z M1171,658h8v1h-8z M1101,659h8v1h-8z M1171,659h8v1h-8z M1101,660h8v1h-8z M1170,660h8v1h-8z M1102,661h8v1h-8z M1170,661h8v1h-8z M1102,662h8v1h-8z M1169,662h8v1h-8z M1103,663h8v1h-8z M1169,663h8v1h-8z M1103,664h8v1h-8z M1168,664h8v1h-8z M1103,665h9v1h-9z M1168,665h8v1h-8z M1104,666h9v1h-9z M1167,666h8v1h-8z M1105,667h8v1h-8z M1166,667h9v1h-9z M1105,668h9v1h-9z M1165,668h9v1h-9z M1106,669h9v1h-9z M1164,669h10v1h-10z M1107,670h9v1h-9z M1164,670h9v1h-9z M1107,671h10v1h-10z M1163,671h9v1h-9z M1108,672h10v1h-10z M1161,672h10v1h-10z M1109,673h10v1h-10z M1160,673h10v1h-10z M1110,674h11v1h-11z M1159,674h10v1h-10z M1111,675h11v1h-11z M1157,675h11v1h-11z M1112,676h12v1h-12z M1156,676h11v1h-11z M1113,677h13v1h-13z M1154,677h12v1h-12z M1114,678h14v1h-14z M1151,678h14v1h-14z M1116,679h16v1h-16z M1148,679h16v1h-16z M1117,680h22v1h-22z M1141,680h21v1h-21z M1119,681h42v1h-42z M1121,682h38v1h-38z M1122,683h35v1h-35z M1125,684h30v1h-30z M1128,685h24v1h-24z M1131,686h17v1h-17z"/>
<path d="M1125,622h16v1h-16z M1125,623h20v1h-20z M1125,624h23v1h-23z M1125,625h24v1h-24z M1125,626h25v1h-25z M1125,627h26v1h-26z M1125,628h27v1h-27z M1125,629h28v1h-28z M1125,630h28v1h-28z M1125,631h9v1h-9z M1140,631h14v1h-14z M1125,632h10v1h-10z M1143,632h11v1h-11z M1125,633h10v1h-10z M1144,633h10v1h-10z M1125,634h10v1h-10z M1144,634h10v1h-10z M1125,635h10v1h-10z M1145,635h10v1h-10z M1125,636h10v1h-10z M1145,636h10v1h-10z M1125,637h10v1h-10z M1145,637h10v1h-10z M1125,638h10v1h-10z M1145,638h9v1h-9z M1125,639h10v1h-10z M1144,639h10v1h-10z M1125,640h10v1h-10z M1143,640h11v1h-11z M1125,641h10v1h-10z M1142,641h12v1h-12z M1125,642h9v1h-9z M1139,642h14v1h-14z M1125,643h28v1h-28z M1125,644h27v1h-27z M1125,645h26v1h-26z M1125,646h25v1h-25z M1125,647h24v1h-24z M1125,648h23v1h-23z M1125,649h21v1h-21z M1125,650h20v1h-20z M1125,651h21v1h-21z M1125,652h21v1h-21z M1125,653h9v1h-9z M1136,653h11v1h-11z M1125,654h10v1h-10z M1136,654h12v1h-12z M1125,655h10v1h-10z M1137,655h12v1h-12z M1125,656h10v1h-10z M1138,656h11v1h-11z M1125,657h10v1h-10z M1139,657h11v1h-11z M1125,658h10v1h-10z M1139,658h12v1h-12z M1125,659h10v1h-10z M1140,659h12v1h-12z M1125,660h10v1h-10z M1141,660h12v1h-12z M1125,661h10v1h-10z M1142,661h11v1h-11z M1125,662h10v1h-10z M1142,662h12v1h-12z M1125,663h10v1h-10z M1143,663h12v1h-12z M1125,664h10v1h-10z M1144,664h12v1h-12z M1125,665h10v1h-10z M1145,665h11v1h-11z M1125,666h10v1h-10z M1145,666h12v1h-12z M1125,667h10v1h-10z M1146,667h12v1h-12z M1125,668h10v1h-10z M1147,668h12v1h-12z M1125,669h9v1h-9z M1148,669h11v1h-11z"/>
  </g>
</svg>