<?xml version="1.0" encoding="UTF-8"?>
<svg xmlns="http://www.w3.org/2000/svg" width="400" height="160" viewBox="0 0 400 160" fill="white">
  <defs>
    <clipPath id="clip-path">
      <path id="path_4" data-name="path 4" d="M0-28.374H139.032V-61.565H0Z" transform="translate(0 61.565)" fill="white" />
    </clipPath>
  </defs>
  <g transform="translate(30.00,39.42) scale(2.445480) translate(-0.00,-0.00)"><g id="group_870" data-name="group 870" transform="translate(-32.304 -39.326)">
    <g id="group_4" data-name="group 4" transform="translate(32.304 39.326)" clip-path="url(#clip-path)">
      <g id="group_1" data-name="group 1" transform="translate(0 0)">
        <path id="path_1" data-name="path 1" d="M-12.969-20.012l4.518,9.407H2.927l-5.578-10.85A12.515,12.515,0,0,0,5.158-33.267c0-6.361-4.574-10.155-11.267-10.155H-22.116L-28.14-10.605h10.653l1.729-9.407Zm-.112-14.8h4.35c2.566,0,3.458,1.122,3.458,2.779,0,2.405-1.506,3.9-4.462,3.9h-4.573ZM3.865-16a5.782,5.782,0,0,0,5.912,5.772A5.8,5.8,0,0,0,15.745-16a5.763,5.763,0,0,0-5.968-5.772A5.749,5.749,0,0,0,3.865-16M36.279-43.422,16.87-10.605H27.578l2.733-4.757H42.471l.836,4.757H54.016l-6.47-32.817Zm3.346,12.133,1.339,7.536H35.219ZM55.8-16a5.782,5.782,0,0,0,5.913,5.772A5.8,5.8,0,0,0,67.679-16a5.763,5.763,0,0,0-5.968-5.772A5.749,5.749,0,0,0,55.8-16m26.224-3.474L84.811-34.6h2.622c4.127,0,6.246,2.245,6.246,6.04,0,5.452-3.681,9.086-9.035,9.086ZM69.808-10.605H83.584c12.159,0,20.86-7.7,20.86-19.348,0-8.284-5.131-13.468-14.836-13.468H75.832Z" transform="translate(28.14 43.422)" fill="white" />
      </g>
      <g id="group_2" data-name="group 2" transform="translate(134.205 1.525)">
        <path id="path_2" data-name="path 2" d="M-1.215-.695H-.8c.242,0,.326.106.326.263,0,.227-.142.368-.421.368h-.432ZM-1.2.7l.426.888H.3L-.231.567A1.182,1.182,0,0,0,.507-.548.949.949,0,0,0-.557-1.507H-2.068l-.569,3.1h1.005L-1.468.7Z" transform="translate(2.637 1.507)" fill="white" />
      </g>
      <g id="group_3" data-name="group 3" transform="translate(132.537 0)">
        <path id="path_3" data-name="path 3" d="M-2.776-5.3a3.307,3.307,0,0,1-2.3-.907,3.006,3.006,0,0,1-.951-2.19,3.006,3.006,0,0,1,.951-2.19,3.307,3.307,0,0,1,2.3-.907,3.307,3.307,0,0,1,2.3.907,3.006,3.006,0,0,1,.951,2.19A3.006,3.006,0,0,1-.48-6.2a3.307,3.307,0,0,1-2.3.907m0-5.473a2.437,2.437,0,0,0-2.49,2.375,2.437,2.437,0,0,0,2.49,2.375A2.438,2.438,0,0,0-.286-8.394a2.438,2.438,0,0,0-2.49-2.375" transform="translate(6.023 11.492)" fill="white" />
      </g>
    </g>
  </g>
</g></svg>