<?xml version="1.0" encoding="UTF-8"?>
<svg xmlns="http://www.w3.org/2000/svg" viewBox="0 0 400 160" width="400" height="160">
  <g transform="translate(30.00,60.12) scale(0.185792)" fill="white">
<path d="M73,0h145v1h-145z M68,1h154v1h-154z M62,2h164v1h-164z M58,3h172v1h-172z M55,4h177v1h-177z M52,5h182v1h-182z M50,6h186v1h-186z M48,7h190v1h-190z M47,8h192v1h-192z M45,9h195v1h-195z M44,10h197v1h-197z M43,11h199v1h-199z M42,12h201v1h-201z M41,13h202v1h-202z M40,14h204v1h-204z M39,15h205v1h-205z M39,16h206v1h-206z M38,17h207v1h-207z M37,18h209v1h-209z M37,19h209v1h-209z M36,20h210v1h-210z M36,21h210v1h-210z M35,22h212v1h-212z M35,23h212v1h-212z M34,24h213v1h-213z M34,25h213v1h-213z M34,26h213v1h-213z M33,27h214v1h-214z M33,28h214v1h-214z M33,29h214v1h-214z M32,30h215v1h-215z M32,31h215v1h-215z M32,32h215v1h-215z M31,33h216v1h-216z M31,34h216v1h-216z M31,35h216v1h-216z M31,36h216v1h-216z M30,37h217v1h-217z M30,38h216v1h-216z M30,39h216v1h-216z M30,40h216v1h-216z M30,41h77v1h-77z M164,41h82v1h-82z M29,42h71v1h-71z M171,42h75v1h-75z M29,43h68v1h-68z M174,43h71v1h-71z M29,44h66v1h-66z M176,44h69v1h-69z M29,45h65v1h-65z M177,45h68v1h-68z M29,46h64v1h-64z M178,46h67v1h-67z M28,47h64v1h-64z M178,47h67v1h-67z M28,48h64v1h-64z M179,48h65v1h-65z M28,49h64v1h-64z M179,49h65v1h-65z M28,50h64v1h-64z M179,50h65v1h-65z M28,51h63v1h-63z M179,51h65v1h-65z M27,52h64v1h-64z M178,52h66v1h-66z M27,53h64v1h-64z M178,53h65v1h-65z M27,54h65v1h-65z M178,54h65v1h-65z M27,55h65v1h-65z M178,55h65v1h-65z M27,56h65v1h-65z M178,56h65v1h-65z M26,57h67v1h-67z M178,57h65v1h-65z M26,58h68v1h-68z M177,58h65v1h-65z M26,59h69v1h-69z M177,59h65v1h-65z M26,60h70v1h-70z M177,60h65v1h-65z M26,61h72v1h-72z M177,61h65v1h-65z M26,62h74v1h-74z M177,62h65v1h-65z M25,63h76v1h-76z M176,63h66v1h-66z M25,64h78v1h-78z M176,64h65v1h-65z M25,65h80v1h-80z M176,65h65v1h-65z M25,66h82v1h-82z M176,66h65v1h-65z M25,67h84v1h-84z M176,67h65v1h-65z M25,68h86v1h-86z M175,68h66v1h-66z M25,69h88v1h-88z M175,69h65v1h-65z M25,70h90v1h-90z M175,70h65v1h-65z M25,71h92v1h-92z M175,71h65v1h-65z M25,72h94v1h-94z M175,72h65v1h-65z M25,73h96v1h-96z M174,73h66v1h-66z M25,74h98v1h-98z M175,74h64v1h-64z M25,75h100v1h-100z M25,76h102v1h-102z M26,77h103v1h-103z M26,78h105v1h-105z M26,79h107v1h-107z M26,80h109v1h-109z M27,81h110v1h-110z M27,82h112v1h-112z M28,83h113v1h-113z M28,84h115v1h-115z M29,85h116v1h-116z M30,86h117v1h-117z M30,87h119v1h-119z M31,88h120v1h-120z M32,89h121v1h-121z M33,90h122v1h-122z M34,91h123v1h-123z M35,92h124v1h-124z M36,93h125v1h-125z M37,94h126v1h-126z M39,95h126v1h-126z M40,96h128v1h-128z M41,97h128v1h-128z M43,98h129v1h-129z M44,99h130v1h-130z M46,100h130v1h-130z M47,101h131v1h-131z M49,102h131v1h-131z M51,103h131v1h-131z M53,104h131v1h-131z M55,105h131v1h-131z M57,106h131v1h-131z M59,107h131v1h-131z M61,108h131v1h-131z M63,109h131v1h-131z M65,110h131v1h-131z M67,111h131v1h-131z M69,112h131v1h-131z M71,113h131v1h-131z M73,114h131v1h-131z M75,115h131v1h-131z M77,116h131v1h-131z M79,117h131v1h-131z M81,118h131v1h-131z M83,119h131v1h-131z M85,120h130v1h-130z M87,121h130v1h-130z M89,122h130v1h-130z M91,123h129v1h-129z M93,124h128v1h-128z M95,125h127v1h-127z M98,126h125v1h-125z M100,127h124v1h-124z M102,128h123v1h-123z M103,129h123v1h-123z M106,130h120v1h-120z M108,131h119v1h-119z M110,132h117v1h-117z M112,133h116v1h-116z M114,134h114v1h-114z M115,135h113v1h-113z M117,136h111v1h-111z M119,137h110v1h-110z M122,138h107v1h-107z M7,139h62v1h-62z M123,139h106v1h-106z M7,140h62v1h-62z M126,140h103v1h-103z M7,141h62v1h-62z M128,141h101v1h-101z M7,142h62v1h-62z M130,142h98v1h-98z M6,143h63v1h-63z M132,143h96v1h-96z M6,144h63v1h-63z M134,144h94v1h-94z M6,145h62v1h-62z M136,145h92v1h-92z M6,146h62v1h-62z M138,146h90v1h-90z M6,147h62v1h-62z M140,147h88v1h-88z M5,148h63v1h-63z M141,148h87v1h-87z M5,149h63v1h-63z M143,149h84v1h-84z M5,150h62v1h-62z M145,150h82v1h-82z M5,151h62v1h-62z M147,151h80v1h-80z M5,152h62v1h-62z M148,152h79v1h-79z M4,153h63v1h-63z M149,153h78v1h-78z M4,154h63v1h-63z M151,154h75v1h-75z M4,155h62v1h-62z M152,155h74v1h-74z M4,156h62v1h-62z M152,156h74v1h-74z M4,157h62v1h-62z M153,157h73v1h-73z M3,158h63v1h-63z M153,158h73v1h-73z M3,159h63v1h-63z M153,159h72v1h-72z M3,160h62v1h-62z M153,160h72v1h-72z M3,161h62v1h-62z M153,161h72v1h-72z M3,162h62v1h-62z M153,162h72v1h-72z M2,163h63v1h-63z M153,163h71v1h-71z M2,164h63v1h-63z M153,164h71v1h-71z M2,165h64v1h-64z M152,165h72v1h-72z M2,166h64v1h-64z M152,166h72v1h-72z M2,167h65v1h-65z M151,167h73v1h-73z M1,168h67v1h-67z M150,168h73v1h-73z M1,169h69v1h-69z M148,169h75v1h-75z M1,170h73v1h-73z M145,170h78v1h-78z M1,171h80v1h-80z M135,171h88v1h-88z M1,172h222v1h-222z M1,173h221v1h-221z M0,174h222v1h-222z M0,175h222v1h-222z M0,176h222v1h-222z M0,177h221v1h-221z M0,178h221v1h-221z M0,179h221v1h-221z M0,180h221v1h-221z M0,181h220v1h-220z M0,182h220v1h-220z M0,183h220v1h-220z M0,184h219v1h-219z M0,185h219v1h-219z M1,186h217v1h-217z M1,187h217v1h-217z M1,188h217v1h-217z M1,189h216v1h-216z M2,190h215v1h-215z M2,191h214v1h-214z M2,192h214v1h-214z M3,193h212v1h-212z M3,194h211v1h-211z M3,195h211v1h-211z M4,196h209v1h-209z M5,197h207v1h-207z M5,198h207v1h-207z M6,199h205v1h-205z M7,200h203v1h-203z M8,201h201v1h-201z M9,202h199v1h-199z M10,203h196v1h-196z M12,204h193v1h-193z M13,205h190v1h-190z M15,206h186v1h-186z M17,207h182v1h-182z M20,208h177v1h-177z M23,209h171v1h-171z M26,210h164v1h-164z M32,211h153v1h-153z M40,212h1v1h-1z M43,212h128v1h-128z M172,212h2v1h-2z"/>
<path d="M803,0h55v1h-55z M795,1h72v1h-72z M785,2h91v1h-91z M777,3h106v1h-106z M772,4h116v1h-116z M767,5h126v1h-126z M763,6h133v1h-133z M759,7h140v1h-140z M756,8h146v1h-146z M753,9h152v1h-152z M751,10h156v1h-156z M748,11h161v1h-161z M746,12h165v1h-165z M744,13h169v1h-169z M742,14h172v1h-172z M740,15h176v1h-176z M738,16h179v1h-179z M736,17h183v1h-183z M735,18h185v1h-185z M733,19h188v1h-188z M732,20h190v1h-190z M730,21h193v1h-193z M729,22h195v1h-195z M728,23h197v1h-197z M726,24h200v1h-200z M725,25h202v1h-202z M724,26h204v1h-204z M723,27h205v1h-205z M722,28h207v1h-207z M721,29h209v1h-209z M720,30h210v1h-210z M719,31h212v1h-212z M718,32h213v1h-213z M717,33h215v1h-215z M716,34h216v1h-216z M716,35h217v1h-217z M715,36h218v1h-218z M714,37h220v1h-220z M713,38h221v1h-221z M713,39h221v1h-221z M712,40h223v1h-223z M711,41h224v1h-224z M711,42h224v1h-224z M710,43h225v1h-225z M709,44h227v1h-227z M709,45h227v1h-227z M708,46h228v1h-228z M708,47h98v1h-98z M807,47h1v1h-1z M809,47h1v1h-1z M838,47h98v1h-98z M707,48h90v1h-90z M847,48h89v1h-89z M707,49h85v1h-85z M852,49h85v1h-85z M706,50h83v1h-83z M855,50h82v1h-82z M706,51h80v1h-80z M857,51h80v1h-80z M705,52h79v1h-79z M859,52h78v1h-78z M705,53h78v1h-78z M860,53h77v1h-77z M704,54h77v1h-77z M861,54h76v1h-76z M704,55h76v1h-76z M862,55h75v1h-75z M704,56h75v1h-75z M863,56h74v1h-74z M703,57h75v1h-75z M863,57h74v1h-74z M703,58h74v1h-74z M864,58h73v1h-73z M703,59h73v1h-73z M864,59h73v1h-73z M702,60h73v1h-73z M864,60h73v1h-73z M702,61h72v1h-72z M865,61h72v1h-72z M702,62h72v1h-72z M865,62h72v1h-72z M701,63h72v1h-72z M865,63h72v1h-72z M701,64h72v1h-72z M865,64h72v1h-72z M701,65h71v1h-71z M865,65h72v1h-72z M700,66h72v1h-72z M865,66h72v1h-72z M700,67h71v1h-71z M865,67h72v1h-72z M700,68h71v1h-71z M865,68h71v1h-71z M700,69h70v1h-70z M865,69h71v1h-71z M699,70h71v1h-71z M865,70h71v1h-71z M699,71h71v1h-71z M865,71h71v1h-71z M699,72h70v1h-70z M865,72h71v1h-71z M699,73h70v1h-70z M865,73h71v1h-71z M698,74h71v1h-71z M865,74h71v1h-71z M698,75h70v1h-70z M865,75h70v1h-70z M698,76h70v1h-70z M865,76h70v1h-70z M698,77h70v1h-70z M865,77h70v1h-70z M698,78h70v1h-70z M865,78h70v1h-70z M697,79h70v1h-70z M864,79h71v1h-71z M697,80h70v1h-70z M864,80h71v1h-71z M697,81h70v1h-70z M864,81h70v1h-70z M697,82h70v1h-70z M864,82h70v1h-70z M697,83h69v1h-69z M864,83h70v1h-70z M697,84h69v1h-69z M863,84h71v1h-71z M696,85h70v1h-70z M863,85h71v1h-71z M696,86h70v1h-70z M863,86h70v1h-70z M696,87h70v1h-70z M863,87h70v1h-70z M696,88h69v1h-69z M863,88h70v1h-70z M696,89h69v1h-69z M863,89h70v1h-70z M695,90h70v1h-70z M862,90h71v1h-71z M695,91h70v1h-70z M862,91h70v1h-70z M695,92h70v1h-70z M862,92h70v1h-70z M695,93h69v1h-69z M862,93h70v1h-70z M695,94h69v1h-69z M862,94h70v1h-70z M695,95h69v1h-69z M861,95h71v1h-71z M694,96h70v1h-70z M861,96h71v1h-71z M694,97h70v1h-70z M861,97h70v1h-70z M694,98h69v1h-69z M861,98h70v1h-70z M694,99h69v1h-69z M861,99h70v1h-70z M694,100h69v1h-69z M860,100h71v1h-71z M693,101h70v1h-70z M860,101h71v1h-71z M693,102h70v1h-70z M860,102h70v1h-70z M693,103h69v1h-69z M860,103h70v1h-70z M693,104h69v1h-69z M860,104h70v1h-70z M693,105h69v1h-69z M859,105h71v1h-71z M693,106h69v1h-69z M859,106h71v1h-71z M692,107h70v1h-70z M859,107h70v1h-70z M692,108h69v1h-69z M859,108h70v1h-70z M692,109h69v1h-69z M859,109h70v1h-70z M692,110h69v1h-69z M858,110h71v1h-71z M692,111h69v1h-69z M858,111h71v1h-71z M691,112h70v1h-70z M858,112h71v1h-71z M691,113h69v1h-69z M858,113h70v1h-70z M691,114h69v1h-69z M858,114h70v1h-70z M691,115h69v1h-69z M857,115h71v1h-71z M691,116h69v1h-69z M857,116h71v1h-71z M691,117h69v1h-69z M857,117h71v1h-71z M690,118h69v1h-69z M857,118h70v1h-70z M690,119h69v1h-69z M857,119h70v1h-70z M690,120h69v1h-69z M857,120h70v1h-70z M690,121h69v1h-69z M856,121h71v1h-71z M690,122h69v1h-69z M856,122h71v1h-71z M689,123h69v1h-69z M856,123h70v1h-70z M689,124h69v1h-69z M856,124h70v1h-70z M689,125h69v1h-69z M856,125h70v1h-70z M689,126h69v1h-69z M855,126h71v1h-71z M689,127h69v1h-69z M855,127h71v1h-71z M689,128h68v1h-68z M855,128h70v1h-70z M688,129h69v1h-69z M855,129h70v1h-70z M688,130h69v1h-69z M855,130h70v1h-70z M688,131h69v1h-69z M854,131h71v1h-71z M688,132h69v1h-69z M854,132h71v1h-71z M688,133h68v1h-68z M854,133h71v1h-71z M687,134h69v1h-69z M854,134h70v1h-70z M687,135h69v1h-69z M854,135h70v1h-70z M687,136h69v1h-69z M853,136h71v1h-71z M687,137h69v1h-69z M853,137h71v1h-71z M687,138h69v1h-69z M853,138h71v1h-71z M687,139h68v1h-68z M853,139h70v1h-70z M686,140h69v1h-69z M852,140h71v1h-71z M686,141h69v1h-69z M852,141h71v1h-71z M686,142h69v1h-69z M852,142h71v1h-71z M686,143h69v1h-69z M851,143h72v1h-72z M686,144h69v1h-69z M851,144h71v1h-71z M686,145h69v1h-69z M851,145h71v1h-71z M686,146h69v1h-69z M850,146h72v1h-72z M686,147h69v1h-69z M850,147h71v1h-71z M686,148h69v1h-69z M849,148h72v1h-72z M685,149h70v1h-70z M849,149h72v1h-72z M685,150h70v1h-70z M848,150h73v1h-73z M685,151h70v1h-70z M848,151h72v1h-72z M685,152h71v1h-71z M847,152h73v1h-73z M685,153h71v1h-71z M847,153h73v1h-73z M685,154h71v1h-71z M846,154h73v1h-73z M685,155h71v1h-71z M845,155h74v1h-74z M685,156h72v1h-72z M844,156h74v1h-74z M685,157h72v1h-72z M844,157h74v1h-74z M685,158h73v1h-73z M843,158h75v1h-75z M685,159h74v1h-74z M841,159h76v1h-76z M686,160h74v1h-74z M840,160h77v1h-77z M686,161h75v1h-75z M838,161h78v1h-78z M686,162h76v1h-76z M837,162h79v1h-79z M686,163h78v1h-78z M835,163h80v1h-80z M686,164h80v1h-80z M832,164h83v1h-83z M686,165h83v1h-83z M829,165h85v1h-85z M686,166h87v1h-87z M824,166h90v1h-90z M686,167h96v1h-96z M815,167h98v1h-98z M687,168h226v1h-226z M687,169h225v1h-225z M687,170h225v1h-225z M687,171h224v1h-224z M688,172h222v1h-222z M688,173h222v1h-222z M688,174h221v1h-221z M689,175h219v1h-219z M689,176h219v1h-219z M690,177h217v1h-217z M690,178h216v1h-216z M690,179h215v1h-215z M691,180h213v1h-213z M692,181h211v1h-211z M692,182h210v1h-210z M693,183h209v1h-209z M693,184h208v1h-208z M694,185h206v1h-206z M695,186h203v1h-203z M695,187h202v1h-202z M696,188h200v1h-200z M697,189h198v1h-198z M698,190h196v1h-196z M699,191h193v1h-193z M700,192h191v1h-191z M701,193h189v1h-189z M702,194h186v1h-186z M704,195h182v1h-182z M705,196h180v1h-180z M707,197h176v1h-176z M708,198h173v1h-173z M710,199h169v1h-169z M711,200h166v1h-166z M713,201h162v1h-162z M715,202h157v1h-157z M718,203h152v1h-152z M720,204h147v1h-147z M723,205h140v1h-140z M726,206h134v1h-134z M730,207h126v1h-126z M734,208h117v1h-117z M739,209h107v1h-107z M746,210h92v1h-92z M755,211h75v1h-75z M767,212h1v1h-1z M770,212h1v1h-1z M772,212h1v1h-1z M774,212h36v1h-36z M811,212h1v1h-1z M813,212h1v1h-1z M816,212h1v1h-1z M792,213h1v1h-1z"/>
<path d="M1418,0h51v1h-51z M1410,1h68v1h-68z M1399,2h89v1h-89z M1391,3h104v1h-104z M1385,4h116v1h-116z M1380,5h125v1h-125z M1376,6h133v1h-133z M1373,7h139v1h-139z M1369,8h146v1h-146z M1367,9h151v1h-151z M1364,10h156v1h-156z M1361,11h161v1h-161z M1359,12h165v1h-165z M1357,13h169v1h-169z M1355,14h172v1h-172z M1353,15h176v1h-176z M1351,16h179v1h-179z M1350,17h182v1h-182z M1348,18h185v1h-185z M1346,19h188v1h-188z M1345,20h190v1h-190z M1343,21h193v1h-193z M1342,22h195v1h-195z M1341,23h197v1h-197z M1340,24h199v1h-199z M1338,25h202v1h-202z M1337,26h204v1h-204z M1336,27h205v1h-205z M1335,28h207v1h-207z M1334,29h209v1h-209z M1333,30h210v1h-210z M1332,31h212v1h-212z M1331,32h213v1h-213z M1330,33h215v1h-215z M1330,34h215v1h-215z M1329,35h217v1h-217z M1328,36h218v1h-218z M1327,37h219v1h-219z M1327,38h220v1h-220z M1326,39h221v1h-221z M1325,40h222v1h-222z M1324,41h224v1h-224z M1324,42h224v1h-224z M1323,43h225v1h-225z M1323,44h225v1h-225z M1322,45h227v1h-227z M1321,46h228v1h-228z M1321,47h100v1h-100z M1422,47h1v1h-1z M1450,47h99v1h-99z M1320,48h90v1h-90z M1460,48h89v1h-89z M1320,49h85v1h-85z M1465,49h84v1h-84z M1319,50h83v1h-83z M1468,50h81v1h-81z M1319,51h80v1h-80z M1470,51h80v1h-80z M1318,52h79v1h-79z M1471,52h79v1h-79z M1318,53h77v1h-77z M1473,53h77v1h-77z M1318,54h76v1h-76z M1474,54h76v1h-76z M1317,55h76v1h-76z M1475,55h75v1h-75z M1317,56h74v1h-74z M1476,56h74v1h-74z M1316,57h74v1h-74z M1476,57h74v1h-74z M1316,58h73v1h-73z M1477,58h73v1h-73z M1315,59h74v1h-74z M1477,59h73v1h-73z M1315,60h73v1h-73z M1477,60h73v1h-73z M1315,61h72v1h-72z M1478,61h72v1h-72z M1315,62h71v1h-71z M1478,62h72v1h-72z M1314,63h72v1h-72z M1478,63h72v1h-72z M1314,64h71v1h-71z M1478,64h72v1h-72z M1314,65h71v1h-71z M1478,65h72v1h-72z M1313,66h71v1h-71z M1478,66h72v1h-72z M1313,67h71v1h-71z M1478,67h71v1h-71z M1313,68h71v1h-71z M1478,68h71v1h-71z M1312,69h71v1h-71z M1478,69h71v1h-71z M1312,70h71v1h-71z M1478,70h71v1h-71z M1312,71h70v1h-70z M1478,71h71v1h-71z M1312,72h70v1h-70z M1478,72h71v1h-71z M1312,73h70v1h-70z M1478,73h71v1h-71z M1311,74h70v1h-70z M1478,74h70v1h-70z M1311,75h70v1h-70z M1478,75h70v1h-70z M1311,76h70v1h-70z M1478,76h70v1h-70z M1311,77h70v1h-70z M1478,77h70v1h-70z M1311,78h69v1h-69z M1477,78h71v1h-71z M1310,79h70v1h-70z M1477,79h71v1h-71z M1310,80h70v1h-70z M1477,80h70v1h-70z M1310,81h70v1h-70z M1477,81h70v1h-70z M1310,82h70v1h-70z M1477,82h70v1h-70z M1310,83h69v1h-69z M1477,83h70v1h-70z M1309,84h70v1h-70z M1476,84h71v1h-71z M1309,85h70v1h-70z M1476,85h71v1h-71z M1309,86h70v1h-70z M1476,86h70v1h-70z M1309,87h70v1h-70z M1476,87h70v1h-70z M1309,88h69v1h-69z M1476,88h70v1h-70z M1309,89h69v1h-69z M1475,89h71v1h-71z M1308,90h70v1h-70z M1475,90h71v1h-71z M1308,91h70v1h-70z M1475,91h70v1h-70z M1308,92h70v1h-70z M1475,92h70v1h-70z M1308,93h69v1h-69z M1475,93h70v1h-70z M1308,94h69v1h-69z M1474,94h71v1h-71z M1307,95h70v1h-70z M1474,95h71v1h-71z M1307,96h70v1h-70z M1474,96h71v1h-71z M1307,97h70v1h-70z M1474,97h70v1h-70z M1307,98h69v1h-69z M1474,98h70v1h-70z M1307,99h69v1h-69z M1474,99h70v1h-70z M1306,100h70v1h-70z M1473,100h71v1h-71z M1306,101h70v1h-70z M1473,101h71v1h-71z M1306,102h70v1h-70z M1473,102h70v1h-70z M1306,103h70v1h-70z M1473,103h70v1h-70z M1306,104h69v1h-69z M1473,104h70v1h-70z M1306,105h69v1h-69z M1472,105h71v1h-71z M1305,106h70v1h-70z M1472,106h71v1h-71z M1305,107h70v1h-70z M1472,107h71v1h-71z M1305,108h70v1h-70z M1472,108h70v1h-70z M1305,109h69v1h-69z M1472,109h70v1h-70z M1305,110h69v1h-69z M1471,110h71v1h-71z M1305,111h69v1h-69z M1471,111h71v1h-71z M1304,112h70v1h-70z M1471,112h71v1h-71z M1304,113h70v1h-70z M1471,113h70v1h-70z M1304,114h69v1h-69z M1471,114h70v1h-70z M1304,115h69v1h-69z M1470,115h71v1h-71z M1304,116h69v1h-69z M1470,116h71v1h-71z M1303,117h70v1h-70z M1470,117h71v1h-71z M1303,118h70v1h-70z M1470,118h71v1h-71z M1303,119h70v1h-70z M1470,119h70v1h-70z M1303,120h69v1h-69z M1470,120h70v1h-70z M1303,121h69v1h-69z M1469,121h71v1h-71z M1303,122h69v1h-69z M1469,122h71v1h-71z M1302,123h70v1h-70z M1469,123h71v1h-71z M1302,124h70v1h-70z M1469,124h71v1h-71z M1302,125h69v1h-69z M1469,125h70v1h-70z M1302,126h69v1h-69z M1468,126h71v1h-71z M1302,127h69v1h-69z M1468,127h71v1h-71z M1301,128h70v1h-70z M1468,128h71v1h-71z M1301,129h70v1h-70z M1468,129h71v1h-71z M1301,130h69v1h-69z M1468,130h70v1h-70z M1301,131h69v1h-69z M1467,131h71v1h-71z M1301,132h69v1h-69z M1467,132h71v1h-71z M1301,133h69v1h-69z M1467,133h71v1h-71z M1300,134h70v1h-70z M1467,134h71v1h-71z M1300,135h70v1h-70z M1466,135h72v1h-72z M1300,136h69v1h-69z M1466,136h71v1h-71z M1300,137h69v1h-69z M1466,137h71v1h-71z M1300,138h69v1h-69z M1466,138h71v1h-71z M1299,139h70v1h-70z M1465,139h72v1h-72z M1299,140h70v1h-70z M1465,140h71v1h-71z M1299,141h70v1h-70z M1465,141h71v1h-71z M1299,142h70v1h-70z M1465,142h71v1h-71z M1299,143h70v1h-70z M1464,143h72v1h-72z M1299,144h69v1h-69z M1464,144h72v1h-72z M1299,145h69v1h-69z M1464,145h71v1h-71z M1299,146h69v1h-69z M1463,146h72v1h-72z M1298,147h70v1h-70z M1463,147h72v1h-72z M1298,148h70v1h-70z M1462,148h72v1h-72z M1298,149h71v1h-71z M1462,149h72v1h-72z M1298,150h71v1h-71z M1461,150h73v1h-73z M1298,151h71v1h-71z M1461,151h72v1h-72z M1298,152h71v1h-71z M1460,152h73v1h-73z M1298,153h71v1h-71z M1460,153h73v1h-73z M1298,154h71v1h-71z M1459,154h73v1h-73z M1298,155h72v1h-72z M1458,155h74v1h-74z M1298,156h72v1h-72z M1458,156h74v1h-74z M1298,157h73v1h-73z M1457,157h74v1h-74z M1298,158h73v1h-73z M1456,158h75v1h-75z M1298,159h74v1h-74z M1454,159h76v1h-76z M1298,160h75v1h-75z M1453,160h77v1h-77z M1298,161h76v1h-76z M1452,161h78v1h-78z M1299,162h76v1h-76z M1450,162h79v1h-79z M1299,163h78v1h-78z M1448,163h81v1h-81z M1299,164h80v1h-80z M1445,164h83v1h-83z M1299,165h83v1h-83z M1442,165h86v1h-86z M1299,166h87v1h-87z M1437,166h90v1h-90z M1299,167h96v1h-96z M1428,167h98v1h-98z M1299,168h227v1h-227z M1300,169h225v1h-225z M1300,170h225v1h-225z M1300,171h224v1h-224z M1301,172h222v1h-222z M1301,173h222v1h-222z M1301,174h221v1h-221z M1301,175h220v1h-220z M1302,176h218v1h-218z M1302,177h218v1h-218z M1303,178h216v1h-216z M1303,179h215v1h-215z M1304,180h213v1h-213z M1304,181h212v1h-212z M1305,182h210v1h-210z M1305,183h209v1h-209z M1306,184h207v1h-207z M1307,185h205v1h-205z M1308,186h203v1h-203z M1308,187h202v1h-202z M1309,188h200v1h-200z M1310,189h198v1h-198z M1311,190h196v1h-196z M1312,191h193v1h-193z M1313,192h191v1h-191z M1314,193h188v1h-188z M1315,194h186v1h-186z M1317,195h182v1h-182z M1318,196h180v1h-180z M1320,197h176v1h-176z M1321,198h173v1h-173z M1323,199h169v1h-169z M1325,200h165v1h-165z M1326,201h162v1h-162z M1329,202h156v1h-156z M1331,203h152v1h-152z M1334,204h146v1h-146z M1336,205h140v1h-140z M1340,206h133v1h-133z M1343,207h126v1h-126z M1347,208h117v1h-117z M1352,209h107v1h-107z M1359,210h92v1h-92z M1368,211h75v1h-75z M1381,212h1v1h-1z M1383,212h1v1h-1z M1385,212h1v1h-1z M1387,212h36v1h-36z M1424,212h1v1h-1z M1427,212h1v1h-1z M1429,212h1v1h-1z M1403,213h1v1h-1z M1405,213h1v1h-1z"/>
<path d="M333,2h98v1h-98z M333,3h99v1h-99z M332,4h100v1h-100z M332,5h101v1h-101z M331,6h102v1h-102z M331,7h102v1h-102z M330,8h103v1h-103z M330,9h103v1h-103z M329,10h105v1h-105z M329,11h105v1h-105z M328,12h106v1h-106z M327,13h107v1h-107z M327,14h107v1h-107z M326,15h109v1h-109z M326,16h109v1h-109z M325,17h110v1h-110z M325,18h110v1h-110z M324,19h111v1h-111z M324,20h112v1h-112z M323,21h113v1h-113z M323,22h113v1h-113z M322,23h114v1h-114z M322,24h114v1h-114z M321,25h116v1h-116z M321,26h116v1h-116z M320,27h117v1h-117z M320,28h117v1h-117z M319,29h118v1h-118z M319,30h119v1h-119z M318,31h120v1h-120z M318,32h120v1h-120z M317,33h121v1h-121z M317,34h121v1h-121z M316,35h123v1h-123z M316,36h123v1h-123z M315,37h124v1h-124z M314,38h125v1h-125z M314,39h125v1h-125z M313,40h127v1h-127z M313,41h127v1h-127z M312,42h128v1h-128z M312,43h128v1h-128z M311,44h129v1h-129z M311,45h130v1h-130z M310,46h131v1h-131z M310,47h66v1h-66z M377,47h64v1h-64z M309,48h67v1h-67z M377,48h64v1h-64z M309,49h66v1h-66z M377,49h64v1h-64z M308,50h67v1h-67z M377,50h65v1h-65z M308,51h66v1h-66z M378,51h64v1h-64z M307,52h67v1h-67z M378,52h64v1h-64z M307,53h66v1h-66z M378,53h64v1h-64z M306,54h67v1h-67z M378,54h64v1h-64z M306,55h66v1h-66z M378,55h65v1h-65z M305,56h67v1h-67z M378,56h65v1h-65z M305,57h66v1h-66z M378,57h65v1h-65z M304,58h67v1h-67z M379,58h64v1h-64z M304,59h66v1h-66z M379,59h64v1h-64z M303,60h67v1h-67z M379,60h65v1h-65z M303,61h66v1h-66z M379,61h65v1h-65z M302,62h67v1h-67z M379,62h65v1h-65z M301,63h67v1h-67z M379,63h65v1h-65z M301,64h67v1h-67z M380,64h64v1h-64z M300,65h67v1h-67z M380,65h65v1h-65z M300,66h67v1h-67z M380,66h65v1h-65z M299,67h67v1h-67z M380,67h65v1h-65z M299,68h67v1h-67z M380,68h65v1h-65z M298,69h67v1h-67z M380,69h65v1h-65z M298,70h67v1h-67z M380,70h66v1h-66z M297,71h67v1h-67z M381,71h65v1h-65z M297,72h67v1h-67z M381,72h65v1h-65z M296,73h67v1h-67z M381,73h65v1h-65z M296,74h67v1h-67z M381,74h65v1h-65z M295,75h67v1h-67z M381,75h66v1h-66z M295,76h67v1h-67z M381,76h66v1h-66z M294,77h67v1h-67z M382,77h65v1h-65z M294,78h67v1h-67z M382,78h65v1h-65z M293,79h67v1h-67z M382,79h65v1h-65z M293,80h67v1h-67z M382,80h66v1h-66z M292,81h67v1h-67z M382,81h66v1h-66z M292,82h67v1h-67z M382,82h66v1h-66z M291,83h67v1h-67z M383,83h65v1h-65z M291,84h67v1h-67z M383,84h65v1h-65z M290,85h67v1h-67z M383,85h66v1h-66z M290,86h67v1h-67z M383,86h66v1h-66z M289,87h67v1h-67z M383,87h66v1h-66z M289,88h67v1h-67z M383,88h66v1h-66z M288,89h67v1h-67z M383,89h66v1h-66z M288,90h67v1h-67z M384,90h66v1h-66z M287,91h67v1h-67z M384,91h66v1h-66z M287,92h67v1h-67z M384,92h66v1h-66z M286,93h67v1h-67z M384,93h66v1h-66z M285,94h68v1h-68z M384,94h66v1h-66z M285,95h67v1h-67z M384,95h67v1h-67z M284,96h68v1h-68z M384,96h67v1h-67z M284,97h67v1h-67z M385,97h66v1h-66z M283,98h68v1h-68z M385,98h66v1h-66z M283,99h67v1h-67z M385,99h66v1h-66z M282,100h68v1h-68z M385,100h67v1h-67z M282,101h67v1h-67z M385,101h67v1h-67z M281,102h68v1h-68z M385,102h67v1h-67z M281,103h67v1h-67z M385,103h67v1h-67z M280,104h68v1h-68z M386,104h66v1h-66z M280,105h67v1h-67z M386,105h67v1h-67z M279,106h68v1h-68z M386,106h67v1h-67z M279,107h67v1h-67z M386,107h67v1h-67z M278,108h68v1h-68z M386,108h67v1h-67z M278,109h67v1h-67z M386,109h67v1h-67z M277,110h68v1h-68z M387,110h67v1h-67z M277,111h67v1h-67z M387,111h67v1h-67z M276,112h67v1h-67z M387,112h67v1h-67z M276,113h67v1h-67z M387,113h67v1h-67z M275,114h67v1h-67z M387,114h67v1h-67z M275,115h67v1h-67z M387,115h68v1h-68z M274,116h67v1h-67z M387,116h68v1h-68z M274,117h67v1h-67z M388,117h67v1h-67z M273,118h67v1h-67z M388,118h67v1h-67z M273,119h67v1h-67z M388,119h67v1h-67z M272,120h67v1h-67z M388,120h68v1h-68z M272,121h67v1h-67z M388,121h68v1h-68z M271,122h67v1h-67z M388,122h68v1h-68z M271,123h67v1h-67z M389,123h67v1h-67z M270,124h67v1h-67z M389,124h67v1h-67z M270,125h67v1h-67z M389,125h68v1h-68z M269,126h67v1h-67z M389,126h68v1h-68z M269,127h67v1h-67z M389,127h68v1h-68z M268,128h67v1h-67z M389,128h68v1h-68z M267,129h68v1h-68z M390,129h67v1h-67z M267,130h67v1h-67z M390,130h68v1h-68z M266,131h68v1h-68z M390,131h68v1h-68z M266,132h192v1h-192z M265,133h193v1h-193z M265,134h193v1h-193z M264,135h195v1h-195z M264,136h195v1h-195z M263,137h196v1h-196z M263,138h196v1h-196z M262,139h197v1h-197z M262,140h198v1h-198z M261,141h199v1h-199z M261,142h199v1h-199z M260,143h200v1h-200z M260,144h200v1h-200z M259,145h202v1h-202z M259,146h202v1h-202z M258,147h203v1h-203z M258,148h203v1h-203z M257,149h204v1h-204z M257,150h205v1h-205z M256,151h206v1h-206z M256,152h206v1h-206z M255,153h207v1h-207z M255,154h207v1h-207z M254,155h209v1h-209z M254,156h209v1h-209z M253,157h210v1h-210z M253,158h210v1h-210z M252,159h211v1h-211z M252,160h212v1h-212z M251,161h213v1h-213z M250,162h214v1h-214z M250,163h214v1h-214z M249,164h215v1h-215z M249,165h215v1h-215z M248,166h217v1h-217z M248,167h217v1h-217z M247,168h218v1h-218z M247,169h218v1h-218z M246,170h219v1h-219z M246,171h220v1h-220z M245,172h221v1h-221z M245,173h70v1h-70z M394,173h72v1h-72z M244,174h70v1h-70z M394,174h72v1h-72z M244,175h70v1h-70z M394,175h72v1h-72z M243,176h71v1h-71z M395,176h72v1h-72z M243,177h70v1h-70z M395,177h72v1h-72z M242,178h71v1h-71z M395,178h72v1h-72z M242,179h70v1h-70z M395,179h72v1h-72z M241,180h71v1h-71z M395,180h72v1h-72z M241,181h70v1h-70z M395,181h73v1h-73z M240,182h71v1h-71z M396,182h72v1h-72z M240,183h70v1h-70z M396,183h72v1h-72z M239,184h71v1h-71z M396,184h72v1h-72z M239,185h71v1h-71z M396,185h72v1h-72z M238,186h71v1h-71z M396,186h73v1h-73z M238,187h71v1h-71z M397,187h72v1h-72z M237,188h71v1h-71z M397,188h72v1h-72z M237,189h71v1h-71z M397,189h72v1h-72z M236,190h71v1h-71z M397,190h72v1h-72z M235,191h72v1h-72z M397,191h73v1h-73z M235,192h71v1h-71z M397,192h73v1h-73z M234,193h72v1h-72z M398,193h72v1h-72z M234,194h71v1h-71z M398,194h72v1h-72z M233,195h72v1h-72z M398,195h72v1h-72z M233,196h72v1h-72z M398,196h73v1h-73z M232,197h72v1h-72z M398,197h73v1h-73z M232,198h72v1h-72z M399,198h72v1h-72z M231,199h72v1h-72z M399,199h72v1h-72z M231,200h72v1h-72z M399,200h72v1h-72z M230,201h72v1h-72z M399,201h73v1h-73z M230,202h72v1h-72z M399,202h73v1h-73z M229,203h72v1h-72z M400,203h72v1h-72z M229,204h72v1h-72z M400,204h72v1h-72z M228,205h73v1h-73z M400,205h72v1h-72z M228,206h72v1h-72z M400,206h73v1h-73z M227,207h73v1h-73z M400,207h73v1h-73z M226,208h73v1h-73z M400,208h73v1h-73z M226,209h73v1h-73z M401,209h72v1h-72z M226,210h72v1h-72z M401,210h72v1h-72z"/>
<path d="M523,2h68v1h-68z M522,3h69v1h-69z M522,4h70v1h-70z M521,5h70v1h-70z M521,6h70v1h-70z M521,7h70v1h-70z M521,8h70v1h-70z M521,9h70v1h-70z M521,10h69v1h-69z M521,11h69v1h-69z M520,12h70v1h-70z M520,13h70v1h-70z M520,14h70v1h-70z M520,15h70v1h-70z M520,16h70v1h-70z M520,17h69v1h-69z M519,18h70v1h-70z M519,19h70v1h-70z M519,20h70v1h-70z M519,21h70v1h-70z M519,22h70v1h-70z M519,23h69v1h-69z M519,24h69v1h-69z M518,25h70v1h-70z M518,26h70v1h-70z M518,27h70v1h-70z M518,28h70v1h-70z M518,29h70v1h-70z M518,30h69v1h-69z M518,31h69v1h-69z M517,32h70v1h-70z M517,33h70v1h-70z M517,34h70v1h-70z M517,35h70v1h-70z M517,36h69v1h-69z M517,37h69v1h-69z M517,38h69v1h-69z M516,39h70v1h-70z M516,40h70v1h-70z M516,41h70v1h-70z M516,42h70v1h-70z M516,43h69v1h-69z M516,44h69v1h-69z M515,45h70v1h-70z M515,46h70v1h-70z M515,47h70v1h-70z M515,48h70v1h-70z M515,49h70v1h-70z M515,50h69v1h-69z M515,51h69v1h-69z M514,52h70v1h-70z M514,53h70v1h-70z M514,54h70v1h-70z M514,55h70v1h-70z M514,56h69v1h-69z M514,57h69v1h-69z M514,58h69v1h-69z M513,59h70v1h-70z M513,60h70v1h-70z M513,61h70v1h-70z M513,62h70v1h-70z M513,63h69v1h-69z M513,64h69v1h-69z M512,65h70v1h-70z M512,66h70v1h-70z M512,67h70v1h-70z M512,68h70v1h-70z M512,69h70v1h-70z M512,70h69v1h-69z M512,71h69v1h-69z M511,72h70v1h-70z M511,73h70v1h-70z M511,74h70v1h-70z M511,75h70v1h-70z M511,76h69v1h-69z M511,77h69v1h-69z M511,78h69v1h-69z M510,79h70v1h-70z M510,80h70v1h-70z M510,81h70v1h-70z M510,82h69v1h-69z M510,83h69v1h-69z M510,84h69v1h-69z M510,85h69v1h-69z M509,86h70v1h-70z M509,87h70v1h-70z M509,88h70v1h-70z M509,89h69v1h-69z M509,90h69v1h-69z M509,91h69v1h-69z M508,92h70v1h-70z M508,93h70v1h-70z M508,94h70v1h-70z M508,95h70v1h-70z M508,96h69v1h-69z M508,97h69v1h-69z M508,98h69v1h-69z M507,99h70v1h-70z M507,100h70v1h-70z M507,101h70v1h-70z M507,102h69v1h-69z M507,103h69v1h-69z M507,104h69v1h-69z M507,105h69v1h-69z M506,106h70v1h-70z M506,107h70v1h-70z M506,108h70v1h-70z M506,109h69v1h-69z M506,110h69v1h-69z M506,111h69v1h-69z M505,112h70v1h-70z M505,113h70v1h-70z M505,114h70v1h-70z M505,115h70v1h-70z M505,116h69v1h-69z M505,117h69v1h-69z M505,118h69v1h-69z M504,119h70v1h-70z M504,120h70v1h-70z M504,121h70v1h-70z M504,122h69v1h-69z M504,123h69v1h-69z M504,124h69v1h-69z M504,125h69v1h-69z M503,126h70v1h-70z M503,127h70v1h-70z M503,128h70v1h-70z M503,129h69v1h-69z M503,130h69v1h-69z M503,131h69v1h-69z M502,132h70v1h-70z M502,133h70v1h-70z M502,134h70v1h-70z M502,135h69v1h-69z M502,136h69v1h-69z M502,137h69v1h-69z M502,138h69v1h-69z M501,139h70v1h-70z M501,140h70v1h-70z M501,141h70v1h-70z M501,142h69v1h-69z M501,143h69v1h-69z M501,144h69v1h-69z M501,145h69v1h-69z M500,146h70v1h-70z M500,147h70v1h-70z M500,148h70v1h-70z M500,149h69v1h-69z M500,150h69v1h-69z M500,151h69v1h-69z M500,152h69v1h-69z M499,153h70v1h-70z M499,154h70v1h-70z M499,155h69v1h-69z M499,156h69v1h-69z M499,157h69v1h-69z M499,158h69v1h-69z M498,159h70v1h-70z M498,160h172v1h-172z M498,161h172v1h-172z M498,162h171v1h-171z M498,163h171v1h-171z M498,164h171v1h-171z M498,165h171v1h-171z M497,166h172v1h-172z M497,167h172v1h-172z M497,168h172v1h-172z M497,169h171v1h-171z M497,170h171v1h-171z M497,171h171v1h-171z M497,172h171v1h-171z M496,173h172v1h-172z M496,174h172v1h-172z M496,175h172v1h-172z M496,176h171v1h-171z M496,177h171v1h-171z M496,178h171v1h-171z M495,179h172v1h-172z M495,180h172v1h-172z M495,181h172v1h-172z M495,182h172v1h-172z M495,183h171v1h-171z M495,184h171v1h-171z M495,185h171v1h-171z M494,186h172v1h-172z M494,187h172v1h-172z M494,188h172v1h-172z M494,189h172v1h-172z M494,190h171v1h-171z M494,191h171v1h-171z M494,192h171v1h-171z M493,193h172v1h-172z M493,194h172v1h-172z M493,195h172v1h-172z M493,196h172v1h-172z M493,197h171v1h-171z M493,198h171v1h-171z M492,199h172v1h-172z M492,200h172v1h-172z M492,201h172v1h-172z M492,202h172v1h-172z M492,203h172v1h-172z M492,204h171v1h-171z M492,205h171v1h-171z M491,206h172v1h-172z M491,207h172v1h-172z M491,208h172v1h-172z M491,209h172v1h-172z M491,210h171v1h-171z"/>
<path d="M999,2h87v1h-87z M1172,2h89v1h-89z M998,3h89v1h-89z M1171,3h91v1h-91z M998,4h89v1h-89z M1171,4h91v1h-91z M997,5h90v1h-90z M1170,5h92v1h-92z M997,6h90v1h-90z M1170,6h93v1h-93z M996,7h91v1h-91z M1169,7h94v1h-94z M996,8h91v1h-91z M1169,8h94v1h-94z M996,9h92v1h-92z M1168,9h95v1h-95z M995,10h93v1h-93z M1168,10h95v1h-95z M995,11h93v1h-93z M1168,11h95v1h-95z M995,12h93v1h-93z M1167,12h96v1h-96z M994,13h94v1h-94z M1167,13h96v1h-96z M994,14h94v1h-94z M1166,14h97v1h-97z M994,15h94v1h-94z M1166,15h97v1h-97z M993,16h95v1h-95z M1165,16h98v1h-98z M993,17h95v1h-95z M1165,17h99v1h-99z M992,18h97v1h-97z M1165,18h99v1h-99z M992,19h97v1h-97z M1164,19h100v1h-100z M992,20h97v1h-97z M1164,20h100v1h-100z M991,21h98v1h-98z M1163,21h101v1h-101z M991,22h98v1h-98z M1163,22h101v1h-101z M991,23h98v1h-98z M1162,23h102v1h-102z M990,24h99v1h-99z M1162,24h102v1h-102z M990,25h99v1h-99z M1162,25h102v1h-102z M989,26h101v1h-101z M1161,26h103v1h-103z M989,27h101v1h-101z M1161,27h103v1h-103z M989,28h101v1h-101z M1160,28h105v1h-105z M988,29h102v1h-102z M1160,29h105v1h-105z M988,30h102v1h-102z M1159,30h106v1h-106z M988,31h102v1h-102z M1159,31h106v1h-106z M987,32h103v1h-103z M1159,32h106v1h-106z M987,33h103v1h-103z M1158,33h107v1h-107z M986,34h104v1h-104z M1158,34h107v1h-107z M986,35h105v1h-105z M1157,35h108v1h-108z M986,36h105v1h-105z M1157,36h108v1h-108z M985,37h106v1h-106z M1156,37h109v1h-109z M985,38h106v1h-106z M1156,38h109v1h-109z M985,39h106v1h-106z M1156,39h110v1h-110z M984,40h107v1h-107z M1155,40h111v1h-111z M984,41h107v1h-107z M1155,41h111v1h-111z M983,42h108v1h-108z M1154,42h112v1h-112z M983,43h109v1h-109z M1154,43h112v1h-112z M983,44h109v1h-109z M1153,44h113v1h-113z M982,45h110v1h-110z M1153,45h113v1h-113z M982,46h110v1h-110z M1153,46h113v1h-113z M981,47h111v1h-111z M1152,47h114v1h-114z M981,48h111v1h-111z M1152,48h114v1h-114z M981,49h111v1h-111z M1151,49h115v1h-115z M980,50h112v1h-112z M1151,50h116v1h-116z M980,51h112v1h-112z M1150,51h117v1h-117z M980,52h113v1h-113z M1150,52h117v1h-117z M979,53h114v1h-114z M1150,53h117v1h-117z M979,54h114v1h-114z M1149,54h118v1h-118z M979,55h114v1h-114z M1149,55h118v1h-118z M978,56h115v1h-115z M1148,56h119v1h-119z M978,57h115v1h-115z M1148,57h119v1h-119z M977,58h116v1h-116z M1147,58h120v1h-120z M977,59h116v1h-116z M1147,59h120v1h-120z M977,60h117v1h-117z M1147,60h120v1h-120z M976,61h118v1h-118z M1146,61h121v1h-121z M976,62h118v1h-118z M1146,62h122v1h-122z M976,63h63v1h-63z M1040,63h54v1h-54z M1145,63h123v1h-123z M975,64h64v1h-64z M1040,64h54v1h-54z M1145,64h123v1h-123z M975,65h64v1h-64z M1040,65h54v1h-54z M1144,65h124v1h-124z M974,66h64v1h-64z M1040,66h54v1h-54z M1144,66h124v1h-124z M974,67h64v1h-64z M1040,67h54v1h-54z M1143,67h56v1h-56z M1200,67h68v1h-68z M974,68h64v1h-64z M1040,68h55v1h-55z M1143,68h56v1h-56z M1200,68h68v1h-68z M973,69h64v1h-64z M1041,69h54v1h-54z M1142,69h56v1h-56z M1200,69h68v1h-68z M973,70h64v1h-64z M1041,70h54v1h-54z M1142,70h56v1h-56z M1200,70h68v1h-68z M973,71h64v1h-64z M1041,71h54v1h-54z M1142,71h56v1h-56z M1200,71h68v1h-68z M972,72h64v1h-64z M1041,72h54v1h-54z M1141,72h56v1h-56z M1201,72h67v1h-67z M972,73h64v1h-64z M1041,73h54v1h-54z M1141,73h56v1h-56z M1201,73h68v1h-68z M971,74h65v1h-65z M1041,74h54v1h-54z M1140,74h56v1h-56z M1201,74h68v1h-68z M971,75h64v1h-64z M1041,75h54v1h-54z M1140,75h56v1h-56z M1201,75h68v1h-68z M971,76h64v1h-64z M1041,76h54v1h-54z M1140,76h55v1h-55z M1201,76h68v1h-68z M970,77h65v1h-65z M1041,77h55v1h-55z M1139,77h56v1h-56z M1201,77h68v1h-68z M970,78h64v1h-64z M1041,78h55v1h-55z M1139,78h56v1h-56z M1201,78h68v1h-68z M970,79h64v1h-64z M1042,79h54v1h-54z M1138,79h56v1h-56z M1201,79h68v1h-68z M969,80h65v1h-65z M1042,80h54v1h-54z M1138,80h56v1h-56z M1201,80h68v1h-68z M969,81h64v1h-64z M1042,81h54v1h-54z M1138,81h55v1h-55z M1201,81h68v1h-68z M968,82h65v1h-65z M1042,82h54v1h-54z M1137,82h56v1h-56z M1201,82h68v1h-68z M968,83h65v1h-65z M1042,83h54v1h-54z M1137,83h55v1h-55z M1201,83h68v1h-68z M968,84h64v1h-64z M1042,84h55v1h-55z M1136,84h56v1h-56z M1201,84h69v1h-69z M967,85h65v1h-65z M1042,85h55v1h-55z M1136,85h56v1h-56z M1201,85h69v1h-69z M967,86h65v1h-65z M1042,86h55v1h-55z M1135,86h56v1h-56z M1202,86h68v1h-68z M967,87h64v1h-64z M1042,87h55v1h-55z M1135,87h56v1h-56z M1202,87h68v1h-68z M966,88h65v1h-65z M1043,88h54v1h-54z M1134,88h56v1h-56z M1202,88h68v1h-68z M966,89h65v1h-65z M1043,89h54v1h-54z M1134,89h56v1h-56z M1202,89h68v1h-68z M966,90h64v1h-64z M1043,90h54v1h-54z M1134,90h56v1h-56z M1202,90h68v1h-68z M965,91h65v1h-65z M1043,91h54v1h-54z M1133,91h56v1h-56z M1202,91h68v1h-68z M965,92h65v1h-65z M1043,92h54v1h-54z M1133,92h56v1h-56z M1202,92h68v1h-68z M964,93h65v1h-65z M1043,93h55v1h-55z M1132,93h56v1h-56z M1202,93h68v1h-68z M964,94h65v1h-65z M1043,94h55v1h-55z M1132,94h56v1h-56z M1202,94h68v1h-68z M964,95h65v1h-65z M1043,95h55v1h-55z M1131,95h56v1h-56z M1202,95h69v1h-69z M963,96h65v1h-65z M1043,96h55v1h-55z M1131,96h56v1h-56z M1202,96h69v1h-69z M963,97h65v1h-65z M1044,97h54v1h-54z M1131,97h56v1h-56z M1202,97h69v1h-69z M963,98h65v1h-65z M1044,98h54v1h-54z M1130,98h56v1h-56z M1202,98h69v1h-69z M962,99h65v1h-65z M1044,99h54v1h-54z M1130,99h56v1h-56z M1202,99h69v1h-69z M962,100h65v1h-65z M1044,100h54v1h-54z M1129,100h56v1h-56z M1203,100h68v1h-68z M962,101h65v1h-65z M1044,101h55v1h-55z M1129,101h56v1h-56z M1203,101h68v1h-68z M961,102h65v1h-65z M1044,102h55v1h-55z M1129,102h55v1h-55z M1203,102h68v1h-68z M961,103h65v1h-65z M1044,103h55v1h-55z M1128,103h56v1h-56z M1203,103h68v1h-68z M960,104h66v1h-66z M1044,104h55v1h-55z M1128,104h55v1h-55z M1203,104h68v1h-68z M960,105h65v1h-65z M1044,105h55v1h-55z M1127,105h56v1h-56z M1203,105h68v1h-68z M960,106h65v1h-65z M1044,106h55v1h-55z M1127,106h56v1h-56z M1203,106h68v1h-68z M959,107h66v1h-66z M1045,107h54v1h-54z M1126,107h56v1h-56z M1203,107h69v1h-69z M959,108h65v1h-65z M1045,108h54v1h-54z M1126,108h56v1h-56z M1203,108h69v1h-69z M958,109h66v1h-66z M1045,109h55v1h-55z M1126,109h55v1h-55z M1203,109h69v1h-69z M958,110h66v1h-66z M1045,110h55v1h-55z M1125,110h56v1h-56z M1203,110h69v1h-69z M958,111h65v1h-65z M1045,111h55v1h-55z M1125,111h56v1h-56z M1203,111h69v1h-69z M957,112h66v1h-66z M1045,112h55v1h-55z M1124,112h56v1h-56z M1203,112h69v1h-69z M957,113h66v1h-66z M1045,113h55v1h-55z M1124,113h56v1h-56z M1203,113h69v1h-69z M957,114h65v1h-65z M1045,114h55v1h-55z M1123,114h56v1h-56z M1203,114h69v1h-69z M956,115h66v1h-66z M1045,115h55v1h-55z M1123,115h56v1h-56z M1204,115h68v1h-68z M956,116h66v1h-66z M1046,116h54v1h-54z M1123,116h55v1h-55z M1204,116h68v1h-68z M956,117h65v1h-65z M1046,117h55v1h-55z M1122,117h56v1h-56z M1204,117h68v1h-68z M955,118h66v1h-66z M1046,118h55v1h-55z M1122,118h55v1h-55z M1204,118h69v1h-69z M955,119h66v1h-66z M1046,119h55v1h-55z M1121,119h56v1h-56z M1204,119h69v1h-69z M955,120h65v1h-65z M1046,120h55v1h-55z M1121,120h56v1h-56z M1204,120h69v1h-69z M954,121h66v1h-66z M1046,121h55v1h-55z M1121,121h55v1h-55z M1204,121h69v1h-69z M954,122h66v1h-66z M1046,122h55v1h-55z M1120,122h56v1h-56z M1204,122h69v1h-69z M953,123h66v1h-66z M1046,123h55v1h-55z M1120,123h55v1h-55z M1204,123h69v1h-69z M953,124h66v1h-66z M1046,124h55v1h-55z M1119,124h56v1h-56z M1204,124h69v1h-69z M953,125h66v1h-66z M1047,125h54v1h-54z M1119,125h55v1h-55z M1204,125h69v1h-69z M952,126h66v1h-66z M1047,126h55v1h-55z M1118,126h56v1h-56z M1204,126h69v1h-69z M952,127h66v1h-66z M1047,127h55v1h-55z M1118,127h55v1h-55z M1204,127h69v1h-69z M952,128h65v1h-65z M1047,128h55v1h-55z M1118,128h55v1h-55z M1204,128h69v1h-69z M951,129h66v1h-66z M1047,129h55v1h-55z M1117,129h56v1h-56z M1205,129h68v1h-68z M951,130h66v1h-66z M1047,130h55v1h-55z M1117,130h55v1h-55z M1205,130h69v1h-69z M951,131h65v1h-65z M1047,131h55v1h-55z M1116,131h56v1h-56z M1205,131h69v1h-69z M950,132h66v1h-66z M1047,132h55v1h-55z M1116,132h55v1h-55z M1205,132h69v1h-69z M950,133h66v1h-66z M1047,133h55v1h-55z M1115,133h56v1h-56z M1205,133h69v1h-69z M949,134h66v1h-66z M1047,134h56v1h-56z M1115,134h56v1h-56z M1205,134h69v1h-69z M949,135h66v1h-66z M1048,135h55v1h-55z M1115,135h55v1h-55z M1205,135h69v1h-69z M949,136h66v1h-66z M1048,136h55v1h-55z M1114,136h56v1h-56z M1205,136h69v1h-69z M948,137h66v1h-66z M1048,137h55v1h-55z M1114,137h55v1h-55z M1205,137h69v1h-69z M948,138h66v1h-66z M1048,138h55v1h-55z M1113,138h56v1h-56z M1205,138h69v1h-69z M948,139h66v1h-66z M1048,139h55v1h-55z M1113,139h55v1h-55z M1205,139h69v1h-69z M947,140h66v1h-66z M1048,140h55v1h-55z M1112,140h56v1h-56z M1205,140h69v1h-69z M947,141h66v1h-66z M1048,141h55v1h-55z M1112,141h56v1h-56z M1205,141h70v1h-70z M946,142h67v1h-67z M1048,142h56v1h-56z M1112,142h55v1h-55z M1205,142h70v1h-70z M946,143h66v1h-66z M1048,143h56v1h-56z M1111,143h56v1h-56z M1206,143h69v1h-69z M946,144h66v1h-66z M1048,144h56v1h-56z M1111,144h55v1h-55z M1206,144h69v1h-69z M945,145h67v1h-67z M1049,145h55v1h-55z M1110,145h56v1h-56z M1206,145h69v1h-69z M945,146h66v1h-66z M1049,146h55v1h-55z M1110,146h55v1h-55z M1206,146h69v1h-69z M945,147h66v1h-66z M1049,147h55v1h-55z M1110,147h55v1h-55z M1206,147h69v1h-69z M944,148h67v1h-67z M1049,148h55v1h-55z M1109,148h56v1h-56z M1206,148h69v1h-69z M944,149h66v1h-66z M1049,149h55v1h-55z M1109,149h55v1h-55z M1206,149h69v1h-69z M944,150h66v1h-66z M1049,150h55v1h-55z M1108,150h56v1h-56z M1206,150h69v1h-69z M943,151h67v1h-67z M1049,151h56v1h-56z M1108,151h55v1h-55z M1206,151h69v1h-69z M943,152h66v1h-66z M1049,152h56v1h-56z M1107,152h56v1h-56z M1206,152h69v1h-69z M942,153h67v1h-67z M1049,153h56v1h-56z M1107,153h55v1h-55z M1206,153h70v1h-70z M942,154h67v1h-67z M1050,154h55v1h-55z M1107,154h55v1h-55z M1206,154h70v1h-70z M942,155h66v1h-66z M1050,155h55v1h-55z M1106,155h56v1h-56z M1206,155h70v1h-70z M941,156h67v1h-67z M1050,156h55v1h-55z M1106,156h55v1h-55z M1206,156h70v1h-70z M941,157h67v1h-67z M1050,157h111v1h-111z M1207,157h69v1h-69z M941,158h66v1h-66z M1050,158h110v1h-110z M1207,158h69v1h-69z M940,159h67v1h-67z M1050,159h110v1h-110z M1207,159h69v1h-69z M940,160h67v1h-67z M1050,160h109v1h-109z M1207,160h69v1h-69z M939,161h67v1h-67z M1050,161h109v1h-109z M1207,161h69v1h-69z M939,162h67v1h-67z M1050,162h109v1h-109z M1207,162h69v1h-69z M939,163h66v1h-66z M1050,163h108v1h-108z M1207,163h69v1h-69z M938,164h67v1h-67z M1051,164h107v1h-107z M1207,164h70v1h-70z M938,165h67v1h-67z M1051,165h106v1h-106z M1207,165h70v1h-70z M938,166h66v1h-66z M1051,166h106v1h-106z M1207,166h70v1h-70z M937,167h67v1h-67z M1051,167h105v1h-105z M1207,167h70v1h-70z M937,168h67v1h-67z M1051,168h105v1h-105z M1207,168h70v1h-70z M937,169h66v1h-66z M1051,169h105v1h-105z M1207,169h70v1h-70z M936,170h67v1h-67z M1051,170h104v1h-104z M1207,170h70v1h-70z M936,171h67v1h-67z M1051,171h104v1h-104z M1208,171h69v1h-69z M935,172h67v1h-67z M1051,172h103v1h-103z M1208,172h69v1h-69z M935,173h67v1h-67z M1052,173h102v1h-102z M1208,173h69v1h-69z M935,174h67v1h-67z M1052,174h102v1h-102z M1208,174h69v1h-69z M934,175h67v1h-67z M1052,175h101v1h-101z M1208,175h69v1h-69z M934,176h67v1h-67z M1052,176h101v1h-101z M1208,176h70v1h-70z M934,177h67v1h-67z M1052,177h100v1h-100z M1208,177h70v1h-70z M933,178h67v1h-67z M1052,178h100v1h-100z M1208,178h70v1h-70z M933,179h67v1h-67z M1052,179h99v1h-99z M1208,179h70v1h-70z M933,180h67v1h-67z M1052,180h99v1h-99z M1208,180h70v1h-70z M932,181h67v1h-67z M1052,181h99v1h-99z M1208,181h70v1h-70z M932,182h67v1h-67z M1053,182h97v1h-97z M1208,182h70v1h-70z M931,183h68v1h-68z M1053,183h97v1h-97z M1208,183h70v1h-70z M931,184h67v1h-67z M1053,184h96v1h-96z M1208,184h70v1h-70z M931,185h67v1h-67z M1053,185h96v1h-96z M1209,185h69v1h-69z M930,186h68v1h-68z M1053,186h95v1h-95z M1209,186h69v1h-69z M930,187h67v1h-67z M1053,187h95v1h-95z M1209,187h70v1h-70z M930,188h67v1h-67z M1053,188h95v1h-95z M1209,188h70v1h-70z M929,189h68v1h-68z M1053,189h94v1h-94z M1209,189h70v1h-70z M929,190h67v1h-67z M1053,190h94v1h-94z M1209,190h70v1h-70z M928,191h68v1h-68z M1054,191h92v1h-92z M1209,191h70v1h-70z M928,192h68v1h-68z M1054,192h92v1h-92z M1209,192h70v1h-70z M928,193h67v1h-67z M1054,193h91v1h-91z M1209,193h70v1h-70z M927,194h68v1h-68z M1054,194h91v1h-91z M1209,194h70v1h-70z M927,195h68v1h-68z M1054,195h91v1h-91z M1209,195h70v1h-70z M927,196h67v1h-67z M1054,196h90v1h-90z M1209,196h70v1h-70z M926,197h68v1h-68z M1054,197h90v1h-90z M1209,197h70v1h-70z M926,198h68v1h-68z M1054,198h89v1h-89z M1209,198h70v1h-70z M926,199h67v1h-67z M1054,199h89v1h-89z M1210,199h70v1h-70z M925,200h68v1h-68z M1054,200h89v1h-89z M1210,200h70v1h-70z M925,201h68v1h-68z M1055,201h87v1h-87z M1210,201h70v1h-70z M924,202h68v1h-68z M1055,202h87v1h-87z M1210,202h70v1h-70z M924,203h68v1h-68z M1055,203h86v1h-86z M1210,203h70v1h-70z M924,204h68v1h-68z M1055,204h86v1h-86z M1210,204h70v1h-70z M923,205h68v1h-68z M1055,205h85v1h-85z M1210,205h70v1h-70z M923,206h68v1h-68z M1055,206h85v1h-85z M1210,206h70v1h-70z M923,207h68v1h-68z M1055,207h85v1h-85z M1210,207h70v1h-70z M922,208h68v1h-68z M1055,208h84v1h-84z M1210,208h70v1h-70z M922,209h68v1h-68z M1056,209h83v1h-83z M1210,209h70v1h-70z M922,210h68v1h-68z M1056,210h82v1h-82z M1210,210h70v1h-70z"/>
<path d="M1585,2h93v1h-93z M1768,2h61v1h-61z M1584,3h94v1h-94z M1767,3h63v1h-63z M1584,4h95v1h-95z M1767,4h63v1h-63z M1584,5h95v1h-95z M1767,5h63v1h-63z M1584,6h96v1h-96z M1766,6h63v1h-63z M1584,7h96v1h-96z M1766,7h63v1h-63z M1583,8h98v1h-98z M1766,8h63v1h-63z M1583,9h98v1h-98z M1766,9h63v1h-63z M1583,10h99v1h-99z M1766,10h63v1h-63z M1583,11h99v1h-99z M1766,11h63v1h-63z M1583,12h100v1h-100z M1765,12h63v1h-63z M1583,13h100v1h-100z M1765,13h63v1h-63z M1582,14h101v1h-101z M1765,14h63v1h-63z M1582,15h102v1h-102z M1765,15h63v1h-63z M1582,16h102v1h-102z M1765,16h63v1h-63z M1582,17h103v1h-103z M1765,17h63v1h-63z M1582,18h103v1h-103z M1765,18h63v1h-63z M1582,19h104v1h-104z M1764,19h63v1h-63z M1582,20h104v1h-104z M1764,20h63v1h-63z M1581,21h105v1h-105z M1764,21h63v1h-63z M1581,22h106v1h-106z M1764,22h63v1h-63z M1581,23h106v1h-106z M1764,23h63v1h-63z M1581,24h107v1h-107z M1764,24h63v1h-63z M1581,25h107v1h-107z M1763,25h64v1h-64z M1581,26h108v1h-108z M1763,26h63v1h-63z M1581,27h108v1h-108z M1763,27h63v1h-63z M1580,28h109v1h-109z M1763,28h63v1h-63z M1580,29h110v1h-110z M1763,29h63v1h-63z M1580,30h110v1h-110z M1763,30h63v1h-63z M1580,31h111v1h-111z M1763,31h63v1h-63z M1580,32h111v1h-111z M1762,32h63v1h-63z M1580,33h112v1h-112z M1762,33h63v1h-63z M1579,34h113v1h-113z M1762,34h63v1h-63z M1579,35h113v1h-113z M1762,35h63v1h-63z M1579,36h114v1h-114z M1762,36h63v1h-63z M1579,37h114v1h-114z M1762,37h63v1h-63z M1579,38h115v1h-115z M1761,38h64v1h-64z M1579,39h115v1h-115z M1761,39h63v1h-63z M1579,40h116v1h-116z M1761,40h63v1h-63z M1578,41h117v1h-117z M1761,41h63v1h-63z M1578,42h118v1h-118z M1761,42h63v1h-63z M1578,43h118v1h-118z M1761,43h63v1h-63z M1578,44h118v1h-118z M1761,44h63v1h-63z M1578,45h119v1h-119z M1760,45h64v1h-64z M1578,46h119v1h-119z M1760,46h63v1h-63z M1578,47h120v1h-120z M1760,47h63v1h-63z M1577,48h121v1h-121z M1760,48h63v1h-63z M1577,49h122v1h-122z M1760,49h63v1h-63z M1577,50h122v1h-122z M1760,50h63v1h-63z M1577,51h122v1h-122z M1760,51h63v1h-63z M1577,52h123v1h-123z M1759,52h64v1h-64z M1577,53h123v1h-123z M1759,53h63v1h-63z M1577,54h124v1h-124z M1759,54h63v1h-63z M1576,55h125v1h-125z M1759,55h63v1h-63z M1576,56h126v1h-126z M1759,56h63v1h-63z M1576,57h126v1h-126z M1759,57h63v1h-63z M1576,58h126v1h-126z M1758,58h64v1h-64z M1576,59h127v1h-127z M1758,59h63v1h-63z M1576,60h127v1h-127z M1758,60h63v1h-63z M1575,61h129v1h-129z M1758,61h63v1h-63z M1575,62h129v1h-129z M1758,62h63v1h-63z M1575,63h130v1h-130z M1758,63h63v1h-63z M1575,64h64v1h-64z M1640,64h65v1h-65z M1758,64h63v1h-63z M1575,65h64v1h-64z M1641,65h64v1h-64z M1757,65h64v1h-64z M1575,66h64v1h-64z M1641,66h65v1h-65z M1757,66h63v1h-63z M1575,67h64v1h-64z M1642,67h64v1h-64z M1757,67h63v1h-63z M1574,68h65v1h-65z M1642,68h65v1h-65z M1757,68h63v1h-63z M1574,69h65v1h-65z M1643,69h64v1h-64z M1757,69h63v1h-63z M1574,70h65v1h-65z M1643,70h65v1h-65z M1757,70h63v1h-63z M1574,71h64v1h-64z M1643,71h65v1h-65z M1756,71h64v1h-64z M1574,72h64v1h-64z M1644,72h64v1h-64z M1756,72h64v1h-64z M1574,73h64v1h-64z M1644,73h65v1h-65z M1756,73h63v1h-63z M1574,74h64v1h-64z M1645,74h64v1h-64z M1756,74h63v1h-63z M1573,75h65v1h-65z M1645,75h65v1h-65z M1756,75h63v1h-63z M1573,76h65v1h-65z M1646,76h64v1h-64z M1756,76h63v1h-63z M1573,77h65v1h-65z M1646,77h65v1h-65z M1756,77h63v1h-63z M1573,78h65v1h-65z M1646,78h65v1h-65z M1755,78h64v1h-64z M1573,79h64v1h-64z M1647,79h64v1h-64z M1755,79h63v1h-63z M1573,80h64v1h-64z M1647,80h65v1h-65z M1755,80h63v1h-63z M1572,81h65v1h-65z M1648,81h64v1h-64z M1755,81h63v1h-63z M1572,82h65v1h-65z M1648,82h65v1h-65z M1755,82h63v1h-63z M1572,83h65v1h-65z M1649,83h64v1h-64z M1755,83h63v1h-63z M1572,84h65v1h-65z M1649,84h65v1h-65z M1754,84h64v1h-64z M1572,85h65v1h-65z M1649,85h65v1h-65z M1754,85h64v1h-64z M1572,86h64v1h-64z M1650,86h64v1h-64z M1754,86h63v1h-63z M1572,87h64v1h-64z M1650,87h65v1h-65z M1754,87h63v1h-63z M1571,88h65v1h-65z M1651,88h64v1h-64z M1754,88h63v1h-63z M1571,89h65v1h-65z M1651,89h65v1h-65z M1754,89h63v1h-63z M1571,90h65v1h-65z M1651,90h65v1h-65z M1754,90h63v1h-63z M1571,91h65v1h-65z M1652,91h65v1h-65z M1753,91h64v1h-64z M1571,92h65v1h-65z M1652,92h65v1h-65z M1753,92h64v1h-64z M1571,93h65v1h-65z M1653,93h64v1h-64z M1753,93h63v1h-63z M1570,94h65v1h-65z M1653,94h65v1h-65z M1753,94h63v1h-63z M1570,95h65v1h-65z M1654,95h64v1h-64z M1753,95h63v1h-63z M1570,96h65v1h-65z M1654,96h65v1h-65z M1753,96h63v1h-63z M1570,97h65v1h-65z M1654,97h65v1h-65z M1752,97h64v1h-64z M1570,98h65v1h-65z M1655,98h65v1h-65z M1752,98h64v1h-64z M1570,99h65v1h-65z M1655,99h65v1h-65z M1752,99h64v1h-64z M1569,100h66v1h-66z M1656,100h64v1h-64z M1752,100h63v1h-63z M1569,101h65v1h-65z M1656,101h65v1h-65z M1752,101h63v1h-63z M1569,102h65v1h-65z M1657,102h64v1h-64z M1752,102h63v1h-63z M1569,103h65v1h-65z M1657,103h65v1h-65z M1752,103h63v1h-63z M1569,104h65v1h-65z M1657,104h65v1h-65z M1751,104h64v1h-64z M1569,105h65v1h-65z M1658,105h65v1h-65z M1751,105h64v1h-64z M1569,106h65v1h-65z M1658,106h65v1h-65z M1751,106h63v1h-63z M1569,107h65v1h-65z M1659,107h64v1h-64z M1751,107h63v1h-63z M1568,108h66v1h-66z M1659,108h65v1h-65z M1751,108h63v1h-63z M1568,109h65v1h-65z M1659,109h65v1h-65z M1751,109h63v1h-63z M1568,110h65v1h-65z M1660,110h65v1h-65z M1750,110h64v1h-64z M1568,111h65v1h-65z M1660,111h65v1h-65z M1750,111h64v1h-64z M1568,112h65v1h-65z M1661,112h65v1h-65z M1750,112h64v1h-64z M1568,113h65v1h-65z M1661,113h65v1h-65z M1750,113h63v1h-63z M1567,114h66v1h-66z M1662,114h64v1h-64z M1750,114h63v1h-63z M1567,115h66v1h-66z M1662,115h65v1h-65z M1750,115h63v1h-63z M1567,116h65v1h-65z M1662,116h65v1h-65z M1750,116h63v1h-63z M1567,117h65v1h-65z M1663,117h65v1h-65z M1749,117h64v1h-64z M1567,118h65v1h-65z M1663,118h65v1h-65z M1749,118h64v1h-64z M1567,119h65v1h-65z M1664,119h65v1h-65z M1749,119h64v1h-64z M1566,120h66v1h-66z M1664,120h65v1h-65z M1749,120h63v1h-63z M1566,121h66v1h-66z M1665,121h64v1h-64z M1749,121h63v1h-63z M1566,122h66v1h-66z M1665,122h65v1h-65z M1749,122h63v1h-63z M1566,123h66v1h-66z M1665,123h65v1h-65z M1748,123h64v1h-64z M1566,124h65v1h-65z M1666,124h65v1h-65z M1748,124h64v1h-64z M1566,125h65v1h-65z M1666,125h65v1h-65z M1748,125h64v1h-64z M1566,126h65v1h-65z M1667,126h65v1h-65z M1748,126h63v1h-63z M1565,127h66v1h-66z M1667,127h65v1h-65z M1748,127h63v1h-63z M1565,128h66v1h-66z M1667,128h65v1h-65z M1748,128h63v1h-63z M1565,129h66v1h-66z M1668,129h65v1h-65z M1748,129h63v1h-63z M1565,130h66v1h-66z M1668,130h65v1h-65z M1747,130h64v1h-64z M1565,131h65v1h-65z M1669,131h65v1h-65z M1747,131h64v1h-64z M1565,132h65v1h-65z M1669,132h65v1h-65z M1747,132h64v1h-64z M1564,133h66v1h-66z M1670,133h65v1h-65z M1747,133h63v1h-63z M1564,134h66v1h-66z M1670,134h65v1h-65z M1747,134h63v1h-63z M1564,135h66v1h-66z M1670,135h65v1h-65z M1747,135h63v1h-63z M1564,136h66v1h-66z M1671,136h65v1h-65z M1746,136h64v1h-64z M1564,137h66v1h-66z M1671,137h65v1h-65z M1746,137h64v1h-64z M1564,138h65v1h-65z M1672,138h65v1h-65z M1746,138h64v1h-64z M1564,139h65v1h-65z M1672,139h65v1h-65z M1746,139h64v1h-64z M1563,140h66v1h-66z M1672,140h66v1h-66z M1746,140h63v1h-63z M1563,141h66v1h-66z M1673,141h65v1h-65z M1746,141h63v1h-63z M1563,142h66v1h-66z M1673,142h65v1h-65z M1746,142h63v1h-63z M1563,143h66v1h-66z M1674,143h65v1h-65z M1745,143h64v1h-64z M1563,144h66v1h-66z M1674,144h65v1h-65z M1745,144h64v1h-64z M1563,145h66v1h-66z M1675,145h65v1h-65z M1745,145h64v1h-64z M1562,146h66v1h-66z M1675,146h65v1h-65z M1745,146h64v1h-64z M1562,147h66v1h-66z M1675,147h66v1h-66z M1745,147h63v1h-63z M1562,148h66v1h-66z M1676,148h65v1h-65z M1745,148h63v1h-63z M1562,149h66v1h-66z M1676,149h65v1h-65z M1744,149h64v1h-64z M1562,150h66v1h-66z M1677,150h65v1h-65z M1744,150h64v1h-64z M1562,151h66v1h-66z M1677,151h65v1h-65z M1744,151h64v1h-64z M1562,152h66v1h-66z M1677,152h66v1h-66z M1744,152h64v1h-64z M1561,153h66v1h-66z M1678,153h65v1h-65z M1744,153h63v1h-63z M1561,154h66v1h-66z M1678,154h129v1h-129z M1561,155h66v1h-66z M1679,155h128v1h-128z M1561,156h66v1h-66z M1679,156h128v1h-128z M1561,157h66v1h-66z M1680,157h127v1h-127z M1561,158h66v1h-66z M1680,158h127v1h-127z M1560,159h67v1h-67z M1680,159h127v1h-127z M1560,160h67v1h-67z M1681,160h125v1h-125z M1560,161h66v1h-66z M1681,161h125v1h-125z M1560,162h66v1h-66z M1682,162h124v1h-124z M1560,163h66v1h-66z M1682,163h124v1h-124z M1560,164h66v1h-66z M1682,164h124v1h-124z M1559,165h67v1h-67z M1683,165h123v1h-123z M1559,166h67v1h-67z M1683,166h123v1h-123z M1559,167h67v1h-67z M1684,167h121v1h-121z M1559,168h66v1h-66z M1684,168h121v1h-121z M1559,169h66v1h-66z M1684,169h121v1h-121z M1559,170h66v1h-66z M1685,170h120v1h-120z M1559,171h66v1h-66z M1685,171h120v1h-120z M1559,172h66v1h-66z M1686,172h119v1h-119z M1558,173h67v1h-67z M1686,173h118v1h-118z M1558,174h67v1h-67z M1687,174h117v1h-117z M1558,175h67v1h-67z M1687,175h117v1h-117z M1558,176h66v1h-66z M1687,176h117v1h-117z M1558,177h66v1h-66z M1688,177h116v1h-116z M1558,178h66v1h-66z M1688,178h116v1h-116z M1557,179h67v1h-67z M1689,179h115v1h-115z M1557,180h67v1h-67z M1689,180h114v1h-114z M1557,181h67v1h-67z M1689,181h114v1h-114z M1557,182h67v1h-67z M1690,182h113v1h-113z M1557,183h66v1h-66z M1690,183h113v1h-113z M1557,184h66v1h-66z M1691,184h112v1h-112z M1557,185h66v1h-66z M1691,185h112v1h-112z M1556,186h67v1h-67z M1692,186h111v1h-111z M1556,187h67v1h-67z M1692,187h110v1h-110z M1556,188h67v1h-67z M1692,188h110v1h-110z M1556,189h67v1h-67z M1693,189h109v1h-109z M1556,190h67v1h-67z M1693,190h109v1h-109z M1556,191h66v1h-66z M1694,191h108v1h-108z M1556,192h66v1h-66z M1694,192h108v1h-108z M1555,193h67v1h-67z M1694,193h108v1h-108z M1555,194h67v1h-67z M1695,194h106v1h-106z M1555,195h67v1h-67z M1695,195h106v1h-106z M1555,196h67v1h-67z M1696,196h105v1h-105z M1555,197h67v1h-67z M1696,197h105v1h-105z M1555,198h66v1h-66z M1696,198h105v1h-105z M1555,199h66v1h-66z M1697,199h104v1h-104z M1554,200h67v1h-67z M1697,200h103v1h-103z M1554,201h67v1h-67z M1698,201h102v1h-102z M1554,202h67v1h-67z M1698,202h102v1h-102z M1554,203h67v1h-67z M1699,203h101v1h-101z M1554,204h67v1h-67z M1699,204h101v1h-101z M1554,205h66v1h-66z M1699,205h101v1h-101z M1553,206h67v1h-67z M1700,206h100v1h-100z M1553,207h67v1h-67z M1700,207h99v1h-99z M1553,208h67v1h-67z M1701,208h98v1h-98z M1553,209h67v1h-67z M1701,209h98v1h-98z M1553,210h66v1h-66z M1702,210h97v1h-97z"/>
  </g>
</svg>