<?xml version="1.0" encoding="UTF-8"?>
<svg xmlns="http://www.w3.org/2000/svg" viewBox="0 0 400 160" width="400" height="160">
  <g transform="translate(30.00,39.68) scale(0.163226)" fill="white">
<path d="M86,0h31v1h-31z M80,1h44v1h-44z M75,2h55v1h-55z M71,3h64v1h-64z M68,4h71v1h-71z M65,5h77v1h-77z M63,6h83v1h-83z M60,7h89v1h-89z M58,8h94v1h-94z M56,9h99v1h-99z M54,10h104v1h-104z M52,11h108v1h-108z M50,12h112v1h-112z M49,13h116v1h-116z M47,14h120v1h-120z M46,15h123v1h-123z M44,16h127v1h-127z M43,17h130v1h-130z M42,18h133v1h-133z M41,19h136v1h-136z M39,20h140v1h-140z M38,21h142v1h-142z M37,22h145v1h-145z M36,23h148v1h-148z M35,24h150v1h-150z M34,25h152v1h-152z M33,26h153v1h-153z M33,27h152v1h-152z M32,28h152v1h-152z M31,29h153v1h-153z M30,30h153v1h-153z M30,31h153v1h-153z M29,32h153v1h-153z M28,33h154v1h-154z M28,34h153v1h-153z M27,35h154v1h-154z M26,36h154v1h-154z M26,37h153v1h-153z M25,38h154v1h-154z M25,39h153v1h-153z M24,40h154v1h-154z M24,41h153v1h-153z M23,42h154v1h-154z M23,43h153v1h-153z M22,44h77v1h-77z M103,44h73v1h-73z M22,45h69v1h-69z M111,45h64v1h-64z M22,46h66v1h-66z M116,46h58v1h-58z M21,47h64v1h-64z M120,47h54v1h-54z M21,48h62v1h-62z M123,48h50v1h-50z M21,49h61v1h-61z M126,49h47v1h-47z M20,50h60v1h-60z M129,50h43v1h-43z M20,51h59v1h-59z M131,51h41v1h-41z M20,52h58v1h-58z M134,52h37v1h-37z M20,53h57v1h-57z M136,53h35v1h-35z M19,54h57v1h-57z M139,54h31v1h-31z M19,55h56v1h-56z M141,55h28v1h-28z M19,56h56v1h-56z M143,56h26v1h-26z M19,57h55v1h-55z M145,57h23v1h-23z M19,58h55v1h-55z M147,58h21v1h-21z M18,59h55v1h-55z M149,59h18v1h-18z M18,60h55v1h-55z M151,60h16v1h-16z M18,61h55v1h-55z M153,61h13v1h-13z M18,62h55v1h-55z M155,62h11v1h-11z M18,63h55v1h-55z M157,63h8v1h-8z M18,64h54v1h-54z M159,64h5v1h-5z M18,65h54v1h-54z M161,65h3v1h-3z M18,66h54v1h-54z M18,67h55v1h-55z M18,68h55v1h-55z M18,69h55v1h-55z M18,70h55v1h-55z M18,71h55v1h-55z M18,72h56v1h-56z M18,73h56v1h-56z M18,74h57v1h-57z M18,75h57v1h-57z M18,76h58v1h-58z M18,77h59v1h-59z M18,78h60v1h-60z M18,79h61v1h-61z M18,80h62v1h-62z M18,81h63v1h-63z M18,82h65v1h-65z M18,83h66v1h-66z M19,84h67v1h-67z M19,85h69v1h-69z M19,86h71v1h-71z M19,87h73v1h-73z M20,88h75v1h-75z M20,89h77v1h-77z M20,90h80v1h-80z M21,91h82v1h-82z M21,92h85v1h-85z M21,93h88v1h-88z M22,94h90v1h-90z M22,95h93v1h-93z M23,96h95v1h-95z M23,97h98v1h-98z M24,98h100v1h-100z M24,99h102v1h-102z M25,100h104v1h-104z M25,101h106v1h-106z M26,102h107v1h-107z M27,103h109v1h-109z M27,104h111v1h-111z M28,105h112v1h-112z M29,106h113v1h-113z M29,107h115v1h-115z M30,108h116v1h-116z M31,109h117v1h-117z M32,110h118v1h-118z M33,111h118v1h-118z M34,112h119v1h-119z M35,113h119v1h-119z M36,114h120v1h-120z M37,115h120v1h-120z M39,116h120v1h-120z M40,117h120v1h-120z M41,118h121v1h-121z M42,119h121v1h-121z M44,120h120v1h-120z M45,121h120v1h-120z M47,122h119v1h-119z M49,123h118v1h-118z M50,124h118v1h-118z M52,125h117v1h-117z M54,126h116v1h-116z M56,127h115v1h-115z M58,128h114v1h-114z M60,129h113v1h-113z M62,130h112v1h-112z M65,131h110v1h-110z M67,132h108v1h-108z M70,133h106v1h-106z M72,134h105v1h-105z M75,135h102v1h-102z M78,136h100v1h-100z M81,137h98v1h-98z M84,138h95v1h-95z M87,139h93v1h-93z M91,140h89v1h-89z M94,141h87v1h-87z M97,142h84v1h-84z M100,143h81v1h-81z M103,144h79v1h-79z M106,145h76v1h-76z M108,146h74v1h-74z M110,147h73v1h-73z M112,148h71v1h-71z M114,149h69v1h-69z M116,150h67v1h-67z M118,151h66v1h-66z M119,152h65v1h-65z M121,153h63v1h-63z M122,154h62v1h-62z M123,155h61v1h-61z M124,156h60v1h-60z M125,157h59v1h-59z M126,158h58v1h-58z M127,159h58v1h-58z M128,160h57v1h-57z M128,161h57v1h-57z M129,162h56v1h-56z M129,163h56v1h-56z M24,164h3v1h-3z M129,164h56v1h-56z M23,165h6v1h-6z M130,165h55v1h-55z M23,166h7v1h-7z M130,166h55v1h-55z M22,167h10v1h-10z M130,167h55v1h-55z M21,168h12v1h-12z M130,168h55v1h-55z M21,169h14v1h-14z M130,169h55v1h-55z M20,170h16v1h-16z M130,170h54v1h-54z M19,171h19v1h-19z M130,171h54v1h-54z M19,172h20v1h-20z M130,172h54v1h-54z M18,173h23v1h-23z M130,173h54v1h-54z M17,174h26v1h-26z M129,174h55v1h-55z M17,175h28v1h-28z M129,175h55v1h-55z M16,176h30v1h-30z M129,176h55v1h-55z M15,177h33v1h-33z M129,177h55v1h-55z M15,178h35v1h-35z M128,178h56v1h-56z M14,179h38v1h-38z M128,179h56v1h-56z M13,180h41v1h-41z M127,180h56v1h-56z M13,181h43v1h-43z M127,181h56v1h-56z M12,182h46v1h-46z M126,182h57v1h-57z M12,183h48v1h-48z M126,183h57v1h-57z M11,184h51v1h-51z M125,184h58v1h-58z M10,185h54v1h-54z M124,185h58v1h-58z M10,186h57v1h-57z M123,186h59v1h-59z M9,187h60v1h-60z M122,187h60v1h-60z M8,188h64v1h-64z M120,188h62v1h-62z M8,189h67v1h-67z M119,189h62v1h-62z M7,190h71v1h-71z M117,190h64v1h-64z M6,191h75v1h-75z M115,191h66v1h-66z M6,192h79v1h-79z M112,192h68v1h-68z M5,193h86v1h-86z M107,193h73v1h-73z M4,194h176v1h-176z M4,195h175v1h-175z M3,196h176v1h-176z M2,197h176v1h-176z M2,198h176v1h-176z M1,199h177v1h-177z M0,200h177v1h-177z M0,201h177v1h-177z M0,202h176v1h-176z M0,203h175v1h-175z M2,204h173v1h-173z M3,205h171v1h-171z M4,206h170v1h-170z M6,207h167v1h-167z M7,208h165v1h-165z M9,209h162v1h-162z M10,210h161v1h-161z M11,211h159v1h-159z M13,212h156v1h-156z M15,213h153v1h-153z M16,214h151v1h-151z M18,215h148v1h-148z M20,216h145v1h-145z M21,217h143v1h-143z M23,218h140v1h-140z M25,219h137v1h-137z M27,220h134v1h-134z M29,221h130v1h-130z M31,222h127v1h-127z M33,223h124v1h-124z M35,224h120v1h-120z M37,225h116v1h-116z M40,226h112v1h-112z M42,227h108v1h-108z M45,228h103v1h-103z M48,229h98v1h-98z M51,230h93v1h-93z M54,231h87v1h-87z M57,232h81v1h-81z M61,233h74v1h-74z M65,234h67v1h-67z M70,235h58v1h-58z M75,236h48v1h-48z M82,237h34v1h-34z M92,238h13v1h-13z"/>
<path d="M1041,3h9v1h-9z M1029,4h33v1h-33z M1023,5h45v1h-45z M1018,6h54v1h-54z M1014,7h62v1h-62z M1011,8h69v1h-69z M1008,9h75v1h-75z M1005,10h81v1h-81z M1002,11h86v1h-86z M1000,12h91v1h-91z M997,13h96v1h-96z M995,14h100v1h-100z M993,15h104v1h-104z M991,16h108v1h-108z M989,17h112v1h-112z M987,18h116v1h-116z M986,19h119v1h-119z M984,20h122v1h-122z M982,21h126v1h-126z M981,22h128v1h-128z M979,23h132v1h-132z M978,24h134v1h-134z M977,25h137v1h-137z M975,26h140v1h-140z M974,27h142v1h-142z M973,28h145v1h-145z M971,29h148v1h-148z M970,30h150v1h-150z M969,31h152v1h-152z M968,32h154v1h-154z M967,33h157v1h-157z M966,34h159v1h-159z M965,35h161v1h-161z M964,36h163v1h-163z M963,37h165v1h-165z M962,38h167v1h-167z M961,39h169v1h-169z M960,40h171v1h-171z M959,41h173v1h-173z M958,42h175v1h-175z M957,43h176v1h-176z M956,44h178v1h-178z M955,45h180v1h-180z M955,46h181v1h-181z M954,47h183v1h-183z M953,48h184v1h-184z M952,49h186v1h-186z M951,50h188v1h-188z M951,51h189v1h-189z M950,52h190v1h-190z M949,53h192v1h-192z M949,54h193v1h-193z M948,55h194v1h-194z M947,56h196v1h-196z M947,57h197v1h-197z M946,58h91v1h-91z M1052,58h92v1h-92z M945,59h86v1h-86z M1057,59h88v1h-88z M945,60h83v1h-83z M1061,60h85v1h-85z M944,61h81v1h-81z M1064,61h82v1h-82z M944,62h78v1h-78z M1067,62h80v1h-80z M943,63h77v1h-77z M1069,63h78v1h-78z M943,64h75v1h-75z M1071,64h77v1h-77z M942,65h74v1h-74z M1073,65h75v1h-75z M941,66h73v1h-73z M1075,66h74v1h-74z M941,67h72v1h-72z M1076,67h73v1h-73z M940,68h71v1h-71z M1078,68h72v1h-72z M940,69h70v1h-70z M1079,69h71v1h-71z M940,70h69v1h-69z M1081,70h70v1h-70z M939,71h68v1h-68z M1082,71h69v1h-69z M939,72h67v1h-67z M1083,72h69v1h-69z M938,73h67v1h-67z M1084,73h68v1h-68z M938,74h66v1h-66z M1085,74h68v1h-68z M937,75h66v1h-66z M1086,75h67v1h-67z M937,76h65v1h-65z M1087,76h66v1h-66z M937,77h64v1h-64z M1088,77h66v1h-66z M936,78h65v1h-65z M1089,78h65v1h-65z M936,79h64v1h-64z M1090,79h65v1h-65z M935,80h64v1h-64z M1091,80h64v1h-64z M935,81h63v1h-63z M1091,81h64v1h-64z M935,82h63v1h-63z M1092,82h64v1h-64z M934,83h63v1h-63z M1093,83h63v1h-63z M934,84h62v1h-62z M1094,84h62v1h-62z M934,85h62v1h-62z M1094,85h63v1h-63z M933,86h62v1h-62z M1095,86h62v1h-62z M933,87h62v1h-62z M1096,87h61v1h-61z M933,88h61v1h-61z M1096,88h61v1h-61z M933,89h61v1h-61z M1097,89h61v1h-61z M932,90h61v1h-61z M1097,90h61v1h-61z M932,91h61v1h-61z M1098,91h60v1h-60z M932,92h60v1h-60z M1098,92h61v1h-61z M932,93h60v1h-60z M1099,93h60v1h-60z M931,94h60v1h-60z M1099,94h60v1h-60z M931,95h60v1h-60z M1099,95h60v1h-60z M931,96h60v1h-60z M1100,96h59v1h-59z M931,97h59v1h-59z M1100,97h60v1h-60z M931,98h59v1h-59z M1101,98h59v1h-59z M930,99h60v1h-60z M1101,99h59v1h-59z M930,100h59v1h-59z M1101,100h59v1h-59z M930,101h59v1h-59z M1102,101h58v1h-58z M930,102h59v1h-59z M1102,102h58v1h-58z M930,103h59v1h-59z M1102,103h59v1h-59z M930,104h58v1h-58z M1102,104h59v1h-59z M930,105h58v1h-58z M1103,105h58v1h-58z M929,106h59v1h-59z M1103,106h58v1h-58z M929,107h59v1h-59z M1103,107h58v1h-58z M929,108h59v1h-59z M1103,108h58v1h-58z M929,109h58v1h-58z M1103,109h58v1h-58z M929,110h58v1h-58z M1103,110h58v1h-58z M929,111h58v1h-58z M1103,111h58v1h-58z M929,112h58v1h-58z M1104,112h57v1h-57z M929,113h58v1h-58z M1104,113h58v1h-58z M929,114h58v1h-58z M1104,114h58v1h-58z M929,115h58v1h-58z M1104,115h58v1h-58z M929,116h58v1h-58z M1104,116h58v1h-58z M929,117h58v1h-58z M1104,117h58v1h-58z M929,118h58v1h-58z M1104,118h58v1h-58z M929,119h58v1h-58z M1104,119h58v1h-58z M929,120h58v1h-58z M1104,120h58v1h-58z M929,121h58v1h-58z M1104,121h58v1h-58z M929,122h58v1h-58z M1104,122h58v1h-58z M929,123h58v1h-58z M1104,123h58v1h-58z M929,124h58v1h-58z M1104,124h58v1h-58z M929,125h58v1h-58z M1104,125h58v1h-58z M929,126h58v1h-58z M1103,126h58v1h-58z M929,127h58v1h-58z M1103,127h58v1h-58z M929,128h58v1h-58z M1103,128h58v1h-58z M929,129h58v1h-58z M1103,129h58v1h-58z M929,130h58v1h-58z M1103,130h58v1h-58z M929,131h58v1h-58z M1103,131h58v1h-58z M929,132h59v1h-59z M1103,132h58v1h-58z M929,133h59v1h-59z M1103,133h58v1h-58z M930,134h58v1h-58z M1102,134h59v1h-59z M930,135h58v1h-58z M1102,135h59v1h-59z M930,136h58v1h-58z M1102,136h59v1h-59z M930,137h59v1h-59z M1102,137h58v1h-58z M930,138h59v1h-59z M1101,138h59v1h-59z M930,139h59v1h-59z M1101,139h59v1h-59z M930,140h60v1h-60z M1101,140h59v1h-59z M931,141h59v1h-59z M1100,141h60v1h-60z M931,142h59v1h-59z M1100,142h60v1h-60z M931,143h60v1h-60z M1100,143h59v1h-59z M931,144h60v1h-60z M1099,144h60v1h-60z M931,145h60v1h-60z M1099,145h60v1h-60z M932,146h60v1h-60z M1099,146h60v1h-60z M932,147h60v1h-60z M1098,147h60v1h-60z M932,148h61v1h-61z M1098,148h60v1h-60z M932,149h61v1h-61z M1097,149h61v1h-61z M933,150h61v1h-61z M1097,150h61v1h-61z M933,151h61v1h-61z M1096,151h61v1h-61z M933,152h62v1h-62z M1096,152h61v1h-61z M933,153h63v1h-63z M1095,153h62v1h-62z M934,154h62v1h-62z M1095,154h61v1h-61z M934,155h63v1h-63z M1094,155h62v1h-62z M934,156h64v1h-64z M1094,156h62v1h-62z M935,157h63v1h-63z M1093,157h62v1h-62z M935,158h64v1h-64z M1092,158h63v1h-63z M935,159h65v1h-65z M1091,159h64v1h-64z M936,160h65v1h-65z M1091,160h63v1h-63z M936,161h66v1h-66z M1090,161h64v1h-64z M936,162h66v1h-66z M1089,162h65v1h-65z M937,163h66v1h-66z M1088,163h65v1h-65z M937,164h67v1h-67z M1087,164h66v1h-66z M938,165h67v1h-67z M1086,165h66v1h-66z M938,166h68v1h-68z M1085,166h67v1h-67z M939,167h69v1h-69z M1084,167h67v1h-67z M939,168h70v1h-70z M1083,168h68v1h-68z M940,169h70v1h-70z M1082,169h69v1h-69z M940,170h71v1h-71z M1081,170h69v1h-69z M940,171h73v1h-73z M1080,171h70v1h-70z M941,172h73v1h-73z M1078,172h71v1h-71z M941,173h75v1h-75z M1077,173h72v1h-72z M942,174h75v1h-75z M1075,174h73v1h-73z M943,175h76v1h-76z M1073,175h74v1h-74z M943,176h78v1h-78z M1071,176h76v1h-76z M944,177h80v1h-80z M1069,177h77v1h-77z M944,178h82v1h-82z M1067,178h79v1h-79z M945,179h84v1h-84z M1064,179h81v1h-81z M945,180h88v1h-88z M1060,180h85v1h-85z M946,181h91v1h-91z M1055,181h89v1h-89z M947,182h196v1h-196z M947,183h196v1h-196z M948,184h194v1h-194z M949,185h192v1h-192z M949,186h192v1h-192z M950,187h190v1h-190z M951,188h188v1h-188z M952,189h186v1h-186z M952,190h186v1h-186z M953,191h184v1h-184z M954,192h182v1h-182z M955,193h180v1h-180z M956,194h178v1h-178z M957,195h176v1h-176z M957,196h175v1h-175z M958,197h174v1h-174z M959,198h172v1h-172z M960,199h170v1h-170z M961,200h168v1h-168z M962,201h166v1h-166z M963,202h164v1h-164z M964,203h162v1h-162z M965,204h159v1h-159z M966,205h157v1h-157z M968,206h154v1h-154z M969,207h152v1h-152z M970,208h150v1h-150z M971,209h148v1h-148z M972,210h145v1h-145z M974,211h142v1h-142z M975,212h140v1h-140z M976,213h137v1h-137z M978,214h134v1h-134z M979,215h131v1h-131z M981,216h128v1h-128z M983,217h124v1h-124z M984,218h122v1h-122z M986,219h118v1h-118z M988,220h114v1h-114z M990,221h110v1h-110z M992,222h106v1h-106z M994,223h102v1h-102z M996,224h98v1h-98z M998,225h94v1h-94z M1001,226h88v1h-88z M1003,227h83v1h-83z M1006,228h77v1h-77z M1009,229h71v1h-71z M1013,230h64v1h-64z M1017,231h55v1h-55z M1022,232h45v1h-45z M1029,233h31v1h-31z"/>
<path d="M318,6h7v1h-7z M306,7h29v1h-29z M299,8h42v1h-42z M294,9h51v1h-51z M290,10h59v1h-59z M286,11h67v1h-67z M283,12h73v1h-73z M383,12h55v1h-55z M280,13h79v1h-79z M383,13h55v1h-55z M277,14h84v1h-84z M383,14h55v1h-55z M274,15h90v1h-90z M383,15h55v1h-55z M272,16h94v1h-94z M383,16h55v1h-55z M270,17h98v1h-98z M383,17h55v1h-55z M268,18h103v1h-103z M383,18h55v1h-55z M265,19h108v1h-108z M383,19h55v1h-55z M264,20h111v1h-111z M383,20h55v1h-55z M262,21h114v1h-114z M383,21h55v1h-55z M260,22h118v1h-118z M383,22h55v1h-55z M258,23h122v1h-122z M383,23h55v1h-55z M256,24h126v1h-126z M383,24h55v1h-55z M255,25h183v1h-183z M253,26h185v1h-185z M252,27h186v1h-186z M250,28h188v1h-188z M249,29h189v1h-189z M248,30h190v1h-190z M246,31h192v1h-192z M245,32h193v1h-193z M244,33h194v1h-194z M243,34h195v1h-195z M241,35h197v1h-197z M240,36h198v1h-198z M239,37h199v1h-199z M238,38h200v1h-200z M237,39h201v1h-201z M236,40h202v1h-202z M235,41h203v1h-203z M234,42h204v1h-204z M233,43h205v1h-205z M232,44h206v1h-206z M231,45h207v1h-207z M231,46h207v1h-207z M230,47h208v1h-208z M229,48h209v1h-209z M228,49h210v1h-210z M227,50h211v1h-211z M226,51h212v1h-212z M226,52h212v1h-212z M225,53h213v1h-213z M224,54h214v1h-214z M224,55h93v1h-93z M337,55h101v1h-101z M223,56h89v1h-89z M342,56h96v1h-96z M222,57h86v1h-86z M345,57h93v1h-93z M222,58h83v1h-83z M348,58h90v1h-90z M221,59h82v1h-82z M351,59h87v1h-87z M220,60h80v1h-80z M353,60h85v1h-85z M220,61h78v1h-78z M355,61h83v1h-83z M219,62h77v1h-77z M357,62h81v1h-81z M219,63h76v1h-76z M359,63h79v1h-79z M218,64h75v1h-75z M360,64h78v1h-78z M217,65h75v1h-75z M362,65h76v1h-76z M217,66h73v1h-73z M363,66h75v1h-75z M216,67h73v1h-73z M365,67h73v1h-73z M216,68h71v1h-71z M366,68h72v1h-72z M215,69h71v1h-71z M367,69h71v1h-71z M215,70h70v1h-70z M368,70h70v1h-70z M215,71h69v1h-69z M370,71h68v1h-68z M214,72h69v1h-69z M371,72h67v1h-67z M214,73h68v1h-68z M372,73h66v1h-66z M213,74h68v1h-68z M373,74h65v1h-65z M213,75h67v1h-67z M374,75h64v1h-64z M212,76h67v1h-67z M374,76h64v1h-64z M212,77h66v1h-66z M375,77h63v1h-63z M212,78h65v1h-65z M376,78h62v1h-62z M211,79h66v1h-66z M377,79h61v1h-61z M211,80h65v1h-65z M378,80h60v1h-60z M211,81h64v1h-64z M378,81h60v1h-60z M210,82h64v1h-64z M379,82h59v1h-59z M210,83h64v1h-64z M380,83h58v1h-58z M210,84h63v1h-63z M380,84h58v1h-58z M209,85h63v1h-63z M381,85h57v1h-57z M209,86h63v1h-63z M382,86h56v1h-56z M209,87h62v1h-62z M382,87h56v1h-56z M208,88h63v1h-63z M383,88h55v1h-55z M208,89h62v1h-62z M383,89h55v1h-55z M208,90h62v1h-62z M384,90h54v1h-54z M208,91h61v1h-61z M384,91h54v1h-54z M207,92h62v1h-62z M385,92h53v1h-53z M207,93h61v1h-61z M385,93h53v1h-53z M207,94h61v1h-61z M386,94h52v1h-52z M207,95h61v1h-61z M386,95h52v1h-52z M207,96h60v1h-60z M386,96h52v1h-52z M206,97h61v1h-61z M387,97h51v1h-51z M206,98h60v1h-60z M387,98h51v1h-51z M206,99h60v1h-60z M387,99h51v1h-51z M206,100h60v1h-60z M388,100h50v1h-50z M206,101h60v1h-60z M388,101h50v1h-50z M206,102h59v1h-59z M388,102h50v1h-50z M206,103h59v1h-59z M388,103h50v1h-50z M205,104h60v1h-60z M389,104h49v1h-49z M205,105h60v1h-60z M389,105h49v1h-49z M205,106h59v1h-59z M389,106h49v1h-49z M205,107h59v1h-59z M389,107h49v1h-49z M205,108h59v1h-59z M390,108h48v1h-48z M205,109h59v1h-59z M390,109h48v1h-48z M205,110h59v1h-59z M390,110h48v1h-48z M205,111h59v1h-59z M390,111h48v1h-48z M205,112h59v1h-59z M390,112h48v1h-48z M205,113h58v1h-58z M390,113h48v1h-48z M205,114h58v1h-58z M390,114h48v1h-48z M205,115h58v1h-58z M390,115h48v1h-48z M205,116h58v1h-58z M390,116h48v1h-48z M205,117h58v1h-58z M390,117h48v1h-48z M205,118h58v1h-58z M390,118h48v1h-48z M205,119h58v1h-58z M390,119h48v1h-48z M205,120h58v1h-58z M390,120h48v1h-48z M205,121h58v1h-58z M390,121h48v1h-48z M205,122h58v1h-58z M390,122h48v1h-48z M205,123h58v1h-58z M390,123h48v1h-48z M205,124h59v1h-59z M390,124h48v1h-48z M205,125h59v1h-59z M390,125h48v1h-48z M205,126h59v1h-59z M390,126h48v1h-48z M205,127h59v1h-59z M389,127h49v1h-49z M205,128h59v1h-59z M389,128h49v1h-49z M205,129h59v1h-59z M389,129h49v1h-49z M205,130h59v1h-59z M389,130h49v1h-49z M205,131h60v1h-60z M389,131h49v1h-49z M205,132h60v1h-60z M388,132h50v1h-50z M206,133h59v1h-59z M388,133h50v1h-50z M206,134h59v1h-59z M388,134h50v1h-50z M206,135h60v1h-60z M388,135h50v1h-50z M206,136h60v1h-60z M387,136h51v1h-51z M206,137h60v1h-60z M387,137h51v1h-51z M206,138h61v1h-61z M387,138h51v1h-51z M206,139h61v1h-61z M386,139h52v1h-52z M207,140h60v1h-60z M386,140h52v1h-52z M207,141h61v1h-61z M386,141h52v1h-52z M207,142h61v1h-61z M385,142h53v1h-53z M207,143h62v1h-62z M385,143h53v1h-53z M207,144h62v1h-62z M384,144h54v1h-54z M208,145h62v1h-62z M384,145h54v1h-54z M208,146h62v1h-62z M383,146h55v1h-55z M208,147h63v1h-63z M383,147h55v1h-55z M208,148h63v1h-63z M382,148h56v1h-56z M209,149h63v1h-63z M382,149h56v1h-56z M209,150h63v1h-63z M381,150h57v1h-57z M209,151h64v1h-64z M380,151h58v1h-58z M210,152h63v1h-63z M380,152h58v1h-58z M210,153h64v1h-64z M379,153h59v1h-59z M210,154h65v1h-65z M378,154h60v1h-60z M211,155h65v1h-65z M378,155h60v1h-60z M211,156h65v1h-65z M377,156h61v1h-61z M211,157h66v1h-66z M376,157h62v1h-62z M212,158h66v1h-66z M375,158h63v1h-63z M212,159h67v1h-67z M375,159h63v1h-63z M212,160h68v1h-68z M374,160h64v1h-64z M213,161h68v1h-68z M373,161h65v1h-65z M213,162h68v1h-68z M372,162h66v1h-66z M214,163h68v1h-68z M371,163h67v1h-67z M214,164h70v1h-70z M370,164h68v1h-68z M214,165h71v1h-71z M369,165h69v1h-69z M215,166h71v1h-71z M367,166h71v1h-71z M215,167h72v1h-72z M366,167h72v1h-72z M216,168h72v1h-72z M365,168h73v1h-73z M216,169h74v1h-74z M364,169h74v1h-74z M217,170h74v1h-74z M362,170h76v1h-76z M217,171h75v1h-75z M361,171h77v1h-77z M218,172h76v1h-76z M359,172h79v1h-79z M219,173h77v1h-77z M357,173h81v1h-81z M219,174h79v1h-79z M355,174h83v1h-83z M220,175h80v1h-80z M353,175h85v1h-85z M220,176h82v1h-82z M351,176h87v1h-87z M221,177h83v1h-83z M349,177h89v1h-89z M222,178h85v1h-85z M346,178h92v1h-92z M222,179h88v1h-88z M343,179h95v1h-95z M223,180h92v1h-92z M338,180h100v1h-100z M224,181h98v1h-98z M331,181h107v1h-107z M224,182h214v1h-214z M225,183h213v1h-213z M226,184h212v1h-212z M227,185h211v1h-211z M227,186h211v1h-211z M228,187h210v1h-210z M229,188h209v1h-209z M230,189h208v1h-208z M231,190h207v1h-207z M232,191h206v1h-206z M232,192h206v1h-206z M233,193h205v1h-205z M234,194h204v1h-204z M235,195h203v1h-203z M236,196h202v1h-202z M237,197h201v1h-201z M238,198h200v1h-200z M240,199h198v1h-198z M241,200h197v1h-197z M242,201h196v1h-196z M243,202h195v1h-195z M244,203h194v1h-194z M245,204h193v1h-193z M247,205h191v1h-191z M248,206h190v1h-190z M249,207h189v1h-189z M251,208h187v1h-187z M252,209h186v1h-186z M254,210h184v1h-184z M256,211h125v1h-125z M383,211h55v1h-55z M257,212h122v1h-122z M383,212h55v1h-55z M259,213h119v1h-119z M383,213h55v1h-55z M261,214h115v1h-115z M383,214h55v1h-55z M263,215h111v1h-111z M383,215h55v1h-55z M264,216h108v1h-108z M383,216h55v1h-55z M266,217h104v1h-104z M383,217h55v1h-55z M269,218h99v1h-99z M383,218h55v1h-55z M271,219h95v1h-95z M383,219h55v1h-55z M273,220h90v1h-90z M383,220h55v1h-55z M276,221h85v1h-85z M383,221h55v1h-55z M279,222h79v1h-79z M383,222h55v1h-55z M282,223h73v1h-73z M383,223h55v1h-55z M285,224h67v1h-67z M288,225h61v1h-61z M292,226h53v1h-53z M297,227h43v1h-43z M303,228h32v1h-32z M313,229h14v1h-14z"/>
<path d="M812,7h32v1h-32z M805,8h45v1h-45z M800,9h55v1h-55z M796,10h63v1h-63z M792,11h71v1h-71z M789,12h77v1h-77z M786,13h82v1h-82z M784,14h87v1h-87z M781,15h92v1h-92z M779,16h97v1h-97z M777,17h101v1h-101z M775,18h105v1h-105z M773,19h109v1h-109z M771,20h113v1h-113z M769,21h116v1h-116z M767,22h120v1h-120z M766,23h123v1h-123z M764,24h126v1h-126z M763,25h129v1h-129z M761,26h132v1h-132z M760,27h135v1h-135z M758,28h138v1h-138z M757,29h140v1h-140z M756,30h143v1h-143z M754,31h146v1h-146z M753,32h148v1h-148z M752,33h150v1h-150z M751,34h152v1h-152z M750,35h154v1h-154z M749,36h156v1h-156z M747,37h159v1h-159z M746,38h161v1h-161z M745,39h163v1h-163z M744,40h165v1h-165z M743,41h167v1h-167z M742,42h169v1h-169z M742,43h170v1h-170z M741,44h172v1h-172z M740,45h174v1h-174z M739,46h176v1h-176z M738,47h178v1h-178z M737,48h179v1h-179z M736,49h179v1h-179z M736,50h178v1h-178z M735,51h178v1h-178z M734,52h178v1h-178z M733,53h178v1h-178z M733,54h177v1h-177z M732,55h177v1h-177z M731,56h177v1h-177z M731,57h176v1h-176z M730,58h176v1h-176z M729,59h90v1h-90z M832,59h73v1h-73z M729,60h85v1h-85z M838,60h67v1h-67z M728,61h82v1h-82z M842,61h62v1h-62z M728,62h79v1h-79z M845,62h58v1h-58z M727,63h78v1h-78z M848,63h54v1h-54z M726,64h77v1h-77z M851,64h50v1h-50z M726,65h75v1h-75z M853,65h47v1h-47z M725,66h74v1h-74z M855,66h44v1h-44z M725,67h72v1h-72z M857,67h41v1h-41z M724,68h72v1h-72z M858,68h39v1h-39z M724,69h71v1h-71z M860,69h36v1h-36z M723,70h70v1h-70z M861,70h34v1h-34z M723,71h69v1h-69z M863,71h32v1h-32z M722,72h69v1h-69z M864,72h30v1h-30z M722,73h68v1h-68z M866,73h27v1h-27z M722,74h67v1h-67z M867,74h25v1h-25z M721,75h67v1h-67z M868,75h23v1h-23z M721,76h66v1h-66z M869,76h21v1h-21z M720,77h66v1h-66z M870,77h19v1h-19z M720,78h65v1h-65z M871,78h17v1h-17z M719,79h65v1h-65z M872,79h15v1h-15z M719,80h64v1h-64z M873,80h13v1h-13z M719,81h64v1h-64z M874,81h11v1h-11z M718,82h64v1h-64z M875,82h9v1h-9z M718,83h63v1h-63z M876,83h8v1h-8z M718,84h63v1h-63z M877,84h6v1h-6z M717,85h63v1h-63z M877,85h5v1h-5z M717,86h62v1h-62z M878,86h3v1h-3z M717,87h62v1h-62z M717,88h61v1h-61z M716,89h62v1h-62z M716,90h61v1h-61z M716,91h61v1h-61z M715,92h61v1h-61z M715,93h61v1h-61z M715,94h60v1h-60z M715,95h60v1h-60z M715,96h60v1h-60z M714,97h60v1h-60z M714,98h60v1h-60z M714,99h60v1h-60z M714,100h59v1h-59z M714,101h59v1h-59z M714,102h59v1h-59z M713,103h59v1h-59z M713,104h59v1h-59z M713,105h59v1h-59z M713,106h59v1h-59z M713,107h58v1h-58z M713,108h58v1h-58z M713,109h58v1h-58z M713,110h58v1h-58z M713,111h58v1h-58z M712,112h59v1h-59z M712,113h59v1h-59z M712,114h59v1h-59z M712,115h58v1h-58z M712,116h58v1h-58z M712,117h58v1h-58z M712,118h58v1h-58z M712,119h58v1h-58z M712,120h58v1h-58z M712,121h58v1h-58z M712,122h58v1h-58z M712,123h58v1h-58z M712,124h58v1h-58z M712,125h58v1h-58z M712,126h58v1h-58z M712,127h59v1h-59z M712,128h59v1h-59z M713,129h58v1h-58z M713,130h58v1h-58z M713,131h58v1h-58z M713,132h58v1h-58z M713,133h58v1h-58z M713,134h59v1h-59z M713,135h59v1h-59z M713,136h59v1h-59z M713,137h59v1h-59z M713,138h59v1h-59z M714,139h59v1h-59z M714,140h59v1h-59z M714,141h59v1h-59z M714,142h60v1h-60z M714,143h60v1h-60z M714,144h60v1h-60z M715,145h60v1h-60z M715,146h60v1h-60z M715,147h60v1h-60z M715,148h61v1h-61z M715,149h61v1h-61z M716,150h61v1h-61z M716,151h61v1h-61z M716,152h62v1h-62z M717,153h61v1h-61z M717,154h62v1h-62z M717,155h62v1h-62z M881,155h1v1h-1z M717,156h63v1h-63z M880,156h3v1h-3z M718,157h63v1h-63z M879,157h5v1h-5z M718,158h63v1h-63z M878,158h7v1h-7z M718,159h64v1h-64z M877,159h9v1h-9z M719,160h64v1h-64z M876,160h11v1h-11z M719,161h64v1h-64z M875,161h13v1h-13z M719,162h65v1h-65z M874,162h16v1h-16z M720,163h65v1h-65z M873,163h18v1h-18z M720,164h66v1h-66z M872,164h20v1h-20z M721,165h66v1h-66z M871,165h22v1h-22z M721,166h67v1h-67z M870,166h24v1h-24z M722,167h67v1h-67z M869,167h26v1h-26z M722,168h68v1h-68z M868,168h28v1h-28z M722,169h69v1h-69z M866,169h31v1h-31z M723,170h69v1h-69z M865,170h33v1h-33z M723,171h70v1h-70z M864,171h35v1h-35z M724,172h71v1h-71z M862,172h38v1h-38z M724,173h72v1h-72z M861,173h40v1h-40z M725,174h72v1h-72z M859,174h43v1h-43z M725,175h74v1h-74z M857,175h46v1h-46z M726,176h75v1h-75z M856,176h48v1h-48z M726,177h77v1h-77z M854,177h51v1h-51z M727,178h78v1h-78z M851,178h55v1h-55z M728,179h79v1h-79z M849,179h58v1h-58z M728,180h82v1h-82z M846,180h62v1h-62z M729,181h84v1h-84z M843,181h66v1h-66z M729,182h89v1h-89z M838,182h72v1h-72z M730,183h181v1h-181z M731,184h181v1h-181z M731,185h182v1h-182z M732,186h182v1h-182z M733,187h182v1h-182z M734,188h182v1h-182z M734,189h183v1h-183z M735,190h183v1h-183z M736,191h181v1h-181z M737,192h179v1h-179z M737,193h178v1h-178z M738,194h177v1h-177z M739,195h175v1h-175z M740,196h173v1h-173z M741,197h171v1h-171z M742,198h169v1h-169z M743,199h167v1h-167z M744,200h165v1h-165z M745,201h163v1h-163z M746,202h161v1h-161z M747,203h159v1h-159z M748,204h157v1h-157z M749,205h155v1h-155z M750,206h153v1h-153z M751,207h151v1h-151z M752,208h149v1h-149z M753,209h146v1h-146z M755,210h143v1h-143z M756,211h141v1h-141z M757,212h139v1h-139z M759,213h135v1h-135z M760,214h133v1h-133z M762,215h129v1h-129z M763,216h127v1h-127z M765,217h123v1h-123z M766,218h121v1h-121z M768,219h117v1h-117z M770,220h113v1h-113z M772,221h110v1h-110z M773,222h107v1h-107z M775,223h103v1h-103z M778,224h98v1h-98z M780,225h93v1h-93z M782,226h89v1h-89z M785,227h83v1h-83z M788,228h78v1h-78z M791,229h72v1h-72z M794,230h65v1h-65z M798,231h57v1h-57z M803,232h48v1h-48z M809,233h36v1h-36z M826,234h6v1h-6z"/>
<path d="M481,13h61v1h-61z M618,13h61v1h-61z M481,14h61v1h-61z M618,14h61v1h-61z M481,15h61v1h-61z M618,15h61v1h-61z M481,16h61v1h-61z M618,16h61v1h-61z M481,17h61v1h-61z M618,17h61v1h-61z M481,18h61v1h-61z M618,18h61v1h-61z M481,19h61v1h-61z M618,19h61v1h-61z M481,20h61v1h-61z M618,20h61v1h-61z M481,21h61v1h-61z M618,21h61v1h-61z M481,22h61v1h-61z M618,22h61v1h-61z M481,23h61v1h-61z M618,23h61v1h-61z M481,24h61v1h-61z M618,24h61v1h-61z M481,25h61v1h-61z M618,25h61v1h-61z M481,26h61v1h-61z M618,26h61v1h-61z M481,27h61v1h-61z M618,27h61v1h-61z M481,28h61v1h-61z M618,28h61v1h-61z M481,29h61v1h-61z M618,29h61v1h-61z M481,30h61v1h-61z M618,30h61v1h-61z M481,31h61v1h-61z M618,31h61v1h-61z M481,32h61v1h-61z M618,32h61v1h-61z M481,33h61v1h-61z M618,33h61v1h-61z M481,34h61v1h-61z M618,34h61v1h-61z M481,35h61v1h-61z M618,35h61v1h-61z M481,36h61v1h-61z M618,36h61v1h-61z M481,37h61v1h-61z M618,37h61v1h-61z M481,38h61v1h-61z M618,38h61v1h-61z M481,39h61v1h-61z M618,39h61v1h-61z M481,40h61v1h-61z M618,40h61v1h-61z M481,41h61v1h-61z M618,41h61v1h-61z M481,42h61v1h-61z M618,42h61v1h-61z M481,43h61v1h-61z M618,43h61v1h-61z M481,44h61v1h-61z M618,44h61v1h-61z M481,45h61v1h-61z M618,45h61v1h-61z M481,46h61v1h-61z M618,46h61v1h-61z M481,47h61v1h-61z M618,47h61v1h-61z M481,48h61v1h-61z M618,48h61v1h-61z M481,49h61v1h-61z M618,49h61v1h-61z M481,50h61v1h-61z M618,50h61v1h-61z M481,51h61v1h-61z M618,51h61v1h-61z M481,52h61v1h-61z M618,52h61v1h-61z M481,53h61v1h-61z M618,53h61v1h-61z M481,54h61v1h-61z M618,54h61v1h-61z M481,55h61v1h-61z M618,55h61v1h-61z M481,56h61v1h-61z M618,56h61v1h-61z M481,57h61v1h-61z M618,57h61v1h-61z M481,58h61v1h-61z M618,58h61v1h-61z M481,59h61v1h-61z M618,59h61v1h-61z M481,60h61v1h-61z M618,60h61v1h-61z M481,61h61v1h-61z M618,61h61v1h-61z M481,62h61v1h-61z M618,62h61v1h-61z M481,63h61v1h-61z M618,63h61v1h-61z M481,64h61v1h-61z M618,64h61v1h-61z M481,65h61v1h-61z M618,65h61v1h-61z M481,66h61v1h-61z M618,66h61v1h-61z M481,67h61v1h-61z M618,67h61v1h-61z M481,68h61v1h-61z M618,68h61v1h-61z M481,69h61v1h-61z M618,69h61v1h-61z M481,70h61v1h-61z M618,70h61v1h-61z M481,71h61v1h-61z M618,71h61v1h-61z M481,72h61v1h-61z M618,72h61v1h-61z M481,73h61v1h-61z M618,73h61v1h-61z M481,74h61v1h-61z M618,74h61v1h-61z M481,75h61v1h-61z M618,75h61v1h-61z M481,76h61v1h-61z M618,76h61v1h-61z M481,77h61v1h-61z M618,77h61v1h-61z M481,78h61v1h-61z M618,78h61v1h-61z M481,79h61v1h-61z M618,79h61v1h-61z M481,80h61v1h-61z M618,80h61v1h-61z M481,81h61v1h-61z M618,81h61v1h-61z M481,82h61v1h-61z M618,82h61v1h-61z M481,83h61v1h-61z M618,83h61v1h-61z M481,84h61v1h-61z M618,84h61v1h-61z M481,85h61v1h-61z M618,85h61v1h-61z M481,86h61v1h-61z M618,86h61v1h-61z M481,87h61v1h-61z M618,87h61v1h-61z M481,88h61v1h-61z M618,88h61v1h-61z M481,89h61v1h-61z M618,89h61v1h-61z M481,90h61v1h-61z M618,90h61v1h-61z M481,91h61v1h-61z M618,91h61v1h-61z M481,92h61v1h-61z M618,92h61v1h-61z M481,93h61v1h-61z M618,93h61v1h-61z M481,94h61v1h-61z M618,94h61v1h-61z M481,95h61v1h-61z M618,95h61v1h-61z M481,96h61v1h-61z M618,96h61v1h-61z M481,97h61v1h-61z M618,97h61v1h-61z M481,98h61v1h-61z M618,98h61v1h-61z M481,99h61v1h-61z M618,99h61v1h-61z M481,100h61v1h-61z M618,100h61v1h-61z M481,101h61v1h-61z M618,101h61v1h-61z M481,102h61v1h-61z M618,102h61v1h-61z M481,103h61v1h-61z M618,103h61v1h-61z M481,104h61v1h-61z M618,104h61v1h-61z M481,105h61v1h-61z M618,105h61v1h-61z M481,106h61v1h-61z M618,106h61v1h-61z M481,107h61v1h-61z M618,107h61v1h-61z M481,108h61v1h-61z M618,108h61v1h-61z M481,109h61v1h-61z M618,109h61v1h-61z M481,110h61v1h-61z M618,110h61v1h-61z M481,111h61v1h-61z M618,111h61v1h-61z M481,112h61v1h-61z M618,112h61v1h-61z M481,113h61v1h-61z M618,113h61v1h-61z M481,114h61v1h-61z M618,114h61v1h-61z M481,115h61v1h-61z M618,115h61v1h-61z M481,116h61v1h-61z M618,116h61v1h-61z M481,117h61v1h-61z M618,117h61v1h-61z M481,118h61v1h-61z M618,118h61v1h-61z M481,119h61v1h-61z M618,119h61v1h-61z M481,120h61v1h-61z M618,120h61v1h-61z M481,121h61v1h-61z M618,121h61v1h-61z M481,122h61v1h-61z M618,122h61v1h-61z M481,123h61v1h-61z M618,123h61v1h-61z M481,124h61v1h-61z M618,124h61v1h-61z M481,125h61v1h-61z M618,125h61v1h-61z M481,126h61v1h-61z M618,126h61v1h-61z M481,127h61v1h-61z M618,127h61v1h-61z M481,128h61v1h-61z M618,128h61v1h-61z M481,129h61v1h-61z M618,129h61v1h-61z M481,130h61v1h-61z M618,130h61v1h-61z M481,131h61v1h-61z M618,131h61v1h-61z M481,132h61v1h-61z M618,132h61v1h-61z M481,133h61v1h-61z M618,133h61v1h-61z M481,134h61v1h-61z M618,134h61v1h-61z M481,135h61v1h-61z M618,135h61v1h-61z M481,136h61v1h-61z M618,136h61v1h-61z M481,137h61v1h-61z M618,137h61v1h-61z M481,138h61v1h-61z M618,138h61v1h-61z M481,139h60v1h-60z M618,139h61v1h-61z M481,140h60v1h-60z M618,140h61v1h-61z M481,141h61v1h-61z M618,141h61v1h-61z M481,142h61v1h-61z M618,142h61v1h-61z M481,143h61v1h-61z M618,143h61v1h-61z M481,144h61v1h-61z M618,144h61v1h-61z M481,145h61v1h-61z M618,145h61v1h-61z M481,146h61v1h-61z M618,146h61v1h-61z M481,147h61v1h-61z M617,147h62v1h-62z M481,148h62v1h-62z M617,148h62v1h-62z M481,149h62v1h-62z M617,149h62v1h-62z M482,150h61v1h-61z M617,150h62v1h-62z M482,151h61v1h-61z M616,151h63v1h-63z M482,152h62v1h-62z M616,152h63v1h-63z M482,153h62v1h-62z M616,153h63v1h-63z M482,154h63v1h-63z M616,154h63v1h-63z M482,155h63v1h-63z M615,155h64v1h-64z M482,156h63v1h-63z M615,156h64v1h-64z M483,157h63v1h-63z M614,157h65v1h-65z M483,158h64v1h-64z M614,158h65v1h-65z M483,159h64v1h-64z M613,159h66v1h-66z M483,160h65v1h-65z M613,160h66v1h-66z M484,161h64v1h-64z M612,161h67v1h-67z M484,162h65v1h-65z M611,162h68v1h-68z M484,163h66v1h-66z M611,163h68v1h-68z M484,164h67v1h-67z M610,164h69v1h-69z M485,165h67v1h-67z M609,165h70v1h-70z M485,166h67v1h-67z M608,166h71v1h-71z M485,167h68v1h-68z M608,167h71v1h-71z M486,168h68v1h-68z M607,168h72v1h-72z M486,169h70v1h-70z M606,169h73v1h-73z M486,170h71v1h-71z M604,170h75v1h-75z M487,171h71v1h-71z M603,171h76v1h-76z M487,172h73v1h-73z M602,172h77v1h-77z M488,173h73v1h-73z M600,173h79v1h-79z M488,174h75v1h-75z M598,174h81v1h-81z M488,175h77v1h-77z M596,175h83v1h-83z M489,176h79v1h-79z M594,176h85v1h-85z M489,177h82v1h-82z M591,177h88v1h-88z M490,178h86v1h-86z M586,178h93v1h-93z M490,179h189v1h-189z M491,180h188v1h-188z M491,181h188v1h-188z M492,182h187v1h-187z M493,183h186v1h-186z M493,184h186v1h-186z M494,185h185v1h-185z M494,186h185v1h-185z M495,187h184v1h-184z M496,188h183v1h-183z M496,189h183v1h-183z M497,190h182v1h-182z M498,191h181v1h-181z M499,192h180v1h-180z M499,193h180v1h-180z M500,194h179v1h-179z M501,195h178v1h-178z M502,196h177v1h-177z M503,197h176v1h-176z M504,198h175v1h-175z M505,199h174v1h-174z M506,200h173v1h-173z M507,201h172v1h-172z M508,202h171v1h-171z M509,203h170v1h-170z M510,204h169v1h-169z M511,205h168v1h-168z M513,206h166v1h-166z M514,207h165v1h-165z M515,208h164v1h-164z M517,209h162v1h-162z M518,210h161v1h-161z M519,211h160v1h-160z M521,212h158v1h-158z M523,213h156v1h-156z M524,214h104v1h-104z M630,214h49v1h-49z M526,215h100v1h-100z M630,215h49v1h-49z M528,216h96v1h-96z M630,216h49v1h-49z M530,217h92v1h-92z M630,217h49v1h-49z M532,218h88v1h-88z M630,218h49v1h-49z M534,219h84v1h-84z M630,219h49v1h-49z M537,220h79v1h-79z M630,220h49v1h-49z M539,221h74v1h-74z M630,221h49v1h-49z M542,222h69v1h-69z M630,222h49v1h-49z M545,223h63v1h-63z M631,223h48v1h-48z M549,224h55v1h-55z M631,224h48v1h-48z M553,225h47v1h-47z M631,225h48v1h-48z M558,226h38v1h-38z M631,226h48v1h-48z M565,227h25v1h-25z M631,227h48v1h-48z"/>
<path d="M1193,13h49v1h-49z M1289,13h11v1h-11z M1193,14h49v1h-49z M1280,14h30v1h-30z M1193,15h49v1h-49z M1275,15h41v1h-41z M1193,16h49v1h-49z M1271,16h50v1h-50z M1193,17h49v1h-49z M1267,17h58v1h-58z M1193,18h49v1h-49z M1264,18h64v1h-64z M1193,19h49v1h-49z M1261,19h70v1h-70z M1193,20h49v1h-49z M1258,20h76v1h-76z M1193,21h49v1h-49z M1256,21h81v1h-81z M1193,22h49v1h-49z M1254,22h85v1h-85z M1193,23h49v1h-49z M1251,23h90v1h-90z M1193,24h49v1h-49z M1249,24h94v1h-94z M1193,25h49v1h-49z M1247,25h98v1h-98z M1193,26h49v1h-49z M1246,26h101v1h-101z M1193,27h49v1h-49z M1244,27h105v1h-105z M1193,28h158v1h-158z M1193,29h159v1h-159z M1193,30h161v1h-161z M1193,31h162v1h-162z M1193,32h164v1h-164z M1193,33h165v1h-165z M1193,34h166v1h-166z M1193,35h167v1h-167z M1193,36h169v1h-169z M1193,37h170v1h-170z M1193,38h171v1h-171z M1193,39h172v1h-172z M1193,40h173v1h-173z M1193,41h174v1h-174z M1193,42h175v1h-175z M1193,43h176v1h-176z M1193,44h177v1h-177z M1193,45h178v1h-178z M1193,46h179v1h-179z M1193,47h180v1h-180z M1193,48h180v1h-180z M1193,49h181v1h-181z M1193,50h182v1h-182z M1193,51h183v1h-183z M1193,52h183v1h-183z M1193,53h184v1h-184z M1193,54h185v1h-185z M1193,55h185v1h-185z M1193,56h186v1h-186z M1193,57h187v1h-187z M1193,58h187v1h-187z M1193,59h188v1h-188z M1193,60h188v1h-188z M1193,61h189v1h-189z M1193,62h189v1h-189z M1193,63h92v1h-92z M1298,63h85v1h-85z M1193,64h88v1h-88z M1303,64h80v1h-80z M1193,65h85v1h-85z M1306,65h78v1h-78z M1193,66h82v1h-82z M1308,66h76v1h-76z M1193,67h80v1h-80z M1310,67h75v1h-75z M1193,68h79v1h-79z M1312,68h73v1h-73z M1193,69h77v1h-77z M1313,69h73v1h-73z M1193,70h76v1h-76z M1315,70h71v1h-71z M1193,71h75v1h-75z M1316,71h70v1h-70z M1193,72h74v1h-74z M1317,72h70v1h-70z M1193,73h72v1h-72z M1318,73h69v1h-69z M1193,74h72v1h-72z M1319,74h68v1h-68z M1193,75h71v1h-71z M1320,75h68v1h-68z M1193,76h70v1h-70z M1321,76h67v1h-67z M1193,77h69v1h-69z M1322,77h66v1h-66z M1193,78h68v1h-68z M1323,78h66v1h-66z M1193,79h68v1h-68z M1324,79h65v1h-65z M1193,80h67v1h-67z M1324,80h65v1h-65z M1193,81h66v1h-66z M1325,81h64v1h-64z M1193,82h66v1h-66z M1325,82h65v1h-65z M1193,83h65v1h-65z M1326,83h64v1h-64z M1193,84h65v1h-65z M1327,84h63v1h-63z M1193,85h64v1h-64z M1327,85h63v1h-63z M1193,86h64v1h-64z M1328,86h62v1h-62z M1193,87h64v1h-64z M1328,87h63v1h-63z M1193,88h63v1h-63z M1328,88h63v1h-63z M1193,89h63v1h-63z M1329,89h62v1h-62z M1193,90h63v1h-63z M1329,90h62v1h-62z M1193,91h62v1h-62z M1329,91h62v1h-62z M1193,92h62v1h-62z M1330,92h61v1h-61z M1193,93h62v1h-62z M1330,93h61v1h-61z M1193,94h62v1h-62z M1330,94h61v1h-61z M1193,95h62v1h-62z M1330,95h62v1h-62z M1193,96h61v1h-61z M1330,96h62v1h-62z M1193,97h61v1h-61z M1331,97h61v1h-61z M1193,98h61v1h-61z M1331,98h61v1h-61z M1193,99h61v1h-61z M1331,99h61v1h-61z M1193,100h61v1h-61z M1331,100h61v1h-61z M1193,101h61v1h-61z M1331,101h61v1h-61z M1193,102h61v1h-61z M1331,102h61v1h-61z M1193,103h61v1h-61z M1331,103h61v1h-61z M1193,104h61v1h-61z M1331,104h61v1h-61z M1193,105h61v1h-61z M1331,105h61v1h-61z M1193,106h61v1h-61z M1331,106h61v1h-61z M1193,107h61v1h-61z M1331,107h61v1h-61z M1193,108h61v1h-61z M1331,108h61v1h-61z M1193,109h61v1h-61z M1331,109h61v1h-61z M1193,110h61v1h-61z M1331,110h61v1h-61z M1193,111h61v1h-61z M1331,111h61v1h-61z M1193,112h61v1h-61z M1331,112h61v1h-61z M1193,113h61v1h-61z M1331,113h61v1h-61z M1193,114h61v1h-61z M1331,114h61v1h-61z M1193,115h61v1h-61z M1331,115h61v1h-61z M1193,116h61v1h-61z M1331,116h61v1h-61z M1193,117h61v1h-61z M1331,117h61v1h-61z M1193,118h61v1h-61z M1331,118h61v1h-61z M1193,119h61v1h-61z M1331,119h61v1h-61z M1193,120h61v1h-61z M1331,120h61v1h-61z M1193,121h61v1h-61z M1331,121h61v1h-61z M1193,122h61v1h-61z M1331,122h61v1h-61z M1193,123h61v1h-61z M1331,123h61v1h-61z M1193,124h61v1h-61z M1331,124h61v1h-61z M1193,125h61v1h-61z M1331,125h61v1h-61z M1193,126h61v1h-61z M1331,126h61v1h-61z M1193,127h61v1h-61z M1331,127h61v1h-61z M1193,128h61v1h-61z M1331,128h61v1h-61z M1193,129h61v1h-61z M1331,129h61v1h-61z M1193,130h61v1h-61z M1331,130h61v1h-61z M1193,131h61v1h-61z M1331,131h61v1h-61z M1193,132h61v1h-61z M1331,132h61v1h-61z M1193,133h61v1h-61z M1331,133h61v1h-61z M1193,134h61v1h-61z M1331,134h61v1h-61z M1193,135h61v1h-61z M1331,135h61v1h-61z M1193,136h61v1h-61z M1331,136h61v1h-61z M1193,137h61v1h-61z M1331,137h61v1h-61z M1193,138h61v1h-61z M1331,138h61v1h-61z M1193,139h61v1h-61z M1331,139h61v1h-61z M1193,140h61v1h-61z M1331,140h61v1h-61z M1193,141h61v1h-61z M1331,141h61v1h-61z M1193,142h61v1h-61z M1331,142h61v1h-61z M1193,143h61v1h-61z M1331,143h61v1h-61z M1193,144h61v1h-61z M1331,144h61v1h-61z M1193,145h61v1h-61z M1331,145h61v1h-61z M1193,146h61v1h-61z M1331,146h61v1h-61z M1193,147h61v1h-61z M1331,147h61v1h-61z M1193,148h61v1h-61z M1331,148h61v1h-61z M1193,149h61v1h-61z M1331,149h61v1h-61z M1193,150h61v1h-61z M1331,150h61v1h-61z M1193,151h61v1h-61z M1331,151h61v1h-61z M1193,152h61v1h-61z M1331,152h61v1h-61z M1193,153h61v1h-61z M1331,153h61v1h-61z M1193,154h61v1h-61z M1331,154h61v1h-61z M1193,155h61v1h-61z M1331,155h61v1h-61z M1193,156h61v1h-61z M1331,156h61v1h-61z M1193,157h61v1h-61z M1331,157h61v1h-61z M1193,158h61v1h-61z M1331,158h61v1h-61z M1193,159h61v1h-61z M1331,159h61v1h-61z M1193,160h61v1h-61z M1331,160h61v1h-61z M1193,161h61v1h-61z M1331,161h61v1h-61z M1193,162h61v1h-61z M1331,162h61v1h-61z M1193,163h61v1h-61z M1331,163h61v1h-61z M1193,164h61v1h-61z M1331,164h61v1h-61z M1193,165h61v1h-61z M1331,165h61v1h-61z M1193,166h61v1h-61z M1331,166h61v1h-61z M1193,167h61v1h-61z M1331,167h61v1h-61z M1193,168h61v1h-61z M1331,168h61v1h-61z M1193,169h61v1h-61z M1331,169h61v1h-61z M1193,170h61v1h-61z M1331,170h61v1h-61z M1193,171h61v1h-61z M1331,171h61v1h-61z M1193,172h61v1h-61z M1331,172h61v1h-61z M1193,173h61v1h-61z M1331,173h61v1h-61z M1193,174h61v1h-61z M1331,174h61v1h-61z M1193,175h61v1h-61z M1331,175h61v1h-61z M1193,176h61v1h-61z M1331,176h61v1h-61z M1193,177h61v1h-61z M1331,177h61v1h-61z M1193,178h61v1h-61z M1331,178h61v1h-61z M1193,179h61v1h-61z M1331,179h61v1h-61z M1193,180h61v1h-61z M1331,180h61v1h-61z M1193,181h61v1h-61z M1331,181h61v1h-61z M1193,182h61v1h-61z M1331,182h61v1h-61z M1193,183h61v1h-61z M1331,183h61v1h-61z M1193,184h61v1h-61z M1331,184h61v1h-61z M1193,185h61v1h-61z M1331,185h61v1h-61z M1193,186h61v1h-61z M1331,186h61v1h-61z M1193,187h61v1h-61z M1331,187h61v1h-61z M1193,188h61v1h-61z M1331,188h61v1h-61z M1193,189h61v1h-61z M1331,189h61v1h-61z M1193,190h61v1h-61z M1331,190h61v1h-61z M1193,191h61v1h-61z M1331,191h61v1h-61z M1193,192h61v1h-61z M1331,192h61v1h-61z M1193,193h61v1h-61z M1331,193h61v1h-61z M1193,194h61v1h-61z M1331,194h61v1h-61z M1193,195h61v1h-61z M1331,195h61v1h-61z M1193,196h61v1h-61z M1331,196h61v1h-61z M1193,197h61v1h-61z M1331,197h61v1h-61z M1193,198h61v1h-61z M1331,198h61v1h-61z M1193,199h61v1h-61z M1331,199h61v1h-61z M1193,200h61v1h-61z M1331,200h61v1h-61z M1193,201h61v1h-61z M1331,201h61v1h-61z M1193,202h61v1h-61z M1331,202h61v1h-61z M1193,203h61v1h-61z M1331,203h61v1h-61z M1193,204h61v1h-61z M1331,204h61v1h-61z M1193,205h61v1h-61z M1331,205h61v1h-61z M1193,206h61v1h-61z M1331,206h61v1h-61z M1193,207h61v1h-61z M1331,207h61v1h-61z M1193,208h61v1h-61z M1331,208h61v1h-61z M1193,209h61v1h-61z M1331,209h61v1h-61z M1193,210h61v1h-61z M1331,210h61v1h-61z M1193,211h61v1h-61z M1331,211h61v1h-61z M1193,212h61v1h-61z M1331,212h61v1h-61z M1193,213h61v1h-61z M1331,213h61v1h-61z M1193,214h61v1h-61z M1331,214h61v1h-61z M1193,215h61v1h-61z M1331,215h61v1h-61z M1193,216h61v1h-61z M1331,216h61v1h-61z M1193,217h61v1h-61z M1331,217h61v1h-61z M1193,218h61v1h-61z M1331,218h61v1h-61z M1193,219h61v1h-61z M1331,219h61v1h-61z M1193,220h61v1h-61z M1331,220h61v1h-61z M1193,221h61v1h-61z M1331,221h61v1h-61z M1193,222h61v1h-61z M1331,222h61v1h-61z M1193,223h61v1h-61z M1331,223h61v1h-61z M1193,224h61v1h-61z M1331,224h61v1h-61z M1193,225h61v1h-61z M1331,225h61v1h-61z M1193,226h61v1h-61z M1331,226h61v1h-61z M1193,227h61v1h-61z M1331,227h61v1h-61z"/>
<path d="M1403,16h63v1h-63z M1571,16h61v1h-61z M1404,17h62v1h-62z M1571,17h61v1h-61z M1404,18h62v1h-62z M1571,18h60v1h-60z M1404,19h63v1h-63z M1570,19h61v1h-61z M1405,20h62v1h-62z M1570,20h61v1h-61z M1405,21h62v1h-62z M1569,21h61v1h-61z M1406,22h62v1h-62z M1569,22h61v1h-61z M1406,23h62v1h-62z M1569,23h61v1h-61z M1407,24h62v1h-62z M1568,24h61v1h-61z M1407,25h62v1h-62z M1568,25h61v1h-61z M1407,26h62v1h-62z M1568,26h60v1h-60z M1408,27h62v1h-62z M1567,27h61v1h-61z M1408,28h62v1h-62z M1567,28h61v1h-61z M1409,29h61v1h-61z M1567,29h60v1h-60z M1409,30h62v1h-62z M1566,30h61v1h-61z M1409,31h62v1h-62z M1566,31h60v1h-60z M1410,32h62v1h-62z M1566,32h60v1h-60z M1410,33h62v1h-62z M1565,33h61v1h-61z M1411,34h61v1h-61z M1565,34h60v1h-60z M1411,35h62v1h-62z M1565,35h60v1h-60z M1412,36h61v1h-61z M1564,36h61v1h-61z M1412,37h62v1h-62z M1564,37h60v1h-60z M1412,38h62v1h-62z M1564,38h60v1h-60z M1413,39h61v1h-61z M1563,39h60v1h-60z M1413,40h62v1h-62z M1563,40h60v1h-60z M1414,41h61v1h-61z M1562,41h61v1h-61z M1414,42h61v1h-61z M1562,42h60v1h-60z M1414,43h62v1h-62z M1562,43h60v1h-60z M1415,44h61v1h-61z M1561,44h60v1h-60z M1415,45h62v1h-62z M1561,45h60v1h-60z M1416,46h61v1h-61z M1561,46h60v1h-60z M1416,47h61v1h-61z M1560,47h60v1h-60z M1417,48h61v1h-61z M1560,48h60v1h-60z M1417,49h61v1h-61z M1560,49h60v1h-60z M1417,50h62v1h-62z M1559,50h60v1h-60z M1418,51h61v1h-61z M1559,51h60v1h-60z M1418,52h61v1h-61z M1559,52h59v1h-59z M1419,53h61v1h-61z M1558,53h60v1h-60z M1419,54h61v1h-61z M1558,54h60v1h-60z M1419,55h61v1h-61z M1558,55h59v1h-59z M1420,56h61v1h-61z M1557,56h60v1h-60z M1420,57h61v1h-61z M1557,57h59v1h-59z M1421,58h61v1h-61z M1557,58h59v1h-59z M1421,59h61v1h-61z M1556,59h60v1h-60z M1422,60h60v1h-60z M1556,60h59v1h-59z M1422,61h61v1h-61z M1556,61h59v1h-59z M1422,62h61v1h-61z M1555,62h59v1h-59z M1423,63h60v1h-60z M1555,63h59v1h-59z M1423,64h61v1h-61z M1554,64h60v1h-60z M1424,65h60v1h-60z M1554,65h59v1h-59z M1424,66h61v1h-61z M1554,66h59v1h-59z M1424,67h61v1h-61z M1553,67h60v1h-60z M1425,68h60v1h-60z M1553,68h59v1h-59z M1425,69h61v1h-61z M1553,69h59v1h-59z M1426,70h60v1h-60z M1552,70h59v1h-59z M1426,71h61v1h-61z M1552,71h59v1h-59z M1427,72h60v1h-60z M1552,72h59v1h-59z M1427,73h60v1h-60z M1551,73h59v1h-59z M1427,74h61v1h-61z M1551,74h59v1h-59z M1428,75h60v1h-60z M1551,75h58v1h-58z M1428,76h60v1h-60z M1550,76h59v1h-59z M1429,77h60v1h-60z M1550,77h59v1h-59z M1429,78h60v1h-60z M1550,78h58v1h-58z M1429,79h61v1h-61z M1549,79h59v1h-59z M1430,80h60v1h-60z M1549,80h59v1h-59z M1430,81h60v1h-60z M1549,81h58v1h-58z M1431,82h60v1h-60z M1548,82h59v1h-59z M1431,83h60v1h-60z M1548,83h58v1h-58z M1432,84h60v1h-60z M1547,84h59v1h-59z M1432,85h60v1h-60z M1547,85h59v1h-59z M1432,86h60v1h-60z M1547,86h58v1h-58z M1433,87h60v1h-60z M1546,87h59v1h-59z M1433,88h60v1h-60z M1546,88h58v1h-58z M1434,89h59v1h-59z M1546,89h58v1h-58z M1434,90h60v1h-60z M1545,90h59v1h-59z M1434,91h60v1h-60z M1545,91h58v1h-58z M1435,92h60v1h-60z M1545,92h58v1h-58z M1435,93h60v1h-60z M1544,93h59v1h-59z M1436,94h59v1h-59z M1544,94h58v1h-58z M1436,95h60v1h-60z M1544,95h58v1h-58z M1437,96h59v1h-59z M1543,96h58v1h-58z M1437,97h59v1h-59z M1543,97h58v1h-58z M1437,98h60v1h-60z M1543,98h58v1h-58z M1438,99h59v1h-59z M1542,99h58v1h-58z M1438,100h60v1h-60z M1542,100h58v1h-58z M1439,101h59v1h-59z M1542,101h57v1h-57z M1439,102h59v1h-59z M1541,102h58v1h-58z M1439,103h60v1h-60z M1541,103h58v1h-58z M1440,104h59v1h-59z M1541,104h57v1h-57z M1440,105h60v1h-60z M1540,105h58v1h-58z M1441,106h59v1h-59z M1540,106h58v1h-58z M1441,107h59v1h-59z M1539,107h58v1h-58z M1442,108h59v1h-59z M1539,108h58v1h-58z M1442,109h59v1h-59z M1539,109h57v1h-57z M1442,110h59v1h-59z M1538,110h58v1h-58z M1443,111h59v1h-59z M1538,111h58v1h-58z M1443,112h59v1h-59z M1538,112h57v1h-57z M1444,113h59v1h-59z M1537,113h58v1h-58z M1444,114h59v1h-59z M1537,114h57v1h-57z M1444,115h59v1h-59z M1537,115h57v1h-57z M1445,116h59v1h-59z M1536,116h58v1h-58z M1445,117h59v1h-59z M1536,117h57v1h-57z M1446,118h59v1h-59z M1536,118h57v1h-57z M1446,119h59v1h-59z M1535,119h58v1h-58z M1447,120h58v1h-58z M1535,120h57v1h-57z M1447,121h59v1h-59z M1535,121h57v1h-57z M1447,122h59v1h-59z M1534,122h57v1h-57z M1448,123h58v1h-58z M1534,123h57v1h-57z M1448,124h59v1h-59z M1534,124h57v1h-57z M1449,125h58v1h-58z M1533,125h57v1h-57z M1449,126h59v1h-59z M1533,126h57v1h-57z M1449,127h59v1h-59z M1532,127h57v1h-57z M1450,128h58v1h-58z M1532,128h57v1h-57z M1450,129h59v1h-59z M1532,129h57v1h-57z M1451,130h58v1h-58z M1531,130h57v1h-57z M1451,131h58v1h-58z M1531,131h57v1h-57z M1452,132h58v1h-58z M1531,132h57v1h-57z M1452,133h58v1h-58z M1530,133h57v1h-57z M1452,134h59v1h-59z M1530,134h57v1h-57z M1453,135h58v1h-58z M1530,135h56v1h-56z M1453,136h58v1h-58z M1529,136h57v1h-57z M1454,137h58v1h-58z M1529,137h57v1h-57z M1454,138h58v1h-58z M1529,138h56v1h-56z M1454,139h59v1h-59z M1528,139h57v1h-57z M1455,140h58v1h-58z M1528,140h56v1h-56z M1455,141h58v1h-58z M1528,141h56v1h-56z M1456,142h58v1h-58z M1527,142h57v1h-57z M1456,143h58v1h-58z M1527,143h56v1h-56z M1457,144h57v1h-57z M1527,144h56v1h-56z M1457,145h58v1h-58z M1526,145h57v1h-57z M1457,146h58v1h-58z M1526,146h56v1h-56z M1458,147h58v1h-58z M1526,147h56v1h-56z M1458,148h58v1h-58z M1525,148h56v1h-56z M1459,149h57v1h-57z M1525,149h56v1h-56z M1459,150h58v1h-58z M1524,150h57v1h-57z M1459,151h58v1h-58z M1524,151h56v1h-56z M1460,152h58v1h-58z M1524,152h56v1h-56z M1460,153h58v1h-58z M1523,153h56v1h-56z M1461,154h57v1h-57z M1523,154h56v1h-56z M1461,155h58v1h-58z M1523,155h56v1h-56z M1462,156h57v1h-57z M1522,156h56v1h-56z M1462,157h57v1h-57z M1522,157h56v1h-56z M1462,158h58v1h-58z M1522,158h56v1h-56z M1463,159h57v1h-57z M1521,159h56v1h-56z M1463,160h114v1h-114z M1464,161h112v1h-112z M1464,162h112v1h-112z M1464,163h112v1h-112z M1465,164h110v1h-110z M1465,165h110v1h-110z M1466,166h108v1h-108z M1466,167h108v1h-108z M1467,168h107v1h-107z M1467,169h106v1h-106z M1467,170h106v1h-106z M1468,171h105v1h-105z M1468,172h104v1h-104z M1469,173h103v1h-103z M1469,174h102v1h-102z M1469,175h102v1h-102z M1470,176h101v1h-101z M1470,177h100v1h-100z M1471,178h99v1h-99z M1471,179h98v1h-98z M1472,180h97v1h-97z M1472,181h97v1h-97z M1472,182h96v1h-96z M1473,183h95v1h-95z M1473,184h95v1h-95z M1474,185h93v1h-93z M1474,186h93v1h-93z M1474,187h92v1h-92z M1475,188h91v1h-91z M1475,189h91v1h-91z M1476,190h89v1h-89z M1476,191h89v1h-89z M1477,192h87v1h-87z M1477,193h87v1h-87z M1477,194h87v1h-87z M1478,195h85v1h-85z M1478,196h85v1h-85z M1479,197h84v1h-84z M1479,198h83v1h-83z M1479,199h83v1h-83z M1480,200h81v1h-81z M1480,201h81v1h-81z M1481,202h80v1h-80z M1481,203h79v1h-79z M1482,204h78v1h-78z M1482,205h77v1h-77z M1482,206h77v1h-77z M1483,207h76v1h-76z M1483,208h75v1h-75z M1484,209h74v1h-74z M1484,210h74v1h-74z M1484,211h73v1h-73z M1485,212h72v1h-72z M1485,213h71v1h-71z M1486,214h70v1h-70z M1486,215h70v1h-70z M1487,216h68v1h-68z M1487,217h68v1h-68z M1487,218h67v1h-67z M1488,219h66v1h-66z M1488,220h66v1h-66z M1489,221h64v1h-64z M1489,222h64v1h-64z M1489,223h64v1h-64z M1490,224h62v1h-62z M1490,225h62v1h-62z M1491,226h60v1h-60z M1491,227h60v1h-60z M1492,228h59v1h-59z M1492,229h58v1h-58z M1491,230h59v1h-59z M1491,231h58v1h-58z M1491,232h58v1h-58z M1490,233h59v1h-59z M1489,234h59v1h-59z M1489,235h59v1h-59z M1488,236h60v1h-60z M1488,237h59v1h-59z M1487,238h60v1h-60z M1437,239h2v1h-2z M1486,239h60v1h-60z M1437,240h4v1h-4z M1486,240h60v1h-60z M1436,241h7v1h-7z M1485,241h61v1h-61z M1436,242h9v1h-9z M1484,242h61v1h-61z M1435,243h12v1h-12z M1483,243h62v1h-62z M1435,244h14v1h-14z M1482,244h62v1h-62z M1434,245h17v1h-17z M1480,245h64v1h-64z M1434,246h20v1h-20z M1479,246h64v1h-64z M1434,247h24v1h-24z M1476,247h67v1h-67z M1433,248h31v1h-31z M1472,248h71v1h-71z M1433,249h109v1h-109z M1432,250h110v1h-110z M1432,251h109v1h-109z M1431,252h110v1h-110z M1431,253h109v1h-109z M1430,254h110v1h-110z M1430,255h109v1h-109z M1429,256h110v1h-110z M1429,257h109v1h-109z M1429,258h109v1h-109z M1428,259h109v1h-109z M1428,260h109v1h-109z M1427,261h109v1h-109z M1427,262h108v1h-108z M1426,263h109v1h-109z M1426,264h108v1h-108z M1425,265h109v1h-109z M1425,266h108v1h-108z M1424,267h108v1h-108z M1424,268h108v1h-108z M1424,269h107v1h-107z M1423,270h107v1h-107z M1423,271h107v1h-107z M1422,272h107v1h-107z M1422,273h106v1h-106z M1421,274h106v1h-106z M1421,275h106v1h-106z M1420,276h106v1h-106z M1420,277h105v1h-105z M1419,278h105v1h-105z M1419,279h104v1h-104z M1419,280h103v1h-103z M1418,281h103v1h-103z M1418,282h102v1h-102z M1417,283h102v1h-102z M1418,284h100v1h-100z M1420,285h97v1h-97z M1422,286h94v1h-94z M1424,287h90v1h-90z M1426,288h87v1h-87z M1428,289h83v1h-83z M1430,290h80v1h-80z M1432,291h76v1h-76z M1435,292h71v1h-71z M1438,293h66v1h-66z M1441,294h61v1h-61z M1444,295h55v1h-55z M1448,296h48v1h-48z M1453,297h39v1h-39z M1459,298h27v1h-27z"/>
<path d="M1679,16h17v1h-17z M1675,17h25v1h-25z M1672,18h31v1h-31z M1670,19h36v1h-36z M1668,20h40v1h-40z M1666,21h43v1h-43z M1664,22h47v1h-47z M1663,23h19v1h-19z M1693,23h19v1h-19z M1661,24h17v1h-17z M1697,24h17v1h-17z M1660,25h15v1h-15z M1700,25h15v1h-15z M1659,26h14v1h-14z M1702,26h14v1h-14z M1658,27h13v1h-13z M1704,27h13v1h-13z M1657,28h12v1h-12z M1706,28h12v1h-12z M1656,29h12v1h-12z M1707,29h12v1h-12z M1655,30h11v1h-11z M1709,30h11v1h-11z M1655,31h10v1h-10z M1710,31h11v1h-11z M1654,32h10v1h-10z M1711,32h10v1h-10z M1653,33h10v1h-10z M1712,33h10v1h-10z M1652,34h10v1h-10z M1713,34h10v1h-10z M1652,35h9v1h-9z M1714,35h9v1h-9z M1651,36h9v1h-9z M1715,36h9v1h-9z M1651,37h9v1h-9z M1715,37h9v1h-9z M1650,38h9v1h-9z M1716,38h9v1h-9z M1650,39h8v1h-8z M1717,39h8v1h-8z M1649,40h9v1h-9z M1717,40h9v1h-9z M1649,41h8v1h-8z M1718,41h8v1h-8z M1648,42h9v1h-9z M1718,42h9v1h-9z M1648,43h8v1h-8z M1719,43h8v1h-8z M1648,44h8v1h-8z M1719,44h8v1h-8z M1647,45h8v1h-8z M1720,45h8v1h-8z M1647,46h8v1h-8z M1720,46h8v1h-8z M1647,47h8v1h-8z M1720,47h8v1h-8z M1647,48h7v1h-7z M1721,48h7v1h-7z M1647,49h7v1h-7z M1721,49h8v1h-8z M1646,50h8v1h-8z M1721,50h8v1h-8z M1646,51h8v1h-8z M1721,51h8v1h-8z M1646,52h7v1h-7z M1721,52h8v1h-8z M1646,53h7v1h-7z M1722,53h7v1h-7z M1646,54h7v1h-7z M1722,54h7v1h-7z M1646,55h7v1h-7z M1722,55h7v1h-7z M1646,56h7v1h-7z M1722,56h7v1h-7z M1646,57h7v1h-7z M1722,57h7v1h-7z M1646,58h7v1h-7z M1722,58h7v1h-7z M1646,59h7v1h-7z M1722,59h7v1h-7z M1646,60h7v1h-7z M1722,60h7v1h-7z M1646,61h7v1h-7z M1722,61h7v1h-7z M1646,62h7v1h-7z M1722,62h7v1h-7z M1646,63h8v1h-8z M1721,63h8v1h-8z M1646,64h8v1h-8z M1721,64h8v1h-8z M1647,65h7v1h-7z M1721,65h8v1h-8z M1647,66h7v1h-7z M1721,66h7v1h-7z M1647,67h8v1h-8z M1720,67h8v1h-8z M1647,68h8v1h-8z M1720,68h8v1h-8z M1648,69h7v1h-7z M1720,69h8v1h-8z M1648,70h8v1h-8z M1719,70h8v1h-8z M1648,71h8v1h-8z M1719,71h8v1h-8z M1649,72h7v1h-7z M1718,72h9v1h-9z M1649,73h8v1h-8z M1718,73h8v1h-8z M1649,74h8v1h-8z M1717,74h9v1h-9z M1650,75h8v1h-8z M1717,75h8v1h-8z M1650,76h9v1h-9z M1716,76h9v1h-9z M1651,77h8v1h-8z M1716,77h8v1h-8z M1651,78h9v1h-9z M1715,78h9v1h-9z M1652,79h9v1h-9z M1714,79h9v1h-9z M1653,80h9v1h-9z M1713,80h9v1h-9z M1653,81h10v1h-10z M1712,81h10v1h-10z M1654,82h10v1h-10z M1711,82h10v1h-10z M1655,83h10v1h-10z M1710,83h10v1h-10z M1656,84h10v1h-10z M1709,84h10v1h-10z M1657,85h10v1h-10z M1708,85h11v1h-11z M1658,86h11v1h-11z M1706,86h12v1h-12z M1659,87h11v1h-11z M1704,87h13v1h-13z M1660,88h12v1h-12z M1703,88h13v1h-13z M1661,89h14v1h-14z M1700,89h14v1h-14z M1662,90h15v1h-15z M1698,90h15v1h-15z M1663,91h18v1h-18z M1693,91h19v1h-19z M1665,92h45v1h-45z M1667,93h42v1h-42z M1668,94h39v1h-39z M1670,95h35v1h-35z M1673,96h29v1h-29z M1676,97h23v1h-23z M1681,98h14v1h-14z"/>
<path d="M1672,33h23v1h-23z M1672,34h27v1h-27z M1672,35h29v1h-29z M1672,36h31v1h-31z M1672,37h32v1h-32z M1672,38h33v1h-33z M1672,39h33v1h-33z M1672,40h8v1h-8z M1695,40h11v1h-11z M1672,41h8v1h-8z M1698,41h8v1h-8z M1672,42h8v1h-8z M1699,42h8v1h-8z M1672,43h8v1h-8z M1699,43h8v1h-8z M1672,44h8v1h-8z M1700,44h7v1h-7z M1672,45h8v1h-8z M1700,45h7v1h-7z M1672,46h8v1h-8z M1700,46h7v1h-7z M1672,47h8v1h-8z M1700,47h7v1h-7z M1672,48h8v1h-8z M1700,48h7v1h-7z M1672,49h8v1h-8z M1700,49h7v1h-7z M1672,50h8v1h-8z M1699,50h8v1h-8z M1672,51h8v1h-8z M1699,51h8v1h-8z M1672,52h8v1h-8z M1698,52h8v1h-8z M1672,53h8v1h-8z M1696,53h10v1h-10z M1672,54h34v1h-34z M1672,55h33v1h-33z M1672,56h32v1h-32z M1672,57h31v1h-31z M1672,58h30v1h-30z M1672,59h29v1h-29z M1672,60h26v1h-26z M1672,61h24v1h-24z M1672,62h8v1h-8z M1688,62h8v1h-8z M1672,63h8v1h-8z M1688,63h9v1h-9z M1672,64h8v1h-8z M1689,64h9v1h-9z M1672,65h8v1h-8z M1690,65h8v1h-8z M1672,66h8v1h-8z M1690,66h9v1h-9z M1672,67h8v1h-8z M1691,67h9v1h-9z M1672,68h8v1h-8z M1692,68h8v1h-8z M1672,69h8v1h-8z M1692,69h9v1h-9z M1672,70h8v1h-8z M1693,70h9v1h-9z M1672,71h8v1h-8z M1694,71h8v1h-8z M1672,72h8v1h-8z M1694,72h9v1h-9z M1672,73h8v1h-8z M1695,73h9v1h-9z M1672,74h8v1h-8z M1695,74h9v1h-9z M1672,75h8v1h-8z M1696,75h9v1h-9z M1672,76h8v1h-8z M1697,76h9v1h-9z M1672,77h8v1h-8z M1697,77h9v1h-9z M1672,78h8v1h-8z M1698,78h9v1h-9z M1672,79h8v1h-8z M1699,79h8v1h-8z M1672,80h8v1h-8z M1699,80h9v1h-9z M1672,81h8v1h-8z M1700,81h8v1h-8z"/>
<path d="M1856,174h33v1h-33z M1848,175h49v1h-49z M1843,176h61v1h-61z M1838,177h71v1h-71z M1834,178h79v1h-79z M1830,179h88v1h-88z M1826,180h96v1h-96z M1823,181h102v1h-102z M1820,182h109v1h-109z M1817,183h115v1h-115z M1815,184h120v1h-120z M1812,185h126v1h-126z M1810,186h131v1h-131z M1808,187h136v1h-136z M1806,188h141v1h-141z M1804,189h145v1h-145z M1802,190h150v1h-150z M1800,191h155v1h-155z M1798,192h159v1h-159z M1796,193h164v1h-164z M1794,194h168v1h-168z M1792,195h172v1h-172z M1790,196h177v1h-177z M1788,197h181v1h-181z M1787,198h184v1h-184z M1785,199h189v1h-189z M1783,200h193v1h-193z M1781,201h197v1h-197z M1780,202h200v1h-200z M1778,203h204v1h-204z M1776,204h208v1h-208z M1775,205h211v1h-211z M1773,206h216v1h-216z M1772,207h219v1h-219z M1770,208h223v1h-223z M1768,209h227v1h-227z M1767,210h230v1h-230z M1765,211h234v1h-234z M1764,212h236v1h-236z M1762,213h240v1h-240z M1761,214h243v1h-243z M1759,215h247v1h-247z M1758,216h250v1h-250z M1756,217h254v1h-254z M1755,218h257v1h-257z M1753,219h261v1h-261z M1752,220h263v1h-263z M1750,221h267v1h-267z M1749,222h270v1h-270z M1747,223h274v1h-274z M1746,224h277v1h-277z M1744,225h280v1h-280z M1743,226h283v1h-283z M1741,227h287v1h-287z M1740,228h290v1h-290z M1739,229h98v1h-98z M1840,229h192v1h-192z M1737,230h94v1h-94z M1847,230h186v1h-186z M1736,231h92v1h-92z M1850,231h185v1h-185z M1734,232h91v1h-91z M1852,232h185v1h-185z M1733,233h90v1h-90z M1854,233h184v1h-184z M1731,234h90v1h-90z M1856,234h184v1h-184z M1730,235h90v1h-90z M1858,235h184v1h-184z M1729,236h90v1h-90z M1859,236h184v1h-184z M1727,237h90v1h-90z M1860,237h185v1h-185z M1726,238h90v1h-90z M1861,238h186v1h-186z M1725,239h90v1h-90z M1862,239h186v1h-186z M1723,240h91v1h-91z M1863,240h187v1h-187z M1722,241h91v1h-91z M1864,241h188v1h-188z M1721,242h92v1h-92z M1865,242h188v1h-188z M1719,243h93v1h-93z M1866,243h189v1h-189z M1718,244h93v1h-93z M1866,244h191v1h-191z M1717,245h93v1h-93z M1867,245h192v1h-192z M1715,246h95v1h-95z M1868,246h192v1h-192z M1714,247h95v1h-95z M1868,247h194v1h-194z M1713,248h96v1h-96z M1869,248h194v1h-194z M1711,249h97v1h-97z M1869,249h196v1h-196z M1710,250h98v1h-98z M1869,250h197v1h-197z M1709,251h99v1h-99z M1870,251h198v1h-198z M1707,252h100v1h-100z M1870,252h199v1h-199z M1706,253h101v1h-101z M1871,253h200v1h-200z M1705,254h102v1h-102z M1871,254h201v1h-201z M1703,255h103v1h-103z M1871,255h203v1h-203z M1702,256h104v1h-104z M1871,256h204v1h-204z M1700,257h106v1h-106z M1871,257h206v1h-206z M1699,258h107v1h-107z M1872,258h206v1h-206z M1698,259h108v1h-108z M1872,259h208v1h-208z M1696,260h110v1h-110z M1872,260h209v1h-209z M1695,261h110v1h-110z M1872,261h210v1h-210z M1693,262h112v1h-112z M1872,262h211v1h-211z M1692,263h113v1h-113z M1872,263h211v1h-211z M1690,264h116v1h-116z M1872,264h211v1h-211z M1689,265h117v1h-117z M1872,265h211v1h-211z M1688,266h118v1h-118z M1872,266h211v1h-211z M1686,267h120v1h-120z M1872,267h211v1h-211z M1685,268h121v1h-121z M1871,268h212v1h-212z M1683,269h123v1h-123z M1871,269h212v1h-212z M1682,270h124v1h-124z M1871,270h212v1h-212z M1681,271h126v1h-126z M1871,271h212v1h-212z M1679,272h128v1h-128z M1870,272h212v1h-212z M1678,273h129v1h-129z M1870,273h212v1h-212z M1677,274h131v1h-131z M1870,274h211v1h-211z M1675,275h133v1h-133z M1869,275h135v1h-135z M2028,275h51v1h-51z M1674,276h135v1h-135z M1869,276h123v1h-123z M2060,276h16v1h-16z M1673,277h136v1h-136z M1868,277h117v1h-117z M939,278h8v1h-8z M1671,278h139v1h-139z M1868,278h112v1h-112z M937,279h14v1h-14z M1670,279h140v1h-140z M1867,279h108v1h-108z M937,280h17v1h-17z M1668,280h143v1h-143z M1867,280h104v1h-104z M937,281h21v1h-21z M1667,281h145v1h-145z M1866,281h102v1h-102z M936,282h26v1h-26z M1666,282h146v1h-146z M1865,282h99v1h-99z M936,283h30v1h-30z M1664,283h149v1h-149z M1864,283h97v1h-97z M937,284h33v1h-33z M1663,284h151v1h-151z M1864,284h94v1h-94z M937,285h37v1h-37z M1662,285h153v1h-153z M1863,285h92v1h-92z M937,286h41v1h-41z M1660,286h156v1h-156z M1862,286h90v1h-90z M938,287h44v1h-44z M1659,287h158v1h-158z M1861,287h89v1h-89z M938,288h48v1h-48z M1658,288h160v1h-160z M1859,288h88v1h-88z M938,289h52v1h-52z M1656,289h163v1h-163z M1858,289h87v1h-87z M939,290h55v1h-55z M1655,290h166v1h-166z M1857,290h85v1h-85z M939,291h60v1h-60z M1653,291h169v1h-169z M1855,291h85v1h-85z M940,292h63v1h-63z M1652,292h172v1h-172z M1853,292h85v1h-85z M940,293h67v1h-67z M1651,293h176v1h-176z M1851,293h85v1h-85z M941,294h70v1h-70z M1649,294h180v1h-180z M1848,294h86v1h-86z M941,295h74v1h-74z M1648,295h186v1h-186z M1844,295h88v1h-88z M941,296h78v1h-78z M1646,296h86v1h-86z M1747,296h182v1h-182z M942,297h81v1h-81z M1645,297h83v1h-83z M1750,297h177v1h-177z M942,298h85v1h-85z M1644,298h82v1h-82z M1752,298h173v1h-173z M943,299h89v1h-89z M1642,299h82v1h-82z M1755,299h169v1h-169z M943,300h93v1h-93z M1641,300h81v1h-81z M1756,300h166v1h-166z M944,301h96v1h-96z M1639,301h82v1h-82z M1758,301h162v1h-162z M944,302h100v1h-100z M1638,302h81v1h-81z M1759,302h159v1h-159z M945,303h104v1h-104z M1636,303h82v1h-82z M1760,303h156v1h-156z M945,304h108v1h-108z M1635,304h82v1h-82z M1762,304h152v1h-152z M946,305h111v1h-111z M1633,305h83v1h-83z M1763,305h150v1h-150z M947,306h114v1h-114z M1632,306h83v1h-83z M1764,306h147v1h-147z M948,307h118v1h-118z M1630,307h84v1h-84z M1764,307h145v1h-145z M951,308h119v1h-119z M1629,308h84v1h-84z M1765,308h142v1h-142z M953,309h121v1h-121z M1627,309h85v1h-85z M1766,309h140v1h-140z M956,310h123v1h-123z M1626,310h86v1h-86z M1767,310h137v1h-137z M958,311h125v1h-125z M1624,311h87v1h-87z M1767,311h135v1h-135z M961,312h127v1h-127z M1623,312h87v1h-87z M1768,312h133v1h-133z M963,313h129v1h-129z M1621,313h89v1h-89z M1769,313h130v1h-130z M966,314h130v1h-130z M1620,314h89v1h-89z M1769,314h128v1h-128z M968,315h133v1h-133z M1618,315h91v1h-91z M1770,315h126v1h-126z M971,316h134v1h-134z M1616,316h92v1h-92z M1770,316h124v1h-124z M974,317h136v1h-136z M1615,317h93v1h-93z M1770,317h123v1h-123z M976,318h138v1h-138z M1613,318h95v1h-95z M1771,318h120v1h-120z M979,319h140v1h-140z M1611,319h96v1h-96z M1771,319h119v1h-119z M981,320h142v1h-142z M1610,320h97v1h-97z M1771,320h117v1h-117z M984,321h144v1h-144z M1608,321h99v1h-99z M1772,321h115v1h-115z M986,322h147v1h-147z M1606,322h101v1h-101z M1772,322h113v1h-113z M989,323h148v1h-148z M1604,323h102v1h-102z M1772,323h112v1h-112z M992,324h150v1h-150z M1603,324h103v1h-103z M1772,324h110v1h-110z M994,325h153v1h-153z M1601,325h105v1h-105z M1772,325h109v1h-109z M997,326h154v1h-154z M1599,326h107v1h-107z M1772,326h107v1h-107z M999,327h157v1h-157z M1597,327h109v1h-109z M1772,327h106v1h-106z M1002,328h159v1h-159z M1595,328h111v1h-111z M1772,328h104v1h-104z M1005,329h160v1h-160z M1593,329h113v1h-113z M1772,329h103v1h-103z M1007,330h163v1h-163z M1592,330h114v1h-114z M1772,330h101v1h-101z M1010,331h165v1h-165z M1590,331h116v1h-116z M1772,331h100v1h-100z M1013,332h167v1h-167z M1588,332h118v1h-118z M1772,332h99v1h-99z M1015,333h170v1h-170z M1586,333h120v1h-120z M1772,333h97v1h-97z M1018,334h172v1h-172z M1584,334h123v1h-123z M1772,334h96v1h-96z M1021,335h174v1h-174z M1582,335h125v1h-125z M1772,335h94v1h-94z M1023,336h177v1h-177z M1579,336h128v1h-128z M1771,336h94v1h-94z M1026,337h179v1h-179z M1577,337h130v1h-130z M1771,337h93v1h-93z M1028,338h182v1h-182z M1575,338h133v1h-133z M1771,338h91v1h-91z M1031,339h184v1h-184z M1573,339h135v1h-135z M1771,339h90v1h-90z M1034,340h186v1h-186z M1571,340h137v1h-137z M1770,340h89v1h-89z M1037,341h188v1h-188z M1568,341h141v1h-141z M1770,341h88v1h-88z M1039,342h192v1h-192z M1566,342h143v1h-143z M1769,342h88v1h-88z M1042,343h194v1h-194z M1563,343h147v1h-147z M1769,343h86v1h-86z M1045,344h196v1h-196z M1561,344h149v1h-149z M1768,344h86v1h-86z M1047,345h200v1h-200z M1558,345h153v1h-153z M1768,345h85v1h-85z M1050,346h202v1h-202z M1556,346h155v1h-155z M1767,346h84v1h-84z M1053,347h205v1h-205z M1553,347h159v1h-159z M1766,347h84v1h-84z M1055,348h208v1h-208z M1550,348h163v1h-163z M1766,348h83v1h-83z M1058,349h211v1h-211z M1547,349h166v1h-166z M1765,349h82v1h-82z M1061,350h214v1h-214z M1544,350h170v1h-170z M1764,350h82v1h-82z M1063,351h218v1h-218z M1541,351h174v1h-174z M1763,351h82v1h-82z M1066,352h221v1h-221z M1538,352h178v1h-178z M1762,352h81v1h-81z M1069,353h224v1h-224z M1535,353h182v1h-182z M1761,353h81v1h-81z M1072,354h227v1h-227z M1532,354h186v1h-186z M1760,354h81v1h-81z M1074,355h231v1h-231z M1528,355h192v1h-192z M1759,355h80v1h-80z M1077,356h235v1h-235z M1524,356h197v1h-197z M1757,356h81v1h-81z M1080,357h238v1h-238z M1520,357h203v1h-203z M1756,357h81v1h-81z M1083,358h242v1h-242z M1516,358h209v1h-209z M1754,358h82v1h-82z M1085,359h247v1h-247z M1512,359h215v1h-215z M1752,359h82v1h-82z M1088,360h252v1h-252z M1507,360h222v1h-222z M1749,360h84v1h-84z M1091,361h256v1h-256z M1502,361h135v1h-135z M1642,361h91v1h-91z M1745,361h87v1h-87z M1094,362h261v1h-261z M1497,362h134v1h-134z M1648,362h182v1h-182z M1096,363h268v1h-268z M1490,363h138v1h-138z M1651,363h178v1h-178z M1099,364h274v1h-274z M1483,364h143v1h-143z M1653,364h175v1h-175z M1102,365h282v1h-282z M1475,365h149v1h-149z M1655,365h171v1h-171z M1105,366h291v1h-291z M1465,366h157v1h-157z M1657,366h168v1h-168z M1108,367h305v1h-305z M1449,367h172v1h-172z M1658,367h166v1h-166z M1110,368h509v1h-509z M1660,368h163v1h-163z M1113,369h505v1h-505z M1661,369h160v1h-160z M1116,370h501v1h-501z M1662,370h158v1h-158z M1119,371h497v1h-497z M1663,371h156v1h-156z M1122,372h493v1h-493z M1664,372h154v1h-154z M1124,373h490v1h-490z M1665,373h151v1h-151z M1127,374h486v1h-486z M1666,374h149v1h-149z M1130,375h482v1h-482z M1667,375h147v1h-147z M1133,376h479v1h-479z M1667,376h145v1h-145z M1136,377h475v1h-475z M1668,377h143v1h-143z M1139,378h471v1h-471z M1668,378h142v1h-142z M1141,379h469v1h-469z M1669,379h140v1h-140z M1144,380h465v1h-465z M1670,380h137v1h-137z M1147,381h462v1h-462z M1670,381h136v1h-136z M1150,382h459v1h-459z M1670,382h135v1h-135z M1153,383h455v1h-455z M1671,383h132v1h-132z M1156,384h452v1h-452z M1671,384h131v1h-131z M1159,385h449v1h-449z M1671,385h130v1h-130z M1161,386h446v1h-446z M1672,386h128v1h-128z M1164,387h443v1h-443z M1672,387h126v1h-126z M1167,388h440v1h-440z M1672,388h125v1h-125z M1170,389h437v1h-437z M1672,389h124v1h-124z M1173,390h433v1h-433z M1673,390h122v1h-122z M1176,391h430v1h-430z M1673,391h120v1h-120z M1179,392h427v1h-427z M1673,392h119v1h-119z M1182,393h424v1h-424z M1673,393h118v1h-118z M1185,394h421v1h-421z M1673,394h116v1h-116z M1188,395h418v1h-418z M1673,395h115v1h-115z M1191,396h415v1h-415z M1673,396h114v1h-114z M1194,397h412v1h-412z M1673,397h113v1h-113z M1196,398h410v1h-410z M1673,398h111v1h-111z M1199,399h407v1h-407z M1673,399h110v1h-110z M1202,400h405v1h-405z M1672,400h110v1h-110z M1205,401h402v1h-402z M1672,401h108v1h-108z M1208,402h399v1h-399z M1672,402h107v1h-107z M1211,403h396v1h-396z M1672,403h106v1h-106z M1214,404h394v1h-394z M1671,404h105v1h-105z M1217,405h391v1h-391z M1671,405h104v1h-104z M1220,406h388v1h-388z M1671,406h103v1h-103z M1223,407h386v1h-386z M1670,407h103v1h-103z M1226,408h383v1h-383z M1670,408h101v1h-101z M1229,409h381v1h-381z M1669,409h101v1h-101z M1232,410h378v1h-378z M1669,410h100v1h-100z M1235,411h376v1h-376z M1668,411h99v1h-99z M1238,412h373v1h-373z M1668,412h98v1h-98z M1241,413h371v1h-371z M1667,413h98v1h-98z M1244,414h369v1h-369z M1666,414h97v1h-97z M1248,415h365v1h-365z M1666,415h96v1h-96z M1251,416h363v1h-363z M1665,416h96v1h-96z M1254,417h361v1h-361z M1664,417h95v1h-95z M1257,418h359v1h-359z M1663,418h95v1h-95z M1260,419h357v1h-357z M1662,419h95v1h-95z M1263,420h355v1h-355z M1661,420h94v1h-94z M1266,421h354v1h-354z M1659,421h95v1h-95z M1269,422h352v1h-352z M1658,422h94v1h-94z M1272,423h351v1h-351z M1656,423h95v1h-95z M1275,424h350v1h-350z M1654,424h96v1h-96z M1279,425h348v1h-348z M1652,425h96v1h-96z M1282,426h347v1h-347z M1650,426h97v1h-97z M1285,427h348v1h-348z M1646,427h100v1h-100z M1288,428h456v1h-456z M1291,429h452v1h-452z M1294,430h447v1h-447z M1298,431h442v1h-442z M1301,432h437v1h-437z M1304,433h433v1h-433z M1307,434h429v1h-429z M1311,435h423v1h-423z M1314,436h419v1h-419z M1317,437h414v1h-414z M1320,438h410v1h-410z M1324,439h404v1h-404z M1327,440h400v1h-400z M1330,441h395v1h-395z M1334,442h390v1h-390z M1337,443h385v1h-385z M1340,444h381v1h-381z M1344,445h375v1h-375z M1347,446h371v1h-371z M1350,447h366v1h-366z M1354,448h360v1h-360z M1357,449h356v1h-356z M1361,450h350v1h-350z M1364,451h346v1h-346z M1368,452h340v1h-340z M1371,453h335v1h-335z M1375,454h330v1h-330z M1378,455h325v1h-325z M1382,456h319v1h-319z M1385,457h315v1h-315z M1389,458h309v1h-309z M1393,459h303v1h-303z M1396,460h298v1h-298z M1400,461h292v1h-292z M1404,462h287v1h-287z M1407,463h282v1h-282z M1411,464h276v1h-276z M1415,465h270v1h-270z M1419,466h264v1h-264z M1423,467h258v1h-258z M1427,468h252v1h-252z M1430,469h247v1h-247z M1434,470h241v1h-241z M1438,471h235v1h-235z M1442,472h229v1h-229z M1447,473h222v1h-222z M1451,474h216v1h-216z M1455,475h209v1h-209z M1459,476h203v1h-203z M1464,477h196v1h-196z M1468,478h189v1h-189z M1472,479h183v1h-183z M1477,480h175v1h-175z M1482,481h167v1h-167z M1486,482h161v1h-161z M1491,483h153v1h-153z M1496,484h145v1h-145z M1501,485h137v1h-137z M1507,486h128v1h-128z M1512,487h119v1h-119z M1518,488h109v1h-109z M1524,489h99v1h-99z M1531,490h88v1h-88z M1538,491h76v1h-76z M1546,492h62v1h-62z M1555,493h46v1h-46z"/>
  </g>
</svg>