<?xml version="1.0" encoding="UTF-8"?>
<svg xmlns="http://www.w3.org/2000/svg" viewBox="0 0 400 160" width="400" height="160">
  <g transform="translate(30.00,37.01) scale(0.139803)" fill="white">
<path d="M255,0h5v1h-5z M249,1h10v1h-10z M245,2h12v1h-12z M240,3h16v1h-16z M236,4h18v1h-18z M232,5h21v1h-21z M228,6h23v1h-23z M224,7h26v1h-26z M221,8h28v1h-28z M218,9h29v1h-29z M215,10h31v1h-31z M212,11h33v1h-33z M209,12h34v1h-34z M206,13h36v1h-36z M203,14h38v1h-38z M200,15h40v1h-40z M198,16h40v1h-40z M195,17h42v1h-42z M193,18h43v1h-43z M190,19h45v1h-45z M188,20h46v1h-46z M185,21h47v1h-47z M183,22h48v1h-48z M181,23h49v1h-49z M179,24h50v1h-50z M177,25h51v1h-51z M175,26h52v1h-52z M173,27h53v1h-53z M171,28h54v1h-54z M169,29h55v1h-55z M167,30h56v1h-56z M165,31h57v1h-57z M163,32h58v1h-58z M161,33h59v1h-59z M159,34h59v1h-59z M157,35h60v1h-60z M156,36h61v1h-61z M154,37h62v1h-62z M152,38h63v1h-63z M150,39h64v1h-64z M149,40h64v1h-64z M147,41h65v1h-65z M146,42h65v1h-65z M144,43h66v1h-66z M142,44h67v1h-67z M141,45h67v1h-67z M139,46h68v1h-68z M138,47h68v1h-68z M136,48h70v1h-70z M135,49h70v1h-70z M133,50h71v1h-71z M132,51h71v1h-71z M131,52h71v1h-71z M129,53h72v1h-72z M128,54h73v1h-73z M126,55h74v1h-74z M125,56h74v1h-74z M124,57h74v1h-74z M122,58h75v1h-75z M121,59h76v1h-76z M120,60h76v1h-76z M118,61h77v1h-77z M117,62h77v1h-77z M116,63h78v1h-78z M115,64h78v1h-78z M113,65h79v1h-79z M112,66h79v1h-79z M111,67h80v1h-80z M110,68h80v1h-80z M109,69h80v1h-80z M108,70h81v1h-81z M106,71h82v1h-82z M105,72h82v1h-82z M104,73h83v1h-83z M103,74h83v1h-83z M102,75h83v1h-83z M101,76h84v1h-84z M100,77h84v1h-84z M99,78h84v1h-84z M98,79h85v1h-85z M96,80h86v1h-86z M95,81h86v1h-86z M94,82h87v1h-87z M93,83h87v1h-87z M92,84h88v1h-88z M91,85h88v1h-88z M90,86h88v1h-88z M89,87h89v1h-89z M88,88h89v1h-89z M87,89h90v1h-90z M86,90h90v1h-90z M85,91h91v1h-91z M84,92h91v1h-91z M83,93h91v1h-91z M83,94h91v1h-91z M82,95h91v1h-91z M81,96h92v1h-92z M80,97h92v1h-92z M79,98h93v1h-93z M78,99h93v1h-93z M77,100h94v1h-94z M76,101h94v1h-94z M75,102h95v1h-95z M74,103h95v1h-95z M74,104h95v1h-95z M73,105h95v1h-95z M72,106h96v1h-96z M71,107h96v1h-96z M70,108h97v1h-97z M69,109h98v1h-98z M69,110h97v1h-97z M68,111h98v1h-98z M67,112h98v1h-98z M66,113h99v1h-99z M65,114h99v1h-99z M65,115h99v1h-99z M64,116h99v1h-99z M63,117h100v1h-100z M62,118h101v1h-101z M62,119h100v1h-100z M61,120h101v1h-101z M60,121h101v1h-101z M59,122h102v1h-102z M59,123h102v1h-102z M58,124h102v1h-102z M57,125h103v1h-103z M57,126h102v1h-102z M56,127h103v1h-103z M55,128h104v1h-104z M54,129h104v1h-104z M54,130h104v1h-104z M53,131h105v1h-105z M52,132h105v1h-105z M52,133h105v1h-105z M51,134h106v1h-106z M50,135h106v1h-106z M50,136h106v1h-106z M49,137h107v1h-107z M48,138h107v1h-107z M48,139h107v1h-107z M47,140h108v1h-108z M47,141h107v1h-107z M46,142h108v1h-108z M45,143h109v1h-109z M45,144h108v1h-108z M44,145h109v1h-109z M43,146h110v1h-110z M43,147h110v1h-110z M42,148h110v1h-110z M42,149h110v1h-110z M41,150h111v1h-111z M41,151h111v1h-111z M40,152h111v1h-111z M39,153h112v1h-112z M39,154h112v1h-112z M38,155h113v1h-113z M38,156h112v1h-112z M37,157h113v1h-113z M37,158h113v1h-113z M36,159h114v1h-114z M36,160h113v1h-113z M35,161h114v1h-114z M35,162h114v1h-114z M34,163h115v1h-115z M33,164h116v1h-116z M33,165h115v1h-115z M32,166h116v1h-116z M32,167h116v1h-116z M31,168h117v1h-117z M31,169h117v1h-117z M31,170h116v1h-116z M30,171h117v1h-117z M30,172h117v1h-117z M29,173h118v1h-118z M29,174h118v1h-118z M28,175h118v1h-118z M28,176h118v1h-118z M27,177h119v1h-119z M27,178h119v1h-119z M26,179h120v1h-120z M26,180h120v1h-120z M25,181h121v1h-121z M25,182h120v1h-120z M25,183h120v1h-120z M24,184h121v1h-121z M24,185h121v1h-121z M23,186h122v1h-122z M23,187h122v1h-122z M22,188h123v1h-123z M22,189h123v1h-123z M22,190h123v1h-123z M21,191h123v1h-123z M21,192h123v1h-123z M20,193h124v1h-124z M20,194h124v1h-124z M20,195h124v1h-124z M19,196h125v1h-125z M19,197h125v1h-125z M19,198h125v1h-125z M18,199h126v1h-126z M18,200h126v1h-126z M17,201h127v1h-127z M17,202h127v1h-127z M17,203h127v1h-127z M16,204h127v1h-127z M16,205h127v1h-127z M16,206h127v1h-127z M15,207h128v1h-128z M15,208h128v1h-128z M15,209h128v1h-128z M14,210h129v1h-129z M14,211h129v1h-129z M14,212h129v1h-129z M14,213h129v1h-129z M13,214h130v1h-130z M13,215h130v1h-130z M13,216h130v1h-130z M12,217h131v1h-131z M12,218h131v1h-131z M12,219h131v1h-131z M11,220h132v1h-132z M11,221h132v1h-132z M11,222h132v1h-132z M11,223h132v1h-132z M10,224h133v1h-133z M10,225h133v1h-133z M10,226h133v1h-133z M10,227h133v1h-133z M9,228h134v1h-134z M9,229h134v1h-134z M9,230h134v1h-134z M9,231h135v1h-135z M8,232h136v1h-136z M8,233h136v1h-136z M8,234h136v1h-136z M8,235h136v1h-136z M7,236h137v1h-137z M7,237h137v1h-137z M7,238h137v1h-137z M7,239h137v1h-137z M6,240h138v1h-138z M6,241h138v1h-138z M6,242h138v1h-138z M6,243h138v1h-138z M6,244h139v1h-139z M5,245h140v1h-140z M5,246h140v1h-140z M5,247h140v1h-140z M5,248h140v1h-140z M5,249h140v1h-140z M4,250h141v1h-141z M4,251h141v1h-141z M4,252h142v1h-142z M4,253h142v1h-142z M4,254h142v1h-142z M4,255h142v1h-142z M3,256h143v1h-143z M3,257h143v1h-143z M3,258h143v1h-143z M3,259h144v1h-144z M3,260h144v1h-144z M3,261h144v1h-144z M3,262h144v1h-144z M2,263h145v1h-145z M2,264h145v1h-145z M2,265h146v1h-146z M2,266h146v1h-146z M2,267h146v1h-146z M2,268h146v1h-146z M2,269h146v1h-146z M2,270h147v1h-147z M1,271h148v1h-148z M1,272h148v1h-148z M1,273h148v1h-148z M1,274h149v1h-149z M1,275h149v1h-149z M1,276h149v1h-149z M1,277h149v1h-149z M1,278h149v1h-149z M1,279h150v1h-150z M1,280h150v1h-150z M1,281h150v1h-150z M0,282h151v1h-151z M0,283h152v1h-152z M0,284h152v1h-152z M0,285h152v1h-152z M0,286h153v1h-153z M0,287h153v1h-153z M0,288h153v1h-153z M0,289h153v1h-153z M0,290h154v1h-154z M0,291h154v1h-154z M0,292h154v1h-154z M0,293h155v1h-155z M0,294h155v1h-155z M0,295h155v1h-155z M0,296h156v1h-156z M0,297h156v1h-156z M0,298h156v1h-156z M0,299h156v1h-156z M0,300h157v1h-157z M0,301h157v1h-157z M0,302h158v1h-158z M0,303h158v1h-158z M0,304h158v1h-158z M0,305h159v1h-159z M0,306h159v1h-159z M0,307h159v1h-159z M0,308h160v1h-160z M0,309h160v1h-160z M0,310h160v1h-160z M0,311h161v1h-161z M0,312h161v1h-161z M0,313h162v1h-162z M0,314h162v1h-162z M0,315h162v1h-162z M0,316h163v1h-163z M0,317h163v1h-163z M0,318h164v1h-164z M0,319h164v1h-164z M0,320h165v1h-165z M0,321h165v1h-165z M0,322h165v1h-165z M0,323h166v1h-166z M0,324h166v1h-166z M0,325h167v1h-167z M0,326h167v1h-167z M0,327h168v1h-168z M0,328h168v1h-168z M1,329h168v1h-168z M1,330h168v1h-168z M1,331h169v1h-169z M1,332h169v1h-169z M1,333h170v1h-170z M1,334h170v1h-170z M1,335h171v1h-171z M1,336h171v1h-171z M1,337h172v1h-172z M1,338h172v1h-172z M1,339h173v1h-173z M2,340h172v1h-172z M2,341h173v1h-173z M2,342h173v1h-173z M2,343h174v1h-174z M2,344h175v1h-175z M2,345h175v1h-175z M2,346h176v1h-176z M2,347h176v1h-176z M3,348h176v1h-176z M3,349h176v1h-176z M3,350h177v1h-177z M3,351h178v1h-178z M3,352h178v1h-178z M3,353h179v1h-179z M3,354h180v1h-180z M4,355h179v1h-179z M4,356h180v1h-180z M4,357h180v1h-180z M4,358h181v1h-181z M4,359h182v1h-182z M4,360h182v1h-182z M5,361h182v1h-182z M5,362h183v1h-183z M5,363h183v1h-183z M5,364h184v1h-184z M5,365h185v1h-185z M6,366h184v1h-184z M6,367h185v1h-185z M6,368h186v1h-186z M6,369h187v1h-187z M6,370h187v1h-187z M611,370h1v1h-1z M7,371h187v1h-187z M610,371h2v1h-2z M7,372h188v1h-188z M609,372h3v1h-3z M7,373h189v1h-189z M609,373h3v1h-3z M7,374h189v1h-189z M608,374h3v1h-3z M8,375h189v1h-189z M607,375h4v1h-4z M8,376h190v1h-190z M606,376h5v1h-5z M8,377h191v1h-191z M605,377h6v1h-6z M8,378h192v1h-192z M605,378h5v1h-5z M8,379h192v1h-192z M604,379h6v1h-6z M9,380h192v1h-192z M603,380h7v1h-7z M9,381h193v1h-193z M602,381h8v1h-8z M9,382h194v1h-194z M601,382h8v1h-8z M9,383h195v1h-195z M601,383h8v1h-8z M10,384h194v1h-194z M600,384h9v1h-9z M10,385h195v1h-195z M599,385h10v1h-10z M10,386h196v1h-196z M598,386h10v1h-10z M11,387h196v1h-196z M597,387h11v1h-11z M11,388h197v1h-197z M596,388h12v1h-12z M11,389h198v1h-198z M595,389h13v1h-13z M11,390h199v1h-199z M594,390h13v1h-13z M12,391h199v1h-199z M594,391h13v1h-13z M12,392h200v1h-200z M593,392h14v1h-14z M12,393h200v1h-200z M592,393h14v1h-14z M13,394h200v1h-200z M591,394h15v1h-15z M13,395h201v1h-201z M590,395h16v1h-16z M13,396h202v1h-202z M589,396h17v1h-17z M13,397h203v1h-203z M588,397h17v1h-17z M14,398h203v1h-203z M587,398h18v1h-18z M14,399h204v1h-204z M586,399h19v1h-19z M14,400h205v1h-205z M585,400h19v1h-19z M15,401h205v1h-205z M584,401h20v1h-20z M15,402h206v1h-206z M583,402h21v1h-21z M15,403h207v1h-207z M582,403h21v1h-21z M16,404h207v1h-207z M581,404h22v1h-22z M16,405h208v1h-208z M580,405h23v1h-23z M16,406h209v1h-209z M579,406h23v1h-23z M17,407h209v1h-209z M578,407h24v1h-24z M17,408h211v1h-211z M577,408h25v1h-25z M17,409h212v1h-212z M575,409h26v1h-26z M18,410h212v1h-212z M574,410h27v1h-27z M18,411h213v1h-213z M573,411h28v1h-28z M19,412h213v1h-213z M572,412h28v1h-28z M19,413h214v1h-214z M571,413h29v1h-29z M19,414h215v1h-215z M570,414h29v1h-29z M20,415h216v1h-216z M569,415h30v1h-30z M20,416h217v1h-217z M567,416h32v1h-32z M20,417h218v1h-218z M566,417h32v1h-32z M21,418h218v1h-218z M565,418h33v1h-33z M21,419h219v1h-219z M564,419h33v1h-33z M22,420h220v1h-220z M562,420h35v1h-35z M22,421h221v1h-221z M561,421h36v1h-36z M22,422h222v1h-222z M560,422h36v1h-36z M23,423h223v1h-223z M559,423h37v1h-37z M23,424h224v1h-224z M557,424h38v1h-38z M24,425h224v1h-224z M556,425h39v1h-39z M24,426h226v1h-226z M555,426h40v1h-40z M25,427h226v1h-226z M553,427h41v1h-41z M25,428h227v1h-227z M552,428h42v1h-42z M25,429h229v1h-229z M550,429h43v1h-43z M26,430h229v1h-229z M549,430h44v1h-44z M26,431h231v1h-231z M548,431h44v1h-44z M27,432h231v1h-231z M546,432h46v1h-46z M27,433h233v1h-233z M544,433h48v1h-48z M28,434h233v1h-233z M543,434h48v1h-48z M28,435h235v1h-235z M541,435h50v1h-50z M29,436h235v1h-235z M540,436h50v1h-50z M29,437h237v1h-237z M538,437h52v1h-52z M30,438h238v1h-238z M537,438h52v1h-52z M30,439h239v1h-239z M535,439h54v1h-54z M30,440h241v1h-241z M533,440h55v1h-55z M31,441h242v1h-242z M532,441h56v1h-56z M31,442h243v1h-243z M530,442h57v1h-57z M32,443h244v1h-244z M528,443h59v1h-59z M32,444h246v1h-246z M526,444h60v1h-60z M33,445h247v1h-247z M524,445h62v1h-62z M33,446h249v1h-249z M523,446h62v1h-62z M34,447h250v1h-250z M521,447h64v1h-64z M34,448h251v1h-251z M519,448h65v1h-65z M35,449h253v1h-253z M517,449h67v1h-67z M36,450h254v1h-254z M515,450h68v1h-68z M36,451h256v1h-256z M512,451h71v1h-71z M37,452h257v1h-257z M510,452h72v1h-72z M37,453h259v1h-259z M508,453h74v1h-74z M38,454h260v1h-260z M506,454h75v1h-75z M38,455h263v1h-263z M504,455h76v1h-76z M39,456h264v1h-264z M501,456h79v1h-79z M39,457h266v1h-266z M499,457h80v1h-80z M40,458h268v1h-268z M496,458h83v1h-83z M40,459h271v1h-271z M494,459h84v1h-84z M41,460h272v1h-272z M491,460h87v1h-87z M42,461h274v1h-274z M488,461h89v1h-89z M42,462h277v1h-277z M485,462h91v1h-91z M43,463h279v1h-279z M482,463h94v1h-94z M43,464h282v1h-282z M479,464h96v1h-96z M44,465h284v1h-284z M476,465h99v1h-99z M45,466h287v1h-287z M472,466h102v1h-102z M45,467h290v1h-290z M469,467h104v1h-104z M46,468h293v1h-293z M465,468h108v1h-108z M46,469h297v1h-297z M461,469h111v1h-111z M47,470h301v1h-301z M456,470h116v1h-116z M48,471h305v1h-305z M451,471h120v1h-120z M48,472h310v1h-310z M446,472h124v1h-124z M49,473h316v1h-316z M439,473h131v1h-131z M50,474h323v1h-323z M431,474h138v1h-138z M50,475h333v1h-333z M421,475h147v1h-147z M51,476h517v1h-517z M52,477h515v1h-515z M52,478h514v1h-514z M53,479h513v1h-513z M54,480h511v1h-511z M54,481h510v1h-510z M55,482h509v1h-509z M56,483h507v1h-507z M56,484h506v1h-506z M57,485h505v1h-505z M58,486h503v1h-503z M59,487h501v1h-501z M59,488h500v1h-500z M60,489h499v1h-499z M61,490h497v1h-497z M62,491h495v1h-495z M62,492h494v1h-494z M63,493h493v1h-493z M64,494h491v1h-491z M65,495h489v1h-489z M65,496h488v1h-488z M66,497h487v1h-487z M67,498h485v1h-485z M68,499h483v1h-483z M69,500h481v1h-481z M69,501h480v1h-480z M70,502h478v1h-478z M71,503h477v1h-477z M72,504h475v1h-475z M73,505h473v1h-473z M74,506h471v1h-471z M74,507h470v1h-470z M75,508h468v1h-468z M76,509h467v1h-467z M77,510h465v1h-465z M78,511h463v1h-463z M79,512h461v1h-461z M80,513h459v1h-459z M81,514h457v1h-457z M82,515h455v1h-455z M83,516h453v1h-453z M83,517h452v1h-452z M84,518h450v1h-450z M85,519h448v1h-448z M86,520h446v1h-446z M87,521h444v1h-444z M88,522h442v1h-442z M89,523h441v1h-441z M90,524h439v1h-439z M91,525h436v1h-436z M92,526h434v1h-434z M93,527h432v1h-432z M94,528h430v1h-430z M95,529h428v1h-428z M96,530h426v1h-426z M97,531h424v1h-424z M99,532h421v1h-421z M100,533h419v1h-419z M101,534h417v1h-417z M102,535h415v1h-415z M103,536h413v1h-413z M104,537h411v1h-411z M105,538h409v1h-409z M106,539h406v1h-406z M107,540h404v1h-404z M109,541h401v1h-401z M110,542h399v1h-399z M111,543h397v1h-397z M112,544h395v1h-395z M113,545h392v1h-392z M115,546h389v1h-389z M116,547h387v1h-387z M117,548h385v1h-385z M118,549h382v1h-382z M120,550h379v1h-379z M121,551h377v1h-377z M122,552h374v1h-374z M124,553h371v1h-371z M125,554h369v1h-369z M126,555h366v1h-366z M128,556h363v1h-363z M129,557h361v1h-361z M130,558h358v1h-358z M132,559h355v1h-355z M133,560h352v1h-352z M135,561h349v1h-349z M136,562h346v1h-346z M138,563h343v1h-343z M139,564h341v1h-341z M141,565h337v1h-337z M142,566h334v1h-334z M144,567h331v1h-331z M145,568h328v1h-328z M147,569h325v1h-325z M149,570h321v1h-321z M150,571h318v1h-318z M152,572h315v1h-315z M154,573h311v1h-311z M155,574h308v1h-308z M157,575h304v1h-304z M159,576h301v1h-301z M161,577h297v1h-297z M163,578h293v1h-293z M165,579h289v1h-289z M166,580h286v1h-286z M168,581h282v1h-282z M170,582h278v1h-278z M172,583h274v1h-274z M174,584h270v1h-270z M176,585h266v1h-266z M179,586h261v1h-261z M181,587h257v1h-257z M183,588h253v1h-253z M185,589h249v1h-249z M188,590h243v1h-243z M190,591h239v1h-239z M192,592h234v1h-234z M195,593h229v1h-229z M197,594h224v1h-224z M200,595h219v1h-219z M203,596h213v1h-213z M205,597h208v1h-208z M208,598h202v1h-202z M211,599h197v1h-197z M214,600h190v1h-190z M217,601h184v1h-184z M221,602h177v1h-177z M224,603h171v1h-171z M228,604h163v1h-163z M231,605h156v1h-156z M235,606h148v1h-148z M240,607h139v1h-139z M244,608h131v1h-131z M249,609h121v1h-121z M254,610h111v1h-111z M260,611h99v1h-99z M267,612h85v1h-85z M275,613h69v1h-69z M285,614h48v1h-48z"/>
<path d="M380,34h2v1h-2z M373,35h9v1h-9z M367,36h13v1h-13z M363,37h16v1h-16z M359,38h19v1h-19z M355,39h22v1h-22z M351,40h24v1h-24z M348,41h26v1h-26z M345,42h28v1h-28z M342,43h30v1h-30z M339,44h32v1h-32z M337,45h33v1h-33z M334,46h35v1h-35z M332,47h36v1h-36z M329,48h38v1h-38z M327,49h39v1h-39z M325,50h40v1h-40z M323,51h41v1h-41z M321,52h42v1h-42z M319,53h43v1h-43z M317,54h44v1h-44z M315,55h45v1h-45z M313,56h46v1h-46z M312,57h46v1h-46z M310,58h47v1h-47z M308,59h49v1h-49z M307,60h49v1h-49z M305,61h50v1h-50z M304,62h50v1h-50z M302,63h51v1h-51z M301,64h52v1h-52z M299,65h53v1h-53z M298,66h53v1h-53z M296,67h54v1h-54z M295,68h55v1h-55z M294,69h55v1h-55z M292,70h56v1h-56z M291,71h57v1h-57z M290,72h57v1h-57z M288,73h58v1h-58z M287,74h59v1h-59z M286,75h59v1h-59z M285,76h59v1h-59z M284,77h60v1h-60z M283,78h60v1h-60z M281,79h62v1h-62z M280,80h62v1h-62z M279,81h63v1h-63z M278,82h63v1h-63z M277,83h63v1h-63z M276,84h64v1h-64z M275,85h64v1h-64z M274,86h65v1h-65z M273,87h65v1h-65z M272,88h66v1h-66z M271,89h66v1h-66z M270,90h67v1h-67z M269,91h67v1h-67z M268,92h68v1h-68z M267,93h69v1h-69z M266,94h69v1h-69z M266,95h69v1h-69z M265,96h69v1h-69z M264,97h70v1h-70z M263,98h70v1h-70z M262,99h71v1h-71z M261,100h72v1h-72z M261,101h71v1h-71z M260,102h72v1h-72z M259,103h73v1h-73z M258,104h73v1h-73z M257,105h74v1h-74z M257,106h73v1h-73z M256,107h74v1h-74z M255,108h75v1h-75z M254,109h76v1h-76z M254,110h75v1h-75z M253,111h76v1h-76z M252,112h77v1h-77z M252,113h76v1h-76z M251,114h77v1h-77z M250,115h78v1h-78z M250,116h78v1h-78z M249,117h78v1h-78z M248,118h79v1h-79z M248,119h79v1h-79z M247,120h80v1h-80z M247,121h79v1h-79z M246,122h80v1h-80z M245,123h81v1h-81z M245,124h81v1h-81z M244,125h82v1h-82z M244,126h81v1h-81z M243,127h82v1h-82z M243,128h82v1h-82z M242,129h83v1h-83z M241,130h84v1h-84z M241,131h84v1h-84z M240,132h84v1h-84z M240,133h84v1h-84z M239,134h85v1h-85z M239,135h85v1h-85z M238,136h86v1h-86z M238,137h86v1h-86z M237,138h87v1h-87z M237,139h87v1h-87z M237,140h86v1h-86z M236,141h87v1h-87z M236,142h87v1h-87z M235,143h88v1h-88z M235,144h88v1h-88z M234,145h89v1h-89z M234,146h89v1h-89z M234,147h89v1h-89z M233,148h90v1h-90z M233,149h90v1h-90z M232,150h91v1h-91z M232,151h91v1h-91z M232,152h91v1h-91z M231,153h92v1h-92z M231,154h92v1h-92z M231,155h92v1h-92z M230,156h93v1h-93z M230,157h93v1h-93z M230,158h93v1h-93z M229,159h94v1h-94z M229,160h94v1h-94z M229,161h94v1h-94z M228,162h95v1h-95z M228,163h95v1h-95z M228,164h95v1h-95z M227,165h96v1h-96z M227,166h97v1h-97z M227,167h97v1h-97z M227,168h97v1h-97z M226,169h98v1h-98z M226,170h98v1h-98z M226,171h98v1h-98z M226,172h98v1h-98z M225,173h99v1h-99z M225,174h100v1h-100z M225,175h100v1h-100z M225,176h100v1h-100z M224,177h101v1h-101z M224,178h101v1h-101z M224,179h101v1h-101z M224,180h102v1h-102z M224,181h102v1h-102z M223,182h103v1h-103z M223,183h103v1h-103z M223,184h103v1h-103z M223,185h104v1h-104z M223,186h104v1h-104z M223,187h104v1h-104z M222,188h105v1h-105z M222,189h105v1h-105z M222,190h106v1h-106z M222,191h106v1h-106z M222,192h106v1h-106z M222,193h107v1h-107z M222,194h107v1h-107z M221,195h108v1h-108z M221,196h108v1h-108z M221,197h109v1h-109z M221,198h109v1h-109z M221,199h109v1h-109z M221,200h110v1h-110z M221,201h110v1h-110z M221,202h110v1h-110z M221,203h111v1h-111z M221,204h111v1h-111z M221,205h112v1h-112z M221,206h112v1h-112z M220,207h113v1h-113z M220,208h114v1h-114z M220,209h114v1h-114z M220,210h115v1h-115z M220,211h115v1h-115z M220,212h115v1h-115z M220,213h116v1h-116z M220,214h116v1h-116z M220,215h117v1h-117z M220,216h117v1h-117z M220,217h118v1h-118z M220,218h118v1h-118z M220,219h119v1h-119z M220,220h119v1h-119z M220,221h120v1h-120z M220,222h120v1h-120z M220,223h121v1h-121z M221,224h120v1h-120z M221,225h121v1h-121z M221,226h122v1h-122z M221,227h122v1h-122z M221,228h123v1h-123z M221,229h123v1h-123z M221,230h124v1h-124z M221,231h125v1h-125z M221,232h125v1h-125z M221,233h126v1h-126z M221,234h126v1h-126z M221,235h127v1h-127z M221,236h128v1h-128z M222,237h128v1h-128z M222,238h128v1h-128z M222,239h129v1h-129z M222,240h130v1h-130z M222,241h130v1h-130z M222,242h131v1h-131z M222,243h132v1h-132z M223,244h132v1h-132z M223,245h133v1h-133z M223,246h133v1h-133z M223,247h134v1h-134z M223,248h135v1h-135z M582,248h1v1h-1z M223,249h136v1h-136z M581,249h2v1h-2z M224,250h136v1h-136z M580,250h3v1h-3z M224,251h137v1h-137z M579,251h4v1h-4z M224,252h138v1h-138z M578,252h4v1h-4z M224,253h139v1h-139z M577,253h5v1h-5z M224,254h139v1h-139z M576,254h6v1h-6z M225,255h139v1h-139z M575,255h7v1h-7z M225,256h140v1h-140z M574,256h8v1h-8z M225,257h141v1h-141z M573,257h8v1h-8z M225,258h142v1h-142z M572,258h9v1h-9z M226,259h142v1h-142z M571,259h10v1h-10z M226,260h144v1h-144z M570,260h11v1h-11z M226,261h145v1h-145z M569,261h11v1h-11z M226,262h146v1h-146z M568,262h12v1h-12z M227,263h146v1h-146z M567,263h13v1h-13z M227,264h147v1h-147z M566,264h14v1h-14z M227,265h148v1h-148z M565,265h14v1h-14z M227,266h149v1h-149z M564,266h15v1h-15z M228,267h150v1h-150z M562,267h17v1h-17z M228,268h151v1h-151z M561,268h17v1h-17z M228,269h152v1h-152z M560,269h18v1h-18z M229,270h152v1h-152z M558,270h20v1h-20z M229,271h154v1h-154z M557,271h21v1h-21z M229,272h155v1h-155z M556,272h21v1h-21z M230,273h156v1h-156z M554,273h23v1h-23z M230,274h157v1h-157z M553,274h24v1h-24z M230,275h158v1h-158z M551,275h25v1h-25z M231,276h159v1h-159z M550,276h26v1h-26z M231,277h161v1h-161z M548,277h28v1h-28z M231,278h162v1h-162z M547,278h28v1h-28z M232,279h163v1h-163z M545,279h30v1h-30z M232,280h164v1h-164z M543,280h31v1h-31z M232,281h166v1h-166z M542,281h32v1h-32z M233,282h167v1h-167z M540,282h34v1h-34z M233,283h169v1h-169z M538,283h35v1h-35z M234,284h170v1h-170z M536,284h37v1h-37z M234,285h172v1h-172z M534,285h39v1h-39z M234,286h174v1h-174z M532,286h40v1h-40z M235,287h175v1h-175z M530,287h42v1h-42z M235,288h177v1h-177z M527,288h44v1h-44z M236,289h179v1h-179z M525,289h46v1h-46z M236,290h181v1h-181z M522,290h48v1h-48z M237,291h183v1h-183z M520,291h50v1h-50z M237,292h186v1h-186z M517,292h52v1h-52z M238,293h188v1h-188z M514,293h55v1h-55z M238,294h191v1h-191z M510,294h59v1h-59z M238,295h195v1h-195z M507,295h61v1h-61z M239,296h198v1h-198z M503,296h65v1h-65z M239,297h203v1h-203z M498,297h69v1h-69z M240,298h208v1h-208z M492,298h75v1h-75z M240,299h216v1h-216z M484,299h82v1h-82z M241,300h325v1h-325z M242,301h323v1h-323z M242,302h322v1h-322z M243,303h321v1h-321z M243,304h320v1h-320z M244,305h319v1h-319z M244,306h318v1h-318z M245,307h317v1h-317z M245,308h316v1h-316z M246,309h315v1h-315z M247,310h313v1h-313z M247,311h312v1h-312z M248,312h311v1h-311z M248,313h310v1h-310z M249,314h308v1h-308z M250,315h307v1h-307z M250,316h306v1h-306z M251,317h304v1h-304z M252,318h303v1h-303z M252,319h302v1h-302z M253,320h300v1h-300z M254,321h299v1h-299z M255,322h297v1h-297z M255,323h296v1h-296z M256,324h295v1h-295z M257,325h293v1h-293z M257,326h292v1h-292z M258,327h290v1h-290z M259,328h289v1h-289z M260,329h287v1h-287z M261,330h285v1h-285z M261,331h284v1h-284z M262,332h282v1h-282z M263,333h280v1h-280z M264,334h279v1h-279z M265,335h277v1h-277z M266,336h275v1h-275z M267,337h273v1h-273z M267,338h272v1h-272z M268,339h270v1h-270z M269,340h268v1h-268z M270,341h266v1h-266z M271,342h264v1h-264z M272,343h262v1h-262z M273,344h260v1h-260z M274,345h258v1h-258z M275,346h256v1h-256z M276,347h254v1h-254z M277,348h252v1h-252z M278,349h250v1h-250z M279,350h248v1h-248z M280,351h246v1h-246z M281,352h244v1h-244z M283,353h241v1h-241z M284,354h239v1h-239z M285,355h237v1h-237z M286,356h234v1h-234z M287,357h232v1h-232z M289,358h229v1h-229z M290,359h227v1h-227z M291,360h224v1h-224z M292,361h222v1h-222z M294,362h219v1h-219z M295,363h217v1h-217z M296,364h214v1h-214z M298,365h211v1h-211z M299,366h208v1h-208z M301,367h205v1h-205z M302,368h202v1h-202z M304,369h199v1h-199z M305,370h196v1h-196z M307,371h193v1h-193z M308,372h190v1h-190z M310,373h186v1h-186z M312,374h183v1h-183z M314,375h179v1h-179z M315,376h176v1h-176z M317,377h172v1h-172z M319,378h168v1h-168z M321,379h164v1h-164z M323,380h160v1h-160z M325,381h156v1h-156z M327,382h152v1h-152z M330,383h147v1h-147z M332,384h143v1h-143z M334,385h138v1h-138z M337,386h133v1h-133z M339,387h128v1h-128z M342,388h122v1h-122z M345,389h116v1h-116z M348,390h110v1h-110z M351,391h104v1h-104z M355,392h97v1h-97z M359,393h89v1h-89z M363,394h81v1h-81z M368,395h71v1h-71z M373,396h60v1h-60z M380,397h47v1h-47z M390,398h27v1h-27z"/>
<path d="M464,66h10v1h-10z M459,67h14v1h-14z M455,68h17v1h-17z M452,69h19v1h-19z M449,70h21v1h-21z M447,71h22v1h-22z M444,72h24v1h-24z M442,73h25v1h-25z M440,74h26v1h-26z M438,75h27v1h-27z M437,76h27v1h-27z M435,77h29v1h-29z M433,78h30v1h-30z M432,79h30v1h-30z M431,80h31v1h-31z M429,81h32v1h-32z M428,82h32v1h-32z M427,83h33v1h-33z M425,84h34v1h-34z M424,85h35v1h-35z M423,86h35v1h-35z M422,87h36v1h-36z M421,88h36v1h-36z M420,89h37v1h-37z M419,90h37v1h-37z M418,91h38v1h-38z M417,92h39v1h-39z M416,93h39v1h-39z M416,94h39v1h-39z M415,95h40v1h-40z M414,96h40v1h-40z M413,97h41v1h-41z M412,98h42v1h-42z M412,99h42v1h-42z M411,100h42v1h-42z M410,101h43v1h-43z M410,102h43v1h-43z M409,103h44v1h-44z M409,104h44v1h-44z M408,105h45v1h-45z M407,106h45v1h-45z M407,107h45v1h-45z M406,108h46v1h-46z M406,109h46v1h-46z M405,110h47v1h-47z M405,111h47v1h-47z M404,112h48v1h-48z M404,113h48v1h-48z M403,114h49v1h-49z M403,115h49v1h-49z M403,116h49v1h-49z M402,117h50v1h-50z M402,118h50v1h-50z M402,119h50v1h-50z M401,120h52v1h-52z M401,121h52v1h-52z M401,122h52v1h-52z M400,123h53v1h-53z M400,124h53v1h-53z M400,125h53v1h-53z M400,126h54v1h-54z M399,127h55v1h-55z M399,128h55v1h-55z M399,129h55v1h-55z M399,130h56v1h-56z M398,131h57v1h-57z M398,132h57v1h-57z M398,133h58v1h-58z M398,134h58v1h-58z M398,135h58v1h-58z M398,136h59v1h-59z M398,137h59v1h-59z M398,138h60v1h-60z M397,139h61v1h-61z M397,140h62v1h-62z M397,141h62v1h-62z M397,142h63v1h-63z M397,143h63v1h-63z M397,144h64v1h-64z M397,145h65v1h-65z M397,146h65v1h-65z M397,147h66v1h-66z M397,148h67v1h-67z M397,149h68v1h-68z M397,150h68v1h-68z M397,151h69v1h-69z M398,152h69v1h-69z M398,153h70v1h-70z M555,153h2v1h-2z M398,154h71v1h-71z M555,154h2v1h-2z M398,155h72v1h-72z M554,155h3v1h-3z M398,156h73v1h-73z M552,156h5v1h-5z M398,157h74v1h-74z M551,157h6v1h-6z M398,158h75v1h-75z M550,158h6v1h-6z M398,159h76v1h-76z M549,159h7v1h-7z M399,160h77v1h-77z M548,160h8v1h-8z M399,161h78v1h-78z M546,161h10v1h-10z M399,162h79v1h-79z M545,162h11v1h-11z M399,163h81v1h-81z M543,163h12v1h-12z M400,164h82v1h-82z M542,164h13v1h-13z M400,165h83v1h-83z M540,165h15v1h-15z M400,166h85v1h-85z M538,166h17v1h-17z M400,167h88v1h-88z M536,167h18v1h-18z M401,168h89v1h-89z M534,168h20v1h-20z M401,169h92v1h-92z M531,169h23v1h-23z M401,170h95v1h-95z M528,170h25v1h-25z M402,171h98v1h-98z M523,171h30v1h-30z M402,172h106v1h-106z M516,172h37v1h-37z M402,173h150v1h-150z M403,174h149v1h-149z M403,175h149v1h-149z M403,176h148v1h-148z M404,177h147v1h-147z M404,178h146v1h-146z M405,179h145v1h-145z M405,180h144v1h-144z M406,181h143v1h-143z M406,182h142v1h-142z M407,183h141v1h-141z M407,184h140v1h-140z M408,185h139v1h-139z M409,186h137v1h-137z M409,187h137v1h-137z M410,188h135v1h-135z M410,189h134v1h-134z M411,190h133v1h-133z M412,191h131v1h-131z M412,192h130v1h-130z M413,193h128v1h-128z M414,194h127v1h-127z M415,195h125v1h-125z M416,196h123v1h-123z M416,197h122v1h-122z M417,198h120v1h-120z M418,199h119v1h-119z M419,200h117v1h-117z M420,201h115v1h-115z M421,202h113v1h-113z M422,203h111v1h-111z M423,204h109v1h-109z M424,205h106v1h-106z M425,206h104v1h-104z M427,207h101v1h-101z M428,208h99v1h-99z M429,209h97v1h-97z M431,210h93v1h-93z M432,211h91v1h-91z M433,212h88v1h-88z M435,213h85v1h-85z M437,214h81v1h-81z M438,215h78v1h-78z M440,216h74v1h-74z M442,217h70v1h-70z M444,218h66v1h-66z M447,219h61v1h-61z M449,220h57v1h-57z M452,221h51v1h-51z M455,222h45v1h-45z M459,223h37v1h-37z M464,224h27v1h-27z M473,225h9v1h-9z"/>
<path d="M2385,84h15v1h-15z M2380,85h24v1h-24z M2377,86h30v1h-30z M2375,87h35v1h-35z M2373,88h39v1h-39z M2371,89h42v1h-42z M2370,90h45v1h-45z M2368,91h48v1h-48z M2367,92h24v1h-24z M2394,92h24v1h-24z M2366,93h18v1h-18z M2400,93h19v1h-19z M2364,94h17v1h-17z M2403,94h17v1h-17z M2363,95h16v1h-16z M2405,95h16v1h-16z M2362,96h15v1h-15z M2407,96h15v1h-15z M2362,97h14v1h-14z M2409,97h14v1h-14z M2361,98h13v1h-13z M2410,98h14v1h-14z M2360,99h13v1h-13z M2411,99h14v1h-14z M2359,100h13v1h-13z M2412,100h13v1h-13z M2358,101h13v1h-13z M2413,101h13v1h-13z M2358,102h12v1h-12z M2414,102h13v1h-13z M2357,103h12v1h-12z M2415,103h12v1h-12z M2357,104h12v1h-12z M2416,104h12v1h-12z M2356,105h12v1h-12z M2417,105h11v1h-11z M2356,106h11v1h-11z M2417,106h12v1h-12z M2355,107h12v1h-12z M2418,107h11v1h-11z M2355,108h11v1h-11z M2418,108h12v1h-12z M2354,109h12v1h-12z M2419,109h11v1h-11z M2354,110h11v1h-11z M2419,110h11v1h-11z M2354,111h11v1h-11z M2420,111h11v1h-11z M2353,112h11v1h-11z M2420,112h11v1h-11z M2353,113h11v1h-11z M2420,113h11v1h-11z M2353,114h11v1h-11z M2421,114h10v1h-10z M2353,115h11v1h-11z M2421,115h11v1h-11z M2352,116h11v1h-11z M2421,116h11v1h-11z M2352,117h11v1h-11z M2421,117h11v1h-11z M2352,118h11v1h-11z M2421,118h11v1h-11z M2352,119h11v1h-11z M2421,119h11v1h-11z M2352,120h11v1h-11z M2422,120h10v1h-10z M2352,121h11v1h-11z M2422,121h10v1h-10z M2352,122h11v1h-11z M2422,122h10v1h-10z M2352,123h11v1h-11z M2422,123h10v1h-10z M2352,124h11v1h-11z M2422,124h10v1h-10z M2352,125h11v1h-11z M2422,125h10v1h-10z M2352,126h11v1h-11z M2421,126h11v1h-11z M2352,127h11v1h-11z M2421,127h11v1h-11z M2352,128h11v1h-11z M2421,128h11v1h-11z M2352,129h11v1h-11z M2421,129h11v1h-11z M2353,130h11v1h-11z M2421,130h11v1h-11z M2353,131h11v1h-11z M2421,131h11v1h-11z M2353,132h11v1h-11z M2420,132h11v1h-11z M2353,133h11v1h-11z M2420,133h11v1h-11z M2354,134h11v1h-11z M2420,134h11v1h-11z M2354,135h11v1h-11z M2419,135h11v1h-11z M2354,136h12v1h-12z M2419,136h11v1h-11z M2355,137h11v1h-11z M2418,137h12v1h-12z M2355,138h12v1h-12z M2418,138h11v1h-11z M2356,139h11v1h-11z M2417,139h12v1h-12z M2356,140h12v1h-12z M2417,140h11v1h-11z M2356,141h13v1h-13z M2416,141h12v1h-12z M2357,142h12v1h-12z M2415,142h12v1h-12z M2358,143h12v1h-12z M2414,143h13v1h-13z M2358,144h13v1h-13z M2414,144h12v1h-12z M2359,145h13v1h-13z M2413,145h13v1h-13z M2360,146h13v1h-13z M2412,146h13v1h-13z M2360,147h14v1h-14z M2410,147h14v1h-14z M2361,148h15v1h-15z M2409,148h14v1h-14z M2362,149h15v1h-15z M2407,149h15v1h-15z M2363,150h16v1h-16z M2406,150h15v1h-15z M2364,151h17v1h-17z M2403,151h17v1h-17z M2365,152h20v1h-20z M2400,152h19v1h-19z M2366,153h26v1h-26z M2393,153h25v1h-25z M2368,154h49v1h-49z M2369,155h47v1h-47z M2371,156h43v1h-43z M2372,157h40v1h-40z M2374,158h36v1h-36z M2376,159h32v1h-32z M2379,160h27v1h-27z M2383,161h19v1h-19z M2389,162h7v1h-7z"/>
<path d="M757,85h65v1h-65z M757,86h65v1h-65z M757,87h65v1h-65z M757,88h65v1h-65z M757,89h65v1h-65z M757,90h65v1h-65z M757,91h65v1h-65z M757,92h65v1h-65z M757,93h65v1h-65z M757,94h65v1h-65z M757,95h65v1h-65z M757,96h65v1h-65z M757,97h65v1h-65z M757,98h65v1h-65z M757,99h65v1h-65z M757,100h65v1h-65z M757,101h65v1h-65z M757,102h65v1h-65z M757,103h65v1h-65z M757,104h65v1h-65z M757,105h65v1h-65z M757,106h65v1h-65z M757,107h65v1h-65z M757,108h65v1h-65z M757,109h65v1h-65z M757,110h65v1h-65z M757,111h65v1h-65z M757,112h65v1h-65z M757,113h65v1h-65z M757,114h65v1h-65z M757,115h65v1h-65z M757,116h65v1h-65z M757,117h65v1h-65z M757,118h65v1h-65z M757,119h65v1h-65z M757,120h65v1h-65z M757,121h65v1h-65z M757,122h65v1h-65z M757,123h65v1h-65z M757,124h65v1h-65z M757,125h65v1h-65z M757,126h65v1h-65z M757,127h65v1h-65z M757,128h65v1h-65z M757,129h65v1h-65z M757,130h65v1h-65z M757,131h65v1h-65z M757,132h65v1h-65z M757,133h65v1h-65z M757,134h65v1h-65z M757,135h65v1h-65z M757,136h65v1h-65z M757,137h65v1h-65z M757,138h65v1h-65z M757,139h65v1h-65z M757,140h65v1h-65z M757,141h65v1h-65z M757,142h65v1h-65z M757,143h65v1h-65z M757,144h65v1h-65z M713,145h394v1h-394z M713,146h394v1h-394z M713,147h394v1h-394z M713,148h394v1h-394z M713,149h394v1h-394z M713,150h394v1h-394z M713,151h394v1h-394z M713,152h394v1h-394z M713,153h394v1h-394z M713,154h394v1h-394z M713,155h394v1h-394z M713,156h394v1h-394z M713,157h394v1h-394z M713,158h394v1h-394z M713,159h394v1h-394z M713,160h394v1h-394z M713,161h394v1h-394z M713,162h394v1h-394z M713,163h394v1h-394z M713,164h394v1h-394z M713,165h394v1h-394z M713,166h394v1h-394z M713,167h394v1h-394z M713,168h394v1h-394z M713,169h394v1h-394z M713,170h394v1h-394z M713,171h394v1h-394z M713,172h394v1h-394z M713,173h394v1h-394z M713,174h394v1h-394z M713,175h394v1h-394z M713,176h394v1h-394z M713,177h394v1h-394z M713,178h394v1h-394z M713,179h394v1h-394z M713,180h394v1h-394z M713,181h394v1h-394z M713,182h394v1h-394z M713,183h394v1h-394z M713,184h394v1h-394z M713,185h394v1h-394z M713,186h394v1h-394z M713,187h394v1h-394z M713,188h394v1h-394z M713,189h394v1h-394z M713,190h394v1h-394z M713,191h394v1h-394z M713,192h394v1h-394z M713,193h394v1h-394z M713,194h394v1h-394z M713,195h394v1h-394z M713,196h394v1h-394z M713,197h394v1h-394z M713,198h394v1h-394z M713,199h394v1h-394z M713,200h394v1h-394z M713,201h394v1h-394z M713,202h394v1h-394z M713,203h394v1h-394z M713,204h394v1h-394z M713,205h394v1h-394z M713,206h394v1h-394z M713,207h394v1h-394z M713,208h394v1h-394z M713,209h394v1h-394z M713,210h394v1h-394z M757,211h65v1h-65z M757,212h65v1h-65z M757,213h65v1h-65z M757,214h65v1h-65z M757,215h65v1h-65z M757,216h65v1h-65z M757,217h65v1h-65z M757,218h65v1h-65z M757,219h65v1h-65z M757,220h65v1h-65z M757,221h65v1h-65z M757,222h65v1h-65z M757,223h65v1h-65z M757,224h65v1h-65z M757,225h65v1h-65z M757,226h65v1h-65z M757,227h65v1h-65z M757,228h65v1h-65z M757,229h65v1h-65z M757,230h65v1h-65z M757,231h65v1h-65z M757,232h65v1h-65z M757,233h65v1h-65z M757,234h65v1h-65z M757,235h65v1h-65z M757,236h65v1h-65z M757,237h65v1h-65z M757,238h65v1h-65z M757,239h65v1h-65z M757,240h65v1h-65z M757,241h65v1h-65z M757,242h65v1h-65z M757,243h65v1h-65z M757,244h65v1h-65z M757,245h65v1h-65z M757,246h65v1h-65z M757,247h65v1h-65z M757,248h65v1h-65z M757,249h65v1h-65z M757,250h65v1h-65z M757,251h65v1h-65z M757,252h65v1h-65z M757,253h65v1h-65z M757,254h65v1h-65z M757,255h65v1h-65z M757,256h65v1h-65z M757,257h65v1h-65z M757,258h65v1h-65z M757,259h65v1h-65z M757,260h65v1h-65z M757,261h65v1h-65z M757,262h65v1h-65z M757,263h65v1h-65z M757,264h65v1h-65z M757,265h65v1h-65z M757,266h65v1h-65z M757,267h65v1h-65z M757,268h65v1h-65z M757,269h65v1h-65z M757,270h65v1h-65z M757,271h65v1h-65z M757,272h65v1h-65z M757,273h65v1h-65z M757,274h65v1h-65z M757,275h65v1h-65z M757,276h65v1h-65z M757,277h65v1h-65z M757,278h65v1h-65z M757,279h65v1h-65z M757,280h65v1h-65z M757,281h65v1h-65z M757,282h65v1h-65z M757,283h65v1h-65z M757,284h65v1h-65z M757,285h65v1h-65z M757,286h65v1h-65z M757,287h65v1h-65z M757,288h65v1h-65z M757,289h65v1h-65z M757,290h65v1h-65z M757,291h65v1h-65z M757,292h65v1h-65z M757,293h65v1h-65z M757,294h65v1h-65z M757,295h65v1h-65z M757,296h65v1h-65z M757,297h65v1h-65z M757,298h65v1h-65z M757,299h65v1h-65z M757,300h65v1h-65z M757,301h65v1h-65z M757,302h65v1h-65z M757,303h65v1h-65z M757,304h65v1h-65z M757,305h65v1h-65z M757,306h65v1h-65z M757,307h65v1h-65z M757,308h65v1h-65z M757,309h65v1h-65z M757,310h65v1h-65z M757,311h65v1h-65z M757,312h65v1h-65z M757,313h65v1h-65z M757,314h65v1h-65z M757,315h65v1h-65z M757,316h65v1h-65z M757,317h65v1h-65z M757,318h65v1h-65z M757,319h65v1h-65z M757,320h65v1h-65z M757,321h65v1h-65z M757,322h65v1h-65z M757,323h65v1h-65z M757,324h65v1h-65z M757,325h65v1h-65z M757,326h65v1h-65z M757,327h65v1h-65z M757,328h65v1h-65z M757,329h65v1h-65z M757,330h65v1h-65z M757,331h65v1h-65z M757,332h65v1h-65z M757,333h65v1h-65z M757,334h65v1h-65z M757,335h65v1h-65z M757,336h65v1h-65z M757,337h65v1h-65z M757,338h65v1h-65z M757,339h65v1h-65z M757,340h65v1h-65z M757,341h65v1h-65z M757,342h65v1h-65z M757,343h65v1h-65z M757,344h65v1h-65z M757,345h65v1h-65z M757,346h65v1h-65z M757,347h65v1h-65z M757,348h65v1h-65z M757,349h65v1h-65z M757,350h65v1h-65z M757,351h65v1h-65z M757,352h65v1h-65z M757,353h65v1h-65z M757,354h65v1h-65z M757,355h65v1h-65z M757,356h65v1h-65z M757,357h65v1h-65z M757,358h65v1h-65z M757,359h65v1h-65z M757,360h65v1h-65z M757,361h65v1h-65z M757,362h65v1h-65z M757,363h65v1h-65z M757,364h66v1h-66z M757,365h66v1h-66z M757,366h66v1h-66z M757,367h66v1h-66z M757,368h66v1h-66z M757,369h67v1h-67z M757,370h67v1h-67z M757,371h68v1h-68z M757,372h68v1h-68z M757,373h69v1h-69z M757,374h70v1h-70z M757,375h70v1h-70z M757,376h71v1h-71z M757,377h73v1h-73z M757,378h74v1h-74z M757,379h76v1h-76z M757,380h78v1h-78z M757,381h82v1h-82z M757,382h350v1h-350z M757,383h350v1h-350z M757,384h350v1h-350z M757,385h350v1h-350z M758,386h349v1h-349z M758,387h349v1h-349z M758,388h349v1h-349z M758,389h349v1h-349z M758,390h349v1h-349z M758,391h349v1h-349z M759,392h348v1h-348z M759,393h348v1h-348z M759,394h348v1h-348z M759,395h348v1h-348z M760,396h347v1h-347z M760,397h347v1h-347z M760,398h347v1h-347z M761,399h346v1h-346z M761,400h346v1h-346z M761,401h346v1h-346z M762,402h345v1h-345z M762,403h345v1h-345z M762,404h345v1h-345z M763,405h344v1h-344z M763,406h344v1h-344z M764,407h343v1h-343z M764,408h343v1h-343z M765,409h342v1h-342z M765,410h342v1h-342z M766,411h341v1h-341z M766,412h341v1h-341z M767,413h340v1h-340z M767,414h340v1h-340z M768,415h339v1h-339z M769,416h338v1h-338z M769,417h338v1h-338z M770,418h337v1h-337z M771,419h336v1h-336z M772,420h335v1h-335z M772,421h335v1h-335z M773,422h334v1h-334z M774,423h333v1h-333z M775,424h332v1h-332z M776,425h331v1h-331z M777,426h330v1h-330z M778,427h329v1h-329z M779,428h328v1h-328z M780,429h327v1h-327z M781,430h326v1h-326z M782,431h325v1h-325z M783,432h324v1h-324z M785,433h322v1h-322z M786,434h321v1h-321z M787,435h320v1h-320z M789,436h318v1h-318z M791,437h316v1h-316z M792,438h315v1h-315z M794,439h313v1h-313z M796,440h311v1h-311z M798,441h309v1h-309z M801,442h306v1h-306z M803,443h304v1h-304z M806,444h301v1h-301z M810,445h297v1h-297z M814,446h293v1h-293z M822,447h285v1h-285z"/>
<path d="M2381,103h18v1h-18z M2377,104h26v1h-26z M2377,105h28v1h-28z M2377,106h29v1h-29z M2377,107h30v1h-30z M2377,108h31v1h-31z M2377,109h32v1h-32z M2377,110h10v1h-10z M2395,110h14v1h-14z M2377,111h10v1h-10z M2397,111h12v1h-12z M2377,112h10v1h-10z M2398,112h12v1h-12z M2377,113h10v1h-10z M2399,113h11v1h-11z M2377,114h10v1h-10z M2399,114h11v1h-11z M2377,115h10v1h-10z M2399,115h11v1h-11z M2377,116h10v1h-10z M2399,116h10v1h-10z M2377,117h10v1h-10z M2399,117h10v1h-10z M2377,118h10v1h-10z M2398,118h11v1h-11z M2377,119h10v1h-10z M2397,119h11v1h-11z M2377,120h10v1h-10z M2394,120h13v1h-13z M2377,121h29v1h-29z M2377,122h28v1h-28z M2377,123h26v1h-26z M2377,124h26v1h-26z M2377,125h27v1h-27z M2377,126h28v1h-28z M2377,127h29v1h-29z M2377,128h10v1h-10z M2394,128h13v1h-13z M2377,129h10v1h-10z M2396,129h11v1h-11z M2377,130h10v1h-10z M2397,130h11v1h-11z M2377,131h10v1h-10z M2397,131h11v1h-11z M2377,132h10v1h-10z M2398,132h10v1h-10z M2377,133h10v1h-10z M2398,133h11v1h-11z M2377,134h10v1h-10z M2398,134h11v1h-11z M2377,135h10v1h-10z M2398,135h11v1h-11z M2377,136h10v1h-10z M2399,136h10v1h-10z M2377,137h10v1h-10z M2399,137h11v1h-11z M2377,138h10v1h-10z M2399,138h11v1h-11z M2377,139h10v1h-10z M2399,139h11v1h-11z M2377,140h10v1h-10z M2400,140h10v1h-10z M2377,141h10v1h-10z M2400,141h11v1h-11z M2377,142h10v1h-10z M2401,142h10v1h-10z M2377,143h9v1h-9z M2401,143h10v1h-10z"/>
<path d="M2048,145h235v1h-235z M2038,146h255v1h-255z M2033,147h265v1h-265z M2029,148h273v1h-273z M2026,149h279v1h-279z M2024,150h283v1h-283z M2021,151h289v1h-289z M2019,152h293v1h-293z M2017,153h297v1h-297z M2015,154h301v1h-301z M2013,155h305v1h-305z M2012,156h307v1h-307z M2010,157h311v1h-311z M2009,158h313v1h-313z M2007,159h317v1h-317z M2006,160h319v1h-319z M2005,161h321v1h-321z M2003,162h324v1h-324z M2002,163h327v1h-327z M2001,164h329v1h-329z M2000,165h331v1h-331z M1999,166h333v1h-333z M1998,167h335v1h-335z M1997,168h337v1h-337z M1996,169h339v1h-339z M1995,170h341v1h-341z M1994,171h343v1h-343z M1993,172h344v1h-344z M1993,173h345v1h-345z M1992,174h347v1h-347z M1991,175h349v1h-349z M1990,176h351v1h-351z M1990,177h351v1h-351z M1989,178h353v1h-353z M1988,179h355v1h-355z M1988,180h355v1h-355z M1987,181h357v1h-357z M1986,182h358v1h-358z M1986,183h359v1h-359z M1985,184h361v1h-361z M1985,185h361v1h-361z M1984,186h363v1h-363z M1984,187h363v1h-363z M1983,188h365v1h-365z M1983,189h365v1h-365z M1982,190h367v1h-367z M1982,191h367v1h-367z M1982,192h367v1h-367z M1981,193h369v1h-369z M1981,194h369v1h-369z M1980,195h370v1h-370z M1980,196h371v1h-371z M1980,197h371v1h-371z M1979,198h372v1h-372z M1979,199h373v1h-373z M1979,200h373v1h-373z M1979,201h373v1h-373z M1978,202h374v1h-374z M1978,203h375v1h-375z M1978,204h375v1h-375z M1978,205h375v1h-375z M1978,206h375v1h-375z M1977,207h376v1h-376z M1977,208h377v1h-377z M1977,209h377v1h-377z M1977,210h377v1h-377z M1977,211h81v1h-81z M2273,211h81v1h-81z M1977,212h78v1h-78z M2276,212h78v1h-78z M1977,213h76v1h-76z M2278,213h76v1h-76z M1977,214h74v1h-74z M2279,214h75v1h-75z M1977,215h73v1h-73z M2281,215h73v1h-73z M1977,216h72v1h-72z M2282,216h72v1h-72z M1977,217h71v1h-71z M2283,217h71v1h-71z M1977,218h70v1h-70z M2284,218h70v1h-70z M1977,219h69v1h-69z M2285,219h69v1h-69z M1977,220h68v1h-68z M2286,220h68v1h-68z M1977,221h68v1h-68z M2286,221h68v1h-68z M1977,222h67v1h-67z M2287,222h67v1h-67z M1977,223h67v1h-67z M2287,223h67v1h-67z M1977,224h66v1h-66z M2288,224h66v1h-66z M1977,225h66v1h-66z M2288,225h66v1h-66z M1977,226h66v1h-66z M2288,226h66v1h-66z M1977,227h65v1h-65z M2288,227h66v1h-66z M1977,228h65v1h-65z M2289,228h65v1h-65z M1977,229h65v1h-65z M2289,229h65v1h-65z M1977,230h65v1h-65z M2289,230h65v1h-65z M1977,231h65v1h-65z M2289,231h65v1h-65z M1977,232h65v1h-65z M2289,232h65v1h-65z M1977,233h65v1h-65z M2289,233h65v1h-65z M1977,234h65v1h-65z M2289,234h65v1h-65z M1977,235h65v1h-65z M2289,235h65v1h-65z M1977,236h65v1h-65z M2289,236h65v1h-65z M1977,237h65v1h-65z M2289,237h65v1h-65z M1977,238h65v1h-65z M2289,238h65v1h-65z M1977,239h65v1h-65z M2289,239h65v1h-65z M1977,240h65v1h-65z M2289,240h65v1h-65z M1977,241h65v1h-65z M2289,241h65v1h-65z M1977,242h65v1h-65z M2289,242h65v1h-65z M1977,243h65v1h-65z M2289,243h65v1h-65z M1977,244h65v1h-65z M2289,244h65v1h-65z M1977,245h65v1h-65z M2289,245h65v1h-65z M1977,246h65v1h-65z M2289,246h65v1h-65z M1977,247h65v1h-65z M2289,247h65v1h-65z M1977,248h65v1h-65z M2289,248h65v1h-65z M1977,249h65v1h-65z M2289,249h65v1h-65z M1977,250h65v1h-65z M2289,250h65v1h-65z M1977,251h65v1h-65z M2289,251h65v1h-65z M1977,252h65v1h-65z M2289,252h65v1h-65z M1977,253h65v1h-65z M2289,253h65v1h-65z M1977,254h65v1h-65z M2289,254h65v1h-65z M1977,255h65v1h-65z M2289,255h65v1h-65z M1977,256h65v1h-65z M2289,256h65v1h-65z M1977,257h65v1h-65z M2289,257h65v1h-65z M1977,258h65v1h-65z M2289,258h65v1h-65z M1977,259h65v1h-65z M2289,259h65v1h-65z M1977,260h65v1h-65z M2289,260h65v1h-65z M1977,261h65v1h-65z M2289,261h65v1h-65z M1977,262h65v1h-65z M2289,262h65v1h-65z M1977,263h65v1h-65z M2289,263h65v1h-65z M1977,264h65v1h-65z M2289,264h65v1h-65z M1977,265h65v1h-65z M2289,265h65v1h-65z M1977,266h65v1h-65z M2289,266h65v1h-65z M1977,267h65v1h-65z M2289,267h65v1h-65z M1977,268h65v1h-65z M2289,268h65v1h-65z M1977,269h65v1h-65z M2289,269h65v1h-65z M1977,270h65v1h-65z M2289,270h65v1h-65z M1977,271h65v1h-65z M2289,271h65v1h-65z M1977,272h65v1h-65z M2289,272h65v1h-65z M1977,273h65v1h-65z M2289,273h65v1h-65z M1977,274h65v1h-65z M2289,274h65v1h-65z M1977,275h65v1h-65z M2289,275h65v1h-65z M1977,276h65v1h-65z M2289,276h65v1h-65z M1977,277h65v1h-65z M2289,277h65v1h-65z M1977,278h65v1h-65z M2289,278h65v1h-65z M1977,279h65v1h-65z M2289,279h65v1h-65z M1977,280h65v1h-65z M2289,280h65v1h-65z M1977,281h65v1h-65z M2289,281h65v1h-65z M1977,282h65v1h-65z M2289,282h65v1h-65z M1977,283h65v1h-65z M2289,283h65v1h-65z M1977,284h65v1h-65z M2289,284h65v1h-65z M1977,285h65v1h-65z M2289,285h65v1h-65z M1977,286h65v1h-65z M2289,286h65v1h-65z M1977,287h65v1h-65z M2289,287h65v1h-65z M1977,288h65v1h-65z M2289,288h65v1h-65z M1977,289h65v1h-65z M2289,289h65v1h-65z M1977,290h65v1h-65z M2289,290h65v1h-65z M1977,291h65v1h-65z M2289,291h65v1h-65z M1977,292h65v1h-65z M2289,292h65v1h-65z M1977,293h65v1h-65z M2289,293h65v1h-65z M1977,294h65v1h-65z M2289,294h65v1h-65z M1977,295h65v1h-65z M2289,295h65v1h-65z M1977,296h65v1h-65z M2289,296h65v1h-65z M1977,297h65v1h-65z M2289,297h65v1h-65z M1977,298h65v1h-65z M2289,298h65v1h-65z M1977,299h65v1h-65z M2289,299h65v1h-65z M1977,300h65v1h-65z M2289,300h65v1h-65z M1977,301h65v1h-65z M2289,301h65v1h-65z M1977,302h65v1h-65z M2289,302h65v1h-65z M1977,303h65v1h-65z M2289,303h65v1h-65z M1977,304h65v1h-65z M2289,304h65v1h-65z M1977,305h65v1h-65z M2289,305h65v1h-65z M1977,306h65v1h-65z M2289,306h65v1h-65z M1977,307h65v1h-65z M2289,307h65v1h-65z M1977,308h65v1h-65z M2289,308h65v1h-65z M1977,309h65v1h-65z M2289,309h65v1h-65z M1977,310h65v1h-65z M2289,310h65v1h-65z M1977,311h65v1h-65z M2289,311h65v1h-65z M1977,312h65v1h-65z M2289,312h65v1h-65z M1977,313h65v1h-65z M2289,313h65v1h-65z M1977,314h65v1h-65z M2289,314h65v1h-65z M1977,315h65v1h-65z M2289,315h65v1h-65z M1977,316h65v1h-65z M2289,316h65v1h-65z M1977,317h65v1h-65z M2289,317h65v1h-65z M1977,318h65v1h-65z M2289,318h65v1h-65z M1977,319h65v1h-65z M2289,319h65v1h-65z M1977,320h65v1h-65z M2289,320h65v1h-65z M1977,321h65v1h-65z M2289,321h65v1h-65z M1977,322h65v1h-65z M2289,322h65v1h-65z M1977,323h65v1h-65z M2289,323h65v1h-65z M1977,324h65v1h-65z M2289,324h65v1h-65z M1977,325h65v1h-65z M2289,325h65v1h-65z M1977,326h65v1h-65z M2289,326h65v1h-65z M1977,327h65v1h-65z M2289,327h65v1h-65z M1977,328h65v1h-65z M2289,328h65v1h-65z M1977,329h65v1h-65z M2289,329h65v1h-65z M1977,330h65v1h-65z M2289,330h65v1h-65z M1977,331h65v1h-65z M2289,331h65v1h-65z M1977,332h65v1h-65z M2289,332h65v1h-65z M1977,333h65v1h-65z M2289,333h65v1h-65z M1977,334h65v1h-65z M2289,334h65v1h-65z M1977,335h65v1h-65z M2289,335h65v1h-65z M1977,336h65v1h-65z M2289,336h65v1h-65z M1977,337h65v1h-65z M2289,337h65v1h-65z M1977,338h65v1h-65z M2289,338h65v1h-65z M1977,339h65v1h-65z M2289,339h65v1h-65z M1977,340h65v1h-65z M2289,340h65v1h-65z M1977,341h65v1h-65z M2289,341h65v1h-65z M1977,342h65v1h-65z M2289,342h65v1h-65z M1977,343h65v1h-65z M2289,343h65v1h-65z M1977,344h65v1h-65z M2289,344h65v1h-65z M1977,345h65v1h-65z M2289,345h65v1h-65z M1977,346h65v1h-65z M2289,346h65v1h-65z M1977,347h65v1h-65z M2289,347h65v1h-65z M1977,348h65v1h-65z M2289,348h65v1h-65z M1977,349h65v1h-65z M2289,349h65v1h-65z M1977,350h65v1h-65z M2289,350h65v1h-65z M1977,351h65v1h-65z M2289,351h65v1h-65z M1977,352h65v1h-65z M2289,352h65v1h-65z M1977,353h65v1h-65z M2289,353h65v1h-65z M1977,354h65v1h-65z M2289,354h65v1h-65z M1977,355h65v1h-65z M2289,355h65v1h-65z M1977,356h65v1h-65z M2289,356h65v1h-65z M1977,357h65v1h-65z M2289,357h65v1h-65z M1977,358h65v1h-65z M2289,358h65v1h-65z M1977,359h65v1h-65z M2289,359h65v1h-65z M1977,360h65v1h-65z M2289,360h65v1h-65z M1977,361h65v1h-65z M2289,361h65v1h-65z M1977,362h65v1h-65z M2289,362h65v1h-65z M1977,363h65v1h-65z M2289,363h65v1h-65z M1977,364h65v1h-65z M2289,364h65v1h-65z M1977,365h65v1h-65z M2288,365h66v1h-66z M1977,366h66v1h-66z M2288,366h66v1h-66z M1977,367h66v1h-66z M2288,367h66v1h-66z M1977,368h66v1h-66z M2288,368h66v1h-66z M1977,369h67v1h-67z M2287,369h67v1h-67z M1977,370h67v1h-67z M2287,370h67v1h-67z M1977,371h68v1h-68z M2286,371h68v1h-68z M1977,372h68v1h-68z M2286,372h68v1h-68z M1977,373h69v1h-69z M2285,373h69v1h-69z M1977,374h70v1h-70z M2284,374h70v1h-70z M1977,375h71v1h-71z M2283,375h71v1h-71z M1977,376h72v1h-72z M2282,376h72v1h-72z M1977,377h73v1h-73z M2281,377h73v1h-73z M1977,378h74v1h-74z M2280,378h74v1h-74z M1977,379h76v1h-76z M2278,379h76v1h-76z M1977,380h78v1h-78z M2276,380h78v1h-78z M1977,381h80v1h-80z M2273,381h81v1h-81z M1977,382h377v1h-377z M1977,383h377v1h-377z M1977,384h377v1h-377z M1977,385h376v1h-376z M1978,386h375v1h-375z M1978,387h375v1h-375z M1978,388h375v1h-375z M1978,389h375v1h-375z M1978,390h374v1h-374z M1979,391h373v1h-373z M1979,392h373v1h-373z M1979,393h373v1h-373z M1979,394h372v1h-372z M1980,395h371v1h-371z M1980,396h371v1h-371z M1980,397h370v1h-370z M1981,398h369v1h-369z M1981,399h369v1h-369z M1981,400h368v1h-368z M1982,401h367v1h-367z M1982,402h367v1h-367z M1983,403h365v1h-365z M1983,404h365v1h-365z M1984,405h363v1h-363z M1984,406h363v1h-363z M1985,407h361v1h-361z M1985,408h361v1h-361z M1986,409h359v1h-359z M1986,410h358v1h-358z M1987,411h357v1h-357z M1988,412h355v1h-355z M1988,413h355v1h-355z M1989,414h353v1h-353z M1989,415h352v1h-352z M1990,416h350v1h-350z M1991,417h349v1h-349z M1992,418h347v1h-347z M1992,419h346v1h-346z M1993,420h344v1h-344z M1994,421h342v1h-342z M1995,422h341v1h-341z M1996,423h339v1h-339z M1997,424h337v1h-337z M1998,425h335v1h-335z M1999,426h333v1h-333z M2000,427h331v1h-331z M2001,428h329v1h-329z M2002,429h326v1h-326z M2003,430h324v1h-324z M2004,431h322v1h-322z M2006,432h319v1h-319z M2007,433h316v1h-316z M2008,434h314v1h-314z M2010,435h311v1h-311z M2011,436h308v1h-308z M2013,437h304v1h-304z M2015,438h301v1h-301z M2017,439h297v1h-297z M2019,440h293v1h-293z M2021,441h289v1h-289z M2023,442h284v1h-284z M2026,443h279v1h-279z M2029,444h273v1h-273z M2032,445h266v1h-266z M2037,446h256v1h-256z M2046,447h239v1h-239z"/>
<path d="M1207,146h253v1h-253z M1202,147h264v1h-264z M1198,148h272v1h-272z M1195,149h278v1h-278z M1192,150h283v1h-283z M1190,151h288v1h-288z M1187,152h293v1h-293z M1185,153h297v1h-297z M1184,154h300v1h-300z M1182,155h304v1h-304z M1180,156h307v1h-307z M1179,157h310v1h-310z M1177,158h313v1h-313z M1176,159h316v1h-316z M1174,160h319v1h-319z M1173,161h321v1h-321z M1172,162h324v1h-324z M1171,163h326v1h-326z M1170,164h328v1h-328z M1169,165h330v1h-330z M1167,166h333v1h-333z M1166,167h335v1h-335z M1165,168h337v1h-337z M1165,169h338v1h-338z M1164,170h340v1h-340z M1163,171h342v1h-342z M1162,172h344v1h-344z M1161,173h346v1h-346z M1160,174h347v1h-347z M1159,175h349v1h-349z M1159,176h350v1h-350z M1158,177h352v1h-352z M1157,178h353v1h-353z M1157,179h354v1h-354z M1156,180h356v1h-356z M1155,181h357v1h-357z M1155,182h358v1h-358z M1154,183h359v1h-359z M1154,184h360v1h-360z M1153,185h361v1h-361z M1153,186h362v1h-362z M1152,187h363v1h-363z M1152,188h364v1h-364z M1151,189h365v1h-365z M1151,190h366v1h-366z M1150,191h367v1h-367z M1150,192h368v1h-368z M1150,193h368v1h-368z M1149,194h369v1h-369z M1149,195h370v1h-370z M1148,196h371v1h-371z M1148,197h371v1h-371z M1148,198h372v1h-372z M1148,199h372v1h-372z M1147,200h373v1h-373z M1147,201h374v1h-374z M1147,202h374v1h-374z M1147,203h374v1h-374z M1146,204h375v1h-375z M1146,205h375v1h-375z M1146,206h376v1h-376z M1146,207h376v1h-376z M1146,208h376v1h-376z M1146,209h376v1h-376z M1145,210h377v1h-377z M1145,211h82v1h-82z M1441,211h81v1h-81z M1145,212h78v1h-78z M1444,212h78v1h-78z M1145,213h76v1h-76z M1446,213h76v1h-76z M1145,214h75v1h-75z M1448,214h74v1h-74z M1145,215h73v1h-73z M1449,215h74v1h-74z M1145,216h72v1h-72z M1450,216h73v1h-73z M1145,217h71v1h-71z M1451,217h72v1h-72z M1145,218h70v1h-70z M1452,218h71v1h-71z M1145,219h69v1h-69z M1453,219h70v1h-70z M1145,220h69v1h-69z M1454,220h69v1h-69z M1145,221h68v1h-68z M1455,221h68v1h-68z M1145,222h67v1h-67z M1455,222h68v1h-68z M1145,223h67v1h-67z M1456,223h67v1h-67z M1145,224h67v1h-67z M1456,224h67v1h-67z M1145,225h66v1h-66z M1456,225h67v1h-67z M1145,226h66v1h-66z M1457,226h66v1h-66z M1145,227h66v1h-66z M1457,227h66v1h-66z M1145,228h65v1h-65z M1457,228h66v1h-66z M1145,229h65v1h-65z M1457,229h66v1h-66z M1145,230h65v1h-65z M1457,230h66v1h-66z M1145,231h65v1h-65z M1457,231h66v1h-66z M1145,232h65v1h-65z M1457,232h66v1h-66z M1145,233h65v1h-65z M1457,233h66v1h-66z M1145,234h65v1h-65z M1457,234h66v1h-66z M1145,235h65v1h-65z M1457,235h66v1h-66z M1145,236h65v1h-65z M1457,236h66v1h-66z M1145,237h65v1h-65z M1457,237h66v1h-66z M1145,238h65v1h-65z M1457,238h66v1h-66z M1145,239h65v1h-65z M1457,239h66v1h-66z M1145,240h65v1h-65z M1457,240h66v1h-66z M1145,241h65v1h-65z M1457,241h66v1h-66z M1145,242h65v1h-65z M1457,242h66v1h-66z M1145,243h65v1h-65z M1457,243h66v1h-66z M1145,244h65v1h-65z M1457,244h66v1h-66z M1145,245h65v1h-65z M1457,245h66v1h-66z M1145,246h65v1h-65z M1457,246h66v1h-66z M1145,247h65v1h-65z M1457,247h66v1h-66z M1145,248h65v1h-65z M1457,248h66v1h-66z M1145,249h65v1h-65z M1457,249h66v1h-66z M1145,250h65v1h-65z M1457,250h66v1h-66z M1145,251h65v1h-65z M1457,251h66v1h-66z M1145,252h65v1h-65z M1457,252h66v1h-66z M1145,253h65v1h-65z M1457,253h66v1h-66z M1145,254h65v1h-65z M1457,254h66v1h-66z M1145,255h65v1h-65z M1457,255h66v1h-66z M1145,256h65v1h-65z M1457,256h66v1h-66z M1145,257h65v1h-65z M1457,257h66v1h-66z M1145,258h65v1h-65z M1457,258h66v1h-66z M1145,259h65v1h-65z M1457,259h66v1h-66z M1145,260h65v1h-65z M1457,260h66v1h-66z M1145,261h65v1h-65z M1457,261h66v1h-66z M1145,262h65v1h-65z M1457,262h66v1h-66z M1145,263h65v1h-65z M1457,263h66v1h-66z M1145,264h65v1h-65z M1457,264h66v1h-66z M1145,265h65v1h-65z M1457,265h66v1h-66z M1145,266h65v1h-65z M1457,266h66v1h-66z M1145,267h65v1h-65z M1457,267h66v1h-66z M1145,268h65v1h-65z M1457,268h66v1h-66z M1145,269h65v1h-65z M1457,269h66v1h-66z M1145,270h65v1h-65z M1457,270h66v1h-66z M1145,271h65v1h-65z M1457,271h66v1h-66z M1145,272h65v1h-65z M1457,272h66v1h-66z M1145,273h65v1h-65z M1457,273h66v1h-66z M1145,274h65v1h-65z M1457,274h66v1h-66z M1145,275h65v1h-65z M1457,275h66v1h-66z M1145,276h65v1h-65z M1457,276h66v1h-66z M1145,277h65v1h-65z M1457,277h66v1h-66z M1145,278h65v1h-65z M1457,278h66v1h-66z M1145,279h65v1h-65z M1457,279h66v1h-66z M1145,280h65v1h-65z M1457,280h66v1h-66z M1145,281h65v1h-65z M1457,281h66v1h-66z M1145,282h65v1h-65z M1457,282h66v1h-66z M1145,283h65v1h-65z M1457,283h66v1h-66z M1145,284h65v1h-65z M1457,284h66v1h-66z M1145,285h65v1h-65z M1457,285h66v1h-66z M1145,286h65v1h-65z M1457,286h66v1h-66z M1145,287h65v1h-65z M1457,287h66v1h-66z M1145,288h65v1h-65z M1457,288h66v1h-66z M1145,289h65v1h-65z M1457,289h66v1h-66z M1145,290h65v1h-65z M1457,290h66v1h-66z M1145,291h65v1h-65z M1457,291h66v1h-66z M1145,292h65v1h-65z M1457,292h66v1h-66z M1145,293h65v1h-65z M1457,293h66v1h-66z M1145,294h65v1h-65z M1457,294h66v1h-66z M1145,295h65v1h-65z M1457,295h66v1h-66z M1145,296h65v1h-65z M1457,296h66v1h-66z M1145,297h65v1h-65z M1457,297h66v1h-66z M1145,298h65v1h-65z M1457,298h66v1h-66z M1145,299h65v1h-65z M1457,299h66v1h-66z M1145,300h65v1h-65z M1457,300h66v1h-66z M1145,301h65v1h-65z M1457,301h66v1h-66z M1145,302h65v1h-65z M1457,302h66v1h-66z M1145,303h65v1h-65z M1457,303h66v1h-66z M1145,304h65v1h-65z M1457,304h66v1h-66z M1145,305h65v1h-65z M1457,305h66v1h-66z M1145,306h65v1h-65z M1457,306h66v1h-66z M1145,307h65v1h-65z M1457,307h66v1h-66z M1145,308h65v1h-65z M1457,308h66v1h-66z M1145,309h65v1h-65z M1457,309h66v1h-66z M1145,310h65v1h-65z M1457,310h66v1h-66z M1145,311h65v1h-65z M1457,311h66v1h-66z M1145,312h65v1h-65z M1457,312h66v1h-66z M1145,313h65v1h-65z M1457,313h66v1h-66z M1145,314h65v1h-65z M1457,314h66v1h-66z M1145,315h65v1h-65z M1457,315h66v1h-66z M1145,316h65v1h-65z M1457,316h66v1h-66z M1145,317h65v1h-65z M1457,317h66v1h-66z M1145,318h65v1h-65z M1457,318h66v1h-66z M1145,319h65v1h-65z M1457,319h66v1h-66z M1145,320h65v1h-65z M1457,320h66v1h-66z M1145,321h65v1h-65z M1457,321h66v1h-66z M1145,322h65v1h-65z M1457,322h66v1h-66z M1145,323h65v1h-65z M1457,323h66v1h-66z M1145,324h65v1h-65z M1457,324h66v1h-66z M1145,325h65v1h-65z M1457,325h66v1h-66z M1145,326h65v1h-65z M1457,326h66v1h-66z M1145,327h65v1h-65z M1457,327h66v1h-66z M1145,328h65v1h-65z M1457,328h66v1h-66z M1145,329h65v1h-65z M1457,329h66v1h-66z M1145,330h65v1h-65z M1457,330h66v1h-66z M1145,331h65v1h-65z M1457,331h66v1h-66z M1145,332h65v1h-65z M1457,332h66v1h-66z M1145,333h65v1h-65z M1457,333h66v1h-66z M1145,334h65v1h-65z M1457,334h66v1h-66z M1145,335h65v1h-65z M1457,335h66v1h-66z M1145,336h65v1h-65z M1457,336h66v1h-66z M1145,337h65v1h-65z M1457,337h66v1h-66z M1145,338h65v1h-65z M1457,338h66v1h-66z M1145,339h65v1h-65z M1457,339h66v1h-66z M1145,340h65v1h-65z M1457,340h66v1h-66z M1145,341h65v1h-65z M1457,341h66v1h-66z M1145,342h65v1h-65z M1457,342h66v1h-66z M1145,343h65v1h-65z M1457,343h66v1h-66z M1145,344h65v1h-65z M1457,344h66v1h-66z M1145,345h65v1h-65z M1457,345h66v1h-66z M1145,346h65v1h-65z M1457,346h66v1h-66z M1145,347h65v1h-65z M1457,347h66v1h-66z M1145,348h65v1h-65z M1457,348h66v1h-66z M1145,349h65v1h-65z M1457,349h66v1h-66z M1145,350h65v1h-65z M1457,350h66v1h-66z M1145,351h65v1h-65z M1457,351h66v1h-66z M1145,352h65v1h-65z M1457,352h66v1h-66z M1145,353h65v1h-65z M1457,353h66v1h-66z M1145,354h65v1h-65z M1457,354h66v1h-66z M1145,355h65v1h-65z M1457,355h66v1h-66z M1145,356h65v1h-65z M1457,356h66v1h-66z M1145,357h65v1h-65z M1457,357h66v1h-66z M1145,358h65v1h-65z M1457,358h66v1h-66z M1145,359h65v1h-65z M1457,359h66v1h-66z M1145,360h65v1h-65z M1457,360h66v1h-66z M1145,361h65v1h-65z M1457,361h66v1h-66z M1145,362h65v1h-65z M1457,362h66v1h-66z M1145,363h65v1h-65z M1457,363h66v1h-66z M1145,364h65v1h-65z M1457,364h66v1h-66z M1145,365h66v1h-66z M1457,365h66v1h-66z M1145,366h66v1h-66z M1457,366h66v1h-66z M1145,367h66v1h-66z M1456,367h67v1h-67z M1145,368h66v1h-66z M1456,368h67v1h-67z M1145,369h67v1h-67z M1456,369h67v1h-67z M1145,370h67v1h-67z M1455,370h68v1h-68z M1145,371h68v1h-68z M1455,371h68v1h-68z M1145,372h68v1h-68z M1454,372h69v1h-69z M1145,373h69v1h-69z M1453,373h70v1h-70z M1145,374h70v1h-70z M1453,374h70v1h-70z M1145,375h71v1h-71z M1452,375h71v1h-71z M1145,376h72v1h-72z M1451,376h72v1h-72z M1145,377h73v1h-73z M1450,377h73v1h-73z M1145,378h74v1h-74z M1448,378h75v1h-75z M1145,379h76v1h-76z M1447,379h75v1h-75z M1145,380h78v1h-78z M1445,380h77v1h-77z M1145,381h80v1h-80z M1442,381h80v1h-80z M1145,382h377v1h-377z M1145,383h377v1h-377z M1146,384h376v1h-376z M1146,385h376v1h-376z M1146,386h376v1h-376z M1146,387h375v1h-375z M1146,388h375v1h-375z M1146,389h375v1h-375z M1147,390h374v1h-374z M1147,391h374v1h-374z M1147,392h373v1h-373z M1147,393h373v1h-373z M1148,394h372v1h-372z M1148,395h371v1h-371z M1148,396h371v1h-371z M1149,397h370v1h-370z M1149,398h369v1h-369z M1149,399h369v1h-369z M1150,400h368v1h-368z M1150,401h367v1h-367z M1151,402h366v1h-366z M1151,403h365v1h-365z M1151,404h365v1h-365z M1152,405h364v1h-364z M1152,406h363v1h-363z M1153,407h361v1h-361z M1153,408h361v1h-361z M1154,409h359v1h-359z M1155,410h358v1h-358z M1155,411h357v1h-357z M1156,412h356v1h-356z M1156,413h355v1h-355z M1157,414h353v1h-353z M1158,415h352v1h-352z M1158,416h351v1h-351z M1159,417h349v1h-349z M1160,418h347v1h-347z M1161,419h346v1h-346z M1161,420h345v1h-345z M1162,421h343v1h-343z M1163,422h341v1h-341z M1164,423h339v1h-339z M1165,424h337v1h-337z M1166,425h335v1h-335z M1167,426h333v1h-333z M1168,427h331v1h-331z M1169,428h329v1h-329z M1170,429h327v1h-327z M1171,430h325v1h-325z M1173,431h321v1h-321z M1174,432h319v1h-319z M1175,433h317v1h-317z M1177,434h314v1h-314z M1178,435h311v1h-311z M1179,436h309v1h-309z M1181,437h305v1h-305z M1183,438h301v1h-301z M1185,439h297v1h-297z M1187,440h293v1h-293z M1189,441h289v1h-289z M1191,442h285v1h-285z M1194,443h279v1h-279z M1197,444h273v1h-273z M1200,445h267v1h-267z M1205,446h257v1h-257z M1212,447h243v1h-243z"/>
<path d="M1623,146h254v1h-254z M1618,147h264v1h-264z M1614,148h272v1h-272z M1611,149h278v1h-278z M1608,150h284v1h-284z M1605,151h289v1h-289z M1603,152h293v1h-293z M1601,153h297v1h-297z M1599,154h301v1h-301z M1598,155h304v1h-304z M1596,156h308v1h-308z M1594,157h311v1h-311z M1593,158h314v1h-314z M1591,159h317v1h-317z M1590,160h319v1h-319z M1589,161h322v1h-322z M1588,162h324v1h-324z M1586,163h327v1h-327z M1585,164h329v1h-329z M1584,165h331v1h-331z M1583,166h333v1h-333z M1582,167h335v1h-335z M1581,168h337v1h-337z M1580,169h339v1h-339z M1579,170h341v1h-341z M1578,171h343v1h-343z M1578,172h344v1h-344z M1577,173h346v1h-346z M1576,174h347v1h-347z M1575,175h349v1h-349z M1574,176h351v1h-351z M1574,177h352v1h-352z M1573,178h353v1h-353z M1572,179h355v1h-355z M1572,180h356v1h-356z M1571,181h357v1h-357z M1571,182h358v1h-358z M1570,183h359v1h-359z M1569,184h361v1h-361z M1569,185h361v1h-361z M1568,186h363v1h-363z M1568,187h363v1h-363z M1567,188h365v1h-365z M1567,189h365v1h-365z M1566,190h367v1h-367z M1566,191h367v1h-367z M1566,192h368v1h-368z M1565,193h369v1h-369z M1565,194h369v1h-369z M1565,195h370v1h-370z M1564,196h371v1h-371z M1564,197h371v1h-371z M1564,198h372v1h-372z M1563,199h373v1h-373z M1563,200h373v1h-373z M1563,201h373v1h-373z M1563,202h374v1h-374z M1562,203h375v1h-375z M1562,204h375v1h-375z M1562,205h375v1h-375z M1562,206h375v1h-375z M1562,207h376v1h-376z M1561,208h377v1h-377z M1561,209h377v1h-377z M1561,210h377v1h-377z M1561,211h80v1h-80z M1857,211h81v1h-81z M1561,212h77v1h-77z M1860,212h78v1h-78z M1561,213h75v1h-75z M1862,213h76v1h-76z M1561,214h73v1h-73z M1864,214h74v1h-74z M1561,215h72v1h-72z M1865,215h73v1h-73z M1561,216h71v1h-71z M1866,216h72v1h-72z M1561,217h70v1h-70z M1867,217h71v1h-71z M1561,218h69v1h-69z M1868,218h70v1h-70z M1561,219h69v1h-69z M1869,219h69v1h-69z M1561,220h68v1h-68z M1870,220h69v1h-69z M1561,221h67v1h-67z M1871,221h68v1h-68z M1561,222h67v1h-67z M1871,222h68v1h-68z M1561,223h66v1h-66z M1872,223h67v1h-67z M1561,224h66v1h-66z M1872,224h67v1h-67z M1561,225h66v1h-66z M1872,225h67v1h-67z M1561,226h65v1h-65z M1873,226h66v1h-66z M1561,227h65v1h-65z M1873,227h66v1h-66z M1561,228h65v1h-65z M1873,228h66v1h-66z M1561,229h65v1h-65z M1873,229h66v1h-66z M1561,230h65v1h-65z M1873,230h66v1h-66z M1561,231h65v1h-65z M1873,231h66v1h-66z M1561,232h65v1h-65z M1873,232h66v1h-66z M1561,233h65v1h-65z M1873,233h66v1h-66z M1561,234h65v1h-65z M1873,234h66v1h-66z M1561,235h65v1h-65z M1873,235h66v1h-66z M1561,236h65v1h-65z M1873,236h66v1h-66z M1561,237h65v1h-65z M1873,237h66v1h-66z M1561,238h65v1h-65z M1873,238h66v1h-66z M1561,239h65v1h-65z M1873,239h66v1h-66z M1561,240h65v1h-65z M1873,240h66v1h-66z M1561,241h65v1h-65z M1873,241h66v1h-66z M1561,242h65v1h-65z M1873,242h66v1h-66z M1561,243h65v1h-65z M1873,243h66v1h-66z M1561,244h65v1h-65z M1873,244h66v1h-66z M1561,245h65v1h-65z M1873,245h66v1h-66z M1561,246h65v1h-65z M1873,246h66v1h-66z M1561,247h65v1h-65z M1873,247h66v1h-66z M1561,248h65v1h-65z M1873,248h66v1h-66z M1561,249h65v1h-65z M1873,249h66v1h-66z M1561,250h65v1h-65z M1873,250h66v1h-66z M1561,251h65v1h-65z M1873,251h66v1h-66z M1561,252h65v1h-65z M1873,252h66v1h-66z M1561,253h65v1h-65z M1873,253h66v1h-66z M1561,254h65v1h-65z M1873,254h66v1h-66z M1561,255h65v1h-65z M1873,255h66v1h-66z M1561,256h65v1h-65z M1873,256h66v1h-66z M1561,257h65v1h-65z M1873,257h66v1h-66z M1561,258h65v1h-65z M1873,258h66v1h-66z M1561,259h65v1h-65z M1873,259h66v1h-66z M1561,260h65v1h-65z M1873,260h66v1h-66z M1561,261h65v1h-65z M1873,261h66v1h-66z M1561,262h65v1h-65z M1873,262h66v1h-66z M1561,263h65v1h-65z M1873,263h66v1h-66z M1561,264h65v1h-65z M1873,264h66v1h-66z M1561,265h65v1h-65z M1873,265h66v1h-66z M1561,266h65v1h-65z M1873,266h66v1h-66z M1561,267h65v1h-65z M1873,267h66v1h-66z M1561,268h65v1h-65z M1873,268h66v1h-66z M1561,269h65v1h-65z M1873,269h66v1h-66z M1561,270h65v1h-65z M1873,270h66v1h-66z M1561,271h65v1h-65z M1873,271h66v1h-66z M1561,272h65v1h-65z M1873,272h66v1h-66z M1561,273h65v1h-65z M1873,273h66v1h-66z M1561,274h65v1h-65z M1873,274h66v1h-66z M1561,275h65v1h-65z M1873,275h66v1h-66z M1561,276h65v1h-65z M1873,276h66v1h-66z M1561,277h65v1h-65z M1873,277h66v1h-66z M1561,278h65v1h-65z M1873,278h66v1h-66z M1561,279h65v1h-65z M1873,279h66v1h-66z M1561,280h65v1h-65z M1873,280h66v1h-66z M1561,281h65v1h-65z M1873,281h66v1h-66z M1561,282h65v1h-65z M1873,282h66v1h-66z M1561,283h65v1h-65z M1873,283h66v1h-66z M1561,284h65v1h-65z M1873,284h66v1h-66z M1561,285h65v1h-65z M1873,285h66v1h-66z M1561,286h65v1h-65z M1873,286h66v1h-66z M1561,287h65v1h-65z M1873,287h66v1h-66z M1561,288h65v1h-65z M1873,288h66v1h-66z M1561,289h65v1h-65z M1873,289h66v1h-66z M1561,290h65v1h-65z M1873,290h66v1h-66z M1561,291h65v1h-65z M1873,291h66v1h-66z M1561,292h65v1h-65z M1873,292h66v1h-66z M1561,293h65v1h-65z M1873,293h66v1h-66z M1561,294h65v1h-65z M1873,294h66v1h-66z M1561,295h65v1h-65z M1873,295h66v1h-66z M1561,296h65v1h-65z M1873,296h66v1h-66z M1561,297h65v1h-65z M1873,297h66v1h-66z M1561,298h65v1h-65z M1873,298h66v1h-66z M1561,299h65v1h-65z M1873,299h66v1h-66z M1561,300h65v1h-65z M1873,300h66v1h-66z M1561,301h65v1h-65z M1873,301h66v1h-66z M1561,302h65v1h-65z M1873,302h66v1h-66z M1561,303h65v1h-65z M1873,303h66v1h-66z M1561,304h65v1h-65z M1873,304h66v1h-66z M1561,305h65v1h-65z M1873,305h66v1h-66z M1561,306h65v1h-65z M1873,306h66v1h-66z M1561,307h65v1h-65z M1873,307h66v1h-66z M1561,308h65v1h-65z M1873,308h66v1h-66z M1561,309h65v1h-65z M1873,309h66v1h-66z M1561,310h65v1h-65z M1873,310h66v1h-66z M1561,311h65v1h-65z M1873,311h66v1h-66z M1561,312h65v1h-65z M1873,312h66v1h-66z M1561,313h65v1h-65z M1873,313h66v1h-66z M1561,314h65v1h-65z M1873,314h66v1h-66z M1561,315h65v1h-65z M1873,315h66v1h-66z M1561,316h65v1h-65z M1873,316h66v1h-66z M1561,317h65v1h-65z M1873,317h66v1h-66z M1561,318h65v1h-65z M1873,318h66v1h-66z M1561,319h65v1h-65z M1873,319h66v1h-66z M1561,320h65v1h-65z M1873,320h66v1h-66z M1561,321h65v1h-65z M1873,321h66v1h-66z M1561,322h65v1h-65z M1873,322h66v1h-66z M1561,323h65v1h-65z M1873,323h66v1h-66z M1561,324h65v1h-65z M1873,324h66v1h-66z M1561,325h65v1h-65z M1873,325h66v1h-66z M1561,326h65v1h-65z M1873,326h66v1h-66z M1561,327h65v1h-65z M1873,327h66v1h-66z M1561,328h65v1h-65z M1873,328h66v1h-66z M1561,329h65v1h-65z M1873,329h66v1h-66z M1561,330h65v1h-65z M1873,330h66v1h-66z M1561,331h65v1h-65z M1873,331h66v1h-66z M1561,332h65v1h-65z M1873,332h66v1h-66z M1561,333h65v1h-65z M1873,333h66v1h-66z M1561,334h65v1h-65z M1873,334h66v1h-66z M1561,335h65v1h-65z M1873,335h66v1h-66z M1561,336h65v1h-65z M1873,336h66v1h-66z M1561,337h65v1h-65z M1873,337h66v1h-66z M1561,338h65v1h-65z M1873,338h66v1h-66z M1561,339h65v1h-65z M1873,339h66v1h-66z M1561,340h65v1h-65z M1873,340h66v1h-66z M1561,341h65v1h-65z M1873,341h66v1h-66z M1561,342h65v1h-65z M1873,342h66v1h-66z M1561,343h65v1h-65z M1873,343h66v1h-66z M1561,344h65v1h-65z M1873,344h66v1h-66z M1561,345h65v1h-65z M1873,345h66v1h-66z M1561,346h65v1h-65z M1873,346h66v1h-66z M1561,347h65v1h-65z M1873,347h66v1h-66z M1561,348h65v1h-65z M1873,348h66v1h-66z M1561,349h65v1h-65z M1873,349h66v1h-66z M1561,350h65v1h-65z M1873,350h66v1h-66z M1561,351h65v1h-65z M1873,351h66v1h-66z M1561,352h65v1h-65z M1873,352h66v1h-66z M1561,353h65v1h-65z M1873,353h66v1h-66z M1561,354h65v1h-65z M1873,354h66v1h-66z M1561,355h65v1h-65z M1873,355h66v1h-66z M1561,356h65v1h-65z M1873,356h66v1h-66z M1561,357h65v1h-65z M1873,357h66v1h-66z M1561,358h65v1h-65z M1873,358h66v1h-66z M1561,359h65v1h-65z M1873,359h66v1h-66z M1561,360h65v1h-65z M1873,360h66v1h-66z M1561,361h65v1h-65z M1873,361h66v1h-66z M1561,362h65v1h-65z M1873,362h66v1h-66z M1561,363h65v1h-65z M1873,363h66v1h-66z M1561,364h65v1h-65z M1873,364h66v1h-66z M1561,365h65v1h-65z M1873,365h66v1h-66z M1561,366h65v1h-65z M1873,366h66v1h-66z M1561,367h65v1h-65z M1873,367h66v1h-66z M1561,368h65v1h-65z M1872,368h67v1h-67z M1561,369h65v1h-65z M1872,369h67v1h-67z M1561,370h65v1h-65z M1871,370h68v1h-68z M1561,371h65v1h-65z M1871,371h68v1h-68z M1561,372h65v1h-65z M1870,372h69v1h-69z M1561,373h65v1h-65z M1870,373h69v1h-69z M1561,374h65v1h-65z M1869,374h69v1h-69z M1561,375h65v1h-65z M1868,375h70v1h-70z M1561,376h65v1h-65z M1867,376h71v1h-71z M1561,377h65v1h-65z M1866,377h72v1h-72z M1561,378h65v1h-65z M1865,378h73v1h-73z M1561,379h65v1h-65z M1863,379h75v1h-75z M1561,380h65v1h-65z M1861,380h77v1h-77z M1561,381h65v1h-65z M1859,381h79v1h-79z M1561,382h377v1h-377z M1561,383h377v1h-377z M1561,384h377v1h-377z M1561,385h377v1h-377z M1561,386h376v1h-376z M1561,387h376v1h-376z M1561,388h376v1h-376z M1561,389h376v1h-376z M1561,390h376v1h-376z M1561,391h375v1h-375z M1561,392h375v1h-375z M1561,393h375v1h-375z M1561,394h375v1h-375z M1561,395h374v1h-374z M1561,396h374v1h-374z M1561,397h374v1h-374z M1561,398h373v1h-373z M1561,399h373v1h-373z M1561,400h373v1h-373z M1561,401h372v1h-372z M1561,402h372v1h-372z M1561,403h371v1h-371z M1561,404h371v1h-371z M1561,405h370v1h-370z M1561,406h370v1h-370z M1561,407h369v1h-369z M1561,408h369v1h-369z M1561,409h368v1h-368z M1561,410h368v1h-368z M1561,411h367v1h-367z M1561,412h367v1h-367z M1561,413h366v1h-366z M1561,414h365v1h-365z M1561,415h365v1h-365z M1561,416h364v1h-364z M1561,417h363v1h-363z M1561,418h362v1h-362z M1561,419h362v1h-362z M1561,420h361v1h-361z M1561,421h360v1h-360z M1561,422h359v1h-359z M1561,423h358v1h-358z M1561,424h357v1h-357z M1561,425h356v1h-356z M1561,426h355v1h-355z M1561,427h354v1h-354z M1561,428h353v1h-353z M1561,429h352v1h-352z M1561,430h351v1h-351z M1561,431h350v1h-350z M1561,432h348v1h-348z M1561,433h347v1h-347z M1561,434h346v1h-346z M1561,435h344v1h-344z M1561,436h343v1h-343z M1561,437h341v1h-341z M1561,438h340v1h-340z M1561,439h338v1h-338z M1561,440h336v1h-336z M1561,441h334v1h-334z M1561,442h331v1h-331z M1561,443h329v1h-329z M1561,444h326v1h-326z M1561,445h322v1h-322z M1561,446h318v1h-318z M1561,447h311v1h-311z M1561,448h65v1h-65z M1561,449h65v1h-65z M1561,450h65v1h-65z M1561,451h65v1h-65z M1561,452h65v1h-65z M1561,453h65v1h-65z M1561,454h65v1h-65z M1561,455h65v1h-65z M1561,456h65v1h-65z M1561,457h65v1h-65z M1561,458h65v1h-65z M1561,459h65v1h-65z M1561,460h65v1h-65z M1561,461h65v1h-65z M1561,462h65v1h-65z M1561,463h65v1h-65z M1561,464h65v1h-65z M1561,465h65v1h-65z M1561,466h65v1h-65z M1561,467h65v1h-65z M1561,468h65v1h-65z M1561,469h65v1h-65z M1561,470h65v1h-65z M1561,471h65v1h-65z M1561,472h65v1h-65z M1561,473h65v1h-65z M1561,474h65v1h-65z M1561,475h65v1h-65z M1561,476h65v1h-65z M1561,477h65v1h-65z M1561,478h65v1h-65z M1561,479h65v1h-65z M1561,480h65v1h-65z M1561,481h65v1h-65z M1561,482h65v1h-65z M1561,483h65v1h-65z M1561,484h65v1h-65z M1561,485h65v1h-65z M1561,486h65v1h-65z M1561,487h65v1h-65z M1561,488h65v1h-65z M1561,489h65v1h-65z M1561,490h65v1h-65z M1561,491h65v1h-65z M1561,492h65v1h-65z M1561,493h65v1h-65z M1561,494h65v1h-65z M1561,495h65v1h-65z M1561,496h65v1h-65z M1561,497h65v1h-65z M1561,498h65v1h-65z M1561,499h65v1h-65z M1561,500h65v1h-65z M1561,501h65v1h-65z M1561,502h65v1h-65z M1561,503h65v1h-65z M1561,504h65v1h-65z M1561,505h65v1h-65z M1561,506h65v1h-65z M1561,507h65v1h-65z M1561,508h65v1h-65z M1561,509h65v1h-65z M1561,510h65v1h-65z M1561,511h65v1h-65z"/>
<path d="M1260,532h12v1h-12z M1260,533h12v1h-12z M1260,534h12v1h-12z M1260,535h12v1h-12z M1260,536h12v1h-12z M1260,537h12v1h-12z M1260,538h12v1h-12z M1260,539h12v1h-12z M1260,540h12v1h-12z M1260,541h12v1h-12z M1260,542h12v1h-12z M1260,543h12v1h-12z M1260,544h12v1h-12z M1260,545h12v1h-12z M1260,546h12v1h-12z M1260,547h12v1h-12z M1260,548h12v1h-12z M1260,549h12v1h-12z M1260,550h12v1h-12z M1260,551h12v1h-12z M1251,552h41v1h-41z M1250,553h42v1h-42z M1250,554h42v1h-42z M1250,555h42v1h-42z M1250,556h42v1h-42z M1250,557h42v1h-42z M1250,558h42v1h-42z M1250,559h42v1h-42z M1250,560h42v1h-42z M1250,561h42v1h-42z M1250,562h42v1h-42z M1250,563h42v1h-42z M1251,564h41v1h-41z M1260,565h12v1h-12z M1260,566h12v1h-12z M1260,567h12v1h-12z M1260,568h12v1h-12z M1260,569h12v1h-12z M1260,570h12v1h-12z M1260,571h12v1h-12z M1260,572h12v1h-12z M1260,573h12v1h-12z M1260,574h12v1h-12z M1260,575h12v1h-12z M1260,576h12v1h-12z M1260,577h12v1h-12z M1260,578h12v1h-12z M1260,579h12v1h-12z M1260,580h12v1h-12z M1260,581h12v1h-12z M1260,582h12v1h-12z M1260,583h12v1h-12z M1260,584h12v1h-12z M1260,585h12v1h-12z M1260,586h12v1h-12z M1260,587h12v1h-12z M1260,588h12v1h-12z M1260,589h12v1h-12z M1260,590h12v1h-12z M1260,591h12v1h-12z M1260,592h12v1h-12z M1260,593h12v1h-12z M1260,594h12v1h-12z M1260,595h12v1h-12z M1260,596h12v1h-12z M1260,597h12v1h-12z M1260,598h12v1h-12z M1260,599h12v1h-12z M1260,600h12v1h-12z M1260,601h12v1h-12z M1260,602h12v1h-12z M1260,603h12v1h-12z M1260,604h12v1h-12z M1260,605h12v1h-12z M1260,606h12v1h-12z M1260,607h12v1h-12z"/>
<path d="M1367,532h12v1h-12z M1367,533h12v1h-12z M1367,534h12v1h-12z M1367,535h12v1h-12z M1367,536h12v1h-12z M1367,537h12v1h-12z M1367,538h12v1h-12z M1367,539h12v1h-12z M1367,540h12v1h-12z M1367,541h12v1h-12z M1367,542h12v1h-12z M1367,543h12v1h-12z M1367,544h12v1h-12z M1367,545h12v1h-12z M1367,546h12v1h-12z M1367,547h12v1h-12z M1367,548h12v1h-12z M1367,549h12v1h-12z M1367,550h12v1h-12z M1367,551h12v1h-12z M1367,552h33v1h-33z M1367,553h39v1h-39z M1367,554h42v1h-42z M1367,555h44v1h-44z M1367,556h46v1h-46z M1367,557h47v1h-47z M1367,558h48v1h-48z M1367,559h50v1h-50z M1367,560h50v1h-50z M1367,561h51v1h-51z M1367,562h52v1h-52z M1367,563h53v1h-53z M1367,564h53v1h-53z M1367,565h12v1h-12z M1402,565h19v1h-19z M1367,566h12v1h-12z M1405,566h16v1h-16z M1367,567h12v1h-12z M1406,567h15v1h-15z M1367,568h12v1h-12z M1408,568h13v1h-13z M1367,569h12v1h-12z M1409,569h12v1h-12z M1367,570h12v1h-12z M1409,570h13v1h-13z M1367,571h12v1h-12z M1409,571h13v1h-13z M1367,572h12v1h-12z M1409,572h13v1h-13z M1367,573h12v1h-12z M1409,573h13v1h-13z M1367,574h12v1h-12z M1409,574h13v1h-13z M1367,575h12v1h-12z M1409,575h13v1h-13z M1367,576h12v1h-12z M1409,576h13v1h-13z M1367,577h12v1h-12z M1409,577h13v1h-13z M1367,578h12v1h-12z M1409,578h13v1h-13z M1367,579h12v1h-12z M1409,579h13v1h-13z M1367,580h12v1h-12z M1409,580h13v1h-13z M1367,581h12v1h-12z M1409,581h13v1h-13z M1367,582h12v1h-12z M1409,582h13v1h-13z M1367,583h12v1h-12z M1409,583h13v1h-13z M1367,584h12v1h-12z M1409,584h13v1h-13z M1367,585h12v1h-12z M1409,585h13v1h-13z M1367,586h12v1h-12z M1409,586h13v1h-13z M1367,587h12v1h-12z M1409,587h13v1h-13z M1367,588h12v1h-12z M1409,588h13v1h-13z M1367,589h12v1h-12z M1409,589h13v1h-13z M1367,590h12v1h-12z M1409,590h13v1h-13z M1367,591h12v1h-12z M1409,591h13v1h-13z M1367,592h12v1h-12z M1409,592h13v1h-13z M1367,593h12v1h-12z M1409,593h13v1h-13z M1367,594h12v1h-12z M1409,594h13v1h-13z M1367,595h12v1h-12z M1409,595h13v1h-13z M1367,596h12v1h-12z M1409,596h13v1h-13z M1367,597h12v1h-12z M1409,597h13v1h-13z M1367,598h12v1h-12z M1409,598h13v1h-13z M1367,599h12v1h-12z M1409,599h13v1h-13z M1367,600h12v1h-12z M1409,600h13v1h-13z M1367,601h12v1h-12z M1409,601h13v1h-13z M1367,602h12v1h-12z M1409,602h13v1h-13z M1367,603h12v1h-12z M1409,603h13v1h-13z M1367,604h12v1h-12z M1409,604h13v1h-13z M1367,605h12v1h-12z M1409,605h13v1h-13z M1367,606h12v1h-12z M1409,606h13v1h-13z M1367,607h12v1h-12z M1409,607h12v1h-12z"/>
<path d="M1508,532h13v1h-13z M1508,533h13v1h-13z M1508,534h13v1h-13z M1508,535h13v1h-13z M1508,536h13v1h-13z M1508,537h13v1h-13z M1508,538h13v1h-13z M1508,539h13v1h-13z M1508,540h13v1h-13z M1508,541h13v1h-13z M1508,542h13v1h-13z M1508,543h13v1h-13z M1508,544h13v1h-13z M1508,545h13v1h-13z M1508,546h13v1h-13z M1508,547h13v1h-13z M1508,548h13v1h-13z M1508,549h13v1h-13z M1508,550h13v1h-13z M1508,551h13v1h-13z M1508,552h13v1h-13z M1508,553h13v1h-13z M1508,554h13v1h-13z M1508,555h13v1h-13z M1508,556h13v1h-13z M1508,557h13v1h-13z M1508,558h13v1h-13z M1508,559h13v1h-13z M1508,560h13v1h-13z M1508,561h13v1h-13z M1508,562h13v1h-13z M1508,563h13v1h-13z M1508,564h13v1h-13z M1508,565h13v1h-13z M1508,566h13v1h-13z M1508,567h13v1h-13z M1508,568h13v1h-13z M1508,569h13v1h-13z M1508,570h13v1h-13z M1508,571h13v1h-13z M1508,572h13v1h-13z M1508,573h13v1h-13z M1508,574h13v1h-13z M1508,575h13v1h-13z M1508,576h13v1h-13z M1508,577h13v1h-13z M1508,578h13v1h-13z M1508,579h13v1h-13z M1508,580h13v1h-13z M1508,581h13v1h-13z M1508,582h13v1h-13z M1508,583h13v1h-13z M1508,584h13v1h-13z M1508,585h13v1h-13z M1508,586h13v1h-13z M1508,587h13v1h-13z M1508,588h13v1h-13z M1508,589h13v1h-13z M1508,590h13v1h-13z M1508,591h13v1h-13z M1508,592h13v1h-13z M1508,593h13v1h-13z M1508,594h13v1h-13z M1508,595h14v1h-14z M1509,596h21v1h-21z M1509,597h21v1h-21z M1509,598h21v1h-21z M1509,599h21v1h-21z M1510,600h20v1h-20z M1511,601h19v1h-19z M1511,602h19v1h-19z M1512,603h18v1h-18z M1513,604h17v1h-17z M1515,605h15v1h-15z M1517,606h13v1h-13z M1522,607h8v1h-8z"/>
<path d="M1757,532h13v1h-13z M1757,533h13v1h-13z M1757,534h13v1h-13z M1757,535h13v1h-13z M1757,536h13v1h-13z M1757,537h13v1h-13z M1757,538h13v1h-13z M1757,539h13v1h-13z M1757,540h13v1h-13z M1757,541h13v1h-13z M1757,542h13v1h-13z M1757,543h13v1h-13z M1757,544h13v1h-13z M1757,545h13v1h-13z M1757,546h13v1h-13z M1757,547h13v1h-13z M1757,548h13v1h-13z M1757,549h13v1h-13z M1757,550h13v1h-13z M1757,551h13v1h-13z M1748,552h41v1h-41z M1748,553h42v1h-42z M1748,554h42v1h-42z M1748,555h42v1h-42z M1748,556h42v1h-42z M1748,557h42v1h-42z M1748,558h42v1h-42z M1748,559h42v1h-42z M1748,560h42v1h-42z M1748,561h42v1h-42z M1748,562h42v1h-42z M1748,563h42v1h-42z M1748,564h41v1h-41z M1757,565h13v1h-13z M1757,566h13v1h-13z M1757,567h13v1h-13z M1757,568h13v1h-13z M1757,569h13v1h-13z M1757,570h13v1h-13z M1757,571h13v1h-13z M1757,572h13v1h-13z M1757,573h13v1h-13z M1757,574h13v1h-13z M1757,575h13v1h-13z M1757,576h13v1h-13z M1757,577h13v1h-13z M1757,578h13v1h-13z M1757,579h13v1h-13z M1757,580h13v1h-13z M1757,581h13v1h-13z M1757,582h13v1h-13z M1757,583h13v1h-13z M1757,584h13v1h-13z M1757,585h13v1h-13z M1757,586h13v1h-13z M1757,587h13v1h-13z M1757,588h13v1h-13z M1757,589h13v1h-13z M1757,590h13v1h-13z M1757,591h13v1h-13z M1757,592h13v1h-13z M1757,593h13v1h-13z M1757,594h13v1h-13z M1757,595h13v1h-13z M1757,596h13v1h-13z M1757,597h13v1h-13z M1757,598h13v1h-13z M1757,599h13v1h-13z M1757,600h13v1h-13z M1757,601h13v1h-13z M1757,602h13v1h-13z M1757,603h13v1h-13z M1757,604h13v1h-13z M1757,605h13v1h-13z M1757,606h13v1h-13z M1758,607h11v1h-11z"/>
<path d="M1866,532h12v1h-12z M1866,533h12v1h-12z M1866,534h12v1h-12z M1866,535h12v1h-12z M1866,536h12v1h-12z M1866,537h12v1h-12z M1866,538h12v1h-12z M1866,539h12v1h-12z M1866,540h12v1h-12z M1866,541h12v1h-12z M1866,542h12v1h-12z M1866,543h12v1h-12z M1866,544h12v1h-12z M1866,545h12v1h-12z"/>
<path d="M1124,552h23v1h-23z M1123,553h31v1h-31z M1123,554h35v1h-35z M1123,555h37v1h-37z M1123,556h39v1h-39z M1123,557h41v1h-41z M1123,558h42v1h-42z M1123,559h43v1h-43z M1123,560h44v1h-44z M1123,561h45v1h-45z M1123,562h46v1h-46z M1123,563h46v1h-46z M1149,564h21v1h-21z M1153,565h17v1h-17z M1156,566h15v1h-15z M1157,567h14v1h-14z M1158,568h13v1h-13z M1159,569h12v1h-12z M1159,570h12v1h-12z M1159,571h12v1h-12z M1159,572h12v1h-12z M1159,573h12v1h-12z M1135,574h36v1h-36z M1130,575h41v1h-41z M1127,576h44v1h-44z M1125,577h46v1h-46z M1123,578h48v1h-48z M1122,579h49v1h-49z M1121,580h50v1h-50z M1120,581h51v1h-51z M1119,582h52v1h-52z M1119,583h52v1h-52z M1118,584h53v1h-53z M1118,585h53v1h-53z M1117,586h20v1h-20z M1159,586h12v1h-12z M1117,587h14v1h-14z M1159,587h12v1h-12z M1117,588h13v1h-13z M1159,588h12v1h-12z M1117,589h12v1h-12z M1159,589h12v1h-12z M1117,590h12v1h-12z M1159,590h12v1h-12z M1117,591h12v1h-12z M1159,591h12v1h-12z M1117,592h13v1h-13z M1159,592h12v1h-12z M1117,593h14v1h-14z M1159,593h12v1h-12z M1117,594h16v1h-16z M1159,594h12v1h-12z M1117,595h54v1h-54z M1118,596h53v1h-53z M1118,597h53v1h-53z M1119,598h52v1h-52z M1119,599h52v1h-52z M1120,600h51v1h-51z M1121,601h50v1h-50z M1122,602h49v1h-49z M1124,603h47v1h-47z M1125,604h46v1h-46z M1128,605h43v1h-43z M1131,606h40v1h-40z M1137,607h34v1h-34z"/>
<path d="M1639,552h5v1h-5z M1632,553h19v1h-19z M1629,554h25v1h-25z M1627,555h29v1h-29z M1625,556h33v1h-33z M1623,557h37v1h-37z M1622,558h39v1h-39z M1621,559h41v1h-41z M1620,560h44v1h-44z M1619,561h45v1h-45z M1618,562h47v1h-47z M1617,563h49v1h-49z M1616,564h21v1h-21z M1646,564h21v1h-21z M1616,565h17v1h-17z M1650,565h17v1h-17z M1615,566h16v1h-16z M1652,566h16v1h-16z M1615,567h15v1h-15z M1653,567h15v1h-15z M1615,568h14v1h-14z M1654,568h14v1h-14z M1615,569h13v1h-13z M1655,569h14v1h-14z M1614,570h13v1h-13z M1656,570h13v1h-13z M1614,571h13v1h-13z M1656,571h13v1h-13z M1614,572h13v1h-13z M1656,572h13v1h-13z M1614,573h13v1h-13z M1656,573h13v1h-13z M1614,574h55v1h-55z M1614,575h55v1h-55z M1614,576h55v1h-55z M1614,577h55v1h-55z M1614,578h55v1h-55z M1614,579h55v1h-55z M1614,580h55v1h-55z M1614,581h55v1h-55z M1614,582h55v1h-55z M1614,583h55v1h-55z M1614,584h55v1h-55z M1614,585h55v1h-55z M1614,586h12v1h-12z M1614,587h12v1h-12z M1614,588h13v1h-13z M1614,589h13v1h-13z M1614,590h13v1h-13z M1614,591h13v1h-13z M1615,592h12v1h-12z M1615,593h13v1h-13z M1615,594h14v1h-14z M1615,595h18v1h-18z M1616,596h52v1h-52z M1616,597h52v1h-52z M1617,598h51v1h-51z M1617,599h51v1h-51z M1618,600h50v1h-50z M1619,601h49v1h-49z M1620,602h48v1h-48z M1621,603h47v1h-47z M1623,604h45v1h-45z M1625,605h43v1h-43z M1628,606h40v1h-40z M1636,607h31v1h-31z"/>
<path d="M1866,552h12v1h-12z M1866,553h12v1h-12z M1866,554h12v1h-12z M1866,555h12v1h-12z M1866,556h12v1h-12z M1866,557h12v1h-12z M1866,558h12v1h-12z M1866,559h12v1h-12z M1866,560h12v1h-12z M1866,561h12v1h-12z M1866,562h12v1h-12z M1866,563h12v1h-12z M1866,564h12v1h-12z M1866,565h12v1h-12z M1866,566h12v1h-12z M1866,567h12v1h-12z M1866,568h12v1h-12z M1866,569h12v1h-12z M1866,570h12v1h-12z M1866,571h12v1h-12z M1866,572h12v1h-12z M1866,573h12v1h-12z M1866,574h12v1h-12z M1866,575h12v1h-12z M1866,576h12v1h-12z M1866,577h12v1h-12z M1866,578h12v1h-12z M1866,579h12v1h-12z M1866,580h12v1h-12z M1866,581h12v1h-12z M1866,582h12v1h-12z M1866,583h12v1h-12z M1866,584h12v1h-12z M1866,585h12v1h-12z M1866,586h12v1h-12z M1866,587h12v1h-12z M1866,588h12v1h-12z M1866,589h12v1h-12z M1866,590h12v1h-12z M1866,591h12v1h-12z M1866,592h12v1h-12z M1866,593h12v1h-12z M1866,594h12v1h-12z M1866,595h12v1h-12z M1866,596h12v1h-12z M1866,597h12v1h-12z M1866,598h12v1h-12z M1866,599h12v1h-12z M1866,600h12v1h-12z M1866,601h12v1h-12z M1866,602h12v1h-12z M1866,603h12v1h-12z M1866,604h12v1h-12z M1866,605h12v1h-12z M1866,606h12v1h-12z M1866,607h12v1h-12z"/>
<path d="M1977,552h20v1h-20z M1971,553h27v1h-27z M1968,554h30v1h-30z M1966,555h32v1h-32z M1964,556h34v1h-34z M1962,557h36v1h-36z M1961,558h37v1h-37z M1960,559h38v1h-38z M1959,560h39v1h-39z M1958,561h40v1h-40z M1957,562h41v1h-41z M1957,563h41v1h-41z M1956,564h19v1h-19z M1956,565h16v1h-16z M1956,566h14v1h-14z M1955,567h14v1h-14z M1955,568h13v1h-13z M1955,569h12v1h-12z M1955,570h12v1h-12z M1955,571h12v1h-12z M1955,572h12v1h-12z M1955,573h12v1h-12z M1955,574h12v1h-12z M1955,575h12v1h-12z M1955,576h12v1h-12z M1955,577h12v1h-12z M1955,578h12v1h-12z M1955,579h12v1h-12z M1955,580h12v1h-12z M1955,581h12v1h-12z M1955,582h12v1h-12z M1955,583h12v1h-12z M1955,584h12v1h-12z M1955,585h12v1h-12z M1955,586h12v1h-12z M1955,587h12v1h-12z M1955,588h12v1h-12z M1955,589h12v1h-12z M1955,590h12v1h-12z M1955,591h13v1h-13z M1955,592h14v1h-14z M1955,593h15v1h-15z M1956,594h16v1h-16z M1956,595h19v1h-19z M1957,596h41v1h-41z M1957,597h41v1h-41z M1958,598h40v1h-40z M1959,599h39v1h-39z M1960,600h38v1h-38z M1961,601h37v1h-37z M1962,602h36v1h-36z M1964,603h34v1h-34z M1966,604h32v1h-32z M1968,605h30v1h-30z M1971,606h27v1h-27z M1977,607h21v1h-21z"/>
  </g>
</svg>