<?xml version="1.0" encoding="UTF-8"?>
<svg xmlns="http://www.w3.org/2000/svg" viewBox="0 0 400 160" width="400" height="160">
  <g transform="translate(81.05,12.00) scale(0.396501)" fill="white">
<path d="M172,0h5v1h-5z M407,0h8v1h-8z M166,1h12v1h-12z M407,1h15v1h-15z M161,2h18v1h-18z M407,2h20v1h-20z M156,3h23v1h-23z M407,3h25v1h-25z M151,4h28v1h-28z M407,4h29v1h-29z M147,5h32v1h-32z M407,5h33v1h-33z M143,6h37v1h-37z M407,6h37v1h-37z M139,7h41v1h-41z M407,7h41v1h-41z M135,8h45v1h-45z M407,8h44v1h-44z M132,9h48v1h-48z M407,9h48v1h-48z M128,10h52v1h-52z M407,10h51v1h-51z M124,11h56v1h-56z M407,11h54v1h-54z M121,12h59v1h-59z M407,12h57v1h-57z M118,13h62v1h-62z M407,13h60v1h-60z M114,14h66v1h-66z M407,14h63v1h-63z M111,15h69v1h-69z M407,15h66v1h-66z M108,16h72v1h-72z M407,16h69v1h-69z M105,17h75v1h-75z M407,17h72v1h-72z M102,18h78v1h-78z M407,18h74v1h-74z M99,19h81v1h-81z M407,19h77v1h-77z M96,20h84v1h-84z M407,20h79v1h-79z M93,21h87v1h-87z M407,21h82v1h-82z M90,22h90v1h-90z M407,22h84v1h-84z M87,23h93v1h-93z M407,23h87v1h-87z M84,24h96v1h-96z M407,24h89v1h-89z M82,25h98v1h-98z M407,25h91v1h-91z M79,26h102v1h-102z M407,26h93v1h-93z M76,27h105v1h-105z M407,27h95v1h-95z M73,28h108v1h-108z M407,28h97v1h-97z M71,29h110v1h-110z M407,29h99v1h-99z M68,30h113v1h-113z M407,30h101v1h-101z M66,31h115v1h-115z M407,31h103v1h-103z M63,32h118v1h-118z M407,32h104v1h-104z M61,33h120v1h-120z M407,33h106v1h-106z M58,34h123v1h-123z M407,34h107v1h-107z M56,35h125v1h-125z M407,35h109v1h-109z M55,36h126v1h-126z M407,36h110v1h-110z M54,37h127v1h-127z M407,37h111v1h-111z M54,38h127v1h-127z M407,38h112v1h-112z M53,39h128v1h-128z M407,39h112v1h-112z M53,40h128v1h-128z M407,40h113v1h-113z M54,41h127v1h-127z M407,41h113v1h-113z M54,42h127v1h-127z M407,42h113v1h-113z M54,43h127v1h-127z M407,43h114v1h-114z M54,44h127v1h-127z M407,44h114v1h-114z M55,45h126v1h-126z M407,45h114v1h-114z M55,46h126v1h-126z M407,46h114v1h-114z M56,47h125v1h-125z M407,47h114v1h-114z M56,48h125v1h-125z M407,48h115v1h-115z M57,49h124v1h-124z M407,49h115v1h-115z M57,50h124v1h-124z M407,50h115v1h-115z M57,51h124v1h-124z M407,51h115v1h-115z M58,52h123v1h-123z M407,52h115v1h-115z M58,53h123v1h-123z M407,53h115v1h-115z M59,54h122v1h-122z M407,54h115v1h-115z M59,55h122v1h-122z M407,55h115v1h-115z M60,56h122v1h-122z M407,56h115v1h-115z M60,57h122v1h-122z M407,57h114v1h-114z M61,58h121v1h-121z M407,58h114v1h-114z M61,59h121v1h-121z M407,59h114v1h-114z M62,60h120v1h-120z M407,60h114v1h-114z M62,61h120v1h-120z M407,61h114v1h-114z M63,62h119v1h-119z M407,62h114v1h-114z M63,63h119v1h-119z M407,63h113v1h-113z M64,64h118v1h-118z M407,64h113v1h-113z M64,65h118v1h-118z M407,65h113v1h-113z M65,66h117v1h-117z M407,66h113v1h-113z M65,67h117v1h-117z M407,67h112v1h-112z M66,68h116v1h-116z M407,68h112v1h-112z M67,69h115v1h-115z M407,69h112v1h-112z M67,70h115v1h-115z M407,70h111v1h-111z M68,71h114v1h-114z M407,71h111v1h-111z M68,72h114v1h-114z M407,72h110v1h-110z M69,73h113v1h-113z M407,73h110v1h-110z M70,74h112v1h-112z M407,74h110v1h-110z M70,75h112v1h-112z M407,75h109v1h-109z M71,76h111v1h-111z M407,76h109v1h-109z M72,77h110v1h-110z M407,77h108v1h-108z M72,78h110v1h-110z M407,78h107v1h-107z M73,79h109v1h-109z M407,79h107v1h-107z M74,80h108v1h-108z M407,80h106v1h-106z M74,81h108v1h-108z M407,81h105v1h-105z M75,82h107v1h-107z M407,82h105v1h-105z M76,83h106v1h-106z M407,83h104v1h-104z M77,84h105v1h-105z M407,84h103v1h-103z M77,85h105v1h-105z M407,85h102v1h-102z M78,86h104v1h-104z M407,86h101v1h-101z M79,87h103v1h-103z M407,87h100v1h-100z M80,88h102v1h-102z M407,88h100v1h-100z M81,89h101v1h-101z M407,89h99v1h-99z M81,90h101v1h-101z M407,90h98v1h-98z M82,91h100v1h-100z M407,91h97v1h-97z M83,92h99v1h-99z M407,92h96v1h-96z M84,93h99v1h-99z M407,93h95v1h-95z M85,94h98v1h-98z M407,94h94v1h-94z M86,95h97v1h-97z M407,95h93v1h-93z M87,96h96v1h-96z M407,96h92v1h-92z M87,97h96v1h-96z M407,97h91v1h-91z M88,98h95v1h-95z M407,98h90v1h-90z M89,99h94v1h-94z M407,99h89v1h-89z M90,100h93v1h-93z M406,100h89v1h-89z M91,101h93v1h-93z M405,101h89v1h-89z M92,102h93v1h-93z M405,102h88v1h-88z M93,103h93v1h-93z M404,103h88v1h-88z M95,104h91v1h-91z M403,104h88v1h-88z M96,105h91v1h-91z M289,105h11v1h-11z M402,105h88v1h-88z M97,106h91v1h-91z M266,106h58v1h-58z M401,106h88v1h-88z M98,107h90v1h-90z M254,107h81v1h-81z M401,107h86v1h-86z M99,108h90v1h-90z M245,108h99v1h-99z M400,108h86v1h-86z M100,109h90v1h-90z M238,109h114v1h-114z M399,109h86v1h-86z M102,110h89v1h-89z M231,110h128v1h-128z M398,110h86v1h-86z M103,111h89v1h-89z M225,111h140v1h-140z M397,111h86v1h-86z M104,112h89v1h-89z M219,112h152v1h-152z M396,112h86v1h-86z M105,113h89v1h-89z M214,113h162v1h-162z M395,113h85v1h-85z M107,114h89v1h-89z M207,114h175v1h-175z M395,114h84v1h-84z M108,115h280v1h-280z M394,115h84v1h-84z M109,116h368v1h-368z M111,117h364v1h-364z M112,118h159v1h-159z M314,118h160v1h-160z M114,119h148v1h-148z M321,119h152v1h-152z M115,120h141v1h-141z M326,120h145v1h-145z M116,121h136v1h-136z M330,121h140v1h-140z M118,122h131v1h-131z M334,122h135v1h-135z M119,123h127v1h-127z M337,123h130v1h-130z M121,124h122v1h-122z M341,124h125v1h-125z M123,125h117v1h-117z M344,125h120v1h-120z M124,126h114v1h-114z M347,126h115v1h-115z M126,127h109v1h-109z M349,127h112v1h-112z M128,128h105v1h-105z M352,128h107v1h-107z M130,129h101v1h-101z M355,129h103v1h-103z M132,130h96v1h-96z M357,130h99v1h-99z M134,131h92v1h-92z M359,131h96v1h-96z M136,132h88v1h-88z M361,132h92v1h-92z M138,133h85v1h-85z M363,133h89v1h-89z M139,134h82v1h-82z M365,134h85v1h-85z M139,135h82v1h-82z M364,135h86v1h-86z M138,136h84v1h-84z M363,136h89v1h-89z M136,137h88v1h-88z M361,137h92v1h-92z M134,138h92v1h-92z M359,138h96v1h-96z M131,139h97v1h-97z M357,139h99v1h-99z M129,140h101v1h-101z M355,140h102v1h-102z M128,141h105v1h-105z M352,141h107v1h-107z M126,142h109v1h-109z M350,142h111v1h-111z M124,143h114v1h-114z M347,143h115v1h-115z M123,144h118v1h-118z M345,144h119v1h-119z M121,145h123v1h-123z M342,145h123v1h-123z M119,146h128v1h-128z M339,146h128v1h-128z M118,147h132v1h-132z M336,147h132v1h-132z M116,148h137v1h-137z M332,148h138v1h-138z M115,149h142v1h-142z M326,149h145v1h-145z M113,150h148v1h-148z M317,150h156v1h-156z M112,151h153v1h-153z M303,151h171v1h-171z M111,152h364v1h-364z M109,153h367v1h-367z M108,154h87v1h-87z M199,154h188v1h-188z M392,154h86v1h-86z M106,155h88v1h-88z M207,155h174v1h-174z M393,155h86v1h-86z M105,156h88v1h-88z M213,156h163v1h-163z M394,156h86v1h-86z M104,157h88v1h-88z M219,157h151v1h-151z M395,157h86v1h-86z M102,158h89v1h-89z M225,158h140v1h-140z M396,158h87v1h-87z M101,159h90v1h-90z M231,159h127v1h-127z M397,159h87v1h-87z M100,160h90v1h-90z M238,160h114v1h-114z M398,160h87v1h-87z M99,161h90v1h-90z M245,161h99v1h-99z M399,161h87v1h-87z M98,162h90v1h-90z M254,162h81v1h-81z M400,162h87v1h-87z M96,163h92v1h-92z M266,163h58v1h-58z M401,163h87v1h-87z M95,164h92v1h-92z M288,164h14v1h-14z M402,164h88v1h-88z M94,165h92v1h-92z M403,165h88v1h-88z M93,166h93v1h-93z M404,166h88v1h-88z M92,167h93v1h-93z M405,167h88v1h-88z M91,168h93v1h-93z M406,168h88v1h-88z M90,169h94v1h-94z M407,169h88v1h-88z M89,170h94v1h-94z M407,170h89v1h-89z M88,171h95v1h-95z M407,171h90v1h-90z M87,172h96v1h-96z M407,172h91v1h-91z M87,173h96v1h-96z M407,173h92v1h-92z M86,174h97v1h-97z M407,174h93v1h-93z M85,175h98v1h-98z M407,175h94v1h-94z M84,176h99v1h-99z M407,176h95v1h-95z M83,177h99v1h-99z M407,177h96v1h-96z M82,178h100v1h-100z M407,178h97v1h-97z M82,179h100v1h-100z M407,179h98v1h-98z M81,180h101v1h-101z M407,180h99v1h-99z M80,181h102v1h-102z M407,181h100v1h-100z M79,182h103v1h-103z M407,182h100v1h-100z M78,183h104v1h-104z M407,183h101v1h-101z M78,184h104v1h-104z M407,184h102v1h-102z M77,185h105v1h-105z M407,185h103v1h-103z M76,186h106v1h-106z M407,186h104v1h-104z M76,187h106v1h-106z M407,187h105v1h-105z M75,188h107v1h-107z M407,188h105v1h-105z M74,189h108v1h-108z M407,189h106v1h-106z M73,190h109v1h-109z M407,190h107v1h-107z M73,191h109v1h-109z M407,191h107v1h-107z M72,192h110v1h-110z M407,192h108v1h-108z M71,193h111v1h-111z M407,193h109v1h-109z M71,194h111v1h-111z M407,194h109v1h-109z M70,195h112v1h-112z M407,195h110v1h-110z M69,196h113v1h-113z M407,196h110v1h-110z M69,197h113v1h-113z M407,197h110v1h-110z M68,198h114v1h-114z M407,198h111v1h-111z M67,199h115v1h-115z M407,199h111v1h-111z M67,200h115v1h-115z M407,200h112v1h-112z M66,201h116v1h-116z M407,201h112v1h-112z M66,202h116v1h-116z M407,202h112v1h-112z M65,203h117v1h-117z M407,203h112v1h-112z M64,204h118v1h-118z M407,204h113v1h-113z M64,205h118v1h-118z M407,205h113v1h-113z M63,206h119v1h-119z M407,206h113v1h-113z M63,207h119v1h-119z M407,207h113v1h-113z M62,208h120v1h-120z M407,208h114v1h-114z M62,209h120v1h-120z M407,209h114v1h-114z M61,210h121v1h-121z M407,210h114v1h-114z M61,211h121v1h-121z M407,211h114v1h-114z M60,212h122v1h-122z M407,212h114v1h-114z M60,213h122v1h-122z M407,213h114v1h-114z M59,214h122v1h-122z M407,214h114v1h-114z M59,215h122v1h-122z M407,215h115v1h-115z M58,216h123v1h-123z M407,216h115v1h-115z M58,217h123v1h-123z M407,217h115v1h-115z M57,218h124v1h-124z M407,218h115v1h-115z M57,219h124v1h-124z M407,219h115v1h-115z M57,220h124v1h-124z M407,220h115v1h-115z M56,221h125v1h-125z M407,221h115v1h-115z M56,222h125v1h-125z M407,222h114v1h-114z M55,223h126v1h-126z M407,223h114v1h-114z M55,224h126v1h-126z M407,224h114v1h-114z M54,225h127v1h-127z M407,225h114v1h-114z M54,226h127v1h-127z M407,226h114v1h-114z M54,227h127v1h-127z M407,227h113v1h-113z M54,228h127v1h-127z M407,228h113v1h-113z M54,229h127v1h-127z M407,229h113v1h-113z M54,230h127v1h-127z M407,230h112v1h-112z M54,231h127v1h-127z M407,231h112v1h-112z M54,232h127v1h-127z M407,232h111v1h-111z M55,233h126v1h-126z M407,233h110v1h-110z M56,234h125v1h-125z M407,234h109v1h-109z M58,235h123v1h-123z M407,235h107v1h-107z M60,236h121v1h-121z M407,236h106v1h-106z M63,237h118v1h-118z M407,237h104v1h-104z M65,238h116v1h-116z M407,238h103v1h-103z M68,239h113v1h-113z M407,239h101v1h-101z M71,240h110v1h-110z M407,240h99v1h-99z M73,241h108v1h-108z M407,241h98v1h-98z M76,242h105v1h-105z M407,242h96v1h-96z M78,243h103v1h-103z M407,243h94v1h-94z M81,244h99v1h-99z M407,244h91v1h-91z M84,245h96v1h-96z M407,245h89v1h-89z M87,246h93v1h-93z M407,246h87v1h-87z M90,247h90v1h-90z M407,247h85v1h-85z M92,248h88v1h-88z M407,248h82v1h-82z M95,249h85v1h-85z M407,249h80v1h-80z M98,250h82v1h-82z M407,250h77v1h-77z M101,251h79v1h-79z M407,251h75v1h-75z M104,252h76v1h-76z M407,252h72v1h-72z M108,253h72v1h-72z M407,253h69v1h-69z M111,254h69v1h-69z M407,254h67v1h-67z M114,255h66v1h-66z M407,255h64v1h-64z M117,256h63v1h-63z M407,256h61v1h-61z M120,257h60v1h-60z M407,257h58v1h-58z M124,258h56v1h-56z M407,258h55v1h-55z M127,259h53v1h-53z M407,259h51v1h-51z M131,260h49v1h-49z M407,260h48v1h-48z M134,261h46v1h-46z M407,261h45v1h-45z M138,262h42v1h-42z M407,262h41v1h-41z M142,263h38v1h-38z M407,263h37v1h-37z M146,264h34v1h-34z M407,264h34v1h-34z M150,265h30v1h-30z M407,265h29v1h-29z M155,266h24v1h-24z M407,266h25v1h-25z M159,267h20v1h-20z M407,267h20v1h-20z M164,268h14v1h-14z M407,268h15v1h-15z M170,269h7v1h-7z M407,269h9v1h-9z"/>
<path d="M0,291h13v1h-13z M29,291h15v1h-15z M0,292h13v1h-13z M29,292h15v1h-15z M0,293h13v1h-13z M29,293h15v1h-15z M0,294h13v1h-13z M29,294h15v1h-15z M0,295h13v1h-13z M29,295h15v1h-15z M0,296h13v1h-13z M29,296h15v1h-15z M0,297h13v1h-13z M29,297h15v1h-15z M0,298h13v1h-13z M29,298h15v1h-15z M0,299h13v1h-13z M29,299h15v1h-15z M0,300h13v1h-13z M29,300h15v1h-15z M0,301h13v1h-13z M29,301h15v1h-15z M0,302h13v1h-13z M29,302h15v1h-15z M0,303h13v1h-13z M29,303h15v1h-15z M0,304h13v1h-13z M29,304h15v1h-15z M0,305h13v1h-13z M29,305h15v1h-15z M0,306h13v1h-13z M29,306h15v1h-15z M0,307h13v1h-13z M29,307h15v1h-15z M0,308h13v1h-13z M29,308h15v1h-15z M0,309h13v1h-13z M29,309h15v1h-15z M0,310h13v1h-13z M29,310h15v1h-15z M0,311h13v1h-13z M29,311h15v1h-15z M0,312h13v1h-13z M29,312h15v1h-15z M0,313h13v1h-13z M29,313h15v1h-15z M0,314h13v1h-13z M29,314h15v1h-15z M0,315h13v1h-13z M29,315h15v1h-15z M0,316h13v1h-13z M28,316h16v1h-16z M0,317h13v1h-13z M28,317h16v1h-16z M0,318h14v1h-14z M28,318h16v1h-16z M0,319h14v1h-14z M28,319h16v1h-16z M0,320h14v1h-14z M28,320h16v1h-16z M0,321h14v1h-14z M28,321h16v1h-16z M0,322h14v1h-14z M28,322h16v1h-16z M0,323h14v1h-14z M28,323h16v1h-16z M0,324h14v1h-14z M28,324h16v1h-16z M0,325h15v1h-15z M28,325h16v1h-16z M0,326h15v1h-15z M27,326h16v1h-16z M0,327h15v1h-15z M27,327h16v1h-16z M0,328h16v1h-16z M27,328h16v1h-16z M0,329h17v1h-17z M26,329h17v1h-17z M1,330h17v1h-17z M24,330h19v1h-19z M1,331h41v1h-41z M1,332h41v1h-41z M1,333h41v1h-41z M2,334h39v1h-39z M2,335h38v1h-38z M3,336h37v1h-37z M4,337h35v1h-35z M5,338h32v1h-32z M6,339h30v1h-30z M8,340h26v1h-26z M10,341h21v1h-21z M14,342h12v1h-12z"/>
<path d="M52,291h15v1h-15z M85,291h13v1h-13z M52,292h17v1h-17z M85,292h14v1h-14z M52,293h18v1h-18z M85,293h14v1h-14z M52,294h19v1h-19z M85,294h14v1h-14z M52,295h20v1h-20z M85,295h14v1h-14z M52,296h21v1h-21z M85,296h14v1h-14z M52,297h21v1h-21z M85,297h14v1h-14z M52,298h22v1h-22z M85,298h14v1h-14z M52,299h23v1h-23z M85,299h14v1h-14z M52,300h23v1h-23z M85,300h14v1h-14z M52,301h24v1h-24z M85,301h14v1h-14z M52,302h24v1h-24z M85,302h14v1h-14z M52,303h25v1h-25z M85,303h14v1h-14z M52,304h26v1h-26z M85,304h14v1h-14z M52,305h26v1h-26z M85,305h14v1h-14z M52,306h27v1h-27z M84,306h15v1h-15z M52,307h28v1h-28z M84,307h15v1h-15z M52,308h28v1h-28z M84,308h15v1h-15z M52,309h29v1h-29z M84,309h15v1h-15z M52,310h30v1h-30z M84,310h15v1h-15z M52,311h30v1h-30z M84,311h15v1h-15z M52,312h31v1h-31z M84,312h15v1h-15z M52,313h31v1h-31z M84,313h15v1h-15z M52,314h47v1h-47z M52,315h15v1h-15z M68,315h31v1h-31z M52,316h15v1h-15z M68,316h31v1h-31z M52,317h15v1h-15z M69,317h30v1h-30z M52,318h15v1h-15z M69,318h30v1h-30z M52,319h15v1h-15z M70,319h29v1h-29z M52,320h15v1h-15z M71,320h28v1h-28z M52,321h15v1h-15z M71,321h28v1h-28z M52,322h15v1h-15z M72,322h27v1h-27z M52,323h14v1h-14z M73,323h26v1h-26z M52,324h14v1h-14z M73,324h26v1h-26z M52,325h14v1h-14z M74,325h25v1h-25z M52,326h14v1h-14z M74,326h25v1h-25z M52,327h14v1h-14z M75,327h24v1h-24z M52,328h14v1h-14z M76,328h23v1h-23z M52,329h14v1h-14z M76,329h23v1h-23z M52,330h14v1h-14z M77,330h22v1h-22z M52,331h14v1h-14z M77,331h22v1h-22z M52,332h14v1h-14z M78,332h21v1h-21z M52,333h14v1h-14z M79,333h20v1h-20z M52,334h14v1h-14z M79,334h20v1h-20z M52,335h14v1h-14z M80,335h19v1h-19z M52,336h14v1h-14z M81,336h18v1h-18z M52,337h14v1h-14z M81,337h18v1h-18z M52,338h14v1h-14z M82,338h17v1h-17z M52,339h14v1h-14z M83,339h16v1h-16z M52,340h14v1h-14z M84,340h15v1h-15z M52,341h14v1h-14z M85,341h14v1h-14z M53,342h12v1h-12z M87,342h11v1h-11z"/>
<path d="M109,291h18v1h-18z M109,292h25v1h-25z M109,293h29v1h-29z M109,294h32v1h-32z M109,295h34v1h-34z M109,296h36v1h-36z M109,297h38v1h-38z M109,298h39v1h-39z M109,299h40v1h-40z M109,300h41v1h-41z M109,301h42v1h-42z M109,302h42v1h-42z M109,303h13v1h-13z M127,303h25v1h-25z M109,304h13v1h-13z M130,304h23v1h-23z M109,305h13v1h-13z M133,305h20v1h-20z M109,306h13v1h-13z M135,306h18v1h-18z M109,307h13v1h-13z M136,307h18v1h-18z M109,308h13v1h-13z M137,308h17v1h-17z M109,309h13v1h-13z M138,309h16v1h-16z M109,310h13v1h-13z M138,310h17v1h-17z M109,311h13v1h-13z M139,311h16v1h-16z M109,312h13v1h-13z M139,312h16v1h-16z M109,313h13v1h-13z M139,313h16v1h-16z M109,314h13v1h-13z M139,314h16v1h-16z M109,315h13v1h-13z M139,315h16v1h-16z M109,316h13v1h-13z M139,316h16v1h-16z M109,317h13v1h-13z M139,317h16v1h-16z M109,318h13v1h-13z M139,318h16v1h-16z M109,319h13v1h-13z M139,319h16v1h-16z M109,320h13v1h-13z M139,320h16v1h-16z M109,321h13v1h-13z M139,321h16v1h-16z M109,322h13v1h-13z M139,322h16v1h-16z M109,323h13v1h-13z M138,323h16v1h-16z M109,324h13v1h-13z M138,324h16v1h-16z M109,325h13v1h-13z M137,325h17v1h-17z M109,326h13v1h-13z M136,326h18v1h-18z M109,327h13v1h-13z M135,327h18v1h-18z M109,328h13v1h-13z M133,328h20v1h-20z M109,329h13v1h-13z M130,329h22v1h-22z M109,330h13v1h-13z M127,330h25v1h-25z M109,331h42v1h-42z M109,332h42v1h-42z M109,333h41v1h-41z M109,334h40v1h-40z M109,335h39v1h-39z M109,336h37v1h-37z M109,337h36v1h-36z M109,338h34v1h-34z M109,339h31v1h-31z M109,340h28v1h-28z M109,341h23v1h-23z M109,342h14v1h-14z"/>
<path d="M162,291h36v1h-36z M161,292h38v1h-38z M161,293h38v1h-38z M161,294h38v1h-38z M161,295h38v1h-38z M161,296h38v1h-38z M161,297h38v1h-38z M161,298h38v1h-38z M161,299h38v1h-38z M161,300h38v1h-38z M161,301h38v1h-38z M161,302h37v1h-37z M161,303h17v1h-17z M161,304h16v1h-16z M161,305h16v1h-16z M161,306h16v1h-16z M161,307h16v1h-16z M161,308h17v1h-17z M161,309h33v1h-33z M161,310h35v1h-35z M161,311h36v1h-36z M161,312h36v1h-36z M161,313h36v1h-36z M161,314h36v1h-36z M161,315h36v1h-36z M161,316h36v1h-36z M161,317h36v1h-36z M161,318h36v1h-36z M161,319h35v1h-35z M161,320h34v1h-34z M161,321h18v1h-18z M161,322h16v1h-16z M161,323h16v1h-16z M161,324h16v1h-16z M161,325h16v1h-16z M161,326h16v1h-16z M161,327h16v1h-16z M161,328h17v1h-17z M161,329h37v1h-37z M161,330h38v1h-38z M161,331h38v1h-38z M161,332h38v1h-38z M161,333h38v1h-38z M161,334h38v1h-38z M161,335h38v1h-38z M161,336h38v1h-38z M161,337h38v1h-38z M161,338h38v1h-38z M161,339h38v1h-38z M161,340h38v1h-38z M161,341h38v1h-38z M162,342h36v1h-36z"/>
<path d="M207,291h19v1h-19z M207,292h30v1h-30z M207,293h33v1h-33z M207,294h35v1h-35z M207,295h36v1h-36z M207,296h37v1h-37z M207,297h38v1h-38z M207,298h39v1h-39z M207,299h40v1h-40z M207,300h40v1h-40z M207,301h41v1h-41z M207,302h41v1h-41z M207,303h17v1h-17z M228,303h21v1h-21z M207,304h16v1h-16z M230,304h19v1h-19z M207,305h16v1h-16z M232,305h17v1h-17z M207,306h15v1h-15z M233,306h16v1h-16z M207,307h15v1h-15z M234,307h15v1h-15z M207,308h15v1h-15z M234,308h15v1h-15z M207,309h15v1h-15z M233,309h16v1h-16z M207,310h15v1h-15z M232,310h17v1h-17z M207,311h16v1h-16z M231,311h17v1h-17z M207,312h17v1h-17z M228,312h20v1h-20z M207,313h40v1h-40z M207,314h40v1h-40z M207,315h39v1h-39z M207,316h38v1h-38z M207,317h37v1h-37z M207,318h37v1h-37z M207,319h36v1h-36z M207,320h35v1h-35z M207,321h35v1h-35z M207,322h35v1h-35z M207,323h36v1h-36z M207,324h37v1h-37z M207,325h16v1h-16z M224,325h20v1h-20z M207,326h16v1h-16z M225,326h20v1h-20z M207,327h16v1h-16z M226,327h20v1h-20z M207,328h16v1h-16z M227,328h20v1h-20z M207,329h15v1h-15z M228,329h19v1h-19z M207,330h15v1h-15z M229,330h19v1h-19z M207,331h15v1h-15z M230,331h19v1h-19z M207,332h15v1h-15z M231,332h19v1h-19z M207,333h15v1h-15z M231,333h19v1h-19z M207,334h15v1h-15z M232,334h19v1h-19z M207,335h15v1h-15z M233,335h19v1h-19z M207,336h15v1h-15z M234,336h19v1h-19z M207,337h15v1h-15z M234,337h19v1h-19z M207,338h15v1h-15z M235,338h19v1h-19z M207,339h15v1h-15z M236,339h18v1h-18z M207,340h15v1h-15z M237,340h18v1h-18z M207,341h15v1h-15z M238,341h17v1h-17z M207,342h15v1h-15z M241,342h11v1h-11z"/>
<path d="M293,291h16v1h-16z M292,292h18v1h-18z M292,293h18v1h-18z M292,294h18v1h-18z M291,295h20v1h-20z M291,296h20v1h-20z M291,297h20v1h-20z M290,298h22v1h-22z M290,299h22v1h-22z M289,300h24v1h-24z M289,301h24v1h-24z M289,302h24v1h-24z M288,303h26v1h-26z M288,304h26v1h-26z M288,305h26v1h-26z M287,306h28v1h-28z M287,307h28v1h-28z M286,308h29v1h-29z M286,309h30v1h-30z M286,310h30v1h-30z M285,311h15v1h-15z M301,311h16v1h-16z M285,312h15v1h-15z M301,312h16v1h-16z M285,313h15v1h-15z M302,313h15v1h-15z M284,314h15v1h-15z M302,314h16v1h-16z M284,315h15v1h-15z M302,315h16v1h-16z M283,316h16v1h-16z M303,316h15v1h-15z M283,317h15v1h-15z M303,317h16v1h-16z M283,318h15v1h-15z M303,318h16v1h-16z M282,319h16v1h-16z M302,319h18v1h-18z M282,320h38v1h-38z M282,321h38v1h-38z M281,322h40v1h-40z M281,323h40v1h-40z M280,324h41v1h-41z M280,325h42v1h-42z M280,326h42v1h-42z M279,327h43v1h-43z M279,328h44v1h-44z M279,329h44v1h-44z M278,330h46v1h-46z M278,331h46v1h-46z M277,332h18v1h-18z M307,332h17v1h-17z M277,333h16v1h-16z M308,333h17v1h-17z M277,334h16v1h-16z M309,334h16v1h-16z M276,335h16v1h-16z M310,335h15v1h-15z M276,336h16v1h-16z M310,336h16v1h-16z M276,337h15v1h-15z M310,337h16v1h-16z M275,338h16v1h-16z M311,338h16v1h-16z M275,339h16v1h-16z M311,339h16v1h-16z M275,340h15v1h-15z M312,340h15v1h-15z M275,341h14v1h-14z M313,341h14v1h-14z M276,342h11v1h-11z M314,342h12v1h-12z"/>
<path d="M331,291h22v1h-22z M330,292h30v1h-30z M330,293h34v1h-34z M330,294h36v1h-36z M330,295h38v1h-38z M330,296h40v1h-40z M330,297h41v1h-41z M330,298h41v1h-41z M330,299h42v1h-42z M330,300h42v1h-42z M330,301h43v1h-43z M330,302h43v1h-43z M330,303h17v1h-17z M353,303h20v1h-20z M330,304h16v1h-16z M355,304h18v1h-18z M330,305h16v1h-16z M356,305h17v1h-17z M330,306h16v1h-16z M357,306h16v1h-16z M330,307h16v1h-16z M357,307h16v1h-16z M330,308h16v1h-16z M357,308h16v1h-16z M330,309h16v1h-16z M356,309h17v1h-17z M330,310h16v1h-16z M356,310h17v1h-17z M330,311h16v1h-16z M354,311h18v1h-18z M330,312h17v1h-17z M352,312h20v1h-20z M330,313h42v1h-42z M330,314h41v1h-41z M330,315h41v1h-41z M330,316h40v1h-40z M330,317h39v1h-39z M330,318h38v1h-38z M330,319h37v1h-37z M330,320h37v1h-37z M330,321h36v1h-36z M330,322h36v1h-36z M330,323h37v1h-37z M330,324h38v1h-38z M330,325h17v1h-17z M349,325h20v1h-20z M330,326h17v1h-17z M350,326h19v1h-19z M330,327h16v1h-16z M351,327h19v1h-19z M330,328h16v1h-16z M352,328h19v1h-19z M330,329h16v1h-16z M353,329h19v1h-19z M330,330h16v1h-16z M354,330h18v1h-18z M330,331h16v1h-16z M354,331h19v1h-19z M330,332h16v1h-16z M355,332h19v1h-19z M330,333h16v1h-16z M356,333h19v1h-19z M330,334h16v1h-16z M356,334h19v1h-19z M330,335h16v1h-16z M357,335h19v1h-19z M330,336h16v1h-16z M358,336h19v1h-19z M330,337h16v1h-16z M358,337h19v1h-19z M330,338h16v1h-16z M359,338h19v1h-19z M330,339h16v1h-16z M360,339h18v1h-18z M330,340h16v1h-16z M361,340h18v1h-18z M330,341h16v1h-16z M362,341h16v1h-16z M331,342h15v1h-15z M364,342h11v1h-11z"/>
<path d="M382,291h17v1h-17z M421,291h14v1h-14z M381,292h18v1h-18z M419,292h16v1h-16z M381,293h19v1h-19z M418,293h17v1h-17z M381,294h19v1h-19z M417,294h18v1h-18z M381,295h20v1h-20z M417,295h18v1h-18z M381,296h20v1h-20z M416,296h19v1h-19z M381,297h21v1h-21z M416,297h19v1h-19z M381,298h21v1h-21z M415,298h20v1h-20z M381,299h21v1h-21z M415,299h20v1h-20z M381,300h22v1h-22z M414,300h21v1h-21z M381,301h22v1h-22z M414,301h21v1h-21z M381,302h23v1h-23z M413,302h22v1h-22z M381,303h23v1h-23z M413,303h22v1h-22z M381,304h24v1h-24z M412,304h23v1h-23z M381,305h24v1h-24z M412,305h23v1h-23z M381,306h25v1h-25z M411,306h24v1h-24z M381,307h25v1h-25z M411,307h24v1h-24z M381,308h25v1h-25z M410,308h25v1h-25z M381,309h26v1h-26z M410,309h25v1h-25z M381,310h26v1h-26z M409,310h26v1h-26z M381,311h27v1h-27z M409,311h26v1h-26z M381,312h54v1h-54z M381,313h54v1h-54z M381,314h54v1h-54z M381,315h54v1h-54z M381,316h54v1h-54z M381,317h54v1h-54z M381,318h54v1h-54z M381,319h16v1h-16z M398,319h37v1h-37z M381,320h16v1h-16z M398,320h20v1h-20z M419,320h16v1h-16z M381,321h16v1h-16z M398,321h20v1h-20z M419,321h16v1h-16z M381,322h16v1h-16z M399,322h19v1h-19z M419,322h16v1h-16z M381,323h16v1h-16z M399,323h18v1h-18z M419,323h16v1h-16z M381,324h16v1h-16z M400,324h17v1h-17z M419,324h16v1h-16z M381,325h16v1h-16z M400,325h16v1h-16z M419,325h16v1h-16z M381,326h16v1h-16z M401,326h15v1h-15z M419,326h16v1h-16z M381,327h16v1h-16z M401,327h14v1h-14z M419,327h16v1h-16z M381,328h16v1h-16z M402,328h12v1h-12z M419,328h16v1h-16z M381,329h16v1h-16z M404,329h9v1h-9z M419,329h16v1h-16z M381,330h16v1h-16z M419,330h16v1h-16z M381,331h16v1h-16z M419,331h16v1h-16z M381,332h16v1h-16z M419,332h16v1h-16z M381,333h16v1h-16z M419,333h16v1h-16z M381,334h16v1h-16z M419,334h16v1h-16z M381,335h16v1h-16z M419,335h16v1h-16z M381,336h16v1h-16z M419,336h16v1h-16z M381,337h16v1h-16z M419,337h16v1h-16z M381,338h16v1h-16z M419,338h16v1h-16z M381,339h16v1h-16z M419,339h16v1h-16z M381,340h16v1h-16z M419,340h16v1h-16z M381,341h16v1h-16z M419,341h16v1h-16z M382,342h15v1h-15z M420,342h15v1h-15z"/>
<path d="M467,291h4v1h-4z M457,292h20v1h-20z M454,293h26v1h-26z M452,294h30v1h-30z M451,295h32v1h-32z M450,296h34v1h-34z M449,297h36v1h-36z M448,298h38v1h-38z M447,299h40v1h-40z M446,300h42v1h-42z M445,301h44v1h-44z M444,302h45v1h-45z M444,303h20v1h-20z M470,303h20v1h-20z M443,304h19v1h-19z M472,304h18v1h-18z M443,305h18v1h-18z M473,305h18v1h-18z M443,306h17v1h-17z M474,306h17v1h-17z M443,307h16v1h-16z M475,307h17v1h-17z M442,308h17v1h-17z M475,308h17v1h-17z M442,309h17v1h-17z M476,309h16v1h-16z M442,310h16v1h-16z M476,310h16v1h-16z M442,311h16v1h-16z M476,311h17v1h-17z M442,312h16v1h-16z M477,312h16v1h-16z M442,313h16v1h-16z M477,313h16v1h-16z M442,314h16v1h-16z M477,314h16v1h-16z M442,315h16v1h-16z M477,315h16v1h-16z M442,316h16v1h-16z M477,316h16v1h-16z M442,317h16v1h-16z M477,317h16v1h-16z M442,318h16v1h-16z M477,318h16v1h-16z M442,319h16v1h-16z M477,319h16v1h-16z M442,320h16v1h-16z M477,320h16v1h-16z M442,321h16v1h-16z M477,321h16v1h-16z M442,322h16v1h-16z M476,322h17v1h-17z M442,323h16v1h-16z M476,323h16v1h-16z M442,324h16v1h-16z M476,324h16v1h-16z M443,325h16v1h-16z M475,325h17v1h-17z M443,326h16v1h-16z M475,326h16v1h-16z M443,327h17v1h-17z M474,327h17v1h-17z M443,328h18v1h-18z M473,328h18v1h-18z M443,329h19v1h-19z M472,329h18v1h-18z M444,330h21v1h-21z M470,330h20v1h-20z M444,331h45v1h-45z M445,332h44v1h-44z M446,333h42v1h-42z M447,334h40v1h-40z M448,335h39v1h-39z M449,336h37v1h-37z M450,337h35v1h-35z M451,338h33v1h-33z M452,339h30v1h-30z M454,340h25v1h-25z M456,341h19v1h-19z M461,342h7v1h-7z"/>
<path d="M500,291h13v1h-13z M529,291h15v1h-15z M499,292h14v1h-14z M529,292h15v1h-15z M499,293h14v1h-14z M529,293h15v1h-15z M499,294h14v1h-14z M529,294h15v1h-15z M499,295h14v1h-14z M529,295h15v1h-15z M499,296h14v1h-14z M529,296h15v1h-15z M499,297h14v1h-14z M529,297h15v1h-15z M499,298h14v1h-14z M529,298h15v1h-15z M499,299h14v1h-14z M529,299h15v1h-15z M499,300h14v1h-14z M529,300h15v1h-15z M499,301h14v1h-14z M529,301h15v1h-15z M499,302h14v1h-14z M529,302h15v1h-15z M499,303h14v1h-14z M529,303h15v1h-15z M499,304h14v1h-14z M529,304h15v1h-15z M499,305h14v1h-14z M529,305h15v1h-15z M499,306h14v1h-14z M529,306h15v1h-15z M499,307h14v1h-14z M529,307h15v1h-15z M499,308h14v1h-14z M529,308h15v1h-15z M499,309h14v1h-14z M529,309h15v1h-15z M499,310h14v1h-14z M529,310h15v1h-15z M499,311h14v1h-14z M529,311h15v1h-15z M499,312h14v1h-14z M529,312h15v1h-15z M499,313h14v1h-14z M529,313h15v1h-15z M499,314h14v1h-14z M529,314h15v1h-15z M499,315h14v1h-14z M529,315h15v1h-15z M499,316h15v1h-15z M528,316h16v1h-16z M499,317h15v1h-15z M528,317h16v1h-16z M499,318h15v1h-15z M528,318h16v1h-16z M499,319h15v1h-15z M528,319h16v1h-16z M499,320h15v1h-15z M528,320h16v1h-16z M499,321h15v1h-15z M528,321h16v1h-16z M499,322h15v1h-15z M528,322h16v1h-16z M499,323h15v1h-15z M528,323h16v1h-16z M499,324h16v1h-16z M528,324h16v1h-16z M499,325h16v1h-16z M528,325h16v1h-16z M499,326h16v1h-16z M527,326h17v1h-17z M499,327h17v1h-17z M527,327h17v1h-17z M499,328h17v1h-17z M527,328h17v1h-17z M499,329h18v1h-18z M526,329h17v1h-17z M499,330h21v1h-21z M524,330h19v1h-19z M499,331h44v1h-44z M500,332h42v1h-42z M500,333h42v1h-42z M501,334h40v1h-40z M502,335h38v1h-38z M503,336h37v1h-37z M505,337h34v1h-34z M506,338h32v1h-32z M507,339h30v1h-30z M508,340h27v1h-27z M510,341h22v1h-22z M512,342h13v1h-13z"/>
<path d="M552,291h23v1h-23z M552,292h30v1h-30z M552,293h33v1h-33z M552,294h36v1h-36z M552,295h38v1h-38z M552,296h39v1h-39z M552,297h40v1h-40z M552,298h41v1h-41z M552,299h42v1h-42z M552,300h42v1h-42z M552,301h42v1h-42z M552,302h43v1h-43z M552,303h17v1h-17z M575,303h20v1h-20z M552,304h16v1h-16z M577,304h18v1h-18z M552,305h16v1h-16z M578,305h17v1h-17z M552,306h16v1h-16z M579,306h16v1h-16z M552,307h16v1h-16z M579,307h16v1h-16z M552,308h16v1h-16z M579,308h16v1h-16z M552,309h16v1h-16z M578,309h17v1h-17z M552,310h16v1h-16z M578,310h16v1h-16z M552,311h16v1h-16z M576,311h18v1h-18z M552,312h17v1h-17z M574,312h19v1h-19z M552,313h41v1h-41z M552,314h40v1h-40z M552,315h40v1h-40z M552,316h39v1h-39z M552,317h38v1h-38z M552,318h37v1h-37z M552,319h37v1h-37z M552,320h36v1h-36z M552,321h36v1h-36z M552,322h36v1h-36z M552,323h37v1h-37z M552,324h38v1h-38z M552,325h17v1h-17z M570,325h20v1h-20z M552,326h16v1h-16z M571,326h20v1h-20z M552,327h16v1h-16z M572,327h20v1h-20z M552,328h16v1h-16z M573,328h20v1h-20z M552,329h16v1h-16z M574,329h19v1h-19z M552,330h16v1h-16z M575,330h19v1h-19z M552,331h16v1h-16z M576,331h19v1h-19z M552,332h16v1h-16z M576,332h20v1h-20z M552,333h16v1h-16z M577,333h20v1h-20z M552,334h16v1h-16z M578,334h19v1h-19z M552,335h16v1h-16z M579,335h19v1h-19z M552,336h16v1h-16z M579,336h20v1h-20z M552,337h16v1h-16z M580,337h19v1h-19z M552,338h16v1h-16z M581,338h19v1h-19z M552,339h16v1h-16z M582,339h18v1h-18z M552,340h16v1h-16z M583,340h17v1h-17z M552,341h16v1h-16z M584,341h16v1h-16z M552,342h15v1h-15z M587,342h10v1h-10z"/>
  </g>
</svg>